G04 start of page 7 for group -4079 idx -4079 *
G04 Title: (unknown), topsilk *
G04 Creator: pcb 20100929 *
G04 CreationDate: Mon 21 Feb 2011 05:52:53 PM GMT UTC *
G04 For: vince *
G04 Format: Gerber/RS-274X *
G04 PCB-Dimensions: 480000 150000 *
G04 PCB-Coordinate-Origin: lower left *
%MOIN*%
%FSLAX25Y25*%
%LNFRONTSILK*%
%ADD11C,0.0120*%
%ADD13C,0.0200*%
%ADD22C,0.0100*%
G54D13*G36*
X56000Y115000D02*X74000D01*
Y110000D01*
X56000D01*
Y115000D01*
G37*
G36*
Y105000D02*X74000D01*
Y100000D01*
X56000D01*
Y105000D01*
G37*
G36*
Y95000D02*X74000D01*
Y90000D01*
X56000D01*
Y95000D01*
G37*
G36*
Y85000D02*X74000D01*
Y80000D01*
X56000D01*
Y85000D01*
G37*
G36*
Y75000D02*X74000D01*
Y70000D01*
X56000D01*
Y75000D01*
G37*
G36*
Y65000D02*X74000D01*
Y60000D01*
X56000D01*
Y65000D01*
G37*
G36*
Y55000D02*X74000D01*
Y50000D01*
X56000D01*
Y55000D01*
G37*
G36*
Y45000D02*X74000D01*
Y40000D01*
X56000D01*
Y45000D01*
G37*
G36*
Y35000D02*X74000D01*
Y30000D01*
X56000D01*
Y35000D01*
G37*
G36*
Y26000D02*X74000D01*
Y20000D01*
X56000D01*
Y26000D01*
G37*
G36*
X406000Y85000D02*X424000D01*
Y80000D01*
X406000D01*
Y85000D01*
G37*
G36*
Y75000D02*X424000D01*
Y70000D01*
X406000D01*
Y75000D01*
G37*
G36*
Y65000D02*X424000D01*
Y60000D01*
X406000D01*
Y65000D01*
G37*
G36*
Y55000D02*X424000D01*
Y50000D01*
X406000D01*
Y55000D01*
G37*
G36*
Y115000D02*X423000D01*
Y110000D01*
X406000D01*
Y115000D01*
G37*
G36*
Y105000D02*X423000D01*
Y100000D01*
X406000D01*
Y105000D01*
G37*
G36*
Y95000D02*X423000D01*
Y90000D01*
X406000D01*
Y95000D01*
G37*
G36*
Y45000D02*X424000D01*
Y39000D01*
X406000D01*
Y45000D01*
G37*
G36*
Y35000D02*X424000D01*
Y30000D01*
X406000D01*
Y35000D01*
G37*
G36*
Y25000D02*X424000D01*
Y20000D01*
X406000D01*
Y25000D01*
G37*
G36*
X423000Y115000D02*X424000D01*
Y110000D01*
X423000D01*
Y115000D01*
G37*
G36*
Y105000D02*X424000D01*
Y100000D01*
X423000D01*
Y105000D01*
G37*
G36*
Y95000D02*X424000D01*
Y90000D01*
X423000D01*
Y95000D01*
G37*
G54D22*X0Y50000D02*X25000Y150000D01*
X0Y50000D02*Y25000D01*
X25000Y0D01*
G54D11*X49500Y15000D02*X54500Y4000D01*
X116000Y58000D02*X108000Y72000D01*
X104000Y73000D02*Y58000D01*
X106000D02*Y73000D01*
X108000Y38000D02*X116000Y52000D01*
X54500Y4000D02*X59500Y15000D01*
X49500D01*
X70500D02*X80500D01*
X69500D02*X63500Y3000D01*
X60500Y14000D01*
Y15000D02*X69500D01*
X54500Y3000D02*X74500D01*
X70500Y15000D01*
X80500D02*X74500Y3000D01*
X107000Y33000D02*X133000D01*
Y34000D02*X107000D01*
X106000D02*X134000D01*
X107000Y35000D02*X133000D01*
X136000Y31000D02*Y33000D01*
X124000Y52000D02*X133000Y37000D01*
X123000Y51000D02*X132000Y37000D01*
X125000Y52000D02*X133000Y38000D01*
X131000Y39000D01*
X124000Y52000D01*
X135000Y73000D02*Y58000D01*
X137000D02*Y73000D01*
X136000Y36000D02*Y53000D01*
X135000Y52000D02*Y37000D01*
X137000D02*Y52000D01*
X136000Y33000D02*X137000Y30000D01*
Y33000D01*
Y34000D02*Y32000D01*
X118000Y55000D02*X107000D01*
X117000Y54000D02*X108000D01*
X122000Y55000D02*X134000D01*
X133000Y54000D02*X123000D01*
X108000Y56000D02*X117000D01*
X105000Y57000D02*Y74000D01*
X108000Y37000D02*X117000Y52000D01*
Y58000D02*X108000Y73000D01*
X109000Y37000D02*X117000Y51000D01*
X136000Y57000D02*Y74000D01*
X123000Y58000D02*X133000Y73000D01*
X123000Y60000D02*X132000Y73000D01*
X124000Y58000D02*X133000Y71000D01*
X106000Y77000D02*X134000D01*
X107000Y76000D02*X133000D01*
X107000Y78000D02*X133000D01*
X123000Y56000D02*X133000D01*
X123000Y59000D02*X124000Y60000D01*
X123000Y52000D02*X125000Y49000D01*
X105000Y53000D02*Y36000D01*
X106000Y52000D02*Y37000D01*
X104000D02*Y52000D01*
X120000Y54000D02*Y38000D01*
Y37000D02*Y39000D01*
X121000Y53000D02*Y39000D01*
X119000Y53000D02*Y38000D01*
X121000Y40000D02*Y38000D01*
X120000Y56000D02*Y73000D01*
X119000Y57000D02*Y73000D01*
X121000Y57000D02*Y72000D01*
Y73000D02*Y71000D01*
X120000Y72000D02*Y74000D01*
X117000Y59000D02*X109000Y73000D01*
G54D22*X455000Y150000D02*X480000Y50000D01*
Y25000D01*
X455000Y0D01*
G54D11*X333000Y54000D02*X323000D01*
X318000Y55000D02*X307000D01*
X308000Y56000D02*X317000D01*
Y54000D02*X308000D01*
X306000Y77000D02*X334000D01*
X307000Y76000D02*X333000D01*
X307000Y78000D02*X333000D01*
X362000Y73000D02*Y71000D01*
X361000Y72000D02*Y74000D01*
X336000Y57000D02*Y74000D01*
X335000Y73000D02*Y58000D01*
X337000D02*Y73000D01*
X358000Y58000D02*X349000Y73000D01*
X358000Y59000D02*X350000Y73000D01*
X305000Y57000D02*Y74000D01*
X304000Y73000D02*Y58000D01*
X306000D02*Y73000D01*
X316000Y58000D02*X308000Y72000D01*
X307000Y33000D02*X333000D01*
Y34000D02*X307000D01*
X306000D02*X334000D01*
X247000Y33000D02*X273000D01*
Y34000D02*X247000D01*
X246000D02*X274000D01*
X247000Y35000D02*X273000D01*
X246000Y77000D02*X274000D01*
X247000Y76000D02*X273000D01*
X247000Y78000D02*X273000D01*
X258000Y55000D02*X247000D01*
X257000Y54000D02*X248000D01*
X262000Y55000D02*X274000D01*
X263000Y56000D02*X273000D01*
Y54000D02*X263000D01*
X248000Y56000D02*X257000D01*
X256000Y58000D02*X248000Y72000D01*
X245000Y57000D02*Y74000D01*
X244000Y73000D02*Y58000D01*
X246000D02*Y73000D01*
X360000Y53000D02*Y38000D01*
X362000Y40000D02*Y38000D01*
X364000Y52000D02*X366000Y49000D01*
X364000Y58000D02*X374000Y73000D01*
X364000Y60000D02*X373000Y73000D01*
X364000Y59000D02*X365000Y60000D01*
Y58000D02*X374000Y71000D01*
X349000Y37000D02*X358000Y52000D01*
X349000Y38000D02*X357000Y52000D01*
X350000Y37000D02*X358000Y51000D01*
X372000Y39000D02*X365000Y52000D01*
X377000Y31000D02*Y33000D01*
X378000Y30000D01*
Y33000D01*
Y34000D02*Y32000D01*
X365000Y52000D02*X374000Y37000D01*
X364000Y51000D02*X373000Y37000D01*
X366000Y52000D02*X374000Y38000D01*
X372000Y39000D01*
X379000Y33000D02*Y31000D01*
X397000Y15000D02*X402000Y4000D01*
X407000Y15000D01*
X397000D01*
X417000D02*X411000Y3000D01*
X408000Y14000D01*
Y15000D02*X417000D01*
X402000Y3000D02*X422000D01*
X418000Y15000D01*
X428000D01*
X422000Y3000D01*
G54D22*X25000Y150000D02*X455000D01*
Y0D02*X25000D01*
G54D11*X234000Y52000D02*Y37000D01*
X236000D02*Y52000D01*
X235000Y31000D02*Y33000D01*
X236000Y30000D01*
Y33000D01*
Y34000D02*Y32000D01*
X245000Y53000D02*Y36000D01*
X246000Y52000D02*Y37000D01*
X248000D02*X257000Y52000D01*
X248000Y38000D02*X256000Y52000D01*
X249000Y37000D02*X257000Y51000D01*
X244000Y37000D02*Y52000D01*
X219000Y54000D02*Y38000D01*
X218000Y53000D02*Y38000D01*
X207000Y37000D02*X216000Y52000D01*
X207000Y38000D02*X215000Y52000D01*
X208000Y37000D02*X216000Y51000D01*
X219000Y37000D02*Y39000D01*
X220000Y53000D02*Y39000D01*
Y40000D02*Y38000D01*
X222000Y52000D02*X224000Y49000D01*
X223000Y52000D02*X232000Y37000D01*
X222000Y51000D02*X231000Y37000D01*
X224000Y52000D02*X232000Y38000D01*
X230000Y39000D01*
X223000Y52000D01*
X166000D02*X174000Y38000D01*
X172000Y39000D01*
X179000Y33000D02*Y31000D01*
X172000Y39000D02*X165000Y52000D01*
X158000Y59000D02*X150000Y73000D01*
X138000Y33000D02*Y31000D01*
X174000Y34000D02*X148000D01*
X147000D02*X175000D01*
X148000Y35000D02*X174000D01*
X147000Y77000D02*X175000D01*
X148000Y76000D02*X174000D01*
X148000Y78000D02*X174000D01*
X157000Y58000D02*X149000Y72000D01*
X146000Y57000D02*Y74000D01*
X145000Y73000D02*Y58000D01*
X147000D02*Y73000D01*
X161000Y56000D02*Y73000D01*
X160000Y57000D02*Y73000D01*
X162000Y57000D02*Y72000D01*
Y73000D02*Y71000D01*
X161000Y72000D02*Y74000D01*
X159000Y55000D02*X148000D01*
X149000Y56000D02*X158000D01*
Y54000D02*X149000D01*
X163000Y55000D02*X175000D01*
X164000Y56000D02*X174000D01*
Y54000D02*X164000D01*
X177000Y57000D02*Y74000D01*
X176000Y73000D02*Y58000D01*
X178000D02*Y73000D01*
X177000Y36000D02*Y53000D01*
X176000Y52000D02*Y37000D01*
X178000D02*Y52000D01*
X146000Y53000D02*Y36000D01*
X147000Y52000D02*Y37000D01*
X145000D02*Y52000D01*
X161000Y54000D02*Y38000D01*
Y37000D02*Y39000D01*
X162000Y53000D02*Y39000D01*
X160000Y53000D02*Y38000D01*
X162000Y40000D02*Y38000D01*
X148000Y33000D02*X174000D01*
X206000D02*X232000D01*
Y34000D02*X206000D01*
X205000D02*X233000D01*
X206000Y35000D02*X232000D01*
X217000Y55000D02*X206000D01*
X207000Y56000D02*X216000D01*
Y54000D02*X207000D01*
X204000Y53000D02*Y36000D01*
X203000Y37000D02*Y52000D01*
X205000D02*Y37000D01*
X215000Y58000D02*X207000Y72000D01*
X204000Y57000D02*Y74000D01*
X203000Y73000D02*Y58000D01*
X205000D02*Y73000D01*
Y77000D02*X233000D01*
X206000Y76000D02*X232000D01*
X206000Y78000D02*X232000D01*
X235000Y57000D02*Y74000D01*
X234000Y73000D02*Y58000D01*
X236000D02*Y73000D01*
X307000Y35000D02*X333000D01*
X322000Y55000D02*X334000D01*
X323000Y56000D02*X333000D01*
X221000Y55000D02*X233000D01*
X222000Y56000D02*X232000D01*
Y54000D02*X222000D01*
X235000Y36000D02*Y53000D01*
X219000Y56000D02*Y73000D01*
X218000Y57000D02*Y73000D01*
X220000Y57000D02*Y72000D01*
Y73000D02*Y71000D01*
X219000Y72000D02*Y74000D01*
X222000Y58000D02*X232000Y73000D01*
X222000Y60000D02*X231000Y73000D01*
X222000Y59000D02*X223000Y60000D01*
Y58000D02*X232000Y71000D01*
X216000Y58000D02*X207000Y73000D01*
X216000Y59000D02*X208000Y73000D01*
X164000Y58000D02*X174000Y73000D01*
X164000Y60000D02*X173000Y73000D01*
X164000Y59000D02*X165000Y60000D01*
Y58000D02*X174000Y71000D01*
X158000Y58000D02*X149000Y73000D01*
X177000Y31000D02*Y33000D01*
X178000Y30000D01*
Y33000D01*
Y34000D02*Y32000D01*
X164000Y52000D02*X166000Y49000D01*
X149000Y37000D02*X158000Y52000D01*
X165000D02*X174000Y37000D01*
X149000Y38000D02*X157000Y52000D01*
X150000Y37000D02*X158000Y51000D01*
X164000D02*X173000Y37000D01*
X276000Y36000D02*Y53000D01*
X275000Y52000D02*Y37000D01*
X277000D02*Y52000D01*
X259000Y53000D02*Y38000D01*
X260000Y54000D02*Y38000D01*
Y37000D02*Y39000D01*
X261000Y53000D02*Y39000D01*
Y40000D02*Y38000D01*
X276000Y31000D02*Y33000D01*
X277000Y30000D01*
Y33000D01*
Y34000D02*Y32000D01*
X278000Y33000D02*Y31000D01*
X263000Y52000D02*X265000Y49000D01*
X264000Y52000D02*X273000Y37000D01*
X263000Y51000D02*X272000Y37000D01*
X265000Y52000D02*X273000Y38000D01*
X271000Y39000D01*
X264000Y52000D01*
X276000Y57000D02*Y74000D01*
X275000Y73000D02*Y58000D01*
X277000D02*Y73000D01*
X260000Y56000D02*Y73000D01*
X259000Y57000D02*Y73000D01*
X261000Y57000D02*Y72000D01*
Y73000D02*Y71000D01*
X260000Y72000D02*Y74000D01*
X263000Y58000D02*X273000Y73000D01*
X263000Y60000D02*X272000Y73000D01*
X263000Y59000D02*X264000Y60000D01*
Y58000D02*X273000Y71000D01*
X257000Y58000D02*X248000Y73000D01*
X257000Y59000D02*X249000Y73000D01*
X305000Y53000D02*Y36000D01*
X304000Y37000D02*Y52000D01*
X306000D02*Y37000D01*
X320000Y54000D02*Y38000D01*
X319000Y53000D02*Y38000D01*
X337000Y37000D02*Y52000D01*
X336000Y36000D02*Y53000D01*
X335000Y52000D02*Y37000D01*
X320000D02*Y39000D01*
X321000Y53000D02*Y39000D01*
Y40000D02*Y38000D01*
X320000Y56000D02*Y73000D01*
X321000Y57000D02*Y72000D01*
Y73000D02*Y71000D01*
X320000Y72000D02*Y74000D01*
X319000Y57000D02*Y73000D01*
X323000Y58000D02*X333000Y73000D01*
X323000Y60000D02*X332000Y73000D01*
X323000Y59000D02*X324000Y60000D01*
X237000Y33000D02*Y31000D01*
X336000D02*Y33000D01*
X337000Y30000D01*
Y33000D01*
X338000D02*Y31000D01*
X308000Y37000D02*X317000Y52000D01*
X308000Y38000D02*X316000Y52000D01*
X309000Y37000D02*X317000Y51000D01*
Y58000D02*X308000Y73000D01*
X317000Y59000D02*X309000Y73000D01*
X324000Y58000D02*X333000Y71000D01*
X323000Y52000D02*X325000Y49000D01*
X324000Y52000D02*X333000Y37000D01*
X323000Y51000D02*X332000Y37000D01*
X325000Y52000D02*X333000Y38000D01*
X331000Y39000D01*
X324000Y52000D01*
X337000Y34000D02*Y32000D01*
X348000Y33000D02*X374000D01*
Y34000D02*X348000D01*
X347000D02*X375000D01*
X348000Y35000D02*X374000D01*
X363000Y55000D02*X375000D01*
X364000Y56000D02*X374000D01*
Y54000D02*X364000D01*
X361000D02*Y38000D01*
Y37000D02*Y39000D01*
X362000Y53000D02*Y39000D01*
X377000Y57000D02*Y74000D01*
X376000Y73000D02*Y58000D01*
X378000D02*Y73000D01*
X377000Y36000D02*Y53000D01*
X376000Y52000D02*Y37000D01*
X378000D02*Y52000D01*
X357000Y58000D02*X349000Y72000D01*
X359000Y55000D02*X348000D01*
X349000Y56000D02*X358000D01*
X347000Y77000D02*X375000D01*
X348000Y76000D02*X374000D01*
X348000Y78000D02*X374000D01*
X346000Y57000D02*Y74000D01*
X345000Y73000D02*Y58000D01*
X347000D02*Y73000D01*
X346000Y53000D02*Y36000D01*
X345000Y37000D02*Y52000D01*
X347000D02*Y37000D01*
X358000Y54000D02*X349000D01*
X361000Y56000D02*Y73000D01*
X360000Y57000D02*Y73000D01*
X362000Y57000D02*Y72000D01*
G54D22*X250500Y147000D02*Y143000D01*
X252000Y147000D02*X252500Y146500D01*
Y143500D01*
X252000Y143000D02*X252500Y143500D01*
X250000Y143000D02*X252000D01*
X250000Y147000D02*X252000D01*
X253701Y145000D02*X255701Y147000D01*
X253701Y145000D02*X256201D01*
X255701Y147000D02*Y143000D01*
X259202Y145000D02*X261202D01*
X266203Y147000D02*X266703Y146500D01*
X264703Y147000D02*X266203D01*
X264203Y146500D02*X264703Y147000D01*
X264203Y146500D02*Y143500D01*
X264703Y143000D01*
X266203D01*
X266703Y143500D01*
Y144500D02*Y143500D01*
X266203Y145000D02*X266703Y144500D01*
X265203Y145000D02*X266203D01*
X267904Y147000D02*X269904D01*
X270404Y146500D01*
Y145500D01*
X269904Y145000D02*X270404Y145500D01*
X268404Y145000D02*X269904D01*
X268404Y147000D02*Y143000D01*
Y145000D02*X270404Y143000D01*
X271605Y145000D02*X273105D01*
X271605Y143000D02*X273605D01*
X271605Y147000D02*Y143000D01*
Y147000D02*X273605D01*
X274806Y145000D02*X276306D01*
X274806Y143000D02*X276806D01*
X274806Y147000D02*Y143000D01*
Y147000D02*X276806D01*
X278007D02*Y143000D01*
Y147000D02*Y146500D01*
X280507Y144000D01*
Y147000D02*Y143000D01*
X306500Y147000D02*Y143000D01*
X308000Y147000D02*X308500Y146500D01*
Y143500D01*
X308000Y143000D02*X308500Y143500D01*
X306000Y143000D02*X308000D01*
X306000Y147000D02*X308000D01*
X309701D02*X311701D01*
X309701D02*Y145000D01*
X310201Y145500D01*
X311201D01*
X311701Y145000D01*
Y143500D01*
X311201Y143000D02*X311701Y143500D01*
X310201Y143000D02*X311201D01*
X309701Y143500D02*X310201Y143000D01*
X314702Y145000D02*X316702D01*
X319703Y143000D02*X321703D01*
X322203Y143500D01*
Y144500D02*Y143500D01*
X321703Y145000D02*X322203Y144500D01*
X320203Y145000D02*X321703D01*
X320203Y147000D02*Y143000D01*
X319703Y147000D02*X321703D01*
X322203Y146500D01*
Y145500D01*
X321703Y145000D02*X322203Y145500D01*
X323404Y147000D02*Y143000D01*
X325404D01*
X326605Y147000D02*Y143500D01*
X327105Y143000D01*
X328105D01*
X328605Y143500D01*
Y147000D02*Y143500D01*
X329806Y145000D02*X331306D01*
X329806Y143000D02*X331806D01*
X329806Y147000D02*Y143000D01*
Y147000D02*X331806D01*
X350500D02*Y143000D01*
X352000Y147000D02*X352500Y146500D01*
Y143500D01*
X352000Y143000D02*X352500Y143500D01*
X350000Y143000D02*X352000D01*
X350000Y147000D02*X352000D01*
X355201D02*X355701Y146500D01*
X354201Y147000D02*X355201D01*
X353701Y146500D02*X354201Y147000D01*
X353701Y146500D02*Y143500D01*
X354201Y143000D01*
X355201Y145000D02*X355701Y144500D01*
X353701Y145000D02*X355201D01*
X354201Y143000D02*X355201D01*
X355701Y143500D01*
Y144500D02*Y143500D01*
X358702Y145000D02*X360702D01*
X364203Y147000D02*Y143000D01*
X363703Y147000D02*X365703D01*
X366203Y146500D01*
Y145500D01*
X365703Y145000D02*X366203Y145500D01*
X364203Y145000D02*X365703D01*
X367404Y147000D02*Y143500D01*
X367904Y143000D01*
X368904D01*
X369404Y143500D01*
Y147000D02*Y143500D01*
X370605Y147000D02*X372605D01*
X373105Y146500D01*
Y145500D01*
X372605Y145000D02*X373105Y145500D01*
X371105Y145000D02*X372605D01*
X371105Y147000D02*Y143000D01*
Y145000D02*X373105Y143000D01*
X374806Y147000D02*Y143000D01*
X374306Y147000D02*X376306D01*
X376806Y146500D01*
Y145500D01*
X376306Y145000D02*X376806Y145500D01*
X374806Y145000D02*X376306D01*
X378007Y147000D02*Y143000D01*
X380007D01*
X381208Y145000D02*X382708D01*
X381208Y143000D02*X383208D01*
X381208Y147000D02*Y143000D01*
Y147000D02*X383208D01*
X242500Y8510D02*X245160D01*
X246757D02*X249417D01*
X253408Y10505D02*Y5850D01*
Y10505D02*X254073Y11170D01*
X256068D01*
X256733Y10505D01*
Y5850D01*
X253408Y8510D02*X256733D01*
X260724Y11170D02*Y7180D01*
X262054Y5850D01*
X263384Y7180D01*
Y11170D02*Y7180D01*
X264982Y11170D02*Y5850D01*
Y11170D02*X266977Y9175D01*
X268972Y11170D01*
Y5850D01*
X270569Y11170D02*Y5850D01*
X272564Y7845D01*
X274559Y5850D01*
Y11170D02*Y5850D01*
X278550Y11170D02*Y5850D01*
X281875Y11170D02*Y5850D01*
X278550Y8510D02*X281875D01*
X285468D02*X286133Y7845D01*
X284138Y8510D02*X285468D01*
X283473Y7845D02*X284138Y8510D01*
X283473Y7845D02*Y6515D01*
X284138Y5850D01*
X286133Y8510D02*Y6515D01*
X286798Y5850D01*
X284138D02*X285468D01*
X286133Y6515D01*
X289060Y7845D02*Y5850D01*
Y7845D02*X289725Y8510D01*
X291055D01*
X288395D02*X289060Y7845D01*
X295312Y11170D02*Y5850D01*
X294647D02*X295312Y6515D01*
X293317Y5850D02*X294647D01*
X292652Y6515D02*X293317Y5850D01*
X292652Y7845D02*Y6515D01*
Y7845D02*X293317Y8510D01*
X294647D01*
X295312Y7845D01*
X296910Y8510D02*Y6515D01*
X297575Y5850D01*
X298240D01*
X298905Y6515D01*
Y8510D02*Y6515D01*
X299570Y5850D01*
X300235D01*
X300900Y6515D01*
Y8510D02*Y6515D01*
X304492Y8510D02*X305157Y7845D01*
X303162Y8510D02*X304492D01*
X302497Y7845D02*X303162Y8510D01*
X302497Y7845D02*Y6515D01*
X303162Y5850D01*
X305157Y8510D02*Y6515D01*
X305822Y5850D01*
X303162D02*X304492D01*
X305157Y6515D01*
X308084Y7845D02*Y5850D01*
Y7845D02*X308749Y8510D01*
X310079D01*
X307419D02*X308084Y7845D01*
X312342Y5850D02*X314337D01*
X311677Y6515D02*X312342Y5850D01*
X311677Y7845D02*Y6515D01*
Y7845D02*X312342Y8510D01*
X313672D01*
X314337Y7845D01*
X311677Y7180D02*X314337D01*
Y7845D02*Y7180D01*
X318993Y11170D02*Y5850D01*
X318328Y11170D02*X320988D01*
X321653Y10505D01*
Y9175D01*
X320988Y8510D02*X321653Y9175D01*
X318993Y8510D02*X320988D01*
X323915Y7845D02*Y5850D01*
Y7845D02*X324580Y8510D01*
X325910D01*
X323250D02*X323915Y7845D01*
X327508D02*Y6515D01*
Y7845D02*X328173Y8510D01*
X329503D01*
X330168Y7845D01*
Y6515D01*
X329503Y5850D02*X330168Y6515D01*
X328173Y5850D02*X329503D01*
X327508Y6515D02*X328173Y5850D01*
X334425Y11170D02*Y5850D01*
X333760D02*X334425Y6515D01*
X332430Y5850D02*X333760D01*
X331765Y6515D02*X332430Y5850D01*
X331765Y7845D02*Y6515D01*
Y7845D02*X332430Y8510D01*
X333760D01*
X334425Y7845D01*
X336022Y8510D02*Y6515D01*
X336687Y5850D01*
X338017D01*
X338682Y6515D01*
Y8510D02*Y6515D01*
X340945Y8510D02*X342940D01*
X340280Y7845D02*X340945Y8510D01*
X340280Y7845D02*Y6515D01*
X340945Y5850D01*
X342940D01*
X345202Y11170D02*Y6515D01*
X345867Y5850D01*
X344537Y9175D02*X345867D01*
X347198Y9840D02*Y9175D01*
Y7845D02*Y5850D01*
X348530Y7845D02*Y6515D01*
Y7845D02*X349195Y8510D01*
X350525D01*
X351190Y7845D01*
Y6515D01*
X350525Y5850D02*X351190Y6515D01*
X349195Y5850D02*X350525D01*
X348530Y6515D02*X349195Y5850D01*
X353452Y7845D02*Y5850D01*
Y7845D02*X354117Y8510D01*
X354782D01*
X355447Y7845D01*
Y5850D01*
X352787Y8510D02*X353452Y7845D01*
X359438Y6515D02*X360103Y5850D01*
X359438Y10505D02*X360103Y11170D01*
X359438Y10505D02*Y6515D01*
X361701Y10505D02*X362366Y11170D01*
X364361D01*
X365026Y10505D01*
Y9175D01*
X361701Y5850D02*X365026Y9175D01*
X361701Y5850D02*X365026D01*
X366623Y6515D02*X367288Y5850D01*
X366623Y10505D02*Y6515D01*
Y10505D02*X367288Y11170D01*
X368618D01*
X369283Y10505D01*
Y6515D01*
X368618Y5850D02*X369283Y6515D01*
X367288Y5850D02*X368618D01*
X366623Y7180D02*X369283Y9840D01*
X371545Y5850D02*X372875D01*
X372210Y11170D02*Y5850D01*
X370880Y9840D02*X372210Y11170D01*
X375138Y5850D02*X376468D01*
X375803Y11170D02*Y5850D01*
X374473Y9840D02*X375803Y11170D01*
X378065D02*X378730Y10505D01*
Y6515D01*
X378065Y5850D02*X378730Y6515D01*
X94500Y147000D02*Y143000D01*
X96000Y147000D02*X96500Y146500D01*
Y143500D01*
X96000Y143000D02*X96500Y143500D01*
X94000Y143000D02*X96000D01*
X94000Y147000D02*X96000D01*
X98201Y143000D02*X99201D01*
X98701Y147000D02*Y143000D01*
X97701Y146000D02*X98701Y147000D01*
X102202Y145000D02*X104202D01*
X107203Y147000D02*X109203D01*
X109703Y146500D01*
Y145500D01*
X109203Y145000D02*X109703Y145500D01*
X107703Y145000D02*X109203D01*
X107703Y147000D02*Y143000D01*
Y145000D02*X109703Y143000D01*
X110904Y145000D02*X112404D01*
X110904Y143000D02*X112904D01*
X110904Y147000D02*Y143000D01*
Y147000D02*X112904D01*
X114605D02*Y143000D01*
X116105Y147000D02*X116605Y146500D01*
Y143500D01*
X116105Y143000D02*X116605Y143500D01*
X114105Y143000D02*X116105D01*
X114105Y147000D02*X116105D01*
X144500D02*Y143000D01*
X146000Y147000D02*X146500Y146500D01*
Y143500D01*
X146000Y143000D02*X146500Y143500D01*
X144000Y143000D02*X146000D01*
X144000Y147000D02*X146000D01*
X147701Y146500D02*X148201Y147000D01*
X149701D01*
X150201Y146500D01*
Y145500D01*
X147701Y143000D02*X150201Y145500D01*
X147701Y143000D02*X150201D01*
X153202Y145000D02*X155202D01*
X158203Y146500D02*Y143500D01*
Y146500D02*X158703Y147000D01*
X159703D01*
X160203Y146500D01*
Y143500D01*
X159703Y143000D02*X160203Y143500D01*
X158703Y143000D02*X159703D01*
X158203Y143500D02*X158703Y143000D01*
X161404Y147000D02*X163404D01*
X163904Y146500D01*
Y145500D01*
X163404Y145000D02*X163904Y145500D01*
X161904Y145000D02*X163404D01*
X161904Y147000D02*Y143000D01*
Y145000D02*X163904Y143000D01*
X165105Y146500D02*Y143000D01*
Y146500D02*X165605Y147000D01*
X167105D01*
X167605Y146500D01*
Y143000D01*
X165105Y145000D02*X167605D01*
X168806Y147000D02*Y143000D01*
Y147000D02*Y146500D01*
X171306Y144000D01*
Y147000D02*Y143000D01*
X174507Y147000D02*X175007Y146500D01*
X173007Y147000D02*X174507D01*
X172507Y146500D02*X173007Y147000D01*
X172507Y146500D02*Y143500D01*
X173007Y143000D01*
X174507D01*
X175007Y143500D01*
Y144500D02*Y143500D01*
X174507Y145000D02*X175007Y144500D01*
X173507Y145000D02*X174507D01*
X176208D02*X177708D01*
X176208Y143000D02*X178208D01*
X176208Y147000D02*Y143000D01*
Y147000D02*X178208D01*
X203500Y148000D02*Y144000D01*
X205000Y148000D02*X205500Y147500D01*
Y144500D01*
X205000Y144000D02*X205500Y144500D01*
X203000Y144000D02*X205000D01*
X203000Y148000D02*X205000D01*
X206701Y147500D02*X207201Y148000D01*
X208201D01*
X208701Y147500D01*
Y144500D01*
X208201Y144000D02*X208701Y144500D01*
X207201Y144000D02*X208201D01*
X206701Y144500D02*X207201Y144000D01*
Y146000D02*X208701D01*
X211702D02*X213702D01*
X216703Y148000D02*Y147500D01*
X217703Y146500D01*
X218703Y147500D01*
Y148000D02*Y147500D01*
X217703Y146500D02*Y144000D01*
X219904Y146000D02*X221404D01*
X219904Y144000D02*X221904D01*
X219904Y148000D02*Y144000D01*
Y148000D02*X221904D01*
X223105D02*Y144000D01*
X225105D01*
X226306Y148000D02*Y144000D01*
X228306D01*
X229507Y147500D02*Y144500D01*
Y147500D02*X230007Y148000D01*
X231007D01*
X231507Y147500D01*
Y144500D01*
X231007Y144000D02*X231507Y144500D01*
X230007Y144000D02*X231007D01*
X229507Y144500D02*X230007Y144000D01*
X232708Y148000D02*Y144000D01*
X234208Y145500D01*
X235708Y144000D01*
Y148000D02*Y144000D01*
X101380Y11560D02*X102100Y10840D01*
X99220Y11560D02*X101380D01*
X98500Y10840D02*X99220Y11560D01*
X98500Y10840D02*Y9400D01*
X99220Y8680D01*
X101380D01*
X102100Y7960D01*
Y6520D01*
X101380Y5800D02*X102100Y6520D01*
X99220Y5800D02*X101380D01*
X98500Y6520D02*X99220Y5800D01*
X103829Y8680D02*Y6520D01*
X104549Y5800D01*
X105989D01*
X106709Y6520D01*
Y8680D02*Y6520D01*
X109158Y7960D02*Y3640D01*
X108438Y8680D02*X109158Y7960D01*
X109878Y8680D01*
X111318D01*
X112038Y7960D01*
Y6520D01*
X111318Y5800D02*X112038Y6520D01*
X109878Y5800D02*X111318D01*
X109158Y6520D02*X109878Y5800D01*
X114488D02*X116648D01*
X113768Y6520D02*X114488Y5800D01*
X113768Y7960D02*Y6520D01*
Y7960D02*X114488Y8680D01*
X115928D01*
X116648Y7960D01*
X113768Y7240D02*X116648D01*
Y7960D02*Y7240D01*
X119097Y7960D02*Y5800D01*
Y7960D02*X119817Y8680D01*
X121257D01*
X118377D02*X119097Y7960D01*
X125579Y11560D02*Y7240D01*
X127019Y5800D01*
X128459Y7240D01*
Y11560D02*Y7240D01*
X130188Y11560D02*Y5800D01*
Y11560D02*X132348Y9400D01*
X134508Y11560D01*
Y5800D01*
X136238Y11560D02*Y5800D01*
X138398Y7960D01*
X140558Y5800D01*
Y11560D02*Y5800D01*
X144879Y11560D02*Y5800D01*
Y11560D02*X147039Y9400D01*
X149199Y11560D01*
Y5800D01*
X151648D02*X153808D01*
X150928Y6520D02*X151648Y5800D01*
X150928Y7960D02*Y6520D01*
Y7960D02*X151648Y8680D01*
X153088D01*
X153808Y7960D01*
X150928Y7240D02*X153808D01*
Y7960D02*Y7240D01*
X156258Y11560D02*Y6520D01*
X156978Y5800D01*
X155538Y9400D02*X156978D01*
X159139Y5800D02*X161299D01*
X158419Y6520D02*X159139Y5800D01*
X158419Y7960D02*Y6520D01*
Y7960D02*X159139Y8680D01*
X160579D01*
X161299Y7960D01*
X158419Y7240D02*X161299D01*
Y7960D02*Y7240D01*
X163749Y7960D02*Y5800D01*
Y7960D02*X164469Y8680D01*
X165909D01*
X163029D02*X163749Y7960D01*
X170230Y11560D02*Y5800D01*
X173110D01*
X174840Y8680D02*X177000D01*
X174840Y5800D02*X177720D01*
X174840Y11560D02*Y5800D01*
Y11560D02*X177720D01*
X180169D02*Y5800D01*
X182329Y11560D02*X183049Y10840D01*
Y6520D01*
X182329Y5800D02*X183049Y6520D01*
X179449Y5800D02*X182329D01*
X179449Y11560D02*X182329D01*
X187371Y5800D02*X190251D01*
X190971Y6520D01*
Y7960D02*Y6520D01*
X190251Y8680D02*X190971Y7960D01*
X188091Y8680D02*X190251D01*
X188091Y11560D02*Y5800D01*
X187371Y11560D02*X190251D01*
X190971Y10840D01*
Y9400D01*
X190251Y8680D02*X190971Y9400D01*
X192700Y7960D02*Y6520D01*
Y7960D02*X193420Y8680D01*
X194860D01*
X195580Y7960D01*
Y6520D01*
X194860Y5800D02*X195580Y6520D01*
X193420Y5800D02*X194860D01*
X192700Y6520D02*X193420Y5800D01*
X199469Y8680D02*X200189Y7960D01*
X198029Y8680D02*X199469D01*
X197309Y7960D02*X198029Y8680D01*
X197309Y7960D02*Y6520D01*
X198029Y5800D01*
X200189Y8680D02*Y6520D01*
X200909Y5800D01*
X198029D02*X199469D01*
X200189Y6520D01*
X203359Y7960D02*Y5800D01*
Y7960D02*X204079Y8680D01*
X205519D01*
X202639D02*X203359Y7960D01*
X210128Y11560D02*Y5800D01*
X209408D02*X210128Y6520D01*
X207968Y5800D02*X209408D01*
X207248Y6520D02*X207968Y5800D01*
X207248Y7960D02*Y6520D01*
Y7960D02*X207968Y8680D01*
X209408D01*
X210128Y7960D01*
X214450Y11560D02*Y5800D01*
Y11560D02*X216610Y9400D01*
X218770Y11560D01*
Y5800D01*
X222659Y8680D02*X223379Y7960D01*
X221219Y8680D02*X222659D01*
X220499Y7960D02*X221219Y8680D01*
X220499Y7960D02*Y6520D01*
X221219Y5800D01*
X223379Y8680D02*Y6520D01*
X224099Y5800D01*
X221219D02*X222659D01*
X223379Y6520D01*
X226549Y7960D02*Y5800D01*
Y7960D02*X227269Y8680D01*
X228709D01*
X225829D02*X226549Y7960D01*
X230438Y11560D02*Y5800D01*
Y7960D02*X232598Y5800D01*
X230438Y7960D02*X231878Y9400D01*
X234328Y10840D02*X235048Y11560D01*
X237208D01*
X237928Y10840D01*
Y9400D01*
X234328Y5800D02*X237928Y9400D01*
X234328Y5800D02*X237928D01*
X305000Y119750D02*Y115749D01*
G54D13*X297951Y110000D02*X299250D01*
X310750D02*X312049D01*
G54D22*X309663Y97239D02*G75*G03X312679Y109798I-4663J7761D01*G01*
X297493Y110064D02*G75*G03X300068Y97405I7506J-5063D01*G01*
X330000Y119750D02*Y115749D01*
G54D13*X322951Y110000D02*X324250D01*
X335750D02*X337049D01*
G54D22*X334663Y97239D02*G75*G03X337679Y109798I-4663J7761D01*G01*
X322493Y110064D02*G75*G03X325068Y97405I7506J-5063D01*G01*
X327500Y121700D02*X328400Y122600D01*
X327500Y138100D02*X328500Y137100D01*
Y137200D02*Y122700D01*
X327502Y138103D02*G75*G03X327502Y121697I-8202J-8202D01*G01*
X355000Y119750D02*Y115749D01*
G54D13*X347951Y110000D02*X349250D01*
X360750D02*X362049D01*
G54D22*X359663Y97239D02*G75*G03X362679Y109798I-4663J7761D01*G01*
X347493Y110064D02*G75*G03X350068Y97405I7506J-5063D01*G01*
X380000Y119750D02*Y115749D01*
G54D13*X372951Y110000D02*X374250D01*
X385750D02*X387049D01*
G54D22*X384663Y97239D02*G75*G03X387679Y109798I-4663J7761D01*G01*
X372493Y110064D02*G75*G03X375068Y97405I7506J-5063D01*G01*
X357500Y138300D02*X356600Y137400D01*
X357500Y121900D02*X356500Y122900D01*
Y137300D02*Y122800D01*
X357497Y121898D02*G75*G03X357497Y138302I8202J8202D01*G01*
X420250Y18000D02*X436000D01*
X415000Y23250D02*X420250Y18000D01*
X409750D02*X415000Y23250D01*
X394000Y18000D02*X409750D01*
X394000Y117000D02*Y18000D01*
Y117000D02*X436000D01*
Y18000D01*
X295500Y46000D02*Y19000D01*
X300750Y55000D02*X295500Y46000D01*
Y64000D02*X300750Y55000D01*
X295500Y91000D02*Y64000D01*
Y91000D02*X384500D01*
Y19000D01*
X295500D02*X384500D01*
X175000Y119750D02*Y115749D01*
G54D13*X167951Y110000D02*X169250D01*
X180750D02*X182049D01*
G54D22*X179663Y97239D02*G75*G03X182679Y109798I-4663J7761D01*G01*
X167493Y110064D02*G75*G03X170068Y97405I7506J-5063D01*G01*
X200000Y119750D02*Y115749D01*
G54D13*X192951Y110000D02*X194250D01*
X205750D02*X207049D01*
G54D22*X204663Y97239D02*G75*G03X207679Y109798I-4663J7761D01*G01*
X192493Y110064D02*G75*G03X195068Y97405I7506J-5063D01*G01*
X227500Y119750D02*Y115749D01*
G54D13*X220451Y110000D02*X221750D01*
X233250D02*X234549D01*
G54D22*X232163Y97239D02*G75*G03X235179Y109798I-4663J7761D01*G01*
X219993Y110064D02*G75*G03X222568Y97405I7506J-5063D01*G01*
X252500Y119750D02*Y115749D01*
G54D13*X245451Y110000D02*X246750D01*
X258250D02*X259549D01*
G54D22*X257163Y97239D02*G75*G03X260179Y109798I-4663J7761D01*G01*
X244993Y110064D02*G75*G03X247568Y97405I7506J-5063D01*G01*
X152500Y138300D02*X151600Y137400D01*
X152500Y121900D02*X151500Y122900D01*
Y137300D02*Y122800D01*
X152497Y121898D02*G75*G03X152497Y138302I8202J8202D01*G01*
X122500Y121700D02*X123400Y122600D01*
X122500Y138100D02*X123500Y137100D01*
Y137200D02*Y122700D01*
X122502Y138103D02*G75*G03X122502Y121697I-8202J-8202D01*G01*
X100000Y119750D02*Y115749D01*
G54D13*X92951Y110000D02*X94250D01*
X105750D02*X107049D01*
G54D22*X104663Y97239D02*G75*G03X107679Y109798I-4663J7761D01*G01*
X92493Y110064D02*G75*G03X95068Y97405I7506J-5063D01*G01*
X125000Y119750D02*Y115749D01*
G54D13*X117951Y110000D02*X119250D01*
X130750D02*X132049D01*
G54D22*X129663Y97239D02*G75*G03X132679Y109798I-4663J7761D01*G01*
X117493Y110064D02*G75*G03X120068Y97405I7506J-5063D01*G01*
X150000Y119750D02*Y115749D01*
G54D13*X142951Y110000D02*X144250D01*
X155750D02*X157049D01*
G54D22*X154663Y97239D02*G75*G03X157679Y109798I-4663J7761D01*G01*
X142493Y110064D02*G75*G03X145068Y97405I7506J-5063D01*G01*
X59750Y117000D02*X44000D01*
X65000Y111750D02*X59750Y117000D01*
X70250D02*X65000Y111750D01*
X86000Y117000D02*X70250D01*
X86000Y18000D02*Y117000D01*
X44000Y18000D02*X86000D01*
X44000Y117000D02*Y18000D01*
X95500Y46000D02*Y19000D01*
X100750Y55000D02*X95500Y46000D01*
Y64000D02*X100750Y55000D01*
X95500Y91000D02*Y64000D01*
Y91000D02*X184500D01*
Y19000D01*
X95500D02*X184500D01*
X280000Y119750D02*Y115749D01*
G54D13*X272951Y110000D02*X274250D01*
X285750D02*X287049D01*
G54D22*X284663Y97239D02*G75*G03X287679Y109798I-4663J7761D01*G01*
X272493Y110064D02*G75*G03X275068Y97405I7506J-5063D01*G01*
X257500Y138300D02*X256600Y137400D01*
X257500Y121900D02*X256500Y122900D01*
Y137300D02*Y122800D01*
X257497Y121898D02*G75*G03X257497Y138302I8202J8202D01*G01*
X222500Y121700D02*X223400Y122600D01*
X222500Y138100D02*X223500Y137100D01*
Y137200D02*Y122700D01*
X222502Y138103D02*G75*G03X222502Y121697I-8202J-8202D01*G01*
X195500Y46000D02*Y19000D01*
X200750Y55000D02*X195500Y46000D01*
Y64000D02*X200750Y55000D01*
X195500Y91000D02*Y64000D01*
Y91000D02*X284500D01*
Y19000D01*
X195500D02*X284500D01*
X110211Y101083D02*Y97083D01*
X111711Y101083D02*X112211Y100583D01*
Y97583D01*
X111711Y97083D02*X112211Y97583D01*
X109711Y97083D02*X111711D01*
X109711Y101083D02*X111711D01*
X113412Y97083D02*X115912Y99583D01*
Y101083D02*Y99583D01*
X113412Y101083D02*X115912D01*
X134211Y100083D02*Y96083D01*
X135711Y100083D02*X136211Y99583D01*
Y96583D01*
X135711Y96083D02*X136211Y96583D01*
X133711Y96083D02*X135711D01*
X133711Y100083D02*X135711D01*
X137412Y96583D02*X137912Y96083D01*
X137412Y97583D02*Y96583D01*
Y97583D02*X137912Y98083D01*
X138912D01*
X139412Y97583D01*
Y96583D01*
X138912Y96083D02*X139412Y96583D01*
X137912Y96083D02*X138912D01*
X137412Y98583D02*X137912Y98083D01*
X137412Y99583D02*Y98583D01*
Y99583D02*X137912Y100083D01*
X138912D01*
X139412Y99583D01*
Y98583D01*
X138912Y98083D02*X139412Y98583D01*
X44000Y123000D02*Y119000D01*
X46000D01*
X47201Y121000D02*X48701D01*
X47201Y119000D02*X49201D01*
X47201Y123000D02*Y119000D01*
Y123000D02*X49201D01*
X50902D02*Y119000D01*
X52402Y123000D02*X52902Y122500D01*
Y119500D01*
X52402Y119000D02*X52902Y119500D01*
X50402Y119000D02*X52402D01*
X50402Y123000D02*X52402D01*
X54103Y121000D02*X56103Y123000D01*
X54103Y121000D02*X56603D01*
X56103Y123000D02*Y119000D01*
X89500Y19000D02*X93500D01*
Y21000D02*Y19000D01*
X91500Y23701D02*Y22201D01*
X93500Y24201D02*Y22201D01*
X89500D02*X93500D01*
X89500Y24201D02*Y22201D01*
Y25902D02*X93500D01*
X89500Y27402D02*X90000Y27902D01*
X93000D01*
X93500Y27402D02*X93000Y27902D01*
X93500Y27402D02*Y25402D01*
X89500Y27402D02*Y25402D01*
X93500Y30603D02*Y29603D01*
X89500Y30103D02*X93500D01*
X90500Y29103D02*X89500Y30103D01*
X160211Y101083D02*Y97083D01*
X161711Y101083D02*X162211Y100583D01*
Y97583D01*
X161711Y97083D02*X162211Y97583D01*
X159711Y97083D02*X161711D01*
X159711Y101083D02*X161711D01*
X163412Y97083D02*X165412Y99083D01*
Y100583D02*Y99083D01*
X164912Y101083D02*X165412Y100583D01*
X163912Y101083D02*X164912D01*
X163412Y100583D02*X163912Y101083D01*
X163412Y100583D02*Y99583D01*
X163912Y99083D01*
X165412D01*
X189500Y19000D02*X193500D01*
Y21000D02*Y19000D01*
X191500Y23701D02*Y22201D01*
X193500Y24201D02*Y22201D01*
X189500D02*X193500D01*
X189500Y24201D02*Y22201D01*
Y25902D02*X193500D01*
X189500Y27402D02*X190000Y27902D01*
X193000D01*
X193500Y27402D02*X193000Y27902D01*
X193500Y27402D02*Y25402D01*
X189500Y27402D02*Y25402D01*
X190000Y29103D02*X189500Y29603D01*
Y31103D02*Y29603D01*
Y31103D02*X190000Y31603D01*
X191000D01*
X193500Y29103D02*X191000Y31603D01*
X193500D02*Y29103D01*
X170500Y125400D02*Y121400D01*
X172000Y125400D02*X172500Y124900D01*
Y121900D01*
X172000Y121400D02*X172500Y121900D01*
X170000Y121400D02*X172000D01*
X170000Y125400D02*X172000D01*
X173701Y124900D02*X174201Y125400D01*
X175701D01*
X176201Y124900D01*
Y123900D01*
X173701Y121400D02*X176201Y123900D01*
X173701Y121400D02*X176201D01*
X100500Y146400D02*Y142400D01*
X102000Y146400D02*X102500Y145900D01*
Y142900D01*
X102000Y142400D02*X102500Y142900D01*
X100000Y142400D02*X102000D01*
X100000Y146400D02*X102000D01*
X104201Y142400D02*X105201D01*
X104701Y146400D02*Y142400D01*
X103701Y145400D02*X104701Y146400D01*
X185211Y101083D02*Y97083D01*
X186711Y101083D02*X187211Y100583D01*
Y97583D01*
X186711Y97083D02*X187211Y97583D01*
X184711Y97083D02*X186711D01*
X184711Y101083D02*X186711D01*
X188912Y97083D02*X189912D01*
X189412Y101083D02*Y97083D01*
X188412Y100083D02*X189412Y101083D01*
X191113Y97583D02*X191613Y97083D01*
X191113Y100583D02*Y97583D01*
Y100583D02*X191613Y101083D01*
X192613D01*
X193113Y100583D01*
Y97583D01*
X192613Y97083D02*X193113Y97583D01*
X191613Y97083D02*X192613D01*
X191113Y98083D02*X193113Y100083D01*
X209211D02*Y96083D01*
X210711Y100083D02*X211211Y99583D01*
Y96583D01*
X210711Y96083D02*X211211Y96583D01*
X208711Y96083D02*X210711D01*
X208711Y100083D02*X210711D01*
X212912Y96083D02*X213912D01*
X213412Y100083D02*Y96083D01*
X212412Y99083D02*X213412Y100083D01*
X215613Y96083D02*X216613D01*
X216113Y100083D02*Y96083D01*
X215113Y99083D02*X216113Y100083D01*
X237211Y99583D02*Y95583D01*
X238711Y99583D02*X239211Y99083D01*
Y96083D01*
X238711Y95583D02*X239211Y96083D01*
X236711Y95583D02*X238711D01*
X236711Y99583D02*X238711D01*
X240912Y95583D02*X241912D01*
X241412Y99583D02*Y95583D01*
X240412Y98583D02*X241412Y99583D01*
X243113Y99083D02*X243613Y99583D01*
X245113D01*
X245613Y99083D01*
Y98083D01*
X243113Y95583D02*X245613Y98083D01*
X243113Y95583D02*X245613D01*
X263211Y98583D02*Y94583D01*
X264711Y98583D02*X265211Y98083D01*
Y95083D01*
X264711Y94583D02*X265211Y95083D01*
X262711Y94583D02*X264711D01*
X262711Y98583D02*X264711D01*
X266912Y94583D02*X267912D01*
X267412Y98583D02*Y94583D01*
X266412Y97583D02*X267412Y98583D01*
X269113Y98083D02*X269613Y98583D01*
X270613D01*
X271113Y98083D01*
Y95083D01*
X270613Y94583D02*X271113Y95083D01*
X269613Y94583D02*X270613D01*
X269113Y95083D02*X269613Y94583D01*
Y96583D02*X271113D01*
X199500Y139400D02*Y135400D01*
X201000Y139400D02*X201500Y138900D01*
Y135900D01*
X201000Y135400D02*X201500Y135900D01*
X199000Y135400D02*X201000D01*
X199000Y139400D02*X201000D01*
X202701Y138900D02*X203201Y139400D01*
X204201D01*
X204701Y138900D01*
Y135900D01*
X204201Y135400D02*X204701Y135900D01*
X203201Y135400D02*X204201D01*
X202701Y135900D02*X203201Y135400D01*
Y137400D02*X204701D01*
X288211Y99083D02*Y95083D01*
X289711Y99083D02*X290211Y98583D01*
Y95583D01*
X289711Y95083D02*X290211Y95583D01*
X287711Y95083D02*X289711D01*
X287711Y99083D02*X289711D01*
X291912Y95083D02*X292912D01*
X292412Y99083D02*Y95083D01*
X291412Y98083D02*X292412Y99083D01*
X294113Y97083D02*X296113Y99083D01*
X294113Y97083D02*X296613D01*
X296113Y99083D02*Y95083D01*
X276400Y123500D02*X280400D01*
Y122000D02*X279900Y121500D01*
X276900D02*X279900D01*
X276400Y122000D02*X276900Y121500D01*
X276400Y124000D02*Y122000D01*
X280400Y124000D02*Y122000D01*
X278400Y120299D02*X280400Y118299D01*
X278400Y120299D02*Y117799D01*
X276400Y118299D02*X280400D01*
X289500Y19000D02*X293500D01*
Y21000D02*Y19000D01*
X291500Y23701D02*Y22201D01*
X293500Y24201D02*Y22201D01*
X289500D02*X293500D01*
X289500Y24201D02*Y22201D01*
Y25902D02*X293500D01*
X289500Y27402D02*X290000Y27902D01*
X293000D01*
X293500Y27402D02*X293000Y27902D01*
X293500Y27402D02*Y25402D01*
X289500Y27402D02*Y25402D01*
X290000Y29103D02*X289500Y29603D01*
Y30603D02*Y29603D01*
Y30603D02*X290000Y31103D01*
X293000D01*
X293500Y30603D02*X293000Y31103D01*
X293500Y30603D02*Y29603D01*
X293000Y29103D02*X293500Y29603D01*
X291500Y31103D02*Y29603D01*
X313211Y97083D02*Y93083D01*
X314711Y97083D02*X315211Y96583D01*
Y93583D01*
X314711Y93083D02*X315211Y93583D01*
X312711Y93083D02*X314711D01*
X312711Y97083D02*X314711D01*
X316912Y93083D02*X317912D01*
X317412Y97083D02*Y93083D01*
X316412Y96083D02*X317412Y97083D01*
X319113D02*X321113D01*
X319113D02*Y95083D01*
X319613Y95583D01*
X320613D01*
X321113Y95083D01*
Y93583D01*
X320613Y93083D02*X321113Y93583D01*
X319613Y93083D02*X320613D01*
X319113Y93583D02*X319613Y93083D01*
X304600Y136500D02*X308600D01*
X304600Y138000D02*X305100Y138500D01*
X308100D01*
X308600Y138000D02*X308100Y138500D01*
X308600Y138000D02*Y136000D01*
X304600Y138000D02*Y136000D01*
Y141701D02*Y139701D01*
X306600D01*
X306100Y140201D01*
Y141201D02*Y140201D01*
Y141201D02*X306600Y141701D01*
X308100D01*
X308600Y141201D02*X308100Y141701D01*
X308600Y141201D02*Y140201D01*
X308100Y139701D02*X308600Y140201D01*
X338211Y99083D02*Y95083D01*
X339711Y99083D02*X340211Y98583D01*
Y95583D01*
X339711Y95083D02*X340211Y95583D01*
X337711Y95083D02*X339711D01*
X337711Y99083D02*X339711D01*
X341912Y95083D02*X342912D01*
X342412Y99083D02*Y95083D01*
X341412Y98083D02*X342412Y99083D01*
X345613D02*X346113Y98583D01*
X344613Y99083D02*X345613D01*
X344113Y98583D02*X344613Y99083D01*
X344113Y98583D02*Y95583D01*
X344613Y95083D01*
X345613Y97083D02*X346113Y96583D01*
X344113Y97083D02*X345613D01*
X344613Y95083D02*X345613D01*
X346113Y95583D01*
Y96583D02*Y95583D01*
X376400Y123500D02*X380400D01*
Y122000D02*X379900Y121500D01*
X376900D02*X379900D01*
X376400Y122000D02*X376900Y121500D01*
X376400Y124000D02*Y122000D01*
X380400Y124000D02*Y122000D01*
Y118799D02*X379900Y118299D01*
X380400Y119799D02*Y118799D01*
X379900Y120299D02*X380400Y119799D01*
X376900Y120299D02*X379900D01*
X376900D02*X376400Y119799D01*
X378400Y118799D02*X377900Y118299D01*
X378400Y120299D02*Y118799D01*
X376400Y119799D02*Y118799D01*
X376900Y118299D01*
X377900D01*
X363211Y99083D02*Y95083D01*
X364711Y99083D02*X365211Y98583D01*
Y95583D01*
X364711Y95083D02*X365211Y95583D01*
X362711Y95083D02*X364711D01*
X362711Y99083D02*X364711D01*
X366912Y95083D02*X367912D01*
X367412Y99083D02*Y95083D01*
X366412Y98083D02*X367412Y99083D01*
X369113Y95083D02*X371613Y97583D01*
Y99083D02*Y97583D01*
X369113Y99083D02*X371613D01*
X386211Y93083D02*Y89083D01*
X387711Y93083D02*X388211Y92583D01*
Y89583D01*
X387711Y89083D02*X388211Y89583D01*
X385711Y89083D02*X387711D01*
X385711Y93083D02*X387711D01*
X389912Y89083D02*X390912D01*
X390412Y93083D02*Y89083D01*
X389412Y92083D02*X390412Y93083D01*
X392113Y89583D02*X392613Y89083D01*
X392113Y90583D02*Y89583D01*
Y90583D02*X392613Y91083D01*
X393613D01*
X394113Y90583D01*
Y89583D01*
X393613Y89083D02*X394113Y89583D01*
X392613Y89083D02*X393613D01*
X392113Y91583D02*X392613Y91083D01*
X392113Y92583D02*Y91583D01*
Y92583D02*X392613Y93083D01*
X393613D01*
X394113Y92583D01*
Y91583D01*
X393613Y91083D02*X394113Y91583D01*
X436000Y16000D02*Y12000D01*
X434000Y16000D02*X436000D01*
X431299Y14000D02*X432799D01*
X430799Y16000D02*X432799D01*
Y12000D01*
X430799D02*X432799D01*
X429098Y16000D02*Y12000D01*
X427598D02*X427098Y12500D01*
Y15500D02*Y12500D01*
X427598Y16000D02*X427098Y15500D01*
X427598Y16000D02*X429598D01*
X427598Y12000D02*X429598D01*
X423897D02*X425897D01*
Y14000D02*Y12000D01*
Y14000D02*X425397Y13500D01*
X424397D02*X425397D01*
X424397D02*X423897Y14000D01*
Y15500D02*Y14000D01*
X424397Y16000D02*X423897Y15500D01*
X424397Y16000D02*X425397D01*
X425897Y15500D02*X425397Y16000D01*
M02*
