G04 start of page 11 for group -3984 idx -3984 *
G04 Title: (unknown), fab *
G04 Creator: pcb 20100929 *
G04 CreationDate: Mon 21 Feb 2011 05:52:53 PM GMT UTC *
G04 For: vince *
G04 Format: Gerber/RS-274X *
G04 PCB-Dimensions: 480000 150000 *
G04 PCB-Coordinate-Origin: lower left *
%MOIN*%
%FSLAX25Y25*%
%LNFAB*%
%ADD22C,0.0100*%
%ADD23C,0.0080*%
%ADD24C,0.0060*%
G54D23*X299200Y25000D02*G75*G03X300800Y25000I800J0D01*G01*
G75*G03X299200Y25000I-800J0D01*G01*
X309200D02*G75*G03X310800Y25000I800J0D01*G01*
G75*G03X309200Y25000I-800J0D01*G01*
X319200D02*G75*G03X320800Y25000I800J0D01*G01*
G75*G03X319200Y25000I-800J0D01*G01*
X329200D02*G75*G03X330800Y25000I800J0D01*G01*
G75*G03X329200Y25000I-800J0D01*G01*
X339200D02*G75*G03X340800Y25000I800J0D01*G01*
G75*G03X339200Y25000I-800J0D01*G01*
X349200D02*G75*G03X350800Y25000I800J0D01*G01*
G75*G03X349200Y25000I-800J0D01*G01*
X359200D02*G75*G03X360800Y25000I800J0D01*G01*
G75*G03X359200Y25000I-800J0D01*G01*
X369200D02*G75*G03X370800Y25000I800J0D01*G01*
G75*G03X369200Y25000I-800J0D01*G01*
X379200D02*G75*G03X380800Y25000I800J0D01*G01*
G75*G03X379200Y25000I-800J0D01*G01*
Y85000D02*G75*G03X380800Y85000I800J0D01*G01*
G75*G03X379200Y85000I-800J0D01*G01*
X369200D02*G75*G03X370800Y85000I800J0D01*G01*
G75*G03X369200Y85000I-800J0D01*G01*
X359200D02*G75*G03X360800Y85000I800J0D01*G01*
G75*G03X359200Y85000I-800J0D01*G01*
X349200D02*G75*G03X350800Y85000I800J0D01*G01*
G75*G03X349200Y85000I-800J0D01*G01*
X339200D02*G75*G03X340800Y85000I800J0D01*G01*
G75*G03X339200Y85000I-800J0D01*G01*
X329200D02*G75*G03X330800Y85000I800J0D01*G01*
G75*G03X329200Y85000I-800J0D01*G01*
X319200D02*G75*G03X320800Y85000I800J0D01*G01*
G75*G03X319200Y85000I-800J0D01*G01*
X309200D02*G75*G03X310800Y85000I800J0D01*G01*
G75*G03X309200Y85000I-800J0D01*G01*
X299200D02*G75*G03X300800Y85000I800J0D01*G01*
G75*G03X299200Y85000I-800J0D01*G01*
X441700Y112500D02*G75*G03X443300Y112500I800J0D01*G01*
G75*G03X441700Y112500I-800J0D01*G01*
Y102500D02*G75*G03X443300Y102500I800J0D01*G01*
G75*G03X441700Y102500I-800J0D01*G01*
Y92500D02*G75*G03X443300Y92500I800J0D01*G01*
G75*G03X441700Y92500I-800J0D01*G01*
Y82500D02*G75*G03X443300Y82500I800J0D01*G01*
G75*G03X441700Y82500I-800J0D01*G01*
Y72500D02*G75*G03X443300Y72500I800J0D01*G01*
G75*G03X441700Y72500I-800J0D01*G01*
Y62500D02*G75*G03X443300Y62500I800J0D01*G01*
G75*G03X441700Y62500I-800J0D01*G01*
Y52500D02*G75*G03X443300Y52500I800J0D01*G01*
G75*G03X441700Y52500I-800J0D01*G01*
Y42500D02*G75*G03X443300Y42500I800J0D01*G01*
G75*G03X441700Y42500I-800J0D01*G01*
Y32500D02*G75*G03X443300Y32500I800J0D01*G01*
G75*G03X441700Y32500I-800J0D01*G01*
Y22500D02*G75*G03X443300Y22500I800J0D01*G01*
G75*G03X441700Y22500I-800J0D01*G01*
X411700D02*G75*G03X413300Y22500I800J0D01*G01*
G75*G03X411700Y22500I-800J0D01*G01*
Y32500D02*G75*G03X413300Y32500I800J0D01*G01*
G75*G03X411700Y32500I-800J0D01*G01*
Y42500D02*G75*G03X413300Y42500I800J0D01*G01*
G75*G03X411700Y42500I-800J0D01*G01*
Y52500D02*G75*G03X413300Y52500I800J0D01*G01*
G75*G03X411700Y52500I-800J0D01*G01*
Y62500D02*G75*G03X413300Y62500I800J0D01*G01*
G75*G03X411700Y62500I-800J0D01*G01*
Y72500D02*G75*G03X413300Y72500I800J0D01*G01*
G75*G03X411700Y72500I-800J0D01*G01*
Y82500D02*G75*G03X413300Y82500I800J0D01*G01*
G75*G03X411700Y82500I-800J0D01*G01*
Y92500D02*G75*G03X413300Y92500I800J0D01*G01*
G75*G03X411700Y92500I-800J0D01*G01*
Y102500D02*G75*G03X413300Y102500I800J0D01*G01*
G75*G03X411700Y102500I-800J0D01*G01*
Y112500D02*G75*G03X413300Y112500I800J0D01*G01*
G75*G03X411700Y112500I-800J0D01*G01*
X186700Y40000D02*G75*G03X188300Y40000I800J0D01*G01*
G75*G03X186700Y40000I-800J0D01*G01*
X176700D02*G75*G03X178300Y40000I800J0D01*G01*
G75*G03X176700Y40000I-800J0D01*G01*
X166700D02*G75*G03X168300Y40000I800J0D01*G01*
G75*G03X166700Y40000I-800J0D01*G01*
X156700D02*G75*G03X158300Y40000I800J0D01*G01*
G75*G03X156700Y40000I-800J0D01*G01*
X146700D02*G75*G03X148300Y40000I800J0D01*G01*
G75*G03X146700Y40000I-800J0D01*G01*
X136700D02*G75*G03X138300Y40000I800J0D01*G01*
G75*G03X136700Y40000I-800J0D01*G01*
X126700D02*G75*G03X128300Y40000I800J0D01*G01*
G75*G03X126700Y40000I-800J0D01*G01*
X116700D02*G75*G03X118300Y40000I800J0D01*G01*
G75*G03X116700Y40000I-800J0D01*G01*
X106700D02*G75*G03X108300Y40000I800J0D01*G01*
G75*G03X106700Y40000I-800J0D01*G01*
X96700D02*G75*G03X98300Y40000I800J0D01*G01*
G75*G03X96700Y40000I-800J0D01*G01*
Y70000D02*G75*G03X98300Y70000I800J0D01*G01*
G75*G03X96700Y70000I-800J0D01*G01*
X106700D02*G75*G03X108300Y70000I800J0D01*G01*
G75*G03X106700Y70000I-800J0D01*G01*
X116700D02*G75*G03X118300Y70000I800J0D01*G01*
G75*G03X116700Y70000I-800J0D01*G01*
X126700D02*G75*G03X128300Y70000I800J0D01*G01*
G75*G03X126700Y70000I-800J0D01*G01*
X136700D02*G75*G03X138300Y70000I800J0D01*G01*
G75*G03X136700Y70000I-800J0D01*G01*
X146700D02*G75*G03X148300Y70000I800J0D01*G01*
G75*G03X146700Y70000I-800J0D01*G01*
X156700D02*G75*G03X158300Y70000I800J0D01*G01*
G75*G03X156700Y70000I-800J0D01*G01*
X166700D02*G75*G03X168300Y70000I800J0D01*G01*
G75*G03X166700Y70000I-800J0D01*G01*
X176700D02*G75*G03X178300Y70000I800J0D01*G01*
G75*G03X176700Y70000I-800J0D01*G01*
X186700D02*G75*G03X188300Y70000I800J0D01*G01*
G75*G03X186700Y70000I-800J0D01*G01*
X199200Y25000D02*G75*G03X200800Y25000I800J0D01*G01*
G75*G03X199200Y25000I-800J0D01*G01*
X209200D02*G75*G03X210800Y25000I800J0D01*G01*
G75*G03X209200Y25000I-800J0D01*G01*
X219200D02*G75*G03X220800Y25000I800J0D01*G01*
G75*G03X219200Y25000I-800J0D01*G01*
X229200D02*G75*G03X230800Y25000I800J0D01*G01*
G75*G03X229200Y25000I-800J0D01*G01*
X239200D02*G75*G03X240800Y25000I800J0D01*G01*
G75*G03X239200Y25000I-800J0D01*G01*
X249200D02*G75*G03X250800Y25000I800J0D01*G01*
G75*G03X249200Y25000I-800J0D01*G01*
X259200D02*G75*G03X260800Y25000I800J0D01*G01*
G75*G03X259200Y25000I-800J0D01*G01*
X269200D02*G75*G03X270800Y25000I800J0D01*G01*
G75*G03X269200Y25000I-800J0D01*G01*
X279200D02*G75*G03X280800Y25000I800J0D01*G01*
G75*G03X279200Y25000I-800J0D01*G01*
Y85000D02*G75*G03X280800Y85000I800J0D01*G01*
G75*G03X279200Y85000I-800J0D01*G01*
X269200D02*G75*G03X270800Y85000I800J0D01*G01*
G75*G03X269200Y85000I-800J0D01*G01*
X259200D02*G75*G03X260800Y85000I800J0D01*G01*
G75*G03X259200Y85000I-800J0D01*G01*
X249200D02*G75*G03X250800Y85000I800J0D01*G01*
G75*G03X249200Y85000I-800J0D01*G01*
X239200D02*G75*G03X240800Y85000I800J0D01*G01*
G75*G03X239200Y85000I-800J0D01*G01*
X229200D02*G75*G03X230800Y85000I800J0D01*G01*
G75*G03X229200Y85000I-800J0D01*G01*
X219200D02*G75*G03X220800Y85000I800J0D01*G01*
G75*G03X219200Y85000I-800J0D01*G01*
X209200D02*G75*G03X210800Y85000I800J0D01*G01*
G75*G03X209200Y85000I-800J0D01*G01*
X199200D02*G75*G03X200800Y85000I800J0D01*G01*
G75*G03X199200Y85000I-800J0D01*G01*
X386700Y40000D02*G75*G03X388300Y40000I800J0D01*G01*
G75*G03X386700Y40000I-800J0D01*G01*
X376700D02*G75*G03X378300Y40000I800J0D01*G01*
G75*G03X376700Y40000I-800J0D01*G01*
X366700D02*G75*G03X368300Y40000I800J0D01*G01*
G75*G03X366700Y40000I-800J0D01*G01*
X356700D02*G75*G03X358300Y40000I800J0D01*G01*
G75*G03X356700Y40000I-800J0D01*G01*
X346700D02*G75*G03X348300Y40000I800J0D01*G01*
G75*G03X346700Y40000I-800J0D01*G01*
X336700D02*G75*G03X338300Y40000I800J0D01*G01*
G75*G03X336700Y40000I-800J0D01*G01*
X326700D02*G75*G03X328300Y40000I800J0D01*G01*
G75*G03X326700Y40000I-800J0D01*G01*
X316700D02*G75*G03X318300Y40000I800J0D01*G01*
G75*G03X316700Y40000I-800J0D01*G01*
X306700D02*G75*G03X308300Y40000I800J0D01*G01*
G75*G03X306700Y40000I-800J0D01*G01*
X296700D02*G75*G03X298300Y40000I800J0D01*G01*
G75*G03X296700Y40000I-800J0D01*G01*
Y70000D02*G75*G03X298300Y70000I800J0D01*G01*
G75*G03X296700Y70000I-800J0D01*G01*
X306700D02*G75*G03X308300Y70000I800J0D01*G01*
G75*G03X306700Y70000I-800J0D01*G01*
X316700D02*G75*G03X318300Y70000I800J0D01*G01*
G75*G03X316700Y70000I-800J0D01*G01*
X326700D02*G75*G03X328300Y70000I800J0D01*G01*
G75*G03X326700Y70000I-800J0D01*G01*
X336700D02*G75*G03X338300Y70000I800J0D01*G01*
G75*G03X336700Y70000I-800J0D01*G01*
X346700D02*G75*G03X348300Y70000I800J0D01*G01*
G75*G03X346700Y70000I-800J0D01*G01*
X356700D02*G75*G03X358300Y70000I800J0D01*G01*
G75*G03X356700Y70000I-800J0D01*G01*
X366700D02*G75*G03X368300Y70000I800J0D01*G01*
G75*G03X366700Y70000I-800J0D01*G01*
X376700D02*G75*G03X378300Y70000I800J0D01*G01*
G75*G03X376700Y70000I-800J0D01*G01*
X386700D02*G75*G03X388300Y70000I800J0D01*G01*
G75*G03X386700Y70000I-800J0D01*G01*
X99200Y25000D02*G75*G03X100800Y25000I800J0D01*G01*
G75*G03X99200Y25000I-800J0D01*G01*
X109200D02*G75*G03X110800Y25000I800J0D01*G01*
G75*G03X109200Y25000I-800J0D01*G01*
X119200D02*G75*G03X120800Y25000I800J0D01*G01*
G75*G03X119200Y25000I-800J0D01*G01*
X129200D02*G75*G03X130800Y25000I800J0D01*G01*
G75*G03X129200Y25000I-800J0D01*G01*
X139200D02*G75*G03X140800Y25000I800J0D01*G01*
G75*G03X139200Y25000I-800J0D01*G01*
X149200D02*G75*G03X150800Y25000I800J0D01*G01*
G75*G03X149200Y25000I-800J0D01*G01*
X159200D02*G75*G03X160800Y25000I800J0D01*G01*
G75*G03X159200Y25000I-800J0D01*G01*
X169200D02*G75*G03X170800Y25000I800J0D01*G01*
G75*G03X169200Y25000I-800J0D01*G01*
X179200D02*G75*G03X180800Y25000I800J0D01*G01*
G75*G03X179200Y25000I-800J0D01*G01*
Y85000D02*G75*G03X180800Y85000I800J0D01*G01*
G75*G03X179200Y85000I-800J0D01*G01*
X169200D02*G75*G03X170800Y85000I800J0D01*G01*
G75*G03X169200Y85000I-800J0D01*G01*
X159200D02*G75*G03X160800Y85000I800J0D01*G01*
G75*G03X159200Y85000I-800J0D01*G01*
X149200D02*G75*G03X150800Y85000I800J0D01*G01*
G75*G03X149200Y85000I-800J0D01*G01*
X139200D02*G75*G03X140800Y85000I800J0D01*G01*
G75*G03X139200Y85000I-800J0D01*G01*
X129200D02*G75*G03X130800Y85000I800J0D01*G01*
G75*G03X129200Y85000I-800J0D01*G01*
X119200D02*G75*G03X120800Y85000I800J0D01*G01*
G75*G03X119200Y85000I-800J0D01*G01*
X109200D02*G75*G03X110800Y85000I800J0D01*G01*
G75*G03X109200Y85000I-800J0D01*G01*
X99200D02*G75*G03X100800Y85000I800J0D01*G01*
G75*G03X99200Y85000I-800J0D01*G01*
X49200Y112500D02*G75*G03X50800Y112500I800J0D01*G01*
G75*G03X49200Y112500I-800J0D01*G01*
Y102500D02*G75*G03X50800Y102500I800J0D01*G01*
G75*G03X49200Y102500I-800J0D01*G01*
Y92500D02*G75*G03X50800Y92500I800J0D01*G01*
G75*G03X49200Y92500I-800J0D01*G01*
Y82500D02*G75*G03X50800Y82500I800J0D01*G01*
G75*G03X49200Y82500I-800J0D01*G01*
Y72500D02*G75*G03X50800Y72500I800J0D01*G01*
G75*G03X49200Y72500I-800J0D01*G01*
Y62500D02*G75*G03X50800Y62500I800J0D01*G01*
G75*G03X49200Y62500I-800J0D01*G01*
Y52500D02*G75*G03X50800Y52500I800J0D01*G01*
G75*G03X49200Y52500I-800J0D01*G01*
Y42500D02*G75*G03X50800Y42500I800J0D01*G01*
G75*G03X49200Y42500I-800J0D01*G01*
Y32500D02*G75*G03X50800Y32500I800J0D01*G01*
G75*G03X49200Y32500I-800J0D01*G01*
Y22500D02*G75*G03X50800Y22500I800J0D01*G01*
G75*G03X49200Y22500I-800J0D01*G01*
X79200D02*G75*G03X80800Y22500I800J0D01*G01*
G75*G03X79200Y22500I-800J0D01*G01*
Y32500D02*G75*G03X80800Y32500I800J0D01*G01*
G75*G03X79200Y32500I-800J0D01*G01*
Y42500D02*G75*G03X80800Y42500I800J0D01*G01*
G75*G03X79200Y42500I-800J0D01*G01*
Y52500D02*G75*G03X80800Y52500I800J0D01*G01*
G75*G03X79200Y52500I-800J0D01*G01*
Y62500D02*G75*G03X80800Y62500I800J0D01*G01*
G75*G03X79200Y62500I-800J0D01*G01*
Y72500D02*G75*G03X80800Y72500I800J0D01*G01*
G75*G03X79200Y72500I-800J0D01*G01*
Y82500D02*G75*G03X80800Y82500I800J0D01*G01*
G75*G03X79200Y82500I-800J0D01*G01*
Y92500D02*G75*G03X80800Y92500I800J0D01*G01*
G75*G03X79200Y92500I-800J0D01*G01*
Y102500D02*G75*G03X80800Y102500I800J0D01*G01*
G75*G03X79200Y102500I-800J0D01*G01*
Y112500D02*G75*G03X80800Y112500I800J0D01*G01*
G75*G03X79200Y112500I-800J0D01*G01*
X429200Y22500D02*G75*G03X430800Y22500I800J0D01*G01*
G75*G03X429200Y22500I-800J0D01*G01*
Y32500D02*G75*G03X430800Y32500I800J0D01*G01*
G75*G03X429200Y32500I-800J0D01*G01*
Y42500D02*G75*G03X430800Y42500I800J0D01*G01*
G75*G03X429200Y42500I-800J0D01*G01*
Y52500D02*G75*G03X430800Y52500I800J0D01*G01*
G75*G03X429200Y52500I-800J0D01*G01*
Y62500D02*G75*G03X430800Y62500I800J0D01*G01*
G75*G03X429200Y62500I-800J0D01*G01*
Y72500D02*G75*G03X430800Y72500I800J0D01*G01*
G75*G03X429200Y72500I-800J0D01*G01*
Y82500D02*G75*G03X430800Y82500I800J0D01*G01*
G75*G03X429200Y82500I-800J0D01*G01*
Y92500D02*G75*G03X430800Y92500I800J0D01*G01*
G75*G03X429200Y92500I-800J0D01*G01*
Y102500D02*G75*G03X430800Y102500I800J0D01*G01*
G75*G03X429200Y102500I-800J0D01*G01*
Y112500D02*G75*G03X430800Y112500I800J0D01*G01*
G75*G03X429200Y112500I-800J0D01*G01*
X399200D02*G75*G03X400800Y112500I800J0D01*G01*
G75*G03X399200Y112500I-800J0D01*G01*
Y102500D02*G75*G03X400800Y102500I800J0D01*G01*
G75*G03X399200Y102500I-800J0D01*G01*
Y92500D02*G75*G03X400800Y92500I800J0D01*G01*
G75*G03X399200Y92500I-800J0D01*G01*
Y82500D02*G75*G03X400800Y82500I800J0D01*G01*
G75*G03X399200Y82500I-800J0D01*G01*
Y72500D02*G75*G03X400800Y72500I800J0D01*G01*
G75*G03X399200Y72500I-800J0D01*G01*
Y62500D02*G75*G03X400800Y62500I800J0D01*G01*
G75*G03X399200Y62500I-800J0D01*G01*
Y52500D02*G75*G03X400800Y52500I800J0D01*G01*
G75*G03X399200Y52500I-800J0D01*G01*
Y42500D02*G75*G03X400800Y42500I800J0D01*G01*
G75*G03X399200Y42500I-800J0D01*G01*
Y32500D02*G75*G03X400800Y32500I800J0D01*G01*
G75*G03X399200Y32500I-800J0D01*G01*
Y22500D02*G75*G03X400800Y22500I800J0D01*G01*
G75*G03X399200Y22500I-800J0D01*G01*
X286700Y40000D02*G75*G03X288300Y40000I800J0D01*G01*
G75*G03X286700Y40000I-800J0D01*G01*
X276700D02*G75*G03X278300Y40000I800J0D01*G01*
G75*G03X276700Y40000I-800J0D01*G01*
X266700D02*G75*G03X268300Y40000I800J0D01*G01*
G75*G03X266700Y40000I-800J0D01*G01*
X256700D02*G75*G03X258300Y40000I800J0D01*G01*
G75*G03X256700Y40000I-800J0D01*G01*
X246700D02*G75*G03X248300Y40000I800J0D01*G01*
G75*G03X246700Y40000I-800J0D01*G01*
X236700D02*G75*G03X238300Y40000I800J0D01*G01*
G75*G03X236700Y40000I-800J0D01*G01*
X226700D02*G75*G03X228300Y40000I800J0D01*G01*
G75*G03X226700Y40000I-800J0D01*G01*
X216700D02*G75*G03X218300Y40000I800J0D01*G01*
G75*G03X216700Y40000I-800J0D01*G01*
X206700D02*G75*G03X208300Y40000I800J0D01*G01*
G75*G03X206700Y40000I-800J0D01*G01*
X196700D02*G75*G03X198300Y40000I800J0D01*G01*
G75*G03X196700Y40000I-800J0D01*G01*
Y70000D02*G75*G03X198300Y70000I800J0D01*G01*
G75*G03X196700Y70000I-800J0D01*G01*
X206700D02*G75*G03X208300Y70000I800J0D01*G01*
G75*G03X206700Y70000I-800J0D01*G01*
X216700D02*G75*G03X218300Y70000I800J0D01*G01*
G75*G03X216700Y70000I-800J0D01*G01*
X226700D02*G75*G03X228300Y70000I800J0D01*G01*
G75*G03X226700Y70000I-800J0D01*G01*
X236700D02*G75*G03X238300Y70000I800J0D01*G01*
G75*G03X236700Y70000I-800J0D01*G01*
X246700D02*G75*G03X248300Y70000I800J0D01*G01*
G75*G03X246700Y70000I-800J0D01*G01*
X256700D02*G75*G03X258300Y70000I800J0D01*G01*
G75*G03X256700Y70000I-800J0D01*G01*
X266700D02*G75*G03X268300Y70000I800J0D01*G01*
G75*G03X266700Y70000I-800J0D01*G01*
X276700D02*G75*G03X278300Y70000I800J0D01*G01*
G75*G03X276700Y70000I-800J0D01*G01*
X286700D02*G75*G03X288300Y70000I800J0D01*G01*
G75*G03X286700Y70000I-800J0D01*G01*
X14200Y161250D02*G75*G03X15800Y161250I800J0D01*G01*
G75*G03X14200Y161250I-800J0D01*G01*
G54D24*X135000Y163500D02*Y162750D01*
X136500Y161250D01*
X138000Y162750D01*
Y163500D02*Y162750D01*
X136500Y161250D02*Y157500D01*
X139801Y160500D02*X142051D01*
X139801Y157500D02*X142801D01*
X139801Y163500D02*Y157500D01*
Y163500D02*X142801D01*
X147603D02*X148353Y162750D01*
X145353Y163500D02*X147603D01*
X144603Y162750D02*X145353Y163500D01*
X144603Y162750D02*Y161250D01*
X145353Y160500D01*
X147603D01*
X148353Y159750D01*
Y158250D01*
X147603Y157500D02*X148353Y158250D01*
X145353Y157500D02*X147603D01*
X144603Y158250D02*X145353Y157500D01*
X135000Y154249D02*X150154D01*
X98750Y157500D02*X100250D01*
X99500Y163500D02*Y157500D01*
X98000Y162000D02*X99500Y163500D01*
X102051Y157500D02*X105801Y161250D01*
Y163500D02*Y161250D01*
X102051Y163500D02*X105801D01*
X107603Y160500D02*X110603Y163500D01*
X107603Y160500D02*X111353D01*
X110603Y163500D02*Y157500D01*
X98000Y154249D02*X113154D01*
X45000Y158250D02*X45750Y157500D01*
X45000Y162750D02*Y158250D01*
Y162750D02*X45750Y163500D01*
X47250D01*
X48000Y162750D01*
Y158250D01*
X47250Y157500D02*X48000Y158250D01*
X45750Y157500D02*X47250D01*
X45000Y159000D02*X48000Y162000D01*
X49801Y157500D02*X50551D01*
X52353Y158250D02*X53103Y157500D01*
X52353Y162750D02*Y158250D01*
Y162750D02*X53103Y163500D01*
X54603D01*
X55353Y162750D01*
Y158250D01*
X54603Y157500D02*X55353Y158250D01*
X53103Y157500D02*X54603D01*
X52353Y159000D02*X55353Y162000D01*
X57154Y162750D02*X57904Y163500D01*
X59404D01*
X60154Y162750D01*
Y158250D01*
X59404Y157500D02*X60154Y158250D01*
X57904Y157500D02*X59404D01*
X57154Y158250D02*X57904Y157500D01*
Y160500D02*X60154D01*
X61956Y163500D02*X64956D01*
X61956D02*Y160500D01*
X62706Y161250D01*
X64206D01*
X64956Y160500D01*
Y158250D01*
X64206Y157500D02*X64956Y158250D01*
X62706Y157500D02*X64206D01*
X61956Y158250D02*X62706Y157500D01*
X45000Y154249D02*X66757D01*
X378800Y111200D02*X381200Y108800D01*
X378800D02*X381200Y111200D01*
X378800Y101200D02*X381200Y98800D01*
X378800D02*X381200Y101200D01*
X353800Y111200D02*X356200Y108800D01*
X353800D02*X356200Y111200D01*
X353800Y101200D02*X356200Y98800D01*
X353800D02*X356200Y101200D01*
X328800Y111200D02*X331200Y108800D01*
X328800D02*X331200Y111200D01*
X328800Y101200D02*X331200Y98800D01*
X328800D02*X331200Y101200D01*
X303800Y111200D02*X306200Y108800D01*
X303800D02*X306200Y111200D01*
X303800Y101200D02*X306200Y98800D01*
X303800D02*X306200Y101200D01*
X278800Y111200D02*X281200Y108800D01*
X278800D02*X281200Y111200D01*
X278800Y101200D02*X281200Y98800D01*
X278800D02*X281200Y101200D01*
X251300Y111200D02*X253700Y108800D01*
X251300D02*X253700Y111200D01*
X251300Y101200D02*X253700Y98800D01*
X251300D02*X253700Y101200D01*
X226300Y111200D02*X228700Y108800D01*
X226300D02*X228700Y111200D01*
X226300Y101200D02*X228700Y98800D01*
X226300D02*X228700Y101200D01*
X198800Y111200D02*X201200Y108800D01*
X198800D02*X201200Y111200D01*
X198800Y101200D02*X201200Y98800D01*
X198800D02*X201200Y101200D01*
X173800Y111200D02*X176200Y108800D01*
X173800D02*X176200Y111200D01*
X173800Y101200D02*X176200Y98800D01*
X173800D02*X176200Y101200D01*
X148800Y111200D02*X151200Y108800D01*
X148800D02*X151200Y111200D01*
X148800Y101200D02*X151200Y98800D01*
X148800D02*X151200Y101200D01*
X123800Y111200D02*X126200Y108800D01*
X123800D02*X126200Y111200D01*
X123800Y101200D02*X126200Y98800D01*
X123800D02*X126200Y101200D01*
X98800Y111200D02*X101200Y108800D01*
X98800D02*X101200Y111200D01*
X98800Y101200D02*X101200Y98800D01*
X98800D02*X101200Y101200D01*
X13800Y177450D02*X16200Y175050D01*
X13800D02*X16200Y177450D01*
X135000Y178500D02*Y177750D01*
X136500Y176250D01*
X138000Y177750D01*
Y178500D02*Y177750D01*
X136500Y176250D02*Y172500D01*
X139801Y175500D02*X142051D01*
X139801Y172500D02*X142801D01*
X139801Y178500D02*Y172500D01*
Y178500D02*X142801D01*
X147603D02*X148353Y177750D01*
X145353Y178500D02*X147603D01*
X144603Y177750D02*X145353Y178500D01*
X144603Y177750D02*Y176250D01*
X145353Y175500D01*
X147603D01*
X148353Y174750D01*
Y173250D01*
X147603Y172500D02*X148353Y173250D01*
X145353Y172500D02*X147603D01*
X144603Y173250D02*X145353Y172500D01*
X135000Y169249D02*X150154D01*
X98000Y177750D02*X98750Y178500D01*
X101000D01*
X101750Y177750D01*
Y176250D01*
X98000Y172500D02*X101750Y176250D01*
X98000Y172500D02*X101750D01*
X103551Y175500D02*X106551Y178500D01*
X103551Y175500D02*X107301D01*
X106551Y178500D02*Y172500D01*
X98000Y169249D02*X109103D01*
X45000Y173250D02*X45750Y172500D01*
X45000Y177750D02*Y173250D01*
Y177750D02*X45750Y178500D01*
X47250D01*
X48000Y177750D01*
Y173250D01*
X47250Y172500D02*X48000Y173250D01*
X45750Y172500D02*X47250D01*
X45000Y174000D02*X48000Y177000D01*
X49801Y172500D02*X50551D01*
X52353Y173250D02*X53103Y172500D01*
X52353Y177750D02*Y173250D01*
Y177750D02*X53103Y178500D01*
X54603D01*
X55353Y177750D01*
Y173250D01*
X54603Y172500D02*X55353Y173250D01*
X53103Y172500D02*X54603D01*
X52353Y174000D02*X55353Y177000D01*
X57154Y177750D02*X57904Y178500D01*
X60154D01*
X60904Y177750D01*
Y176250D01*
X57154Y172500D02*X60904Y176250D01*
X57154Y172500D02*X60904D01*
X62706D02*X65706Y175500D01*
Y177750D02*Y175500D01*
X64956Y178500D02*X65706Y177750D01*
X63456Y178500D02*X64956D01*
X62706Y177750D02*X63456Y178500D01*
X62706Y177750D02*Y176250D01*
X63456Y175500D01*
X65706D01*
X45000Y169249D02*X67507D01*
X110000Y131600D02*Y128400D01*
X108400Y130000D02*X111600D01*
X120000Y131600D02*Y128400D01*
X118400Y130000D02*X121600D01*
X165000Y131600D02*Y128400D01*
X163400Y130000D02*X166600D01*
X155000Y131600D02*Y128400D01*
X153400Y130000D02*X156600D01*
X210000Y131600D02*Y128400D01*
X208400Y130000D02*X211600D01*
X220000Y131600D02*Y128400D01*
X218400Y130000D02*X221600D01*
X270000Y131600D02*Y128400D01*
X268400Y130000D02*X271600D01*
X260000Y131600D02*Y128400D01*
X258400Y130000D02*X261600D01*
X315000Y131600D02*Y128400D01*
X313400Y130000D02*X316600D01*
X325000Y131600D02*Y128400D01*
X323400Y130000D02*X326600D01*
X370000Y131600D02*Y128400D01*
X368400Y130000D02*X371600D01*
X360000Y131600D02*Y128400D01*
X358400Y130000D02*X361600D01*
X15000Y192850D02*Y189650D01*
X13400Y191250D02*X16600D01*
X135000Y193500D02*Y192750D01*
X136500Y191250D01*
X138000Y192750D01*
Y193500D02*Y192750D01*
X136500Y191250D02*Y187500D01*
X139801Y190500D02*X142051D01*
X139801Y187500D02*X142801D01*
X139801Y193500D02*Y187500D01*
Y193500D02*X142801D01*
X147603D02*X148353Y192750D01*
X145353Y193500D02*X147603D01*
X144603Y192750D02*X145353Y193500D01*
X144603Y192750D02*Y191250D01*
X145353Y190500D01*
X147603D01*
X148353Y189750D01*
Y188250D01*
X147603Y187500D02*X148353Y188250D01*
X145353Y187500D02*X147603D01*
X144603Y188250D02*X145353Y187500D01*
X135000Y184249D02*X150154D01*
X98750Y187500D02*X100250D01*
X99500Y193500D02*Y187500D01*
X98000Y192000D02*X99500Y193500D01*
X102051Y192750D02*X102801Y193500D01*
X105051D01*
X105801Y192750D01*
Y191250D01*
X102051Y187500D02*X105801Y191250D01*
X102051Y187500D02*X105801D01*
X98000Y184249D02*X107603D01*
X45000Y188250D02*X45750Y187500D01*
X45000Y192750D02*Y188250D01*
Y192750D02*X45750Y193500D01*
X47250D01*
X48000Y192750D01*
Y188250D01*
X47250Y187500D02*X48000Y188250D01*
X45750Y187500D02*X47250D01*
X45000Y189000D02*X48000Y192000D01*
X49801Y187500D02*X50551D01*
X52353Y188250D02*X53103Y187500D01*
X52353Y192750D02*Y188250D01*
Y192750D02*X53103Y193500D01*
X54603D01*
X55353Y192750D01*
Y188250D01*
X54603Y187500D02*X55353Y188250D01*
X53103Y187500D02*X54603D01*
X52353Y189000D02*X55353Y192000D01*
X57154Y192750D02*X57904Y193500D01*
X60154D01*
X60904Y192750D01*
Y191250D01*
X57154Y187500D02*X60904Y191250D01*
X57154Y187500D02*X60904D01*
X62706Y188250D02*X63456Y187500D01*
X62706Y189750D02*Y188250D01*
Y189750D02*X63456Y190500D01*
X64956D01*
X65706Y189750D01*
Y188250D01*
X64956Y187500D02*X65706Y188250D01*
X63456Y187500D02*X64956D01*
X62706Y191250D02*X63456Y190500D01*
X62706Y192750D02*Y191250D01*
Y192750D02*X63456Y193500D01*
X64956D01*
X65706Y192750D01*
Y191250D01*
X64956Y190500D02*X65706Y191250D01*
X45000Y184249D02*X67507D01*
X375700Y62500D02*Y60900D01*
Y62500D02*X377086Y63300D01*
X375700Y62500D02*X374314Y63300D01*
X364600Y123500D02*Y121900D01*
Y123500D02*X365986Y124300D01*
X364600Y123500D02*X363214Y124300D01*
X284850Y123500D02*Y121900D01*
Y123500D02*X286236Y124300D01*
X284850Y123500D02*X283464Y124300D01*
X86549Y131499D02*Y129899D01*
Y131499D02*X87935Y132299D01*
X86549Y131499D02*X85163Y132299D01*
X91549Y135101D02*Y133501D01*
Y135101D02*X92935Y135901D01*
X91549Y135101D02*X90163Y135901D01*
X376500Y125054D02*Y123454D01*
Y125054D02*X377886Y125854D01*
X376500Y125054D02*X375114Y125854D01*
X73900Y143104D02*Y141504D01*
Y143104D02*X75286Y143904D01*
X73900Y143104D02*X72514Y143904D01*
X414702Y124300D02*Y122700D01*
Y124300D02*X416088Y125100D01*
X414702Y124300D02*X413316Y125100D01*
X390299Y116250D02*Y114650D01*
Y116250D02*X391685Y117050D01*
X390299Y116250D02*X388913Y117050D01*
X418600Y129300D02*Y127700D01*
Y129300D02*X419986Y130100D01*
X418600Y129300D02*X417214Y130100D01*
X418600Y13098D02*Y11498D01*
Y13098D02*X419986Y13898D01*
X418600Y13098D02*X417214Y13898D01*
X59701Y15897D02*Y14297D01*
Y15897D02*X61087Y16697D01*
X59701Y15897D02*X58315Y16697D01*
X58301Y8696D02*Y7096D01*
Y8696D02*X59687Y9496D01*
X58301Y8696D02*X56915Y9496D01*
X422500Y34300D02*Y32700D01*
Y34300D02*X423886Y35100D01*
X422500Y34300D02*X421114Y35100D01*
X289299Y91550D02*Y89950D01*
Y91550D02*X290685Y92350D01*
X289299Y91550D02*X287913Y92350D01*
X315000Y103749D02*Y102149D01*
Y103749D02*X316386Y104549D01*
X315000Y103749D02*X313614Y104549D01*
X344600Y95150D02*Y93550D01*
Y95150D02*X345986Y95950D01*
X344600Y95150D02*X343214Y95950D01*
X321549Y104850D02*Y103250D01*
Y104850D02*X322935Y105650D01*
X321549Y104850D02*X320163Y105650D01*
X188750Y87500D02*Y85900D01*
Y87500D02*X190136Y88300D01*
X188750Y87500D02*X187364Y88300D01*
X422201Y64700D02*Y63100D01*
Y64700D02*X423587Y65500D01*
X422201Y64700D02*X420815Y65500D01*
X193750Y101251D02*Y99651D01*
Y101251D02*X195136Y102051D01*
X193750Y101251D02*X192364Y102051D01*
X96500Y57101D02*Y55501D01*
Y57101D02*X97886Y57901D01*
X96500Y57101D02*X95114Y57901D01*
X71698Y57100D02*Y55500D01*
Y57100D02*X73084Y57900D01*
X71698Y57100D02*X70312Y57900D01*
X436399Y7899D02*Y6299D01*
Y7899D02*X437785Y8699D01*
X436399Y7899D02*X435013Y8699D01*
X294000Y31099D02*Y29499D01*
Y31099D02*X295386Y31899D01*
X294000Y31099D02*X292614Y31899D01*
X133900Y49701D02*Y48101D01*
Y49701D02*X135286Y50501D01*
X133900Y49701D02*X132514Y50501D01*
X68097Y62099D02*Y60499D01*
Y62099D02*X69483Y62899D01*
X68097Y62099D02*X66711Y62899D01*
X422201Y117100D02*Y115500D01*
Y117100D02*X423587Y117900D01*
X422201Y117100D02*X420815Y117900D01*
X186988Y101251D02*Y99651D01*
Y101251D02*X188374Y102051D01*
X186988Y101251D02*X185602Y102051D01*
X15000Y206250D02*Y204650D01*
Y206250D02*X16386Y207050D01*
X15000Y206250D02*X13614Y207050D01*
X135000Y208500D02*Y207750D01*
X136500Y206250D01*
X138000Y207750D01*
Y208500D02*Y207750D01*
X136500Y206250D02*Y202500D01*
X139801Y205500D02*X142051D01*
X139801Y202500D02*X142801D01*
X139801Y208500D02*Y202500D01*
Y208500D02*X142801D01*
X147603D02*X148353Y207750D01*
X145353Y208500D02*X147603D01*
X144603Y207750D02*X145353Y208500D01*
X144603Y207750D02*Y206250D01*
X145353Y205500D01*
X147603D01*
X148353Y204750D01*
Y203250D01*
X147603Y202500D02*X148353Y203250D01*
X145353Y202500D02*X147603D01*
X144603Y203250D02*X145353Y202500D01*
X135000Y199249D02*X150154D01*
X98000Y207750D02*X98750Y208500D01*
X101000D01*
X101750Y207750D01*
Y206250D01*
X98000Y202500D02*X101750Y206250D01*
X98000Y202500D02*X101750D01*
X103551D02*X106551Y205500D01*
Y207750D02*Y205500D01*
X105801Y208500D02*X106551Y207750D01*
X104301Y208500D02*X105801D01*
X103551Y207750D02*X104301Y208500D01*
X103551Y207750D02*Y206250D01*
X104301Y205500D01*
X106551D01*
X98000Y199249D02*X108353D01*
X45000Y203250D02*X45750Y202500D01*
X45000Y207750D02*Y203250D01*
Y207750D02*X45750Y208500D01*
X47250D01*
X48000Y207750D01*
Y203250D01*
X47250Y202500D02*X48000Y203250D01*
X45750Y202500D02*X47250D01*
X45000Y204000D02*X48000Y207000D01*
X49801Y202500D02*X50551D01*
X52353Y203250D02*X53103Y202500D01*
X52353Y207750D02*Y203250D01*
Y207750D02*X53103Y208500D01*
X54603D01*
X55353Y207750D01*
Y203250D01*
X54603Y202500D02*X55353Y203250D01*
X53103Y202500D02*X54603D01*
X52353Y204000D02*X55353Y207000D01*
X57154Y207750D02*X57904Y208500D01*
X60154D01*
X60904Y207750D01*
Y206250D01*
X57154Y202500D02*X60904Y206250D01*
X57154Y202500D02*X60904D01*
X62706Y203250D02*X63456Y202500D01*
X62706Y207750D02*Y203250D01*
Y207750D02*X63456Y208500D01*
X64956D01*
X65706Y207750D01*
Y203250D01*
X64956Y202500D02*X65706Y203250D01*
X63456Y202500D02*X64956D01*
X62706Y204000D02*X65706Y207000D01*
X45000Y199249D02*X67507D01*
X3000Y223500D02*X3750Y222750D01*
X750Y223500D02*X3000D01*
X0Y222750D02*X750Y223500D01*
X0Y222750D02*Y221250D01*
X750Y220500D01*
X3000D01*
X3750Y219750D01*
Y218250D01*
X3000Y217500D02*X3750Y218250D01*
X750Y217500D02*X3000D01*
X0Y218250D02*X750Y217500D01*
X5551Y220500D02*Y218250D01*
X6301Y217500D01*
X8551Y220500D02*Y216000D01*
X7801Y215250D02*X8551Y216000D01*
X6301Y215250D02*X7801D01*
X5551Y216000D02*X6301Y215250D01*
Y217500D02*X7801D01*
X8551Y218250D01*
X11103Y219750D02*Y217500D01*
Y219750D02*X11853Y220500D01*
X12603D01*
X13353Y219750D01*
Y217500D01*
Y219750D02*X14103Y220500D01*
X14853D01*
X15603Y219750D01*
Y217500D01*
X10353Y220500D02*X11103Y219750D01*
X17404Y223500D02*Y217500D01*
Y218250D02*X18154Y217500D01*
X19654D01*
X20404Y218250D01*
Y219750D02*Y218250D01*
X19654Y220500D02*X20404Y219750D01*
X18154Y220500D02*X19654D01*
X17404Y219750D02*X18154Y220500D01*
X22206Y219750D02*Y218250D01*
Y219750D02*X22956Y220500D01*
X24456D01*
X25206Y219750D01*
Y218250D01*
X24456Y217500D02*X25206Y218250D01*
X22956Y217500D02*X24456D01*
X22206Y218250D02*X22956Y217500D01*
X27007Y223500D02*Y218250D01*
X27757Y217500D01*
X41750Y223500D02*Y217500D01*
X44000Y223500D02*X44750Y222750D01*
Y218250D01*
X44000Y217500D02*X44750Y218250D01*
X41000Y217500D02*X44000D01*
X41000Y223500D02*X44000D01*
X46551Y222000D02*Y221250D01*
Y219750D02*Y217500D01*
X50303Y220500D02*X51053Y219750D01*
X48803Y220500D02*X50303D01*
X48053Y219750D02*X48803Y220500D01*
X48053Y219750D02*Y218250D01*
X48803Y217500D01*
X51053Y220500D02*Y218250D01*
X51803Y217500D01*
X48803D02*X50303D01*
X51053Y218250D01*
X54354Y219750D02*Y217500D01*
Y219750D02*X55104Y220500D01*
X55854D01*
X56604Y219750D01*
Y217500D01*
Y219750D02*X57354Y220500D01*
X58104D01*
X58854Y219750D01*
Y217500D01*
X53604Y220500D02*X54354Y219750D01*
X60656Y217500D02*X61406D01*
X65907Y218250D02*X66657Y217500D01*
X65907Y222750D02*X66657Y223500D01*
X65907Y222750D02*Y218250D01*
X68459Y223500D02*X69959D01*
X69209D02*Y217500D01*
X68459D02*X69959D01*
X72510Y219750D02*Y217500D01*
Y219750D02*X73260Y220500D01*
X74010D01*
X74760Y219750D01*
Y217500D01*
X71760Y220500D02*X72510Y219750D01*
X77312Y220500D02*X79562D01*
X76562Y219750D02*X77312Y220500D01*
X76562Y219750D02*Y218250D01*
X77312Y217500D01*
X79562D01*
X81363Y223500D02*Y217500D01*
Y219750D02*X82113Y220500D01*
X83613D01*
X84363Y219750D01*
Y217500D01*
X86165Y223500D02*X86915Y222750D01*
Y218250D01*
X86165Y217500D02*X86915Y218250D01*
X95750Y217500D02*X98000D01*
X95000Y218250D02*X95750Y217500D01*
X95000Y222750D02*Y218250D01*
Y222750D02*X95750Y223500D01*
X98000D01*
X99801Y219750D02*Y218250D01*
Y219750D02*X100551Y220500D01*
X102051D01*
X102801Y219750D01*
Y218250D01*
X102051Y217500D02*X102801Y218250D01*
X100551Y217500D02*X102051D01*
X99801Y218250D02*X100551Y217500D01*
X104603Y220500D02*Y218250D01*
X105353Y217500D01*
X106853D01*
X107603Y218250D01*
Y220500D02*Y218250D01*
X110154Y219750D02*Y217500D01*
Y219750D02*X110904Y220500D01*
X111654D01*
X112404Y219750D01*
Y217500D01*
X109404Y220500D02*X110154Y219750D01*
X114956Y223500D02*Y218250D01*
X115706Y217500D01*
X114206Y221250D02*X115706D01*
X130750Y223500D02*Y217500D01*
X130000Y223500D02*X133000D01*
X133750Y222750D01*
Y221250D01*
X133000Y220500D02*X133750Y221250D01*
X130750Y220500D02*X133000D01*
X135551Y223500D02*Y218250D01*
X136301Y217500D01*
X140053Y220500D02*X140803Y219750D01*
X138553Y220500D02*X140053D01*
X137803Y219750D02*X138553Y220500D01*
X137803Y219750D02*Y218250D01*
X138553Y217500D01*
X140803Y220500D02*Y218250D01*
X141553Y217500D01*
X138553D02*X140053D01*
X140803Y218250D01*
X144104Y223500D02*Y218250D01*
X144854Y217500D01*
X143354Y221250D02*X144854D01*
X147106Y217500D02*X149356D01*
X146356Y218250D02*X147106Y217500D01*
X146356Y219750D02*Y218250D01*
Y219750D02*X147106Y220500D01*
X148606D01*
X149356Y219750D01*
X146356Y219000D02*X149356D01*
Y219750D02*Y219000D01*
X154157Y223500D02*Y217500D01*
X153407D02*X154157Y218250D01*
X151907Y217500D02*X153407D01*
X151157Y218250D02*X151907Y217500D01*
X151157Y219750D02*Y218250D01*
Y219750D02*X151907Y220500D01*
X153407D01*
X154157Y219750D01*
X157459Y220500D02*Y219750D01*
Y218250D02*Y217500D01*
X155959Y222750D02*Y222000D01*
Y222750D02*X156709Y223500D01*
X158209D01*
X158959Y222750D01*
Y222000D01*
X157459Y220500D02*X158959Y222000D01*
X0Y238500D02*X3000D01*
X1500D02*Y232500D01*
X4801Y238500D02*Y232500D01*
Y234750D02*X5551Y235500D01*
X7051D01*
X7801Y234750D01*
Y232500D01*
X10353D02*X12603D01*
X9603Y233250D02*X10353Y232500D01*
X9603Y234750D02*Y233250D01*
Y234750D02*X10353Y235500D01*
X11853D01*
X12603Y234750D01*
X9603Y234000D02*X12603D01*
Y234750D02*Y234000D01*
X15154Y234750D02*Y232500D01*
Y234750D02*X15904Y235500D01*
X17404D01*
X14404D02*X15154Y234750D01*
X19956Y232500D02*X22206D01*
X19206Y233250D02*X19956Y232500D01*
X19206Y234750D02*Y233250D01*
Y234750D02*X19956Y235500D01*
X21456D01*
X22206Y234750D01*
X19206Y234000D02*X22206D01*
Y234750D02*Y234000D01*
X28957Y235500D02*X29707Y234750D01*
X27457Y235500D02*X28957D01*
X26707Y234750D02*X27457Y235500D01*
X26707Y234750D02*Y233250D01*
X27457Y232500D01*
X29707Y235500D02*Y233250D01*
X30457Y232500D01*
X27457D02*X28957D01*
X29707Y233250D01*
X33009Y234750D02*Y232500D01*
Y234750D02*X33759Y235500D01*
X35259D01*
X32259D02*X33009Y234750D01*
X37810Y232500D02*X40060D01*
X37060Y233250D02*X37810Y232500D01*
X37060Y234750D02*Y233250D01*
Y234750D02*X37810Y235500D01*
X39310D01*
X40060Y234750D01*
X37060Y234000D02*X40060D01*
Y234750D02*Y234000D01*
X44562Y235500D02*X47562Y238500D01*
X44562Y235500D02*X48312D01*
X47562Y238500D02*Y232500D01*
X55813Y238500D02*Y232500D01*
X55063D02*X55813Y233250D01*
X53563Y232500D02*X55063D01*
X52813Y233250D02*X53563Y232500D01*
X52813Y234750D02*Y233250D01*
Y234750D02*X53563Y235500D01*
X55063D01*
X55813Y234750D01*
X57615Y237000D02*Y236250D01*
Y234750D02*Y232500D01*
X59866Y237750D02*Y232500D01*
Y237750D02*X60616Y238500D01*
X61366D01*
X59116Y235500D02*X60616D01*
X63618Y237750D02*Y232500D01*
Y237750D02*X64368Y238500D01*
X65118D01*
X62868Y235500D02*X64368D01*
X67369Y232500D02*X69619D01*
X66619Y233250D02*X67369Y232500D01*
X66619Y234750D02*Y233250D01*
Y234750D02*X67369Y235500D01*
X68869D01*
X69619Y234750D01*
X66619Y234000D02*X69619D01*
Y234750D02*Y234000D01*
X72171Y234750D02*Y232500D01*
Y234750D02*X72921Y235500D01*
X74421D01*
X71421D02*X72171Y234750D01*
X76972Y232500D02*X79222D01*
X76222Y233250D02*X76972Y232500D01*
X76222Y234750D02*Y233250D01*
Y234750D02*X76972Y235500D01*
X78472D01*
X79222Y234750D01*
X76222Y234000D02*X79222D01*
Y234750D02*Y234000D01*
X81774Y234750D02*Y232500D01*
Y234750D02*X82524Y235500D01*
X83274D01*
X84024Y234750D01*
Y232500D01*
X81024Y235500D02*X81774Y234750D01*
X86575Y238500D02*Y233250D01*
X87325Y232500D01*
X85825Y236250D02*X87325D01*
X94527Y238500D02*Y232500D01*
X93777D02*X94527Y233250D01*
X92277Y232500D02*X93777D01*
X91527Y233250D02*X92277Y232500D01*
X91527Y234750D02*Y233250D01*
Y234750D02*X92277Y235500D01*
X93777D01*
X94527Y234750D01*
X97078D02*Y232500D01*
Y234750D02*X97828Y235500D01*
X99328D01*
X96328D02*X97078Y234750D01*
X101130Y237000D02*Y236250D01*
Y234750D02*Y232500D01*
X102631Y238500D02*Y233250D01*
X103381Y232500D01*
X104883Y238500D02*Y233250D01*
X105633Y232500D01*
X110584D02*X112834D01*
X113584Y233250D01*
X112834Y234000D02*X113584Y233250D01*
X110584Y234000D02*X112834D01*
X109834Y234750D02*X110584Y234000D01*
X109834Y234750D02*X110584Y235500D01*
X112834D01*
X113584Y234750D01*
X109834Y233250D02*X110584Y232500D01*
X115386Y237000D02*Y236250D01*
Y234750D02*Y232500D01*
X116887Y235500D02*X119887D01*
X116887Y232500D02*X119887Y235500D01*
X116887Y232500D02*X119887D01*
X122439D02*X124689D01*
X121689Y233250D02*X122439Y232500D01*
X121689Y234750D02*Y233250D01*
Y234750D02*X122439Y235500D01*
X123939D01*
X124689Y234750D01*
X121689Y234000D02*X124689D01*
Y234750D02*Y234000D01*
X127240Y232500D02*X129490D01*
X130240Y233250D01*
X129490Y234000D02*X130240Y233250D01*
X127240Y234000D02*X129490D01*
X126490Y234750D02*X127240Y234000D01*
X126490Y234750D02*X127240Y235500D01*
X129490D01*
X130240Y234750D01*
X126490Y233250D02*X127240Y232500D01*
X134742Y235500D02*Y233250D01*
X135492Y232500D01*
X136992D01*
X137742Y233250D01*
Y235500D02*Y233250D01*
X140293Y232500D02*X142543D01*
X143293Y233250D01*
X142543Y234000D02*X143293Y233250D01*
X140293Y234000D02*X142543D01*
X139543Y234750D02*X140293Y234000D01*
X139543Y234750D02*X140293Y235500D01*
X142543D01*
X143293Y234750D01*
X139543Y233250D02*X140293Y232500D01*
X145845D02*X148095D01*
X145095Y233250D02*X145845Y232500D01*
X145095Y234750D02*Y233250D01*
Y234750D02*X145845Y235500D01*
X147345D01*
X148095Y234750D01*
X145095Y234000D02*X148095D01*
Y234750D02*Y234000D01*
X152896Y238500D02*Y232500D01*
X152146D02*X152896Y233250D01*
X150646Y232500D02*X152146D01*
X149896Y233250D02*X150646Y232500D01*
X149896Y234750D02*Y233250D01*
Y234750D02*X150646Y235500D01*
X152146D01*
X152896Y234750D01*
X157398Y237000D02*Y236250D01*
Y234750D02*Y232500D01*
X159649Y234750D02*Y232500D01*
Y234750D02*X160399Y235500D01*
X161149D01*
X161899Y234750D01*
Y232500D01*
X158899Y235500D02*X159649Y234750D01*
X167151Y238500D02*Y233250D01*
X167901Y232500D01*
X166401Y236250D02*X167901D01*
X169402Y238500D02*Y232500D01*
Y234750D02*X170152Y235500D01*
X171652D01*
X172402Y234750D01*
Y232500D01*
X174204Y237000D02*Y236250D01*
Y234750D02*Y232500D01*
X176455D02*X178705D01*
X179455Y233250D01*
X178705Y234000D02*X179455Y233250D01*
X176455Y234000D02*X178705D01*
X175705Y234750D02*X176455Y234000D01*
X175705Y234750D02*X176455Y235500D01*
X178705D01*
X179455Y234750D01*
X175705Y233250D02*X176455Y232500D01*
X183957Y238500D02*Y233250D01*
X184707Y232500D01*
X188458Y235500D02*X189208Y234750D01*
X186958Y235500D02*X188458D01*
X186208Y234750D02*X186958Y235500D01*
X186208Y234750D02*Y233250D01*
X186958Y232500D01*
X189208Y235500D02*Y233250D01*
X189958Y232500D01*
X186958D02*X188458D01*
X189208Y233250D01*
X191760Y235500D02*Y233250D01*
X192510Y232500D01*
X194760Y235500D02*Y231000D01*
X194010Y230250D02*X194760Y231000D01*
X192510Y230250D02*X194010D01*
X191760Y231000D02*X192510Y230250D01*
Y232500D02*X194010D01*
X194760Y233250D01*
X196561Y234750D02*Y233250D01*
Y234750D02*X197311Y235500D01*
X198811D01*
X199561Y234750D01*
Y233250D01*
X198811Y232500D02*X199561Y233250D01*
X197311Y232500D02*X198811D01*
X196561Y233250D02*X197311Y232500D01*
X201363Y235500D02*Y233250D01*
X202113Y232500D01*
X203613D01*
X204363Y233250D01*
Y235500D02*Y233250D01*
X206914Y238500D02*Y233250D01*
X207664Y232500D01*
X206164Y236250D02*X207664D01*
X209166Y231000D02*X210666Y232500D01*
X215167Y237750D02*X215917Y238500D01*
X218167D01*
X218917Y237750D01*
Y236250D01*
X215167Y232500D02*X218917Y236250D01*
X215167Y232500D02*X218917D01*
X220719Y237750D02*X221469Y238500D01*
X222969D01*
X223719Y237750D01*
Y233250D01*
X222969Y232500D02*X223719Y233250D01*
X221469Y232500D02*X222969D01*
X220719Y233250D02*X221469Y232500D01*
Y235500D02*X223719D01*
X225520Y232500D02*X228520Y235500D01*
Y237750D02*Y235500D01*
X227770Y238500D02*X228520Y237750D01*
X226270Y238500D02*X227770D01*
X225520Y237750D02*X226270Y238500D01*
X225520Y237750D02*Y236250D01*
X226270Y235500D01*
X228520D01*
X233022Y238500D02*Y232500D01*
Y234750D02*X233772Y235500D01*
X235272D01*
X236022Y234750D01*
Y232500D01*
X237823Y234750D02*Y233250D01*
Y234750D02*X238573Y235500D01*
X240073D01*
X240823Y234750D01*
Y233250D01*
X240073Y232500D02*X240823Y233250D01*
X238573Y232500D02*X240073D01*
X237823Y233250D02*X238573Y232500D01*
X242625Y238500D02*Y233250D01*
X243375Y232500D01*
X245626D02*X247876D01*
X244876Y233250D02*X245626Y232500D01*
X244876Y234750D02*Y233250D01*
Y234750D02*X245626Y235500D01*
X247126D01*
X247876Y234750D01*
X244876Y234000D02*X247876D01*
Y234750D02*Y234000D01*
X250428Y232500D02*X252678D01*
X253428Y233250D01*
X252678Y234000D02*X253428Y233250D01*
X250428Y234000D02*X252678D01*
X249678Y234750D02*X250428Y234000D01*
X249678Y234750D02*X250428Y235500D01*
X252678D01*
X253428Y234750D01*
X249678Y233250D02*X250428Y232500D01*
X258679Y238500D02*Y233250D01*
X259429Y232500D01*
X257929Y236250D02*X259429D01*
X260931Y234750D02*Y233250D01*
Y234750D02*X261681Y235500D01*
X263181D01*
X263931Y234750D01*
Y233250D01*
X263181Y232500D02*X263931Y233250D01*
X261681Y232500D02*X263181D01*
X260931Y233250D02*X261681Y232500D01*
X266482Y238500D02*Y233250D01*
X267232Y232500D01*
X265732Y236250D02*X267232D01*
X270984Y235500D02*X271734Y234750D01*
X269484Y235500D02*X270984D01*
X268734Y234750D02*X269484Y235500D01*
X268734Y234750D02*Y233250D01*
X269484Y232500D01*
X271734Y235500D02*Y233250D01*
X272484Y232500D01*
X269484D02*X270984D01*
X271734Y233250D01*
X274285Y238500D02*Y233250D01*
X275035Y232500D01*
G54D22*X0Y150000D02*X480000D01*
X0D02*Y0D01*
X480000Y150000D02*Y0D01*
X0D02*X480000D01*
G54D24*X200000Y163500D02*Y157500D01*
Y163500D02*X202250Y161250D01*
X204500Y163500D01*
Y157500D01*
X208551Y160500D02*X209301Y159750D01*
X207051Y160500D02*X208551D01*
X206301Y159750D02*X207051Y160500D01*
X206301Y159750D02*Y158250D01*
X207051Y157500D01*
X209301Y160500D02*Y158250D01*
X210051Y157500D01*
X207051D02*X208551D01*
X209301Y158250D01*
X211853Y160500D02*X214853Y157500D01*
X211853D02*X214853Y160500D01*
X216654Y162000D02*Y161250D01*
Y159750D02*Y157500D01*
X218906Y159750D02*Y157500D01*
Y159750D02*X219656Y160500D01*
X220406D01*
X221156Y159750D01*
Y157500D01*
Y159750D02*X221906Y160500D01*
X222656D01*
X223406Y159750D01*
Y157500D01*
X218156Y160500D02*X218906Y159750D01*
X225207Y160500D02*Y158250D01*
X225957Y157500D01*
X227457D01*
X228207Y158250D01*
Y160500D02*Y158250D01*
X230759Y159750D02*Y157500D01*
Y159750D02*X231509Y160500D01*
X232259D01*
X233009Y159750D01*
Y157500D01*
Y159750D02*X233759Y160500D01*
X234509D01*
X235259Y159750D01*
Y157500D01*
X230009Y160500D02*X230759Y159750D01*
X240510Y163500D02*Y157500D01*
X242760Y163500D02*X243510Y162750D01*
Y158250D01*
X242760Y157500D02*X243510Y158250D01*
X239760Y157500D02*X242760D01*
X239760Y163500D02*X242760D01*
X245312Y162000D02*Y161250D01*
Y159750D02*Y157500D01*
X247563Y159750D02*Y157500D01*
Y159750D02*X248313Y160500D01*
X249063D01*
X249813Y159750D01*
Y157500D01*
Y159750D02*X250563Y160500D01*
X251313D01*
X252063Y159750D01*
Y157500D01*
X246813Y160500D02*X247563Y159750D01*
X254615Y157500D02*X256865D01*
X253865Y158250D02*X254615Y157500D01*
X253865Y159750D02*Y158250D01*
Y159750D02*X254615Y160500D01*
X256115D01*
X256865Y159750D01*
X253865Y159000D02*X256865D01*
Y159750D02*Y159000D01*
X259416Y159750D02*Y157500D01*
Y159750D02*X260166Y160500D01*
X260916D01*
X261666Y159750D01*
Y157500D01*
X258666Y160500D02*X259416Y159750D01*
X264218Y157500D02*X266468D01*
X267218Y158250D01*
X266468Y159000D02*X267218Y158250D01*
X264218Y159000D02*X266468D01*
X263468Y159750D02*X264218Y159000D01*
X263468Y159750D02*X264218Y160500D01*
X266468D01*
X267218Y159750D01*
X263468Y158250D02*X264218Y157500D01*
X269019Y162000D02*Y161250D01*
Y159750D02*Y157500D01*
X270521Y159750D02*Y158250D01*
Y159750D02*X271271Y160500D01*
X272771D01*
X273521Y159750D01*
Y158250D01*
X272771Y157500D02*X273521Y158250D01*
X271271Y157500D02*X272771D01*
X270521Y158250D02*X271271Y157500D01*
X276072Y159750D02*Y157500D01*
Y159750D02*X276822Y160500D01*
X277572D01*
X278322Y159750D01*
Y157500D01*
X275322Y160500D02*X276072Y159750D01*
X280874Y157500D02*X283124D01*
X283874Y158250D01*
X283124Y159000D02*X283874Y158250D01*
X280874Y159000D02*X283124D01*
X280124Y159750D02*X280874Y159000D01*
X280124Y159750D02*X280874Y160500D01*
X283124D01*
X283874Y159750D01*
X280124Y158250D02*X280874Y157500D01*
X285675Y161250D02*X286425D01*
X285675Y159750D02*X286425D01*
X290927Y160500D02*X293927Y163500D01*
X290927Y160500D02*X294677D01*
X293927Y163500D02*Y157500D01*
X296478Y158250D02*X297228Y157500D01*
X296478Y159750D02*Y158250D01*
Y159750D02*X297228Y160500D01*
X298728D01*
X299478Y159750D01*
Y158250D01*
X298728Y157500D02*X299478Y158250D01*
X297228Y157500D02*X298728D01*
X296478Y161250D02*X297228Y160500D01*
X296478Y162750D02*Y161250D01*
Y162750D02*X297228Y163500D01*
X298728D01*
X299478Y162750D01*
Y161250D01*
X298728Y160500D02*X299478Y161250D01*
X301280Y158250D02*X302030Y157500D01*
X301280Y162750D02*Y158250D01*
Y162750D02*X302030Y163500D01*
X303530D01*
X304280Y162750D01*
Y158250D01*
X303530Y157500D02*X304280Y158250D01*
X302030Y157500D02*X303530D01*
X301280Y159000D02*X304280Y162000D01*
X306081Y158250D02*X306831Y157500D01*
X306081Y162750D02*Y158250D01*
Y162750D02*X306831Y163500D01*
X308331D01*
X309081Y162750D01*
Y158250D01*
X308331Y157500D02*X309081Y158250D01*
X306831Y157500D02*X308331D01*
X306081Y159000D02*X309081Y162000D01*
X314333Y159750D02*Y157500D01*
Y159750D02*X315083Y160500D01*
X315833D01*
X316583Y159750D01*
Y157500D01*
Y159750D02*X317333Y160500D01*
X318083D01*
X318833Y159750D01*
Y157500D01*
X313583Y160500D02*X314333Y159750D01*
X320634Y162000D02*Y161250D01*
Y159750D02*Y157500D01*
X322136Y163500D02*Y158250D01*
X322886Y157500D01*
X325137D02*X327387D01*
X328137Y158250D01*
X327387Y159000D02*X328137Y158250D01*
X325137Y159000D02*X327387D01*
X324387Y159750D02*X325137Y159000D01*
X324387Y159750D02*X325137Y160500D01*
X327387D01*
X328137Y159750D01*
X324387Y158250D02*X325137Y157500D01*
X332639Y160500D02*Y158250D01*
X333389Y157500D01*
X334139D01*
X334889Y158250D01*
Y160500D02*Y158250D01*
X335639Y157500D01*
X336389D01*
X337139Y158250D01*
Y160500D02*Y158250D01*
X338940Y162000D02*Y161250D01*
Y159750D02*Y157500D01*
X343442Y163500D02*Y157500D01*
X342692D02*X343442Y158250D01*
X341192Y157500D02*X342692D01*
X340442Y158250D02*X341192Y157500D01*
X340442Y159750D02*Y158250D01*
Y159750D02*X341192Y160500D01*
X342692D01*
X343442Y159750D01*
X345993Y157500D02*X348243D01*
X345243Y158250D02*X345993Y157500D01*
X345243Y159750D02*Y158250D01*
Y159750D02*X345993Y160500D01*
X347493D01*
X348243Y159750D01*
X345243Y159000D02*X348243D01*
Y159750D02*Y159000D01*
X350045Y156000D02*X351545Y157500D01*
X356796D02*X358296D01*
X357546Y163500D02*Y157500D01*
X356046Y162000D02*X357546Y163500D01*
X360098D02*X363098D01*
X360098D02*Y160500D01*
X360848Y161250D01*
X362348D01*
X363098Y160500D01*
Y158250D01*
X362348Y157500D02*X363098Y158250D01*
X360848Y157500D02*X362348D01*
X360098Y158250D02*X360848Y157500D01*
X364899Y158250D02*X365649Y157500D01*
X364899Y162750D02*Y158250D01*
Y162750D02*X365649Y163500D01*
X367149D01*
X367899Y162750D01*
Y158250D01*
X367149Y157500D02*X367899Y158250D01*
X365649Y157500D02*X367149D01*
X364899Y159000D02*X367899Y162000D01*
X369701Y158250D02*X370451Y157500D01*
X369701Y162750D02*Y158250D01*
Y162750D02*X370451Y163500D01*
X371951D01*
X372701Y162750D01*
Y158250D01*
X371951Y157500D02*X372701Y158250D01*
X370451Y157500D02*X371951D01*
X369701Y159000D02*X372701Y162000D01*
X377952Y159750D02*Y157500D01*
Y159750D02*X378702Y160500D01*
X379452D01*
X380202Y159750D01*
Y157500D01*
Y159750D02*X380952Y160500D01*
X381702D01*
X382452Y159750D01*
Y157500D01*
X377202Y160500D02*X377952Y159750D01*
X384254Y162000D02*Y161250D01*
Y159750D02*Y157500D01*
X385755Y163500D02*Y158250D01*
X386505Y157500D01*
X388757D02*X391007D01*
X391757Y158250D01*
X391007Y159000D02*X391757Y158250D01*
X388757Y159000D02*X391007D01*
X388007Y159750D02*X388757Y159000D01*
X388007Y159750D02*X388757Y160500D01*
X391007D01*
X391757Y159750D01*
X388007Y158250D02*X388757Y157500D01*
X396258Y163500D02*Y157500D01*
Y159750D02*X397008Y160500D01*
X398508D01*
X399258Y159750D01*
Y157500D01*
X401060Y162000D02*Y161250D01*
Y159750D02*Y157500D01*
X404811Y160500D02*X405561Y159750D01*
X403311Y160500D02*X404811D01*
X402561Y159750D02*X403311Y160500D01*
X402561Y159750D02*Y158250D01*
X403311Y157500D01*
X404811D01*
X405561Y158250D01*
X402561Y156000D02*X403311Y155250D01*
X404811D01*
X405561Y156000D01*
Y160500D02*Y156000D01*
X407363Y163500D02*Y157500D01*
Y159750D02*X408113Y160500D01*
X409613D01*
X410363Y159750D01*
Y157500D01*
X82226Y-9500D02*X85226D01*
X85976Y-8750D01*
Y-7250D02*Y-8750D01*
X85226Y-6500D02*X85976Y-7250D01*
X82976Y-6500D02*X85226D01*
X82976Y-3500D02*Y-9500D01*
X82226Y-3500D02*X85226D01*
X85976Y-4250D01*
Y-5750D01*
X85226Y-6500D02*X85976Y-5750D01*
X87777Y-7250D02*Y-8750D01*
Y-7250D02*X88527Y-6500D01*
X90027D01*
X90777Y-7250D01*
Y-8750D01*
X90027Y-9500D02*X90777Y-8750D01*
X88527Y-9500D02*X90027D01*
X87777Y-8750D02*X88527Y-9500D01*
X94829Y-6500D02*X95579Y-7250D01*
X93329Y-6500D02*X94829D01*
X92579Y-7250D02*X93329Y-6500D01*
X92579Y-7250D02*Y-8750D01*
X93329Y-9500D01*
X95579Y-6500D02*Y-8750D01*
X96329Y-9500D01*
X93329D02*X94829D01*
X95579Y-8750D01*
X98880Y-7250D02*Y-9500D01*
Y-7250D02*X99630Y-6500D01*
X101130D01*
X98130D02*X98880Y-7250D01*
X105932Y-3500D02*Y-9500D01*
X105182D02*X105932Y-8750D01*
X103682Y-9500D02*X105182D01*
X102932Y-8750D02*X103682Y-9500D01*
X102932Y-7250D02*Y-8750D01*
Y-7250D02*X103682Y-6500D01*
X105182D01*
X105932Y-7250D01*
X110433D02*Y-8750D01*
Y-7250D02*X111183Y-6500D01*
X112683D01*
X113433Y-7250D01*
Y-8750D01*
X112683Y-9500D02*X113433Y-8750D01*
X111183Y-9500D02*X112683D01*
X110433Y-8750D02*X111183Y-9500D01*
X115235Y-6500D02*Y-8750D01*
X115985Y-9500D01*
X117485D01*
X118235Y-8750D01*
Y-6500D02*Y-8750D01*
X120786Y-3500D02*Y-8750D01*
X121536Y-9500D01*
X120036Y-5750D02*X121536D01*
X123038Y-3500D02*Y-8750D01*
X123788Y-9500D01*
X125289Y-5000D02*Y-5750D01*
Y-7250D02*Y-9500D01*
X127541Y-7250D02*Y-9500D01*
Y-7250D02*X128291Y-6500D01*
X129041D01*
X129791Y-7250D01*
Y-9500D01*
X126791Y-6500D02*X127541Y-7250D01*
X132342Y-9500D02*X134592D01*
X131592Y-8750D02*X132342Y-9500D01*
X131592Y-7250D02*Y-8750D01*
Y-7250D02*X132342Y-6500D01*
X133842D01*
X134592Y-7250D01*
X131592Y-8000D02*X134592D01*
Y-7250D02*Y-8000D01*
X139094Y-5000D02*Y-5750D01*
Y-7250D02*Y-9500D01*
X141345D02*X143595D01*
X144345Y-8750D01*
X143595Y-8000D02*X144345Y-8750D01*
X141345Y-8000D02*X143595D01*
X140595Y-7250D02*X141345Y-8000D01*
X140595Y-7250D02*X141345Y-6500D01*
X143595D01*
X144345Y-7250D01*
X140595Y-8750D02*X141345Y-9500D01*
X149597Y-3500D02*Y-8750D01*
X150347Y-9500D01*
X148847Y-5750D02*X150347D01*
X151848Y-3500D02*Y-9500D01*
Y-7250D02*X152598Y-6500D01*
X154098D01*
X154848Y-7250D01*
Y-9500D01*
X157400D02*X159650D01*
X156650Y-8750D02*X157400Y-9500D01*
X156650Y-7250D02*Y-8750D01*
Y-7250D02*X157400Y-6500D01*
X158900D01*
X159650Y-7250D01*
X156650Y-8000D02*X159650D01*
Y-7250D02*Y-8000D01*
X164901Y-6500D02*X167151D01*
X164151Y-7250D02*X164901Y-6500D01*
X164151Y-7250D02*Y-8750D01*
X164901Y-9500D01*
X167151D01*
X169703D02*X171953D01*
X168953Y-8750D02*X169703Y-9500D01*
X168953Y-7250D02*Y-8750D01*
Y-7250D02*X169703Y-6500D01*
X171203D01*
X171953Y-7250D01*
X168953Y-8000D02*X171953D01*
Y-7250D02*Y-8000D01*
X174504Y-7250D02*Y-9500D01*
Y-7250D02*X175254Y-6500D01*
X176004D01*
X176754Y-7250D01*
Y-9500D01*
X173754Y-6500D02*X174504Y-7250D01*
X179306Y-3500D02*Y-8750D01*
X180056Y-9500D01*
X178556Y-5750D02*X180056D01*
X182307Y-9500D02*X184557D01*
X181557Y-8750D02*X182307Y-9500D01*
X181557Y-7250D02*Y-8750D01*
Y-7250D02*X182307Y-6500D01*
X183807D01*
X184557Y-7250D01*
X181557Y-8000D02*X184557D01*
Y-7250D02*Y-8000D01*
X187109Y-7250D02*Y-9500D01*
Y-7250D02*X187859Y-6500D01*
X189359D01*
X186359D02*X187109Y-7250D01*
X191160Y-3500D02*Y-8750D01*
X191910Y-9500D01*
X193412Y-5000D02*Y-5750D01*
Y-7250D02*Y-9500D01*
X195663Y-7250D02*Y-9500D01*
Y-7250D02*X196413Y-6500D01*
X197163D01*
X197913Y-7250D01*
Y-9500D01*
X194913Y-6500D02*X195663Y-7250D01*
X200465Y-9500D02*X202715D01*
X199715Y-8750D02*X200465Y-9500D01*
X199715Y-7250D02*Y-8750D01*
Y-7250D02*X200465Y-6500D01*
X201965D01*
X202715Y-7250D01*
X199715Y-8000D02*X202715D01*
Y-7250D02*Y-8000D01*
X207216Y-7250D02*Y-8750D01*
Y-7250D02*X207966Y-6500D01*
X209466D01*
X210216Y-7250D01*
Y-8750D01*
X209466Y-9500D02*X210216Y-8750D01*
X207966Y-9500D02*X209466D01*
X207216Y-8750D02*X207966Y-9500D01*
X212768Y-4250D02*Y-9500D01*
Y-4250D02*X213518Y-3500D01*
X214268D01*
X212018Y-6500D02*X213518D01*
X219219Y-3500D02*Y-8750D01*
X219969Y-9500D01*
X218469Y-5750D02*X219969D01*
X221471Y-3500D02*Y-9500D01*
Y-7250D02*X222221Y-6500D01*
X223721D01*
X224471Y-7250D01*
Y-9500D01*
X226272Y-5000D02*Y-5750D01*
Y-7250D02*Y-9500D01*
X228524D02*X230774D01*
X231524Y-8750D01*
X230774Y-8000D02*X231524Y-8750D01*
X228524Y-8000D02*X230774D01*
X227774Y-7250D02*X228524Y-8000D01*
X227774Y-7250D02*X228524Y-6500D01*
X230774D01*
X231524Y-7250D01*
X227774Y-8750D02*X228524Y-9500D01*
X236775D02*X238275D01*
X237525Y-3500D02*Y-9500D01*
X236025Y-5000D02*X237525Y-3500D01*
X240077Y-8750D02*X240827Y-9500D01*
X240077Y-4250D02*Y-8750D01*
Y-4250D02*X240827Y-3500D01*
X242327D01*
X243077Y-4250D01*
Y-8750D01*
X242327Y-9500D02*X243077Y-8750D01*
X240827Y-9500D02*X242327D01*
X240077Y-8000D02*X243077Y-5000D01*
X248328Y-7250D02*Y-9500D01*
Y-7250D02*X249078Y-6500D01*
X249828D01*
X250578Y-7250D01*
Y-9500D01*
Y-7250D02*X251328Y-6500D01*
X252078D01*
X252828Y-7250D01*
Y-9500D01*
X247578Y-6500D02*X248328Y-7250D01*
X254630Y-5000D02*Y-5750D01*
Y-7250D02*Y-9500D01*
X256131Y-3500D02*Y-8750D01*
X256881Y-9500D01*
X261833Y-7250D02*Y-9500D01*
Y-7250D02*X262583Y-6500D01*
X264083D01*
X261083D02*X261833Y-7250D01*
X266634Y-9500D02*X268884D01*
X265884Y-8750D02*X266634Y-9500D01*
X265884Y-7250D02*Y-8750D01*
Y-7250D02*X266634Y-6500D01*
X268134D01*
X268884Y-7250D01*
X265884Y-8000D02*X268884D01*
Y-7250D02*Y-8000D01*
X271436Y-6500D02*X273686D01*
X270686Y-7250D02*X271436Y-6500D01*
X270686Y-7250D02*Y-8750D01*
X271436Y-9500D01*
X273686D01*
X276237Y-3500D02*Y-8750D01*
X276987Y-9500D01*
X275487Y-5750D02*X276987D01*
X280739Y-6500D02*X281489Y-7250D01*
X279239Y-6500D02*X280739D01*
X278489Y-7250D02*X279239Y-6500D01*
X278489Y-7250D02*Y-8750D01*
X279239Y-9500D01*
X281489Y-6500D02*Y-8750D01*
X282239Y-9500D01*
X279239D02*X280739D01*
X281489Y-8750D01*
X284790Y-7250D02*Y-9500D01*
Y-7250D02*X285540Y-6500D01*
X286290D01*
X287040Y-7250D01*
Y-9500D01*
X284040Y-6500D02*X284790Y-7250D01*
X291092Y-6500D02*X291842Y-7250D01*
X289592Y-6500D02*X291092D01*
X288842Y-7250D02*X289592Y-6500D01*
X288842Y-7250D02*Y-8750D01*
X289592Y-9500D01*
X291092D01*
X291842Y-8750D01*
X288842Y-11000D02*X289592Y-11750D01*
X291092D01*
X291842Y-11000D01*
Y-6500D02*Y-11000D01*
X293643Y-3500D02*Y-8750D01*
X294393Y-9500D01*
X296645D02*X298895D01*
X295895Y-8750D02*X296645Y-9500D01*
X295895Y-7250D02*Y-8750D01*
Y-7250D02*X296645Y-6500D01*
X298145D01*
X298895Y-7250D01*
X295895Y-8000D02*X298895D01*
Y-7250D02*Y-8000D01*
X303396Y-6500D02*X306396D01*
X310898Y-8750D02*X311648Y-9500D01*
X310898Y-4250D02*Y-8750D01*
Y-4250D02*X311648Y-3500D01*
X313148D01*
X313898Y-4250D01*
Y-8750D01*
X313148Y-9500D02*X313898Y-8750D01*
X311648Y-9500D02*X313148D01*
X310898Y-8000D02*X313898Y-5000D01*
X315699Y-11000D02*X317199Y-9500D01*
X319001Y-8750D02*X319751Y-9500D01*
X319001Y-4250D02*Y-8750D01*
Y-4250D02*X319751Y-3500D01*
X321251D01*
X322001Y-4250D01*
Y-8750D01*
X321251Y-9500D02*X322001Y-8750D01*
X319751Y-9500D02*X321251D01*
X319001Y-8000D02*X322001Y-5000D01*
X327252Y-3500D02*Y-8750D01*
X328002Y-9500D01*
X326502Y-5750D02*X328002D01*
X329504Y-7250D02*Y-8750D01*
Y-7250D02*X330254Y-6500D01*
X331754D01*
X332504Y-7250D01*
Y-8750D01*
X331754Y-9500D02*X332504Y-8750D01*
X330254Y-9500D02*X331754D01*
X329504Y-8750D02*X330254Y-9500D01*
X337005Y-6500D02*X340005Y-3500D01*
X337005Y-6500D02*X340755D01*
X340005Y-3500D02*Y-9500D01*
X342557Y-8750D02*X343307Y-9500D01*
X342557Y-7250D02*Y-8750D01*
Y-7250D02*X343307Y-6500D01*
X344807D01*
X345557Y-7250D01*
Y-8750D01*
X344807Y-9500D02*X345557Y-8750D01*
X343307Y-9500D02*X344807D01*
X342557Y-5750D02*X343307Y-6500D01*
X342557Y-4250D02*Y-5750D01*
Y-4250D02*X343307Y-3500D01*
X344807D01*
X345557Y-4250D01*
Y-5750D01*
X344807Y-6500D02*X345557Y-5750D01*
X347358Y-8750D02*X348108Y-9500D01*
X347358Y-4250D02*Y-8750D01*
Y-4250D02*X348108Y-3500D01*
X349608D01*
X350358Y-4250D01*
Y-8750D01*
X349608Y-9500D02*X350358Y-8750D01*
X348108Y-9500D02*X349608D01*
X347358Y-8000D02*X350358Y-5000D01*
X352160Y-8750D02*X352910Y-9500D01*
X352160Y-4250D02*Y-8750D01*
Y-4250D02*X352910Y-3500D01*
X354410D01*
X355160Y-4250D01*
Y-8750D01*
X354410Y-9500D02*X355160Y-8750D01*
X352910Y-9500D02*X354410D01*
X352160Y-8000D02*X355160Y-5000D01*
X356961Y-11000D02*X358461Y-9500D01*
X361013D02*X362513D01*
X361763Y-3500D02*Y-9500D01*
X360263Y-5000D02*X361763Y-3500D01*
X364314D02*X367314D01*
X364314D02*Y-6500D01*
X365064Y-5750D01*
X366564D01*
X367314Y-6500D01*
Y-8750D01*
X366564Y-9500D02*X367314Y-8750D01*
X365064Y-9500D02*X366564D01*
X364314Y-8750D02*X365064Y-9500D01*
X369116Y-8750D02*X369866Y-9500D01*
X369116Y-4250D02*Y-8750D01*
Y-4250D02*X369866Y-3500D01*
X371366D01*
X372116Y-4250D01*
Y-8750D01*
X371366Y-9500D02*X372116Y-8750D01*
X369866Y-9500D02*X371366D01*
X369116Y-8000D02*X372116Y-5000D01*
X373917Y-8750D02*X374667Y-9500D01*
X373917Y-4250D02*Y-8750D01*
Y-4250D02*X374667Y-3500D01*
X376167D01*
X376917Y-4250D01*
Y-8750D01*
X376167Y-9500D02*X376917Y-8750D01*
X374667Y-9500D02*X376167D01*
X373917Y-8000D02*X376917Y-5000D01*
X382169Y-7250D02*Y-9500D01*
Y-7250D02*X382919Y-6500D01*
X383669D01*
X384419Y-7250D01*
Y-9500D01*
Y-7250D02*X385169Y-6500D01*
X385919D01*
X386669Y-7250D01*
Y-9500D01*
X381419Y-6500D02*X382169Y-7250D01*
X388470Y-5000D02*Y-5750D01*
Y-7250D02*Y-9500D01*
X389972Y-3500D02*Y-8750D01*
X390722Y-9500D01*
X392973D02*X395223D01*
X395973Y-8750D01*
X395223Y-8000D02*X395973Y-8750D01*
X392973Y-8000D02*X395223D01*
X392223Y-7250D02*X392973Y-8000D01*
X392223Y-7250D02*X392973Y-6500D01*
X395223D01*
X395973Y-7250D01*
X392223Y-8750D02*X392973Y-9500D01*
X200750Y178500D02*Y172500D01*
X203000Y178500D02*X203750Y177750D01*
Y173250D01*
X203000Y172500D02*X203750Y173250D01*
X200000Y172500D02*X203000D01*
X200000Y178500D02*X203000D01*
X207801Y175500D02*X208551Y174750D01*
X206301Y175500D02*X207801D01*
X205551Y174750D02*X206301Y175500D01*
X205551Y174750D02*Y173250D01*
X206301Y172500D01*
X208551Y175500D02*Y173250D01*
X209301Y172500D01*
X206301D02*X207801D01*
X208551Y173250D01*
X211853Y178500D02*Y173250D01*
X212603Y172500D01*
X211103Y176250D02*X212603D01*
X214854Y172500D02*X217104D01*
X214104Y173250D02*X214854Y172500D01*
X214104Y174750D02*Y173250D01*
Y174750D02*X214854Y175500D01*
X216354D01*
X217104Y174750D01*
X214104Y174000D02*X217104D01*
Y174750D02*Y174000D01*
X218906Y176250D02*X219656D01*
X218906Y174750D02*X219656D01*
X224157Y178500D02*Y172500D01*
Y178500D02*X226407Y176250D01*
X228657Y178500D01*
Y172500D01*
X230459Y174750D02*Y173250D01*
Y174750D02*X231209Y175500D01*
X232709D01*
X233459Y174750D01*
Y173250D01*
X232709Y172500D02*X233459Y173250D01*
X231209Y172500D02*X232709D01*
X230459Y173250D02*X231209Y172500D01*
X236010Y174750D02*Y172500D01*
Y174750D02*X236760Y175500D01*
X237510D01*
X238260Y174750D01*
Y172500D01*
X235260Y175500D02*X236010Y174750D01*
X242762Y177750D02*X243512Y178500D01*
X245762D01*
X246512Y177750D01*
Y176250D01*
X242762Y172500D02*X246512Y176250D01*
X242762Y172500D02*X246512D01*
X249063D02*X250563D01*
X249813Y178500D02*Y172500D01*
X248313Y177000D02*X249813Y178500D01*
X255065D02*Y172500D01*
Y178500D02*X258065D01*
X255065Y175500D02*X257315D01*
X260616Y172500D02*X262866D01*
X259866Y173250D02*X260616Y172500D01*
X259866Y174750D02*Y173250D01*
Y174750D02*X260616Y175500D01*
X262116D01*
X262866Y174750D01*
X259866Y174000D02*X262866D01*
Y174750D02*Y174000D01*
X264668Y178500D02*Y172500D01*
Y173250D02*X265418Y172500D01*
X266918D01*
X267668Y173250D01*
Y174750D02*Y173250D01*
X266918Y175500D02*X267668Y174750D01*
X265418Y175500D02*X266918D01*
X264668Y174750D02*X265418Y175500D01*
X272169Y177750D02*X272919Y178500D01*
X275169D01*
X275919Y177750D01*
Y176250D01*
X272169Y172500D02*X275919Y176250D01*
X272169Y172500D02*X275919D01*
X277721Y173250D02*X278471Y172500D01*
X277721Y177750D02*Y173250D01*
Y177750D02*X278471Y178500D01*
X279971D01*
X280721Y177750D01*
Y173250D01*
X279971Y172500D02*X280721Y173250D01*
X278471Y172500D02*X279971D01*
X277721Y174000D02*X280721Y177000D01*
X283272Y172500D02*X284772D01*
X284022Y178500D02*Y172500D01*
X282522Y177000D02*X284022Y178500D01*
X287324Y172500D02*X288824D01*
X288074Y178500D02*Y172500D01*
X286574Y177000D02*X288074Y178500D01*
X293325Y173250D02*X294075Y172500D01*
X293325Y177750D02*Y173250D01*
Y177750D02*X294075Y178500D01*
X295575D01*
X296325Y177750D01*
Y173250D01*
X295575Y172500D02*X296325Y173250D01*
X294075Y172500D02*X295575D01*
X293325Y174000D02*X296325Y177000D01*
X298127Y178500D02*X301127D01*
X298127D02*Y175500D01*
X298877Y176250D01*
X300377D01*
X301127Y175500D01*
Y173250D01*
X300377Y172500D02*X301127Y173250D01*
X298877Y172500D02*X300377D01*
X298127Y173250D02*X298877Y172500D01*
X302928Y176250D02*X303678D01*
X302928Y174750D02*X303678D01*
X305480Y178500D02*X308480D01*
X305480D02*Y175500D01*
X306230Y176250D01*
X307730D01*
X308480Y175500D01*
Y173250D01*
X307730Y172500D02*X308480Y173250D01*
X306230Y172500D02*X307730D01*
X305480Y173250D02*X306230Y172500D01*
X310281Y177750D02*X311031Y178500D01*
X313281D01*
X314031Y177750D01*
Y176250D01*
X310281Y172500D02*X314031Y176250D01*
X310281Y172500D02*X314031D01*
X315833Y176250D02*X316583D01*
X315833Y174750D02*X316583D01*
X318384Y178500D02*X321384D01*
X318384D02*Y175500D01*
X319134Y176250D01*
X320634D01*
X321384Y175500D01*
Y173250D01*
X320634Y172500D02*X321384Y173250D01*
X319134Y172500D02*X320634D01*
X318384Y173250D02*X319134Y172500D01*
X323186Y177750D02*X323936Y178500D01*
X325436D01*
X326186Y177750D01*
Y173250D01*
X325436Y172500D02*X326186Y173250D01*
X323936Y172500D02*X325436D01*
X323186Y173250D02*X323936Y172500D01*
Y175500D02*X326186D01*
X331437Y178500D02*Y172500D01*
X330687Y178500D02*X333687D01*
X334437Y177750D01*
Y176250D01*
X333687Y175500D02*X334437Y176250D01*
X331437Y175500D02*X333687D01*
X336239Y178500D02*Y172500D01*
Y178500D02*X338489Y176250D01*
X340739Y178500D01*
Y172500D01*
X348240Y178500D02*X348990Y177750D01*
X345990Y178500D02*X348240D01*
X345240Y177750D02*X345990Y178500D01*
X345240Y177750D02*Y173250D01*
X345990Y172500D01*
X348240D01*
X348990Y173250D01*
Y174750D02*Y173250D01*
X348240Y175500D02*X348990Y174750D01*
X346740Y175500D02*X348240D01*
X350792Y178500D02*Y172500D01*
Y178500D02*X353042Y176250D01*
X355292Y178500D01*
Y172500D01*
X357093Y178500D02*X360093D01*
X358593D02*Y172500D01*
X364595Y178500D02*Y173250D01*
X365345Y172500D01*
X366845D01*
X367595Y173250D01*
Y178500D02*Y173250D01*
X369396Y178500D02*X372396D01*
X370896D02*Y172500D01*
X374948D02*X377198D01*
X374198Y173250D02*X374948Y172500D01*
X374198Y177750D02*Y173250D01*
Y177750D02*X374948Y178500D01*
X377198D01*
X200000Y192750D02*Y187500D01*
Y192750D02*X200750Y193500D01*
X203000D01*
X203750Y192750D01*
Y187500D01*
X200000Y190500D02*X203750D01*
X205551D02*Y188250D01*
X206301Y187500D01*
X207801D01*
X208551Y188250D01*
Y190500D02*Y188250D01*
X211103Y193500D02*Y188250D01*
X211853Y187500D01*
X210353Y191250D02*X211853D01*
X213354Y193500D02*Y187500D01*
Y189750D02*X214104Y190500D01*
X215604D01*
X216354Y189750D01*
Y187500D01*
X218156Y189750D02*Y188250D01*
Y189750D02*X218906Y190500D01*
X220406D01*
X221156Y189750D01*
Y188250D01*
X220406Y187500D02*X221156Y188250D01*
X218906Y187500D02*X220406D01*
X218156Y188250D02*X218906Y187500D01*
X223707Y189750D02*Y187500D01*
Y189750D02*X224457Y190500D01*
X225957D01*
X222957D02*X223707Y189750D01*
X227759Y191250D02*X228509D01*
X227759Y189750D02*X228509D01*
X233010Y193500D02*Y189000D01*
X234510Y187500D01*
X236010Y189000D01*
Y193500D02*Y189000D01*
X237812Y192000D02*Y191250D01*
Y189750D02*Y187500D01*
X240063Y189750D02*Y187500D01*
Y189750D02*X240813Y190500D01*
X241563D01*
X242313Y189750D01*
Y187500D01*
X239313Y190500D02*X240063Y189750D01*
X244865Y190500D02*X247115D01*
X244115Y189750D02*X244865Y190500D01*
X244115Y189750D02*Y188250D01*
X244865Y187500D01*
X247115D01*
X249666D02*X251916D01*
X248916Y188250D02*X249666Y187500D01*
X248916Y189750D02*Y188250D01*
Y189750D02*X249666Y190500D01*
X251166D01*
X251916Y189750D01*
X248916Y189000D02*X251916D01*
Y189750D02*Y189000D01*
X256418Y193500D02*Y187500D01*
X258668Y189750D01*
X260918Y187500D01*
Y193500D02*Y187500D01*
X263469D02*X265719D01*
X262719Y188250D02*X263469Y187500D01*
X262719Y189750D02*Y188250D01*
Y189750D02*X263469Y190500D01*
X264969D01*
X265719Y189750D01*
X262719Y189000D02*X265719D01*
Y189750D02*Y189000D01*
X269771Y190500D02*X270521Y189750D01*
X268271Y190500D02*X269771D01*
X267521Y189750D02*X268271Y190500D01*
X267521Y189750D02*Y188250D01*
X268271Y187500D01*
X270521Y190500D02*Y188250D01*
X271271Y187500D01*
X268271D02*X269771D01*
X270521Y188250D01*
X273072Y190500D02*Y189000D01*
X274572Y187500D01*
X276072Y189000D01*
Y190500D02*Y189000D01*
X278624Y187500D02*X280874D01*
X277874Y188250D02*X278624Y187500D01*
X277874Y189750D02*Y188250D01*
Y189750D02*X278624Y190500D01*
X280124D01*
X280874Y189750D01*
X277874Y189000D02*X280874D01*
Y189750D02*Y189000D01*
X283425Y189750D02*Y187500D01*
Y189750D02*X284175Y190500D01*
X285675D01*
X282675D02*X283425Y189750D01*
X200000Y208500D02*X203000D01*
X201500D02*Y202500D01*
X204801Y207000D02*Y206250D01*
Y204750D02*Y202500D01*
X207053Y208500D02*Y203250D01*
X207803Y202500D01*
X206303Y206250D02*X207803D01*
X209304Y208500D02*Y203250D01*
X210054Y202500D01*
X212306D02*X214556D01*
X211556Y203250D02*X212306Y202500D01*
X211556Y204750D02*Y203250D01*
Y204750D02*X212306Y205500D01*
X213806D01*
X214556Y204750D01*
X211556Y204000D02*X214556D01*
Y204750D02*Y204000D01*
X216357Y206250D02*X217107D01*
X216357Y204750D02*X217107D01*
X221609Y203250D02*X222359Y202500D01*
X221609Y207750D02*X222359Y208500D01*
X221609Y207750D02*Y203250D01*
X224160Y205500D02*Y203250D01*
X224910Y202500D01*
X226410D01*
X227160Y203250D01*
Y205500D02*Y203250D01*
X229712Y204750D02*Y202500D01*
Y204750D02*X230462Y205500D01*
X231212D01*
X231962Y204750D01*
Y202500D01*
X228962Y205500D02*X229712Y204750D01*
X233763Y208500D02*Y202500D01*
Y204750D02*X236013Y202500D01*
X233763Y204750D02*X235263Y206250D01*
X238565Y204750D02*Y202500D01*
Y204750D02*X239315Y205500D01*
X240065D01*
X240815Y204750D01*
Y202500D01*
X237815Y205500D02*X238565Y204750D01*
X242616D02*Y203250D01*
Y204750D02*X243366Y205500D01*
X244866D01*
X245616Y204750D01*
Y203250D01*
X244866Y202500D02*X245616Y203250D01*
X243366Y202500D02*X244866D01*
X242616Y203250D02*X243366Y202500D01*
X247418Y205500D02*Y203250D01*
X248168Y202500D01*
X248918D01*
X249668Y203250D01*
Y205500D02*Y203250D01*
X250418Y202500D01*
X251168D01*
X251918Y203250D01*
Y205500D02*Y203250D01*
X254469Y204750D02*Y202500D01*
Y204750D02*X255219Y205500D01*
X255969D01*
X256719Y204750D01*
Y202500D01*
X253719Y205500D02*X254469Y204750D01*
X258521Y208500D02*X259271Y207750D01*
Y203250D01*
X258521Y202500D02*X259271Y203250D01*
X263772Y205500D02*X266772D01*
X271274Y208500D02*Y202500D01*
Y208500D02*X274274D01*
X271274Y205500D02*X273524D01*
X278325D02*X279075Y204750D01*
X276825Y205500D02*X278325D01*
X276075Y204750D02*X276825Y205500D01*
X276075Y204750D02*Y203250D01*
X276825Y202500D01*
X279075Y205500D02*Y203250D01*
X279825Y202500D01*
X276825D02*X278325D01*
X279075Y203250D01*
X281627Y208500D02*Y202500D01*
Y203250D02*X282377Y202500D01*
X283877D01*
X284627Y203250D01*
Y204750D02*Y203250D01*
X283877Y205500D02*X284627Y204750D01*
X282377Y205500D02*X283877D01*
X281627Y204750D02*X282377Y205500D01*
X287178Y204750D02*Y202500D01*
Y204750D02*X287928Y205500D01*
X289428D01*
X286428D02*X287178Y204750D01*
X291230Y207000D02*Y206250D01*
Y204750D02*Y202500D01*
X293481Y205500D02*X295731D01*
X292731Y204750D02*X293481Y205500D01*
X292731Y204750D02*Y203250D01*
X293481Y202500D01*
X295731D01*
X299783Y205500D02*X300533Y204750D01*
X298283Y205500D02*X299783D01*
X297533Y204750D02*X298283Y205500D01*
X297533Y204750D02*Y203250D01*
X298283Y202500D01*
X300533Y205500D02*Y203250D01*
X301283Y202500D01*
X298283D02*X299783D01*
X300533Y203250D01*
X303834Y208500D02*Y203250D01*
X304584Y202500D01*
X303084Y206250D02*X304584D01*
X306086Y207000D02*Y206250D01*
Y204750D02*Y202500D01*
X307587Y204750D02*Y203250D01*
Y204750D02*X308337Y205500D01*
X309837D01*
X310587Y204750D01*
Y203250D01*
X309837Y202500D02*X310587Y203250D01*
X308337Y202500D02*X309837D01*
X307587Y203250D02*X308337Y202500D01*
X313139Y204750D02*Y202500D01*
Y204750D02*X313889Y205500D01*
X314639D01*
X315389Y204750D01*
Y202500D01*
X312389Y205500D02*X313139Y204750D01*
X320640Y208500D02*Y202500D01*
X322890Y208500D02*X323640Y207750D01*
Y203250D01*
X322890Y202500D02*X323640Y203250D01*
X319890Y202500D02*X322890D01*
X319890Y208500D02*X322890D01*
X326192Y204750D02*Y202500D01*
Y204750D02*X326942Y205500D01*
X328442D01*
X325442D02*X326192Y204750D01*
X332493Y205500D02*X333243Y204750D01*
X330993Y205500D02*X332493D01*
X330243Y204750D02*X330993Y205500D01*
X330243Y204750D02*Y203250D01*
X330993Y202500D01*
X333243Y205500D02*Y203250D01*
X333993Y202500D01*
X330993D02*X332493D01*
X333243Y203250D01*
X335795Y205500D02*Y203250D01*
X336545Y202500D01*
X337295D01*
X338045Y203250D01*
Y205500D02*Y203250D01*
X338795Y202500D01*
X339545D01*
X340295Y203250D01*
Y205500D02*Y203250D01*
X342096Y207000D02*Y206250D01*
Y204750D02*Y202500D01*
X344348Y204750D02*Y202500D01*
Y204750D02*X345098Y205500D01*
X345848D01*
X346598Y204750D01*
Y202500D01*
X343598Y205500D02*X344348Y204750D01*
X350649Y205500D02*X351399Y204750D01*
X349149Y205500D02*X350649D01*
X348399Y204750D02*X349149Y205500D01*
X348399Y204750D02*Y203250D01*
X349149Y202500D01*
X350649D01*
X351399Y203250D01*
X348399Y201000D02*X349149Y200250D01*
X350649D01*
X351399Y201000D01*
Y205500D02*Y201000D01*
M02*
