G04 start of page 7 for group 5 idx 5 *
G04 Title: (unknown), bottom *
G04 Creator: pcb 20140316 *
G04 CreationDate: Mon 21 Apr 2014 02:33:18 PM GMT UTC *
G04 For: vince *
G04 Format: Gerber/RS-274X *
G04 PCB-Dimensions (mil): 2000.00 2000.00 *
G04 PCB-Coordinate-Origin: lower left *
%MOIN*%
%FSLAX25Y25*%
%LNBOTTOM*%
%ADD66C,0.1260*%
%ADD65C,0.0380*%
%ADD64C,0.0350*%
%ADD63C,0.0200*%
%ADD62C,0.0400*%
%ADD61C,0.0500*%
%ADD60C,0.0600*%
%ADD59C,0.0800*%
%ADD58C,0.0001*%
%ADD57C,0.0100*%
G54D57*X152250Y25000D02*X147500Y20250D01*
X155000Y27750D02*X152250Y25000D01*
X155000Y50000D02*Y27750D01*
X153750Y19500D02*X152000Y17750D01*
X163000Y20500D02*X157500Y15000D01*
X167500D03*
D03*
Y20000D02*Y15000D01*
X147500D03*
D03*
X177500Y30000D02*X167500Y20000D01*
X177500Y30000D03*
X187500Y25000D02*X177500Y15000D01*
Y30000D03*
X160500Y26250D02*X153750Y19500D01*
X147500Y20250D02*Y15000D01*
X167500Y80000D02*X163000Y75500D01*
X187500Y80000D02*Y25000D01*
X172750Y95500D02*X160500Y83250D01*
Y26250D01*
X135000Y15000D03*
X137500D02*X135000D01*
X127500D03*
X176500Y99250D02*X172750Y95500D01*
X135000Y75000D02*Y15000D01*
X163000Y75500D02*Y20500D01*
X97500Y15000D03*
D03*
X127500Y30000D02*Y15000D01*
X137500D03*
X135000D01*
X137500D02*X135000D01*
X137500D03*
X127500D03*
X117500D03*
X107500Y30000D02*Y15000D01*
X113000Y24500D03*
X107500Y15000D03*
X113000Y24500D03*
Y11250D01*
X151250Y10500D02*X113750D01*
X152000Y11250D02*X151250Y10500D01*
X152000Y17750D02*Y11250D01*
X113000D02*X113750Y10500D01*
X117500Y80000D02*Y15000D01*
X107500D03*
X117500D03*
X113000Y74250D02*Y24500D01*
X95000Y80000D02*Y15000D01*
D03*
X140000Y80000D02*X135000Y75000D01*
X140000Y80000D03*
D03*
X97500Y15000D02*X95000D01*
X97500D02*X95000D01*
X97500D02*X95000D01*
X112750Y74500D02*X113000Y74250D01*
X107500Y90000D03*
D03*
X100500Y86750D02*X112750Y74500D01*
X62500Y147500D02*Y100250D01*
X57750Y95500D02*X47500Y85250D01*
X42000Y97500D02*Y89500D01*
X51500Y107000D02*X42000Y97500D01*
X51500Y143750D02*Y107000D01*
X62500Y100250D02*X57750Y95500D01*
X40000Y147250D02*Y112500D01*
X30250Y70500D02*X32000Y68750D01*
X27500Y62750D03*
X23000Y58250D01*
X27500Y65000D02*Y62750D01*
X25250Y60500D01*
X30250Y70500D02*X23750D01*
X27500Y128000D02*Y125000D01*
Y40000D03*
X23000Y44500D02*X27500Y40000D01*
X23000Y58250D02*Y44500D01*
X22000Y100000D02*Y75000D01*
X20500D01*
D03*
D03*
X22000D02*Y72250D01*
X20500Y75000D03*
X22000Y72250D02*X23750Y70500D01*
X22000Y120500D02*Y100000D01*
D03*
X17500D01*
X26500Y106300D03*
X17500Y75000D02*X20500D01*
X17500D03*
X20500D01*
X17500D01*
X42000Y89500D02*X27500Y75000D01*
X25250Y60500D02*X13750D01*
X11000Y63250D02*X13750Y60500D01*
X27500Y115000D03*
D03*
X26500D01*
X27500D02*X26500D01*
X27500D02*X26500D01*
X25300D01*
X26500D02*X25300D01*
X22000Y100000D03*
X26500Y115000D02*Y106300D01*
D03*
X40000Y112500D02*X27500Y100000D01*
Y125000D03*
Y128000D01*
Y125000D02*Y128000D01*
Y125000D03*
X17500D03*
X22000Y120500D01*
X17500Y125000D03*
D03*
X27500Y128000D03*
D03*
X26000Y129500D02*X27500Y128000D01*
X22000Y133500D02*X26000Y129500D01*
X85000Y90000D03*
X79500Y84500D01*
X85000Y90000D03*
X120000Y183500D02*Y179750D01*
X110000Y183500D02*Y179750D01*
X78000Y134500D02*X100500Y112000D01*
X72500Y140000D02*X78000Y134500D01*
X100000Y183500D03*
D03*
X110000Y179750D02*X93250Y163000D01*
X120000Y179750D02*X101250Y161000D01*
X120000Y155000D03*
X100500Y112000D02*Y86750D01*
X107500Y138000D02*Y90000D01*
X68750Y161000D02*X51500Y143750D01*
X55750Y163000D02*X40000Y147250D01*
X93250Y191500D02*X100000Y184750D01*
Y185000D01*
Y186500D01*
Y184750D02*Y185000D01*
X93250Y191500D02*X51500D01*
X93250Y163000D02*X55750D01*
X101250Y161000D02*X68750D01*
X27500Y175000D03*
X25750Y165000D02*X22000Y161250D01*
X27500Y175000D03*
X22000Y161250D02*Y133500D01*
Y180500D02*X27500Y175000D01*
X13000Y129500D02*X17500Y125000D01*
X13000Y180500D02*Y129500D01*
X11000Y186750D02*Y63250D01*
X21250Y189500D02*X22000Y188750D01*
X21250Y189500D02*X13750D01*
X22000Y188750D02*Y180500D01*
X47500Y186750D02*X25750Y165000D01*
X47500Y187500D03*
X51500Y191500D02*X47500Y187500D01*
D03*
D03*
Y186750D01*
X13750Y189500D02*X11000Y186750D01*
X17500Y185000D02*X13000Y180500D01*
X17500Y185000D03*
D03*
X100000Y153500D02*Y145500D01*
X121750Y153500D02*X120000D01*
X100000Y145500D02*X107500Y138000D01*
X117500Y140000D02*X123000Y134500D01*
X121750Y153500D02*X120000Y155000D01*
X121750Y156500D01*
X120000D01*
X164500Y191000D02*X160000Y186500D01*
X158250Y193000D02*X155500Y190250D01*
X160000Y186500D03*
D03*
X170000Y183500D03*
X164500Y178000D01*
X170000Y183500D03*
Y185000D01*
Y186500D01*
D03*
X160000D02*Y185000D01*
X181750Y193000D02*X187500Y187250D01*
X100000Y183500D02*Y184750D01*
Y183500D03*
Y184750D02*Y183500D01*
X181750Y193000D02*X158250D01*
X173750Y191000D02*X164500D01*
X173750D02*X174500Y190250D01*
Y144000D01*
X187500Y187250D02*Y140000D01*
X155500Y190250D02*Y150750D01*
X164500Y149750D02*X160250Y145500D01*
X164500Y178000D02*Y149750D01*
X171500Y141000D02*Y140000D01*
X157500Y145500D02*X146500Y134500D01*
X160250Y145500D02*X157500D01*
X140000Y144000D03*
D03*
Y140000D01*
D03*
Y144000D01*
Y140000D02*Y144000D01*
Y140000D03*
Y144000D02*X131250D01*
X146500Y134500D02*X123000D01*
X130000Y153500D02*Y149750D01*
X155500Y150750D02*X153750Y149000D01*
X121750Y153500D02*X125500Y149750D01*
X131250Y144000D01*
X153750Y149000D02*X130750D01*
X130000Y149750D02*X130750Y149000D01*
X187500Y140000D03*
D03*
X167500D02*X171500D01*
X167500D03*
X171500D01*
X167500D01*
X174500Y144000D02*X171500Y141000D01*
Y140000D03*
X181000Y147000D03*
X176500Y142500D01*
X181000Y147000D03*
X171500Y140000D03*
X176500Y142500D02*Y99250D01*
X77500Y15000D03*
X81250Y19500D02*X82000Y18750D01*
X77500Y15000D03*
X72500Y80000D02*Y20000D01*
X87500Y15000D03*
X85000D01*
X87500D02*X85000D01*
X87500D03*
X85000D03*
X87500D02*X85000D01*
Y30000D02*Y15000D01*
X79500Y21250D02*X81250Y19500D01*
X72500Y20000D02*X77500Y15000D01*
X47500D03*
D03*
X32000Y22250D02*X43750Y10500D01*
X27500Y65000D02*Y62750D01*
D03*
Y40000D03*
X32000Y68750D02*Y22250D01*
X81250Y10500D02*X43750D01*
X82000Y11250D02*X81250Y10500D01*
X82000Y18750D02*Y11250D01*
X79500Y84500D02*Y21250D01*
X67500Y15000D03*
X62500Y30000D02*Y20000D01*
X67500Y15000D03*
X62500Y20000D02*X67500Y15000D01*
X47500Y85250D02*Y15000D01*
G54D58*G36*
X151000Y114000D02*Y106000D01*
X159000D01*
Y114000D01*
X151000D01*
G37*
G36*
X163500Y144000D02*Y136000D01*
X171500D01*
Y144000D01*
X163500D01*
G37*
G36*
X136000D02*Y136000D01*
X144000D01*
Y144000D01*
X136000D01*
G37*
G36*
X183500D02*Y136000D01*
X191500D01*
Y144000D01*
X183500D01*
G37*
G54D59*X72500Y80000D03*
G54D58*G36*
X173500Y94000D02*Y86000D01*
X181500D01*
Y94000D01*
X173500D01*
G37*
G54D59*X187500Y80000D03*
G54D58*G36*
X81000Y94000D02*Y86000D01*
X89000D01*
Y94000D01*
X81000D01*
G37*
G54D59*X167500Y80000D03*
X117500D03*
G54D58*G36*
X123500Y94000D02*Y86000D01*
X131500D01*
Y94000D01*
X123500D01*
G37*
G54D59*X140000Y80000D03*
X95000D03*
G54D58*G36*
X103500Y94000D02*Y86000D01*
X111500D01*
Y94000D01*
X103500D01*
G37*
G36*
X60000Y150000D02*Y145000D01*
X65000D01*
Y150000D01*
X60000D01*
G37*
G36*
X113500Y144000D02*Y136000D01*
X121500D01*
Y144000D01*
X113500D01*
G37*
G36*
X68500D02*Y136000D01*
X76500D01*
Y144000D01*
X68500D01*
G37*
G36*
X91000D02*Y136000D01*
X99000D01*
Y144000D01*
X91000D01*
G37*
G54D60*X90000Y155000D03*
X100000D03*
X110000D03*
X120000D03*
X130000D03*
X140000D03*
X150000D03*
X160000D03*
X170000D03*
X180000D03*
Y185000D03*
X170000D03*
X160000D03*
X150000D03*
X140000D03*
X130000D03*
X120000D03*
X110000D03*
X100000D03*
X90000D03*
G54D58*G36*
X14500Y78000D02*Y72000D01*
X20500D01*
Y78000D01*
X14500D01*
G37*
G54D60*X27500Y75000D03*
X17500Y65000D03*
X27500D03*
G54D58*G36*
X14500Y53000D02*Y47000D01*
X20500D01*
Y53000D01*
X14500D01*
G37*
G54D60*X27500Y50000D03*
X17500Y40000D03*
X27500D03*
X17500Y90000D03*
X27500D03*
G54D58*G36*
X14500Y103000D02*Y97000D01*
X20500D01*
Y103000D01*
X14500D01*
G37*
G36*
Y128000D02*Y122000D01*
X20500D01*
Y128000D01*
X14500D01*
G37*
G54D60*X17500Y115000D03*
G54D58*G36*
X14500Y188000D02*Y182000D01*
X20500D01*
Y188000D01*
X14500D01*
G37*
G54D60*X17500Y175000D03*
X27500Y100000D03*
Y125000D03*
Y115000D03*
Y185000D03*
Y175000D03*
G54D58*G36*
X45000Y150000D02*Y145000D01*
X50000D01*
Y150000D01*
X45000D01*
G37*
G54D61*X47500Y187500D03*
X62500D03*
G54D58*G36*
X58500Y94000D02*Y86000D01*
X66500D01*
Y94000D01*
X58500D01*
G37*
G36*
X44500Y18000D02*Y12000D01*
X50500D01*
Y18000D01*
X44500D01*
G37*
G54D60*X57500Y15000D03*
X67500D03*
G54D59*X62500Y30000D03*
X85000D03*
G54D60*X77500Y15000D03*
X87500D03*
X97500D03*
X107500D03*
X117500D03*
X127500D03*
X137500D03*
G54D59*X127500Y30000D03*
X107500D03*
G54D60*X147500Y15000D03*
X157500D03*
G54D59*X155000Y50000D03*
G54D60*X167500Y15000D03*
X177500D03*
G54D59*Y30000D03*
G54D60*X140000Y156500D02*Y153500D01*
X150000Y156500D02*Y153500D01*
X160000Y156500D02*Y153500D01*
X170000Y156500D02*Y153500D01*
X110000Y156500D02*Y153500D01*
X120000Y156500D02*Y153500D01*
X90000Y156500D02*Y153500D01*
X100000Y156500D02*Y153500D01*
X130000Y156500D02*Y153500D01*
X180000Y156500D02*Y153500D01*
Y186500D02*Y183500D01*
X170000Y186500D02*Y183500D01*
X160000Y186500D02*Y183500D01*
X150000Y186500D02*Y183500D01*
X140000Y186500D02*Y183500D01*
X130000Y186500D02*Y183500D01*
X120000Y186500D02*Y183500D01*
X110000Y186500D02*Y183500D01*
X100000Y186500D02*Y183500D01*
X90000Y186500D02*Y183500D01*
G54D62*X181000Y147000D03*
X26500Y106300D03*
G54D63*G54D61*G54D63*G54D61*G54D64*G54D65*G54D63*G54D61*G54D66*G54D65*G54D61*G54D65*G54D61*G54D65*G54D66*G54D65*G54D61*G54D65*G54D61*M02*
