G04 start of page 3 for group 1 idx 1 *
G04 Title: (unknown), ground *
G04 Creator: pcb 20140316 *
G04 CreationDate: Mon 21 Apr 2014 02:33:18 PM GMT UTC *
G04 For: vince *
G04 Format: Gerber/RS-274X *
G04 PCB-Dimensions (mil): 2000.00 2000.00 *
G04 PCB-Coordinate-Origin: lower left *
%MOIN*%
%FSLAX25Y25*%
%LNGROUP1*%
%ADD29C,0.1260*%
%ADD28C,0.0380*%
%ADD27C,0.0350*%
%ADD26C,0.0200*%
%ADD25C,0.0400*%
%ADD24C,0.0500*%
%ADD23C,0.0600*%
%ADD22C,0.0800*%
%ADD21C,0.0001*%
G54D21*G36*
X151000Y114000D02*Y106000D01*
X159000D01*
Y114000D01*
X151000D01*
G37*
G36*
X163500Y144000D02*Y136000D01*
X171500D01*
Y144000D01*
X163500D01*
G37*
G36*
X136000D02*Y136000D01*
X144000D01*
Y144000D01*
X136000D01*
G37*
G36*
X183500D02*Y136000D01*
X191500D01*
Y144000D01*
X183500D01*
G37*
G54D22*X72500Y80000D03*
G54D21*G36*
X173500Y94000D02*Y86000D01*
X181500D01*
Y94000D01*
X173500D01*
G37*
G54D22*X187500Y80000D03*
G54D21*G36*
X81000Y94000D02*Y86000D01*
X89000D01*
Y94000D01*
X81000D01*
G37*
G54D22*X167500Y80000D03*
X117500D03*
G54D21*G36*
X123500Y94000D02*Y86000D01*
X131500D01*
Y94000D01*
X123500D01*
G37*
G54D22*X140000Y80000D03*
X95000D03*
G54D21*G36*
X103500Y94000D02*Y86000D01*
X111500D01*
Y94000D01*
X103500D01*
G37*
G36*
X60000Y150000D02*Y145000D01*
X65000D01*
Y150000D01*
X60000D01*
G37*
G36*
X113500Y144000D02*Y136000D01*
X121500D01*
Y144000D01*
X113500D01*
G37*
G36*
X68500D02*Y136000D01*
X76500D01*
Y144000D01*
X68500D01*
G37*
G36*
X91000D02*Y136000D01*
X99000D01*
Y144000D01*
X91000D01*
G37*
G54D23*X90000Y155000D03*
X100000D03*
X110000D03*
X120000D03*
X130000D03*
X140000D03*
X150000D03*
X160000D03*
X170000D03*
X180000D03*
Y185000D03*
X170000D03*
X160000D03*
X150000D03*
X140000D03*
X130000D03*
X120000D03*
X110000D03*
X100000D03*
X90000D03*
G54D21*G36*
X14500Y78000D02*Y72000D01*
X20500D01*
Y78000D01*
X14500D01*
G37*
G54D23*X27500Y75000D03*
X17500Y65000D03*
X27500D03*
G54D21*G36*
X14500Y53000D02*Y47000D01*
X20500D01*
Y53000D01*
X14500D01*
G37*
G54D23*X27500Y50000D03*
X17500Y40000D03*
X27500D03*
X17500Y90000D03*
X27500D03*
G54D21*G36*
X14500Y103000D02*Y97000D01*
X20500D01*
Y103000D01*
X14500D01*
G37*
G36*
Y128000D02*Y122000D01*
X20500D01*
Y128000D01*
X14500D01*
G37*
G54D23*X17500Y115000D03*
G54D21*G36*
X14500Y188000D02*Y182000D01*
X20500D01*
Y188000D01*
X14500D01*
G37*
G54D23*X17500Y175000D03*
X27500Y100000D03*
Y125000D03*
Y115000D03*
Y185000D03*
Y175000D03*
G54D21*G36*
X45000Y150000D02*Y145000D01*
X50000D01*
Y150000D01*
X45000D01*
G37*
G54D24*X47500Y187500D03*
X62500D03*
G54D21*G36*
X58500Y94000D02*Y86000D01*
X66500D01*
Y94000D01*
X58500D01*
G37*
G36*
X44500Y18000D02*Y12000D01*
X50500D01*
Y18000D01*
X44500D01*
G37*
G54D23*X57500Y15000D03*
X67500D03*
G54D22*X62500Y30000D03*
X85000D03*
G54D23*X77500Y15000D03*
X87500D03*
X97500D03*
X107500D03*
X117500D03*
X127500D03*
X137500D03*
G54D22*X127500Y30000D03*
X107500D03*
G54D23*X147500Y15000D03*
X157500D03*
G54D22*X155000Y50000D03*
G54D23*X167500Y15000D03*
X177500D03*
G54D22*Y30000D03*
G54D25*X181000Y147000D03*
X26500Y106300D03*
G54D26*G54D24*G54D26*G54D24*G54D27*G54D28*G54D26*G54D24*G54D29*G54D28*G54D24*G54D28*G54D24*G54D28*G54D29*G54D28*G54D24*G54D28*G54D24*M02*
