G04 start of page 2 for group 0 idx 0 *
G04 Title: (unknown), top *
G04 Creator: pcb 20140316 *
G04 CreationDate: Mon 21 Apr 2014 02:33:18 PM GMT UTC *
G04 For: vince *
G04 Format: Gerber/RS-274X *
G04 PCB-Dimensions (mil): 2000.00 2000.00 *
G04 PCB-Coordinate-Origin: lower left *
%MOIN*%
%FSLAX25Y25*%
%LNTOP*%
%ADD20C,0.1260*%
%ADD19C,0.0380*%
%ADD18C,0.0350*%
%ADD17C,0.0200*%
%ADD16C,0.0400*%
%ADD15C,0.0500*%
%ADD14C,0.0600*%
%ADD13C,0.0800*%
%ADD12C,0.0001*%
%ADD11C,0.0100*%
G54D11*X79500Y35500D02*X85000Y30000D01*
D03*
D03*
X79000Y58500D02*X107500Y30000D01*
D03*
D03*
X79000Y58500D02*X15750D01*
X168000Y60500D02*X22000D01*
X32000Y35500D02*X22000D01*
X79500D02*X32000D01*
X127500Y90000D03*
D03*
X95000Y80000D02*X89500Y74500D01*
X67750D01*
X130500Y70500D02*X23750D01*
X22000Y72250D02*X23750Y70500D01*
X22000Y85500D02*Y72250D01*
X66500Y90000D03*
X62500D02*X66500D01*
X62500D03*
X66500D01*
D03*
X62500D01*
X27500D03*
Y92000D02*X27250D01*
X23000Y96250D01*
Y98900D02*Y96250D01*
Y104500D03*
Y98900D01*
X32000Y110250D02*X67750Y74500D01*
X100500Y105500D02*X85000Y90000D01*
X145500Y108000D02*X127500Y90000D01*
X140750Y191000D02*X140000Y190250D01*
X153750Y191000D02*X155000Y189750D01*
X150000Y183500D02*Y179750D01*
X140000Y190250D02*Y186500D01*
X160000Y153500D02*Y149750D01*
X150000Y153500D03*
X140000D02*Y149750D01*
X150000Y153500D03*
Y155000D01*
Y156500D01*
D03*
Y179750D02*X131250Y161000D01*
X155000Y189750D02*Y110000D01*
X160000Y150000D02*Y135000D01*
X150000Y153500D02*X145500Y149000D01*
X140000Y80000D02*X130500Y70500D01*
X145500Y149000D02*Y108000D01*
X187500Y80000D02*X168000Y60500D01*
X177500Y90000D03*
Y130000D01*
X155000Y110000D03*
X181000Y147500D02*X172250D01*
X170000Y149750D02*X172250Y147500D01*
X160000Y135000D02*X165000Y130000D01*
X177500D01*
X170000Y153500D02*Y149750D01*
X180000Y183500D02*Y156500D01*
X181000Y147500D03*
D03*
Y147000D01*
D03*
Y147500D01*
Y147000D02*Y147500D01*
Y147000D03*
X32000Y35500D03*
D03*
X17500Y40000D02*X22000Y35500D01*
X17500Y50000D03*
X27500D02*X23000Y45500D01*
X17500Y50000D03*
Y65000D02*X22000Y60500D01*
X17500Y50000D02*X14500D01*
X17500D02*X14500D01*
X17500D02*X14500D01*
D03*
X23000Y45500D02*X13750D01*
X17500Y175000D02*X13000Y170500D01*
X17500Y175000D03*
X13750Y179500D02*X11000Y176750D01*
X17500Y175000D03*
X15750Y191500D02*X9000Y184750D01*
X27500Y185000D02*Y183500D01*
Y185000D02*Y183500D01*
Y185000D02*Y183500D01*
D03*
D03*
X9000Y184750D02*Y50250D01*
X11000Y53500D02*X14500Y50000D01*
X13000Y61250D02*X15750Y58500D01*
X9000Y50250D02*X13750Y45500D01*
X11000Y176750D02*Y53500D01*
X13000Y170500D02*Y61250D01*
X17500Y115000D02*X22000Y110500D01*
X31750D02*X32000Y110250D01*
X23000Y105800D02*Y104500D01*
X23500Y106300D02*X23000Y104500D01*
X23500D02*X23000D01*
D03*
Y98900D01*
X26500Y106300D03*
D03*
X23500D01*
X66500Y144250D02*Y90000D01*
X17500D02*X22000Y85500D01*
X27500Y92000D03*
Y90000D01*
D03*
Y92000D01*
Y90000D02*Y92000D01*
D03*
X47500Y147500D03*
D03*
X27500Y172000D02*X47500Y152000D01*
X49500Y179500D02*X50000Y179000D01*
X27500Y172000D03*
Y175000D02*Y172000D01*
Y175000D02*Y172000D01*
Y175000D02*Y172000D01*
X58500Y183500D02*X27500D01*
X49500Y179500D02*X13750D01*
X67750Y145500D02*X66500Y144250D01*
X90250Y145500D02*X67750D01*
X47500Y147500D03*
Y135000D02*X27500Y115000D01*
X47500Y147500D02*Y135000D01*
X31750Y110500D02*X22000D01*
X47500Y152000D02*Y147500D01*
X130000Y183500D02*Y179750D01*
X118750Y191500D02*X120000Y190250D01*
Y186500D01*
X130000Y179750D02*X129250Y179000D01*
X62500Y187500D02*X58500Y183500D01*
X90000Y187500D03*
D03*
Y185000D02*Y183500D01*
D03*
Y187500D02*X62500D01*
X118750Y191500D02*X15750D01*
X129250Y179000D02*X50000D01*
X27500Y172000D03*
X153750Y191000D02*X140750D01*
X96250Y161000D02*X94500Y159250D01*
X131250Y161000D02*X96250D01*
X100500Y133250D02*Y105500D01*
X135750Y145500D02*X112750D01*
X155000Y110000D03*
X140000Y149750D02*X135750Y145500D01*
X112750D02*X100500Y133250D01*
X95000Y144000D02*X96500D01*
X95000D02*X96500D01*
X95000D01*
Y140000D03*
Y144000D03*
Y140000D03*
Y144000D01*
Y140000D02*Y144000D01*
D03*
Y140000D01*
X110000Y153500D02*Y149750D01*
X100000Y147500D02*X96500Y144000D01*
D03*
D03*
X107750Y147500D02*X100000D01*
X110000Y149750D02*X107750Y147500D01*
X94500Y149750D02*X90250Y145500D01*
X94500Y159250D02*Y149750D01*
G54D12*G36*
X151000Y114000D02*Y106000D01*
X159000D01*
Y114000D01*
X151000D01*
G37*
G36*
X163500Y144000D02*Y136000D01*
X171500D01*
Y144000D01*
X163500D01*
G37*
G36*
X136000D02*Y136000D01*
X144000D01*
Y144000D01*
X136000D01*
G37*
G36*
X183500D02*Y136000D01*
X191500D01*
Y144000D01*
X183500D01*
G37*
G54D13*X72500Y80000D03*
G54D12*G36*
X173500Y94000D02*Y86000D01*
X181500D01*
Y94000D01*
X173500D01*
G37*
G54D13*X187500Y80000D03*
G54D12*G36*
X81000Y94000D02*Y86000D01*
X89000D01*
Y94000D01*
X81000D01*
G37*
G54D13*X167500Y80000D03*
X117500D03*
G54D12*G36*
X123500Y94000D02*Y86000D01*
X131500D01*
Y94000D01*
X123500D01*
G37*
G54D13*X140000Y80000D03*
X95000D03*
G54D12*G36*
X103500Y94000D02*Y86000D01*
X111500D01*
Y94000D01*
X103500D01*
G37*
G36*
X60000Y150000D02*Y145000D01*
X65000D01*
Y150000D01*
X60000D01*
G37*
G36*
X113500Y144000D02*Y136000D01*
X121500D01*
Y144000D01*
X113500D01*
G37*
G36*
X68500D02*Y136000D01*
X76500D01*
Y144000D01*
X68500D01*
G37*
G36*
X91000D02*Y136000D01*
X99000D01*
Y144000D01*
X91000D01*
G37*
G54D14*X90000Y155000D03*
X100000D03*
X110000D03*
X120000D03*
X130000D03*
X140000D03*
X150000D03*
X160000D03*
X170000D03*
X180000D03*
Y185000D03*
X170000D03*
X160000D03*
X150000D03*
X140000D03*
X130000D03*
X120000D03*
X110000D03*
X100000D03*
X90000D03*
G54D12*G36*
X14500Y78000D02*Y72000D01*
X20500D01*
Y78000D01*
X14500D01*
G37*
G54D14*X27500Y75000D03*
X17500Y65000D03*
X27500D03*
G54D12*G36*
X14500Y53000D02*Y47000D01*
X20500D01*
Y53000D01*
X14500D01*
G37*
G54D14*X27500Y50000D03*
X17500Y40000D03*
X27500D03*
X17500Y90000D03*
X27500D03*
G54D12*G36*
X14500Y103000D02*Y97000D01*
X20500D01*
Y103000D01*
X14500D01*
G37*
G36*
Y128000D02*Y122000D01*
X20500D01*
Y128000D01*
X14500D01*
G37*
G54D14*X17500Y115000D03*
G54D12*G36*
X14500Y188000D02*Y182000D01*
X20500D01*
Y188000D01*
X14500D01*
G37*
G54D14*X17500Y175000D03*
X27500Y100000D03*
Y125000D03*
Y115000D03*
Y185000D03*
Y175000D03*
G54D12*G36*
X45000Y150000D02*Y145000D01*
X50000D01*
Y150000D01*
X45000D01*
G37*
G54D15*X47500Y187500D03*
X62500D03*
G54D12*G36*
X58500Y94000D02*Y86000D01*
X66500D01*
Y94000D01*
X58500D01*
G37*
G36*
X44500Y18000D02*Y12000D01*
X50500D01*
Y18000D01*
X44500D01*
G37*
G54D14*X57500Y15000D03*
X67500D03*
G54D13*X62500Y30000D03*
X85000D03*
G54D14*X77500Y15000D03*
X87500D03*
X97500D03*
X107500D03*
X117500D03*
X127500D03*
X137500D03*
G54D13*X127500Y30000D03*
X107500D03*
G54D14*X147500Y15000D03*
X157500D03*
G54D13*X155000Y50000D03*
G54D14*X167500Y15000D03*
X177500D03*
G54D13*Y30000D03*
G54D14*X140000Y156500D02*Y153500D01*
X150000Y156500D02*Y153500D01*
X160000Y156500D02*Y153500D01*
X170000Y156500D02*Y153500D01*
X110000Y156500D02*Y153500D01*
X120000Y156500D02*Y153500D01*
X90000Y156500D02*Y153500D01*
X100000Y156500D02*Y153500D01*
X130000Y156500D02*Y153500D01*
X180000Y156500D02*Y153500D01*
Y186500D02*Y183500D01*
X170000Y186500D02*Y183500D01*
X160000Y186500D02*Y183500D01*
X150000Y186500D02*Y183500D01*
X140000Y186500D02*Y183500D01*
X130000Y186500D02*Y183500D01*
X120000Y186500D02*Y183500D01*
X110000Y186500D02*Y183500D01*
X100000Y186500D02*Y183500D01*
X90000Y186500D02*Y183500D01*
G54D16*X181000Y147000D03*
X26500Y106300D03*
G54D17*G54D15*G54D17*G54D15*G54D18*G54D19*G54D17*G54D15*G54D20*G54D19*G54D15*G54D19*G54D15*G54D19*G54D20*G54D19*G54D15*G54D19*G54D15*M02*
