M48
INCH
T80C0.038
T79C0.035
T78C0.020
T77C0.050
T81C0.126
%
T78
X002650Y010630
X004750Y018750
X004750Y014750
X006250Y018750
X006250Y014750
X018100Y014700
T79
X009000Y018500
X009000Y015500
X010000Y018500
X010000Y015500
X011000Y018500
X011000Y015500
X012000Y018500
X012000Y015500
X013000Y018500
X013000Y015500
X014000Y018500
X014000Y015500
X015000Y018500
X015000Y015500
X016000Y018500
X016000Y015500
X017000Y018500
X017000Y015500
X018000Y018500
X018000Y015500
T80
X001750Y018500
X001750Y017500
X001750Y012500
X001750Y011500
X001750Y010000
X001750Y009000
X001750Y007500
X001750Y006500
X001750Y005000
X001750Y004000
X002750Y018500
X002750Y017500
X002750Y012500
X002750Y011500
X002750Y010000
X002750Y009000
X002750Y007500
X002750Y006500
X002750Y005000
X002750Y004000
X004750Y001500
X005750Y001500
X006750Y001500
X007750Y001500
X008750Y001500
X009750Y001500
X010750Y001500
X011750Y001500
X012750Y001500
X013750Y001500
X014750Y001500
X015750Y001500
X016750Y001500
X017750Y001500
T77
X006250Y009000
X006250Y003000
X007250Y014000
X007250Y008000
X008500Y009000
X008500Y003000
X009500Y014000
X009500Y008000
X010750Y009000
X010750Y003000
X011750Y014000
X011750Y008000
X012750Y009000
X012750Y003000
X014000Y014000
X014000Y008000
X015500Y011000
X015500Y005000
X016750Y014000
X016750Y008000
X017750Y009000
X017750Y003000
X018750Y014000
X018750Y008000
T81
X003100Y014400
X014400Y003400
M30
