G04 start of page 6 for group 4 idx 4 *
G04 Title: (unknown), power *
G04 Creator: pcb 20140316 *
G04 CreationDate: Tue 22 Dec 2015 07:16:43 PM GMT UTC *
G04 For: vince *
G04 Format: Gerber/RS-274X *
G04 PCB-Dimensions (mil): 1950.00 850.00 *
G04 PCB-Coordinate-Origin: lower left *
%MOIN*%
%FSLAX25Y25*%
%LNGROUP4*%
%ADD71C,0.0900*%
%ADD70C,0.0910*%
%ADD69C,0.0280*%
%ADD68C,0.0360*%
%ADD67C,0.0380*%
%ADD66C,0.0350*%
%ADD65C,0.0550*%
%ADD64C,0.1100*%
%ADD63C,0.1110*%
%ADD62C,0.0560*%
%ADD61C,0.0600*%
%ADD60C,0.0001*%
G54D60*G36*
X64200Y9400D02*Y3400D01*
X70200D01*
Y9400D01*
X64200D01*
G37*
G54D61*X67200Y16400D03*
X77200Y6400D03*
Y16400D03*
X87200Y6400D03*
Y16400D03*
X97200Y6400D03*
Y16400D03*
G54D62*X98150Y33300D03*
X90250D03*
X80450D03*
G54D61*X49200Y11200D03*
G54D63*X68350Y44000D03*
G54D61*X50000Y20000D03*
Y30000D03*
Y40000D03*
Y50000D03*
Y60000D03*
Y70000D03*
G54D64*X183500Y62800D03*
G54D65*X162000Y51000D03*
X170100D03*
G54D64*X156900Y66000D03*
X130300Y62800D03*
G54D65*X151800Y51000D03*
X143700D03*
Y41200D03*
X170100D03*
G54D60*G36*
X153000Y30700D02*Y24700D01*
X159000D01*
Y30700D01*
X153000D01*
G37*
G54D61*X166000Y27700D03*
G54D63*X120050Y44000D03*
G54D60*G36*
X131400Y30600D02*Y24600D01*
X137400D01*
Y30600D01*
X131400D01*
G37*
G54D61*X144400Y27600D03*
G54D62*X107950Y33300D03*
G54D61*X107200Y6400D03*
X117200D03*
X127200D03*
X107200Y16400D03*
X117200D03*
X127200D03*
X137200D03*
X147200D03*
X157200D03*
X137200Y6400D03*
X147200D03*
X157200D03*
X167200D03*
Y16400D03*
X177200D03*
X187200D03*
X177200Y6400D03*
X187200D03*
X19200Y11200D03*
X35900Y78600D03*
X5900D03*
X10000Y70000D03*
Y60000D03*
Y50000D03*
Y40000D03*
Y30000D03*
Y20000D03*
X30400Y30300D03*
G54D66*G54D67*G54D68*G54D69*G54D70*G54D66*G54D71*G54D66*G54D71*G54D66*G54D67*G54D70*G54D67*G54D68*G54D67*G54D69*G54D66*M02*
