M48
INCH
T103C0.090
T102C0.035
T101C0.091
T100C0.028
T99C0.036
T98C0.038
%
T100
X000590Y007860
X001920Y001120
X003590Y007860
X004920Y001120
T102
X001000Y007000
X001000Y006000
X001000Y005000
X001000Y004000
X001000Y003000
X001000Y002000
X003040Y003030
X005000Y007000
X005000Y006000
X005000Y005000
X005000Y004000
X005000Y003000
X005000Y002000
X014370Y005100
X014370Y004120
X015180Y005100
X016200Y005100
X017010Y005100
X017010Y004120
T99
X008045Y003330
X009025Y003330
X009815Y003330
X010795Y003330
T98
X006720Y001640
X006720Y000640
X007720Y001640
X007720Y000640
X008720Y001640
X008720Y000640
X009720Y001640
X009720Y000640
X010720Y001640
X010720Y000640
X011720Y001640
X011720Y000640
X012720Y001640
X012720Y000640
X013440Y002760
X013720Y001640
X013720Y000640
X014440Y002760
X014720Y001640
X014720Y000640
X015600Y002770
X015720Y001640
X015720Y000640
X016600Y002770
X016720Y001640
X016720Y000640
X017720Y001640
X017720Y000640
X018720Y001640
X018720Y000640
T103
X013030Y006280
X015690Y006600
X018350Y006280
T101
X006835Y004400
X012005Y004400
M30
