G04 start of page 7 for group 5 idx 5 *
G04 Title: (unknown), bottom *
G04 Creator: pcb 20140316 *
G04 CreationDate: Tue 22 Dec 2015 07:16:43 PM GMT UTC *
G04 For: vince *
G04 Format: Gerber/RS-274X *
G04 PCB-Dimensions (mil): 1950.00 850.00 *
G04 PCB-Coordinate-Origin: lower left *
%MOIN*%
%FSLAX25Y25*%
%LNBOTTOM*%
%ADD84C,0.0900*%
%ADD83C,0.0910*%
%ADD82C,0.0280*%
%ADD81C,0.0360*%
%ADD80C,0.0380*%
%ADD79C,0.0350*%
%ADD78C,0.0550*%
%ADD77C,0.1100*%
%ADD76C,0.1110*%
%ADD75C,0.0560*%
%ADD74C,0.0600*%
%ADD73C,0.0001*%
%ADD72C,0.0250*%
G54D72*X61950Y14575D02*X53125Y5750D01*
X63775Y22350D02*X61950Y20525D01*
X56750Y15875D02*X52075Y11200D01*
X61950Y20525D02*Y14575D01*
X63813Y22387D02*X63887D01*
X67100Y25600D01*
X52075Y11200D02*X49200D01*
X53125Y5750D02*X45275D01*
X40950Y10075D02*X45275Y5750D01*
X40950Y29125D02*Y10075D01*
X39900Y78600D02*X48500Y70000D01*
X16750Y75600D02*X32350Y60000D01*
X48500D02*X32350D01*
X39900Y78600D02*X35900D01*
X20075Y50000D02*X40950Y29125D01*
X10000Y30000D02*X30100D01*
X30400Y30300D01*
X20075Y50000D02*X11500D01*
Y20000D02*X10000D01*
X5900Y78600D02*Y75600D01*
Y78600D02*Y75600D01*
Y78600D02*Y75600D01*
X16750D02*X5900D01*
X51500Y70000D02*X56750Y64750D01*
Y15875D01*
X48500Y70000D02*X50000D01*
X48500Y60000D02*X50000D01*
X51500Y20000D02*X50000D01*
X67100Y25600D02*X132400D01*
X134400Y27600D01*
X90100Y53200D02*X141500D01*
X143700Y51000D01*
X170100D02*Y67600D01*
X159200Y78500D01*
X58300D01*
X49800Y70000D01*
X90250Y34375D02*Y33300D01*
X80450D02*Y43550D01*
X90100Y53200D01*
X90250Y33700D02*Y37750D01*
X94700Y42200D01*
X90250Y33300D02*Y34375D01*
X94700Y42200D02*X108200D01*
X117100Y33300D01*
X125800D01*
X134500Y42000D01*
X142900D01*
X143700Y41200D01*
G54D73*G36*
X64200Y9400D02*Y3400D01*
X70200D01*
Y9400D01*
X64200D01*
G37*
G54D74*X67200Y16400D03*
X77200Y6400D03*
Y16400D03*
X87200Y6400D03*
Y16400D03*
X97200Y6400D03*
Y16400D03*
G54D75*X98150Y33300D03*
X90250D03*
X80450D03*
G54D74*X49200Y11200D03*
G54D76*X68350Y44000D03*
G54D74*X50000Y20000D03*
Y30000D03*
Y40000D03*
Y50000D03*
Y60000D03*
Y70000D03*
G54D77*X183500Y62800D03*
G54D78*X162000Y51000D03*
X170100D03*
G54D77*X156900Y66000D03*
X130300Y62800D03*
G54D78*X151800Y51000D03*
X143700D03*
Y41200D03*
X170100D03*
G54D73*G36*
X153000Y30700D02*Y24700D01*
X159000D01*
Y30700D01*
X153000D01*
G37*
G54D74*X166000Y27700D03*
G54D76*X120050Y44000D03*
G54D73*G36*
X131400Y30600D02*Y24600D01*
X137400D01*
Y30600D01*
X131400D01*
G37*
G54D74*X144400Y27600D03*
G54D75*X107950Y33300D03*
G54D74*X107200Y6400D03*
X117200D03*
X127200D03*
X107200Y16400D03*
X117200D03*
X127200D03*
X137200D03*
X147200D03*
X157200D03*
X137200Y6400D03*
X147200D03*
X157200D03*
X167200D03*
Y16400D03*
X177200D03*
X187200D03*
X177200Y6400D03*
X187200D03*
X19200Y11200D03*
X35900Y78600D03*
X5900D03*
X10000Y70000D03*
Y60000D03*
Y50000D03*
Y40000D03*
Y30000D03*
Y20000D03*
X48500D02*X51500D01*
X48500Y30000D02*X51500D01*
X48500Y40000D02*X51500D01*
X48500Y50000D02*X51500D01*
X48500Y60000D02*X51500D01*
X48500Y70000D02*X51500D01*
X8500Y50000D02*X11500D01*
X8500Y40000D02*X11500D01*
X8500Y70000D02*X11500D01*
X8500Y60000D02*X11500D01*
X8500Y30000D02*X11500D01*
X8500Y20000D02*X11500D01*
X30400Y30300D03*
G54D79*G54D80*G54D81*G54D82*G54D83*G54D79*G54D84*G54D79*G54D84*G54D79*G54D80*G54D83*G54D80*G54D81*G54D80*G54D82*G54D79*M02*
