G04 start of page 11 for group -4063 idx -4063 *
G04 Title: (unknown), componentmask *
G04 Creator: pcb 20140316 *
G04 CreationDate: Tue 22 Dec 2015 07:16:43 PM GMT UTC *
G04 For: vince *
G04 Format: Gerber/RS-274X *
G04 PCB-Dimensions (mil): 1950.00 850.00 *
G04 PCB-Coordinate-Origin: lower left *
%MOIN*%
%FSLAX25Y25*%
%LNTOPMASK*%
%ADD111C,0.0550*%
%ADD110C,0.1100*%
%ADD109C,0.0800*%
%ADD108C,0.1110*%
%ADD107C,0.0600*%
%ADD106C,0.0560*%
%ADD105C,0.0660*%
%ADD104C,0.0001*%
G54D104*G36*
X63900Y9700D02*Y3100D01*
X70500D01*
Y9700D01*
X63900D01*
G37*
G54D105*X67200Y16400D03*
X77200Y6400D03*
Y16400D03*
X87200Y6400D03*
Y16400D03*
X97200Y6400D03*
Y16400D03*
G54D106*X98150Y33300D03*
X90250D03*
X80450D03*
G54D107*X49200Y11200D03*
G54D108*X68350Y44000D03*
G54D109*X50000Y20000D03*
Y30000D03*
Y40000D03*
Y50000D03*
Y60000D03*
Y70000D03*
G54D110*X183500Y62800D03*
G54D111*X162000Y51000D03*
X170100D03*
G54D110*X156900Y66000D03*
X130300Y62800D03*
G54D111*X151800Y51000D03*
X143700D03*
Y41200D03*
X170100D03*
G54D104*G36*
X152700Y31000D02*Y24400D01*
X159300D01*
Y31000D01*
X152700D01*
G37*
G54D105*X166000Y27700D03*
G54D108*X120050Y44000D03*
G54D104*G36*
X131100Y30900D02*Y24300D01*
X137700D01*
Y30900D01*
X131100D01*
G37*
G54D105*X144400Y27600D03*
G54D106*X107950Y33300D03*
G54D105*X107200Y6400D03*
X117200D03*
X127200D03*
X107200Y16400D03*
X117200D03*
X127200D03*
X137200D03*
X147200D03*
X157200D03*
X137200Y6400D03*
X147200D03*
X157200D03*
X167200D03*
Y16400D03*
X177200D03*
X187200D03*
X177200Y6400D03*
X187200D03*
G54D107*X19200Y11200D03*
X35900Y78600D03*
X5900D03*
G54D109*X10000Y70000D03*
Y60000D03*
Y50000D03*
Y40000D03*
Y30000D03*
Y20000D03*
X48500D02*X51500D01*
X48500Y30000D02*X51500D01*
X48500Y40000D02*X51500D01*
X48500Y50000D02*X51500D01*
X48500Y60000D02*X51500D01*
X48500Y70000D02*X51500D01*
X8500Y50000D02*X11500D01*
X8500Y40000D02*X11500D01*
X8500Y70000D02*X11500D01*
X8500Y60000D02*X11500D01*
X8500Y30000D02*X11500D01*
X8500Y20000D02*X11500D01*
M02*
