G04 start of page 17 for group -3984 idx -3984 *
G04 Title: (unknown), fab *
G04 Creator: pcb 20140316 *
G04 CreationDate: Tue 22 Dec 2015 07:16:43 PM GMT UTC *
G04 For: vince *
G04 Format: Gerber/RS-274X *
G04 PCB-Dimensions (mil): 1950.00 850.00 *
G04 PCB-Coordinate-Origin: lower left *
%MOIN*%
%FSLAX25Y25*%
%LNFAB*%
%ADD127C,0.0100*%
%ADD126C,0.0075*%
%ADD125C,0.0060*%
%ADD124C,0.0080*%
G54D124*X120050Y44000D02*Y40800D01*
Y44000D02*X122823Y45600D01*
X120050Y44000D02*X117277Y45600D01*
X118450Y44000D02*G75*G03X121650Y44000I1600J0D01*G01*
G75*G03X118450Y44000I-1600J0D01*G01*
X68350D02*Y40800D01*
Y44000D02*X71123Y45600D01*
X68350Y44000D02*X65577Y45600D01*
X66750Y44000D02*G75*G03X69950Y44000I1600J0D01*G01*
G75*G03X66750Y44000I-1600J0D01*G01*
X15000Y96250D02*Y93050D01*
Y96250D02*X17773Y97850D01*
X15000Y96250D02*X12227Y97850D01*
X13400Y96250D02*G75*G03X16600Y96250I1600J0D01*G01*
G75*G03X13400Y96250I-1600J0D01*G01*
G54D125*X135000Y98500D02*X136500Y95500D01*
X138000Y98500D01*
X136500Y95500D02*Y92500D01*
X139800Y95800D02*X142050D01*
X139800Y92500D02*X142800D01*
X139800Y98500D02*Y92500D01*
Y98500D02*X142800D01*
X147600D02*X148350Y97750D01*
X145350Y98500D02*X147600D01*
X144600Y97750D02*X145350Y98500D01*
X144600Y97750D02*Y96250D01*
X145350Y95500D01*
X147600D01*
X148350Y94750D01*
Y93250D01*
X147600Y92500D02*X148350Y93250D01*
X145350Y92500D02*X147600D01*
X144600Y93250D02*X145350Y92500D01*
X98000Y97750D02*X98750Y98500D01*
X101000D01*
X101750Y97750D01*
Y96250D01*
X98000Y92500D02*X101750Y96250D01*
X98000Y92500D02*X101750D01*
X45000Y93250D02*X45750Y92500D01*
X45000Y97750D02*Y93250D01*
Y97750D02*X45750Y98500D01*
X47250D01*
X48000Y97750D01*
Y93250D01*
X47250Y92500D02*X48000Y93250D01*
X45750Y92500D02*X47250D01*
X45000Y94000D02*X48000Y97000D01*
X49800Y92500D02*X50550D01*
X52350Y93250D02*X53100Y92500D01*
X52350Y97750D02*Y93250D01*
Y97750D02*X53100Y98500D01*
X54600D01*
X55350Y97750D01*
Y93250D01*
X54600Y92500D02*X55350Y93250D01*
X53100Y92500D02*X54600D01*
X52350Y94000D02*X55350Y97000D01*
X57900Y92500D02*X60150Y95500D01*
Y97750D02*Y95500D01*
X59400Y98500D02*X60150Y97750D01*
X57900Y98500D02*X59400D01*
X57150Y97750D02*X57900Y98500D01*
X57150Y97750D02*Y96250D01*
X57900Y95500D01*
X60150D01*
X61950Y97300D02*X63150Y98500D01*
Y92500D01*
X61950D02*X64200D01*
X155300Y67600D02*X158500D01*
X155300D02*Y64400D01*
X158500D01*
Y67600D02*Y64400D01*
X128700D02*X131900D01*
X128700D02*Y61200D01*
X131900D01*
Y64400D02*Y61200D01*
X181900Y64400D02*X185100D01*
X181900D02*Y61200D01*
X185100D01*
Y64400D02*Y61200D01*
X13400Y112850D02*X16600D01*
X13400D02*Y109650D01*
X16600D01*
Y112850D02*Y109650D01*
X135000Y113500D02*X136500Y110500D01*
X138000Y113500D01*
X136500Y110500D02*Y107500D01*
X139800Y110800D02*X142050D01*
X139800Y107500D02*X142800D01*
X139800Y113500D02*Y107500D01*
Y113500D02*X142800D01*
X147600D02*X148350Y112750D01*
X145350Y113500D02*X147600D01*
X144600Y112750D02*X145350Y113500D01*
X144600Y112750D02*Y111250D01*
X145350Y110500D01*
X147600D01*
X148350Y109750D01*
Y108250D01*
X147600Y107500D02*X148350Y108250D01*
X145350Y107500D02*X147600D01*
X144600Y108250D02*X145350Y107500D01*
X98000Y112750D02*X98750Y113500D01*
X100250D01*
X101000Y112750D01*
X100250Y107500D02*X101000Y108250D01*
X98750Y107500D02*X100250D01*
X98000Y108250D02*X98750Y107500D01*
Y110800D02*X100250D01*
X101000Y112750D02*Y111550D01*
Y110050D02*Y108250D01*
Y110050D02*X100250Y110800D01*
X101000Y111550D02*X100250Y110800D01*
X45000Y108250D02*X45750Y107500D01*
X45000Y112750D02*Y108250D01*
Y112750D02*X45750Y113500D01*
X47250D01*
X48000Y112750D01*
Y108250D01*
X47250Y107500D02*X48000Y108250D01*
X45750Y107500D02*X47250D01*
X45000Y109000D02*X48000Y112000D01*
X49800Y107500D02*X50550D01*
X52350Y108250D02*X53100Y107500D01*
X52350Y112750D02*Y108250D01*
Y112750D02*X53100Y113500D01*
X54600D01*
X55350Y112750D01*
Y108250D01*
X54600Y107500D02*X55350Y108250D01*
X53100Y107500D02*X54600D01*
X52350Y109000D02*X55350Y112000D01*
X57900Y107500D02*X60150Y110500D01*
Y112750D02*Y110500D01*
X59400Y113500D02*X60150Y112750D01*
X57900Y113500D02*X59400D01*
X57150Y112750D02*X57900Y113500D01*
X57150Y112750D02*Y111250D01*
X57900Y110500D01*
X60150D01*
X61950Y108250D02*X62700Y107500D01*
X61950Y112750D02*Y108250D01*
Y112750D02*X62700Y113500D01*
X64200D01*
X64950Y112750D01*
Y108250D01*
X64200Y107500D02*X64950Y108250D01*
X62700Y107500D02*X64200D01*
X61950Y109000D02*X64950Y112000D01*
X155200Y27700D02*G75*G03X156800Y27700I800J0D01*G01*
G75*G03X155200Y27700I-800J0D01*G01*
X165200D02*G75*G03X166800Y27700I800J0D01*G01*
G75*G03X165200Y27700I-800J0D01*G01*
X133600Y27600D02*G75*G03X135200Y27600I800J0D01*G01*
G75*G03X133600Y27600I-800J0D01*G01*
X143600D02*G75*G03X145200Y27600I800J0D01*G01*
G75*G03X143600Y27600I-800J0D01*G01*
X66400Y6400D02*G75*G03X68000Y6400I800J0D01*G01*
G75*G03X66400Y6400I-800J0D01*G01*
Y16400D02*G75*G03X68000Y16400I800J0D01*G01*
G75*G03X66400Y16400I-800J0D01*G01*
X76400Y6400D02*G75*G03X78000Y6400I800J0D01*G01*
G75*G03X76400Y6400I-800J0D01*G01*
Y16400D02*G75*G03X78000Y16400I800J0D01*G01*
G75*G03X76400Y16400I-800J0D01*G01*
X86400Y6400D02*G75*G03X88000Y6400I800J0D01*G01*
G75*G03X86400Y6400I-800J0D01*G01*
Y16400D02*G75*G03X88000Y16400I800J0D01*G01*
G75*G03X86400Y16400I-800J0D01*G01*
X96400Y6400D02*G75*G03X98000Y6400I800J0D01*G01*
G75*G03X96400Y6400I-800J0D01*G01*
Y16400D02*G75*G03X98000Y16400I800J0D01*G01*
G75*G03X96400Y16400I-800J0D01*G01*
X106400Y6400D02*G75*G03X108000Y6400I800J0D01*G01*
G75*G03X106400Y6400I-800J0D01*G01*
Y16400D02*G75*G03X108000Y16400I800J0D01*G01*
G75*G03X106400Y16400I-800J0D01*G01*
X116400Y6400D02*G75*G03X118000Y6400I800J0D01*G01*
G75*G03X116400Y6400I-800J0D01*G01*
Y16400D02*G75*G03X118000Y16400I800J0D01*G01*
G75*G03X116400Y16400I-800J0D01*G01*
X126400Y6400D02*G75*G03X128000Y6400I800J0D01*G01*
G75*G03X126400Y6400I-800J0D01*G01*
Y16400D02*G75*G03X128000Y16400I800J0D01*G01*
G75*G03X126400Y16400I-800J0D01*G01*
X136400Y6400D02*G75*G03X138000Y6400I800J0D01*G01*
G75*G03X136400Y6400I-800J0D01*G01*
Y16400D02*G75*G03X138000Y16400I800J0D01*G01*
G75*G03X136400Y16400I-800J0D01*G01*
X146400Y6400D02*G75*G03X148000Y6400I800J0D01*G01*
G75*G03X146400Y6400I-800J0D01*G01*
Y16400D02*G75*G03X148000Y16400I800J0D01*G01*
G75*G03X146400Y16400I-800J0D01*G01*
X156400Y6400D02*G75*G03X158000Y6400I800J0D01*G01*
G75*G03X156400Y6400I-800J0D01*G01*
Y16400D02*G75*G03X158000Y16400I800J0D01*G01*
G75*G03X156400Y16400I-800J0D01*G01*
X166400Y6400D02*G75*G03X168000Y6400I800J0D01*G01*
G75*G03X166400Y6400I-800J0D01*G01*
Y16400D02*G75*G03X168000Y16400I800J0D01*G01*
G75*G03X166400Y16400I-800J0D01*G01*
X176400Y6400D02*G75*G03X178000Y6400I800J0D01*G01*
G75*G03X176400Y6400I-800J0D01*G01*
Y16400D02*G75*G03X178000Y16400I800J0D01*G01*
G75*G03X176400Y16400I-800J0D01*G01*
X186400Y6400D02*G75*G03X188000Y6400I800J0D01*G01*
G75*G03X186400Y6400I-800J0D01*G01*
Y16400D02*G75*G03X188000Y16400I800J0D01*G01*
G75*G03X186400Y16400I-800J0D01*G01*
X14200Y126250D02*G75*G03X15800Y126250I800J0D01*G01*
G75*G03X14200Y126250I-800J0D01*G01*
X135000Y128500D02*X136500Y125500D01*
X138000Y128500D01*
X136500Y125500D02*Y122500D01*
X139800Y125800D02*X142050D01*
X139800Y122500D02*X142800D01*
X139800Y128500D02*Y122500D01*
Y128500D02*X142800D01*
X147600D02*X148350Y127750D01*
X145350Y128500D02*X147600D01*
X144600Y127750D02*X145350Y128500D01*
X144600Y127750D02*Y126250D01*
X145350Y125500D01*
X147600D01*
X148350Y124750D01*
Y123250D01*
X147600Y122500D02*X148350Y123250D01*
X145350Y122500D02*X147600D01*
X144600Y123250D02*X145350Y122500D01*
X98000Y127750D02*X98750Y128500D01*
X100250D01*
X101000Y127750D01*
X100250Y122500D02*X101000Y123250D01*
X98750Y122500D02*X100250D01*
X98000Y123250D02*X98750Y122500D01*
Y125800D02*X100250D01*
X101000Y127750D02*Y126550D01*
Y125050D02*Y123250D01*
Y125050D02*X100250Y125800D01*
X101000Y126550D02*X100250Y125800D01*
X102800Y123250D02*X103550Y122500D01*
X102800Y127750D02*Y123250D01*
Y127750D02*X103550Y128500D01*
X105050D01*
X105800Y127750D01*
Y123250D01*
X105050Y122500D02*X105800Y123250D01*
X103550Y122500D02*X105050D01*
X102800Y124000D02*X105800Y127000D01*
X45000Y123250D02*X45750Y122500D01*
X45000Y127750D02*Y123250D01*
Y127750D02*X45750Y128500D01*
X47250D01*
X48000Y127750D01*
Y123250D01*
X47250Y122500D02*X48000Y123250D01*
X45750Y122500D02*X47250D01*
X45000Y124000D02*X48000Y127000D01*
X49800Y122500D02*X50550D01*
X52350Y123250D02*X53100Y122500D01*
X52350Y127750D02*Y123250D01*
Y127750D02*X53100Y128500D01*
X54600D01*
X55350Y127750D01*
Y123250D01*
X54600Y122500D02*X55350Y123250D01*
X53100Y122500D02*X54600D01*
X52350Y124000D02*X55350Y127000D01*
X57150Y127750D02*X57900Y128500D01*
X59400D01*
X60150Y127750D01*
X59400Y122500D02*X60150Y123250D01*
X57900Y122500D02*X59400D01*
X57150Y123250D02*X57900Y122500D01*
Y125800D02*X59400D01*
X60150Y127750D02*Y126550D01*
Y125050D02*Y123250D01*
Y125050D02*X59400Y125800D01*
X60150Y126550D02*X59400Y125800D01*
X61950Y123250D02*X62700Y122500D01*
X61950Y124450D02*Y123250D01*
Y124450D02*X63000Y125500D01*
X63900D01*
X64950Y124450D01*
Y123250D01*
X64200Y122500D02*X64950Y123250D01*
X62700Y122500D02*X64200D01*
X61950Y126550D02*X63000Y125500D01*
X61950Y127750D02*Y126550D01*
Y127750D02*X62700Y128500D01*
X64200D01*
X64950Y127750D01*
Y126550D01*
X63900Y125500D02*X64950Y126550D01*
X106750Y34500D02*X109150Y32100D01*
X106750D02*X109150Y34500D01*
X96950D02*X99350Y32100D01*
X96950D02*X99350Y34500D01*
X89050D02*X91450Y32100D01*
X89050D02*X91450Y34500D01*
X79250D02*X81650Y32100D01*
X79250D02*X81650Y34500D01*
X13800Y142450D02*X16200Y140050D01*
X13800D02*X16200Y142450D01*
X135000Y143500D02*X136500Y140500D01*
X138000Y143500D01*
X136500Y140500D02*Y137500D01*
X139800Y140800D02*X142050D01*
X139800Y137500D02*X142800D01*
X139800Y143500D02*Y137500D01*
Y143500D02*X142800D01*
X147600D02*X148350Y142750D01*
X145350Y143500D02*X147600D01*
X144600Y142750D02*X145350Y143500D01*
X144600Y142750D02*Y141250D01*
X145350Y140500D01*
X147600D01*
X148350Y139750D01*
Y138250D01*
X147600Y137500D02*X148350Y138250D01*
X145350Y137500D02*X147600D01*
X144600Y138250D02*X145350Y137500D01*
X98000Y139750D02*X101000Y143500D01*
X98000Y139750D02*X101750D01*
X101000Y143500D02*Y137500D01*
X45000Y138250D02*X45750Y137500D01*
X45000Y142750D02*Y138250D01*
Y142750D02*X45750Y143500D01*
X47250D01*
X48000Y142750D01*
Y138250D01*
X47250Y137500D02*X48000Y138250D01*
X45750Y137500D02*X47250D01*
X45000Y139000D02*X48000Y142000D01*
X49800Y137500D02*X50550D01*
X52350Y138250D02*X53100Y137500D01*
X52350Y142750D02*Y138250D01*
Y142750D02*X53100Y143500D01*
X54600D01*
X55350Y142750D01*
Y138250D01*
X54600Y137500D02*X55350Y138250D01*
X53100Y137500D02*X54600D01*
X52350Y139000D02*X55350Y142000D01*
X57150Y142750D02*X57900Y143500D01*
X59400D01*
X60150Y142750D01*
X59400Y137500D02*X60150Y138250D01*
X57900Y137500D02*X59400D01*
X57150Y138250D02*X57900Y137500D01*
Y140800D02*X59400D01*
X60150Y142750D02*Y141550D01*
Y140050D02*Y138250D01*
Y140050D02*X59400Y140800D01*
X60150Y141550D02*X59400Y140800D01*
X64200Y143500D02*X64950Y142750D01*
X62700Y143500D02*X64200D01*
X61950Y142750D02*X62700Y143500D01*
X61950Y142750D02*Y138250D01*
X62700Y137500D01*
X64200Y140800D02*X64950Y140050D01*
X61950Y140800D02*X64200D01*
X62700Y137500D02*X64200D01*
X64950Y138250D01*
Y140050D02*Y138250D01*
X151800Y52600D02*Y49400D01*
X150200Y51000D02*X153400D01*
X143700Y52600D02*Y49400D01*
X142100Y51000D02*X145300D01*
X143700Y42800D02*Y39600D01*
X142100Y41200D02*X145300D01*
X162000Y52600D02*Y49400D01*
X160400Y51000D02*X163600D01*
X170100Y52600D02*Y49400D01*
X168500Y51000D02*X171700D01*
X170100Y42800D02*Y39600D01*
X168500Y41200D02*X171700D01*
X10000Y71600D02*Y68400D01*
X8400Y70000D02*X11600D01*
X10000Y61600D02*Y58400D01*
X8400Y60000D02*X11600D01*
X10000Y51600D02*Y48400D01*
X8400Y50000D02*X11600D01*
X10000Y41600D02*Y38400D01*
X8400Y40000D02*X11600D01*
X10000Y31600D02*Y28400D01*
X8400Y30000D02*X11600D01*
X10000Y21600D02*Y18400D01*
X8400Y20000D02*X11600D01*
X50000Y21600D02*Y18400D01*
X48400Y20000D02*X51600D01*
X50000Y31600D02*Y28400D01*
X48400Y30000D02*X51600D01*
X50000Y41600D02*Y38400D01*
X48400Y40000D02*X51600D01*
X50000Y51600D02*Y48400D01*
X48400Y50000D02*X51600D01*
X50000Y61600D02*Y58400D01*
X48400Y60000D02*X51600D01*
X50000Y71600D02*Y68400D01*
X48400Y70000D02*X51600D01*
X30400Y31900D02*Y28700D01*
X28800Y30300D02*X32000D01*
X15000Y157850D02*Y154650D01*
X13400Y156250D02*X16600D01*
X135000Y158500D02*X136500Y155500D01*
X138000Y158500D01*
X136500Y155500D02*Y152500D01*
X139800Y155800D02*X142050D01*
X139800Y152500D02*X142800D01*
X139800Y158500D02*Y152500D01*
Y158500D02*X142800D01*
X147600D02*X148350Y157750D01*
X145350Y158500D02*X147600D01*
X144600Y157750D02*X145350Y158500D01*
X144600Y157750D02*Y156250D01*
X145350Y155500D01*
X147600D01*
X148350Y154750D01*
Y153250D01*
X147600Y152500D02*X148350Y153250D01*
X145350Y152500D02*X147600D01*
X144600Y153250D02*X145350Y152500D01*
X98000Y157300D02*X99200Y158500D01*
Y152500D01*
X98000D02*X100250D01*
X102800D02*X105050Y155500D01*
Y157750D02*Y155500D01*
X104300Y158500D02*X105050Y157750D01*
X102800Y158500D02*X104300D01*
X102050Y157750D02*X102800Y158500D01*
X102050Y157750D02*Y156250D01*
X102800Y155500D01*
X105050D01*
X45000Y153250D02*X45750Y152500D01*
X45000Y157750D02*Y153250D01*
Y157750D02*X45750Y158500D01*
X47250D01*
X48000Y157750D01*
Y153250D01*
X47250Y152500D02*X48000Y153250D01*
X45750Y152500D02*X47250D01*
X45000Y154000D02*X48000Y157000D01*
X49800Y152500D02*X50550D01*
X52350Y153250D02*X53100Y152500D01*
X52350Y157750D02*Y153250D01*
Y157750D02*X53100Y158500D01*
X54600D01*
X55350Y157750D01*
Y153250D01*
X54600Y152500D02*X55350Y153250D01*
X53100Y152500D02*X54600D01*
X52350Y154000D02*X55350Y157000D01*
X57150Y157750D02*X57900Y158500D01*
X59400D01*
X60150Y157750D01*
X59400Y152500D02*X60150Y153250D01*
X57900Y152500D02*X59400D01*
X57150Y153250D02*X57900Y152500D01*
Y155800D02*X59400D01*
X60150Y157750D02*Y156550D01*
Y155050D02*Y153250D01*
Y155050D02*X59400Y155800D01*
X60150Y156550D02*X59400Y155800D01*
X61950Y158500D02*X64950D01*
X61950D02*Y155500D01*
X62700Y156250D01*
X64200D01*
X64950Y155500D01*
Y153250D01*
X64200Y152500D02*X64950Y153250D01*
X62700Y152500D02*X64200D01*
X61950Y153250D02*X62700Y152500D01*
X49200Y11200D02*Y9600D01*
Y11200D02*X50587Y12000D01*
X49200Y11200D02*X47813Y12000D01*
X19200Y11200D02*Y9600D01*
Y11200D02*X20587Y12000D01*
X19200Y11200D02*X17813Y12000D01*
X35900Y78600D02*Y77000D01*
Y78600D02*X37287Y79400D01*
X35900Y78600D02*X34513Y79400D01*
X5900Y78600D02*Y77000D01*
Y78600D02*X7287Y79400D01*
X5900Y78600D02*X4513Y79400D01*
X15000Y171250D02*Y169650D01*
Y171250D02*X16387Y172050D01*
X15000Y171250D02*X13613Y172050D01*
X135000Y173500D02*X136500Y170500D01*
X138000Y173500D01*
X136500Y170500D02*Y167500D01*
X139800Y170800D02*X142050D01*
X139800Y167500D02*X142800D01*
X139800Y173500D02*Y167500D01*
Y173500D02*X142800D01*
X147600D02*X148350Y172750D01*
X145350Y173500D02*X147600D01*
X144600Y172750D02*X145350Y173500D01*
X144600Y172750D02*Y171250D01*
X145350Y170500D01*
X147600D01*
X148350Y169750D01*
Y168250D01*
X147600Y167500D02*X148350Y168250D01*
X145350Y167500D02*X147600D01*
X144600Y168250D02*X145350Y167500D01*
X98000Y169750D02*X101000Y173500D01*
X98000Y169750D02*X101750D01*
X101000Y173500D02*Y167500D01*
X45000Y168250D02*X45750Y167500D01*
X45000Y172750D02*Y168250D01*
Y172750D02*X45750Y173500D01*
X47250D01*
X48000Y172750D01*
Y168250D01*
X47250Y167500D02*X48000Y168250D01*
X45750Y167500D02*X47250D01*
X45000Y169000D02*X48000Y172000D01*
X49800Y167500D02*X50550D01*
X52350Y168250D02*X53100Y167500D01*
X52350Y172750D02*Y168250D01*
Y172750D02*X53100Y173500D01*
X54600D01*
X55350Y172750D01*
Y168250D01*
X54600Y167500D02*X55350Y168250D01*
X53100Y167500D02*X54600D01*
X52350Y169000D02*X55350Y172000D01*
X57150Y172750D02*X57900Y173500D01*
X60150D01*
X60900Y172750D01*
Y171250D01*
X57150Y167500D02*X60900Y171250D01*
X57150Y167500D02*X60900D01*
X62700Y168250D02*X63450Y167500D01*
X62700Y169450D02*Y168250D01*
Y169450D02*X63750Y170500D01*
X64650D01*
X65700Y169450D01*
Y168250D01*
X64950Y167500D02*X65700Y168250D01*
X63450Y167500D02*X64950D01*
X62700Y171550D02*X63750Y170500D01*
X62700Y172750D02*Y171550D01*
Y172750D02*X63450Y173500D01*
X64950D01*
X65700Y172750D01*
Y171550D01*
X64650Y170500D02*X65700Y171550D01*
X3000Y188500D02*X3750Y187750D01*
X750Y188500D02*X3000D01*
X0Y187750D02*X750Y188500D01*
X0Y187750D02*Y186250D01*
X750Y185500D01*
X3000D01*
X3750Y184750D01*
Y183250D01*
X3000Y182500D02*X3750Y183250D01*
X750Y182500D02*X3000D01*
X0Y183250D02*X750Y182500D01*
X5550Y185500D02*Y183250D01*
X6300Y182500D01*
X8550Y185500D02*Y181000D01*
X7800Y180250D02*X8550Y181000D01*
X6300Y180250D02*X7800D01*
X5550Y181000D02*X6300Y180250D01*
Y182500D02*X7800D01*
X8550Y183250D01*
X11100Y184750D02*Y182500D01*
Y184750D02*X11850Y185500D01*
X12600D01*
X13350Y184750D01*
Y182500D01*
Y184750D02*X14100Y185500D01*
X14850D01*
X15600Y184750D01*
Y182500D01*
X10350Y185500D02*X11100Y184750D01*
X17400Y188500D02*Y182500D01*
Y183250D02*X18150Y182500D01*
X19650D01*
X20400Y183250D01*
Y184750D02*Y183250D01*
X19650Y185500D02*X20400Y184750D01*
X18150Y185500D02*X19650D01*
X17400Y184750D02*X18150Y185500D01*
X22200Y184750D02*Y183250D01*
Y184750D02*X22950Y185500D01*
X24450D01*
X25200Y184750D01*
Y183250D01*
X24450Y182500D02*X25200Y183250D01*
X22950Y182500D02*X24450D01*
X22200Y183250D02*X22950Y182500D01*
X27000Y188500D02*Y183250D01*
X27750Y182500D01*
X0Y179250D02*X29250D01*
X41750Y188500D02*Y182500D01*
X43700Y188500D02*X44750Y187450D01*
Y183550D01*
X43700Y182500D02*X44750Y183550D01*
X41000Y182500D02*X43700D01*
X41000Y188500D02*X43700D01*
G54D126*X46550Y187000D02*Y186850D01*
G54D125*Y184750D02*Y182500D01*
X50300Y185500D02*X51050Y184750D01*
X48800Y185500D02*X50300D01*
X48050Y184750D02*X48800Y185500D01*
X48050Y184750D02*Y183250D01*
X48800Y182500D01*
X51050Y185500D02*Y183250D01*
X51800Y182500D01*
X48800D02*X50300D01*
X51050Y183250D01*
X54350Y184750D02*Y182500D01*
Y184750D02*X55100Y185500D01*
X55850D01*
X56600Y184750D01*
Y182500D01*
Y184750D02*X57350Y185500D01*
X58100D01*
X58850Y184750D01*
Y182500D01*
X53600Y185500D02*X54350Y184750D01*
X60650Y182500D02*X61400D01*
X65900Y183250D02*X66650Y182500D01*
X65900Y187750D02*X66650Y188500D01*
X65900Y187750D02*Y183250D01*
X68450Y188500D02*X69950D01*
X69200D02*Y182500D01*
X68450D02*X69950D01*
X72500Y184750D02*Y182500D01*
Y184750D02*X73250Y185500D01*
X74000D01*
X74750Y184750D01*
Y182500D01*
X71750Y185500D02*X72500Y184750D01*
X77300Y185500D02*X79550D01*
X76550Y184750D02*X77300Y185500D01*
X76550Y184750D02*Y183250D01*
X77300Y182500D01*
X79550D01*
X81350Y188500D02*Y182500D01*
Y184750D02*X82100Y185500D01*
X83600D01*
X84350Y184750D01*
Y182500D01*
X86150Y188500D02*X86900Y187750D01*
Y183250D01*
X86150Y182500D02*X86900Y183250D01*
X41000Y179250D02*X88700D01*
X96050Y182500D02*X98000D01*
X95000Y183550D02*X96050Y182500D01*
X95000Y187450D02*Y183550D01*
Y187450D02*X96050Y188500D01*
X98000D01*
X99800Y184750D02*Y183250D01*
Y184750D02*X100550Y185500D01*
X102050D01*
X102800Y184750D01*
Y183250D01*
X102050Y182500D02*X102800Y183250D01*
X100550Y182500D02*X102050D01*
X99800Y183250D02*X100550Y182500D01*
X104600Y185500D02*Y183250D01*
X105350Y182500D01*
X106850D01*
X107600Y183250D01*
Y185500D02*Y183250D01*
X110150Y184750D02*Y182500D01*
Y184750D02*X110900Y185500D01*
X111650D01*
X112400Y184750D01*
Y182500D01*
X109400Y185500D02*X110150Y184750D01*
X114950Y188500D02*Y183250D01*
X115700Y182500D01*
X114200Y186250D02*X115700D01*
X95000Y179250D02*X117200D01*
X130750Y188500D02*Y182500D01*
X130000Y188500D02*X133000D01*
X133750Y187750D01*
Y186250D01*
X133000Y185500D02*X133750Y186250D01*
X130750Y185500D02*X133000D01*
X135550Y188500D02*Y183250D01*
X136300Y182500D01*
X140050Y185500D02*X140800Y184750D01*
X138550Y185500D02*X140050D01*
X137800Y184750D02*X138550Y185500D01*
X137800Y184750D02*Y183250D01*
X138550Y182500D01*
X140800Y185500D02*Y183250D01*
X141550Y182500D01*
X138550D02*X140050D01*
X140800Y183250D01*
X144100Y188500D02*Y183250D01*
X144850Y182500D01*
X143350Y186250D02*X144850D01*
X147100Y182500D02*X149350D01*
X146350Y183250D02*X147100Y182500D01*
X146350Y184750D02*Y183250D01*
Y184750D02*X147100Y185500D01*
X148600D01*
X149350Y184750D01*
X146350Y184000D02*X149350D01*
Y184750D02*Y184000D01*
X154150Y188500D02*Y182500D01*
X153400D02*X154150Y183250D01*
X151900Y182500D02*X153400D01*
X151150Y183250D02*X151900Y182500D01*
X151150Y184750D02*Y183250D01*
Y184750D02*X151900Y185500D01*
X153400D01*
X154150Y184750D01*
X157450Y185500D02*Y184750D01*
Y183250D02*Y182500D01*
X155950Y187750D02*Y187000D01*
Y187750D02*X156700Y188500D01*
X158200D01*
X158950Y187750D01*
Y187000D01*
X157450Y185500D02*X158950Y187000D01*
X130000Y179250D02*X160750D01*
X0Y203500D02*X3000D01*
X1500D02*Y197500D01*
X4800Y203500D02*Y197500D01*
Y199750D02*X5550Y200500D01*
X7050D01*
X7800Y199750D01*
Y197500D01*
X10350D02*X12600D01*
X9600Y198250D02*X10350Y197500D01*
X9600Y199750D02*Y198250D01*
Y199750D02*X10350Y200500D01*
X11850D01*
X12600Y199750D01*
X9600Y199000D02*X12600D01*
Y199750D02*Y199000D01*
X15150Y199750D02*Y197500D01*
Y199750D02*X15900Y200500D01*
X17400D01*
X14400D02*X15150Y199750D01*
X19950Y197500D02*X22200D01*
X19200Y198250D02*X19950Y197500D01*
X19200Y199750D02*Y198250D01*
Y199750D02*X19950Y200500D01*
X21450D01*
X22200Y199750D01*
X19200Y199000D02*X22200D01*
Y199750D02*Y199000D01*
X28950Y200500D02*X29700Y199750D01*
X27450Y200500D02*X28950D01*
X26700Y199750D02*X27450Y200500D01*
X26700Y199750D02*Y198250D01*
X27450Y197500D01*
X29700Y200500D02*Y198250D01*
X30450Y197500D01*
X27450D02*X28950D01*
X29700Y198250D01*
X33000Y199750D02*Y197500D01*
Y199750D02*X33750Y200500D01*
X35250D01*
X32250D02*X33000Y199750D01*
X37800Y197500D02*X40050D01*
X37050Y198250D02*X37800Y197500D01*
X37050Y199750D02*Y198250D01*
Y199750D02*X37800Y200500D01*
X39300D01*
X40050Y199750D01*
X37050Y199000D02*X40050D01*
Y199750D02*Y199000D01*
X46800Y203500D02*X47550Y202750D01*
X45300Y203500D02*X46800D01*
X44550Y202750D02*X45300Y203500D01*
X44550Y202750D02*Y198250D01*
X45300Y197500D01*
X46800Y200800D02*X47550Y200050D01*
X44550Y200800D02*X46800D01*
X45300Y197500D02*X46800D01*
X47550Y198250D01*
Y200050D02*Y198250D01*
X55050Y203500D02*Y197500D01*
X54300D02*X55050Y198250D01*
X52800Y197500D02*X54300D01*
X52050Y198250D02*X52800Y197500D01*
X52050Y199750D02*Y198250D01*
Y199750D02*X52800Y200500D01*
X54300D01*
X55050Y199750D01*
G54D126*X56850Y202000D02*Y201850D01*
G54D125*Y199750D02*Y197500D01*
X59100Y202750D02*Y197500D01*
Y202750D02*X59850Y203500D01*
X60600D01*
X58350Y200500D02*X59850D01*
X62850Y202750D02*Y197500D01*
Y202750D02*X63600Y203500D01*
X64350D01*
X62100Y200500D02*X63600D01*
X66600Y197500D02*X68850D01*
X65850Y198250D02*X66600Y197500D01*
X65850Y199750D02*Y198250D01*
Y199750D02*X66600Y200500D01*
X68100D01*
X68850Y199750D01*
X65850Y199000D02*X68850D01*
Y199750D02*Y199000D01*
X71400Y199750D02*Y197500D01*
Y199750D02*X72150Y200500D01*
X73650D01*
X70650D02*X71400Y199750D01*
X76200Y197500D02*X78450D01*
X75450Y198250D02*X76200Y197500D01*
X75450Y199750D02*Y198250D01*
Y199750D02*X76200Y200500D01*
X77700D01*
X78450Y199750D01*
X75450Y199000D02*X78450D01*
Y199750D02*Y199000D01*
X81000Y199750D02*Y197500D01*
Y199750D02*X81750Y200500D01*
X82500D01*
X83250Y199750D01*
Y197500D01*
X80250Y200500D02*X81000Y199750D01*
X85800Y203500D02*Y198250D01*
X86550Y197500D01*
X85050Y201250D02*X86550D01*
X93750Y203500D02*Y197500D01*
X93000D02*X93750Y198250D01*
X91500Y197500D02*X93000D01*
X90750Y198250D02*X91500Y197500D01*
X90750Y199750D02*Y198250D01*
Y199750D02*X91500Y200500D01*
X93000D01*
X93750Y199750D01*
X96300D02*Y197500D01*
Y199750D02*X97050Y200500D01*
X98550D01*
X95550D02*X96300Y199750D01*
G54D126*X100350Y202000D02*Y201850D01*
G54D125*Y199750D02*Y197500D01*
X101850Y203500D02*Y198250D01*
X102600Y197500D01*
X104100Y203500D02*Y198250D01*
X104850Y197500D01*
X109800D02*X112050D01*
X112800Y198250D01*
X112050Y199000D02*X112800Y198250D01*
X109800Y199000D02*X112050D01*
X109050Y199750D02*X109800Y199000D01*
X109050Y199750D02*X109800Y200500D01*
X112050D01*
X112800Y199750D01*
X109050Y198250D02*X109800Y197500D01*
G54D126*X114600Y202000D02*Y201850D01*
G54D125*Y199750D02*Y197500D01*
X116100Y200500D02*X119100D01*
X116100Y197500D02*X119100Y200500D01*
X116100Y197500D02*X119100D01*
X121650D02*X123900D01*
X120900Y198250D02*X121650Y197500D01*
X120900Y199750D02*Y198250D01*
Y199750D02*X121650Y200500D01*
X123150D01*
X123900Y199750D01*
X120900Y199000D02*X123900D01*
Y199750D02*Y199000D01*
X126450Y197500D02*X128700D01*
X129450Y198250D01*
X128700Y199000D02*X129450Y198250D01*
X126450Y199000D02*X128700D01*
X125700Y199750D02*X126450Y199000D01*
X125700Y199750D02*X126450Y200500D01*
X128700D01*
X129450Y199750D01*
X125700Y198250D02*X126450Y197500D01*
X133950Y200500D02*Y198250D01*
X134700Y197500D01*
X136200D01*
X136950Y198250D01*
Y200500D02*Y198250D01*
X139500Y197500D02*X141750D01*
X142500Y198250D01*
X141750Y199000D02*X142500Y198250D01*
X139500Y199000D02*X141750D01*
X138750Y199750D02*X139500Y199000D01*
X138750Y199750D02*X139500Y200500D01*
X141750D01*
X142500Y199750D01*
X138750Y198250D02*X139500Y197500D01*
X145050D02*X147300D01*
X144300Y198250D02*X145050Y197500D01*
X144300Y199750D02*Y198250D01*
Y199750D02*X145050Y200500D01*
X146550D01*
X147300Y199750D01*
X144300Y199000D02*X147300D01*
Y199750D02*Y199000D01*
X152100Y203500D02*Y197500D01*
X151350D02*X152100Y198250D01*
X149850Y197500D02*X151350D01*
X149100Y198250D02*X149850Y197500D01*
X149100Y199750D02*Y198250D01*
Y199750D02*X149850Y200500D01*
X151350D01*
X152100Y199750D01*
G54D126*X156600Y202000D02*Y201850D01*
G54D125*Y199750D02*Y197500D01*
X158850Y199750D02*Y197500D01*
Y199750D02*X159600Y200500D01*
X160350D01*
X161100Y199750D01*
Y197500D01*
X158100Y200500D02*X158850Y199750D01*
X166350Y203500D02*Y198250D01*
X167100Y197500D01*
X165600Y201250D02*X167100D01*
X168600Y203500D02*Y197500D01*
Y199750D02*X169350Y200500D01*
X170850D01*
X171600Y199750D01*
Y197500D01*
G54D126*X173400Y202000D02*Y201850D01*
G54D125*Y199750D02*Y197500D01*
X175650D02*X177900D01*
X178650Y198250D01*
X177900Y199000D02*X178650Y198250D01*
X175650Y199000D02*X177900D01*
X174900Y199750D02*X175650Y199000D01*
X174900Y199750D02*X175650Y200500D01*
X177900D01*
X178650Y199750D01*
X174900Y198250D02*X175650Y197500D01*
X183150Y203500D02*Y198250D01*
X183900Y197500D01*
X187650Y200500D02*X188400Y199750D01*
X186150Y200500D02*X187650D01*
X185400Y199750D02*X186150Y200500D01*
X185400Y199750D02*Y198250D01*
X186150Y197500D01*
X188400Y200500D02*Y198250D01*
X189150Y197500D01*
X186150D02*X187650D01*
X188400Y198250D01*
X190950Y200500D02*Y198250D01*
X191700Y197500D01*
X193950Y200500D02*Y196000D01*
X193200Y195250D02*X193950Y196000D01*
X191700Y195250D02*X193200D01*
X190950Y196000D02*X191700Y195250D01*
Y197500D02*X193200D01*
X193950Y198250D01*
X195750Y199750D02*Y198250D01*
Y199750D02*X196500Y200500D01*
X198000D01*
X198750Y199750D01*
Y198250D01*
X198000Y197500D02*X198750Y198250D01*
X196500Y197500D02*X198000D01*
X195750Y198250D02*X196500Y197500D01*
X200550Y200500D02*Y198250D01*
X201300Y197500D01*
X202800D01*
X203550Y198250D01*
Y200500D02*Y198250D01*
X206100Y203500D02*Y198250D01*
X206850Y197500D01*
X205350Y201250D02*X206850D01*
X208350Y196000D02*X209850Y197500D01*
X216600Y203500D02*X217350Y202750D01*
X215100Y203500D02*X216600D01*
X214350Y202750D02*X215100Y203500D01*
X214350Y202750D02*Y198250D01*
X215100Y197500D01*
X216600Y200800D02*X217350Y200050D01*
X214350Y200800D02*X216600D01*
X215100Y197500D02*X216600D01*
X217350Y198250D01*
Y200050D02*Y198250D01*
X219150Y202750D02*X219900Y203500D01*
X222150D01*
X222900Y202750D01*
Y201250D01*
X219150Y197500D02*X222900Y201250D01*
X219150Y197500D02*X222900D01*
X227400Y203500D02*Y197500D01*
Y199750D02*X228150Y200500D01*
X229650D01*
X230400Y199750D01*
Y197500D01*
X232200Y199750D02*Y198250D01*
Y199750D02*X232950Y200500D01*
X234450D01*
X235200Y199750D01*
Y198250D01*
X234450Y197500D02*X235200Y198250D01*
X232950Y197500D02*X234450D01*
X232200Y198250D02*X232950Y197500D01*
X237000Y203500D02*Y198250D01*
X237750Y197500D01*
X240000D02*X242250D01*
X239250Y198250D02*X240000Y197500D01*
X239250Y199750D02*Y198250D01*
Y199750D02*X240000Y200500D01*
X241500D01*
X242250Y199750D01*
X239250Y199000D02*X242250D01*
Y199750D02*Y199000D01*
X244800Y197500D02*X247050D01*
X247800Y198250D01*
X247050Y199000D02*X247800Y198250D01*
X244800Y199000D02*X247050D01*
X244050Y199750D02*X244800Y199000D01*
X244050Y199750D02*X244800Y200500D01*
X247050D01*
X247800Y199750D01*
X244050Y198250D02*X244800Y197500D01*
X253050Y203500D02*Y198250D01*
X253800Y197500D01*
X252300Y201250D02*X253800D01*
X255300Y199750D02*Y198250D01*
Y199750D02*X256050Y200500D01*
X257550D01*
X258300Y199750D01*
Y198250D01*
X257550Y197500D02*X258300Y198250D01*
X256050Y197500D02*X257550D01*
X255300Y198250D02*X256050Y197500D01*
X260850Y203500D02*Y198250D01*
X261600Y197500D01*
X260100Y201250D02*X261600D01*
X265350Y200500D02*X266100Y199750D01*
X263850Y200500D02*X265350D01*
X263100Y199750D02*X263850Y200500D01*
X263100Y199750D02*Y198250D01*
X263850Y197500D01*
X266100Y200500D02*Y198250D01*
X266850Y197500D01*
X263850D02*X265350D01*
X266100Y198250D01*
X268650Y203500D02*Y198250D01*
X269400Y197500D01*
G54D127*X300Y84700D02*Y0D01*
X195000D01*
Y85000D01*
X300D01*
G54D125*X11175Y-9500D02*X14175D01*
X14925Y-8750D01*
Y-6950D02*Y-8750D01*
X14175Y-6200D02*X14925Y-6950D01*
X11925Y-6200D02*X14175D01*
X11925Y-3500D02*Y-9500D01*
X11175Y-3500D02*X14175D01*
X14925Y-4250D01*
Y-5450D01*
X14175Y-6200D02*X14925Y-5450D01*
X16725Y-7250D02*Y-8750D01*
Y-7250D02*X17475Y-6500D01*
X18975D01*
X19725Y-7250D01*
Y-8750D01*
X18975Y-9500D02*X19725Y-8750D01*
X17475Y-9500D02*X18975D01*
X16725Y-8750D02*X17475Y-9500D01*
X23775Y-6500D02*X24525Y-7250D01*
X22275Y-6500D02*X23775D01*
X21525Y-7250D02*X22275Y-6500D01*
X21525Y-7250D02*Y-8750D01*
X22275Y-9500D01*
X24525Y-6500D02*Y-8750D01*
X25275Y-9500D01*
X22275D02*X23775D01*
X24525Y-8750D01*
X27825Y-7250D02*Y-9500D01*
Y-7250D02*X28575Y-6500D01*
X30075D01*
X27075D02*X27825Y-7250D01*
X34875Y-3500D02*Y-9500D01*
X34125D02*X34875Y-8750D01*
X32625Y-9500D02*X34125D01*
X31875Y-8750D02*X32625Y-9500D01*
X31875Y-7250D02*Y-8750D01*
Y-7250D02*X32625Y-6500D01*
X34125D01*
X34875Y-7250D01*
X39375D02*Y-8750D01*
Y-7250D02*X40125Y-6500D01*
X41625D01*
X42375Y-7250D01*
Y-8750D01*
X41625Y-9500D02*X42375Y-8750D01*
X40125Y-9500D02*X41625D01*
X39375Y-8750D02*X40125Y-9500D01*
X44175Y-6500D02*Y-8750D01*
X44925Y-9500D01*
X46425D01*
X47175Y-8750D01*
Y-6500D02*Y-8750D01*
X49725Y-3500D02*Y-8750D01*
X50475Y-9500D01*
X48975Y-5750D02*X50475D01*
X51975Y-3500D02*Y-8750D01*
X52725Y-9500D01*
G54D126*X54225Y-5000D02*Y-5150D01*
G54D125*Y-7250D02*Y-9500D01*
X56475Y-7250D02*Y-9500D01*
Y-7250D02*X57225Y-6500D01*
X57975D01*
X58725Y-7250D01*
Y-9500D01*
X55725Y-6500D02*X56475Y-7250D01*
X61275Y-9500D02*X63525D01*
X60525Y-8750D02*X61275Y-9500D01*
X60525Y-7250D02*Y-8750D01*
Y-7250D02*X61275Y-6500D01*
X62775D01*
X63525Y-7250D01*
X60525Y-8000D02*X63525D01*
Y-7250D02*Y-8000D01*
G54D126*X68025Y-5000D02*Y-5150D01*
G54D125*Y-7250D02*Y-9500D01*
X70275D02*X72525D01*
X73275Y-8750D01*
X72525Y-8000D02*X73275Y-8750D01*
X70275Y-8000D02*X72525D01*
X69525Y-7250D02*X70275Y-8000D01*
X69525Y-7250D02*X70275Y-6500D01*
X72525D01*
X73275Y-7250D01*
X69525Y-8750D02*X70275Y-9500D01*
X78525Y-3500D02*Y-8750D01*
X79275Y-9500D01*
X77775Y-5750D02*X79275D01*
X80775Y-3500D02*Y-9500D01*
Y-7250D02*X81525Y-6500D01*
X83025D01*
X83775Y-7250D01*
Y-9500D01*
X86325D02*X88575D01*
X85575Y-8750D02*X86325Y-9500D01*
X85575Y-7250D02*Y-8750D01*
Y-7250D02*X86325Y-6500D01*
X87825D01*
X88575Y-7250D01*
X85575Y-8000D02*X88575D01*
Y-7250D02*Y-8000D01*
X93825Y-6500D02*X96075D01*
X93075Y-7250D02*X93825Y-6500D01*
X93075Y-7250D02*Y-8750D01*
X93825Y-9500D01*
X96075D01*
X98625D02*X100875D01*
X97875Y-8750D02*X98625Y-9500D01*
X97875Y-7250D02*Y-8750D01*
Y-7250D02*X98625Y-6500D01*
X100125D01*
X100875Y-7250D01*
X97875Y-8000D02*X100875D01*
Y-7250D02*Y-8000D01*
X103425Y-7250D02*Y-9500D01*
Y-7250D02*X104175Y-6500D01*
X104925D01*
X105675Y-7250D01*
Y-9500D01*
X102675Y-6500D02*X103425Y-7250D01*
X108225Y-3500D02*Y-8750D01*
X108975Y-9500D01*
X107475Y-5750D02*X108975D01*
X111225Y-9500D02*X113475D01*
X110475Y-8750D02*X111225Y-9500D01*
X110475Y-7250D02*Y-8750D01*
Y-7250D02*X111225Y-6500D01*
X112725D01*
X113475Y-7250D01*
X110475Y-8000D02*X113475D01*
Y-7250D02*Y-8000D01*
X116025Y-7250D02*Y-9500D01*
Y-7250D02*X116775Y-6500D01*
X118275D01*
X115275D02*X116025Y-7250D01*
X120075Y-3500D02*Y-8750D01*
X120825Y-9500D01*
G54D126*X122325Y-5000D02*Y-5150D01*
G54D125*Y-7250D02*Y-9500D01*
X124575Y-7250D02*Y-9500D01*
Y-7250D02*X125325Y-6500D01*
X126075D01*
X126825Y-7250D01*
Y-9500D01*
X123825Y-6500D02*X124575Y-7250D01*
X129375Y-9500D02*X131625D01*
X128625Y-8750D02*X129375Y-9500D01*
X128625Y-7250D02*Y-8750D01*
Y-7250D02*X129375Y-6500D01*
X130875D01*
X131625Y-7250D01*
X128625Y-8000D02*X131625D01*
Y-7250D02*Y-8000D01*
X136125Y-7250D02*Y-8750D01*
Y-7250D02*X136875Y-6500D01*
X138375D01*
X139125Y-7250D01*
Y-8750D01*
X138375Y-9500D02*X139125Y-8750D01*
X136875Y-9500D02*X138375D01*
X136125Y-8750D02*X136875Y-9500D01*
X141675Y-4250D02*Y-9500D01*
Y-4250D02*X142425Y-3500D01*
X143175D01*
X140925Y-6500D02*X142425D01*
X148125Y-3500D02*Y-8750D01*
X148875Y-9500D01*
X147375Y-5750D02*X148875D01*
X150375Y-3500D02*Y-9500D01*
Y-7250D02*X151125Y-6500D01*
X152625D01*
X153375Y-7250D01*
Y-9500D01*
G54D126*X155175Y-5000D02*Y-5150D01*
G54D125*Y-7250D02*Y-9500D01*
X157425D02*X159675D01*
X160425Y-8750D01*
X159675Y-8000D02*X160425Y-8750D01*
X157425Y-8000D02*X159675D01*
X156675Y-7250D02*X157425Y-8000D01*
X156675Y-7250D02*X157425Y-6500D01*
X159675D01*
X160425Y-7250D01*
X156675Y-8750D02*X157425Y-9500D01*
X165675Y-7250D02*Y-11750D01*
X164925Y-6500D02*X165675Y-7250D01*
X166425Y-6500D01*
X167925D01*
X168675Y-7250D01*
Y-8750D01*
X167925Y-9500D02*X168675Y-8750D01*
X166425Y-9500D02*X167925D01*
X165675Y-8750D02*X166425Y-9500D01*
X172725Y-6500D02*X173475Y-7250D01*
X171225Y-6500D02*X172725D01*
X170475Y-7250D02*X171225Y-6500D01*
X170475Y-7250D02*Y-8750D01*
X171225Y-9500D01*
X173475Y-6500D02*Y-8750D01*
X174225Y-9500D01*
X171225D02*X172725D01*
X173475Y-8750D01*
X176775Y-3500D02*Y-8750D01*
X177525Y-9500D01*
X176025Y-5750D02*X177525D01*
X179025Y-3500D02*Y-9500D01*
Y-7250D02*X179775Y-6500D01*
X181275D01*
X182025Y-7250D01*
Y-9500D01*
X200750Y113500D02*Y107500D01*
X202700Y113500D02*X203750Y112450D01*
Y108550D01*
X202700Y107500D02*X203750Y108550D01*
X200000Y107500D02*X202700D01*
X200000Y113500D02*X202700D01*
X207800Y110500D02*X208550Y109750D01*
X206300Y110500D02*X207800D01*
X205550Y109750D02*X206300Y110500D01*
X205550Y109750D02*Y108250D01*
X206300Y107500D01*
X208550Y110500D02*Y108250D01*
X209300Y107500D01*
X206300D02*X207800D01*
X208550Y108250D01*
X211850Y113500D02*Y108250D01*
X212600Y107500D01*
X211100Y111250D02*X212600D01*
X214850Y107500D02*X217100D01*
X214100Y108250D02*X214850Y107500D01*
X214100Y109750D02*Y108250D01*
Y109750D02*X214850Y110500D01*
X216350D01*
X217100Y109750D01*
X214100Y109000D02*X217100D01*
Y109750D02*Y109000D01*
X218900Y111250D02*X219650D01*
X218900Y109750D02*X219650D01*
X224150Y113500D02*X227150D01*
X225650D02*Y107500D01*
X228950Y110500D02*Y108250D01*
X229700Y107500D01*
X231200D01*
X231950Y108250D01*
Y110500D02*Y108250D01*
X234500Y107500D02*X236750D01*
X233750Y108250D02*X234500Y107500D01*
X233750Y109750D02*Y108250D01*
Y109750D02*X234500Y110500D01*
X236000D01*
X236750Y109750D01*
X233750Y109000D02*X236750D01*
Y109750D02*Y109000D01*
X241250Y112750D02*X242000Y113500D01*
X244250D01*
X245000Y112750D01*
Y111250D01*
X241250Y107500D02*X245000Y111250D01*
X241250Y107500D02*X245000D01*
X246800Y112750D02*X247550Y113500D01*
X249800D01*
X250550Y112750D01*
Y111250D01*
X246800Y107500D02*X250550Y111250D01*
X246800Y107500D02*X250550D01*
X255800Y113500D02*Y107500D01*
X257750Y113500D02*X258800Y112450D01*
Y108550D01*
X257750Y107500D02*X258800Y108550D01*
X255050Y107500D02*X257750D01*
X255050Y113500D02*X257750D01*
X261350Y107500D02*X263600D01*
X260600Y108250D02*X261350Y107500D01*
X260600Y109750D02*Y108250D01*
Y109750D02*X261350Y110500D01*
X262850D01*
X263600Y109750D01*
X260600Y109000D02*X263600D01*
Y109750D02*Y109000D01*
X266150Y110500D02*X268400D01*
X265400Y109750D02*X266150Y110500D01*
X265400Y109750D02*Y108250D01*
X266150Y107500D01*
X268400D01*
X272900Y112750D02*X273650Y113500D01*
X275900D01*
X276650Y112750D01*
Y111250D01*
X272900Y107500D02*X276650Y111250D01*
X272900Y107500D02*X276650D01*
X278450Y108250D02*X279200Y107500D01*
X278450Y112750D02*Y108250D01*
Y112750D02*X279200Y113500D01*
X280700D01*
X281450Y112750D01*
Y108250D01*
X280700Y107500D02*X281450Y108250D01*
X279200Y107500D02*X280700D01*
X278450Y109000D02*X281450Y112000D01*
X283250Y112300D02*X284450Y113500D01*
Y107500D01*
X283250D02*X285500D01*
X287300Y113500D02*X290300D01*
X287300D02*Y110500D01*
X288050Y111250D01*
X289550D01*
X290300Y110500D01*
Y108250D01*
X289550Y107500D02*X290300Y108250D01*
X288050Y107500D02*X289550D01*
X287300Y108250D02*X288050Y107500D01*
X294800Y108250D02*X295550Y107500D01*
X294800Y112750D02*Y108250D01*
Y112750D02*X295550Y113500D01*
X297050D01*
X297800Y112750D01*
Y108250D01*
X297050Y107500D02*X297800Y108250D01*
X295550Y107500D02*X297050D01*
X294800Y109000D02*X297800Y112000D01*
X300350Y107500D02*X303350Y113500D01*
X299600D02*X303350D01*
X305150Y111250D02*X305900D01*
X305150Y109750D02*X305900D01*
X307700Y112300D02*X308900Y113500D01*
Y107500D01*
X307700D02*X309950D01*
X314000Y113500D02*X314750Y112750D01*
X312500Y113500D02*X314000D01*
X311750Y112750D02*X312500Y113500D01*
X311750Y112750D02*Y108250D01*
X312500Y107500D01*
X314000Y110800D02*X314750Y110050D01*
X311750Y110800D02*X314000D01*
X312500Y107500D02*X314000D01*
X314750Y108250D01*
Y110050D02*Y108250D01*
X316550Y111250D02*X317300D01*
X316550Y109750D02*X317300D01*
X319100D02*X322100Y113500D01*
X319100Y109750D02*X322850D01*
X322100Y113500D02*Y107500D01*
X324650Y112750D02*X325400Y113500D01*
X326900D01*
X327650Y112750D01*
X326900Y107500D02*X327650Y108250D01*
X325400Y107500D02*X326900D01*
X324650Y108250D02*X325400Y107500D01*
Y110800D02*X326900D01*
X327650Y112750D02*Y111550D01*
Y110050D02*Y108250D01*
Y110050D02*X326900Y110800D01*
X327650Y111550D02*X326900Y110800D01*
X332900Y113500D02*Y107500D01*
X332150Y113500D02*X335150D01*
X335900Y112750D01*
Y111250D01*
X335150Y110500D02*X335900Y111250D01*
X332900Y110500D02*X335150D01*
X337700Y113500D02*Y107500D01*
Y113500D02*X339950Y110500D01*
X342200Y113500D01*
Y107500D01*
X349700Y113500D02*X350450Y112750D01*
X347450Y113500D02*X349700D01*
X346700Y112750D02*X347450Y113500D01*
X346700Y112750D02*Y108250D01*
X347450Y107500D01*
X349700D01*
X350450Y108250D01*
Y109750D02*Y108250D01*
X349700Y110500D02*X350450Y109750D01*
X348200Y110500D02*X349700D01*
X352250Y113500D02*Y107500D01*
Y113500D02*X354500Y110500D01*
X356750Y113500D01*
Y107500D01*
X358550Y113500D02*X361550D01*
X360050D02*Y107500D01*
X366050Y113500D02*Y108250D01*
X366800Y107500D01*
X368300D01*
X369050Y108250D01*
Y113500D02*Y108250D01*
X370850Y113500D02*X373850D01*
X372350D02*Y107500D01*
X376700D02*X378650D01*
X375650Y108550D02*X376700Y107500D01*
X375650Y112450D02*Y108550D01*
Y112450D02*X376700Y113500D01*
X378650D01*
X200000Y127000D02*Y122500D01*
Y127000D02*X201050Y128500D01*
X202700D01*
X203750Y127000D01*
Y122500D01*
X200000Y125500D02*X203750D01*
X205550D02*Y123250D01*
X206300Y122500D01*
X207800D01*
X208550Y123250D01*
Y125500D02*Y123250D01*
X211100Y128500D02*Y123250D01*
X211850Y122500D01*
X210350Y126250D02*X211850D01*
X213350Y128500D02*Y122500D01*
Y124750D02*X214100Y125500D01*
X215600D01*
X216350Y124750D01*
Y122500D01*
X218150Y124750D02*Y123250D01*
Y124750D02*X218900Y125500D01*
X220400D01*
X221150Y124750D01*
Y123250D01*
X220400Y122500D02*X221150Y123250D01*
X218900Y122500D02*X220400D01*
X218150Y123250D02*X218900Y122500D01*
X223700Y124750D02*Y122500D01*
Y124750D02*X224450Y125500D01*
X225950D01*
X222950D02*X223700Y124750D01*
X227750Y126250D02*X228500D01*
X227750Y124750D02*X228500D01*
X233000Y128500D02*X234500Y122500D01*
X236000Y128500D01*
G54D126*X237800Y127000D02*Y126850D01*
G54D125*Y124750D02*Y122500D01*
X240050Y124750D02*Y122500D01*
Y124750D02*X240800Y125500D01*
X241550D01*
X242300Y124750D01*
Y122500D01*
X239300Y125500D02*X240050Y124750D01*
X244850Y125500D02*X247100D01*
X244100Y124750D02*X244850Y125500D01*
X244100Y124750D02*Y123250D01*
X244850Y122500D01*
X247100D01*
X249650D02*X251900D01*
X248900Y123250D02*X249650Y122500D01*
X248900Y124750D02*Y123250D01*
Y124750D02*X249650Y125500D01*
X251150D01*
X251900Y124750D01*
X248900Y124000D02*X251900D01*
Y124750D02*Y124000D01*
X254450Y124750D02*Y122500D01*
Y124750D02*X255200Y125500D01*
X255950D01*
X256700Y124750D01*
Y122500D01*
X253700Y125500D02*X254450Y124750D01*
X259250Y128500D02*Y123250D01*
X260000Y122500D01*
X258500Y126250D02*X260000D01*
X264200Y128500D02*Y125500D01*
X264950Y122500D01*
X266450Y125500D01*
X267950Y122500D01*
X268700Y125500D01*
Y128500D02*Y125500D01*
X271250Y122500D02*X273500D01*
X270500Y123250D02*X271250Y122500D01*
X270500Y124750D02*Y123250D01*
Y124750D02*X271250Y125500D01*
X272750D01*
X273500Y124750D01*
X270500Y124000D02*X273500D01*
Y124750D02*Y124000D01*
X277550Y125500D02*X278300Y124750D01*
X276050Y125500D02*X277550D01*
X275300Y124750D02*X276050Y125500D01*
X275300Y124750D02*Y123250D01*
X276050Y122500D01*
X278300Y125500D02*Y123250D01*
X279050Y122500D01*
X276050D02*X277550D01*
X278300Y123250D01*
X280850Y125500D02*X282350Y122500D01*
X283850Y125500D02*X282350Y122500D01*
X286400D02*X288650D01*
X285650Y123250D02*X286400Y122500D01*
X285650Y124750D02*Y123250D01*
Y124750D02*X286400Y125500D01*
X287900D01*
X288650Y124750D01*
X285650Y124000D02*X288650D01*
Y124750D02*Y124000D01*
X291200Y124750D02*Y122500D01*
Y124750D02*X291950Y125500D01*
X293450D01*
X290450D02*X291200Y124750D01*
X200000Y143500D02*X203000D01*
X201500D02*Y137500D01*
G54D126*X204800Y142000D02*Y141850D01*
G54D125*Y139750D02*Y137500D01*
X207050Y143500D02*Y138250D01*
X207800Y137500D01*
X206300Y141250D02*X207800D01*
X209300Y143500D02*Y138250D01*
X210050Y137500D01*
X212300D02*X214550D01*
X211550Y138250D02*X212300Y137500D01*
X211550Y139750D02*Y138250D01*
Y139750D02*X212300Y140500D01*
X213800D01*
X214550Y139750D01*
X211550Y139000D02*X214550D01*
Y139750D02*Y139000D01*
X216350Y141250D02*X217100D01*
X216350Y139750D02*X217100D01*
X221600Y138250D02*X222350Y137500D01*
X221600Y142750D02*X222350Y143500D01*
X221600Y142750D02*Y138250D01*
X224150Y140500D02*Y138250D01*
X224900Y137500D01*
X226400D01*
X227150Y138250D01*
Y140500D02*Y138250D01*
X229700Y139750D02*Y137500D01*
Y139750D02*X230450Y140500D01*
X231200D01*
X231950Y139750D01*
Y137500D01*
X228950Y140500D02*X229700Y139750D01*
X233750Y143500D02*Y137500D01*
Y139750D02*X236000Y137500D01*
X233750Y139750D02*X235250Y141250D01*
X238550Y139750D02*Y137500D01*
Y139750D02*X239300Y140500D01*
X240050D01*
X240800Y139750D01*
Y137500D01*
X237800Y140500D02*X238550Y139750D01*
X242600D02*Y138250D01*
Y139750D02*X243350Y140500D01*
X244850D01*
X245600Y139750D01*
Y138250D01*
X244850Y137500D02*X245600Y138250D01*
X243350Y137500D02*X244850D01*
X242600Y138250D02*X243350Y137500D01*
X247400Y140500D02*Y138250D01*
X248150Y137500D01*
X248900D01*
X249650Y138250D01*
Y140500D02*Y138250D01*
X250400Y137500D01*
X251150D01*
X251900Y138250D01*
Y140500D02*Y138250D01*
X254450Y139750D02*Y137500D01*
Y139750D02*X255200Y140500D01*
X255950D01*
X256700Y139750D01*
Y137500D01*
X253700Y140500D02*X254450Y139750D01*
X258500Y143500D02*X259250Y142750D01*
Y138250D01*
X258500Y137500D02*X259250Y138250D01*
X263750Y140500D02*X266750D01*
X271250Y143500D02*Y137500D01*
Y143500D02*X274250D01*
X271250Y140800D02*X273500D01*
X278300Y140500D02*X279050Y139750D01*
X276800Y140500D02*X278300D01*
X276050Y139750D02*X276800Y140500D01*
X276050Y139750D02*Y138250D01*
X276800Y137500D01*
X279050Y140500D02*Y138250D01*
X279800Y137500D01*
X276800D02*X278300D01*
X279050Y138250D01*
X281600Y143500D02*Y137500D01*
Y138250D02*X282350Y137500D01*
X283850D01*
X284600Y138250D01*
Y139750D02*Y138250D01*
X283850Y140500D02*X284600Y139750D01*
X282350Y140500D02*X283850D01*
X281600Y139750D02*X282350Y140500D01*
X287150Y139750D02*Y137500D01*
Y139750D02*X287900Y140500D01*
X289400D01*
X286400D02*X287150Y139750D01*
G54D126*X291200Y142000D02*Y141850D01*
G54D125*Y139750D02*Y137500D01*
X293450Y140500D02*X295700D01*
X292700Y139750D02*X293450Y140500D01*
X292700Y139750D02*Y138250D01*
X293450Y137500D01*
X295700D01*
X299750Y140500D02*X300500Y139750D01*
X298250Y140500D02*X299750D01*
X297500Y139750D02*X298250Y140500D01*
X297500Y139750D02*Y138250D01*
X298250Y137500D01*
X300500Y140500D02*Y138250D01*
X301250Y137500D01*
X298250D02*X299750D01*
X300500Y138250D01*
X303800Y143500D02*Y138250D01*
X304550Y137500D01*
X303050Y141250D02*X304550D01*
G54D126*X306050Y142000D02*Y141850D01*
G54D125*Y139750D02*Y137500D01*
X307550Y139750D02*Y138250D01*
Y139750D02*X308300Y140500D01*
X309800D01*
X310550Y139750D01*
Y138250D01*
X309800Y137500D02*X310550Y138250D01*
X308300Y137500D02*X309800D01*
X307550Y138250D02*X308300Y137500D01*
X313100Y139750D02*Y137500D01*
Y139750D02*X313850Y140500D01*
X314600D01*
X315350Y139750D01*
Y137500D01*
X312350Y140500D02*X313100Y139750D01*
X320600Y143500D02*Y137500D01*
X322550Y143500D02*X323600Y142450D01*
Y138550D01*
X322550Y137500D02*X323600Y138550D01*
X319850Y137500D02*X322550D01*
X319850Y143500D02*X322550D01*
X326150Y139750D02*Y137500D01*
Y139750D02*X326900Y140500D01*
X328400D01*
X325400D02*X326150Y139750D01*
X332450Y140500D02*X333200Y139750D01*
X330950Y140500D02*X332450D01*
X330200Y139750D02*X330950Y140500D01*
X330200Y139750D02*Y138250D01*
X330950Y137500D01*
X333200Y140500D02*Y138250D01*
X333950Y137500D01*
X330950D02*X332450D01*
X333200Y138250D01*
X335750Y140500D02*Y138250D01*
X336500Y137500D01*
X337250D01*
X338000Y138250D01*
Y140500D02*Y138250D01*
X338750Y137500D01*
X339500D01*
X340250Y138250D01*
Y140500D02*Y138250D01*
G54D126*X342050Y142000D02*Y141850D01*
G54D125*Y139750D02*Y137500D01*
X344300Y139750D02*Y137500D01*
Y139750D02*X345050Y140500D01*
X345800D01*
X346550Y139750D01*
Y137500D01*
X343550Y140500D02*X344300Y139750D01*
X350600Y140500D02*X351350Y139750D01*
X349100Y140500D02*X350600D01*
X348350Y139750D02*X349100Y140500D01*
X348350Y139750D02*Y138250D01*
X349100Y137500D01*
X350600D01*
X351350Y138250D01*
X348350Y136000D02*X349100Y135250D01*
X350600D01*
X351350Y136000D01*
Y140500D02*Y136000D01*
M02*
