G04 start of page 9 for group 7 idx 7 *
G04 Title: (unknown), spare *
G04 Creator: pcb 20140316 *
G04 CreationDate: Tue 22 Dec 2015 07:16:43 PM GMT UTC *
G04 For: vince *
G04 Format: Gerber/RS-274X *
G04 PCB-Dimensions (mil): 1950.00 850.00 *
G04 PCB-Coordinate-Origin: lower left *
%MOIN*%
%FSLAX25Y25*%
%LNGROUP7*%
%ADD97C,0.0900*%
%ADD96C,0.0910*%
%ADD95C,0.0280*%
%ADD94C,0.0360*%
%ADD93C,0.0380*%
%ADD92C,0.0350*%
%ADD91C,0.0550*%
%ADD90C,0.1100*%
%ADD89C,0.1110*%
%ADD88C,0.0560*%
%ADD87C,0.0600*%
%ADD86C,0.0001*%
G54D86*G36*
X64200Y9400D02*Y3400D01*
X70200D01*
Y9400D01*
X64200D01*
G37*
G54D87*X67200Y16400D03*
X77200Y6400D03*
Y16400D03*
X87200Y6400D03*
Y16400D03*
X97200Y6400D03*
Y16400D03*
G54D88*X98150Y33300D03*
X90250D03*
X80450D03*
G54D87*X49200Y11200D03*
G54D89*X68350Y44000D03*
G54D87*X50000Y20000D03*
Y30000D03*
Y40000D03*
Y50000D03*
Y60000D03*
Y70000D03*
G54D90*X183500Y62800D03*
G54D91*X162000Y51000D03*
X170100D03*
G54D90*X156900Y66000D03*
X130300Y62800D03*
G54D91*X151800Y51000D03*
X143700D03*
Y41200D03*
X170100D03*
G54D86*G36*
X153000Y30700D02*Y24700D01*
X159000D01*
Y30700D01*
X153000D01*
G37*
G54D87*X166000Y27700D03*
G54D89*X120050Y44000D03*
G54D86*G36*
X131400Y30600D02*Y24600D01*
X137400D01*
Y30600D01*
X131400D01*
G37*
G54D87*X144400Y27600D03*
G54D88*X107950Y33300D03*
G54D87*X107200Y6400D03*
X117200D03*
X127200D03*
X107200Y16400D03*
X117200D03*
X127200D03*
X137200D03*
X147200D03*
X157200D03*
X137200Y6400D03*
X147200D03*
X157200D03*
X167200D03*
Y16400D03*
X177200D03*
X187200D03*
X177200Y6400D03*
X187200D03*
X19200Y11200D03*
X35900Y78600D03*
X5900D03*
X10000Y70000D03*
Y60000D03*
Y50000D03*
Y40000D03*
Y30000D03*
Y20000D03*
X30400Y30300D03*
G54D92*G54D93*G54D94*G54D95*G54D96*G54D92*G54D97*G54D92*G54D97*G54D92*G54D93*G54D96*G54D93*G54D94*G54D93*G54D95*G54D92*M02*
