G04 start of page 14 for group -4078 idx -4078 *
G04 Title: (unknown), bottomsilk *
G04 Creator: pcb 20140316 *
G04 CreationDate: Tue 22 Dec 2015 07:16:43 PM GMT UTC *
G04 For: vince *
G04 Format: Gerber/RS-274X *
G04 PCB-Dimensions (mil): 1950.00 850.00 *
G04 PCB-Coordinate-Origin: lower left *
%MOIN*%
%FSLAX25Y25*%
%LNBOTTOMSILK*%
%ADD121C,0.0100*%
G54D121*X141000Y82080D02*X139080Y74400D01*
X137160Y82080D01*
X134856Y74400D02*Y82080D01*
X131976Y78240D01*
X129096Y82080D01*
Y74400D02*Y82080D01*
X126792Y78240D02*Y82080D01*
Y78240D02*X125832Y74400D01*
X123912Y78240D01*
X121992Y74400D01*
X121032Y78240D01*
Y82080D01*
X114312Y74400D02*Y82080D01*
X111432D02*X115272D01*
X111432D02*X110472Y81120D01*
Y79200D02*Y81120D01*
X111432Y78240D02*X110472Y79200D01*
X111432Y78240D02*X114312D01*
X106248Y82080D02*X108168D01*
X107208Y74400D02*Y82080D01*
X106248Y74400D02*X108168D01*
X100104Y78240D02*X103944D01*
X96840Y74400D02*Y82080D01*
X93960D02*X97800D01*
X93960D02*X93000Y81120D01*
Y79200D02*Y81120D01*
X93960Y78240D02*X93000Y79200D01*
X93960Y78240D02*X96840D01*
X86856Y82080D02*X85896Y81120D01*
X86856Y82080D02*X89736D01*
X90696Y81120D02*X89736Y82080D01*
X90696Y79200D02*Y81120D01*
Y79200D02*X89736Y78240D01*
X86856D02*X89736D01*
X86856D02*X85896Y77280D01*
Y75360D02*Y77280D01*
X86856Y74400D02*X85896Y75360D01*
X86856Y74400D02*X89736D01*
X90696Y75360D02*X89736Y74400D01*
X83592Y81120D02*X82632Y82080D01*
X79752D02*X82632D01*
X79752D02*X78792Y81120D01*
Y79200D02*Y81120D01*
X83592Y74400D02*X78792Y79200D01*
Y74400D02*X83592D01*
X73032D02*Y82080D01*
X70152Y78240D01*
X67272Y82080D01*
Y74400D02*Y82080D01*
X64968Y74400D02*Y80160D01*
X63624Y82080D01*
X61512D02*X63624D01*
X61512D02*X60168Y80160D01*
Y74400D02*Y80160D01*
Y78240D02*X64968D01*
X54024Y82080D02*X57864D01*
X54024D02*X53064Y81120D01*
Y79200D02*Y81120D01*
X54024Y78240D02*X53064Y79200D01*
X54024Y78240D02*X56904D01*
Y74400D02*Y82080D01*
X55368Y78240D02*X53064Y74400D01*
X50760D02*Y82080D01*
Y78240D02*X46920Y82080D01*
X50760Y78240D02*X46920Y74400D01*
X44616Y80544D02*X43080Y82080D01*
Y74400D02*Y82080D01*
X41736Y74400D02*X44616D01*
X173900Y82700D02*X168900Y72700D01*
X148900D02*X168900D01*
X148900D02*X143900Y82700D01*
X173900D01*
X168900Y72700D02*X163900Y82700D01*
X158900Y72700D01*
X153900Y82700D01*
X148900Y72700D01*
M02*
