G04 start of page 5 for group 3 idx 3 *
G04 Title: (unknown), signal3 *
G04 Creator: pcb 20140316 *
G04 CreationDate: Tue 22 Dec 2015 07:16:43 PM GMT UTC *
G04 For: vince *
G04 Format: Gerber/RS-274X *
G04 PCB-Dimensions (mil): 1950.00 850.00 *
G04 PCB-Coordinate-Origin: lower left *
%MOIN*%
%FSLAX25Y25*%
%LNGROUP3*%
%ADD59C,0.0900*%
%ADD58C,0.0910*%
%ADD57C,0.0280*%
%ADD56C,0.0360*%
%ADD55C,0.0380*%
%ADD54C,0.0350*%
%ADD53C,0.0550*%
%ADD52C,0.1100*%
%ADD51C,0.1110*%
%ADD50C,0.0560*%
%ADD49C,0.0600*%
%ADD48C,0.0001*%
G54D48*G36*
X64200Y9400D02*Y3400D01*
X70200D01*
Y9400D01*
X64200D01*
G37*
G54D49*X67200Y16400D03*
X77200Y6400D03*
Y16400D03*
X87200Y6400D03*
Y16400D03*
X97200Y6400D03*
Y16400D03*
G54D50*X98150Y33300D03*
X90250D03*
X80450D03*
G54D49*X49200Y11200D03*
G54D51*X68350Y44000D03*
G54D49*X50000Y20000D03*
Y30000D03*
Y40000D03*
Y50000D03*
Y60000D03*
Y70000D03*
G54D52*X183500Y62800D03*
G54D53*X162000Y51000D03*
X170100D03*
G54D52*X156900Y66000D03*
X130300Y62800D03*
G54D53*X151800Y51000D03*
X143700D03*
Y41200D03*
X170100D03*
G54D48*G36*
X153000Y30700D02*Y24700D01*
X159000D01*
Y30700D01*
X153000D01*
G37*
G54D49*X166000Y27700D03*
G54D51*X120050Y44000D03*
G54D48*G36*
X131400Y30600D02*Y24600D01*
X137400D01*
Y30600D01*
X131400D01*
G37*
G54D49*X144400Y27600D03*
G54D50*X107950Y33300D03*
G54D49*X107200Y6400D03*
X117200D03*
X127200D03*
X107200Y16400D03*
X117200D03*
X127200D03*
X137200D03*
X147200D03*
X157200D03*
X137200Y6400D03*
X147200D03*
X157200D03*
X167200D03*
Y16400D03*
X177200D03*
X187200D03*
X177200Y6400D03*
X187200D03*
X19200Y11200D03*
X35900Y78600D03*
X5900D03*
X10000Y70000D03*
Y60000D03*
Y50000D03*
Y40000D03*
Y30000D03*
Y20000D03*
X30400Y30300D03*
G54D54*G54D55*G54D56*G54D57*G54D58*G54D54*G54D59*G54D54*G54D59*G54D54*G54D55*G54D58*G54D55*G54D56*G54D55*G54D57*G54D54*M02*
