M48
INCH
T111C0.110
T110C0.125
T109C0.028
T108C0.090
T107C0.038
T106C0.035
T112C0.125
%
T109
X012000Y007250
X007750Y007750
X004750Y007750
X013000Y007250
T106
X016250Y005250
X016250Y009250
X015250Y009250
X017250Y005250
X017250Y009250
X018250Y005250
X018250Y009250
X019250Y005250
X020250Y005250
X019250Y009250
X015250Y005250
X020250Y009250
X014800Y004400
T107
X015500Y001500
X015500Y002500
X016500Y001500
X016500Y002500
X017500Y001500
X017500Y002500
X018500Y001500
X018500Y002500
X019500Y001500
X019500Y002500
X008378Y005567
X005622Y005567
X006606Y005567
X007394Y005567
X001500Y003750
X001500Y004750
X001500Y005750
X001500Y006750
X009750Y009750
X010750Y009750
X011750Y009750
X012750Y009750
X004750Y009750
X005750Y009750
X006750Y009750
X007750Y009750
X012500Y001500
X012500Y002500
X013500Y001500
X013500Y002500
X014500Y001500
X014500Y002500
X022500Y006750
X022500Y005750
X022500Y004750
X020500Y001500
X020500Y002500
X021500Y001500
X022500Y001500
X023500Y001500
X021500Y002500
X022500Y002500
X023500Y002500
X024500Y001500
X024500Y002500
T108
X009585Y004500
X004415Y004500
T111
X026750Y005500
X025550Y007400
T110
X024350Y005500
T112
X002000Y001750
X002000Y009000
X028250Y009000
X028250Y001750
M30
