G04 start of page 2 for group 0 idx 0 *
G04 Title: (unknown), top *
G04 Creator: pcb 20110918 *
G04 CreationDate: Sat 01 Feb 2014 02:35:45 AM GMT UTC *
G04 For: vince *
G04 Format: Gerber/RS-274X *
G04 PCB-Dimensions: 300000 110000 *
G04 PCB-Coordinate-Origin: lower left *
%MOIN*%
%FSLAX25Y25*%
%LNTOP*%
%ADD24C,0.1100*%
%ADD23C,0.1250*%
%ADD22C,0.0280*%
%ADD21C,0.0905*%
%ADD20C,0.0380*%
%ADD19C,0.0350*%
%ADD18C,0.1500*%
%ADD17C,0.1750*%
%ADD16C,0.0700*%
%ADD15C,0.1155*%
%ADD14C,0.0001*%
%ADD13C,0.1205*%
%ADD12C,0.0600*%
%ADD11C,0.0250*%
G54D11*X192875Y7750D02*X194375Y6250D01*
X215000Y15000D02*X220250Y9750D01*
X249125D02*X220250D01*
X251500Y6250D02*X194375D01*
X250250Y10875D02*X249125Y9750D01*
X253750Y8500D02*X251500Y6250D01*
Y33750D02*X253750Y31500D01*
X249125Y30250D02*X250250Y29125D01*
Y10875D01*
X253750Y31500D02*Y8500D01*
X243500Y55000D02*Y52250D01*
Y55000D02*Y52250D01*
Y55000D02*Y52250D01*
X249125Y30250D02*X198375D01*
X251500Y33750D02*X229375D01*
X225000Y67500D02*X220250Y62750D01*
X229750Y52250D02*X225000Y47500D01*
X206625Y59250D02*X216250Y49625D01*
X220250Y62750D03*
X230250D02*X225000Y57500D01*
X243500Y52250D02*X229750D01*
X216250Y46875D02*X229375Y33750D01*
X216250Y49625D02*Y46875D01*
X130000Y65585D02*X142750Y52835D01*
X147250Y62750D02*Y44000D01*
X148000D02*X147250D01*
X148000D02*X147250D01*
X148000D02*X147250D01*
X145000Y28000D02*X142750D01*
X145000D02*X142750D01*
X145000D02*X142750D01*
X162500Y86125D02*X162125Y85750D01*
X162500Y91000D02*Y86125D01*
X130000Y72500D02*Y65585D01*
X123085Y58670D01*
X162500Y58875D02*Y54000D01*
X142750Y52835D02*Y28000D01*
X220250Y62750D02*X147250D01*
X162875Y59250D02*X162500Y58875D01*
X182500Y51000D02*Y46125D01*
X206625Y59250D02*X162875D01*
X223625Y78250D02*X230250Y71625D01*
X207750Y86875D02*X206625Y85750D01*
X199625Y106250D02*X207750Y98125D01*
Y86875D01*
X230250Y71625D02*Y62750D01*
X178625Y102750D02*X182500Y98875D01*
X178625Y102750D02*X122750D01*
X199625Y106250D02*X86250D01*
X152500Y92250D02*X112750D01*
X182500Y98875D02*Y94000D01*
X172500Y91000D02*Y86125D01*
X162125Y85750D02*X79250D01*
X172875D02*X172500Y86125D01*
X206625Y85750D02*X172875D01*
X223625Y78250D02*X77500D01*
Y77500D01*
X123085Y58670D02*X89777D01*
X57500Y77500D02*X56223D01*
X57500Y97500D02*Y77500D01*
X28225Y47500D02*X29750Y45975D01*
X15000Y57500D02*X9750Y52250D01*
X77500Y78250D02*X57500Y77500D01*
X107500Y97500D02*X112750Y92250D01*
X67500Y97500D02*X79250Y85750D01*
X86250Y106250D02*X77500Y97500D01*
X122750Y102750D02*X117500Y97500D01*
X77500Y77500D02*Y78250D01*
X28225Y47500D02*X15000D01*
X57500Y77500D02*X56223D01*
Y55670D01*
X89777Y58670D02*X86777Y55670D01*
X135000Y15000D02*X143750Y6250D01*
X83777Y55670D02*X86777D01*
X83777D02*X86777D01*
X83777D01*
X145000Y25000D02*Y28000D01*
Y25000D02*Y28000D01*
X192875Y7750D02*X11375D01*
X145000Y25000D02*Y28000D01*
Y25000D02*Y28000D01*
X125000Y15000D02*X60725D01*
X145000Y28000D02*Y25000D01*
X194375Y6250D02*X143750D01*
X182500Y46125D02*X198375Y30250D01*
X9750Y9375D02*X11375Y7750D01*
X9750Y52250D02*Y9375D01*
X29750Y45975D02*X60725Y15000D01*
G54D12*X162500Y52500D03*
Y92500D03*
X152500D03*
X172500Y52500D03*
Y92500D03*
X182500Y52500D03*
Y92500D03*
X192500Y52500D03*
X202500D03*
X192500Y92500D03*
X155000Y15000D03*
Y25000D03*
X165000Y15000D03*
Y25000D03*
X175000Y15000D03*
Y25000D03*
X185000Y15000D03*
Y25000D03*
X195000Y15000D03*
Y25000D03*
X83777Y55670D03*
G54D13*X95850Y45000D03*
G54D14*G36*
X116500Y76000D02*Y69000D01*
X123500D01*
Y76000D01*
X116500D01*
G37*
G54D12*X56223Y55670D03*
X66063D03*
X73937D03*
G54D15*X44150Y45000D03*
G54D12*X77500Y77500D03*
X47500D03*
G54D14*G36*
X12000Y40500D02*Y34500D01*
X18000D01*
Y40500D01*
X12000D01*
G37*
G54D12*X15000Y47500D03*
Y57500D03*
Y67500D03*
G54D14*G36*
X94500Y100500D02*Y94500D01*
X100500D01*
Y100500D01*
X94500D01*
G37*
G54D12*X107500Y97500D03*
X117500D03*
X127500D03*
G54D14*G36*
X44500Y100500D02*Y94500D01*
X50500D01*
Y100500D01*
X44500D01*
G37*
G54D12*X57500Y97500D03*
X67500D03*
X77500D03*
X152500Y52500D03*
G54D16*X130000Y72500D03*
G54D14*G36*
X122000Y18000D02*Y12000D01*
X128000D01*
Y18000D01*
X122000D01*
G37*
G54D12*X125000Y25000D03*
X135000Y15000D03*
Y25000D03*
X145000Y15000D03*
Y25000D03*
X202500Y92500D03*
G54D14*G36*
X222000Y70500D02*Y64500D01*
X228000D01*
Y70500D01*
X222000D01*
G37*
G54D12*X225000Y57500D03*
Y47500D03*
X205000Y15000D03*
Y25000D03*
G54D17*X243500Y55000D03*
G54D18*X267500D03*
X255500Y74000D03*
G54D12*X215000Y15000D03*
X225000D03*
X235000D03*
X215000Y25000D03*
X225000D03*
X235000D03*
X245000Y15000D03*
Y25000D03*
X202500Y94000D02*Y91000D01*
X192500Y94000D02*Y91000D01*
X182500Y94000D02*Y91000D01*
X172500Y94000D02*Y91000D01*
X162500Y94000D02*Y91000D01*
X152500Y94000D02*Y91000D01*
X172500Y54000D02*Y51000D01*
X182500Y54000D02*Y51000D01*
X152500Y54000D02*Y51000D01*
X162500Y54000D02*Y51000D01*
X192500Y54000D02*Y51000D01*
X202500Y54000D02*Y51000D01*
X148000Y44000D03*
G54D19*G54D20*G54D21*G54D22*G54D20*G54D21*G54D22*G54D20*G54D23*G54D20*G54D23*G54D19*G54D22*G54D20*G54D19*G54D20*G54D23*G54D24*G54D23*G54D20*G54D23*G54D20*M02*
