G04 start of page 18 for group -3984 idx -3984 *
G04 Title: (unknown), fab *
G04 Creator: pcb 20110918 *
G04 CreationDate: Sat 01 Feb 2014 02:35:45 AM GMT UTC *
G04 For: vince *
G04 Format: Gerber/RS-274X *
G04 PCB-Dimensions: 300000 110000 *
G04 PCB-Coordinate-Origin: lower left *
%MOIN*%
%FSLAX25Y25*%
%LNFAB*%
%ADD139C,0.0100*%
%ADD138C,0.0075*%
%ADD137C,0.0060*%
%ADD136C,0.0080*%
G54D136*X243500Y58200D02*Y51800D01*
X240300Y55000D02*X246700D01*
X241900Y56600D02*X245100D01*
X241900D02*Y53400D01*
X245100D01*
Y56600D02*Y53400D01*
X282500Y90000D02*Y86800D01*
Y90000D02*X285273Y91600D01*
X282500Y90000D02*X279727Y91600D01*
X280900Y90000D02*G75*G03X284100Y90000I1600J0D01*G01*
G75*G03X280900Y90000I-1600J0D01*G01*
X282500Y17500D02*Y14300D01*
Y17500D02*X285273Y19100D01*
X282500Y17500D02*X279727Y19100D01*
X280900Y17500D02*G75*G03X284100Y17500I1600J0D01*G01*
G75*G03X280900Y17500I-1600J0D01*G01*
X20000Y90000D02*Y86800D01*
Y90000D02*X22773Y91600D01*
X20000Y90000D02*X17227Y91600D01*
X18400Y90000D02*G75*G03X21600Y90000I1600J0D01*G01*
G75*G03X18400Y90000I-1600J0D01*G01*
X20000Y17500D02*Y14300D01*
Y17500D02*X22773Y19100D01*
X20000Y17500D02*X17227Y19100D01*
X18400Y17500D02*G75*G03X21600Y17500I1600J0D01*G01*
G75*G03X18400Y17500I-1600J0D01*G01*
X15000Y124450D02*Y118050D01*
X11800Y121250D02*X18200D01*
X13400Y122850D02*X16600D01*
X13400D02*Y119650D01*
X16600D01*
Y122850D02*Y119650D01*
G54D137*X135000Y123500D02*X136500Y120500D01*
X138000Y123500D01*
X136500Y120500D02*Y117500D01*
X139800Y120800D02*X142050D01*
X139800Y117500D02*X142800D01*
X139800Y123500D02*Y117500D01*
Y123500D02*X142800D01*
X147600D02*X148350Y122750D01*
X145350Y123500D02*X147600D01*
X144600Y122750D02*X145350Y123500D01*
X144600Y122750D02*Y121250D01*
X145350Y120500D01*
X147600D01*
X148350Y119750D01*
Y118250D01*
X147600Y117500D02*X148350Y118250D01*
X145350Y117500D02*X147600D01*
X144600Y118250D02*X145350Y117500D01*
X98000Y122300D02*X99200Y123500D01*
Y117500D01*
X98000D02*X100250D01*
X15000Y136250D02*Y133050D01*
Y136250D02*X17773Y137850D01*
X15000Y136250D02*X12227Y137850D01*
X13400Y136250D02*G75*G03X16600Y136250I1600J0D01*G01*
G75*G03X13400Y136250I-1600J0D01*G01*
X140000Y138500D02*Y132500D01*
Y138500D02*X143750Y132500D01*
Y138500D02*Y132500D01*
X145550Y137750D02*Y133250D01*
Y137750D02*X146300Y138500D01*
X147800D01*
X148550Y137750D01*
Y133250D01*
X147800Y132500D02*X148550Y133250D01*
X146300Y132500D02*X147800D01*
X145550Y133250D02*X146300Y132500D01*
X98000Y134750D02*X101000Y138500D01*
X98000Y134750D02*X101750D01*
X101000Y138500D02*Y132500D01*
X45000Y133250D02*X45750Y132500D01*
X45000Y137750D02*Y133250D01*
Y137750D02*X45750Y138500D01*
X47250D01*
X48000Y137750D01*
Y133250D01*
X47250Y132500D02*X48000Y133250D01*
X45750Y132500D02*X47250D01*
X45000Y134000D02*X48000Y137000D01*
X49800Y132500D02*X50550D01*
X52350Y137300D02*X53550Y138500D01*
Y132500D01*
X52350D02*X54600D01*
X56400Y137750D02*X57150Y138500D01*
X59400D01*
X60150Y137750D01*
Y136250D01*
X56400Y132500D02*X60150Y136250D01*
X56400Y132500D02*X60150D01*
X61950Y138500D02*X64950D01*
X61950D02*Y135500D01*
X62700Y136250D01*
X64200D01*
X64950Y135500D01*
Y133250D01*
X64200Y132500D02*X64950Y133250D01*
X62700Y132500D02*X64200D01*
X61950Y133250D02*X62700Y132500D01*
X45000Y118250D02*X45750Y117500D01*
X45000Y122750D02*Y118250D01*
Y122750D02*X45750Y123500D01*
X47250D01*
X48000Y122750D01*
Y118250D01*
X47250Y117500D02*X48000Y118250D01*
X45750Y117500D02*X47250D01*
X45000Y119000D02*X48000Y122000D01*
X49800Y117500D02*X50550D01*
X52350Y122300D02*X53550Y123500D01*
Y117500D01*
X52350D02*X54600D01*
X56400Y122750D02*X57150Y123500D01*
X59400D01*
X60150Y122750D01*
Y121250D01*
X56400Y117500D02*X60150Y121250D01*
X56400Y117500D02*X60150D01*
X61950Y123500D02*X64950D01*
X61950D02*Y120500D01*
X62700Y121250D01*
X64200D01*
X64950Y120500D01*
Y118250D01*
X64200Y117500D02*X64950Y118250D01*
X62700Y117500D02*X64200D01*
X61950Y118250D02*X62700Y117500D01*
X265900Y56600D02*X269100D01*
X265900D02*Y53400D01*
X269100D01*
Y56600D02*Y53400D01*
X253900Y75600D02*X257100D01*
X253900D02*Y72400D01*
X257100D01*
Y75600D02*Y72400D01*
X13400Y152850D02*X16600D01*
X13400D02*Y149650D01*
X16600D01*
Y152850D02*Y149650D01*
X135000Y153500D02*X136500Y150500D01*
X138000Y153500D01*
X136500Y150500D02*Y147500D01*
X139800Y150800D02*X142050D01*
X139800Y147500D02*X142800D01*
X139800Y153500D02*Y147500D01*
Y153500D02*X142800D01*
X147600D02*X148350Y152750D01*
X145350Y153500D02*X147600D01*
X144600Y152750D02*X145350Y153500D01*
X144600Y152750D02*Y151250D01*
X145350Y150500D01*
X147600D01*
X148350Y149750D01*
Y148250D01*
X147600Y147500D02*X148350Y148250D01*
X145350Y147500D02*X147600D01*
X144600Y148250D02*X145350Y147500D01*
X98000Y152750D02*X98750Y153500D01*
X101000D01*
X101750Y152750D01*
Y151250D01*
X98000Y147500D02*X101750Y151250D01*
X98000Y147500D02*X101750D01*
X45000Y148250D02*X45750Y147500D01*
X45000Y152750D02*Y148250D01*
Y152750D02*X45750Y153500D01*
X47250D01*
X48000Y152750D01*
Y148250D01*
X47250Y147500D02*X48000Y148250D01*
X45750Y147500D02*X47250D01*
X45000Y149000D02*X48000Y152000D01*
X49800Y147500D02*X50550D01*
X52350Y152300D02*X53550Y153500D01*
Y147500D01*
X52350D02*X54600D01*
X56400Y152300D02*X57600Y153500D01*
Y147500D01*
X56400D02*X58650D01*
X60450Y148250D02*X61200Y147500D01*
X60450Y152750D02*Y148250D01*
Y152750D02*X61200Y153500D01*
X62700D01*
X63450Y152750D01*
Y148250D01*
X62700Y147500D02*X63450Y148250D01*
X61200Y147500D02*X62700D01*
X60450Y149000D02*X63450Y152000D01*
X43350Y45000D02*G75*G03X44950Y45000I800J0D01*G01*
G75*G03X43350Y45000I-800J0D01*G01*
X95050D02*G75*G03X96650Y45000I800J0D01*G01*
G75*G03X95050Y45000I-800J0D01*G01*
X14200Y166250D02*G75*G03X15800Y166250I800J0D01*G01*
G75*G03X14200Y166250I-800J0D01*G01*
X135000Y168500D02*X136500Y165500D01*
X138000Y168500D01*
X136500Y165500D02*Y162500D01*
X139800Y165800D02*X142050D01*
X139800Y162500D02*X142800D01*
X139800Y168500D02*Y162500D01*
Y168500D02*X142800D01*
X147600D02*X148350Y167750D01*
X145350Y168500D02*X147600D01*
X144600Y167750D02*X145350Y168500D01*
X144600Y167750D02*Y166250D01*
X145350Y165500D01*
X147600D01*
X148350Y164750D01*
Y163250D01*
X147600Y162500D02*X148350Y163250D01*
X145350Y162500D02*X147600D01*
X144600Y163250D02*X145350Y162500D01*
X98000Y167750D02*X98750Y168500D01*
X101000D01*
X101750Y167750D01*
Y166250D01*
X98000Y162500D02*X101750Y166250D01*
X98000Y162500D02*X101750D01*
X45000Y163250D02*X45750Y162500D01*
X45000Y167750D02*Y163250D01*
Y167750D02*X45750Y168500D01*
X47250D01*
X48000Y167750D01*
Y163250D01*
X47250Y162500D02*X48000Y163250D01*
X45750Y162500D02*X47250D01*
X45000Y164000D02*X48000Y167000D01*
X49800Y162500D02*X50550D01*
X52350Y163250D02*X53100Y162500D01*
X52350Y167750D02*Y163250D01*
Y167750D02*X53100Y168500D01*
X54600D01*
X55350Y167750D01*
Y163250D01*
X54600Y162500D02*X55350Y163250D01*
X53100Y162500D02*X54600D01*
X52350Y164000D02*X55350Y167000D01*
X57900Y162500D02*X60150Y165500D01*
Y167750D02*Y165500D01*
X59400Y168500D02*X60150Y167750D01*
X57900Y168500D02*X59400D01*
X57150Y167750D02*X57900Y168500D01*
X57150Y167750D02*Y166250D01*
X57900Y165500D01*
X60150D01*
X61950Y167300D02*X63150Y168500D01*
Y162500D01*
X61950D02*X64200D01*
X55023Y56870D02*X57423Y54470D01*
X55023D02*X57423Y56870D01*
X64863D02*X67263Y54470D01*
X64863D02*X67263Y56870D01*
X72737D02*X75137Y54470D01*
X72737D02*X75137Y56870D01*
X82577D02*X84977Y54470D01*
X82577D02*X84977Y56870D01*
X223800Y68700D02*X226200Y66300D01*
X223800D02*X226200Y68700D01*
X223800Y58700D02*X226200Y56300D01*
X223800D02*X226200Y58700D01*
X223800Y48700D02*X226200Y46300D01*
X223800D02*X226200Y48700D01*
X96300Y98700D02*X98700Y96300D01*
X96300D02*X98700Y98700D01*
X106300D02*X108700Y96300D01*
X106300D02*X108700Y98700D01*
X116300D02*X118700Y96300D01*
X116300D02*X118700Y98700D01*
X126300D02*X128700Y96300D01*
X126300D02*X128700Y98700D01*
X46300D02*X48700Y96300D01*
X46300D02*X48700Y98700D01*
X56300D02*X58700Y96300D01*
X56300D02*X58700Y98700D01*
X66300D02*X68700Y96300D01*
X66300D02*X68700Y98700D01*
X76300D02*X78700Y96300D01*
X76300D02*X78700Y98700D01*
X13800Y38700D02*X16200Y36300D01*
X13800D02*X16200Y38700D01*
X13800Y48700D02*X16200Y46300D01*
X13800D02*X16200Y48700D01*
X13800Y58700D02*X16200Y56300D01*
X13800D02*X16200Y58700D01*
X13800Y68700D02*X16200Y66300D01*
X13800D02*X16200Y68700D01*
X123800Y16200D02*X126200Y13800D01*
X123800D02*X126200Y16200D01*
X123800Y26200D02*X126200Y23800D01*
X123800D02*X126200Y26200D01*
X133800Y16200D02*X136200Y13800D01*
X133800D02*X136200Y16200D01*
X133800Y26200D02*X136200Y23800D01*
X133800D02*X136200Y26200D01*
X143800Y16200D02*X146200Y13800D01*
X143800D02*X146200Y16200D01*
X143800Y26200D02*X146200Y23800D01*
X143800D02*X146200Y26200D01*
X153800Y16200D02*X156200Y13800D01*
X153800D02*X156200Y16200D01*
X153800Y26200D02*X156200Y23800D01*
X153800D02*X156200Y26200D01*
X163800Y16200D02*X166200Y13800D01*
X163800D02*X166200Y16200D01*
X163800Y26200D02*X166200Y23800D01*
X163800D02*X166200Y26200D01*
X173800Y16200D02*X176200Y13800D01*
X173800D02*X176200Y16200D01*
X173800Y26200D02*X176200Y23800D01*
X173800D02*X176200Y26200D01*
X183800Y16200D02*X186200Y13800D01*
X183800D02*X186200Y16200D01*
X183800Y26200D02*X186200Y23800D01*
X183800D02*X186200Y26200D01*
X193800Y16200D02*X196200Y13800D01*
X193800D02*X196200Y16200D01*
X193800Y26200D02*X196200Y23800D01*
X193800D02*X196200Y26200D01*
X203800Y16200D02*X206200Y13800D01*
X203800D02*X206200Y16200D01*
X203800Y26200D02*X206200Y23800D01*
X203800D02*X206200Y26200D01*
X213800Y16200D02*X216200Y13800D01*
X213800D02*X216200Y16200D01*
X213800Y26200D02*X216200Y23800D01*
X213800D02*X216200Y26200D01*
X223800Y16200D02*X226200Y13800D01*
X223800D02*X226200Y16200D01*
X223800Y26200D02*X226200Y23800D01*
X223800D02*X226200Y26200D01*
X233800Y16200D02*X236200Y13800D01*
X233800D02*X236200Y16200D01*
X233800Y26200D02*X236200Y23800D01*
X233800D02*X236200Y26200D01*
X243800Y16200D02*X246200Y13800D01*
X243800D02*X246200Y16200D01*
X243800Y26200D02*X246200Y23800D01*
X243800D02*X246200Y26200D01*
X13800Y182450D02*X16200Y180050D01*
X13800D02*X16200Y182450D01*
X135000Y183500D02*X136500Y180500D01*
X138000Y183500D01*
X136500Y180500D02*Y177500D01*
X139800Y180800D02*X142050D01*
X139800Y177500D02*X142800D01*
X139800Y183500D02*Y177500D01*
Y183500D02*X142800D01*
X147600D02*X148350Y182750D01*
X145350Y183500D02*X147600D01*
X144600Y182750D02*X145350Y183500D01*
X144600Y182750D02*Y181250D01*
X145350Y180500D01*
X147600D01*
X148350Y179750D01*
Y178250D01*
X147600Y177500D02*X148350Y178250D01*
X145350Y177500D02*X147600D01*
X144600Y178250D02*X145350Y177500D01*
X98000Y179750D02*X101000Y183500D01*
X98000Y179750D02*X101750D01*
X101000Y183500D02*Y177500D01*
X103550Y183500D02*X106550D01*
X103550D02*Y180500D01*
X104300Y181250D01*
X105800D01*
X106550Y180500D01*
Y178250D01*
X105800Y177500D02*X106550Y178250D01*
X104300Y177500D02*X105800D01*
X103550Y178250D02*X104300Y177500D01*
X45000Y178250D02*X45750Y177500D01*
X45000Y182750D02*Y178250D01*
Y182750D02*X45750Y183500D01*
X47250D01*
X48000Y182750D01*
Y178250D01*
X47250Y177500D02*X48000Y178250D01*
X45750Y177500D02*X47250D01*
X45000Y179000D02*X48000Y182000D01*
X49800Y177500D02*X50550D01*
X52350Y178250D02*X53100Y177500D01*
X52350Y182750D02*Y178250D01*
Y182750D02*X53100Y183500D01*
X54600D01*
X55350Y182750D01*
Y178250D01*
X54600Y177500D02*X55350Y178250D01*
X53100Y177500D02*X54600D01*
X52350Y179000D02*X55350Y182000D01*
X57150Y182750D02*X57900Y183500D01*
X59400D01*
X60150Y182750D01*
X59400Y177500D02*X60150Y178250D01*
X57900Y177500D02*X59400D01*
X57150Y178250D02*X57900Y177500D01*
Y180800D02*X59400D01*
X60150Y182750D02*Y181550D01*
Y180050D02*Y178250D01*
Y180050D02*X59400Y180800D01*
X60150Y181550D02*X59400Y180800D01*
X61950Y178250D02*X62700Y177500D01*
X61950Y179450D02*Y178250D01*
Y179450D02*X63000Y180500D01*
X63900D01*
X64950Y179450D01*
Y178250D01*
X64200Y177500D02*X64950Y178250D01*
X62700Y177500D02*X64200D01*
X61950Y181550D02*X63000Y180500D01*
X61950Y182750D02*Y181550D01*
Y182750D02*X62700Y183500D01*
X64200D01*
X64950Y182750D01*
Y181550D01*
X63900Y180500D02*X64950Y181550D01*
X152500Y54100D02*Y50900D01*
X150900Y52500D02*X154100D01*
X162500Y54100D02*Y50900D01*
X160900Y52500D02*X164100D01*
X172500Y54100D02*Y50900D01*
X170900Y52500D02*X174100D01*
X182500Y54100D02*Y50900D01*
X180900Y52500D02*X184100D01*
X192500Y54100D02*Y50900D01*
X190900Y52500D02*X194100D01*
X202500Y54100D02*Y50900D01*
X200900Y52500D02*X204100D01*
X202500Y94100D02*Y90900D01*
X200900Y92500D02*X204100D01*
X192500Y94100D02*Y90900D01*
X190900Y92500D02*X194100D01*
X182500Y94100D02*Y90900D01*
X180900Y92500D02*X184100D01*
X172500Y94100D02*Y90900D01*
X170900Y92500D02*X174100D01*
X162500Y94100D02*Y90900D01*
X160900Y92500D02*X164100D01*
X152500Y94100D02*Y90900D01*
X150900Y92500D02*X154100D01*
X148000Y45600D02*Y42400D01*
X146400Y44000D02*X149600D01*
X15000Y197850D02*Y194650D01*
X13400Y196250D02*X16600D01*
X135000Y198500D02*X136500Y195500D01*
X138000Y198500D01*
X136500Y195500D02*Y192500D01*
X139800Y195800D02*X142050D01*
X139800Y192500D02*X142800D01*
X139800Y198500D02*Y192500D01*
Y198500D02*X142800D01*
X147600D02*X148350Y197750D01*
X145350Y198500D02*X147600D01*
X144600Y197750D02*X145350Y198500D01*
X144600Y197750D02*Y196250D01*
X145350Y195500D01*
X147600D01*
X148350Y194750D01*
Y193250D01*
X147600Y192500D02*X148350Y193250D01*
X145350Y192500D02*X147600D01*
X144600Y193250D02*X145350Y192500D01*
X98000Y197300D02*X99200Y198500D01*
Y192500D01*
X98000D02*X100250D01*
X102050Y197750D02*X102800Y198500D01*
X104300D01*
X105050Y197750D01*
X104300Y192500D02*X105050Y193250D01*
X102800Y192500D02*X104300D01*
X102050Y193250D02*X102800Y192500D01*
Y195800D02*X104300D01*
X105050Y197750D02*Y196550D01*
Y195050D02*Y193250D01*
Y195050D02*X104300Y195800D01*
X105050Y196550D02*X104300Y195800D01*
X45000Y193250D02*X45750Y192500D01*
X45000Y197750D02*Y193250D01*
Y197750D02*X45750Y198500D01*
X47250D01*
X48000Y197750D01*
Y193250D01*
X47250Y192500D02*X48000Y193250D01*
X45750Y192500D02*X47250D01*
X45000Y194000D02*X48000Y197000D01*
X49800Y192500D02*X50550D01*
X52350Y193250D02*X53100Y192500D01*
X52350Y197750D02*Y193250D01*
Y197750D02*X53100Y198500D01*
X54600D01*
X55350Y197750D01*
Y193250D01*
X54600Y192500D02*X55350Y193250D01*
X53100Y192500D02*X54600D01*
X52350Y194000D02*X55350Y197000D01*
X57150Y197750D02*X57900Y198500D01*
X59400D01*
X60150Y197750D01*
X59400Y192500D02*X60150Y193250D01*
X57900Y192500D02*X59400D01*
X57150Y193250D02*X57900Y192500D01*
Y195800D02*X59400D01*
X60150Y197750D02*Y196550D01*
Y195050D02*Y193250D01*
Y195050D02*X59400Y195800D01*
X60150Y196550D02*X59400Y195800D01*
X61950Y198500D02*X64950D01*
X61950D02*Y195500D01*
X62700Y196250D01*
X64200D01*
X64950Y195500D01*
Y193250D01*
X64200Y192500D02*X64950Y193250D01*
X62700Y192500D02*X64200D01*
X61950Y193250D02*X62700Y192500D01*
X77500Y77500D02*Y75900D01*
Y77500D02*X78887Y78300D01*
X77500Y77500D02*X76113Y78300D01*
X47500Y77500D02*Y75900D01*
Y77500D02*X48887Y78300D01*
X47500Y77500D02*X46113Y78300D01*
X120000Y72500D02*Y70900D01*
Y72500D02*X121387Y73300D01*
X120000Y72500D02*X118613Y73300D01*
X130000Y72500D02*Y70900D01*
Y72500D02*X131387Y73300D01*
X130000Y72500D02*X128613Y73300D01*
X15000Y211250D02*Y209650D01*
Y211250D02*X16387Y212050D01*
X15000Y211250D02*X13613Y212050D01*
X135000Y213500D02*X136500Y210500D01*
X138000Y213500D01*
X136500Y210500D02*Y207500D01*
X139800Y210800D02*X142050D01*
X139800Y207500D02*X142800D01*
X139800Y213500D02*Y207500D01*
Y213500D02*X142800D01*
X147600D02*X148350Y212750D01*
X145350Y213500D02*X147600D01*
X144600Y212750D02*X145350Y213500D01*
X144600Y212750D02*Y211250D01*
X145350Y210500D01*
X147600D01*
X148350Y209750D01*
Y208250D01*
X147600Y207500D02*X148350Y208250D01*
X145350Y207500D02*X147600D01*
X144600Y208250D02*X145350Y207500D01*
X98000Y209750D02*X101000Y213500D01*
X98000Y209750D02*X101750D01*
X101000Y213500D02*Y207500D01*
X45000Y208250D02*X45750Y207500D01*
X45000Y212750D02*Y208250D01*
Y212750D02*X45750Y213500D01*
X47250D01*
X48000Y212750D01*
Y208250D01*
X47250Y207500D02*X48000Y208250D01*
X45750Y207500D02*X47250D01*
X45000Y209000D02*X48000Y212000D01*
X49800Y207500D02*X50550D01*
X52350Y208250D02*X53100Y207500D01*
X52350Y212750D02*Y208250D01*
Y212750D02*X53100Y213500D01*
X54600D01*
X55350Y212750D01*
Y208250D01*
X54600Y207500D02*X55350Y208250D01*
X53100Y207500D02*X54600D01*
X52350Y209000D02*X55350Y212000D01*
X57150Y212750D02*X57900Y213500D01*
X60150D01*
X60900Y212750D01*
Y211250D01*
X57150Y207500D02*X60900Y211250D01*
X57150Y207500D02*X60900D01*
X62700Y208250D02*X63450Y207500D01*
X62700Y209450D02*Y208250D01*
Y209450D02*X63750Y210500D01*
X64650D01*
X65700Y209450D01*
Y208250D01*
X64950Y207500D02*X65700Y208250D01*
X63450Y207500D02*X64950D01*
X62700Y211550D02*X63750Y210500D01*
X62700Y212750D02*Y211550D01*
Y212750D02*X63450Y213500D01*
X64950D01*
X65700Y212750D01*
Y211550D01*
X64650Y210500D02*X65700Y211550D01*
X3000Y228500D02*X3750Y227750D01*
X750Y228500D02*X3000D01*
X0Y227750D02*X750Y228500D01*
X0Y227750D02*Y226250D01*
X750Y225500D01*
X3000D01*
X3750Y224750D01*
Y223250D01*
X3000Y222500D02*X3750Y223250D01*
X750Y222500D02*X3000D01*
X0Y223250D02*X750Y222500D01*
X5550Y225500D02*Y223250D01*
X6300Y222500D01*
X8550Y225500D02*Y221000D01*
X7800Y220250D02*X8550Y221000D01*
X6300Y220250D02*X7800D01*
X5550Y221000D02*X6300Y220250D01*
Y222500D02*X7800D01*
X8550Y223250D01*
X11100Y224750D02*Y222500D01*
Y224750D02*X11850Y225500D01*
X12600D01*
X13350Y224750D01*
Y222500D01*
Y224750D02*X14100Y225500D01*
X14850D01*
X15600Y224750D01*
Y222500D01*
X10350Y225500D02*X11100Y224750D01*
X17400Y228500D02*Y222500D01*
Y223250D02*X18150Y222500D01*
X19650D01*
X20400Y223250D01*
Y224750D02*Y223250D01*
X19650Y225500D02*X20400Y224750D01*
X18150Y225500D02*X19650D01*
X17400Y224750D02*X18150Y225500D01*
X22200Y224750D02*Y223250D01*
Y224750D02*X22950Y225500D01*
X24450D01*
X25200Y224750D01*
Y223250D01*
X24450Y222500D02*X25200Y223250D01*
X22950Y222500D02*X24450D01*
X22200Y223250D02*X22950Y222500D01*
X27000Y228500D02*Y223250D01*
X27750Y222500D01*
X0Y219250D02*X29250D01*
X41750Y228500D02*Y222500D01*
X43700Y228500D02*X44750Y227450D01*
Y223550D01*
X43700Y222500D02*X44750Y223550D01*
X41000Y222500D02*X43700D01*
X41000Y228500D02*X43700D01*
G54D138*X46550Y227000D02*Y226850D01*
G54D137*Y224750D02*Y222500D01*
X50300Y225500D02*X51050Y224750D01*
X48800Y225500D02*X50300D01*
X48050Y224750D02*X48800Y225500D01*
X48050Y224750D02*Y223250D01*
X48800Y222500D01*
X51050Y225500D02*Y223250D01*
X51800Y222500D01*
X48800D02*X50300D01*
X51050Y223250D01*
X54350Y224750D02*Y222500D01*
Y224750D02*X55100Y225500D01*
X55850D01*
X56600Y224750D01*
Y222500D01*
Y224750D02*X57350Y225500D01*
X58100D01*
X58850Y224750D01*
Y222500D01*
X53600Y225500D02*X54350Y224750D01*
X60650Y222500D02*X61400D01*
X65900Y223250D02*X66650Y222500D01*
X65900Y227750D02*X66650Y228500D01*
X65900Y227750D02*Y223250D01*
X68450Y228500D02*X69950D01*
X69200D02*Y222500D01*
X68450D02*X69950D01*
X72500Y224750D02*Y222500D01*
Y224750D02*X73250Y225500D01*
X74000D01*
X74750Y224750D01*
Y222500D01*
X71750Y225500D02*X72500Y224750D01*
X77300Y225500D02*X79550D01*
X76550Y224750D02*X77300Y225500D01*
X76550Y224750D02*Y223250D01*
X77300Y222500D01*
X79550D01*
X81350Y228500D02*Y222500D01*
Y224750D02*X82100Y225500D01*
X83600D01*
X84350Y224750D01*
Y222500D01*
X86150Y228500D02*X86900Y227750D01*
Y223250D01*
X86150Y222500D02*X86900Y223250D01*
X41000Y219250D02*X88700D01*
X96050Y222500D02*X98000D01*
X95000Y223550D02*X96050Y222500D01*
X95000Y227450D02*Y223550D01*
Y227450D02*X96050Y228500D01*
X98000D01*
X99800Y224750D02*Y223250D01*
Y224750D02*X100550Y225500D01*
X102050D01*
X102800Y224750D01*
Y223250D01*
X102050Y222500D02*X102800Y223250D01*
X100550Y222500D02*X102050D01*
X99800Y223250D02*X100550Y222500D01*
X104600Y225500D02*Y223250D01*
X105350Y222500D01*
X106850D01*
X107600Y223250D01*
Y225500D02*Y223250D01*
X110150Y224750D02*Y222500D01*
Y224750D02*X110900Y225500D01*
X111650D01*
X112400Y224750D01*
Y222500D01*
X109400Y225500D02*X110150Y224750D01*
X114950Y228500D02*Y223250D01*
X115700Y222500D01*
X114200Y226250D02*X115700D01*
X95000Y219250D02*X117200D01*
X130750Y228500D02*Y222500D01*
X130000Y228500D02*X133000D01*
X133750Y227750D01*
Y226250D01*
X133000Y225500D02*X133750Y226250D01*
X130750Y225500D02*X133000D01*
X135550Y228500D02*Y223250D01*
X136300Y222500D01*
X140050Y225500D02*X140800Y224750D01*
X138550Y225500D02*X140050D01*
X137800Y224750D02*X138550Y225500D01*
X137800Y224750D02*Y223250D01*
X138550Y222500D01*
X140800Y225500D02*Y223250D01*
X141550Y222500D01*
X138550D02*X140050D01*
X140800Y223250D01*
X144100Y228500D02*Y223250D01*
X144850Y222500D01*
X143350Y226250D02*X144850D01*
X147100Y222500D02*X149350D01*
X146350Y223250D02*X147100Y222500D01*
X146350Y224750D02*Y223250D01*
Y224750D02*X147100Y225500D01*
X148600D01*
X149350Y224750D01*
X146350Y224000D02*X149350D01*
Y224750D02*Y224000D01*
X154150Y228500D02*Y222500D01*
X153400D02*X154150Y223250D01*
X151900Y222500D02*X153400D01*
X151150Y223250D02*X151900Y222500D01*
X151150Y224750D02*Y223250D01*
Y224750D02*X151900Y225500D01*
X153400D01*
X154150Y224750D01*
X157450Y225500D02*Y224750D01*
Y223250D02*Y222500D01*
X155950Y227750D02*Y227000D01*
Y227750D02*X156700Y228500D01*
X158200D01*
X158950Y227750D01*
Y227000D01*
X157450Y225500D02*X158950Y227000D01*
X130000Y219250D02*X160750D01*
X0Y243500D02*X3000D01*
X1500D02*Y237500D01*
X4800Y243500D02*Y237500D01*
Y239750D02*X5550Y240500D01*
X7050D01*
X7800Y239750D01*
Y237500D01*
X10350D02*X12600D01*
X9600Y238250D02*X10350Y237500D01*
X9600Y239750D02*Y238250D01*
Y239750D02*X10350Y240500D01*
X11850D01*
X12600Y239750D01*
X9600Y239000D02*X12600D01*
Y239750D02*Y239000D01*
X15150Y239750D02*Y237500D01*
Y239750D02*X15900Y240500D01*
X17400D01*
X14400D02*X15150Y239750D01*
X19950Y237500D02*X22200D01*
X19200Y238250D02*X19950Y237500D01*
X19200Y239750D02*Y238250D01*
Y239750D02*X19950Y240500D01*
X21450D01*
X22200Y239750D01*
X19200Y239000D02*X22200D01*
Y239750D02*Y239000D01*
X28950Y240500D02*X29700Y239750D01*
X27450Y240500D02*X28950D01*
X26700Y239750D02*X27450Y240500D01*
X26700Y239750D02*Y238250D01*
X27450Y237500D01*
X29700Y240500D02*Y238250D01*
X30450Y237500D01*
X27450D02*X28950D01*
X29700Y238250D01*
X33000Y239750D02*Y237500D01*
Y239750D02*X33750Y240500D01*
X35250D01*
X32250D02*X33000Y239750D01*
X37800Y237500D02*X40050D01*
X37050Y238250D02*X37800Y237500D01*
X37050Y239750D02*Y238250D01*
Y239750D02*X37800Y240500D01*
X39300D01*
X40050Y239750D01*
X37050Y239000D02*X40050D01*
Y239750D02*Y239000D01*
X46800Y243500D02*X47550Y242750D01*
X45300Y243500D02*X46800D01*
X44550Y242750D02*X45300Y243500D01*
X44550Y242750D02*Y238250D01*
X45300Y237500D01*
X46800Y240800D02*X47550Y240050D01*
X44550Y240800D02*X46800D01*
X45300Y237500D02*X46800D01*
X47550Y238250D01*
Y240050D02*Y238250D01*
X55050Y243500D02*Y237500D01*
X54300D02*X55050Y238250D01*
X52800Y237500D02*X54300D01*
X52050Y238250D02*X52800Y237500D01*
X52050Y239750D02*Y238250D01*
Y239750D02*X52800Y240500D01*
X54300D01*
X55050Y239750D01*
G54D138*X56850Y242000D02*Y241850D01*
G54D137*Y239750D02*Y237500D01*
X59100Y242750D02*Y237500D01*
Y242750D02*X59850Y243500D01*
X60600D01*
X58350Y240500D02*X59850D01*
X62850Y242750D02*Y237500D01*
Y242750D02*X63600Y243500D01*
X64350D01*
X62100Y240500D02*X63600D01*
X66600Y237500D02*X68850D01*
X65850Y238250D02*X66600Y237500D01*
X65850Y239750D02*Y238250D01*
Y239750D02*X66600Y240500D01*
X68100D01*
X68850Y239750D01*
X65850Y239000D02*X68850D01*
Y239750D02*Y239000D01*
X71400Y239750D02*Y237500D01*
Y239750D02*X72150Y240500D01*
X73650D01*
X70650D02*X71400Y239750D01*
X76200Y237500D02*X78450D01*
X75450Y238250D02*X76200Y237500D01*
X75450Y239750D02*Y238250D01*
Y239750D02*X76200Y240500D01*
X77700D01*
X78450Y239750D01*
X75450Y239000D02*X78450D01*
Y239750D02*Y239000D01*
X81000Y239750D02*Y237500D01*
Y239750D02*X81750Y240500D01*
X82500D01*
X83250Y239750D01*
Y237500D01*
X80250Y240500D02*X81000Y239750D01*
X85800Y243500D02*Y238250D01*
X86550Y237500D01*
X85050Y241250D02*X86550D01*
X93750Y243500D02*Y237500D01*
X93000D02*X93750Y238250D01*
X91500Y237500D02*X93000D01*
X90750Y238250D02*X91500Y237500D01*
X90750Y239750D02*Y238250D01*
Y239750D02*X91500Y240500D01*
X93000D01*
X93750Y239750D01*
X96300D02*Y237500D01*
Y239750D02*X97050Y240500D01*
X98550D01*
X95550D02*X96300Y239750D01*
G54D138*X100350Y242000D02*Y241850D01*
G54D137*Y239750D02*Y237500D01*
X101850Y243500D02*Y238250D01*
X102600Y237500D01*
X104100Y243500D02*Y238250D01*
X104850Y237500D01*
X109800D02*X112050D01*
X112800Y238250D01*
X112050Y239000D02*X112800Y238250D01*
X109800Y239000D02*X112050D01*
X109050Y239750D02*X109800Y239000D01*
X109050Y239750D02*X109800Y240500D01*
X112050D01*
X112800Y239750D01*
X109050Y238250D02*X109800Y237500D01*
G54D138*X114600Y242000D02*Y241850D01*
G54D137*Y239750D02*Y237500D01*
X116100Y240500D02*X119100D01*
X116100Y237500D02*X119100Y240500D01*
X116100Y237500D02*X119100D01*
X121650D02*X123900D01*
X120900Y238250D02*X121650Y237500D01*
X120900Y239750D02*Y238250D01*
Y239750D02*X121650Y240500D01*
X123150D01*
X123900Y239750D01*
X120900Y239000D02*X123900D01*
Y239750D02*Y239000D01*
X126450Y237500D02*X128700D01*
X129450Y238250D01*
X128700Y239000D02*X129450Y238250D01*
X126450Y239000D02*X128700D01*
X125700Y239750D02*X126450Y239000D01*
X125700Y239750D02*X126450Y240500D01*
X128700D01*
X129450Y239750D01*
X125700Y238250D02*X126450Y237500D01*
X133950Y240500D02*Y238250D01*
X134700Y237500D01*
X136200D01*
X136950Y238250D01*
Y240500D02*Y238250D01*
X139500Y237500D02*X141750D01*
X142500Y238250D01*
X141750Y239000D02*X142500Y238250D01*
X139500Y239000D02*X141750D01*
X138750Y239750D02*X139500Y239000D01*
X138750Y239750D02*X139500Y240500D01*
X141750D01*
X142500Y239750D01*
X138750Y238250D02*X139500Y237500D01*
X145050D02*X147300D01*
X144300Y238250D02*X145050Y237500D01*
X144300Y239750D02*Y238250D01*
Y239750D02*X145050Y240500D01*
X146550D01*
X147300Y239750D01*
X144300Y239000D02*X147300D01*
Y239750D02*Y239000D01*
X152100Y243500D02*Y237500D01*
X151350D02*X152100Y238250D01*
X149850Y237500D02*X151350D01*
X149100Y238250D02*X149850Y237500D01*
X149100Y239750D02*Y238250D01*
Y239750D02*X149850Y240500D01*
X151350D01*
X152100Y239750D01*
G54D138*X156600Y242000D02*Y241850D01*
G54D137*Y239750D02*Y237500D01*
X158850Y239750D02*Y237500D01*
Y239750D02*X159600Y240500D01*
X160350D01*
X161100Y239750D01*
Y237500D01*
X158100Y240500D02*X158850Y239750D01*
X166350Y243500D02*Y238250D01*
X167100Y237500D01*
X165600Y241250D02*X167100D01*
X168600Y243500D02*Y237500D01*
Y239750D02*X169350Y240500D01*
X170850D01*
X171600Y239750D01*
Y237500D01*
G54D138*X173400Y242000D02*Y241850D01*
G54D137*Y239750D02*Y237500D01*
X175650D02*X177900D01*
X178650Y238250D01*
X177900Y239000D02*X178650Y238250D01*
X175650Y239000D02*X177900D01*
X174900Y239750D02*X175650Y239000D01*
X174900Y239750D02*X175650Y240500D01*
X177900D01*
X178650Y239750D01*
X174900Y238250D02*X175650Y237500D01*
X183150Y243500D02*Y238250D01*
X183900Y237500D01*
X187650Y240500D02*X188400Y239750D01*
X186150Y240500D02*X187650D01*
X185400Y239750D02*X186150Y240500D01*
X185400Y239750D02*Y238250D01*
X186150Y237500D01*
X188400Y240500D02*Y238250D01*
X189150Y237500D01*
X186150D02*X187650D01*
X188400Y238250D01*
X190950Y240500D02*Y238250D01*
X191700Y237500D01*
X193950Y240500D02*Y236000D01*
X193200Y235250D02*X193950Y236000D01*
X191700Y235250D02*X193200D01*
X190950Y236000D02*X191700Y235250D01*
Y237500D02*X193200D01*
X193950Y238250D01*
X195750Y239750D02*Y238250D01*
Y239750D02*X196500Y240500D01*
X198000D01*
X198750Y239750D01*
Y238250D01*
X198000Y237500D02*X198750Y238250D01*
X196500Y237500D02*X198000D01*
X195750Y238250D02*X196500Y237500D01*
X200550Y240500D02*Y238250D01*
X201300Y237500D01*
X202800D01*
X203550Y238250D01*
Y240500D02*Y238250D01*
X206100Y243500D02*Y238250D01*
X206850Y237500D01*
X205350Y241250D02*X206850D01*
X208350Y236000D02*X209850Y237500D01*
X215100D02*X218100Y243500D01*
X214350D02*X218100D01*
X219900Y242300D02*X221100Y243500D01*
Y237500D01*
X219900D02*X222150D01*
X226650Y243500D02*Y237500D01*
Y239750D02*X227400Y240500D01*
X228900D01*
X229650Y239750D01*
Y237500D01*
X231450Y239750D02*Y238250D01*
Y239750D02*X232200Y240500D01*
X233700D01*
X234450Y239750D01*
Y238250D01*
X233700Y237500D02*X234450Y238250D01*
X232200Y237500D02*X233700D01*
X231450Y238250D02*X232200Y237500D01*
X236250Y243500D02*Y238250D01*
X237000Y237500D01*
X239250D02*X241500D01*
X238500Y238250D02*X239250Y237500D01*
X238500Y239750D02*Y238250D01*
Y239750D02*X239250Y240500D01*
X240750D01*
X241500Y239750D01*
X238500Y239000D02*X241500D01*
Y239750D02*Y239000D01*
X244050Y237500D02*X246300D01*
X247050Y238250D01*
X246300Y239000D02*X247050Y238250D01*
X244050Y239000D02*X246300D01*
X243300Y239750D02*X244050Y239000D01*
X243300Y239750D02*X244050Y240500D01*
X246300D01*
X247050Y239750D01*
X243300Y238250D02*X244050Y237500D01*
X252300Y243500D02*Y238250D01*
X253050Y237500D01*
X251550Y241250D02*X253050D01*
X254550Y239750D02*Y238250D01*
Y239750D02*X255300Y240500D01*
X256800D01*
X257550Y239750D01*
Y238250D01*
X256800Y237500D02*X257550Y238250D01*
X255300Y237500D02*X256800D01*
X254550Y238250D02*X255300Y237500D01*
X260100Y243500D02*Y238250D01*
X260850Y237500D01*
X259350Y241250D02*X260850D01*
X264600Y240500D02*X265350Y239750D01*
X263100Y240500D02*X264600D01*
X262350Y239750D02*X263100Y240500D01*
X262350Y239750D02*Y238250D01*
X263100Y237500D01*
X265350Y240500D02*Y238250D01*
X266100Y237500D01*
X263100D02*X264600D01*
X265350Y238250D01*
X267900Y243500D02*Y238250D01*
X268650Y237500D01*
G54D139*X0Y110000D02*X300000D01*
X0D02*Y0D01*
X300000Y110000D02*Y0D01*
X0D02*X300000D01*
G54D137*X200000Y123500D02*Y117500D01*
Y123500D02*X202250Y120500D01*
X204500Y123500D01*
Y117500D01*
X208550Y120500D02*X209300Y119750D01*
X207050Y120500D02*X208550D01*
X206300Y119750D02*X207050Y120500D01*
X206300Y119750D02*Y118250D01*
X207050Y117500D01*
X209300Y120500D02*Y118250D01*
X210050Y117500D01*
X207050D02*X208550D01*
X209300Y118250D01*
X211850Y120500D02*X214850Y117500D01*
X211850D02*X214850Y120500D01*
G54D138*X216650Y122000D02*Y121850D01*
G54D137*Y119750D02*Y117500D01*
X218900Y119750D02*Y117500D01*
Y119750D02*X219650Y120500D01*
X220400D01*
X221150Y119750D01*
Y117500D01*
Y119750D02*X221900Y120500D01*
X222650D01*
X223400Y119750D01*
Y117500D01*
X218150Y120500D02*X218900Y119750D01*
X225200Y120500D02*Y118250D01*
X225950Y117500D01*
X227450D01*
X228200Y118250D01*
Y120500D02*Y118250D01*
X230750Y119750D02*Y117500D01*
Y119750D02*X231500Y120500D01*
X232250D01*
X233000Y119750D01*
Y117500D01*
Y119750D02*X233750Y120500D01*
X234500D01*
X235250Y119750D01*
Y117500D01*
X230000Y120500D02*X230750Y119750D01*
X240500Y123500D02*Y117500D01*
X242450Y123500D02*X243500Y122450D01*
Y118550D01*
X242450Y117500D02*X243500Y118550D01*
X239750Y117500D02*X242450D01*
X239750Y123500D02*X242450D01*
G54D138*X245300Y122000D02*Y121850D01*
G54D137*Y119750D02*Y117500D01*
X247550Y119750D02*Y117500D01*
Y119750D02*X248300Y120500D01*
X249050D01*
X249800Y119750D01*
Y117500D01*
Y119750D02*X250550Y120500D01*
X251300D01*
X252050Y119750D01*
Y117500D01*
X246800Y120500D02*X247550Y119750D01*
X254600Y117500D02*X256850D01*
X253850Y118250D02*X254600Y117500D01*
X253850Y119750D02*Y118250D01*
Y119750D02*X254600Y120500D01*
X256100D01*
X256850Y119750D01*
X253850Y119000D02*X256850D01*
Y119750D02*Y119000D01*
X259400Y119750D02*Y117500D01*
Y119750D02*X260150Y120500D01*
X260900D01*
X261650Y119750D01*
Y117500D01*
X258650Y120500D02*X259400Y119750D01*
X264200Y117500D02*X266450D01*
X267200Y118250D01*
X266450Y119000D02*X267200Y118250D01*
X264200Y119000D02*X266450D01*
X263450Y119750D02*X264200Y119000D01*
X263450Y119750D02*X264200Y120500D01*
X266450D01*
X267200Y119750D01*
X263450Y118250D02*X264200Y117500D01*
G54D138*X269000Y122000D02*Y121850D01*
G54D137*Y119750D02*Y117500D01*
X270500Y119750D02*Y118250D01*
Y119750D02*X271250Y120500D01*
X272750D01*
X273500Y119750D01*
Y118250D01*
X272750Y117500D02*X273500Y118250D01*
X271250Y117500D02*X272750D01*
X270500Y118250D02*X271250Y117500D01*
X276050Y119750D02*Y117500D01*
Y119750D02*X276800Y120500D01*
X277550D01*
X278300Y119750D01*
Y117500D01*
X275300Y120500D02*X276050Y119750D01*
X280850Y117500D02*X283100D01*
X283850Y118250D01*
X283100Y119000D02*X283850Y118250D01*
X280850Y119000D02*X283100D01*
X280100Y119750D02*X280850Y119000D01*
X280100Y119750D02*X280850Y120500D01*
X283100D01*
X283850Y119750D01*
X280100Y118250D02*X280850Y117500D01*
X285650Y121250D02*X286400D01*
X285650Y119750D02*X286400D01*
X290900Y122750D02*X291650Y123500D01*
X293150D01*
X293900Y122750D01*
X293150Y117500D02*X293900Y118250D01*
X291650Y117500D02*X293150D01*
X290900Y118250D02*X291650Y117500D01*
Y120800D02*X293150D01*
X293900Y122750D02*Y121550D01*
Y120050D02*Y118250D01*
Y120050D02*X293150Y120800D01*
X293900Y121550D02*X293150Y120800D01*
X295700Y118250D02*X296450Y117500D01*
X295700Y122750D02*Y118250D01*
Y122750D02*X296450Y123500D01*
X297950D01*
X298700Y122750D01*
Y118250D01*
X297950Y117500D02*X298700Y118250D01*
X296450Y117500D02*X297950D01*
X295700Y119000D02*X298700Y122000D01*
X300500Y118250D02*X301250Y117500D01*
X300500Y122750D02*Y118250D01*
Y122750D02*X301250Y123500D01*
X302750D01*
X303500Y122750D01*
Y118250D01*
X302750Y117500D02*X303500Y118250D01*
X301250Y117500D02*X302750D01*
X300500Y119000D02*X303500Y122000D01*
X305300Y118250D02*X306050Y117500D01*
X305300Y122750D02*Y118250D01*
Y122750D02*X306050Y123500D01*
X307550D01*
X308300Y122750D01*
Y118250D01*
X307550Y117500D02*X308300Y118250D01*
X306050Y117500D02*X307550D01*
X305300Y119000D02*X308300Y122000D01*
X310100Y117500D02*X310850D01*
X312650Y118250D02*X313400Y117500D01*
X312650Y122750D02*Y118250D01*
Y122750D02*X313400Y123500D01*
X314900D01*
X315650Y122750D01*
Y118250D01*
X314900Y117500D02*X315650Y118250D01*
X313400Y117500D02*X314900D01*
X312650Y119000D02*X315650Y122000D01*
X317450Y118250D02*X318200Y117500D01*
X317450Y122750D02*Y118250D01*
Y122750D02*X318200Y123500D01*
X319700D01*
X320450Y122750D01*
Y118250D01*
X319700Y117500D02*X320450Y118250D01*
X318200Y117500D02*X319700D01*
X317450Y119000D02*X320450Y122000D01*
X322250Y118250D02*X323000Y117500D01*
X322250Y122750D02*Y118250D01*
Y122750D02*X323000Y123500D01*
X324500D01*
X325250Y122750D01*
Y118250D01*
X324500Y117500D02*X325250Y118250D01*
X323000Y117500D02*X324500D01*
X322250Y119000D02*X325250Y122000D01*
X327050Y118250D02*X327800Y117500D01*
X327050Y122750D02*Y118250D01*
Y122750D02*X327800Y123500D01*
X329300D01*
X330050Y122750D01*
Y118250D01*
X329300Y117500D02*X330050Y118250D01*
X327800Y117500D02*X329300D01*
X327050Y119000D02*X330050Y122000D01*
X331850Y118250D02*X332600Y117500D01*
X331850Y122750D02*Y118250D01*
Y122750D02*X332600Y123500D01*
X334100D01*
X334850Y122750D01*
Y118250D01*
X334100Y117500D02*X334850Y118250D01*
X332600Y117500D02*X334100D01*
X331850Y119000D02*X334850Y122000D01*
X336650Y118250D02*X337400Y117500D01*
X336650Y122750D02*Y118250D01*
Y122750D02*X337400Y123500D01*
X338900D01*
X339650Y122750D01*
Y118250D01*
X338900Y117500D02*X339650Y118250D01*
X337400Y117500D02*X338900D01*
X336650Y119000D02*X339650Y122000D01*
X344900Y119750D02*Y117500D01*
Y119750D02*X345650Y120500D01*
X346400D01*
X347150Y119750D01*
Y117500D01*
Y119750D02*X347900Y120500D01*
X348650D01*
X349400Y119750D01*
Y117500D01*
X344150Y120500D02*X344900Y119750D01*
G54D138*X351200Y122000D02*Y121850D01*
G54D137*Y119750D02*Y117500D01*
X352700Y123500D02*Y118250D01*
X353450Y117500D01*
X355700D02*X357950D01*
X358700Y118250D01*
X357950Y119000D02*X358700Y118250D01*
X355700Y119000D02*X357950D01*
X354950Y119750D02*X355700Y119000D01*
X354950Y119750D02*X355700Y120500D01*
X357950D01*
X358700Y119750D01*
X354950Y118250D02*X355700Y117500D01*
X363200Y120500D02*Y118250D01*
X363950Y117500D01*
X364700D01*
X365450Y118250D01*
Y120500D02*Y118250D01*
X366200Y117500D01*
X366950D01*
X367700Y118250D01*
Y120500D02*Y118250D01*
G54D138*X369500Y122000D02*Y121850D01*
G54D137*Y119750D02*Y117500D01*
X374000Y123500D02*Y117500D01*
X373250D02*X374000Y118250D01*
X371750Y117500D02*X373250D01*
X371000Y118250D02*X371750Y117500D01*
X371000Y119750D02*Y118250D01*
Y119750D02*X371750Y120500D01*
X373250D01*
X374000Y119750D01*
X376550Y117500D02*X378800D01*
X375800Y118250D02*X376550Y117500D01*
X375800Y119750D02*Y118250D01*
Y119750D02*X376550Y120500D01*
X378050D01*
X378800Y119750D01*
X375800Y119000D02*X378800D01*
Y119750D02*Y119000D01*
X380600Y116000D02*X382100Y117500D01*
X386600Y122300D02*X387800Y123500D01*
Y117500D01*
X386600D02*X388850D01*
X390650Y122300D02*X391850Y123500D01*
Y117500D01*
X390650D02*X392900D01*
X394700Y118250D02*X395450Y117500D01*
X394700Y122750D02*Y118250D01*
Y122750D02*X395450Y123500D01*
X396950D01*
X397700Y122750D01*
Y118250D01*
X396950Y117500D02*X397700Y118250D01*
X395450Y117500D02*X396950D01*
X394700Y119000D02*X397700Y122000D01*
X399500Y118250D02*X400250Y117500D01*
X399500Y122750D02*Y118250D01*
Y122750D02*X400250Y123500D01*
X401750D01*
X402500Y122750D01*
Y118250D01*
X401750Y117500D02*X402500Y118250D01*
X400250Y117500D02*X401750D01*
X399500Y119000D02*X402500Y122000D01*
X404300Y117500D02*X405050D01*
X406850Y118250D02*X407600Y117500D01*
X406850Y122750D02*Y118250D01*
Y122750D02*X407600Y123500D01*
X409100D01*
X409850Y122750D01*
Y118250D01*
X409100Y117500D02*X409850Y118250D01*
X407600Y117500D02*X409100D01*
X406850Y119000D02*X409850Y122000D01*
X411650Y118250D02*X412400Y117500D01*
X411650Y122750D02*Y118250D01*
Y122750D02*X412400Y123500D01*
X413900D01*
X414650Y122750D01*
Y118250D01*
X413900Y117500D02*X414650Y118250D01*
X412400Y117500D02*X413900D01*
X411650Y119000D02*X414650Y122000D01*
X416450Y118250D02*X417200Y117500D01*
X416450Y122750D02*Y118250D01*
Y122750D02*X417200Y123500D01*
X418700D01*
X419450Y122750D01*
Y118250D01*
X418700Y117500D02*X419450Y118250D01*
X417200Y117500D02*X418700D01*
X416450Y119000D02*X419450Y122000D01*
X421250Y118250D02*X422000Y117500D01*
X421250Y122750D02*Y118250D01*
Y122750D02*X422000Y123500D01*
X423500D01*
X424250Y122750D01*
Y118250D01*
X423500Y117500D02*X424250Y118250D01*
X422000Y117500D02*X423500D01*
X421250Y119000D02*X424250Y122000D01*
X426050Y118250D02*X426800Y117500D01*
X426050Y122750D02*Y118250D01*
Y122750D02*X426800Y123500D01*
X428300D01*
X429050Y122750D01*
Y118250D01*
X428300Y117500D02*X429050Y118250D01*
X426800Y117500D02*X428300D01*
X426050Y119000D02*X429050Y122000D01*
X430850Y118250D02*X431600Y117500D01*
X430850Y122750D02*Y118250D01*
Y122750D02*X431600Y123500D01*
X433100D01*
X433850Y122750D01*
Y118250D01*
X433100Y117500D02*X433850Y118250D01*
X431600Y117500D02*X433100D01*
X430850Y119000D02*X433850Y122000D01*
X439100Y119750D02*Y117500D01*
Y119750D02*X439850Y120500D01*
X440600D01*
X441350Y119750D01*
Y117500D01*
Y119750D02*X442100Y120500D01*
X442850D01*
X443600Y119750D01*
Y117500D01*
X438350Y120500D02*X439100Y119750D01*
G54D138*X445400Y122000D02*Y121850D01*
G54D137*Y119750D02*Y117500D01*
X446900Y123500D02*Y118250D01*
X447650Y117500D01*
X449900D02*X452150D01*
X452900Y118250D01*
X452150Y119000D02*X452900Y118250D01*
X449900Y119000D02*X452150D01*
X449150Y119750D02*X449900Y119000D01*
X449150Y119750D02*X449900Y120500D01*
X452150D01*
X452900Y119750D01*
X449150Y118250D02*X449900Y117500D01*
X457400Y123500D02*Y117500D01*
Y119750D02*X458150Y120500D01*
X459650D01*
X460400Y119750D01*
Y117500D01*
G54D138*X462200Y122000D02*Y121850D01*
G54D137*Y119750D02*Y117500D01*
X465950Y120500D02*X466700Y119750D01*
X464450Y120500D02*X465950D01*
X463700Y119750D02*X464450Y120500D01*
X463700Y119750D02*Y118250D01*
X464450Y117500D01*
X465950D01*
X466700Y118250D01*
X463700Y116000D02*X464450Y115250D01*
X465950D01*
X466700Y116000D01*
Y120500D02*Y116000D01*
X468500Y123500D02*Y117500D01*
Y119750D02*X469250Y120500D01*
X470750D01*
X471500Y119750D01*
Y117500D01*
X0Y-9500D02*X3000D01*
X3750Y-8750D01*
Y-6950D02*Y-8750D01*
X3000Y-6200D02*X3750Y-6950D01*
X750Y-6200D02*X3000D01*
X750Y-3500D02*Y-9500D01*
X0Y-3500D02*X3000D01*
X3750Y-4250D01*
Y-5450D01*
X3000Y-6200D02*X3750Y-5450D01*
X5550Y-7250D02*Y-8750D01*
Y-7250D02*X6300Y-6500D01*
X7800D01*
X8550Y-7250D01*
Y-8750D01*
X7800Y-9500D02*X8550Y-8750D01*
X6300Y-9500D02*X7800D01*
X5550Y-8750D02*X6300Y-9500D01*
X12600Y-6500D02*X13350Y-7250D01*
X11100Y-6500D02*X12600D01*
X10350Y-7250D02*X11100Y-6500D01*
X10350Y-7250D02*Y-8750D01*
X11100Y-9500D01*
X13350Y-6500D02*Y-8750D01*
X14100Y-9500D01*
X11100D02*X12600D01*
X13350Y-8750D01*
X16650Y-7250D02*Y-9500D01*
Y-7250D02*X17400Y-6500D01*
X18900D01*
X15900D02*X16650Y-7250D01*
X23700Y-3500D02*Y-9500D01*
X22950D02*X23700Y-8750D01*
X21450Y-9500D02*X22950D01*
X20700Y-8750D02*X21450Y-9500D01*
X20700Y-7250D02*Y-8750D01*
Y-7250D02*X21450Y-6500D01*
X22950D01*
X23700Y-7250D01*
X28200D02*Y-8750D01*
Y-7250D02*X28950Y-6500D01*
X30450D01*
X31200Y-7250D01*
Y-8750D01*
X30450Y-9500D02*X31200Y-8750D01*
X28950Y-9500D02*X30450D01*
X28200Y-8750D02*X28950Y-9500D01*
X33000Y-6500D02*Y-8750D01*
X33750Y-9500D01*
X35250D01*
X36000Y-8750D01*
Y-6500D02*Y-8750D01*
X38550Y-3500D02*Y-8750D01*
X39300Y-9500D01*
X37800Y-5750D02*X39300D01*
X40800Y-3500D02*Y-8750D01*
X41550Y-9500D01*
G54D138*X43050Y-5000D02*Y-5150D01*
G54D137*Y-7250D02*Y-9500D01*
X45300Y-7250D02*Y-9500D01*
Y-7250D02*X46050Y-6500D01*
X46800D01*
X47550Y-7250D01*
Y-9500D01*
X44550Y-6500D02*X45300Y-7250D01*
X50100Y-9500D02*X52350D01*
X49350Y-8750D02*X50100Y-9500D01*
X49350Y-7250D02*Y-8750D01*
Y-7250D02*X50100Y-6500D01*
X51600D01*
X52350Y-7250D01*
X49350Y-8000D02*X52350D01*
Y-7250D02*Y-8000D01*
G54D138*X56850Y-5000D02*Y-5150D01*
G54D137*Y-7250D02*Y-9500D01*
X59100D02*X61350D01*
X62100Y-8750D01*
X61350Y-8000D02*X62100Y-8750D01*
X59100Y-8000D02*X61350D01*
X58350Y-7250D02*X59100Y-8000D01*
X58350Y-7250D02*X59100Y-6500D01*
X61350D01*
X62100Y-7250D01*
X58350Y-8750D02*X59100Y-9500D01*
X67350Y-3500D02*Y-8750D01*
X68100Y-9500D01*
X66600Y-5750D02*X68100D01*
X69600Y-3500D02*Y-9500D01*
Y-7250D02*X70350Y-6500D01*
X71850D01*
X72600Y-7250D01*
Y-9500D01*
X75150D02*X77400D01*
X74400Y-8750D02*X75150Y-9500D01*
X74400Y-7250D02*Y-8750D01*
Y-7250D02*X75150Y-6500D01*
X76650D01*
X77400Y-7250D01*
X74400Y-8000D02*X77400D01*
Y-7250D02*Y-8000D01*
X82650Y-6500D02*X84900D01*
X81900Y-7250D02*X82650Y-6500D01*
X81900Y-7250D02*Y-8750D01*
X82650Y-9500D01*
X84900D01*
X87450D02*X89700D01*
X86700Y-8750D02*X87450Y-9500D01*
X86700Y-7250D02*Y-8750D01*
Y-7250D02*X87450Y-6500D01*
X88950D01*
X89700Y-7250D01*
X86700Y-8000D02*X89700D01*
Y-7250D02*Y-8000D01*
X92250Y-7250D02*Y-9500D01*
Y-7250D02*X93000Y-6500D01*
X93750D01*
X94500Y-7250D01*
Y-9500D01*
X91500Y-6500D02*X92250Y-7250D01*
X97050Y-3500D02*Y-8750D01*
X97800Y-9500D01*
X96300Y-5750D02*X97800D01*
X100050Y-9500D02*X102300D01*
X99300Y-8750D02*X100050Y-9500D01*
X99300Y-7250D02*Y-8750D01*
Y-7250D02*X100050Y-6500D01*
X101550D01*
X102300Y-7250D01*
X99300Y-8000D02*X102300D01*
Y-7250D02*Y-8000D01*
X104850Y-7250D02*Y-9500D01*
Y-7250D02*X105600Y-6500D01*
X107100D01*
X104100D02*X104850Y-7250D01*
X108900Y-3500D02*Y-8750D01*
X109650Y-9500D01*
G54D138*X111150Y-5000D02*Y-5150D01*
G54D137*Y-7250D02*Y-9500D01*
X113400Y-7250D02*Y-9500D01*
Y-7250D02*X114150Y-6500D01*
X114900D01*
X115650Y-7250D01*
Y-9500D01*
X112650Y-6500D02*X113400Y-7250D01*
X118200Y-9500D02*X120450D01*
X117450Y-8750D02*X118200Y-9500D01*
X117450Y-7250D02*Y-8750D01*
Y-7250D02*X118200Y-6500D01*
X119700D01*
X120450Y-7250D01*
X117450Y-8000D02*X120450D01*
Y-7250D02*Y-8000D01*
X124950Y-7250D02*Y-8750D01*
Y-7250D02*X125700Y-6500D01*
X127200D01*
X127950Y-7250D01*
Y-8750D01*
X127200Y-9500D02*X127950Y-8750D01*
X125700Y-9500D02*X127200D01*
X124950Y-8750D02*X125700Y-9500D01*
X130500Y-4250D02*Y-9500D01*
Y-4250D02*X131250Y-3500D01*
X132000D01*
X129750Y-6500D02*X131250D01*
X136950Y-3500D02*Y-8750D01*
X137700Y-9500D01*
X136200Y-5750D02*X137700D01*
X139200Y-3500D02*Y-9500D01*
Y-7250D02*X139950Y-6500D01*
X141450D01*
X142200Y-7250D01*
Y-9500D01*
G54D138*X144000Y-5000D02*Y-5150D01*
G54D137*Y-7250D02*Y-9500D01*
X146250D02*X148500D01*
X149250Y-8750D01*
X148500Y-8000D02*X149250Y-8750D01*
X146250Y-8000D02*X148500D01*
X145500Y-7250D02*X146250Y-8000D01*
X145500Y-7250D02*X146250Y-6500D01*
X148500D01*
X149250Y-7250D01*
X145500Y-8750D02*X146250Y-9500D01*
X153750Y-8750D02*X154500Y-9500D01*
X153750Y-7550D02*Y-8750D01*
Y-7550D02*X154800Y-6500D01*
X155700D01*
X156750Y-7550D01*
Y-8750D01*
X156000Y-9500D02*X156750Y-8750D01*
X154500Y-9500D02*X156000D01*
X153750Y-5450D02*X154800Y-6500D01*
X153750Y-4250D02*Y-5450D01*
Y-4250D02*X154500Y-3500D01*
X156000D01*
X156750Y-4250D01*
Y-5450D01*
X155700Y-6500D02*X156750Y-5450D01*
X158550Y-9500D02*X159300D01*
X161100Y-8750D02*X161850Y-9500D01*
X161100Y-4250D02*Y-8750D01*
Y-4250D02*X161850Y-3500D01*
X163350D01*
X164100Y-4250D01*
Y-8750D01*
X163350Y-9500D02*X164100Y-8750D01*
X161850Y-9500D02*X163350D01*
X161100Y-8000D02*X164100Y-5000D01*
X165900Y-8750D02*X166650Y-9500D01*
X165900Y-4250D02*Y-8750D01*
Y-4250D02*X166650Y-3500D01*
X168150D01*
X168900Y-4250D01*
Y-8750D01*
X168150Y-9500D02*X168900Y-8750D01*
X166650Y-9500D02*X168150D01*
X165900Y-8000D02*X168900Y-5000D01*
X170700Y-8750D02*X171450Y-9500D01*
X170700Y-4250D02*Y-8750D01*
Y-4250D02*X171450Y-3500D01*
X172950D01*
X173700Y-4250D01*
Y-8750D01*
X172950Y-9500D02*X173700Y-8750D01*
X171450Y-9500D02*X172950D01*
X170700Y-8000D02*X173700Y-5000D01*
X175500Y-8750D02*X176250Y-9500D01*
X175500Y-4250D02*Y-8750D01*
Y-4250D02*X176250Y-3500D01*
X177750D01*
X178500Y-4250D01*
Y-8750D01*
X177750Y-9500D02*X178500Y-8750D01*
X176250Y-9500D02*X177750D01*
X175500Y-8000D02*X178500Y-5000D01*
X180300Y-8750D02*X181050Y-9500D01*
X180300Y-4250D02*Y-8750D01*
Y-4250D02*X181050Y-3500D01*
X182550D01*
X183300Y-4250D01*
Y-8750D01*
X182550Y-9500D02*X183300Y-8750D01*
X181050Y-9500D02*X182550D01*
X180300Y-8000D02*X183300Y-5000D01*
X185100Y-8750D02*X185850Y-9500D01*
X185100Y-4250D02*Y-8750D01*
Y-4250D02*X185850Y-3500D01*
X187350D01*
X188100Y-4250D01*
Y-8750D01*
X187350Y-9500D02*X188100Y-8750D01*
X185850Y-9500D02*X187350D01*
X185100Y-8000D02*X188100Y-5000D01*
X193350Y-7250D02*Y-9500D01*
Y-7250D02*X194100Y-6500D01*
X194850D01*
X195600Y-7250D01*
Y-9500D01*
Y-7250D02*X196350Y-6500D01*
X197100D01*
X197850Y-7250D01*
Y-9500D01*
X192600Y-6500D02*X193350Y-7250D01*
G54D138*X199650Y-5000D02*Y-5150D01*
G54D137*Y-7250D02*Y-9500D01*
X201150Y-3500D02*Y-8750D01*
X201900Y-9500D01*
X206850Y-7250D02*Y-9500D01*
Y-7250D02*X207600Y-6500D01*
X209100D01*
X206100D02*X206850Y-7250D01*
X211650Y-9500D02*X213900D01*
X210900Y-8750D02*X211650Y-9500D01*
X210900Y-7250D02*Y-8750D01*
Y-7250D02*X211650Y-6500D01*
X213150D01*
X213900Y-7250D01*
X210900Y-8000D02*X213900D01*
Y-7250D02*Y-8000D01*
X216450Y-6500D02*X218700D01*
X215700Y-7250D02*X216450Y-6500D01*
X215700Y-7250D02*Y-8750D01*
X216450Y-9500D01*
X218700D01*
X221250Y-3500D02*Y-8750D01*
X222000Y-9500D01*
X220500Y-5750D02*X222000D01*
X225750Y-6500D02*X226500Y-7250D01*
X224250Y-6500D02*X225750D01*
X223500Y-7250D02*X224250Y-6500D01*
X223500Y-7250D02*Y-8750D01*
X224250Y-9500D01*
X226500Y-6500D02*Y-8750D01*
X227250Y-9500D01*
X224250D02*X225750D01*
X226500Y-8750D01*
X229800Y-7250D02*Y-9500D01*
Y-7250D02*X230550Y-6500D01*
X231300D01*
X232050Y-7250D01*
Y-9500D01*
X229050Y-6500D02*X229800Y-7250D01*
X236100Y-6500D02*X236850Y-7250D01*
X234600Y-6500D02*X236100D01*
X233850Y-7250D02*X234600Y-6500D01*
X233850Y-7250D02*Y-8750D01*
X234600Y-9500D01*
X236100D01*
X236850Y-8750D01*
X233850Y-11000D02*X234600Y-11750D01*
X236100D01*
X236850Y-11000D01*
Y-6500D02*Y-11000D01*
X238650Y-3500D02*Y-8750D01*
X239400Y-9500D01*
X241650D02*X243900D01*
X240900Y-8750D02*X241650Y-9500D01*
X240900Y-7250D02*Y-8750D01*
Y-7250D02*X241650Y-6500D01*
X243150D01*
X243900Y-7250D01*
X240900Y-8000D02*X243900D01*
Y-7250D02*Y-8000D01*
X248400Y-6500D02*X251400D01*
X255900Y-8750D02*X256650Y-9500D01*
X255900Y-4250D02*Y-8750D01*
Y-4250D02*X256650Y-3500D01*
X258150D01*
X258900Y-4250D01*
Y-8750D01*
X258150Y-9500D02*X258900Y-8750D01*
X256650Y-9500D02*X258150D01*
X255900Y-8000D02*X258900Y-5000D01*
X260700Y-11000D02*X262200Y-9500D01*
X264000Y-8750D02*X264750Y-9500D01*
X264000Y-4250D02*Y-8750D01*
Y-4250D02*X264750Y-3500D01*
X266250D01*
X267000Y-4250D01*
Y-8750D01*
X266250Y-9500D02*X267000Y-8750D01*
X264750Y-9500D02*X266250D01*
X264000Y-8000D02*X267000Y-5000D01*
X272250Y-3500D02*Y-8750D01*
X273000Y-9500D01*
X271500Y-5750D02*X273000D01*
X274500Y-7250D02*Y-8750D01*
Y-7250D02*X275250Y-6500D01*
X276750D01*
X277500Y-7250D01*
Y-8750D01*
X276750Y-9500D02*X277500Y-8750D01*
X275250Y-9500D02*X276750D01*
X274500Y-8750D02*X275250Y-9500D01*
X282000Y-4250D02*X282750Y-3500D01*
X284250D01*
X285000Y-4250D01*
X284250Y-9500D02*X285000Y-8750D01*
X282750Y-9500D02*X284250D01*
X282000Y-8750D02*X282750Y-9500D01*
Y-6200D02*X284250D01*
X285000Y-4250D02*Y-5450D01*
Y-6950D02*Y-8750D01*
Y-6950D02*X284250Y-6200D01*
X285000Y-5450D02*X284250Y-6200D01*
X286800Y-8750D02*X287550Y-9500D01*
X286800Y-4250D02*Y-8750D01*
Y-4250D02*X287550Y-3500D01*
X289050D01*
X289800Y-4250D01*
Y-8750D01*
X289050Y-9500D02*X289800Y-8750D01*
X287550Y-9500D02*X289050D01*
X286800Y-8000D02*X289800Y-5000D01*
X291600Y-8750D02*X292350Y-9500D01*
X291600Y-4250D02*Y-8750D01*
Y-4250D02*X292350Y-3500D01*
X293850D01*
X294600Y-4250D01*
Y-8750D01*
X293850Y-9500D02*X294600Y-8750D01*
X292350Y-9500D02*X293850D01*
X291600Y-8000D02*X294600Y-5000D01*
X296400Y-8750D02*X297150Y-9500D01*
X296400Y-4250D02*Y-8750D01*
Y-4250D02*X297150Y-3500D01*
X298650D01*
X299400Y-4250D01*
Y-8750D01*
X298650Y-9500D02*X299400Y-8750D01*
X297150Y-9500D02*X298650D01*
X296400Y-8000D02*X299400Y-5000D01*
X301200Y-9500D02*X301950D01*
X303750Y-8750D02*X304500Y-9500D01*
X303750Y-4250D02*Y-8750D01*
Y-4250D02*X304500Y-3500D01*
X306000D01*
X306750Y-4250D01*
Y-8750D01*
X306000Y-9500D02*X306750Y-8750D01*
X304500Y-9500D02*X306000D01*
X303750Y-8000D02*X306750Y-5000D01*
X308550Y-8750D02*X309300Y-9500D01*
X308550Y-4250D02*Y-8750D01*
Y-4250D02*X309300Y-3500D01*
X310800D01*
X311550Y-4250D01*
Y-8750D01*
X310800Y-9500D02*X311550Y-8750D01*
X309300Y-9500D02*X310800D01*
X308550Y-8000D02*X311550Y-5000D01*
X313350Y-8750D02*X314100Y-9500D01*
X313350Y-4250D02*Y-8750D01*
Y-4250D02*X314100Y-3500D01*
X315600D01*
X316350Y-4250D01*
Y-8750D01*
X315600Y-9500D02*X316350Y-8750D01*
X314100Y-9500D02*X315600D01*
X313350Y-8000D02*X316350Y-5000D01*
X318150Y-8750D02*X318900Y-9500D01*
X318150Y-4250D02*Y-8750D01*
Y-4250D02*X318900Y-3500D01*
X320400D01*
X321150Y-4250D01*
Y-8750D01*
X320400Y-9500D02*X321150Y-8750D01*
X318900Y-9500D02*X320400D01*
X318150Y-8000D02*X321150Y-5000D01*
X322950Y-8750D02*X323700Y-9500D01*
X322950Y-4250D02*Y-8750D01*
Y-4250D02*X323700Y-3500D01*
X325200D01*
X325950Y-4250D01*
Y-8750D01*
X325200Y-9500D02*X325950Y-8750D01*
X323700Y-9500D02*X325200D01*
X322950Y-8000D02*X325950Y-5000D01*
X327750Y-8750D02*X328500Y-9500D01*
X327750Y-4250D02*Y-8750D01*
Y-4250D02*X328500Y-3500D01*
X330000D01*
X330750Y-4250D01*
Y-8750D01*
X330000Y-9500D02*X330750Y-8750D01*
X328500Y-9500D02*X330000D01*
X327750Y-8000D02*X330750Y-5000D01*
X332550Y-11000D02*X334050Y-9500D01*
X335850Y-4700D02*X337050Y-3500D01*
Y-9500D01*
X335850D02*X338100D01*
X339900Y-4700D02*X341100Y-3500D01*
Y-9500D01*
X339900D02*X342150D01*
X343950Y-8750D02*X344700Y-9500D01*
X343950Y-4250D02*Y-8750D01*
Y-4250D02*X344700Y-3500D01*
X346200D01*
X346950Y-4250D01*
Y-8750D01*
X346200Y-9500D02*X346950Y-8750D01*
X344700Y-9500D02*X346200D01*
X343950Y-8000D02*X346950Y-5000D01*
X348750Y-8750D02*X349500Y-9500D01*
X348750Y-4250D02*Y-8750D01*
Y-4250D02*X349500Y-3500D01*
X351000D01*
X351750Y-4250D01*
Y-8750D01*
X351000Y-9500D02*X351750Y-8750D01*
X349500Y-9500D02*X351000D01*
X348750Y-8000D02*X351750Y-5000D01*
X353550Y-9500D02*X354300D01*
X356100Y-8750D02*X356850Y-9500D01*
X356100Y-4250D02*Y-8750D01*
Y-4250D02*X356850Y-3500D01*
X358350D01*
X359100Y-4250D01*
Y-8750D01*
X358350Y-9500D02*X359100Y-8750D01*
X356850Y-9500D02*X358350D01*
X356100Y-8000D02*X359100Y-5000D01*
X360900Y-8750D02*X361650Y-9500D01*
X360900Y-4250D02*Y-8750D01*
Y-4250D02*X361650Y-3500D01*
X363150D01*
X363900Y-4250D01*
Y-8750D01*
X363150Y-9500D02*X363900Y-8750D01*
X361650Y-9500D02*X363150D01*
X360900Y-8000D02*X363900Y-5000D01*
X365700Y-8750D02*X366450Y-9500D01*
X365700Y-4250D02*Y-8750D01*
Y-4250D02*X366450Y-3500D01*
X367950D01*
X368700Y-4250D01*
Y-8750D01*
X367950Y-9500D02*X368700Y-8750D01*
X366450Y-9500D02*X367950D01*
X365700Y-8000D02*X368700Y-5000D01*
X370500Y-8750D02*X371250Y-9500D01*
X370500Y-4250D02*Y-8750D01*
Y-4250D02*X371250Y-3500D01*
X372750D01*
X373500Y-4250D01*
Y-8750D01*
X372750Y-9500D02*X373500Y-8750D01*
X371250Y-9500D02*X372750D01*
X370500Y-8000D02*X373500Y-5000D01*
X375300Y-8750D02*X376050Y-9500D01*
X375300Y-4250D02*Y-8750D01*
Y-4250D02*X376050Y-3500D01*
X377550D01*
X378300Y-4250D01*
Y-8750D01*
X377550Y-9500D02*X378300Y-8750D01*
X376050Y-9500D02*X377550D01*
X375300Y-8000D02*X378300Y-5000D01*
X380100Y-8750D02*X380850Y-9500D01*
X380100Y-4250D02*Y-8750D01*
Y-4250D02*X380850Y-3500D01*
X382350D01*
X383100Y-4250D01*
Y-8750D01*
X382350Y-9500D02*X383100Y-8750D01*
X380850Y-9500D02*X382350D01*
X380100Y-8000D02*X383100Y-5000D01*
X388350Y-7250D02*Y-9500D01*
Y-7250D02*X389100Y-6500D01*
X389850D01*
X390600Y-7250D01*
Y-9500D01*
Y-7250D02*X391350Y-6500D01*
X392100D01*
X392850Y-7250D01*
Y-9500D01*
X387600Y-6500D02*X388350Y-7250D01*
G54D138*X394650Y-5000D02*Y-5150D01*
G54D137*Y-7250D02*Y-9500D01*
X396150Y-3500D02*Y-8750D01*
X396900Y-9500D01*
X399150D02*X401400D01*
X402150Y-8750D01*
X401400Y-8000D02*X402150Y-8750D01*
X399150Y-8000D02*X401400D01*
X398400Y-7250D02*X399150Y-8000D01*
X398400Y-7250D02*X399150Y-6500D01*
X401400D01*
X402150Y-7250D01*
X398400Y-8750D02*X399150Y-9500D01*
X200750Y138500D02*Y132500D01*
X202700Y138500D02*X203750Y137450D01*
Y133550D01*
X202700Y132500D02*X203750Y133550D01*
X200000Y132500D02*X202700D01*
X200000Y138500D02*X202700D01*
X207800Y135500D02*X208550Y134750D01*
X206300Y135500D02*X207800D01*
X205550Y134750D02*X206300Y135500D01*
X205550Y134750D02*Y133250D01*
X206300Y132500D01*
X208550Y135500D02*Y133250D01*
X209300Y132500D01*
X206300D02*X207800D01*
X208550Y133250D01*
X211850Y138500D02*Y133250D01*
X212600Y132500D01*
X211100Y136250D02*X212600D01*
X214850Y132500D02*X217100D01*
X214100Y133250D02*X214850Y132500D01*
X214100Y134750D02*Y133250D01*
Y134750D02*X214850Y135500D01*
X216350D01*
X217100Y134750D01*
X214100Y134000D02*X217100D01*
Y134750D02*Y134000D01*
X218900Y136250D02*X219650D01*
X218900Y134750D02*X219650D01*
X227150Y138500D02*X227900Y137750D01*
X224900Y138500D02*X227150D01*
X224150Y137750D02*X224900Y138500D01*
X224150Y137750D02*Y136250D01*
X224900Y135500D01*
X227150D01*
X227900Y134750D01*
Y133250D01*
X227150Y132500D02*X227900Y133250D01*
X224900Y132500D02*X227150D01*
X224150Y133250D02*X224900Y132500D01*
X231950Y135500D02*X232700Y134750D01*
X230450Y135500D02*X231950D01*
X229700Y134750D02*X230450Y135500D01*
X229700Y134750D02*Y133250D01*
X230450Y132500D01*
X232700Y135500D02*Y133250D01*
X233450Y132500D01*
X230450D02*X231950D01*
X232700Y133250D01*
X236000Y138500D02*Y133250D01*
X236750Y132500D01*
X235250Y136250D02*X236750D01*
X240950Y133250D02*X241700Y132500D01*
X240950Y137750D02*Y133250D01*
Y137750D02*X241700Y138500D01*
X243200D01*
X243950Y137750D01*
Y133250D01*
X243200Y132500D02*X243950Y133250D01*
X241700Y132500D02*X243200D01*
X240950Y134000D02*X243950Y137000D01*
X245750Y137300D02*X246950Y138500D01*
Y132500D01*
X245750D02*X248000D01*
X252500Y138500D02*Y132500D01*
Y138500D02*X255500D01*
X252500Y135800D02*X254750D01*
X258050Y132500D02*X260300D01*
X257300Y133250D02*X258050Y132500D01*
X257300Y134750D02*Y133250D01*
Y134750D02*X258050Y135500D01*
X259550D01*
X260300Y134750D01*
X257300Y134000D02*X260300D01*
Y134750D02*Y134000D01*
X262100Y138500D02*Y132500D01*
Y133250D02*X262850Y132500D01*
X264350D01*
X265100Y133250D01*
Y134750D02*Y133250D01*
X264350Y135500D02*X265100Y134750D01*
X262850Y135500D02*X264350D01*
X262100Y134750D02*X262850Y135500D01*
X269600Y137750D02*X270350Y138500D01*
X272600D01*
X273350Y137750D01*
Y136250D01*
X269600Y132500D02*X273350Y136250D01*
X269600Y132500D02*X273350D01*
X275150Y133250D02*X275900Y132500D01*
X275150Y137750D02*Y133250D01*
Y137750D02*X275900Y138500D01*
X277400D01*
X278150Y137750D01*
Y133250D01*
X277400Y132500D02*X278150Y133250D01*
X275900Y132500D02*X277400D01*
X275150Y134000D02*X278150Y137000D01*
X279950Y137300D02*X281150Y138500D01*
Y132500D01*
X279950D02*X282200D01*
X284000Y134750D02*X287000Y138500D01*
X284000Y134750D02*X287750D01*
X287000Y138500D02*Y132500D01*
X292250Y133250D02*X293000Y132500D01*
X292250Y137750D02*Y133250D01*
Y137750D02*X293000Y138500D01*
X294500D01*
X295250Y137750D01*
Y133250D01*
X294500Y132500D02*X295250Y133250D01*
X293000Y132500D02*X294500D01*
X292250Y134000D02*X295250Y137000D01*
X297050Y137750D02*X297800Y138500D01*
X300050D01*
X300800Y137750D01*
Y136250D01*
X297050Y132500D02*X300800Y136250D01*
X297050Y132500D02*X300800D01*
X302600Y136250D02*X303350D01*
X302600Y134750D02*X303350D01*
X305150Y137750D02*X305900Y138500D01*
X307400D01*
X308150Y137750D01*
X307400Y132500D02*X308150Y133250D01*
X305900Y132500D02*X307400D01*
X305150Y133250D02*X305900Y132500D01*
Y135800D02*X307400D01*
X308150Y137750D02*Y136550D01*
Y135050D02*Y133250D01*
Y135050D02*X307400Y135800D01*
X308150Y136550D02*X307400Y135800D01*
X309950Y138500D02*X312950D01*
X309950D02*Y135500D01*
X310700Y136250D01*
X312200D01*
X312950Y135500D01*
Y133250D01*
X312200Y132500D02*X312950Y133250D01*
X310700Y132500D02*X312200D01*
X309950Y133250D02*X310700Y132500D01*
X314750Y136250D02*X315500D01*
X314750Y134750D02*X315500D01*
X317300D02*X320300Y138500D01*
X317300Y134750D02*X321050D01*
X320300Y138500D02*Y132500D01*
X322850Y138500D02*X325850D01*
X322850D02*Y135500D01*
X323600Y136250D01*
X325100D01*
X325850Y135500D01*
Y133250D01*
X325100Y132500D02*X325850Y133250D01*
X323600Y132500D02*X325100D01*
X322850Y133250D02*X323600Y132500D01*
X330350Y137000D02*Y132500D01*
Y137000D02*X331400Y138500D01*
X333050D01*
X334100Y137000D01*
Y132500D01*
X330350Y135500D02*X334100D01*
X335900Y138500D02*Y132500D01*
Y138500D02*X338150Y135500D01*
X340400Y138500D01*
Y132500D01*
X347900Y138500D02*X348650Y137750D01*
X345650Y138500D02*X347900D01*
X344900Y137750D02*X345650Y138500D01*
X344900Y137750D02*Y133250D01*
X345650Y132500D01*
X347900D01*
X348650Y133250D01*
Y134750D02*Y133250D01*
X347900Y135500D02*X348650Y134750D01*
X346400Y135500D02*X347900D01*
X350450Y138500D02*Y132500D01*
Y138500D02*X352700Y135500D01*
X354950Y138500D01*
Y132500D01*
X356750Y138500D02*X359750D01*
X358250D02*Y132500D01*
X364250Y138500D02*Y133250D01*
X365000Y132500D01*
X366500D01*
X367250Y133250D01*
Y138500D02*Y133250D01*
X369050Y138500D02*X372050D01*
X370550D02*Y132500D01*
X374900D02*X376850D01*
X373850Y133550D02*X374900Y132500D01*
X373850Y137450D02*Y133550D01*
Y137450D02*X374900Y138500D01*
X376850D01*
X200000Y152000D02*Y147500D01*
Y152000D02*X201050Y153500D01*
X202700D01*
X203750Y152000D01*
Y147500D01*
X200000Y150500D02*X203750D01*
X205550D02*Y148250D01*
X206300Y147500D01*
X207800D01*
X208550Y148250D01*
Y150500D02*Y148250D01*
X211100Y153500D02*Y148250D01*
X211850Y147500D01*
X210350Y151250D02*X211850D01*
X213350Y153500D02*Y147500D01*
Y149750D02*X214100Y150500D01*
X215600D01*
X216350Y149750D01*
Y147500D01*
X218150Y149750D02*Y148250D01*
Y149750D02*X218900Y150500D01*
X220400D01*
X221150Y149750D01*
Y148250D01*
X220400Y147500D02*X221150Y148250D01*
X218900Y147500D02*X220400D01*
X218150Y148250D02*X218900Y147500D01*
X223700Y149750D02*Y147500D01*
Y149750D02*X224450Y150500D01*
X225950D01*
X222950D02*X223700Y149750D01*
X227750Y151250D02*X228500D01*
X227750Y149750D02*X228500D01*
X233000Y153500D02*X234500Y147500D01*
X236000Y153500D01*
G54D138*X237800Y152000D02*Y151850D01*
G54D137*Y149750D02*Y147500D01*
X240050Y149750D02*Y147500D01*
Y149750D02*X240800Y150500D01*
X241550D01*
X242300Y149750D01*
Y147500D01*
X239300Y150500D02*X240050Y149750D01*
X244850Y150500D02*X247100D01*
X244100Y149750D02*X244850Y150500D01*
X244100Y149750D02*Y148250D01*
X244850Y147500D01*
X247100D01*
X249650D02*X251900D01*
X248900Y148250D02*X249650Y147500D01*
X248900Y149750D02*Y148250D01*
Y149750D02*X249650Y150500D01*
X251150D01*
X251900Y149750D01*
X248900Y149000D02*X251900D01*
Y149750D02*Y149000D01*
X256400Y153500D02*Y150500D01*
X257150Y147500D01*
X258650Y150500D01*
X260150Y147500D01*
X260900Y150500D01*
Y153500D02*Y150500D01*
X263450Y147500D02*X265700D01*
X262700Y148250D02*X263450Y147500D01*
X262700Y149750D02*Y148250D01*
Y149750D02*X263450Y150500D01*
X264950D01*
X265700Y149750D01*
X262700Y149000D02*X265700D01*
Y149750D02*Y149000D01*
X269750Y150500D02*X270500Y149750D01*
X268250Y150500D02*X269750D01*
X267500Y149750D02*X268250Y150500D01*
X267500Y149750D02*Y148250D01*
X268250Y147500D01*
X270500Y150500D02*Y148250D01*
X271250Y147500D01*
X268250D02*X269750D01*
X270500Y148250D01*
X273050Y150500D02*X274550Y147500D01*
X276050Y150500D02*X274550Y147500D01*
X278600D02*X280850D01*
X277850Y148250D02*X278600Y147500D01*
X277850Y149750D02*Y148250D01*
Y149750D02*X278600Y150500D01*
X280100D01*
X280850Y149750D01*
X277850Y149000D02*X280850D01*
Y149750D02*Y149000D01*
X283400Y149750D02*Y147500D01*
Y149750D02*X284150Y150500D01*
X285650D01*
X282650D02*X283400Y149750D01*
X200000Y168500D02*X203000D01*
X201500D02*Y162500D01*
G54D138*X204800Y167000D02*Y166850D01*
G54D137*Y164750D02*Y162500D01*
X207050Y168500D02*Y163250D01*
X207800Y162500D01*
X206300Y166250D02*X207800D01*
X209300Y168500D02*Y163250D01*
X210050Y162500D01*
X212300D02*X214550D01*
X211550Y163250D02*X212300Y162500D01*
X211550Y164750D02*Y163250D01*
Y164750D02*X212300Y165500D01*
X213800D01*
X214550Y164750D01*
X211550Y164000D02*X214550D01*
Y164750D02*Y164000D01*
X216350Y166250D02*X217100D01*
X216350Y164750D02*X217100D01*
X221600Y163250D02*X222350Y162500D01*
X221600Y167750D02*X222350Y168500D01*
X221600Y167750D02*Y163250D01*
X224150Y165500D02*Y163250D01*
X224900Y162500D01*
X226400D01*
X227150Y163250D01*
Y165500D02*Y163250D01*
X229700Y164750D02*Y162500D01*
Y164750D02*X230450Y165500D01*
X231200D01*
X231950Y164750D01*
Y162500D01*
X228950Y165500D02*X229700Y164750D01*
X233750Y168500D02*Y162500D01*
Y164750D02*X236000Y162500D01*
X233750Y164750D02*X235250Y166250D01*
X238550Y164750D02*Y162500D01*
Y164750D02*X239300Y165500D01*
X240050D01*
X240800Y164750D01*
Y162500D01*
X237800Y165500D02*X238550Y164750D01*
X242600D02*Y163250D01*
Y164750D02*X243350Y165500D01*
X244850D01*
X245600Y164750D01*
Y163250D01*
X244850Y162500D02*X245600Y163250D01*
X243350Y162500D02*X244850D01*
X242600Y163250D02*X243350Y162500D01*
X247400Y165500D02*Y163250D01*
X248150Y162500D01*
X248900D01*
X249650Y163250D01*
Y165500D02*Y163250D01*
X250400Y162500D01*
X251150D01*
X251900Y163250D01*
Y165500D02*Y163250D01*
X254450Y164750D02*Y162500D01*
Y164750D02*X255200Y165500D01*
X255950D01*
X256700Y164750D01*
Y162500D01*
X253700Y165500D02*X254450Y164750D01*
X258500Y168500D02*X259250Y167750D01*
Y163250D01*
X258500Y162500D02*X259250Y163250D01*
X263750Y165500D02*X266750D01*
X271250Y168500D02*Y162500D01*
Y168500D02*X274250D01*
X271250Y165800D02*X273500D01*
X278300Y165500D02*X279050Y164750D01*
X276800Y165500D02*X278300D01*
X276050Y164750D02*X276800Y165500D01*
X276050Y164750D02*Y163250D01*
X276800Y162500D01*
X279050Y165500D02*Y163250D01*
X279800Y162500D01*
X276800D02*X278300D01*
X279050Y163250D01*
X281600Y168500D02*Y162500D01*
Y163250D02*X282350Y162500D01*
X283850D01*
X284600Y163250D01*
Y164750D02*Y163250D01*
X283850Y165500D02*X284600Y164750D01*
X282350Y165500D02*X283850D01*
X281600Y164750D02*X282350Y165500D01*
X287150Y164750D02*Y162500D01*
Y164750D02*X287900Y165500D01*
X289400D01*
X286400D02*X287150Y164750D01*
G54D138*X291200Y167000D02*Y166850D01*
G54D137*Y164750D02*Y162500D01*
X293450Y165500D02*X295700D01*
X292700Y164750D02*X293450Y165500D01*
X292700Y164750D02*Y163250D01*
X293450Y162500D01*
X295700D01*
X299750Y165500D02*X300500Y164750D01*
X298250Y165500D02*X299750D01*
X297500Y164750D02*X298250Y165500D01*
X297500Y164750D02*Y163250D01*
X298250Y162500D01*
X300500Y165500D02*Y163250D01*
X301250Y162500D01*
X298250D02*X299750D01*
X300500Y163250D01*
X303800Y168500D02*Y163250D01*
X304550Y162500D01*
X303050Y166250D02*X304550D01*
G54D138*X306050Y167000D02*Y166850D01*
G54D137*Y164750D02*Y162500D01*
X307550Y164750D02*Y163250D01*
Y164750D02*X308300Y165500D01*
X309800D01*
X310550Y164750D01*
Y163250D01*
X309800Y162500D02*X310550Y163250D01*
X308300Y162500D02*X309800D01*
X307550Y163250D02*X308300Y162500D01*
X313100Y164750D02*Y162500D01*
Y164750D02*X313850Y165500D01*
X314600D01*
X315350Y164750D01*
Y162500D01*
X312350Y165500D02*X313100Y164750D01*
X320600Y168500D02*Y162500D01*
X322550Y168500D02*X323600Y167450D01*
Y163550D01*
X322550Y162500D02*X323600Y163550D01*
X319850Y162500D02*X322550D01*
X319850Y168500D02*X322550D01*
X326150Y164750D02*Y162500D01*
Y164750D02*X326900Y165500D01*
X328400D01*
X325400D02*X326150Y164750D01*
X332450Y165500D02*X333200Y164750D01*
X330950Y165500D02*X332450D01*
X330200Y164750D02*X330950Y165500D01*
X330200Y164750D02*Y163250D01*
X330950Y162500D01*
X333200Y165500D02*Y163250D01*
X333950Y162500D01*
X330950D02*X332450D01*
X333200Y163250D01*
X335750Y165500D02*Y163250D01*
X336500Y162500D01*
X337250D01*
X338000Y163250D01*
Y165500D02*Y163250D01*
X338750Y162500D01*
X339500D01*
X340250Y163250D01*
Y165500D02*Y163250D01*
G54D138*X342050Y167000D02*Y166850D01*
G54D137*Y164750D02*Y162500D01*
X344300Y164750D02*Y162500D01*
Y164750D02*X345050Y165500D01*
X345800D01*
X346550Y164750D01*
Y162500D01*
X343550Y165500D02*X344300Y164750D01*
X350600Y165500D02*X351350Y164750D01*
X349100Y165500D02*X350600D01*
X348350Y164750D02*X349100Y165500D01*
X348350Y164750D02*Y163250D01*
X349100Y162500D01*
X350600D01*
X351350Y163250D01*
X348350Y161000D02*X349100Y160250D01*
X350600D01*
X351350Y161000D01*
Y165500D02*Y161000D01*
M02*
