G04 start of page 4 for group 2 idx 2 *
G04 Title: (unknown), signal2 *
G04 Creator: pcb 20110918 *
G04 CreationDate: Sat 01 Feb 2014 02:35:45 AM GMT UTC *
G04 For: vince *
G04 Format: Gerber/RS-274X *
G04 PCB-Dimensions: 300000 110000 *
G04 PCB-Coordinate-Origin: lower left *
%MOIN*%
%FSLAX25Y25*%
%LNGROUP2*%
%ADD50C,0.1100*%
%ADD49C,0.1250*%
%ADD48C,0.0280*%
%ADD47C,0.0905*%
%ADD46C,0.0380*%
%ADD45C,0.0350*%
%ADD44C,0.1500*%
%ADD43C,0.1750*%
%ADD42C,0.0700*%
%ADD41C,0.1155*%
%ADD40C,0.0001*%
%ADD39C,0.1205*%
%ADD38C,0.0600*%
G54D38*X162500Y52500D03*
Y92500D03*
X152500D03*
X172500Y52500D03*
Y92500D03*
X182500Y52500D03*
Y92500D03*
X192500Y52500D03*
X202500D03*
X192500Y92500D03*
X155000Y15000D03*
Y25000D03*
X165000Y15000D03*
Y25000D03*
X175000Y15000D03*
Y25000D03*
X185000Y15000D03*
Y25000D03*
X195000Y15000D03*
Y25000D03*
X83777Y55670D03*
G54D39*X95850Y45000D03*
G54D40*G36*
X116500Y76000D02*Y69000D01*
X123500D01*
Y76000D01*
X116500D01*
G37*
G54D38*X56223Y55670D03*
X66063D03*
X73937D03*
G54D41*X44150Y45000D03*
G54D38*X77500Y77500D03*
X47500D03*
G54D40*G36*
X12000Y40500D02*Y34500D01*
X18000D01*
Y40500D01*
X12000D01*
G37*
G54D38*X15000Y47500D03*
Y57500D03*
Y67500D03*
G54D40*G36*
X94500Y100500D02*Y94500D01*
X100500D01*
Y100500D01*
X94500D01*
G37*
G54D38*X107500Y97500D03*
X117500D03*
X127500D03*
G54D40*G36*
X44500Y100500D02*Y94500D01*
X50500D01*
Y100500D01*
X44500D01*
G37*
G54D38*X57500Y97500D03*
X67500D03*
X77500D03*
X152500Y52500D03*
G54D42*X130000Y72500D03*
G54D40*G36*
X122000Y18000D02*Y12000D01*
X128000D01*
Y18000D01*
X122000D01*
G37*
G54D38*X125000Y25000D03*
X135000Y15000D03*
Y25000D03*
X145000Y15000D03*
Y25000D03*
X202500Y92500D03*
G54D40*G36*
X222000Y70500D02*Y64500D01*
X228000D01*
Y70500D01*
X222000D01*
G37*
G54D38*X225000Y57500D03*
Y47500D03*
X205000Y15000D03*
Y25000D03*
G54D43*X243500Y55000D03*
G54D44*X267500D03*
X255500Y74000D03*
G54D38*X215000Y15000D03*
X225000D03*
X235000D03*
X215000Y25000D03*
X225000D03*
X235000D03*
X245000Y15000D03*
Y25000D03*
X148000Y44000D03*
G54D45*G54D46*G54D47*G54D48*G54D46*G54D47*G54D48*G54D46*G54D49*G54D46*G54D49*G54D45*G54D48*G54D46*G54D45*G54D46*G54D49*G54D50*G54D49*G54D46*G54D49*G54D46*M02*
