G04 start of page 7 for group 5 idx 5 *
G04 Title: (unknown), bottom *
G04 Creator: pcb 20110918 *
G04 CreationDate: Sat 01 Feb 2014 02:35:45 AM GMT UTC *
G04 For: vince *
G04 Format: Gerber/RS-274X *
G04 PCB-Dimensions: 300000 110000 *
G04 PCB-Coordinate-Origin: lower left *
%MOIN*%
%FSLAX25Y25*%
%LNBOTTOM*%
%ADD91C,0.1100*%
%ADD90C,0.1250*%
%ADD89C,0.0280*%
%ADD88C,0.0905*%
%ADD87C,0.0380*%
%ADD86C,0.0350*%
%ADD85C,0.1500*%
%ADD84C,0.1750*%
%ADD83C,0.0700*%
%ADD82C,0.1155*%
%ADD81C,0.0001*%
%ADD80C,0.1205*%
%ADD79C,0.0600*%
%ADD78C,0.0100*%
%ADD77C,0.0250*%
G54D77*X97500Y97500D02*X92250Y92250D01*
X107500Y97500D02*X90500Y80500D01*
X97500Y102750D02*Y97500D01*
D03*
D03*
X83500Y80500D02*X80500Y77500D01*
X90500Y80500D02*X83500D01*
X86775Y67500D02*X103125Y51150D01*
X77500Y77500D02*X80500D01*
X77500D02*X80500D01*
X77500D01*
X120000Y72250D02*X52750D01*
X92250Y92250D02*X52750D01*
G54D78*X103388Y50888D02*X104112D01*
G54D77*X143125Y52500D02*X119750Y29125D01*
X141000Y59250D02*X116250Y34500D01*
X104112Y50888D02*X118375Y36625D01*
X165000Y15000D02*X173750Y6250D01*
X144000Y44000D02*X125000Y25000D01*
X145000Y15000D02*X139750Y9750D01*
X152500Y51000D02*Y52500D01*
Y54000D01*
X167250Y59250D02*X141000D01*
X152500Y52500D02*X143125D01*
X148000Y44000D02*X144000D01*
X116250Y34500D02*Y14375D01*
X119750Y29125D02*Y20250D01*
X139750Y9750D02*X120875D01*
X119750Y20250D02*X125000Y15000D01*
X120875Y9750D02*X116250Y14375D01*
X47500Y97500D02*X52750Y92250D01*
X42250D02*X30250Y80250D01*
X47500Y97500D02*X42250Y92250D01*
X47500Y77500D02*X52750Y72250D01*
X86775Y67500D02*X15000D01*
X18375Y80250D02*X9750Y71625D01*
X30250Y80250D02*X18375D01*
X9750Y42750D02*X15000Y37500D01*
X9750Y71625D02*Y42750D01*
X202500Y72500D02*X130000D01*
X120000D02*Y72250D01*
Y72500D02*Y72250D01*
Y72500D02*Y72250D01*
X129250Y99250D02*X127500Y97500D01*
X187250Y99250D02*X129250D01*
X202500Y102750D02*X97500D01*
X202500Y94000D03*
X260000Y42250D02*X254500D01*
X260000D02*X254500D01*
X267500Y55000D02*X260000Y47500D01*
Y42250D01*
X254500D02*Y9250D01*
X249125Y30250D02*X250250Y29125D01*
Y10875D02*X249125Y9750D01*
X250250Y29125D02*Y10875D01*
X254500Y9250D02*X251500Y6250D01*
X202500Y72500D02*Y71000D01*
Y51000D02*Y52500D01*
Y72500D02*Y71000D01*
Y51000D01*
Y91000D02*Y72500D01*
X187250Y99250D02*X192500Y94000D01*
Y91000D02*Y92500D01*
Y94000D01*
Y92500D01*
X167250Y59250D02*X172500Y54000D01*
X192500Y51000D02*Y46125D01*
X172500Y54000D02*Y52500D01*
X202500Y102750D02*Y94000D01*
Y102750D03*
Y94000D03*
Y92500D01*
X225000Y15000D02*X230250Y9750D01*
X249125D02*X230250D01*
X249125Y30250D02*X208375D01*
X254500Y42250D02*X211250D01*
X192500Y46125D02*X208375Y30250D01*
X211250Y42250D02*X202500Y51000D01*
X251500Y6250D02*X173750D01*
G54D79*X162500Y52500D03*
Y92500D03*
X152500D03*
X172500Y52500D03*
Y92500D03*
X182500Y52500D03*
Y92500D03*
X192500Y52500D03*
X202500D03*
X192500Y92500D03*
X155000Y15000D03*
Y25000D03*
X165000Y15000D03*
Y25000D03*
X175000Y15000D03*
Y25000D03*
X185000Y15000D03*
Y25000D03*
X195000Y15000D03*
Y25000D03*
X83777Y55670D03*
G54D80*X95850Y45000D03*
G54D81*G36*
X116500Y76000D02*Y69000D01*
X123500D01*
Y76000D01*
X116500D01*
G37*
G54D79*X56223Y55670D03*
X66063D03*
X73937D03*
G54D82*X44150Y45000D03*
G54D79*X77500Y77500D03*
X47500D03*
G54D81*G36*
X12000Y40500D02*Y34500D01*
X18000D01*
Y40500D01*
X12000D01*
G37*
G54D79*X15000Y47500D03*
Y57500D03*
Y67500D03*
G54D81*G36*
X94500Y100500D02*Y94500D01*
X100500D01*
Y100500D01*
X94500D01*
G37*
G54D79*X107500Y97500D03*
X117500D03*
X127500D03*
G54D81*G36*
X44500Y100500D02*Y94500D01*
X50500D01*
Y100500D01*
X44500D01*
G37*
G54D79*X57500Y97500D03*
X67500D03*
X77500D03*
X152500Y52500D03*
G54D83*X130000Y72500D03*
G54D81*G36*
X122000Y18000D02*Y12000D01*
X128000D01*
Y18000D01*
X122000D01*
G37*
G54D79*X125000Y25000D03*
X135000Y15000D03*
Y25000D03*
X145000Y15000D03*
Y25000D03*
X202500Y92500D03*
G54D81*G36*
X222000Y70500D02*Y64500D01*
X228000D01*
Y70500D01*
X222000D01*
G37*
G54D79*X225000Y57500D03*
Y47500D03*
X205000Y15000D03*
Y25000D03*
G54D84*X243500Y55000D03*
G54D85*X267500D03*
X255500Y74000D03*
G54D79*X215000Y15000D03*
X225000D03*
X235000D03*
X215000Y25000D03*
X225000D03*
X235000D03*
X245000Y15000D03*
Y25000D03*
X202500Y94000D02*Y91000D01*
X192500Y94000D02*Y91000D01*
X182500Y94000D02*Y91000D01*
X172500Y94000D02*Y91000D01*
X162500Y94000D02*Y91000D01*
X152500Y94000D02*Y91000D01*
X172500Y54000D02*Y51000D01*
X182500Y54000D02*Y51000D01*
X152500Y54000D02*Y51000D01*
X162500Y54000D02*Y51000D01*
X192500Y54000D02*Y51000D01*
X202500Y54000D02*Y51000D01*
X148000Y44000D03*
G54D86*G54D87*G54D88*G54D89*G54D87*G54D88*G54D89*G54D87*G54D90*G54D87*G54D90*G54D86*G54D89*G54D87*G54D86*G54D87*G54D90*G54D91*G54D90*G54D87*G54D90*G54D87*M02*
