G04 start of page 11 for group -3984 idx -3984 *
G04 Title: (unknown), fab *
G04 Creator: pcb 20140316 *
G04 CreationDate: Wed 05 Apr 2017 02:07:19 PM GMT UTC *
G04 For: vince *
G04 Format: Gerber/RS-274X *
G04 PCB-Dimensions (mil): 2340.00 710.00 *
G04 PCB-Coordinate-Origin: lower left *
%MOIN*%
%FSLAX25Y25*%
%LNFAB*%
%ADD41C,0.0100*%
%ADD40C,0.0075*%
%ADD39C,0.0060*%
%ADD38C,0.0080*%
G54D38*X11800Y22200D02*X14200Y19800D01*
X11800D02*X14200Y22200D01*
X219800D02*X222200Y19800D01*
X219800D02*X222200Y22200D01*
X13800Y98450D02*X16200Y96050D01*
X13800D02*X16200Y98450D01*
G54D39*X140000Y99500D02*Y93500D01*
Y99500D02*X143750Y93500D01*
Y99500D02*Y93500D01*
X145550Y98750D02*Y94250D01*
Y98750D02*X146300Y99500D01*
X147800D01*
X148550Y98750D01*
Y94250D01*
X147800Y93500D02*X148550Y94250D01*
X146300Y93500D02*X147800D01*
X145550Y94250D02*X146300Y93500D01*
X98000Y98750D02*X98750Y99500D01*
X101000D01*
X101750Y98750D01*
Y97250D01*
X98000Y93500D02*X101750Y97250D01*
X98000Y93500D02*X101750D01*
X45000Y94250D02*X45750Y93500D01*
X45000Y98750D02*Y94250D01*
Y98750D02*X45750Y99500D01*
X47250D01*
X48000Y98750D01*
Y94250D01*
X47250Y93500D02*X48000Y94250D01*
X45750Y93500D02*X47250D01*
X45000Y95000D02*X48000Y98000D01*
X49800Y93500D02*X50550D01*
X52350Y98300D02*X53550Y99500D01*
Y93500D01*
X52350D02*X54600D01*
X56400Y98750D02*X57150Y99500D01*
X59400D01*
X60150Y98750D01*
Y97250D01*
X56400Y93500D02*X60150Y97250D01*
X56400Y93500D02*X60150D01*
X62700D02*X64950Y96500D01*
Y98750D02*Y96500D01*
X64200Y99500D02*X64950Y98750D01*
X62700Y99500D02*X64200D01*
X61950Y98750D02*X62700Y99500D01*
X61950Y98750D02*Y97250D01*
X62700Y96500D01*
X64950D01*
X48102Y47218D02*Y44018D01*
X46502Y45618D02*X49702D01*
X48102Y61982D02*Y58782D01*
X46502Y60382D02*X49702D01*
X185898Y61982D02*Y58782D01*
X184298Y60382D02*X187498D01*
X48102Y13218D02*Y10018D01*
X46502Y11618D02*X49702D01*
X48102Y27982D02*Y24782D01*
X46502Y26382D02*X49702D01*
X185898Y27982D02*Y24782D01*
X184298Y26382D02*X187498D01*
X15000Y113850D02*Y110650D01*
X13400Y112250D02*X16600D01*
X135000Y114500D02*X136500Y111500D01*
X138000Y114500D01*
X136500Y111500D02*Y108500D01*
X139800Y111800D02*X142050D01*
X139800Y108500D02*X142800D01*
X139800Y114500D02*Y108500D01*
Y114500D02*X142800D01*
X147600D02*X148350Y113750D01*
X145350Y114500D02*X147600D01*
X144600Y113750D02*X145350Y114500D01*
X144600Y113750D02*Y112250D01*
X145350Y111500D01*
X147600D01*
X148350Y110750D01*
Y109250D01*
X147600Y108500D02*X148350Y109250D01*
X145350Y108500D02*X147600D01*
X144600Y109250D02*X145350Y108500D01*
X100250Y114500D02*X101000Y113750D01*
X98750Y114500D02*X100250D01*
X98000Y113750D02*X98750Y114500D01*
X98000Y113750D02*Y109250D01*
X98750Y108500D01*
X100250Y111800D02*X101000Y111050D01*
X98000Y111800D02*X100250D01*
X98750Y108500D02*X100250D01*
X101000Y109250D01*
Y111050D02*Y109250D01*
X45000D02*X45750Y108500D01*
X45000Y113750D02*Y109250D01*
Y113750D02*X45750Y114500D01*
X47250D01*
X48000Y113750D01*
Y109250D01*
X47250Y108500D02*X48000Y109250D01*
X45750Y108500D02*X47250D01*
X45000Y110000D02*X48000Y113000D01*
X49800Y108500D02*X50550D01*
X52350Y109250D02*X53100Y108500D01*
X52350Y113750D02*Y109250D01*
Y113750D02*X53100Y114500D01*
X54600D01*
X55350Y113750D01*
Y109250D01*
X54600Y108500D02*X55350Y109250D01*
X53100Y108500D02*X54600D01*
X52350Y110000D02*X55350Y113000D01*
X57150Y114500D02*X60150D01*
X57150D02*Y111500D01*
X57900Y112250D01*
X59400D01*
X60150Y111500D01*
Y109250D01*
X59400Y108500D02*X60150Y109250D01*
X57900Y108500D02*X59400D01*
X57150Y109250D02*X57900Y108500D01*
X62700D02*X64950Y111500D01*
Y113750D02*Y111500D01*
X64200Y114500D02*X64950Y113750D01*
X62700Y114500D02*X64200D01*
X61950Y113750D02*X62700Y114500D01*
X61950Y113750D02*Y112250D01*
X62700Y111500D01*
X64950D01*
X13000Y52000D02*Y50400D01*
Y52000D02*X14387Y52800D01*
X13000Y52000D02*X11613Y52800D01*
X13000Y42000D02*Y40400D01*
Y42000D02*X14387Y42800D01*
X13000Y42000D02*X11613Y42800D01*
X221000Y52000D02*Y50400D01*
Y52000D02*X222387Y52800D01*
X221000Y52000D02*X219613Y52800D01*
X221000Y42000D02*Y40400D01*
Y42000D02*X222387Y42800D01*
X221000Y42000D02*X219613Y42800D01*
X15000Y127250D02*Y125650D01*
Y127250D02*X16387Y128050D01*
X15000Y127250D02*X13613Y128050D01*
X135000Y129500D02*X136500Y126500D01*
X138000Y129500D01*
X136500Y126500D02*Y123500D01*
X139800Y126800D02*X142050D01*
X139800Y123500D02*X142800D01*
X139800Y129500D02*Y123500D01*
Y129500D02*X142800D01*
X147600D02*X148350Y128750D01*
X145350Y129500D02*X147600D01*
X144600Y128750D02*X145350Y129500D01*
X144600Y128750D02*Y127250D01*
X145350Y126500D01*
X147600D01*
X148350Y125750D01*
Y124250D01*
X147600Y123500D02*X148350Y124250D01*
X145350Y123500D02*X147600D01*
X144600Y124250D02*X145350Y123500D01*
X98000Y125750D02*X101000Y129500D01*
X98000Y125750D02*X101750D01*
X101000Y129500D02*Y123500D01*
X45000Y124250D02*X45750Y123500D01*
X45000Y128750D02*Y124250D01*
Y128750D02*X45750Y129500D01*
X47250D01*
X48000Y128750D01*
Y124250D01*
X47250Y123500D02*X48000Y124250D01*
X45750Y123500D02*X47250D01*
X45000Y125000D02*X48000Y128000D01*
X49800Y123500D02*X50550D01*
X52350Y124250D02*X53100Y123500D01*
X52350Y128750D02*Y124250D01*
Y128750D02*X53100Y129500D01*
X54600D01*
X55350Y128750D01*
Y124250D01*
X54600Y123500D02*X55350Y124250D01*
X53100Y123500D02*X54600D01*
X52350Y125000D02*X55350Y128000D01*
X57150Y128750D02*X57900Y129500D01*
X59400D01*
X60150Y128750D01*
X59400Y123500D02*X60150Y124250D01*
X57900Y123500D02*X59400D01*
X57150Y124250D02*X57900Y123500D01*
Y126800D02*X59400D01*
X60150Y128750D02*Y127550D01*
Y126050D02*Y124250D01*
Y126050D02*X59400Y126800D01*
X60150Y127550D02*X59400Y126800D01*
X61950Y124250D02*X62700Y123500D01*
X61950Y125450D02*Y124250D01*
Y125450D02*X63000Y126500D01*
X63900D01*
X64950Y125450D01*
Y124250D01*
X64200Y123500D02*X64950Y124250D01*
X62700Y123500D02*X64200D01*
X61950Y127550D02*X63000Y126500D01*
X61950Y128750D02*Y127550D01*
Y128750D02*X62700Y129500D01*
X64200D01*
X64950Y128750D01*
Y127550D01*
X63900Y126500D02*X64950Y127550D01*
X3000Y144500D02*X3750Y143750D01*
X750Y144500D02*X3000D01*
X0Y143750D02*X750Y144500D01*
X0Y143750D02*Y142250D01*
X750Y141500D01*
X3000D01*
X3750Y140750D01*
Y139250D01*
X3000Y138500D02*X3750Y139250D01*
X750Y138500D02*X3000D01*
X0Y139250D02*X750Y138500D01*
X5550Y141500D02*Y139250D01*
X6300Y138500D01*
X8550Y141500D02*Y137000D01*
X7800Y136250D02*X8550Y137000D01*
X6300Y136250D02*X7800D01*
X5550Y137000D02*X6300Y136250D01*
Y138500D02*X7800D01*
X8550Y139250D01*
X11100Y140750D02*Y138500D01*
Y140750D02*X11850Y141500D01*
X12600D01*
X13350Y140750D01*
Y138500D01*
Y140750D02*X14100Y141500D01*
X14850D01*
X15600Y140750D01*
Y138500D01*
X10350Y141500D02*X11100Y140750D01*
X17400Y144500D02*Y138500D01*
Y139250D02*X18150Y138500D01*
X19650D01*
X20400Y139250D01*
Y140750D02*Y139250D01*
X19650Y141500D02*X20400Y140750D01*
X18150Y141500D02*X19650D01*
X17400Y140750D02*X18150Y141500D01*
X22200Y140750D02*Y139250D01*
Y140750D02*X22950Y141500D01*
X24450D01*
X25200Y140750D01*
Y139250D01*
X24450Y138500D02*X25200Y139250D01*
X22950Y138500D02*X24450D01*
X22200Y139250D02*X22950Y138500D01*
X27000Y144500D02*Y139250D01*
X27750Y138500D01*
X0Y136750D02*X29250D01*
X41750Y144500D02*Y138500D01*
X43700Y144500D02*X44750Y143450D01*
Y139550D01*
X43700Y138500D02*X44750Y139550D01*
X41000Y138500D02*X43700D01*
X41000Y144500D02*X43700D01*
G54D40*X46550Y143000D02*Y142850D01*
G54D39*Y140750D02*Y138500D01*
X50300Y141500D02*X51050Y140750D01*
X48800Y141500D02*X50300D01*
X48050Y140750D02*X48800Y141500D01*
X48050Y140750D02*Y139250D01*
X48800Y138500D01*
X51050Y141500D02*Y139250D01*
X51800Y138500D01*
X48800D02*X50300D01*
X51050Y139250D01*
X54350Y140750D02*Y138500D01*
Y140750D02*X55100Y141500D01*
X55850D01*
X56600Y140750D01*
Y138500D01*
Y140750D02*X57350Y141500D01*
X58100D01*
X58850Y140750D01*
Y138500D01*
X53600Y141500D02*X54350Y140750D01*
X60650Y138500D02*X61400D01*
X65900Y139250D02*X66650Y138500D01*
X65900Y143750D02*X66650Y144500D01*
X65900Y143750D02*Y139250D01*
X68450Y144500D02*X69950D01*
X69200D02*Y138500D01*
X68450D02*X69950D01*
X72500Y140750D02*Y138500D01*
Y140750D02*X73250Y141500D01*
X74000D01*
X74750Y140750D01*
Y138500D01*
X71750Y141500D02*X72500Y140750D01*
X77300Y141500D02*X79550D01*
X76550Y140750D02*X77300Y141500D01*
X76550Y140750D02*Y139250D01*
X77300Y138500D01*
X79550D01*
X81350Y144500D02*Y138500D01*
Y140750D02*X82100Y141500D01*
X83600D01*
X84350Y140750D01*
Y138500D01*
X86150Y144500D02*X86900Y143750D01*
Y139250D01*
X86150Y138500D02*X86900Y139250D01*
X41000Y136750D02*X88700D01*
X96050Y138500D02*X98000D01*
X95000Y139550D02*X96050Y138500D01*
X95000Y143450D02*Y139550D01*
Y143450D02*X96050Y144500D01*
X98000D01*
X99800Y140750D02*Y139250D01*
Y140750D02*X100550Y141500D01*
X102050D01*
X102800Y140750D01*
Y139250D01*
X102050Y138500D02*X102800Y139250D01*
X100550Y138500D02*X102050D01*
X99800Y139250D02*X100550Y138500D01*
X104600Y141500D02*Y139250D01*
X105350Y138500D01*
X106850D01*
X107600Y139250D01*
Y141500D02*Y139250D01*
X110150Y140750D02*Y138500D01*
Y140750D02*X110900Y141500D01*
X111650D01*
X112400Y140750D01*
Y138500D01*
X109400Y141500D02*X110150Y140750D01*
X114950Y144500D02*Y139250D01*
X115700Y138500D01*
X114200Y142250D02*X115700D01*
X95000Y136750D02*X117200D01*
X130750Y144500D02*Y138500D01*
X130000Y144500D02*X133000D01*
X133750Y143750D01*
Y142250D01*
X133000Y141500D02*X133750Y142250D01*
X130750Y141500D02*X133000D01*
X135550Y144500D02*Y139250D01*
X136300Y138500D01*
X140050Y141500D02*X140800Y140750D01*
X138550Y141500D02*X140050D01*
X137800Y140750D02*X138550Y141500D01*
X137800Y140750D02*Y139250D01*
X138550Y138500D01*
X140800Y141500D02*Y139250D01*
X141550Y138500D01*
X138550D02*X140050D01*
X140800Y139250D01*
X144100Y144500D02*Y139250D01*
X144850Y138500D01*
X143350Y142250D02*X144850D01*
X147100Y138500D02*X149350D01*
X146350Y139250D02*X147100Y138500D01*
X146350Y140750D02*Y139250D01*
Y140750D02*X147100Y141500D01*
X148600D01*
X149350Y140750D01*
X146350Y140000D02*X149350D01*
Y140750D02*Y140000D01*
X154150Y144500D02*Y138500D01*
X153400D02*X154150Y139250D01*
X151900Y138500D02*X153400D01*
X151150Y139250D02*X151900Y138500D01*
X151150Y140750D02*Y139250D01*
Y140750D02*X151900Y141500D01*
X153400D01*
X154150Y140750D01*
X157450Y141500D02*Y140750D01*
Y139250D02*Y138500D01*
X155950Y143750D02*Y143000D01*
Y143750D02*X156700Y144500D01*
X158200D01*
X158950Y143750D01*
Y143000D01*
X157450Y141500D02*X158950Y143000D01*
X130000Y136750D02*X160750D01*
X0Y159500D02*X3000D01*
X1500D02*Y153500D01*
X4800Y159500D02*Y153500D01*
Y155750D02*X5550Y156500D01*
X7050D01*
X7800Y155750D01*
Y153500D01*
X10350D02*X12600D01*
X9600Y154250D02*X10350Y153500D01*
X9600Y155750D02*Y154250D01*
Y155750D02*X10350Y156500D01*
X11850D01*
X12600Y155750D01*
X9600Y155000D02*X12600D01*
Y155750D02*Y155000D01*
X15150Y155750D02*Y153500D01*
Y155750D02*X15900Y156500D01*
X17400D01*
X14400D02*X15150Y155750D01*
X19950Y153500D02*X22200D01*
X19200Y154250D02*X19950Y153500D01*
X19200Y155750D02*Y154250D01*
Y155750D02*X19950Y156500D01*
X21450D01*
X22200Y155750D01*
X19200Y155000D02*X22200D01*
Y155750D02*Y155000D01*
X28950Y156500D02*X29700Y155750D01*
X27450Y156500D02*X28950D01*
X26700Y155750D02*X27450Y156500D01*
X26700Y155750D02*Y154250D01*
X27450Y153500D01*
X29700Y156500D02*Y154250D01*
X30450Y153500D01*
X27450D02*X28950D01*
X29700Y154250D01*
X33000Y155750D02*Y153500D01*
Y155750D02*X33750Y156500D01*
X35250D01*
X32250D02*X33000Y155750D01*
X37800Y153500D02*X40050D01*
X37050Y154250D02*X37800Y153500D01*
X37050Y155750D02*Y154250D01*
Y155750D02*X37800Y156500D01*
X39300D01*
X40050Y155750D01*
X37050Y155000D02*X40050D01*
Y155750D02*Y155000D01*
X44550Y158750D02*X45300Y159500D01*
X46800D01*
X47550Y158750D01*
X46800Y153500D02*X47550Y154250D01*
X45300Y153500D02*X46800D01*
X44550Y154250D02*X45300Y153500D01*
Y156800D02*X46800D01*
X47550Y158750D02*Y157550D01*
Y156050D02*Y154250D01*
Y156050D02*X46800Y156800D01*
X47550Y157550D02*X46800Y156800D01*
X55050Y159500D02*Y153500D01*
X54300D02*X55050Y154250D01*
X52800Y153500D02*X54300D01*
X52050Y154250D02*X52800Y153500D01*
X52050Y155750D02*Y154250D01*
Y155750D02*X52800Y156500D01*
X54300D01*
X55050Y155750D01*
G54D40*X56850Y158000D02*Y157850D01*
G54D39*Y155750D02*Y153500D01*
X59100Y158750D02*Y153500D01*
Y158750D02*X59850Y159500D01*
X60600D01*
X58350Y156500D02*X59850D01*
X62850Y158750D02*Y153500D01*
Y158750D02*X63600Y159500D01*
X64350D01*
X62100Y156500D02*X63600D01*
X66600Y153500D02*X68850D01*
X65850Y154250D02*X66600Y153500D01*
X65850Y155750D02*Y154250D01*
Y155750D02*X66600Y156500D01*
X68100D01*
X68850Y155750D01*
X65850Y155000D02*X68850D01*
Y155750D02*Y155000D01*
X71400Y155750D02*Y153500D01*
Y155750D02*X72150Y156500D01*
X73650D01*
X70650D02*X71400Y155750D01*
X76200Y153500D02*X78450D01*
X75450Y154250D02*X76200Y153500D01*
X75450Y155750D02*Y154250D01*
Y155750D02*X76200Y156500D01*
X77700D01*
X78450Y155750D01*
X75450Y155000D02*X78450D01*
Y155750D02*Y155000D01*
X81000Y155750D02*Y153500D01*
Y155750D02*X81750Y156500D01*
X82500D01*
X83250Y155750D01*
Y153500D01*
X80250Y156500D02*X81000Y155750D01*
X85800Y159500D02*Y154250D01*
X86550Y153500D01*
X85050Y157250D02*X86550D01*
X93750Y159500D02*Y153500D01*
X93000D02*X93750Y154250D01*
X91500Y153500D02*X93000D01*
X90750Y154250D02*X91500Y153500D01*
X90750Y155750D02*Y154250D01*
Y155750D02*X91500Y156500D01*
X93000D01*
X93750Y155750D01*
X96300D02*Y153500D01*
Y155750D02*X97050Y156500D01*
X98550D01*
X95550D02*X96300Y155750D01*
G54D40*X100350Y158000D02*Y157850D01*
G54D39*Y155750D02*Y153500D01*
X101850Y159500D02*Y154250D01*
X102600Y153500D01*
X104100Y159500D02*Y154250D01*
X104850Y153500D01*
X109800D02*X112050D01*
X112800Y154250D01*
X112050Y155000D02*X112800Y154250D01*
X109800Y155000D02*X112050D01*
X109050Y155750D02*X109800Y155000D01*
X109050Y155750D02*X109800Y156500D01*
X112050D01*
X112800Y155750D01*
X109050Y154250D02*X109800Y153500D01*
G54D40*X114600Y158000D02*Y157850D01*
G54D39*Y155750D02*Y153500D01*
X116100Y156500D02*X119100D01*
X116100Y153500D02*X119100Y156500D01*
X116100Y153500D02*X119100D01*
X121650D02*X123900D01*
X120900Y154250D02*X121650Y153500D01*
X120900Y155750D02*Y154250D01*
Y155750D02*X121650Y156500D01*
X123150D01*
X123900Y155750D01*
X120900Y155000D02*X123900D01*
Y155750D02*Y155000D01*
X126450Y153500D02*X128700D01*
X129450Y154250D01*
X128700Y155000D02*X129450Y154250D01*
X126450Y155000D02*X128700D01*
X125700Y155750D02*X126450Y155000D01*
X125700Y155750D02*X126450Y156500D01*
X128700D01*
X129450Y155750D01*
X125700Y154250D02*X126450Y153500D01*
X133950Y156500D02*Y154250D01*
X134700Y153500D01*
X136200D01*
X136950Y154250D01*
Y156500D02*Y154250D01*
X139500Y153500D02*X141750D01*
X142500Y154250D01*
X141750Y155000D02*X142500Y154250D01*
X139500Y155000D02*X141750D01*
X138750Y155750D02*X139500Y155000D01*
X138750Y155750D02*X139500Y156500D01*
X141750D01*
X142500Y155750D01*
X138750Y154250D02*X139500Y153500D01*
X145050D02*X147300D01*
X144300Y154250D02*X145050Y153500D01*
X144300Y155750D02*Y154250D01*
Y155750D02*X145050Y156500D01*
X146550D01*
X147300Y155750D01*
X144300Y155000D02*X147300D01*
Y155750D02*Y155000D01*
X152100Y159500D02*Y153500D01*
X151350D02*X152100Y154250D01*
X149850Y153500D02*X151350D01*
X149100Y154250D02*X149850Y153500D01*
X149100Y155750D02*Y154250D01*
Y155750D02*X149850Y156500D01*
X151350D01*
X152100Y155750D01*
G54D40*X156600Y158000D02*Y157850D01*
G54D39*Y155750D02*Y153500D01*
X158850Y155750D02*Y153500D01*
Y155750D02*X159600Y156500D01*
X160350D01*
X161100Y155750D01*
Y153500D01*
X158100Y156500D02*X158850Y155750D01*
X166350Y159500D02*Y154250D01*
X167100Y153500D01*
X165600Y157250D02*X167100D01*
X168600Y159500D02*Y153500D01*
Y155750D02*X169350Y156500D01*
X170850D01*
X171600Y155750D01*
Y153500D01*
G54D40*X173400Y158000D02*Y157850D01*
G54D39*Y155750D02*Y153500D01*
X175650D02*X177900D01*
X178650Y154250D01*
X177900Y155000D02*X178650Y154250D01*
X175650Y155000D02*X177900D01*
X174900Y155750D02*X175650Y155000D01*
X174900Y155750D02*X175650Y156500D01*
X177900D01*
X178650Y155750D01*
X174900Y154250D02*X175650Y153500D01*
X183150Y159500D02*Y154250D01*
X183900Y153500D01*
X187650Y156500D02*X188400Y155750D01*
X186150Y156500D02*X187650D01*
X185400Y155750D02*X186150Y156500D01*
X185400Y155750D02*Y154250D01*
X186150Y153500D01*
X188400Y156500D02*Y154250D01*
X189150Y153500D01*
X186150D02*X187650D01*
X188400Y154250D01*
X190950Y156500D02*Y154250D01*
X191700Y153500D01*
X193950Y156500D02*Y152000D01*
X193200Y151250D02*X193950Y152000D01*
X191700Y151250D02*X193200D01*
X190950Y152000D02*X191700Y151250D01*
Y153500D02*X193200D01*
X193950Y154250D01*
X195750Y155750D02*Y154250D01*
Y155750D02*X196500Y156500D01*
X198000D01*
X198750Y155750D01*
Y154250D01*
X198000Y153500D02*X198750Y154250D01*
X196500Y153500D02*X198000D01*
X195750Y154250D02*X196500Y153500D01*
X200550Y156500D02*Y154250D01*
X201300Y153500D01*
X202800D01*
X203550Y154250D01*
Y156500D02*Y154250D01*
X206100Y159500D02*Y154250D01*
X206850Y153500D01*
X205350Y157250D02*X206850D01*
X208350Y152000D02*X209850Y153500D01*
X214350Y158300D02*X215550Y159500D01*
Y153500D01*
X214350D02*X216600D01*
X218400Y158750D02*X219150Y159500D01*
X221400D01*
X222150Y158750D01*
Y157250D01*
X218400Y153500D02*X222150Y157250D01*
X218400Y153500D02*X222150D01*
X226650Y159500D02*Y153500D01*
Y155750D02*X227400Y156500D01*
X228900D01*
X229650Y155750D01*
Y153500D01*
X231450Y155750D02*Y154250D01*
Y155750D02*X232200Y156500D01*
X233700D01*
X234450Y155750D01*
Y154250D01*
X233700Y153500D02*X234450Y154250D01*
X232200Y153500D02*X233700D01*
X231450Y154250D02*X232200Y153500D01*
X236250Y159500D02*Y154250D01*
X237000Y153500D01*
X239250D02*X241500D01*
X238500Y154250D02*X239250Y153500D01*
X238500Y155750D02*Y154250D01*
Y155750D02*X239250Y156500D01*
X240750D01*
X241500Y155750D01*
X238500Y155000D02*X241500D01*
Y155750D02*Y155000D01*
X244050Y153500D02*X246300D01*
X247050Y154250D01*
X246300Y155000D02*X247050Y154250D01*
X244050Y155000D02*X246300D01*
X243300Y155750D02*X244050Y155000D01*
X243300Y155750D02*X244050Y156500D01*
X246300D01*
X247050Y155750D01*
X243300Y154250D02*X244050Y153500D01*
X252300Y159500D02*Y154250D01*
X253050Y153500D01*
X251550Y157250D02*X253050D01*
X254550Y155750D02*Y154250D01*
Y155750D02*X255300Y156500D01*
X256800D01*
X257550Y155750D01*
Y154250D01*
X256800Y153500D02*X257550Y154250D01*
X255300Y153500D02*X256800D01*
X254550Y154250D02*X255300Y153500D01*
X260100Y159500D02*Y154250D01*
X260850Y153500D01*
X259350Y157250D02*X260850D01*
X264600Y156500D02*X265350Y155750D01*
X263100Y156500D02*X264600D01*
X262350Y155750D02*X263100Y156500D01*
X262350Y155750D02*Y154250D01*
X263100Y153500D01*
X265350Y156500D02*Y154250D01*
X266100Y153500D01*
X263100D02*X264600D01*
X265350Y154250D01*
X267900Y159500D02*Y154250D01*
X268650Y153500D01*
G54D41*X0Y0D02*X234000D01*
Y71000D01*
X0D01*
Y0D01*
G54D39*X30675Y-9500D02*X33675D01*
X34425Y-8750D01*
Y-6950D02*Y-8750D01*
X33675Y-6200D02*X34425Y-6950D01*
X31425Y-6200D02*X33675D01*
X31425Y-3500D02*Y-9500D01*
X30675Y-3500D02*X33675D01*
X34425Y-4250D01*
Y-5450D01*
X33675Y-6200D02*X34425Y-5450D01*
X36225Y-7250D02*Y-8750D01*
Y-7250D02*X36975Y-6500D01*
X38475D01*
X39225Y-7250D01*
Y-8750D01*
X38475Y-9500D02*X39225Y-8750D01*
X36975Y-9500D02*X38475D01*
X36225Y-8750D02*X36975Y-9500D01*
X43275Y-6500D02*X44025Y-7250D01*
X41775Y-6500D02*X43275D01*
X41025Y-7250D02*X41775Y-6500D01*
X41025Y-7250D02*Y-8750D01*
X41775Y-9500D01*
X44025Y-6500D02*Y-8750D01*
X44775Y-9500D01*
X41775D02*X43275D01*
X44025Y-8750D01*
X47325Y-7250D02*Y-9500D01*
Y-7250D02*X48075Y-6500D01*
X49575D01*
X46575D02*X47325Y-7250D01*
X54375Y-3500D02*Y-9500D01*
X53625D02*X54375Y-8750D01*
X52125Y-9500D02*X53625D01*
X51375Y-8750D02*X52125Y-9500D01*
X51375Y-7250D02*Y-8750D01*
Y-7250D02*X52125Y-6500D01*
X53625D01*
X54375Y-7250D01*
X58875D02*Y-8750D01*
Y-7250D02*X59625Y-6500D01*
X61125D01*
X61875Y-7250D01*
Y-8750D01*
X61125Y-9500D02*X61875Y-8750D01*
X59625Y-9500D02*X61125D01*
X58875Y-8750D02*X59625Y-9500D01*
X63675Y-6500D02*Y-8750D01*
X64425Y-9500D01*
X65925D01*
X66675Y-8750D01*
Y-6500D02*Y-8750D01*
X69225Y-3500D02*Y-8750D01*
X69975Y-9500D01*
X68475Y-5750D02*X69975D01*
X71475Y-3500D02*Y-8750D01*
X72225Y-9500D01*
G54D40*X73725Y-5000D02*Y-5150D01*
G54D39*Y-7250D02*Y-9500D01*
X75975Y-7250D02*Y-9500D01*
Y-7250D02*X76725Y-6500D01*
X77475D01*
X78225Y-7250D01*
Y-9500D01*
X75225Y-6500D02*X75975Y-7250D01*
X80775Y-9500D02*X83025D01*
X80025Y-8750D02*X80775Y-9500D01*
X80025Y-7250D02*Y-8750D01*
Y-7250D02*X80775Y-6500D01*
X82275D01*
X83025Y-7250D01*
X80025Y-8000D02*X83025D01*
Y-7250D02*Y-8000D01*
G54D40*X87525Y-5000D02*Y-5150D01*
G54D39*Y-7250D02*Y-9500D01*
X89775D02*X92025D01*
X92775Y-8750D01*
X92025Y-8000D02*X92775Y-8750D01*
X89775Y-8000D02*X92025D01*
X89025Y-7250D02*X89775Y-8000D01*
X89025Y-7250D02*X89775Y-6500D01*
X92025D01*
X92775Y-7250D01*
X89025Y-8750D02*X89775Y-9500D01*
X98025Y-3500D02*Y-8750D01*
X98775Y-9500D01*
X97275Y-5750D02*X98775D01*
X100275Y-3500D02*Y-9500D01*
Y-7250D02*X101025Y-6500D01*
X102525D01*
X103275Y-7250D01*
Y-9500D01*
X105825D02*X108075D01*
X105075Y-8750D02*X105825Y-9500D01*
X105075Y-7250D02*Y-8750D01*
Y-7250D02*X105825Y-6500D01*
X107325D01*
X108075Y-7250D01*
X105075Y-8000D02*X108075D01*
Y-7250D02*Y-8000D01*
X113325Y-6500D02*X115575D01*
X112575Y-7250D02*X113325Y-6500D01*
X112575Y-7250D02*Y-8750D01*
X113325Y-9500D01*
X115575D01*
X118125D02*X120375D01*
X117375Y-8750D02*X118125Y-9500D01*
X117375Y-7250D02*Y-8750D01*
Y-7250D02*X118125Y-6500D01*
X119625D01*
X120375Y-7250D01*
X117375Y-8000D02*X120375D01*
Y-7250D02*Y-8000D01*
X122925Y-7250D02*Y-9500D01*
Y-7250D02*X123675Y-6500D01*
X124425D01*
X125175Y-7250D01*
Y-9500D01*
X122175Y-6500D02*X122925Y-7250D01*
X127725Y-3500D02*Y-8750D01*
X128475Y-9500D01*
X126975Y-5750D02*X128475D01*
X130725Y-9500D02*X132975D01*
X129975Y-8750D02*X130725Y-9500D01*
X129975Y-7250D02*Y-8750D01*
Y-7250D02*X130725Y-6500D01*
X132225D01*
X132975Y-7250D01*
X129975Y-8000D02*X132975D01*
Y-7250D02*Y-8000D01*
X135525Y-7250D02*Y-9500D01*
Y-7250D02*X136275Y-6500D01*
X137775D01*
X134775D02*X135525Y-7250D01*
X139575Y-3500D02*Y-8750D01*
X140325Y-9500D01*
G54D40*X141825Y-5000D02*Y-5150D01*
G54D39*Y-7250D02*Y-9500D01*
X144075Y-7250D02*Y-9500D01*
Y-7250D02*X144825Y-6500D01*
X145575D01*
X146325Y-7250D01*
Y-9500D01*
X143325Y-6500D02*X144075Y-7250D01*
X148875Y-9500D02*X151125D01*
X148125Y-8750D02*X148875Y-9500D01*
X148125Y-7250D02*Y-8750D01*
Y-7250D02*X148875Y-6500D01*
X150375D01*
X151125Y-7250D01*
X148125Y-8000D02*X151125D01*
Y-7250D02*Y-8000D01*
X155625Y-7250D02*Y-8750D01*
Y-7250D02*X156375Y-6500D01*
X157875D01*
X158625Y-7250D01*
Y-8750D01*
X157875Y-9500D02*X158625Y-8750D01*
X156375Y-9500D02*X157875D01*
X155625Y-8750D02*X156375Y-9500D01*
X161175Y-4250D02*Y-9500D01*
Y-4250D02*X161925Y-3500D01*
X162675D01*
X160425Y-6500D02*X161925D01*
X167625Y-3500D02*Y-8750D01*
X168375Y-9500D01*
X166875Y-5750D02*X168375D01*
X169875Y-3500D02*Y-9500D01*
Y-7250D02*X170625Y-6500D01*
X172125D01*
X172875Y-7250D01*
Y-9500D01*
G54D40*X174675Y-5000D02*Y-5150D01*
G54D39*Y-7250D02*Y-9500D01*
X176925D02*X179175D01*
X179925Y-8750D01*
X179175Y-8000D02*X179925Y-8750D01*
X176925Y-8000D02*X179175D01*
X176175Y-7250D02*X176925Y-8000D01*
X176175Y-7250D02*X176925Y-6500D01*
X179175D01*
X179925Y-7250D01*
X176175Y-8750D02*X176925Y-9500D01*
X185175Y-7250D02*Y-11750D01*
X184425Y-6500D02*X185175Y-7250D01*
X185925Y-6500D01*
X187425D01*
X188175Y-7250D01*
Y-8750D01*
X187425Y-9500D02*X188175Y-8750D01*
X185925Y-9500D02*X187425D01*
X185175Y-8750D02*X185925Y-9500D01*
X192225Y-6500D02*X192975Y-7250D01*
X190725Y-6500D02*X192225D01*
X189975Y-7250D02*X190725Y-6500D01*
X189975Y-7250D02*Y-8750D01*
X190725Y-9500D01*
X192975Y-6500D02*Y-8750D01*
X193725Y-9500D01*
X190725D02*X192225D01*
X192975Y-8750D01*
X196275Y-3500D02*Y-8750D01*
X197025Y-9500D01*
X195525Y-5750D02*X197025D01*
X198525Y-3500D02*Y-9500D01*
Y-7250D02*X199275Y-6500D01*
X200775D01*
X201525Y-7250D01*
Y-9500D01*
X200750Y99500D02*Y93500D01*
X202700Y99500D02*X203750Y98450D01*
Y94550D01*
X202700Y93500D02*X203750Y94550D01*
X200000Y93500D02*X202700D01*
X200000Y99500D02*X202700D01*
X207800Y96500D02*X208550Y95750D01*
X206300Y96500D02*X207800D01*
X205550Y95750D02*X206300Y96500D01*
X205550Y95750D02*Y94250D01*
X206300Y93500D01*
X208550Y96500D02*Y94250D01*
X209300Y93500D01*
X206300D02*X207800D01*
X208550Y94250D01*
X211850Y99500D02*Y94250D01*
X212600Y93500D01*
X211100Y97250D02*X212600D01*
X214850Y93500D02*X217100D01*
X214100Y94250D02*X214850Y93500D01*
X214100Y95750D02*Y94250D01*
Y95750D02*X214850Y96500D01*
X216350D01*
X217100Y95750D01*
X214100Y95000D02*X217100D01*
Y95750D02*Y95000D01*
X218900Y97250D02*X219650D01*
X218900Y95750D02*X219650D01*
X224150Y99500D02*Y96500D01*
X224900Y93500D01*
X226400Y96500D01*
X227900Y93500D01*
X228650Y96500D01*
Y99500D02*Y96500D01*
X231200Y93500D02*X233450D01*
X230450Y94250D02*X231200Y93500D01*
X230450Y95750D02*Y94250D01*
Y95750D02*X231200Y96500D01*
X232700D01*
X233450Y95750D01*
X230450Y95000D02*X233450D01*
Y95750D02*Y95000D01*
X238250Y99500D02*Y93500D01*
X237500D02*X238250Y94250D01*
X236000Y93500D02*X237500D01*
X235250Y94250D02*X236000Y93500D01*
X235250Y95750D02*Y94250D01*
Y95750D02*X236000Y96500D01*
X237500D01*
X238250Y95750D01*
X242750Y94250D02*X243500Y93500D01*
X242750Y98750D02*Y94250D01*
Y98750D02*X243500Y99500D01*
X245000D01*
X245750Y98750D01*
Y94250D01*
X245000Y93500D02*X245750Y94250D01*
X243500Y93500D02*X245000D01*
X242750Y95000D02*X245750Y98000D01*
X247550Y99500D02*X250550D01*
X247550D02*Y96500D01*
X248300Y97250D01*
X249800D01*
X250550Y96500D01*
Y94250D01*
X249800Y93500D02*X250550Y94250D01*
X248300Y93500D02*X249800D01*
X247550Y94250D02*X248300Y93500D01*
X255050Y98000D02*Y93500D01*
Y98000D02*X256100Y99500D01*
X257750D01*
X258800Y98000D01*
Y93500D01*
X255050Y96500D02*X258800D01*
X261350Y95750D02*Y91250D01*
X260600Y96500D02*X261350Y95750D01*
X262100Y96500D01*
X263600D01*
X264350Y95750D01*
Y94250D01*
X263600Y93500D02*X264350Y94250D01*
X262100Y93500D02*X263600D01*
X261350Y94250D02*X262100Y93500D01*
X266900Y95750D02*Y93500D01*
Y95750D02*X267650Y96500D01*
X269150D01*
X266150D02*X266900Y95750D01*
X273650Y98750D02*X274400Y99500D01*
X276650D01*
X277400Y98750D01*
Y97250D01*
X273650Y93500D02*X277400Y97250D01*
X273650Y93500D02*X277400D01*
X279200Y94250D02*X279950Y93500D01*
X279200Y98750D02*Y94250D01*
Y98750D02*X279950Y99500D01*
X281450D01*
X282200Y98750D01*
Y94250D01*
X281450Y93500D02*X282200Y94250D01*
X279950Y93500D02*X281450D01*
X279200Y95000D02*X282200Y98000D01*
X284000Y98300D02*X285200Y99500D01*
Y93500D01*
X284000D02*X286250D01*
X288800D02*X291800Y99500D01*
X288050D02*X291800D01*
X296300Y94250D02*X297050Y93500D01*
X296300Y98750D02*Y94250D01*
Y98750D02*X297050Y99500D01*
X298550D01*
X299300Y98750D01*
Y94250D01*
X298550Y93500D02*X299300Y94250D01*
X297050Y93500D02*X298550D01*
X296300Y95000D02*X299300Y98000D01*
X301100Y98750D02*X301850Y99500D01*
X304100D01*
X304850Y98750D01*
Y97250D01*
X301100Y93500D02*X304850Y97250D01*
X301100Y93500D02*X304850D01*
X306650Y97250D02*X307400D01*
X306650Y95750D02*X307400D01*
X309200Y94250D02*X309950Y93500D01*
X309200Y98750D02*Y94250D01*
Y98750D02*X309950Y99500D01*
X311450D01*
X312200Y98750D01*
Y94250D01*
X311450Y93500D02*X312200Y94250D01*
X309950Y93500D02*X311450D01*
X309200Y95000D02*X312200Y98000D01*
X314750Y93500D02*X317750Y99500D01*
X314000D02*X317750D01*
X319550Y97250D02*X320300D01*
X319550Y95750D02*X320300D01*
X322100Y98300D02*X323300Y99500D01*
Y93500D01*
X322100D02*X324350D01*
X326900D02*X329150Y96500D01*
Y98750D02*Y96500D01*
X328400Y99500D02*X329150Y98750D01*
X326900Y99500D02*X328400D01*
X326150Y98750D02*X326900Y99500D01*
X326150Y98750D02*Y97250D01*
X326900Y96500D01*
X329150D01*
X334400Y99500D02*Y93500D01*
X333650Y99500D02*X336650D01*
X337400Y98750D01*
Y97250D01*
X336650Y96500D02*X337400Y97250D01*
X334400Y96500D02*X336650D01*
X339200Y99500D02*Y93500D01*
Y99500D02*X341450Y96500D01*
X343700Y99500D01*
Y93500D01*
X351200Y99500D02*X351950Y98750D01*
X348950Y99500D02*X351200D01*
X348200Y98750D02*X348950Y99500D01*
X348200Y98750D02*Y94250D01*
X348950Y93500D01*
X351200D01*
X351950Y94250D01*
Y95750D02*Y94250D01*
X351200Y96500D02*X351950Y95750D01*
X349700Y96500D02*X351200D01*
X353750Y99500D02*Y93500D01*
Y99500D02*X356000Y96500D01*
X358250Y99500D01*
Y93500D01*
X360050Y99500D02*X363050D01*
X361550D02*Y93500D01*
X367550Y99500D02*Y94250D01*
X368300Y93500D01*
X369800D01*
X370550Y94250D01*
Y99500D02*Y94250D01*
X372350Y99500D02*X375350D01*
X373850D02*Y93500D01*
X378200D02*X380150D01*
X377150Y94550D02*X378200Y93500D01*
X377150Y98450D02*Y94550D01*
Y98450D02*X378200Y99500D01*
X380150D01*
X200000Y113000D02*Y108500D01*
Y113000D02*X201050Y114500D01*
X202700D01*
X203750Y113000D01*
Y108500D01*
X200000Y111500D02*X203750D01*
X205550D02*Y109250D01*
X206300Y108500D01*
X207800D01*
X208550Y109250D01*
Y111500D02*Y109250D01*
X211100Y114500D02*Y109250D01*
X211850Y108500D01*
X210350Y112250D02*X211850D01*
X213350Y114500D02*Y108500D01*
Y110750D02*X214100Y111500D01*
X215600D01*
X216350Y110750D01*
Y108500D01*
X218150Y110750D02*Y109250D01*
Y110750D02*X218900Y111500D01*
X220400D01*
X221150Y110750D01*
Y109250D01*
X220400Y108500D02*X221150Y109250D01*
X218900Y108500D02*X220400D01*
X218150Y109250D02*X218900Y108500D01*
X223700Y110750D02*Y108500D01*
Y110750D02*X224450Y111500D01*
X225950D01*
X222950D02*X223700Y110750D01*
X227750Y112250D02*X228500D01*
X227750Y110750D02*X228500D01*
X233000Y114500D02*X234500Y108500D01*
X236000Y114500D01*
G54D40*X237800Y113000D02*Y112850D01*
G54D39*Y110750D02*Y108500D01*
X240050Y110750D02*Y108500D01*
Y110750D02*X240800Y111500D01*
X241550D01*
X242300Y110750D01*
Y108500D01*
X239300Y111500D02*X240050Y110750D01*
X244850Y111500D02*X247100D01*
X244100Y110750D02*X244850Y111500D01*
X244100Y110750D02*Y109250D01*
X244850Y108500D01*
X247100D01*
X249650D02*X251900D01*
X248900Y109250D02*X249650Y108500D01*
X248900Y110750D02*Y109250D01*
Y110750D02*X249650Y111500D01*
X251150D01*
X251900Y110750D01*
X248900Y110000D02*X251900D01*
Y110750D02*Y110000D01*
X254450Y110750D02*Y108500D01*
Y110750D02*X255200Y111500D01*
X255950D01*
X256700Y110750D01*
Y108500D01*
X253700Y111500D02*X254450Y110750D01*
X259250Y114500D02*Y109250D01*
X260000Y108500D01*
X258500Y112250D02*X260000D01*
X264200Y114500D02*Y111500D01*
X264950Y108500D01*
X266450Y111500D01*
X267950Y108500D01*
X268700Y111500D01*
Y114500D02*Y111500D01*
X271250Y108500D02*X273500D01*
X270500Y109250D02*X271250Y108500D01*
X270500Y110750D02*Y109250D01*
Y110750D02*X271250Y111500D01*
X272750D01*
X273500Y110750D01*
X270500Y110000D02*X273500D01*
Y110750D02*Y110000D01*
X277550Y111500D02*X278300Y110750D01*
X276050Y111500D02*X277550D01*
X275300Y110750D02*X276050Y111500D01*
X275300Y110750D02*Y109250D01*
X276050Y108500D01*
X278300Y111500D02*Y109250D01*
X279050Y108500D01*
X276050D02*X277550D01*
X278300Y109250D01*
X280850Y111500D02*X282350Y108500D01*
X283850Y111500D02*X282350Y108500D01*
X286400D02*X288650D01*
X285650Y109250D02*X286400Y108500D01*
X285650Y110750D02*Y109250D01*
Y110750D02*X286400Y111500D01*
X287900D01*
X288650Y110750D01*
X285650Y110000D02*X288650D01*
Y110750D02*Y110000D01*
X291200Y110750D02*Y108500D01*
Y110750D02*X291950Y111500D01*
X293450D01*
X290450D02*X291200Y110750D01*
X200000Y129500D02*X203000D01*
X201500D02*Y123500D01*
G54D40*X204800Y128000D02*Y127850D01*
G54D39*Y125750D02*Y123500D01*
X207050Y129500D02*Y124250D01*
X207800Y123500D01*
X206300Y127250D02*X207800D01*
X209300Y129500D02*Y124250D01*
X210050Y123500D01*
X212300D02*X214550D01*
X211550Y124250D02*X212300Y123500D01*
X211550Y125750D02*Y124250D01*
Y125750D02*X212300Y126500D01*
X213800D01*
X214550Y125750D01*
X211550Y125000D02*X214550D01*
Y125750D02*Y125000D01*
X216350Y127250D02*X217100D01*
X216350Y125750D02*X217100D01*
X221600Y124250D02*X222350Y123500D01*
X221600Y128750D02*X222350Y129500D01*
X221600Y128750D02*Y124250D01*
X224150Y126500D02*Y124250D01*
X224900Y123500D01*
X226400D01*
X227150Y124250D01*
Y126500D02*Y124250D01*
X229700Y125750D02*Y123500D01*
Y125750D02*X230450Y126500D01*
X231200D01*
X231950Y125750D01*
Y123500D01*
X228950Y126500D02*X229700Y125750D01*
X233750Y129500D02*Y123500D01*
Y125750D02*X236000Y123500D01*
X233750Y125750D02*X235250Y127250D01*
X238550Y125750D02*Y123500D01*
Y125750D02*X239300Y126500D01*
X240050D01*
X240800Y125750D01*
Y123500D01*
X237800Y126500D02*X238550Y125750D01*
X242600D02*Y124250D01*
Y125750D02*X243350Y126500D01*
X244850D01*
X245600Y125750D01*
Y124250D01*
X244850Y123500D02*X245600Y124250D01*
X243350Y123500D02*X244850D01*
X242600Y124250D02*X243350Y123500D01*
X247400Y126500D02*Y124250D01*
X248150Y123500D01*
X248900D01*
X249650Y124250D01*
Y126500D02*Y124250D01*
X250400Y123500D01*
X251150D01*
X251900Y124250D01*
Y126500D02*Y124250D01*
X254450Y125750D02*Y123500D01*
Y125750D02*X255200Y126500D01*
X255950D01*
X256700Y125750D01*
Y123500D01*
X253700Y126500D02*X254450Y125750D01*
X258500Y129500D02*X259250Y128750D01*
Y124250D01*
X258500Y123500D02*X259250Y124250D01*
X263750Y126500D02*X266750D01*
X271250Y129500D02*Y123500D01*
Y129500D02*X274250D01*
X271250Y126800D02*X273500D01*
X278300Y126500D02*X279050Y125750D01*
X276800Y126500D02*X278300D01*
X276050Y125750D02*X276800Y126500D01*
X276050Y125750D02*Y124250D01*
X276800Y123500D01*
X279050Y126500D02*Y124250D01*
X279800Y123500D01*
X276800D02*X278300D01*
X279050Y124250D01*
X281600Y129500D02*Y123500D01*
Y124250D02*X282350Y123500D01*
X283850D01*
X284600Y124250D01*
Y125750D02*Y124250D01*
X283850Y126500D02*X284600Y125750D01*
X282350Y126500D02*X283850D01*
X281600Y125750D02*X282350Y126500D01*
X287150Y125750D02*Y123500D01*
Y125750D02*X287900Y126500D01*
X289400D01*
X286400D02*X287150Y125750D01*
G54D40*X291200Y128000D02*Y127850D01*
G54D39*Y125750D02*Y123500D01*
X293450Y126500D02*X295700D01*
X292700Y125750D02*X293450Y126500D01*
X292700Y125750D02*Y124250D01*
X293450Y123500D01*
X295700D01*
X299750Y126500D02*X300500Y125750D01*
X298250Y126500D02*X299750D01*
X297500Y125750D02*X298250Y126500D01*
X297500Y125750D02*Y124250D01*
X298250Y123500D01*
X300500Y126500D02*Y124250D01*
X301250Y123500D01*
X298250D02*X299750D01*
X300500Y124250D01*
X303800Y129500D02*Y124250D01*
X304550Y123500D01*
X303050Y127250D02*X304550D01*
G54D40*X306050Y128000D02*Y127850D01*
G54D39*Y125750D02*Y123500D01*
X307550Y125750D02*Y124250D01*
Y125750D02*X308300Y126500D01*
X309800D01*
X310550Y125750D01*
Y124250D01*
X309800Y123500D02*X310550Y124250D01*
X308300Y123500D02*X309800D01*
X307550Y124250D02*X308300Y123500D01*
X313100Y125750D02*Y123500D01*
Y125750D02*X313850Y126500D01*
X314600D01*
X315350Y125750D01*
Y123500D01*
X312350Y126500D02*X313100Y125750D01*
X320600Y129500D02*Y123500D01*
X322550Y129500D02*X323600Y128450D01*
Y124550D01*
X322550Y123500D02*X323600Y124550D01*
X319850Y123500D02*X322550D01*
X319850Y129500D02*X322550D01*
X326150Y125750D02*Y123500D01*
Y125750D02*X326900Y126500D01*
X328400D01*
X325400D02*X326150Y125750D01*
X332450Y126500D02*X333200Y125750D01*
X330950Y126500D02*X332450D01*
X330200Y125750D02*X330950Y126500D01*
X330200Y125750D02*Y124250D01*
X330950Y123500D01*
X333200Y126500D02*Y124250D01*
X333950Y123500D01*
X330950D02*X332450D01*
X333200Y124250D01*
X335750Y126500D02*Y124250D01*
X336500Y123500D01*
X337250D01*
X338000Y124250D01*
Y126500D02*Y124250D01*
X338750Y123500D01*
X339500D01*
X340250Y124250D01*
Y126500D02*Y124250D01*
G54D40*X342050Y128000D02*Y127850D01*
G54D39*Y125750D02*Y123500D01*
X344300Y125750D02*Y123500D01*
Y125750D02*X345050Y126500D01*
X345800D01*
X346550Y125750D01*
Y123500D01*
X343550Y126500D02*X344300Y125750D01*
X350600Y126500D02*X351350Y125750D01*
X349100Y126500D02*X350600D01*
X348350Y125750D02*X349100Y126500D01*
X348350Y125750D02*Y124250D01*
X349100Y123500D01*
X350600D01*
X351350Y124250D01*
X348350Y122000D02*X349100Y121250D01*
X350600D01*
X351350Y122000D01*
Y126500D02*Y122000D01*
M02*
