G04 start of page 10 for group -4078 idx -4078 *
G04 Title: (unknown), bottomsilk *
G04 Creator: pcb 20140316 *
G04 CreationDate: Wed 05 Apr 2017 02:07:19 PM GMT UTC *
G04 For: vince *
G04 Format: Gerber/RS-274X *
G04 PCB-Dimensions (mil): 2340.00 710.00 *
G04 PCB-Coordinate-Origin: lower left *
%MOIN*%
%FSLAX25Y25*%
%LNBOTTOMSILK*%
%ADD37C,0.0100*%
G54D37*X17000Y66000D02*X16500Y65500D01*
X17000Y66000D02*X18500D01*
X19000Y65500D02*X18500Y66000D01*
X19000Y64500D02*Y65500D01*
Y64500D02*X18500Y64000D01*
X17000D02*X18500D01*
X17000D02*X16500Y63500D01*
Y62500D02*Y63500D01*
X17000Y62000D02*X16500Y62500D01*
X17000Y62000D02*X18500D01*
X19000Y62500D02*X18500Y62000D01*
X15300Y62500D02*Y65500D01*
X14800Y66000D01*
X13800D02*X14800D01*
X13800D02*X13300Y65500D01*
Y62500D02*Y65500D01*
X13800Y62000D02*X13300Y62500D01*
X13800Y62000D02*X14800D01*
X15300Y62500D02*X14800Y62000D01*
X12100D02*Y66000D01*
X10100D02*X12100D01*
X10600Y64200D02*X12100D01*
X6900Y66000D02*X8900D01*
X7900Y62000D02*Y66000D01*
X226000Y62000D02*Y66000D01*
X224000Y62000D02*X226000D01*
X222800Y62500D02*Y65500D01*
X222300Y66000D01*
X221300D02*X222300D01*
X221300D02*X220800Y65500D01*
Y62500D02*Y65500D01*
X221300Y62000D02*X220800Y62500D01*
X221300Y62000D02*X222300D01*
X222800Y62500D02*X222300Y62000D01*
X219600Y62500D02*Y66000D01*
Y62500D02*X219100Y62000D01*
X218100D02*X219100D01*
X218100D02*X217600Y62500D01*
Y66000D01*
X215900Y62000D02*Y66000D01*
X214600D02*X213900Y65300D01*
Y62700D02*Y65300D01*
X214600Y62000D02*X213900Y62700D01*
X214600Y62000D02*X216400D01*
X214600Y66000D02*X216400D01*
X28417Y3252D02*X205583D01*
Y34748D01*
X28417D01*
Y3252D01*
X57945Y11126D02*X176055D01*
Y26874D01*
X57945D01*
Y11126D01*
X28417Y37252D02*X205583D01*
Y68748D01*
X28417D01*
Y37252D01*
X57945Y45126D02*X176055D01*
Y60874D01*
X57945D01*
Y45126D01*
M02*
