G04 start of page 13 for group -4062 idx -4062 *
G04 Title: (unknown), soldermask *
G04 Creator: pcb 20110918 *
G04 CreationDate: Fri 07 Mar 2014 07:56:38 PM GMT UTC *
G04 For: vince *
G04 Format: Gerber/RS-274X *
G04 PCB-Dimensions: 236220 354331 *
G04 PCB-Coordinate-Origin: lower left *
%MOIN*%
%FSLAX25Y25*%
%LNBOTTOMMASK*%
%ADD95C,0.0600*%
%ADD94C,0.0001*%
%ADD93C,0.0850*%
%ADD92C,0.1600*%
%ADD91C,0.3200*%
%ADD90C,0.0800*%
G54D90*X93426Y280276D03*
X103426D03*
X113426D03*
Y310276D03*
X103426D03*
X93426D03*
X83426D03*
X73426D03*
X46963Y303163D03*
G54D91*X21963D03*
G54D92*X118426Y334646D03*
G54D93*X21969Y169292D03*
G54D90*X123426Y280276D03*
X133426D03*
X143426D03*
X153426D03*
X163426D03*
Y310276D03*
X153426D03*
X143426D03*
X133426D03*
X123426D03*
X189827Y303163D03*
G54D91*X214827D03*
G54D93*X212914Y131890D03*
X214882Y169292D03*
G54D90*X143426Y53150D03*
G54D91*X118426D03*
G54D94*G36*
X109520Y158512D02*Y152512D01*
X115520D01*
Y158512D01*
X109520D01*
G37*
G54D95*X122520Y155512D03*
G54D94*G36*
X109520Y134890D02*Y128890D01*
X115520D01*
Y134890D01*
X109520D01*
G37*
G54D95*X122520Y131890D03*
G54D94*G36*
X109520Y111268D02*Y105268D01*
X115520D01*
Y111268D01*
X109520D01*
G37*
G54D95*X122520Y108268D03*
G54D92*X118426Y19685D03*
G54D94*G36*
X109520Y87646D02*Y81646D01*
X115520D01*
Y87646D01*
X109520D01*
G37*
G54D95*X122520Y84646D03*
G54D94*G36*
X109363Y182134D02*Y176134D01*
X115363D01*
Y182134D01*
X109363D01*
G37*
G36*
X93772Y205914D02*Y199914D01*
X99772D01*
Y205914D01*
X93772D01*
G37*
G54D95*X106772Y202914D03*
X91003Y220507D03*
X122363Y179134D03*
G54D94*G36*
X129048Y205756D02*Y199756D01*
X135048D01*
Y205756D01*
X129048D01*
G37*
G54D95*X142048Y202756D03*
G54D94*G36*
X144915Y223507D02*Y217507D01*
X150915D01*
Y223507D01*
X144915D01*
G37*
G54D95*X157915Y220507D03*
G54D94*G36*
X160659Y243187D02*Y237187D01*
X166659D01*
Y243187D01*
X160659D01*
G37*
G54D95*X173659Y240187D03*
G54D94*G36*
X176403Y260899D02*Y254899D01*
X182403D01*
Y260899D01*
X176403D01*
G37*
G54D95*X189403Y257899D03*
G54D94*G36*
X190179Y280579D02*Y274579D01*
X196179D01*
Y280579D01*
X190179D01*
G37*
G54D95*X203179Y277579D03*
G54D90*X73426Y280276D03*
X83426D03*
G54D94*G36*
X78003Y223507D02*Y217507D01*
X84003D01*
Y223507D01*
X78003D01*
G37*
G36*
X62259Y243187D02*Y237187D01*
X68259D01*
Y243187D01*
X62259D01*
G37*
G54D95*X75259Y240187D03*
G54D94*G36*
X46515Y260899D02*Y254899D01*
X52515D01*
Y260899D01*
X46515D01*
G37*
G54D95*X59515Y257899D03*
G54D94*G36*
X32739Y280579D02*Y274579D01*
X38739D01*
Y280579D01*
X32739D01*
G37*
G54D95*X45739Y277579D03*
G54D90*X123426Y281776D02*Y278776D01*
X133426Y281776D02*Y278776D01*
X143426Y281776D02*Y278776D01*
X153426Y281776D02*Y278776D01*
X93426Y281776D02*Y278776D01*
X103426Y281776D02*Y278776D01*
X73426Y281776D02*Y278776D01*
X83426Y281776D02*Y278776D01*
X113426Y281776D02*Y278776D01*
X163426Y281776D02*Y278776D01*
Y311776D02*Y308776D01*
X153426Y311776D02*Y308776D01*
X143426Y311776D02*Y308776D01*
X133426Y311776D02*Y308776D01*
X123426Y311776D02*Y308776D01*
X113426Y311776D02*Y308776D01*
X103426Y311776D02*Y308776D01*
X93426Y311776D02*Y308776D01*
X83426Y311776D02*Y308776D01*
X73426Y311776D02*Y308776D01*
M02*
