G04 start of page 4 for group 2 idx 2 *
G04 Title: (unknown), signal2 *
G04 Creator: pcb 20110918 *
G04 CreationDate: Fri 07 Mar 2014 07:56:38 PM GMT UTC *
G04 For: vince *
G04 Format: Gerber/RS-274X *
G04 PCB-Dimensions: 236220 354331 *
G04 PCB-Coordinate-Origin: lower left *
%MOIN*%
%FSLAX25Y25*%
%LNGROUP2*%
%ADD39C,0.0280*%
%ADD38C,0.0500*%
%ADD37C,0.1260*%
%ADD36C,0.2600*%
%ADD35C,0.0350*%
%ADD34C,0.0700*%
%ADD33C,0.0001*%
%ADD32C,0.0800*%
%ADD31C,0.0600*%
G54D31*X93426Y280276D03*
X103426D03*
X113426D03*
Y310276D03*
X103426D03*
X93426D03*
X83426D03*
X73426D03*
X46963Y303163D03*
G54D32*X21969Y169292D03*
G54D31*X123426Y280276D03*
X133426D03*
X143426D03*
X153426D03*
X163426D03*
Y310276D03*
X153426D03*
X143426D03*
X133426D03*
X123426D03*
X189827Y303163D03*
G54D32*X212914Y131890D03*
X214882Y169292D03*
G54D31*X143426Y53150D03*
G54D33*G36*
X109020Y159012D02*Y152012D01*
X116020D01*
Y159012D01*
X109020D01*
G37*
G54D34*X122520Y155512D03*
G54D33*G36*
X109020Y135390D02*Y128390D01*
X116020D01*
Y135390D01*
X109020D01*
G37*
G54D34*X122520Y131890D03*
G54D33*G36*
X109020Y111768D02*Y104768D01*
X116020D01*
Y111768D01*
X109020D01*
G37*
G54D34*X122520Y108268D03*
G54D33*G36*
X109020Y88146D02*Y81146D01*
X116020D01*
Y88146D01*
X109020D01*
G37*
G54D34*X122520Y84646D03*
G54D33*G36*
X108863Y182634D02*Y175634D01*
X115863D01*
Y182634D01*
X108863D01*
G37*
G36*
X93272Y206414D02*Y199414D01*
X100272D01*
Y206414D01*
X93272D01*
G37*
G54D34*X106772Y202914D03*
X91003Y220507D03*
X122363Y179134D03*
G54D33*G36*
X128548Y206256D02*Y199256D01*
X135548D01*
Y206256D01*
X128548D01*
G37*
G54D34*X142048Y202756D03*
G54D33*G36*
X144415Y224007D02*Y217007D01*
X151415D01*
Y224007D01*
X144415D01*
G37*
G54D34*X157915Y220507D03*
G54D33*G36*
X160159Y243687D02*Y236687D01*
X167159D01*
Y243687D01*
X160159D01*
G37*
G54D34*X173659Y240187D03*
G54D33*G36*
X175903Y261399D02*Y254399D01*
X182903D01*
Y261399D01*
X175903D01*
G37*
G54D34*X189403Y257899D03*
G54D33*G36*
X189679Y281079D02*Y274079D01*
X196679D01*
Y281079D01*
X189679D01*
G37*
G54D34*X203179Y277579D03*
G54D31*X73426Y280276D03*
X83426D03*
G54D33*G36*
X77503Y224007D02*Y217007D01*
X84503D01*
Y224007D01*
X77503D01*
G37*
G36*
X61759Y243687D02*Y236687D01*
X68759D01*
Y243687D01*
X61759D01*
G37*
G54D34*X75259Y240187D03*
G54D33*G36*
X46015Y261399D02*Y254399D01*
X53015D01*
Y261399D01*
X46015D01*
G37*
G54D34*X59515Y257899D03*
G54D33*G36*
X32239Y281079D02*Y274079D01*
X39239D01*
Y281079D01*
X32239D01*
G37*
G54D34*X45739Y277579D03*
G54D31*X143979Y336619D03*
X148176Y261399D03*
X147915Y169339D03*
X155787Y344491D03*
G54D35*G54D36*G54D37*G54D38*G54D35*G54D36*G54D38*G54D35*G54D36*G54D39*G54D37*G54D39*G54D35*G54D39*M02*
