G04 start of page 14 for group -4079 idx -4079 *
G04 Title: (unknown), topsilk *
G04 Creator: pcb 20110918 *
G04 CreationDate: Fri 07 Mar 2014 07:56:38 PM GMT UTC *
G04 For: vince *
G04 Format: Gerber/RS-274X *
G04 PCB-Dimensions: 236220 354331 *
G04 PCB-Coordinate-Origin: lower left *
%MOIN*%
%FSLAX25Y25*%
%LNTOPSILK*%
%ADD97C,0.0010*%
%ADD96C,0.0100*%
G54D96*X39675Y91D02*Y27643D01*
X197115Y91D02*Y27643D01*
X236475Y67003D01*
X39675Y354331D02*Y322843D01*
X315D01*
X197115Y354331D02*Y322843D01*
X236475D01*
X315Y67003D02*X39675Y27643D01*
X4251Y84283D02*Y80683D01*
Y84283D02*X5091Y85483D01*
X6411D01*
X7251Y84283D01*
Y80683D01*
X4251Y83083D02*X7251D01*
X10851Y85483D02*X12051Y80683D01*
X13251Y85483D01*
X14691D02*Y80683D01*
Y85483D02*X16491Y83083D01*
X18291Y85483D01*
Y80683D01*
X19731Y85483D02*Y83083D01*
X20331Y80683D01*
X21531Y83083D01*
X22731Y80683D01*
X23331Y83083D01*
Y85483D02*Y83083D01*
X26931Y85483D02*Y80683D01*
X29931Y85483D02*Y80683D01*
X26931Y83083D02*X29931D01*
X31371Y84283D02*Y80683D01*
Y84283D02*X32211Y85483D01*
X33531D01*
X34371Y84283D01*
Y80683D01*
X31371Y83083D02*X34371D01*
X35811Y85483D02*X38211D01*
X38811Y84883D01*
Y83683D01*
X38211Y83083D02*X38811Y83683D01*
X36411Y83083D02*X38211D01*
X36411Y85483D02*Y80683D01*
X37371Y83083D02*X38811Y80683D01*
X40851Y85483D02*Y80683D01*
X42411Y85483D02*X43251Y84643D01*
Y81523D01*
X42411Y80683D02*X43251Y81523D01*
X40251Y80683D02*X42411D01*
X40251Y85483D02*X42411D01*
X44691D02*Y83083D01*
X45291Y80683D01*
X46491Y83083D01*
X47691Y80683D01*
X48291Y83083D01*
Y85483D02*Y83083D01*
X49731Y84283D02*Y80683D01*
Y84283D02*X50571Y85483D01*
X51891D01*
X52731Y84283D01*
Y80683D01*
X49731Y83083D02*X52731D01*
X54171Y85483D02*X56571D01*
X57171Y84883D01*
Y83683D01*
X56571Y83083D02*X57171Y83683D01*
X54771Y83083D02*X56571D01*
X54771Y85483D02*Y80683D01*
X55731Y83083D02*X57171Y80683D01*
X58611Y83323D02*X60411D01*
X58611Y80683D02*X61011D01*
X58611Y85483D02*Y80683D01*
Y85483D02*X61011D01*
X65211D02*Y80683D01*
X64611Y85483D02*X67011D01*
X67611Y84883D01*
Y83683D01*
X67011Y83083D02*X67611Y83683D01*
X65211Y83083D02*X67011D01*
X69051Y85483D02*X71451D01*
X72051Y84883D01*
Y83683D01*
X71451Y83083D02*X72051Y83683D01*
X69651Y83083D02*X71451D01*
X69651Y85483D02*Y80683D01*
X70611Y83083D02*X72051Y80683D01*
X73491Y84883D02*Y81283D01*
Y84883D02*X74091Y85483D01*
X75291D01*
X75891Y84883D01*
Y81283D01*
X75291Y80683D02*X75891Y81283D01*
X74091Y80683D02*X75291D01*
X73491Y81283D02*X74091Y80683D01*
X77931Y85483D02*Y80683D01*
X79491Y85483D02*X80331Y84643D01*
Y81523D01*
X79491Y80683D02*X80331Y81523D01*
X77331Y80683D02*X79491D01*
X77331Y85483D02*X79491D01*
X81771D02*Y81283D01*
X82371Y80683D01*
X83571D01*
X84171Y81283D01*
Y85483D02*Y81283D01*
X86451Y80683D02*X88011D01*
X85611Y81523D02*X86451Y80683D01*
X85611Y84643D02*Y81523D01*
Y84643D02*X86451Y85483D01*
X88011D01*
X89451D02*X91851D01*
X90651D02*Y80683D01*
X93291Y85483D02*X94491D01*
X93891D02*Y80683D01*
X93291D02*X94491D01*
X95931Y84883D02*Y81283D01*
Y84883D02*X96531Y85483D01*
X97731D01*
X98331Y84883D01*
Y81283D01*
X97731Y80683D02*X98331Y81283D01*
X96531Y80683D02*X97731D01*
X95931Y81283D02*X96531Y80683D01*
X99771Y85483D02*Y80683D01*
Y85483D02*X102771Y80683D01*
Y85483D02*Y80683D01*
X14091Y97091D02*Y91491D01*
Y97091D02*X16891D01*
X14091Y94571D02*X16191D01*
X18571Y97091D02*Y91491D01*
X21371D01*
X23051Y97091D02*Y92191D01*
X23751Y91491D01*
X25151D01*
X25851Y92191D01*
Y97091D02*Y92191D01*
X27531Y91491D02*X31031Y97091D01*
X27531D02*X31031Y91491D01*
X32711Y94291D02*X35511D01*
X38171Y91491D02*X39991D01*
X37191Y92471D02*X38171Y91491D01*
X37191Y96111D02*Y92471D01*
Y96111D02*X38171Y97091D01*
X39991D01*
X41671Y95691D02*Y91491D01*
Y95691D02*X42651Y97091D01*
X44191D01*
X45171Y95691D01*
Y91491D01*
X41671Y94291D02*X45171D01*
X47551Y97091D02*Y91491D01*
X46851Y97091D02*X49651D01*
X50351Y96391D01*
Y94991D01*
X49651Y94291D02*X50351Y94991D01*
X47551Y94291D02*X49651D01*
X52031D02*X54831D01*
X56511Y97091D02*Y91491D01*
Y97091D02*X58611Y94291D01*
X60711Y97091D01*
Y91491D01*
X62391Y97091D02*Y91491D01*
Y94291D02*X65191Y97091D01*
X62391Y94291D02*X65191Y91491D01*
X66871Y95971D02*X67991Y97091D01*
Y91491D01*
X66871D02*X68971D01*
X126020Y162712D02*Y148212D01*
X125020Y163612D02*X126020Y162612D01*
X125020Y147212D02*X125920Y148112D01*
X125022Y163614D02*G75*G03X125022Y147210I-8202J-8202D01*G01*
X126020Y139090D02*Y124590D01*
X125020Y139990D02*X126020Y138990D01*
X125020Y123590D02*X125920Y124490D01*
X125022Y139992D02*G75*G03X125022Y123588I-8202J-8202D01*G01*
G54D97*X118426Y34400D02*X134646Y43780D01*
Y62520D02*Y43780D01*
Y62520D02*X118426Y71900D01*
X102206Y62520D01*
Y43780D01*
X118426Y34400D01*
Y39150D02*G75*G03X118426Y39150I0J14000D01*G01*
Y34400D02*G75*G03X118426Y34400I0J18750D01*G01*
G54D96*X126020Y115468D02*Y100968D01*
X125020Y116368D02*X126020Y115368D01*
X125020Y99968D02*X125920Y100868D01*
X125022Y116370D02*G75*G03X125022Y99966I-8202J-8202D01*G01*
G54D97*X105926Y19685D02*X112176Y8865D01*
X124676D01*
X130926Y19685D01*
X124676Y30505D01*
X112176D01*
X105926Y19685D01*
X111926D02*G75*G03X111926Y19685I6500J0D01*G01*
X105926D02*G75*G03X105926Y19685I12500J0D01*G01*
G54D96*X126020Y91846D02*Y77346D01*
X125020Y92746D02*X126020Y91746D01*
X125020Y76346D02*X125920Y77246D01*
X125022Y92748D02*G75*G03X125022Y76344I-8202J-8202D01*G01*
X125863Y186334D02*Y171834D01*
X124863Y187234D02*X125863Y186234D01*
X124863Y170834D02*X125763Y171734D01*
X124865Y187236D02*G75*G03X124865Y170832I-8202J-8202D01*G01*
X145548Y209956D02*Y195456D01*
X144548Y210856D02*X145548Y209856D01*
X144548Y194456D02*X145448Y195356D01*
X144550Y210858D02*G75*G03X144550Y194454I-8202J-8202D01*G01*
X161415Y227707D02*Y213207D01*
X160415Y228607D02*X161415Y227607D01*
X160415Y212207D02*X161315Y213107D01*
X160417Y228609D02*G75*G03X160417Y212205I-8202J-8202D01*G01*
X110272Y210114D02*Y195614D01*
X109272Y211014D02*X110272Y210014D01*
X109272Y194614D02*X110172Y195514D01*
X109274Y211016D02*G75*G03X109274Y194612I-8202J-8202D01*G01*
X94503Y227707D02*Y213207D01*
X93503Y228607D02*X94503Y227607D01*
X93503Y212207D02*X94403Y213107D01*
X93505Y228609D02*G75*G03X93505Y212205I-8202J-8202D01*G01*
X192903Y265099D02*Y250599D01*
X191903Y265999D02*X192903Y264999D01*
X191903Y249599D02*X192803Y250499D01*
X191905Y266001D02*G75*G03X191905Y249597I-8202J-8202D01*G01*
X206679Y284779D02*Y270279D01*
X205679Y285679D02*X206679Y284679D01*
X205679Y269279D02*X206579Y270179D01*
X205681Y285681D02*G75*G03X205681Y269277I-8202J-8202D01*G01*
G54D97*X214827Y321913D02*X198607Y312533D01*
Y293793D01*
X214827Y284413D01*
X231047Y293793D01*
Y312533D02*Y293793D01*
Y312533D02*X214827Y321913D01*
Y317163D02*G75*G03X214827Y317163I0J-14000D01*G01*
Y321913D02*G75*G03X214827Y321913I0J-18750D01*G01*
G54D96*X58426Y275276D02*X178426D01*
Y315276D02*Y275276D01*
X58426Y315276D02*X178426D01*
X58426D02*Y304276D01*
X63426Y295276D01*
X58426Y286276D01*
Y275276D01*
X177159Y247387D02*Y232887D01*
X176159Y248287D02*X177159Y247287D01*
X176159Y231887D02*X177059Y232787D01*
X176161Y248289D02*G75*G03X176161Y231885I-8202J-8202D01*G01*
X78759Y247387D02*Y232887D01*
X77759Y248287D02*X78759Y247287D01*
X77759Y231887D02*X78659Y232787D01*
X77761Y248289D02*G75*G03X77761Y231885I-8202J-8202D01*G01*
X63015Y265099D02*Y250599D01*
X62015Y265999D02*X63015Y264999D01*
X62015Y249599D02*X62915Y250499D01*
X62017Y266001D02*G75*G03X62017Y249597I-8202J-8202D01*G01*
X49239Y284779D02*Y270279D01*
X48239Y285679D02*X49239Y284679D01*
X48239Y269279D02*X49139Y270179D01*
X48241Y285681D02*G75*G03X48241Y269277I-8202J-8202D01*G01*
G54D97*X21963Y284413D02*X38183Y293793D01*
Y312533D02*Y293793D01*
Y312533D02*X21963Y321913D01*
X5743Y312533D01*
Y293793D01*
X21963Y284413D01*
Y289163D02*G75*G03X21963Y289163I0J14000D01*G01*
X21963Y284413D02*G75*G03X21963Y284413I0J18750D01*G01*
G54D96*X7707Y122267D02*X17707Y102267D01*
X57707D01*
X67707Y122267D01*
X7707D01*
X17707Y102267D02*X27707Y122267D01*
X37707Y102267D01*
X47707Y122267D01*
X57707Y102267D01*
G54D97*X105926Y334646D02*X112176Y323826D01*
X124676D01*
X130926Y334646D01*
X124676Y345466D01*
X112176D01*
X105926Y334646D01*
X111926D02*G75*G03X111926Y334646I6500J0D01*G01*
X105926D02*G75*G03X105926Y334646I12500J0D01*G01*
G54D96*X43914Y340890D02*X45914D01*
X44914D02*Y336890D01*
X48614Y340890D02*X49114Y340390D01*
X47614Y340890D02*X48614D01*
X47114Y340390D02*X47614Y340890D01*
X47114Y340390D02*Y337390D01*
X47614Y336890D01*
X48614Y339090D02*X49114Y338590D01*
X47114Y339090D02*X48614D01*
X47614Y336890D02*X48614D01*
X49114Y337390D01*
Y338590D02*Y337390D01*
X52426Y281276D02*X52926Y281776D01*
X52426Y281276D02*Y279776D01*
X52926Y279276D02*X52426Y279776D01*
X52926Y279276D02*X53926D01*
X54426Y279776D01*
Y281276D02*Y279776D01*
Y281276D02*X54926Y281776D01*
X55926D01*
X56426Y281276D02*X55926Y281776D01*
X56426Y281276D02*Y279776D01*
X55926Y279276D02*X56426Y279776D01*
X52926Y282976D02*X55926D01*
X52926D02*X52426Y283476D01*
Y284476D02*Y283476D01*
Y284476D02*X52926Y284976D01*
X55926D01*
X56426Y284476D02*X55926Y284976D01*
X56426Y284476D02*Y283476D01*
X55926Y282976D02*X56426Y283476D01*
Y288176D02*Y286876D01*
X55726Y286176D02*X56426Y286876D01*
X53126Y286176D02*X55726D01*
X53126D02*X52426Y286876D01*
Y288176D02*Y286876D01*
Y289376D02*X56426D01*
X54426D02*X52426Y291376D01*
X54426Y289376D02*X56426Y291376D01*
X54226Y294076D02*Y292576D01*
X56426Y294576D02*Y292576D01*
X52426D02*X56426D01*
X52426Y294576D02*Y292576D01*
Y297776D02*Y295776D01*
Y296776D02*X56426D01*
X53226Y298976D02*X52426Y299776D01*
X56426D01*
Y300476D02*Y298976D01*
X25339Y284079D02*X29339D01*
X25339Y285379D02*X26039Y286079D01*
X28639D01*
X29339Y285379D02*X28639Y286079D01*
X29339Y285379D02*Y283579D01*
X25339Y285379D02*Y283579D01*
X26139Y287279D02*X25339Y288079D01*
X29339D01*
Y288779D02*Y287279D01*
X121648Y209256D02*X125648D01*
X121648Y210556D02*X122348Y211256D01*
X124948D01*
X125648Y210556D02*X124948Y211256D01*
X125648Y210556D02*Y208756D01*
X121648Y210556D02*Y208756D01*
X122448Y212456D02*X121648Y213256D01*
X125648D01*
Y213956D02*Y212456D01*
X125148Y215156D02*X125648Y215656D01*
X122148Y215156D02*X125148D01*
X122148D02*X121648Y215656D01*
Y216656D02*Y215656D01*
Y216656D02*X122148Y217156D01*
X125148D01*
X125648Y216656D02*X125148Y217156D01*
X125648Y216656D02*Y215656D01*
X124648Y215156D02*X122648Y217156D01*
X86372Y209414D02*X90372D01*
X86372Y210714D02*X87072Y211414D01*
X89672D01*
X90372Y210714D02*X89672Y211414D01*
X90372Y210714D02*Y208914D01*
X86372Y210714D02*Y208914D01*
Y214614D02*Y212614D01*
X88372D01*
X87872Y213114D01*
Y214114D02*Y213114D01*
Y214114D02*X88372Y214614D01*
X89872D01*
X90372Y214114D02*X89872Y214614D01*
X90372Y214114D02*Y213114D01*
X89872Y212614D02*X90372Y213114D01*
X137515Y227007D02*X141515D01*
X137515Y228307D02*X138215Y229007D01*
X140815D01*
X141515Y228307D02*X140815Y229007D01*
X141515Y228307D02*Y226507D01*
X137515Y228307D02*Y226507D01*
X141515Y230707D02*X139515Y232207D01*
X138015D02*X139515D01*
X137515Y231707D02*X138015Y232207D01*
X137515Y231707D02*Y230707D01*
X138015Y230207D02*X137515Y230707D01*
X138015Y230207D02*X139015D01*
X139515Y230707D01*
Y232207D02*Y230707D01*
X70603Y227007D02*X74603D01*
X70603Y228307D02*X71303Y229007D01*
X73903D01*
X74603Y228307D02*X73903Y229007D01*
X74603Y228307D02*Y226507D01*
X70603Y228307D02*Y226507D01*
X73103Y230207D02*X70603Y232207D01*
X73103Y232707D02*Y230207D01*
X70603Y232207D02*X74603D01*
X153259Y246687D02*X157259D01*
X153259Y247987D02*X153959Y248687D01*
X156559D01*
X157259Y247987D02*X156559Y248687D01*
X157259Y247987D02*Y246187D01*
X153259Y247987D02*Y246187D01*
X156759Y249887D02*X157259Y250387D01*
X155959Y249887D02*X156759D01*
X155959D02*X155259Y250587D01*
Y251187D02*Y250587D01*
Y251187D02*X155959Y251887D01*
X156759D01*
X157259Y251387D02*X156759Y251887D01*
X157259Y251387D02*Y250387D01*
X154559Y249887D02*X155259Y250587D01*
X153759Y249887D02*X154559D01*
X153759D02*X153259Y250387D01*
Y251387D02*Y250387D01*
Y251387D02*X153759Y251887D01*
X154559D01*
X155259Y251187D02*X154559Y251887D01*
X54859Y246687D02*X58859D01*
X54859Y247987D02*X55559Y248687D01*
X58159D01*
X58859Y247987D02*X58159Y248687D01*
X58859Y247987D02*Y246187D01*
X54859Y247987D02*Y246187D01*
X55359Y249887D02*X54859Y250387D01*
Y251387D02*Y250387D01*
Y251387D02*X55359Y251887D01*
X58859Y251387D02*X58359Y251887D01*
X58859Y251387D02*Y250387D01*
X58359Y249887D02*X58859Y250387D01*
X56659Y251387D02*Y250387D01*
X55359Y251887D02*X56159D01*
X57159D02*X58359D01*
X57159D02*X56659Y251387D01*
X56159Y251887D02*X56659Y251387D01*
X39115Y264399D02*X43115D01*
X39115Y265699D02*X39815Y266399D01*
X42415D01*
X43115Y265699D02*X42415Y266399D01*
X43115Y265699D02*Y263899D01*
X39115Y265699D02*Y263899D01*
X39615Y267599D02*X39115Y268099D01*
Y269599D02*Y268099D01*
Y269599D02*X39615Y270099D01*
X40615D01*
X43115Y267599D02*X40615Y270099D01*
X43115D02*Y267599D01*
X169003Y264399D02*X173003D01*
X169003Y265699D02*X169703Y266399D01*
X172303D01*
X173003Y265699D02*X172303Y266399D01*
X173003Y265699D02*Y263899D01*
X169003Y265699D02*Y263899D01*
X173003Y268099D02*X169003Y270099D01*
Y267599D01*
X182779Y284079D02*X186779D01*
X182779Y285379D02*X183479Y286079D01*
X186079D01*
X186779Y285379D02*X186079Y286079D01*
X186779Y285379D02*Y283579D01*
X182779Y285379D02*Y283579D01*
Y288779D02*X183279Y289279D01*
X182779Y288779D02*Y287779D01*
X183279Y287279D02*X182779Y287779D01*
X183279Y287279D02*X186279D01*
X186779Y287779D01*
X184579Y288779D02*X185079Y289279D01*
X184579Y288779D02*Y287279D01*
X186779Y288779D02*Y287779D01*
Y288779D02*X186279Y289279D01*
X185079D02*X186279D01*
X101963Y185634D02*X105963D01*
X101963Y186934D02*X102663Y187634D01*
X105263D01*
X105963Y186934D02*X105263Y187634D01*
X105963Y186934D02*Y185134D01*
X101963Y186934D02*Y185134D01*
X102763Y188834D02*X101963Y189634D01*
X105963D01*
Y190334D02*Y188834D01*
X101963Y193534D02*Y191534D01*
X103963D01*
X103463Y192034D01*
Y193034D02*Y192034D01*
Y193034D02*X103963Y193534D01*
X105463D01*
X105963Y193034D02*X105463Y193534D01*
X105963Y193034D02*Y192034D01*
X105463Y191534D02*X105963Y192034D01*
X102120Y162012D02*X106120D01*
X102120Y163312D02*X102820Y164012D01*
X105420D01*
X106120Y163312D02*X105420Y164012D01*
X106120Y163312D02*Y161512D01*
X102120Y163312D02*Y161512D01*
X102920Y165212D02*X102120Y166012D01*
X106120D01*
Y166712D02*Y165212D01*
X104620Y167912D02*X102120Y169912D01*
X104620Y170412D02*Y167912D01*
X102120Y169912D02*X106120D01*
X102120Y138390D02*X106120D01*
X102120Y139690D02*X102820Y140390D01*
X105420D01*
X106120Y139690D02*X105420Y140390D01*
X106120Y139690D02*Y137890D01*
X102120Y139690D02*Y137890D01*
X102920Y141590D02*X102120Y142390D01*
X106120D01*
Y143090D02*Y141590D01*
X102620Y144290D02*X102120Y144790D01*
Y145790D02*Y144790D01*
Y145790D02*X102620Y146290D01*
X106120Y145790D02*X105620Y146290D01*
X106120Y145790D02*Y144790D01*
X105620Y144290D02*X106120Y144790D01*
X103920Y145790D02*Y144790D01*
X102620Y146290D02*X103420D01*
X104420D02*X105620D01*
X104420D02*X103920Y145790D01*
X103420Y146290D02*X103920Y145790D01*
X102120Y114768D02*X106120D01*
X102120Y116068D02*X102820Y116768D01*
X105420D01*
X106120Y116068D02*X105420Y116768D01*
X106120Y116068D02*Y114268D01*
X102120Y116068D02*Y114268D01*
X102920Y117968D02*X102120Y118768D01*
X106120D01*
Y119468D02*Y117968D01*
X102620Y120668D02*X102120Y121168D01*
Y122668D02*Y121168D01*
Y122668D02*X102620Y123168D01*
X103620D01*
X106120Y120668D02*X103620Y123168D01*
X106120D02*Y120668D01*
X102120Y91146D02*X106120D01*
X102120Y92446D02*X102820Y93146D01*
X105420D01*
X106120Y92446D02*X105420Y93146D01*
X106120Y92446D02*Y90646D01*
X102120Y92446D02*Y90646D01*
X102920Y94346D02*X102120Y95146D01*
X106120D01*
Y95846D02*Y94346D01*
X102920Y97046D02*X102120Y97846D01*
X106120D01*
Y98546D02*Y97046D01*
M02*
