G04 start of page 7 for group 5 idx 5 *
G04 Title: (unknown), bottom *
G04 Creator: pcb 20110918 *
G04 CreationDate: Fri 07 Mar 2014 07:56:38 PM GMT UTC *
G04 For: vince *
G04 Format: Gerber/RS-274X *
G04 PCB-Dimensions: 236220 354331 *
G04 PCB-Coordinate-Origin: lower left *
%MOIN*%
%FSLAX25Y25*%
%LNBOTTOM*%
%ADD68C,0.0280*%
%ADD67C,0.0500*%
%ADD66C,0.1260*%
%ADD65C,0.2600*%
%ADD64C,0.0350*%
%ADD63C,0.0700*%
%ADD62C,0.0001*%
%ADD61C,0.0800*%
%ADD60C,0.0600*%
%ADD59C,0.0400*%
%ADD58C,0.0250*%
G54D58*X93426Y308776D02*Y303901D01*
X122176Y320526D02*X113426Y311776D01*
Y310276D01*
X169926Y320526D02*X184577Y305875D01*
X167551Y317026D02*X173653Y310924D01*
X166801Y290526D02*X168676Y288651D01*
X148676Y317026D02*X143426Y311776D01*
X153426Y308776D02*Y303901D01*
X143426Y311776D02*Y310276D01*
X167551Y317026D02*X148676D01*
X169926Y320526D02*X122176D01*
X155787Y344491D02*X67227D01*
X41643Y318907D01*
X153426Y303901D02*X166801Y290526D01*
X93426Y303778D02*Y302548D01*
X208929Y282204D02*Y175542D01*
X195153Y262524D02*Y187786D01*
X163665Y236687D02*Y215882D01*
X179409Y225751D02*X162164Y208506D01*
X163426Y278776D02*Y280276D01*
X178284Y245937D02*X179409Y244812D01*
Y225751D01*
X173653Y250568D02*X178284Y245937D01*
X173653Y310924D02*Y250568D01*
X194028Y263649D02*X195153Y262524D01*
X207804Y283329D02*X208929Y282204D01*
X207804Y283329D02*X201286D01*
X197577Y287038D02*X201286Y283329D01*
X184577Y273100D02*X194028Y263649D01*
X184577Y305875D02*Y273100D01*
X197577Y304788D02*Y287038D01*
Y304788D02*X165746Y336619D01*
X153426Y278776D02*Y257274D01*
X145589Y249437D02*X142165Y246013D01*
X143426Y266149D02*X148176Y261399D01*
X153426Y257274D02*X145589Y249437D01*
X163659Y240187D02*Y236687D01*
Y240187D02*Y236687D01*
Y240187D02*Y236687D01*
Y240187D02*Y236687D01*
Y240187D02*Y236687D01*
X168676Y255579D02*X159034Y245937D01*
X163659Y236687D02*X163665D01*
X163659D02*X163665D01*
X163659D02*X163665D01*
X163659D02*X163665D01*
X163659D01*
X159034Y245937D02*X147915Y234818D01*
Y220507D01*
X142165Y246013D02*Y215882D01*
X168676Y288651D02*Y255579D01*
X165746Y336619D02*X143979D01*
X182909Y175542D02*X145007Y137640D01*
X208929Y175542D02*X198653Y165266D01*
X137423Y208506D02*X132048Y203131D01*
Y202756D01*
X112520Y108643D02*Y108268D01*
X45539Y151627D02*X112520Y84646D01*
X198653Y165266D02*X147405Y114018D01*
X117895Y137640D02*X112520Y132265D01*
X117895Y114018D02*X112520Y108643D01*
X147405Y114018D02*X117895D01*
X145007Y137640D02*X117895D01*
X112520Y132265D02*Y131890D01*
X195153Y187786D02*X182909Y175542D01*
X105520Y182634D02*X109020Y179134D01*
X102147Y208664D02*X96772Y203289D01*
X83259Y226257D02*X81009Y224007D01*
X96772Y203289D02*Y202914D01*
X81003Y220507D02*Y224007D01*
Y220507D02*Y224007D01*
Y220507D01*
Y224007D02*X81009D01*
X81003D02*X81009D01*
X81003D01*
X112363Y179134D02*X109020D01*
X112363D02*X109020D01*
X112363D02*X109020D01*
X162540Y214757D02*X143290D01*
X162164Y208506D02*X137423D01*
X163665Y215882D02*X162540Y214757D01*
X123426Y229943D02*X102147Y208664D01*
X142165Y215882D02*X143290Y214757D01*
G54D59*X90843Y169339D02*X147915D01*
X90843D02*X90796Y169292D01*
G54D58*X143426Y278776D02*Y266149D01*
X123426Y278776D02*Y229943D01*
X113426Y278776D02*Y256424D01*
X103426Y278776D02*Y273901D01*
X93426Y278776D02*Y273901D01*
X113426Y256424D02*X83259Y226257D01*
X83426Y280276D02*Y278776D01*
X73426D02*Y280276D01*
Y281776D01*
Y280276D01*
X70634Y245937D02*X65259Y240562D01*
X54890Y263649D02*X49515Y258274D01*
X83174Y263649D02*X54890D01*
X75462Y245937D02*X70634D01*
X49515Y258274D02*Y257899D01*
X83426Y278776D02*X76479Y271829D01*
X93426Y273901D02*X83174Y263649D01*
X103426Y273901D02*X75462Y245937D01*
X65259Y240562D02*Y240187D01*
X29989Y258165D02*X105520Y182634D01*
G54D59*X90796Y169292D02*X21969D01*
G54D58*X19995Y269707D02*Y181147D01*
X12123Y173275D01*
Y159499D01*
X19995Y151627D01*
X45539D01*
X42701Y290526D02*X39213Y287038D01*
X31114Y283329D02*X29989Y282204D01*
X35504Y283329D02*X31114D01*
X39213Y287038D02*X35504Y283329D01*
X45579Y289387D02*X43611D01*
X42587Y290411D01*
X76479Y271829D02*X41114D01*
X35739Y277579D02*Y277204D01*
X29989Y282204D02*Y258165D01*
X35739Y277204D02*X41114Y271829D01*
G54D59*X54076Y310276D02*X46963Y303163D01*
G54D58*X59355D02*X45579Y289387D01*
X93426Y302548D02*X65874D01*
X65259Y303163D01*
X59355D01*
G54D59*X73426Y310276D02*X54076D01*
G54D58*X41643Y318907D02*X10155D01*
X4251Y313003D01*
Y285451D01*
X19995Y269707D01*
G54D60*X93426Y280276D03*
X103426D03*
X113426D03*
Y310276D03*
X103426D03*
X93426D03*
X83426D03*
X73426D03*
X46963Y303163D03*
G54D61*X21969Y169292D03*
G54D60*X123426Y280276D03*
X133426D03*
X143426D03*
X153426D03*
X163426D03*
Y310276D03*
X153426D03*
X143426D03*
X133426D03*
X123426D03*
X189827Y303163D03*
G54D61*X212914Y131890D03*
X214882Y169292D03*
G54D60*X143426Y53150D03*
G54D62*G36*
X109020Y159012D02*Y152012D01*
X116020D01*
Y159012D01*
X109020D01*
G37*
G54D63*X122520Y155512D03*
G54D62*G36*
X109020Y135390D02*Y128390D01*
X116020D01*
Y135390D01*
X109020D01*
G37*
G54D63*X122520Y131890D03*
G54D62*G36*
X109020Y111768D02*Y104768D01*
X116020D01*
Y111768D01*
X109020D01*
G37*
G54D63*X122520Y108268D03*
G54D62*G36*
X109020Y88146D02*Y81146D01*
X116020D01*
Y88146D01*
X109020D01*
G37*
G54D63*X122520Y84646D03*
G54D62*G36*
X108863Y182634D02*Y175634D01*
X115863D01*
Y182634D01*
X108863D01*
G37*
G36*
X93272Y206414D02*Y199414D01*
X100272D01*
Y206414D01*
X93272D01*
G37*
G54D63*X106772Y202914D03*
X91003Y220507D03*
X122363Y179134D03*
G54D62*G36*
X128548Y206256D02*Y199256D01*
X135548D01*
Y206256D01*
X128548D01*
G37*
G54D63*X142048Y202756D03*
G54D62*G36*
X144415Y224007D02*Y217007D01*
X151415D01*
Y224007D01*
X144415D01*
G37*
G54D63*X157915Y220507D03*
G54D62*G36*
X160159Y243687D02*Y236687D01*
X167159D01*
Y243687D01*
X160159D01*
G37*
G54D63*X173659Y240187D03*
G54D62*G36*
X175903Y261399D02*Y254399D01*
X182903D01*
Y261399D01*
X175903D01*
G37*
G54D63*X189403Y257899D03*
G54D62*G36*
X189679Y281079D02*Y274079D01*
X196679D01*
Y281079D01*
X189679D01*
G37*
G54D63*X203179Y277579D03*
G54D60*X73426Y280276D03*
X83426D03*
G54D62*G36*
X77503Y224007D02*Y217007D01*
X84503D01*
Y224007D01*
X77503D01*
G37*
G36*
X61759Y243687D02*Y236687D01*
X68759D01*
Y243687D01*
X61759D01*
G37*
G54D63*X75259Y240187D03*
G54D62*G36*
X46015Y261399D02*Y254399D01*
X53015D01*
Y261399D01*
X46015D01*
G37*
G54D63*X59515Y257899D03*
G54D62*G36*
X32239Y281079D02*Y274079D01*
X39239D01*
Y281079D01*
X32239D01*
G37*
G54D63*X45739Y277579D03*
G54D60*X123426Y281776D02*Y278776D01*
X133426Y281776D02*Y278776D01*
X143426Y281776D02*Y278776D01*
X153426Y281776D02*Y278776D01*
X93426Y281776D02*Y278776D01*
X103426Y281776D02*Y278776D01*
X73426Y281776D02*Y278776D01*
X83426Y281776D02*Y278776D01*
X113426Y281776D02*Y278776D01*
X163426Y281776D02*Y278776D01*
Y311776D02*Y308776D01*
X153426Y311776D02*Y308776D01*
X143426Y311776D02*Y308776D01*
X133426Y311776D02*Y308776D01*
X123426Y311776D02*Y308776D01*
X113426Y311776D02*Y308776D01*
X103426Y311776D02*Y308776D01*
X93426Y311776D02*Y308776D01*
X83426Y311776D02*Y308776D01*
X73426Y311776D02*Y308776D01*
X143979Y336619D03*
X148176Y261399D03*
X147915Y169339D03*
X155787Y344491D03*
G54D64*G54D65*G54D66*G54D67*G54D64*G54D65*G54D67*G54D64*G54D65*G54D68*G54D66*G54D68*G54D64*G54D68*M02*
