M48
INCH
T82C0.028
T81C0.050
T80C0.035
%
T82
X011252Y015551
X012252Y015551
X011252Y013189
X012252Y013189
X011252Y010827
X012252Y010827
X011252Y008465
X012252Y008465
X011236Y017913
X009677Y020291
X010677Y020291
X009100Y022051
X012236Y017913
X013205Y020276
X014205Y020276
X014792Y022051
X015792Y022051
X016366Y024019
X017366Y024019
X017940Y025790
X018940Y025790
X019318Y027758
X020318Y027758
X008100Y022051
X006526Y024019
X007526Y024019
X004952Y025790
X005952Y025790
X003574Y027758
X004574Y027758
T80
X009343Y028028
X010343Y028028
X011343Y028028
X011343Y031028
X010343Y031028
X009343Y031028
X008343Y031028
X007343Y031028
X004696Y030316
X012343Y028028
X013343Y028028
X014343Y028028
X015343Y028028
X016343Y028028
X016343Y031028
X015343Y031028
X014343Y031028
X013343Y031028
X012343Y031028
X018983Y030316
X014343Y005315
X007343Y028028
X008343Y028028
X014398Y033662
X014818Y026140
X014792Y016934
X015579Y034449
T81
X002197Y016929
X021291Y013189
X021488Y016929
M30
