G04 start of page 2 for group 0 idx 0 *
G04 Title: (unknown), top *
G04 Creator: pcb 20110918 *
G04 CreationDate: Fri 07 Mar 2014 07:56:38 PM GMT UTC *
G04 For: vince *
G04 Format: Gerber/RS-274X *
G04 PCB-Dimensions: 236220 354331 *
G04 PCB-Coordinate-Origin: lower left *
%MOIN*%
%FSLAX25Y25*%
%LNTOP*%
%ADD21C,0.0280*%
%ADD20C,0.0500*%
%ADD19C,0.1260*%
%ADD18C,0.2600*%
%ADD17C,0.0350*%
%ADD16C,0.0700*%
%ADD15C,0.0001*%
%ADD14C,0.0800*%
%ADD13C,0.0600*%
%ADD12C,0.0250*%
%ADD11C,0.0400*%
G54D11*X122408Y179179D02*X122520Y179067D01*
Y84646D01*
G54D12*X112520D02*Y84271D01*
Y84646D02*Y84271D01*
G54D11*X219914Y126390D02*X146674Y53150D01*
X219914Y169292D02*Y126390D01*
X214882Y169292D02*X219914D01*
X214882D02*X219914D01*
X214882D01*
X212914Y131890D02*X122520D01*
X146674Y53150D02*X143426D01*
X157915Y218623D02*Y220507D01*
X173659Y236251D01*
Y240187D01*
X189403Y255931D01*
X147915Y169339D02*X214827Y236251D01*
X189403Y255931D02*Y257899D01*
G54D12*X179403Y261399D02*Y257899D01*
Y261399D01*
Y257899D02*Y261399D01*
G54D11*X189403Y257899D02*X203179Y271675D01*
X214827Y236251D02*Y279547D01*
X191211Y303163D01*
X189827D01*
X203179Y271675D02*Y277579D01*
G54D12*X185153Y273526D02*X133801D01*
X189206Y277579D02*X185153Y273526D01*
X193179Y277579D02*X189206D01*
X179403Y261399D02*X148176D01*
G54D11*X122363Y179134D02*X142048Y198819D01*
Y202756D01*
X157915Y218623D01*
X122408Y179179D02*Y187278D01*
X107723Y201963D01*
X91003Y218683D02*Y220507D01*
X106772Y202914D02*Y204898D01*
X91003Y220667D01*
X90843Y220827D02*Y224603D01*
Y226411D02*X89035D01*
G54D12*X112520Y155512D02*X88926D01*
G54D11*X21969Y169292D02*X22016Y169339D01*
G54D12*X88926Y155512D02*X29835Y214603D01*
X68176Y285913D02*X29989D01*
X68176Y297913D02*Y285913D01*
X103426Y297913D02*X68176D01*
G54D11*X89035Y226411D02*X75259Y240187D01*
Y242155D01*
X59515Y257899D01*
Y263803D01*
X45739Y277579D01*
G54D12*X29835Y214603D02*Y285913D01*
X73426Y280276D02*X73860D01*
X81003Y287419D01*
X133426Y278776D02*Y273901D01*
X133801Y273526D01*
X123426Y316651D02*Y311776D01*
X103426Y308776D02*Y297913D01*
X81003Y287419D02*X163193D01*
X123426Y316939D02*X143106Y336619D01*
X143979D01*
X133426Y318194D02*X142011Y326779D01*
X163426Y308776D02*Y281776D01*
X163193Y287419D02*X163426Y287186D01*
X133426Y310276D02*Y318194D01*
X142011Y326779D02*X155787D01*
Y344491D01*
G54D13*X93426Y280276D03*
X103426D03*
X113426D03*
Y310276D03*
X103426D03*
X93426D03*
X83426D03*
X73426D03*
X46963Y303163D03*
G54D14*X21969Y169292D03*
G54D13*X123426Y280276D03*
X133426D03*
X143426D03*
X153426D03*
X163426D03*
Y310276D03*
X153426D03*
X143426D03*
X133426D03*
X123426D03*
X189827Y303163D03*
G54D14*X212914Y131890D03*
X214882Y169292D03*
G54D13*X143426Y53150D03*
G54D15*G36*
X109020Y159012D02*Y152012D01*
X116020D01*
Y159012D01*
X109020D01*
G37*
G54D16*X122520Y155512D03*
G54D15*G36*
X109020Y135390D02*Y128390D01*
X116020D01*
Y135390D01*
X109020D01*
G37*
G54D16*X122520Y131890D03*
G54D15*G36*
X109020Y111768D02*Y104768D01*
X116020D01*
Y111768D01*
X109020D01*
G37*
G54D16*X122520Y108268D03*
G54D15*G36*
X109020Y88146D02*Y81146D01*
X116020D01*
Y88146D01*
X109020D01*
G37*
G54D16*X122520Y84646D03*
G54D15*G36*
X108863Y182634D02*Y175634D01*
X115863D01*
Y182634D01*
X108863D01*
G37*
G36*
X93272Y206414D02*Y199414D01*
X100272D01*
Y206414D01*
X93272D01*
G37*
G54D16*X106772Y202914D03*
X91003Y220507D03*
X122363Y179134D03*
G54D15*G36*
X128548Y206256D02*Y199256D01*
X135548D01*
Y206256D01*
X128548D01*
G37*
G54D16*X142048Y202756D03*
G54D15*G36*
X144415Y224007D02*Y217007D01*
X151415D01*
Y224007D01*
X144415D01*
G37*
G54D16*X157915Y220507D03*
G54D15*G36*
X160159Y243687D02*Y236687D01*
X167159D01*
Y243687D01*
X160159D01*
G37*
G54D16*X173659Y240187D03*
G54D15*G36*
X175903Y261399D02*Y254399D01*
X182903D01*
Y261399D01*
X175903D01*
G37*
G54D16*X189403Y257899D03*
G54D15*G36*
X189679Y281079D02*Y274079D01*
X196679D01*
Y281079D01*
X189679D01*
G37*
G54D16*X203179Y277579D03*
G54D13*X73426Y280276D03*
X83426D03*
G54D15*G36*
X77503Y224007D02*Y217007D01*
X84503D01*
Y224007D01*
X77503D01*
G37*
G36*
X61759Y243687D02*Y236687D01*
X68759D01*
Y243687D01*
X61759D01*
G37*
G54D16*X75259Y240187D03*
G54D15*G36*
X46015Y261399D02*Y254399D01*
X53015D01*
Y261399D01*
X46015D01*
G37*
G54D16*X59515Y257899D03*
G54D15*G36*
X32239Y281079D02*Y274079D01*
X39239D01*
Y281079D01*
X32239D01*
G37*
G54D16*X45739Y277579D03*
G54D13*X123426Y281776D02*Y278776D01*
X133426Y281776D02*Y278776D01*
X143426Y281776D02*Y278776D01*
X153426Y281776D02*Y278776D01*
X93426Y281776D02*Y278776D01*
X103426Y281776D02*Y278776D01*
X73426Y281776D02*Y278776D01*
X83426Y281776D02*Y278776D01*
X113426Y281776D02*Y278776D01*
X163426Y281776D02*Y278776D01*
Y311776D02*Y308776D01*
X153426Y311776D02*Y308776D01*
X143426Y311776D02*Y308776D01*
X133426Y311776D02*Y308776D01*
X123426Y311776D02*Y308776D01*
X113426Y311776D02*Y308776D01*
X103426Y311776D02*Y308776D01*
X93426Y311776D02*Y308776D01*
X83426Y311776D02*Y308776D01*
X73426Y311776D02*Y308776D01*
X143979Y336619D03*
X148176Y261399D03*
X147915Y169339D03*
X155787Y344491D03*
G54D17*G54D18*G54D19*G54D20*G54D17*G54D18*G54D20*G54D17*G54D18*G54D21*G54D19*G54D21*G54D17*G54D21*M02*
