G04 start of page 2 for group 0 idx 0 *
G04 Title: (unknown), component *
G04 Creator: pcb 20091103 *
G04 CreationDate: Wed 15 Sep 2010 03:29:49 AM GMT UTC *
G04 For: vince *
G04 Format: Gerber/RS-274X *
G04 PCB-Dimensions: 438000 290000 *
G04 PCB-Coordinate-Origin: lower left *
%MOIN*%
%FSLAX25Y25*%
%LNFRONT*%
%ADD11C,0.0400*%
%ADD12C,0.0100*%
%ADD13C,0.0800*%
%ADD14C,0.0550*%
%ADD15C,0.0720*%
%ADD16C,0.1950*%
%ADD17C,0.0200*%
%ADD18C,0.0600*%
%ADD19C,0.0700*%
%ADD20C,0.1750*%
%ADD21C,0.1500*%
%ADD22C,0.0750*%
%ADD23C,0.0350*%
%ADD24C,0.0520*%
%ADD25C,0.1250*%
%ADD26C,0.0460*%
%ADD27C,0.1100*%
%ADD28C,0.0420*%
G54D11*X190001Y260000D02*X190000D01*
X190001D02*X190000D01*
X200800D02*X190001D01*
X200801D02*X200800D01*
X233200D02*Y259999D01*
Y267151D02*Y260000D01*
X233201Y272152D02*X233200D01*
Y267151D01*
Y260000D02*Y259999D01*
Y267151D02*Y260000D01*
X157601D02*X157600D01*
X157601D02*X157600D01*
X168401D02*X168400D01*
X157601D01*
X168401D02*X168400D01*
X179201D02*X179200D01*
X168401D01*
X179201D02*X179200D01*
X190000D02*X179201D01*
X219685Y192751D02*X186065D01*
Y192750D01*
X225435Y184250D02*X152200D01*
X225435Y185750D02*Y184250D01*
X219686Y192751D02*X219685D01*
X225436Y185751D02*X225435Y184250D01*
X225436Y185751D02*X225435Y185750D01*
X222436Y230000D02*X222435D01*
Y234438D02*Y230000D01*
X225498Y237501D02*X222435Y234438D01*
X186065Y220000D02*Y192751D01*
X152200Y216525D02*Y214250D01*
X191066D02*Y214249D01*
X152200Y216525D02*Y214250D01*
X175436Y235751D02*X169685Y230000D01*
X191066Y235751D02*X175436D01*
X152200Y214250D02*Y184250D01*
Y248800D02*Y216525D01*
X240000Y192500D02*Y192499D01*
Y198500D02*Y192500D01*
Y214250D02*Y201500D01*
X222435Y230000D02*X219685D01*
X186065Y220000D02*X180315D01*
X186066D02*X186065D01*
X169685Y230000D02*Y229999D01*
X191067Y235751D02*X191066D01*
X238600Y240150D02*Y237501D01*
X225498D01*
X238600Y240150D02*Y237501D01*
Y231500D01*
X240000D02*X238600D01*
X240000Y231499D01*
X238600Y248800D02*Y240150D01*
X276000Y198500D02*X280000D01*
X270001Y192500D02*X270000D01*
Y198500D02*Y192500D01*
X276000Y185751D02*Y185750D01*
Y198500D02*Y185751D01*
G54D12*X256248Y156001D02*X254500Y154253D01*
X259500Y156001D02*X256248D01*
X259500Y159253D02*Y156001D01*
X268249Y158002D02*X265499Y155252D01*
X270748Y156001D02*X270000Y155253D01*
X264247Y164000D02*X259500Y159253D01*
X274000Y164000D02*X264247D01*
G54D11*X250000Y207501D02*Y198500D01*
X280000Y207501D02*X250000D01*
X280000D02*Y207500D01*
X260000Y228500D02*X250000D01*
X260001D02*X260000D01*
X263000Y219250D02*Y219251D01*
Y219250D02*Y219251D01*
X263001D02*X263000D01*
X280000Y222500D02*Y217999D01*
Y207501D01*
Y228500D02*Y222500D01*
X276000Y200000D02*Y198500D01*
G54D12*X300630Y180000D02*X300631D01*
X300630D02*X290000D01*
X300631D02*X300630D01*
X310000Y158002D02*X268249D01*
X270000Y155253D02*Y148500D01*
X294500Y156001D02*X270748D01*
X290000Y194252D02*Y194251D01*
Y198499D02*Y194252D01*
Y148500D02*X284999Y143499D01*
X347500Y121497D02*Y109998D01*
X406999Y113752D02*Y100000D01*
X408747Y115500D02*X406999Y113752D01*
X347501Y121498D02*X347500Y121497D01*
X376999Y195499D02*Y140000D01*
X381500Y200000D02*X376999Y195499D01*
X364501Y200000D02*X361500Y201500D01*
X411500Y119999D02*Y120000D01*
Y119999D02*Y120000D01*
X415999Y201500D02*Y170748D01*
G54D11*X263000Y219251D02*X230000D01*
X263000Y219250D02*Y219251D01*
Y219250D02*Y219251D01*
X263001D01*
X263000D02*Y219250D01*
X230000Y219251D02*Y219250D01*
Y228500D02*Y219251D01*
X240001Y214250D02*X240000D01*
X250630Y178501D02*Y178500D01*
X250631Y178501D02*X250630D01*
Y180000D02*Y178501D01*
X219685Y190000D02*Y189999D01*
Y192751D02*Y190000D01*
X270000Y192500D02*X240000D01*
X276000Y185751D02*X225436D01*
X280000Y222500D02*Y217999D01*
X311500Y222500D02*X280000D01*
X311500D02*Y222499D01*
X276000Y200000D02*Y198500D01*
X280000Y200000D02*X276000D01*
X290001Y207501D02*X290000D01*
Y198500D01*
X285001Y207501D02*X280000D01*
X285001D02*X280000D01*
X290000D02*X285001D01*
G54D12*X260000Y228500D02*X260001D01*
X260000Y224000D02*Y223999D01*
Y228500D02*Y224000D01*
X274500D02*X260000D01*
X274500D02*Y223999D01*
Y234253D02*Y224000D01*
G54D11*X270000Y237503D02*Y231500D01*
X260001Y228500D02*X260000Y230000D01*
G54D12*X321500Y267502D02*X302499D01*
X406000Y267501D02*X342248D01*
X321500Y267502D02*Y263000D01*
G54D11*X311500Y260000D02*Y222500D01*
G54D12*X367000Y271003D02*X299747D01*
X416999Y272999D02*Y263000D01*
X341500Y266753D02*Y260000D01*
X342248Y267501D02*X341500Y266753D01*
G54D11*X289950Y267151D02*X233200D01*
X289951D02*X289950D01*
G54D12*X298999Y275653D02*X174099D01*
X299747Y271003D02*X293451Y264707D01*
Y236001D01*
X293452D02*X293451D01*
G54D11*X289950Y241650D02*Y241649D01*
G54D12*X293451Y236001D02*X276248D01*
G54D11*X274147Y241650D02*X270000Y237503D01*
X289950Y241650D02*X274147D01*
X289950Y267151D02*Y241650D01*
X240001Y231500D02*X240000D01*
G54D12*X276248Y236001D02*X274500Y234253D01*
G54D11*X86065Y230000D02*X80315D01*
Y220000D02*Y219999D01*
Y222751D02*Y220000D01*
X80316Y222751D02*X80315D01*
X86066Y230000D02*X86065D01*
Y214250D02*Y214249D01*
Y230000D02*Y214250D01*
X80315Y222751D02*X10499D01*
Y222750D01*
X40000Y260000D02*Y259999D01*
X10499Y257002D02*Y222751D01*
X125201Y267151D02*X125200D01*
X47151D01*
X125200Y260000D02*Y259999D01*
Y267151D02*Y260000D01*
G54D12*X174099Y275653D02*X150499D01*
X22897D01*
G54D11*X146800Y260000D02*X136001D01*
X146801D02*X146800D01*
X157600D02*X146801D01*
X47151Y267151D02*X40000Y260000D01*
X119685Y230000D02*Y224999D01*
X119686Y236000D02*X119685D01*
Y230000D02*Y224999D01*
Y236000D02*Y230000D01*
Y220000D02*Y219999D01*
Y236000D02*X40000D01*
X34000Y169999D02*Y168500D01*
Y168499D02*Y166000D01*
Y168500D02*Y168499D01*
Y169999D02*Y168500D01*
Y170000D02*Y169999D01*
Y173500D02*Y173499D01*
Y170000D02*Y169999D01*
X37000Y177001D02*X34000Y173500D01*
X33999Y165999D02*X30001D01*
X34000Y166000D02*X33999Y165999D01*
X32502Y168500D02*X30001Y165999D01*
X34000Y168500D02*X32502D01*
G54D12*X20000Y148500D02*X14500Y143000D01*
X14000Y198002D02*X3999Y188001D01*
X24998Y209000D02*X14000Y198002D01*
X37000Y209000D02*X24998D01*
G54D11*X25649Y272152D02*X10499Y257002D01*
G54D12*X22897Y275653D02*X1998Y254754D01*
X3999Y188001D02*Y168563D01*
X5499Y167063D01*
X1998Y254754D02*Y142825D01*
G54D11*X168502Y178501D02*X164000Y173999D01*
G54D12*X140000Y148500D02*X134899Y143399D01*
G54D11*X120000Y177001D02*X37000D01*
Y173500D01*
Y199000D02*Y177001D01*
X102999Y170000D02*X100000D01*
X102999D01*
X100000D02*Y166000D01*
X106000D02*X100000D01*
X191066Y235751D02*Y214250D01*
X240000D02*X191066D01*
X152200D02*X86065D01*
X130315Y220000D02*X119685D01*
X130315D02*Y219999D01*
Y230000D02*Y220000D01*
X136000Y260000D02*X125200D01*
X136001D02*X136000D01*
X136001D02*X136000D01*
X146801D02*X146800D01*
X233200Y272152D02*X25649D01*
X119685Y224999D02*Y220000D01*
G54D12*X5499Y88500D02*X3999D01*
X7000D02*X5499D01*
X1998Y142825D02*Y82500D01*
G54D11*X250630Y178501D02*X168502D01*
X106000Y148500D02*Y150000D01*
Y148500D01*
X110000D01*
G54D12*X171000Y142500D02*X165499Y136999D01*
X160000Y144000D02*X145499Y129499D01*
G54D11*X106000Y150000D02*X110000D01*
X106000Y151499D02*Y150000D01*
G54D12*X254500Y154253D02*Y88500D01*
X10000D02*X7000D01*
X10000D02*X7000D01*
X68002Y80499D02*X64500D01*
X432101Y9998D02*X432100D01*
X1998D01*
X210001Y21500D02*X210000Y20000D01*
X210001Y18500D01*
X266399Y11999D02*X185499D01*
X100001Y21500D02*X100000Y20000D01*
X50000Y18500D02*Y14000D01*
X100000Y20000D02*X100001Y18500D01*
X405802Y15402D02*X403399Y12999D01*
X407000Y15402D02*X405802D01*
X180000Y14000D02*X50000D01*
X180000D02*Y13999D01*
Y18500D02*Y14000D01*
G54D11*X40000Y50000D02*X30000D01*
X40000Y20000D02*X30000D01*
G54D12*X1998Y82499D02*Y9998D01*
Y82500D02*Y82499D01*
X4899Y54352D02*Y25101D01*
X5648Y55101D02*X4899Y54352D01*
X14500Y55101D02*X5648D01*
X170000Y50000D02*X160000D01*
X220000Y48999D02*X219000Y49999D01*
X319000Y21000D02*X319001Y19500D01*
X266399Y12999D02*Y11999D01*
Y12999D02*Y11999D01*
X269802Y16402D02*X266399Y12999D01*
X270000Y16402D02*X269802D01*
X214500Y24253D02*Y14000D01*
X216248Y26001D02*X214500Y24253D01*
X230000Y26001D02*X216248D01*
X316002Y22500D02*X319000Y22499D01*
X280000Y56001D02*X260000D01*
Y56000D01*
Y88500D02*Y56001D01*
X260001Y51500D02*X260000Y50000D01*
X260001Y48500D01*
X299000Y49500D02*X299001D01*
Y50000D02*X290000D01*
X299000Y49500D02*X299001Y50000D01*
X299000Y51000D01*
X50000Y14000D02*Y13999D01*
X170000Y20000D02*X160000D01*
X221999Y97500D02*X222000D01*
X265499Y155252D02*Y63491D01*
X284999Y143499D02*Y59991D01*
X5499Y82500D02*X5500D01*
X120001Y88500D02*X120000Y90000D01*
X134899Y143399D02*Y25101D01*
X7000Y89000D02*Y88500D01*
X14500Y143000D02*Y55101D01*
X165499Y136999D02*Y76496D01*
X145499Y129499D02*Y67992D01*
X171000Y142500D02*X171001D01*
G54D11*X164000Y173999D02*X160000D01*
X164001D02*X164000D01*
X160000Y173998D02*Y170000D01*
Y173999D02*Y173998D01*
G54D12*X130000Y148500D02*X120000D01*
X130001D02*X130000D01*
X140001D02*X140000Y150000D01*
G54D11*X120000Y169999D02*Y151500D01*
Y177001D02*Y170000D01*
X120001Y177001D02*X120000D01*
X130315Y187250D02*Y187249D01*
Y190000D02*Y187250D01*
X147000D02*X130315D01*
X147001D02*X147000D01*
Y170000D01*
G54D12*X254001Y164000D02*X254000D01*
X240000Y163000D01*
G54D11*X140000D01*
X240001D02*X240000D01*
X180315Y190000D02*X169685D01*
X152200Y184250D02*Y184249D01*
X180316Y190000D02*X180315D01*
X240000Y171500D02*Y163000D01*
Y162999D01*
G54D12*Y171500D02*Y163000D01*
X325500Y113498D02*X325501D01*
X325499D02*X325500D01*
X325499D01*
X325501D02*X325500D01*
X140000Y170000D02*X120000D01*
X140001D02*X140000D01*
G54D11*X147000D02*Y169999D01*
X160000Y170000D02*X147000D01*
X160001D02*X160000D01*
X120000D02*Y169999D01*
Y170000D02*Y169999D01*
X140000Y163000D02*Y162999D01*
Y170000D02*Y163000D01*
G54D12*X130001Y148500D02*X130000Y150000D01*
X415999Y170748D02*X420748Y165999D01*
X422502D02*X420748D01*
G54D11*X37000Y173500D02*X34000D01*
X37001D02*X37000D01*
X34000Y173499D02*Y170000D01*
Y168499D02*Y166000D01*
Y168500D02*Y168499D01*
Y169999D02*Y168500D01*
Y170000D02*Y169999D01*
Y170000D02*Y169999D01*
Y168500D02*Y168499D01*
X34001Y168500D02*X34000D01*
Y170000D02*Y169999D01*
Y168500D01*
X10000Y166000D02*Y151500D01*
G54D12*X20001Y148500D02*X20000Y150000D01*
G54D11*X106001Y166000D02*X106000D01*
Y151500D02*Y151499D01*
Y166000D02*Y151500D01*
X110000D02*X106000Y151499D01*
X110000Y151500D02*X106000D01*
X110001D02*X110000D01*
G54D12*X280000Y50000D02*Y49999D01*
X288500Y63492D02*Y63491D01*
Y64991D02*Y63492D01*
X351002Y111999D02*Y111998D01*
X360000Y111999D02*X351002D01*
X360001D02*X360000D01*
X351002D02*Y111998D01*
Y113498D02*Y111999D01*
Y113498D02*Y111999D01*
X360000D02*Y88500D01*
X290000Y148500D02*X290001D01*
X340000D02*Y145502D01*
Y148500D02*Y145502D01*
Y148500D02*Y145502D01*
Y145501D01*
Y148500D02*Y145502D01*
X343000D01*
X343001D01*
X340000D02*X343000D01*
X325499Y113498D02*X325500D01*
X325499D02*Y113497D01*
Y113498D02*Y113497D01*
Y156001D02*Y113498D01*
X270000Y20000D02*Y16402D01*
Y20000D02*Y16402D01*
Y20000D02*Y16402D01*
X319000Y22500D02*X316002D01*
X319000D02*X319001D01*
X270000Y16402D02*X270001D01*
X270000D02*Y16401D01*
Y16402D02*Y16401D01*
X270001Y16402D02*X270000D01*
X299000Y20000D02*X299001D01*
X204500Y21500D02*Y21499D01*
X210000Y21500D02*X204500D01*
X210001D02*X210000D01*
X260000Y51500D02*X260001D01*
Y48500D02*X260000D01*
X250000Y28002D02*Y18500D01*
Y28002D02*X215499D01*
X230001Y26001D02*X230000D01*
Y21500D01*
X250001Y28002D02*X250000D01*
X350001Y109998D02*X350000D01*
Y88500D01*
Y109998D02*X347500D01*
Y109997D01*
X347502Y121498D02*X347501D01*
X85499Y157500D02*Y96001D01*
X74500Y148500D02*Y77997D01*
X64500Y144000D02*Y80499D01*
X34500Y148500D02*Y69993D01*
X40000Y88500D02*Y71994D01*
X50000Y88500D02*Y73995D01*
X60000Y75996D02*Y75995D01*
Y88500D02*Y75996D01*
X5499Y82500D02*X1998D01*
X5500D02*X5499D01*
X1998D02*Y82499D01*
Y142825D02*Y82500D01*
X34500Y69993D02*Y69992D01*
X44500Y69993D02*X34500D01*
X44501D02*X44500D01*
X20000Y88500D02*Y50000D01*
X74500Y77997D02*Y77996D01*
X64500Y80499D02*Y80498D01*
X94500Y77997D02*X74500D01*
X94501D02*X94500D01*
X90000Y75996D02*X60000D01*
X90001D02*X90000D01*
X110000Y79998D02*X80000D01*
X110001D02*X110000D01*
X80000Y73995D02*Y51500D01*
X90000Y75996D02*Y51500D01*
X110000Y79998D02*Y51500D01*
X90000Y81999D02*Y81998D01*
X100000Y84000D02*Y83999D01*
X80000Y79998D02*Y79997D01*
Y88500D02*Y79998D01*
X90000Y88500D02*Y81999D01*
X100000Y88500D02*Y84000D01*
X120000Y81999D02*X90000D01*
X130000Y84000D02*X100000D01*
X130001D02*X130000D01*
X120001Y81999D02*X120000D01*
Y51500D01*
X130000Y84000D02*Y51500D01*
X150000Y50000D02*Y49999D01*
Y55101D02*Y50000D01*
Y55101D02*X140000D01*
X150001D02*X150000D01*
X140000D02*Y55100D01*
Y88500D02*Y55101D01*
X150000Y69993D02*Y69992D01*
Y88500D02*Y69993D01*
X180000Y75996D02*Y75995D01*
Y88500D02*Y75996D01*
X160000Y71994D02*Y71993D01*
Y88500D02*Y71994D01*
X174501Y73995D02*Y73994D01*
X204500Y73995D02*X174501D01*
X204501D02*X204500D01*
X219000Y75996D02*X180000D01*
X219001D02*X219000D01*
Y50000D01*
X174501Y148500D02*Y73995D01*
X190000Y69993D02*X150000D01*
X200000Y71994D02*X160000D01*
X94500Y77997D02*Y21500D01*
X60000Y44000D02*X44500D01*
X60001D02*X60000D01*
Y21500D01*
X70000Y71994D02*X40000D01*
X50000Y73995D02*Y73994D01*
X80000Y73995D02*X50000D01*
X70001Y71994D02*X70000D01*
Y51500D01*
X80001Y73995D02*X80000D01*
X44500Y44000D02*Y43999D01*
X14501Y55101D02*X14500D01*
X20000Y50000D02*Y49999D01*
X44500Y69993D02*Y44000D01*
X40000Y71994D02*Y71993D01*
X165499Y26001D02*Y26000D01*
Y27102D02*Y26001D01*
Y27102D02*X140000D01*
X165500D02*X165499D01*
X140000D02*Y27101D01*
Y50000D02*Y27102D01*
X145499Y67992D02*Y67991D01*
X174500Y67992D02*X145499D01*
X174501D02*X174500D01*
Y44000D01*
X94500Y21500D02*Y21499D01*
X20000Y20000D02*Y19999D01*
Y25101D02*Y20000D01*
Y25101D02*X4899D01*
X20001D02*X20000D01*
X4899D02*Y25100D01*
X100000Y21500D02*X94500D01*
X100001D02*X100000D01*
X150000Y20000D02*Y19999D01*
Y25101D02*Y20000D01*
Y25101D02*X134899D01*
Y25100D01*
X150001Y25101D02*X150000D01*
X210000Y21500D02*X210001D01*
X200000Y44000D02*Y21500D01*
X185499Y26001D02*X165499D01*
X185500D02*X185499D01*
X194500Y40499D02*X174500D01*
X194501D02*X194500D01*
X174500Y44000D02*Y43999D01*
X200000Y44000D02*X174500D01*
X200001D02*X200000D01*
X204500Y73995D02*Y21500D01*
X210001Y18500D02*X210000D01*
X220000Y50000D02*X219000D01*
X220000D02*X219000Y49999D01*
X220000Y50000D02*X219000D01*
X215499Y28002D02*Y28001D01*
Y57500D02*Y28002D01*
X190001Y69993D02*X190000D01*
Y51500D01*
X200001Y71994D02*X200000D01*
Y51500D01*
X220000Y50000D02*X220001D01*
X220000D01*
G54D11*X125200Y260000D02*Y259999D01*
X146800Y260000D02*X146801D01*
X157600D02*X157601D01*
X168400D02*X168401D01*
G54D12*X174099Y279153D02*Y275653D01*
G54D11*X40000Y260000D02*Y259999D01*
X136000Y260000D02*X136001D01*
X179200D02*X179201D01*
X190000D02*X190001D01*
X200800D02*X200801D01*
X233200Y259999D02*Y260000D01*
G54D12*X174099Y275653D02*X150499D01*
G54D11*X80315Y222751D02*X80316D01*
G54D12*X37000Y209000D02*X37001D01*
X37000D01*
G54D11*X119685Y220000D02*Y219999D01*
X80315Y220000D02*Y219999D01*
Y220000D02*Y222751D01*
Y220000D02*Y222751D01*
X169685Y230000D02*Y229999D01*
X130315Y220000D02*Y219999D01*
X222435Y230000D02*X222436D01*
X219685D02*Y229999D01*
X222435Y230000D01*
X219685D02*X222435D01*
X180315Y190000D02*X180316D01*
X219685D02*Y192751D01*
Y190000D02*Y192751D01*
X219686D01*
X219685Y190000D02*Y189999D01*
X250630Y180000D02*Y178501D01*
X160000Y173998D02*X164000Y173999D01*
X164001D01*
X160000D02*X164000D01*
X160000Y173998D02*Y173999D01*
Y170000D02*Y173998D01*
X250630Y178501D02*Y178500D01*
G54D12*X248000Y169501D02*Y169500D01*
Y171000D02*Y169501D01*
Y169500D01*
Y171000D02*Y169501D01*
Y171000D02*Y169501D01*
G54D11*X250630Y180000D02*Y178501D01*
X250631D01*
X240000Y231500D02*X238600D01*
X240000D02*X240001D01*
X37000Y173500D02*X37001D01*
X34000D02*X37000D01*
X34000Y173499D02*X37000Y173500D01*
X34000Y173499D02*Y173500D01*
Y173499D02*Y173500D01*
G54D12*X147200Y195750D02*X113000D01*
X85499Y157500D02*X28500D01*
X85500D02*X85499D01*
G54D11*X34000Y170000D02*Y173499D01*
Y170000D02*Y173499D01*
Y170000D02*Y173499D01*
Y170000D02*Y169999D01*
Y168500D01*
Y170000D02*Y169999D01*
Y168500D02*Y168499D01*
Y168500D02*X34001D01*
X34000Y166000D02*X30001Y165999D01*
G54D12*X113000Y171000D02*X114499D01*
X114500D01*
X113000D02*X114499D01*
X113000D01*
X114500D02*X114499D01*
G54D11*X100000Y170000D02*Y166000D01*
Y170000D02*Y166000D01*
G54D12*X114499Y171000D02*Y156001D01*
G54D11*X110000Y151500D02*X106000D01*
X110000D02*X110001D01*
G54D12*X115499Y156001D02*X114499D01*
Y156000D01*
X115500Y156001D02*X115499D01*
X133000Y161502D02*Y156001D01*
X254000Y164000D02*X254001D01*
X234500Y156001D02*X133000D01*
X234501D02*X234500D01*
G54D11*X120000Y170000D02*Y169999D01*
X140000Y170000D02*X140001D01*
G54D12*X133000Y156001D02*Y156000D01*
X147200Y195750D02*X147201D01*
G54D11*X130315Y190000D02*Y187250D01*
Y190000D02*Y187250D01*
G54D12*X147201Y195750D02*X147200D01*
G54D11*X130315Y187250D02*Y187249D01*
X160000Y170000D02*Y173998D01*
Y170000D02*X160001D01*
G54D12*X5500Y167063D02*X5499D01*
X299000Y275653D02*X298999D01*
G54D11*X30001Y165999D02*X10000Y166000D01*
G54D12*X298999Y274500D02*Y274499D01*
Y275653D02*Y274500D01*
X353749D02*X298999D01*
X353749D02*Y274499D01*
X356001Y276752D02*X353749Y274500D01*
X357000Y276752D02*X356001D01*
X234500Y156001D02*Y88500D01*
X230000D01*
X234501D02*X234500D01*
X254500D02*X250000D01*
X221999Y97500D02*X180000D01*
X222000D02*X221999D01*
X180000D02*Y97499D01*
X254501Y88500D02*X254500D01*
X160000Y144000D02*Y143999D01*
Y148500D02*Y144000D01*
X140001Y148500D02*X140000D01*
X171001Y142500D02*X171000D01*
X180000Y148500D02*Y97500D01*
X174501Y148500D02*X170000D01*
X174502D02*X174501D01*
X340000Y182750D02*X340001D01*
X361500Y200000D02*X364500D01*
X364501D01*
X361500D02*X364500D01*
X333499Y185750D02*Y185749D01*
X340000Y180000D02*Y179999D01*
Y180000D02*Y182750D01*
Y180000D02*Y182750D01*
X333499Y185750D02*Y185749D01*
Y190751D02*Y185750D01*
X333500Y190751D02*X333499D01*
X274000Y164000D02*X274001D01*
X319499Y169501D02*X248000D01*
X274001Y164000D02*X274000D01*
X325000Y167000D02*Y163002D01*
Y163001D01*
Y167000D02*Y163002D01*
X319500Y169501D02*X319499D01*
X325499Y156001D02*X319499D01*
Y156000D01*
Y169501D02*Y156001D01*
X325500D02*X325499D01*
X333499Y190751D02*X285000D01*
X259501Y156001D02*X259500D01*
X10001Y88500D02*X10000D01*
X74500Y148500D02*X70000D01*
X74501D02*X74500D01*
X50000Y144000D02*Y143999D01*
Y148500D02*Y144000D01*
X64500D02*X50000D01*
X64501D02*X64500D01*
X34500Y148500D02*X30000D01*
X34501D02*X34500D01*
X20001D02*X20000D01*
X130000D02*X130001D01*
X140000D02*X140001D01*
X20000D02*X20001D01*
X5499Y89000D02*Y88500D01*
Y167063D02*Y89000D01*
X1998Y9998D02*Y9997D01*
X10000Y88500D02*X10001D01*
X7001Y89000D02*X7000D01*
X10000D02*X7001D01*
X7000D02*X5499D01*
X7001D02*X7000D01*
X20000Y50000D02*Y49999D01*
Y20000D02*Y19999D01*
X10000Y89000D02*X7001D01*
X150000Y50000D02*Y49999D01*
Y20000D02*Y19999D01*
X100000Y21500D02*X100001D01*
Y18500D02*X100000D01*
X120000Y88500D02*X120001D01*
X120000D01*
X115499D01*
Y88499D01*
Y156001D02*Y88500D01*
X110000Y96001D02*Y88500D01*
Y96001D02*X85499D01*
X110001D02*X110000D01*
X85499D02*Y96000D01*
X327500Y161500D02*Y161499D01*
X310001Y158002D02*X310000D01*
X294501Y156001D02*X294500D01*
X337249Y194252D02*Y182750D01*
Y194252D02*X290000D01*
X337250D02*X337249D01*
X290001Y148500D02*X290000D01*
X290001D02*X290000Y150000D01*
X300630Y175750D02*Y175749D01*
X310000Y158002D02*Y148500D01*
X300000Y104496D02*Y104495D01*
Y148500D02*Y104496D01*
X334500D02*X300000D01*
X334501D02*X334500D01*
X325499Y113498D02*X325500D01*
X300630Y180000D02*Y175750D01*
X360000D02*X300630D01*
X325000Y163002D02*Y163001D01*
Y167000D02*Y163002D01*
X327500D02*X325000D01*
X327501D02*X327500D01*
X340000Y180000D02*Y179999D01*
Y182750D02*Y180000D01*
Y182750D02*X337249D01*
X340001D02*X340000D01*
X337249D02*Y182749D01*
X303500Y63492D02*X288500D01*
X303501D02*X303500D01*
X292002Y59991D02*X292001D01*
X300000Y88500D02*Y68994D01*
X294500Y65493D02*Y65492D01*
Y156001D02*Y65493D01*
X316003Y45000D02*X316002D01*
X315502Y68994D02*X315501D01*
X349000Y61498D02*X315501D01*
X349001D02*X349000D01*
X330000Y63499D02*Y63498D01*
X340000Y65500D02*Y65499D01*
X349000Y61498D02*Y52500D01*
X330000Y88500D02*Y63499D01*
X379000D02*X330000D01*
X389000Y65500D02*X340000D01*
X379001Y63499D02*X379000D01*
Y52500D01*
X389001Y65500D02*X389000D01*
X288500Y64991D02*Y63492D01*
X313500Y65493D02*X294500D01*
X300000Y68994D02*Y68993D01*
X315501Y68994D02*X300000D01*
X313500Y65493D02*Y45000D01*
X315501Y61498D02*Y61497D01*
Y68994D02*Y61498D01*
X313500Y45000D02*Y44999D01*
X303500Y63492D02*Y43499D01*
X316002Y45000D02*X313500D01*
X280000Y50000D02*Y49999D01*
Y56001D02*Y50000D01*
X280001Y56001D02*X280000D01*
X299001Y49500D02*X299000D01*
X411500Y125500D02*X366501D01*
X406000Y160000D02*Y159999D01*
X411500Y160000D02*X406000D01*
X396000Y150000D02*Y149999D01*
X411500Y150000D02*X396000D01*
X411501Y125500D02*X411500D01*
Y120000D02*Y119999D01*
Y125500D02*Y120000D01*
Y119999D02*Y120000D01*
X434000Y115500D02*Y115499D01*
Y115500D02*X408747D01*
X389000Y65500D02*Y52500D01*
X406999Y100000D02*Y99999D01*
X411500Y100000D02*X406999D01*
X343000Y145502D02*X340000D01*
X343001D02*X343000D01*
X361503Y142500D02*X346501D01*
X340000Y145502D02*Y145501D01*
Y148500D02*Y145502D01*
X364500Y200000D02*Y120000D01*
X360001Y175750D02*X360000D01*
Y151500D01*
X327500Y163002D02*Y161500D01*
X350000D02*X327500D01*
X350001D02*X350000D01*
Y151500D01*
X343000Y145502D02*Y107997D01*
X366501Y125500D02*Y125499D01*
X361504Y142500D02*X361503D01*
Y115500D01*
Y115499D01*
X364500Y120000D02*Y119999D01*
X381500Y120000D02*X364500D01*
X376999Y140000D02*Y139999D01*
X364500Y200000D02*X361500D01*
X364501D02*X364500D01*
X381500D02*X381501D01*
X381500D01*
Y140000D02*X376999D01*
X393501Y75500D02*X393500D01*
X407000Y19000D02*Y18999D01*
Y43000D02*Y19000D01*
Y15402D02*Y15401D01*
Y15402D02*Y15401D01*
Y18999D02*Y15402D01*
Y19000D02*Y18999D01*
X407001Y15402D02*X407000D01*
X312501Y31997D02*X257001D01*
X403399Y12999D02*Y12998D01*
X250001Y81999D02*X250000D01*
Y51500D01*
X254501Y84000D02*X254500D01*
Y51500D01*
X260000D02*X254500D01*
X250000Y81999D02*X210000D01*
X220000Y84000D02*Y83999D01*
X254500Y84000D02*X220000D01*
X230001Y77997D02*X230000D01*
Y51500D01*
X240001Y79998D02*X240000D01*
Y51500D01*
X210000Y81999D02*Y81998D01*
Y88500D02*Y81999D01*
X220000Y88500D02*Y84000D01*
X240000Y79998D02*X200000D01*
X190000Y77997D02*Y77996D01*
Y88500D02*Y77997D01*
X230000D02*X190000D01*
X200000Y79998D02*Y79997D01*
Y88500D02*Y79998D01*
X214501Y14000D02*X214500D01*
X266399Y11999D02*Y11998D01*
X185499Y11999D02*Y11998D01*
X194500Y14000D02*Y13999D01*
X214500Y14000D02*X194500D01*
X185499Y26001D02*Y11999D01*
X194500Y40499D02*Y14000D01*
X254500Y51500D02*Y51499D01*
X260001Y51500D02*X260000D01*
X284999Y59991D02*Y59990D01*
X292001Y59991D02*X284999D01*
X343000Y107997D02*Y107996D01*
X344500Y107997D02*X343000D01*
X344501D02*X344500D01*
Y75500D02*Y75499D01*
Y107997D02*Y75500D01*
X373500Y59998D02*X368001D01*
X373501D02*X373500D01*
X265499Y63491D02*Y63490D01*
X268400Y63491D02*X265499D01*
X268401D02*X268400D01*
X393500Y75500D02*X344500D01*
X288500Y63492D02*Y63491D01*
X379000Y22500D02*X379001D01*
Y19500D02*X379000D01*
X379001Y22500D02*X379000D01*
X373500D02*Y22499D01*
X379000Y22500D02*X373500D01*
X312502Y31997D02*X312501D01*
X393500Y22500D02*X389000D01*
X393500D02*Y22499D01*
Y75500D02*Y22500D01*
X373500Y59998D02*Y22500D01*
X334500Y76497D02*Y76496D01*
Y104496D02*Y76497D01*
X313501Y65493D02*X313500D01*
X366501Y260000D02*Y125500D01*
X389000Y115500D02*X361503D01*
X389001D02*X389000D01*
X391500Y200000D02*Y150000D01*
X384500D01*
X391500D02*Y149999D01*
X381501Y200000D02*X381500Y201500D01*
X434000Y255500D02*Y115500D01*
X436001Y287502D02*Y37900D01*
X406000Y253499D02*Y160000D01*
X406001Y267501D02*X406000D01*
Y255500D01*
X396000Y260000D02*X391500D01*
X396001D02*X396000D01*
Y150000D01*
X420000Y276000D02*X419999Y275999D01*
X416999Y272999D01*
X424000Y280000D02*X420000Y276000D01*
X389000Y90000D02*Y89999D01*
Y115500D02*Y90000D01*
X411500D02*X389000D01*
X417000Y37900D02*Y37899D01*
Y43000D02*Y37900D01*
X436001D02*X417000D01*
X436002D02*X436001D01*
X395501Y80000D02*X384500D01*
X340000Y88500D02*Y65500D01*
X427000Y43000D02*Y42999D01*
Y70000D02*Y43000D01*
Y70000D02*X414500D01*
X427001D02*X427000D01*
X411500Y80000D02*X395501D01*
X411500D02*X395501D01*
X328000Y280000D02*Y279999D01*
X424000Y280000D02*X424001D01*
X357000D02*Y276752D01*
Y280000D02*Y276752D01*
Y276751D01*
Y280000D02*Y276752D01*
X357001D02*X357000D01*
X333501Y285501D02*X328000Y280000D01*
X357000Y276752D02*X357001D01*
X357000D02*Y276751D01*
X367000Y280000D02*Y271003D01*
X367001D02*X367000D01*
X436001Y287502D02*X302501D01*
X429500Y285501D02*X333501D01*
X366501Y260000D02*X361500D01*
X366502D02*X366501D01*
X328000Y280000D02*Y279999D01*
X436002Y287502D02*X436001D01*
X429500Y263000D02*X421500D01*
X429500D02*Y262999D01*
Y285501D02*Y263000D01*
X424001Y280000D02*X424000D01*
X416999Y263000D02*X411500D01*
X416999D02*Y262999D01*
X321501Y267502D02*X321500D01*
X429501Y285501D02*X429500D01*
X415999Y201500D02*X411500D01*
X416000D02*X415999D01*
X401500Y253499D02*Y253498D01*
X406000Y253499D02*X401500D01*
X406001D02*X406000D01*
Y255500D02*Y255499D01*
X434000Y255500D02*X406000D01*
X434001D02*X434000D01*
X401500Y260000D02*Y253499D01*
X351002Y113498D02*Y111999D01*
X347501Y121498D02*X347502D01*
X268400Y63491D02*X268401D01*
X288500Y64991D02*Y63492D01*
X292001Y59991D02*X292002D01*
X312501Y31997D02*X312502D01*
X334500Y76497D02*Y76496D01*
X427000Y43000D02*Y42999D01*
X411500Y120000D02*Y119999D01*
Y120000D01*
X407000Y15402D02*X407001D01*
X407000Y19000D02*Y18999D01*
X319000Y22500D02*X316002D01*
X319001D02*X319000D01*
X395501Y80000D02*Y15000D01*
X309000D02*Y14999D01*
Y19500D02*Y15000D01*
X395501D02*X309000D01*
X395502D02*X395501D01*
X379001Y22500D02*X379000Y21000D01*
X379001Y19500D01*
X316002Y45000D02*Y22500D01*
X299000Y20000D02*X290000D01*
X299001D02*X299000D01*
X299001D02*X299000Y21000D01*
X407000Y18999D02*Y15402D01*
Y19000D02*Y18999D01*
Y15402D01*
Y19000D02*Y18999D01*
X403399Y12999D02*X266399D01*
X432100Y25599D02*Y9998D01*
X319001Y19500D02*X319000D01*
G54D13*X240000Y171500D03*
G54D14*X250630Y180000D03*
G54D13*X220000Y171500D03*
G54D14*X169685Y190000D03*
X130315D03*
X219685D03*
X180315D03*
G54D15*X141400Y248800D03*
X146800Y260000D03*
X136000D03*
X130600Y248800D03*
X125200Y260000D03*
X119800Y248800D03*
G54D16*X92000Y254400D03*
G54D14*X119685Y230000D03*
Y220000D03*
X130315D03*
Y230000D03*
G54D15*X184600Y248800D03*
X173800D03*
X163000D03*
X168400Y260000D03*
X157600D03*
X152200Y248800D03*
G54D14*X169685Y220000D03*
Y230000D03*
X180315D03*
Y220000D03*
G54D15*X238600Y248800D03*
X227800D03*
X217000D03*
X206200D03*
G54D17*G36*
X245800Y252400D02*Y245200D01*
X253000D01*
Y252400D01*
X245800D01*
G37*
G54D15*X195400Y248800D03*
X233200Y260000D03*
X222400D03*
X200800D03*
X244000D03*
X211600D03*
X190000D03*
X179200D03*
G54D14*X219685Y230000D03*
Y220000D03*
G54D18*X290000Y230000D03*
X280000D03*
X270000D03*
X260000D03*
X250000D03*
X240000D03*
X230000D03*
G54D16*X277200Y254400D03*
G54D18*X270000Y200000D03*
X280000D03*
X290000D03*
G54D14*X300630Y180000D03*
X290000D03*
G54D18*X311500Y201500D03*
G54D14*X340000Y180000D03*
G54D18*X371500Y261500D03*
X361500D03*
X351500D03*
X341500D03*
X331500D03*
X321500D03*
X311500D03*
G54D13*X328000Y280000D03*
X308000D03*
G54D17*G36*
X353500Y283500D02*Y276500D01*
X360500D01*
Y283500D01*
X353500D01*
G37*
G54D19*X367000Y280000D03*
G54D18*X321500Y201500D03*
X331500D03*
X341500D03*
X351500D03*
X361500D03*
X371500D03*
X381500D03*
X391500D03*
X401500D03*
X411500D03*
X421500D03*
Y261500D03*
X411500D03*
X401500D03*
X391500D03*
X381500D03*
G54D13*X404000Y280000D03*
X424000D03*
G54D20*X40000Y236000D03*
G54D21*Y260000D03*
X21000Y248000D03*
G54D14*X80315Y230000D03*
Y220000D03*
G54D13*X54000Y170000D03*
X34000D03*
G54D17*G36*
X33250Y202750D02*Y195250D01*
X40750D01*
Y202750D01*
X33250D01*
G37*
G54D22*X37000Y209000D03*
G54D17*G36*
X6400Y23600D02*Y16400D01*
X13600D01*
Y23600D01*
X6400D01*
G37*
G54D15*X20000Y20000D03*
X30000D03*
G54D18*X40000D03*
X50000D03*
X60000D03*
X70000D03*
X80000D03*
X10000Y90000D03*
G54D17*G36*
X6400Y53600D02*Y46400D01*
X13600D01*
Y53600D01*
X6400D01*
G37*
G54D15*X20000Y50000D03*
X30000D03*
G54D18*X40000D03*
X20000Y90000D03*
X30000D03*
X40000D03*
X50000D03*
Y50000D03*
X60000Y90000D03*
Y50000D03*
X70000Y90000D03*
Y50000D03*
X80000Y90000D03*
Y50000D03*
Y150000D03*
X70000D03*
X60000D03*
X50000D03*
X40000D03*
X30000D03*
X20000D03*
X10000D03*
X389000Y51000D03*
X379000D03*
X369000D03*
G54D17*G36*
X403400Y46600D02*Y39400D01*
X410600D01*
Y46600D01*
X403400D01*
G37*
G54D15*X417000Y43000D03*
G54D18*X369000Y21000D03*
X379000D03*
X389000D03*
G54D17*G36*
X403400Y22600D02*Y15400D01*
X410600D01*
Y22600D01*
X403400D01*
G37*
G54D15*X417000Y19000D03*
X427000D03*
Y43000D03*
G54D18*X250000Y50000D03*
X240000D03*
X230000D03*
X220000D03*
X210000D03*
X200000D03*
Y20000D03*
X210000D03*
X220000D03*
X230000D03*
X240000D03*
X250000D03*
X260000Y50000D03*
G54D17*G36*
X266400Y53600D02*Y46400D01*
X273600D01*
Y53600D01*
X266400D01*
G37*
G54D15*X280000Y50000D03*
X290000D03*
G54D18*X260000Y20000D03*
G54D17*G36*
X266400Y23600D02*Y16400D01*
X273600D01*
Y23600D01*
X266400D01*
G37*
G54D15*X280000Y20000D03*
G54D18*X319000Y51000D03*
X309000D03*
X299000D03*
G54D15*X290000Y20000D03*
G54D18*X299000Y21000D03*
X309000D03*
X319000D03*
X359000Y51000D03*
X349000D03*
X339000D03*
X329000D03*
Y21000D03*
X339000D03*
X349000D03*
X359000D03*
X130000Y50000D03*
G54D17*G36*
X136400Y53600D02*Y46400D01*
X143600D01*
Y53600D01*
X136400D01*
G37*
G54D15*X150000Y50000D03*
G54D17*G36*
X136400Y23600D02*Y16400D01*
X143600D01*
Y23600D01*
X136400D01*
G37*
G54D15*X150000Y20000D03*
G54D18*X120000Y50000D03*
X110000D03*
X100000D03*
Y20000D03*
X90000Y50000D03*
Y20000D03*
X110000D03*
X120000D03*
X130000D03*
G54D15*X160000D03*
Y50000D03*
G54D18*X190000D03*
X180000D03*
X170000D03*
Y20000D03*
X180000D03*
X190000D03*
X230000Y200000D03*
X240000D03*
X250000D03*
X260000D03*
G54D13*X274000Y164000D03*
X254000D03*
G54D18*X360000Y150000D03*
X383000Y160000D03*
Y150000D03*
X350000D03*
X383000Y140000D03*
Y130000D03*
Y120000D03*
Y110000D03*
Y100000D03*
Y90000D03*
Y80000D03*
Y70000D03*
X413000D03*
Y80000D03*
Y90000D03*
Y100000D03*
Y110000D03*
Y120000D03*
Y130000D03*
Y140000D03*
Y150000D03*
Y160000D03*
X250000Y90000D03*
X260000D03*
X270000D03*
X280000D03*
X290000D03*
X300000D03*
X310000D03*
X320000D03*
X330000D03*
X340000D03*
X350000D03*
X360000D03*
X340000Y150000D03*
X330000D03*
X320000D03*
X310000D03*
X300000D03*
X290000D03*
X280000D03*
X270000D03*
X260000D03*
X250000D03*
G54D13*X345000Y167000D03*
X325000D03*
G54D18*X240000Y150000D03*
X230000D03*
X220000D03*
X210000D03*
X200000D03*
X190000D03*
X180000D03*
X170000D03*
X160000D03*
X150000D03*
G54D13*X160000Y170000D03*
X140000D03*
G54D18*Y150000D03*
X130000D03*
X120000D03*
X110000D03*
X100000D03*
X90000D03*
X130000Y90000D03*
X140000D03*
X150000D03*
X160000D03*
X170000D03*
X120000D03*
X180000D03*
X190000D03*
X200000D03*
X210000D03*
X220000D03*
X230000D03*
X240000D03*
X90000D03*
X100000D03*
X110000D03*
G54D13*X120000Y170000D03*
X100000D03*
G54D18*X263000Y219250D03*
G54D11*X302499Y267502D03*
X285000Y190751D03*
X147200Y195750D03*
X113000D03*
X333499Y185750D03*
X174099Y279153D03*
X302501Y287502D03*
X346501Y142500D03*
X334500Y76497D03*
X351002Y113498D03*
X312501Y31997D03*
X292001Y59991D03*
X288500Y64991D03*
X368001Y59998D03*
X303500Y43499D03*
X257001Y31997D03*
X268400Y63491D03*
X248000Y171000D03*
X347501Y121498D03*
X325499Y113498D03*
X432100Y25599D03*
X422502Y165999D03*
X221999Y97500D03*
X174500Y40499D03*
X215499Y57500D03*
X5499Y82500D03*
X28500Y157500D03*
X171000Y142500D03*
X133000Y161502D03*
X68002Y80499D03*
X165499Y76496D03*
X113000Y171000D03*
G54D18*X290000Y231500D02*Y228500D01*
X280000Y231500D02*Y228500D01*
X270000Y231500D02*Y228500D01*
X260000Y231500D02*Y228500D01*
X250000Y231500D02*Y228500D01*
X240000Y231500D02*Y228500D01*
X230000Y231500D02*Y228500D01*
X321500Y263000D02*Y260000D01*
X311500Y263000D02*Y260000D01*
X280000Y201500D02*Y198500D01*
X290000Y201500D02*Y198500D01*
X311500Y203000D02*Y200000D01*
X321500Y203000D02*Y200000D01*
X330000Y151500D02*Y148500D01*
Y91500D02*Y88500D01*
X320000Y151500D02*Y148500D01*
X310000Y151500D02*Y148500D01*
X300000Y151500D02*Y148500D01*
X290000Y151500D02*Y148500D01*
X230000Y91500D02*Y88500D01*
X240000Y91500D02*Y88500D01*
X250000Y91500D02*Y88500D01*
X260000Y91500D02*Y88500D01*
X270000Y91500D02*Y88500D01*
X280000Y91500D02*Y88500D01*
X290000Y91500D02*Y88500D01*
X300000Y91500D02*Y88500D01*
X310000Y91500D02*Y88500D01*
X320000Y91500D02*Y88500D01*
X280000Y151500D02*Y148500D01*
X270000Y151500D02*Y148500D01*
X260000Y151500D02*Y148500D01*
X250000Y151500D02*Y148500D01*
X240000Y151500D02*Y148500D01*
X230000Y151500D02*Y148500D01*
X260000Y51500D02*Y48500D01*
X250000Y51500D02*Y48500D01*
X240000Y51500D02*Y48500D01*
X230000Y51500D02*Y48500D01*
X220000Y51500D02*Y48500D01*
X210000Y51500D02*Y48500D01*
X200000Y51500D02*Y48500D01*
X190000Y51500D02*Y48500D01*
X200000Y21500D02*Y18500D01*
X180000Y51500D02*Y48500D01*
X170000Y21500D02*Y18500D01*
X180000Y21500D02*Y18500D01*
X190000Y21500D02*Y18500D01*
X260000Y21500D02*Y18500D01*
X210000Y21500D02*Y18500D01*
X220000Y21500D02*Y18500D01*
X230000Y21500D02*Y18500D01*
X240000Y21500D02*Y18500D01*
X250000Y21500D02*Y18500D01*
X230000Y201500D02*Y198500D01*
X240000Y201500D02*Y198500D01*
X250000Y201500D02*Y198500D01*
X260000Y201500D02*Y198500D01*
X270000Y201500D02*Y198500D01*
X220000Y151500D02*Y148500D01*
Y91500D02*Y88500D01*
X10000Y91500D02*Y88500D01*
X20000Y91500D02*Y88500D01*
X30000Y91500D02*Y88500D01*
X40000Y91500D02*Y88500D01*
X90000Y151500D02*Y148500D01*
X80000Y151500D02*Y148500D01*
X70000Y151500D02*Y148500D01*
X60000Y151500D02*Y148500D01*
X50000Y151500D02*Y148500D01*
X40000Y151500D02*Y148500D01*
X30000Y151500D02*Y148500D01*
X20000Y151500D02*Y148500D01*
X10000Y151500D02*Y148500D01*
X50000Y91500D02*Y88500D01*
X60000Y91500D02*Y88500D01*
X70000Y91500D02*Y88500D01*
X80000Y91500D02*Y88500D01*
X90000Y91500D02*Y88500D01*
X100000Y91500D02*Y88500D01*
X110000Y91500D02*Y88500D01*
X130000Y91500D02*Y88500D01*
X120000Y91500D02*Y88500D01*
X180000Y91500D02*Y88500D01*
X190000Y91500D02*Y88500D01*
X200000Y91500D02*Y88500D01*
X210000Y91500D02*Y88500D01*
Y151500D02*Y148500D01*
X200000Y151500D02*Y148500D01*
X190000Y151500D02*Y148500D01*
X180000Y151500D02*Y148500D01*
X170000Y151500D02*Y148500D01*
X160000Y151500D02*Y148500D01*
X150000Y151500D02*Y148500D01*
X140000Y151500D02*Y148500D01*
X130000Y151500D02*Y148500D01*
X120000Y151500D02*Y148500D01*
X110000Y151500D02*Y148500D01*
X100000Y151500D02*Y148500D01*
X140000Y91500D02*Y88500D01*
X150000Y91500D02*Y88500D01*
X160000Y91500D02*Y88500D01*
X170000Y91500D02*Y88500D01*
X130000Y51500D02*Y48500D01*
X120000Y51500D02*Y48500D01*
X170000Y51500D02*Y48500D01*
X110000Y51500D02*Y48500D01*
X100000Y51500D02*Y48500D01*
X90000Y51500D02*Y48500D01*
X80000Y51500D02*Y48500D01*
X70000Y51500D02*Y48500D01*
X60000Y51500D02*Y48500D01*
X50000Y51500D02*Y48500D01*
X40000Y51500D02*Y48500D01*
Y21500D02*Y18500D01*
X50000Y21500D02*Y18500D01*
X60000Y21500D02*Y18500D01*
X70000Y21500D02*Y18500D01*
X80000Y21500D02*Y18500D01*
X90000Y21500D02*Y18500D01*
X100000Y21500D02*Y18500D01*
X110000Y21500D02*Y18500D01*
X120000Y21500D02*Y18500D01*
X130000Y21500D02*Y18500D01*
X381500Y90000D02*X384500D01*
X381500Y80000D02*X384500D01*
X381500Y70000D02*X384500D01*
X411500D02*X414500D01*
X411500Y80000D02*X414500D01*
X411500Y90000D02*X414500D01*
X381500Y160000D02*X384500D01*
X411500D02*X414500D01*
X389000Y52500D02*Y49500D01*
X379000Y52500D02*Y49500D01*
X381500Y100000D02*X384500D01*
X381500Y110000D02*X384500D01*
X411500Y100000D02*X414500D01*
X411500Y110000D02*X414500D01*
X411500Y140000D02*X414500D01*
X411500Y150000D02*X414500D01*
X381500D02*X384500D01*
X381500Y140000D02*X384500D01*
X381500Y130000D02*X384500D01*
X381500Y120000D02*X384500D01*
X411500D02*X414500D01*
X411500Y130000D02*X414500D01*
X379000Y22500D02*Y19500D01*
X389000Y22500D02*Y19500D01*
X360000Y91500D02*Y88500D01*
X340000Y91500D02*Y88500D01*
X350000Y91500D02*Y88500D01*
X360000Y151500D02*Y148500D01*
X350000Y151500D02*Y148500D01*
X340000Y151500D02*Y148500D01*
X369000Y52500D02*Y49500D01*
X359000Y52500D02*Y49500D01*
X349000Y52500D02*Y49500D01*
X339000Y52500D02*Y49500D01*
X329000Y52500D02*Y49500D01*
X319000Y52500D02*Y49500D01*
X309000Y52500D02*Y49500D01*
X299000Y52500D02*Y49500D01*
X329000Y22500D02*Y19500D01*
X339000Y22500D02*Y19500D01*
X359000Y22500D02*Y19500D01*
X369000Y22500D02*Y19500D01*
X349000Y22500D02*Y19500D01*
X299000Y22500D02*Y19500D01*
X309000Y22500D02*Y19500D01*
X319000Y22500D02*Y19500D01*
X421500Y263000D02*Y260000D01*
X411500Y263000D02*Y260000D01*
X401500Y263000D02*Y260000D01*
X391500Y263000D02*Y260000D01*
X381500Y263000D02*Y260000D01*
X371500Y263000D02*Y260000D01*
X361500Y263000D02*Y260000D01*
X351500Y263000D02*Y260000D01*
X341500Y263000D02*Y260000D01*
X331500Y263000D02*Y260000D01*
Y203000D02*Y200000D01*
X341500Y203000D02*Y200000D01*
X351500Y203000D02*Y200000D01*
X361500Y203000D02*Y200000D01*
X371500Y203000D02*Y200000D01*
X381500Y203000D02*Y200000D01*
X391500Y203000D02*Y200000D01*
X401500Y203000D02*Y200000D01*
X411500Y203000D02*Y200000D01*
X421500Y203000D02*Y200000D01*
G54D23*G54D24*G54D25*G54D23*G54D24*G54D23*G54D24*G54D23*G54D25*G54D23*G54D25*G54D23*G54D26*G54D23*G54D25*G54D27*G54D23*G54D25*G54D23*G54D26*G54D28*G54D23*G54D28*G54D23*G54D28*G54D23*G54D28*G54D23*G54D28*G54D23*G54D28*G54D23*G54D28*G54D23*G54D28*G54D23*G54D28*G54D23*G54D17*M02*
