G04 start of page 13 for group -3984 idx -3984 *
G04 Title: (unknown), fab *
G04 Creator: pcb 20140316 *
G04 CreationDate: Sat 22 Apr 2017 04:45:52 AM GMT UTC *
G04 For: vince *
G04 Format: Gerber/RS-274X *
G04 PCB-Dimensions (mil): 6900.00 3900.00 *
G04 PCB-Coordinate-Origin: lower left *
%MOIN*%
%FSLAX25Y25*%
%LNFAB*%
%ADD124C,0.0100*%
%ADD123C,0.0075*%
%ADD122C,0.0060*%
%ADD121C,0.0080*%
G54D121*X39476Y254465D02*Y248065D01*
Y254465D02*X45023Y257665D01*
X39476Y254465D02*X33930Y257665D01*
X37876Y254465D02*G75*G03X41076Y254465I1600J0D01*G01*
G75*G03X37876Y254465I-1600J0D01*G01*
X36276D02*G75*G03X42676Y254465I3200J0D01*G01*
G75*G03X36276Y254465I-3200J0D01*G01*
X34676D02*G75*G03X44276Y254465I4800J0D01*G01*
G75*G03X34676Y254465I-4800J0D01*G01*
X39476Y46465D02*Y40065D01*
Y46465D02*X45023Y49665D01*
X39476Y46465D02*X33930Y49665D01*
X37876Y46465D02*G75*G03X41076Y46465I1600J0D01*G01*
G75*G03X37876Y46465I-1600J0D01*G01*
X36276D02*G75*G03X42676Y46465I3200J0D01*G01*
G75*G03X36276Y46465I-3200J0D01*G01*
X34676D02*G75*G03X44276Y46465I4800J0D01*G01*
G75*G03X34676Y46465I-4800J0D01*G01*
X15000Y401250D02*Y394850D01*
Y401250D02*X20547Y404450D01*
X15000Y401250D02*X9453Y404450D01*
X13400Y401250D02*G75*G03X16600Y401250I1600J0D01*G01*
G75*G03X13400Y401250I-1600J0D01*G01*
X11800D02*G75*G03X18200Y401250I3200J0D01*G01*
G75*G03X11800Y401250I-3200J0D01*G01*
X10200D02*G75*G03X19800Y401250I4800J0D01*G01*
G75*G03X10200Y401250I-4800J0D01*G01*
G54D122*X140000Y403500D02*Y397500D01*
Y403500D02*X143750Y397500D01*
Y403500D02*Y397500D01*
X145550Y402750D02*Y398250D01*
Y402750D02*X146300Y403500D01*
X147800D01*
X148550Y402750D01*
Y398250D01*
X147800Y397500D02*X148550Y398250D01*
X146300Y397500D02*X147800D01*
X145550Y398250D02*X146300Y397500D01*
X98000Y402750D02*X98750Y403500D01*
X101000D01*
X101750Y402750D01*
Y401250D01*
X98000Y397500D02*X101750Y401250D01*
X98000Y397500D02*X101750D01*
X45000Y398250D02*X45750Y397500D01*
X45000Y402750D02*Y398250D01*
Y402750D02*X45750Y403500D01*
X47250D01*
X48000Y402750D01*
Y398250D01*
X47250Y397500D02*X48000Y398250D01*
X45750Y397500D02*X47250D01*
X45000Y399000D02*X48000Y402000D01*
X49800Y397500D02*X50550D01*
X52350Y402300D02*X53550Y403500D01*
Y397500D01*
X52350D02*X54600D01*
X56400Y402750D02*X57150Y403500D01*
X59400D01*
X60150Y402750D01*
Y401250D01*
X56400Y397500D02*X60150Y401250D01*
X56400Y397500D02*X60150D01*
X62700D02*X64950Y400500D01*
Y402750D02*Y400500D01*
X64200Y403500D02*X64950Y402750D01*
X62700Y403500D02*X64200D01*
X61950Y402750D02*X62700Y403500D01*
X61950Y402750D02*Y401250D01*
X62700Y400500D01*
X64950D01*
X343900Y321600D02*X347100D01*
X343900D02*Y318400D01*
X347100D01*
Y321600D02*Y318400D01*
X342300Y323200D02*X348700D01*
X342300D02*Y316800D01*
X348700D01*
Y323200D02*Y316800D01*
X340700Y324800D02*X350300D01*
X340700D02*Y315200D01*
X350300D01*
Y324800D02*Y315200D01*
X141900Y15600D02*X145100D01*
X141900D02*Y12400D01*
X145100D01*
Y15600D02*Y12400D01*
X140300Y17200D02*X146700D01*
X140300D02*Y10800D01*
X146700D01*
Y17200D02*Y10800D01*
X138700Y18800D02*X148300D01*
X138700D02*Y9200D01*
X148300D01*
Y18800D02*Y9200D01*
X544900Y15600D02*X548100D01*
X544900D02*Y12400D01*
X548100D01*
Y15600D02*Y12400D01*
X543300Y17200D02*X549700D01*
X543300D02*Y10800D01*
X549700D01*
Y17200D02*Y10800D01*
X541700Y18800D02*X551300D01*
X541700D02*Y9200D01*
X551300D01*
Y18800D02*Y9200D01*
X652400Y207100D02*X655600D01*
X652400D02*Y203900D01*
X655600D01*
Y207100D02*Y203900D01*
X650800Y208700D02*X657200D01*
X650800D02*Y202300D01*
X657200D01*
Y208700D02*Y202300D01*
X649200Y210300D02*X658800D01*
X649200D02*Y200700D01*
X658800D01*
Y210300D02*Y200700D01*
X34400Y207100D02*X37600D01*
X34400D02*Y203900D01*
X37600D01*
Y207100D02*Y203900D01*
X32800Y208700D02*X39200D01*
X32800D02*Y202300D01*
X39200D01*
Y208700D02*Y202300D01*
X31200Y210300D02*X40800D01*
X31200D02*Y200700D01*
X40800D01*
Y210300D02*Y200700D01*
X13400Y417850D02*X16600D01*
X13400D02*Y414650D01*
X16600D01*
Y417850D02*Y414650D01*
X11800Y419450D02*X18200D01*
X11800D02*Y413050D01*
X18200D01*
Y419450D02*Y413050D01*
X10200Y421050D02*X19800D01*
X10200D02*Y411450D01*
X19800D01*
Y421050D02*Y411450D01*
X140000Y418500D02*Y412500D01*
Y418500D02*X143750Y412500D01*
Y418500D02*Y412500D01*
X145550Y417750D02*Y413250D01*
Y417750D02*X146300Y418500D01*
X147800D01*
X148550Y417750D01*
Y413250D01*
X147800Y412500D02*X148550Y413250D01*
X146300Y412500D02*X147800D01*
X145550Y413250D02*X146300Y412500D01*
X98000Y418500D02*X101000D01*
X98000D02*Y415500D01*
X98750Y416250D01*
X100250D01*
X101000Y415500D01*
Y413250D01*
X100250Y412500D02*X101000Y413250D01*
X98750Y412500D02*X100250D01*
X98000Y413250D02*X98750Y412500D01*
X45000Y413250D02*X45750Y412500D01*
X45000Y417750D02*Y413250D01*
Y417750D02*X45750Y418500D01*
X47250D01*
X48000Y417750D01*
Y413250D01*
X47250Y412500D02*X48000Y413250D01*
X45750Y412500D02*X47250D01*
X45000Y414000D02*X48000Y417000D01*
X49800Y412500D02*X50550D01*
X52350Y417300D02*X53550Y418500D01*
Y412500D01*
X52350D02*X54600D01*
X56400Y417750D02*X57150Y418500D01*
X59400D01*
X60150Y417750D01*
Y416250D01*
X56400Y412500D02*X60150Y416250D01*
X56400Y412500D02*X60150D01*
X64200Y418500D02*X64950Y417750D01*
X62700Y418500D02*X64200D01*
X61950Y417750D02*X62700Y418500D01*
X61950Y417750D02*Y413250D01*
X62700Y412500D01*
X64200Y415800D02*X64950Y415050D01*
X61950Y415800D02*X64200D01*
X62700Y412500D02*X64200D01*
X64950Y413250D01*
Y415050D02*Y413250D01*
X595999Y115157D02*G75*G03X597599Y115157I800J0D01*G01*
G75*G03X595999Y115157I-800J0D01*G01*
X594399D02*G75*G03X599199Y115157I2400J0D01*G01*
G75*G03X594399Y115157I-2400J0D01*G01*
X592799D02*G75*G03X600799Y115157I4000J0D01*G01*
G75*G03X592799Y115157I-4000J0D01*G01*
X499543Y40354D02*G75*G03X501143Y40354I800J0D01*G01*
G75*G03X499543Y40354I-800J0D01*G01*
X497943D02*G75*G03X502743Y40354I2400J0D01*G01*
G75*G03X497943Y40354I-2400J0D01*G01*
X496343D02*G75*G03X504343Y40354I4000J0D01*G01*
G75*G03X496343Y40354I-4000J0D01*G01*
X14200Y431250D02*G75*G03X15800Y431250I800J0D01*G01*
G75*G03X14200Y431250I-800J0D01*G01*
X12600D02*G75*G03X17400Y431250I2400J0D01*G01*
G75*G03X12600Y431250I-2400J0D01*G01*
X11000D02*G75*G03X19000Y431250I4000J0D01*G01*
G75*G03X11000Y431250I-4000J0D01*G01*
X140000Y433500D02*Y427500D01*
Y433500D02*X143750Y427500D01*
Y433500D02*Y427500D01*
X145550Y432750D02*Y428250D01*
Y432750D02*X146300Y433500D01*
X147800D01*
X148550Y432750D01*
Y428250D01*
X147800Y427500D02*X148550Y428250D01*
X146300Y427500D02*X147800D01*
X145550Y428250D02*X146300Y427500D01*
X98000Y432750D02*X98750Y433500D01*
X101000D01*
X101750Y432750D01*
Y431250D01*
X98000Y427500D02*X101750Y431250D01*
X98000Y427500D02*X101750D01*
X45000Y428250D02*X45750Y427500D01*
X45000Y432750D02*Y428250D01*
Y432750D02*X45750Y433500D01*
X47250D01*
X48000Y432750D01*
Y428250D01*
X47250Y427500D02*X48000Y428250D01*
X45750Y427500D02*X47250D01*
X45000Y429000D02*X48000Y432000D01*
X49800Y427500D02*X50550D01*
X52350Y432300D02*X53550Y433500D01*
Y427500D01*
X52350D02*X54600D01*
X56400Y432300D02*X57600Y433500D01*
Y427500D01*
X56400D02*X58650D01*
X60450Y428250D02*X61200Y427500D01*
X60450Y429450D02*Y428250D01*
Y429450D02*X61500Y430500D01*
X62400D01*
X63450Y429450D01*
Y428250D01*
X62700Y427500D02*X63450Y428250D01*
X61200Y427500D02*X62700D01*
X60450Y431550D02*X61500Y430500D01*
X60450Y432750D02*Y431550D01*
Y432750D02*X61200Y433500D01*
X62700D01*
X63450Y432750D01*
Y431550D01*
X62400Y430500D02*X63450Y431550D01*
X449680Y72880D02*X456880Y65680D01*
X449680D02*X456880Y72880D01*
X451680Y70880D02*X454880D01*
X451680D02*Y67680D01*
X454880D01*
Y70880D02*Y67680D01*
X450080Y72480D02*X456480D01*
X450080D02*Y66080D01*
X456480D01*
Y72480D02*Y66080D01*
X449680Y301226D02*X456880Y294026D01*
X449680D02*X456880Y301226D01*
X451680Y299226D02*X454880D01*
X451680D02*Y296026D01*
X454880D01*
Y299226D02*Y296026D01*
X450080Y300826D02*X456480D01*
X450080D02*Y294426D01*
X456480D01*
Y300826D02*Y294426D01*
X642593Y72880D02*X649793Y65680D01*
X642593D02*X649793Y72880D01*
X644593Y70880D02*X647793D01*
X644593D02*Y67680D01*
X647793D01*
Y70880D02*Y67680D01*
X642993Y72480D02*X649393D01*
X642993D02*Y66080D01*
X649393D01*
Y72480D02*Y66080D01*
X642593Y301226D02*X649793Y294026D01*
X642593D02*X649793Y301226D01*
X644593Y299226D02*X647793D01*
X644593D02*Y296026D01*
X647793D01*
Y299226D02*Y296026D01*
X642993Y300826D02*X649393D01*
X642993D02*Y294426D01*
X649393D01*
Y300826D02*Y294426D01*
X11400Y449850D02*X18600Y442650D01*
X11400D02*X18600Y449850D01*
X13400Y447850D02*X16600D01*
X13400D02*Y444650D01*
X16600D01*
Y447850D02*Y444650D01*
X11800Y449450D02*X18200D01*
X11800D02*Y443050D01*
X18200D01*
Y449450D02*Y443050D01*
X140000Y448500D02*Y442500D01*
Y448500D02*X143750Y442500D01*
Y448500D02*Y442500D01*
X145550Y447750D02*Y443250D01*
Y447750D02*X146300Y448500D01*
X147800D01*
X148550Y447750D01*
Y443250D01*
X147800Y442500D02*X148550Y443250D01*
X146300Y442500D02*X147800D01*
X145550Y443250D02*X146300Y442500D01*
X98000Y444750D02*X101000Y448500D01*
X98000Y444750D02*X101750D01*
X101000Y448500D02*Y442500D01*
X45000Y443250D02*X45750Y442500D01*
X45000Y447750D02*Y443250D01*
Y447750D02*X45750Y448500D01*
X47250D01*
X48000Y447750D01*
Y443250D01*
X47250Y442500D02*X48000Y443250D01*
X45750Y442500D02*X47250D01*
X45000Y444000D02*X48000Y447000D01*
X49800Y442500D02*X50550D01*
X52350Y447300D02*X53550Y448500D01*
Y442500D01*
X52350D02*X54600D01*
X56400Y443250D02*X57150Y442500D01*
X56400Y447750D02*Y443250D01*
Y447750D02*X57150Y448500D01*
X58650D01*
X59400Y447750D01*
Y443250D01*
X58650Y442500D02*X59400Y443250D01*
X57150Y442500D02*X58650D01*
X56400Y444000D02*X59400Y447000D01*
X61200Y443250D02*X61950Y442500D01*
X61200Y444450D02*Y443250D01*
Y444450D02*X62250Y445500D01*
X63150D01*
X64200Y444450D01*
Y443250D01*
X63450Y442500D02*X64200Y443250D01*
X61950Y442500D02*X63450D01*
X61200Y446550D02*X62250Y445500D01*
X61200Y447750D02*Y446550D01*
Y447750D02*X61950Y448500D01*
X63450D01*
X64200Y447750D01*
Y446550D01*
X63150Y445500D02*X64200Y446550D01*
X206192Y361720D02*Y352120D01*
X201392Y356920D02*X210992D01*
X204592Y358520D02*X207792D01*
X204592D02*Y355320D01*
X207792D01*
Y358520D02*Y355320D01*
X202992Y360120D02*X209392D01*
X202992D02*Y353720D01*
X209392D01*
Y360120D02*Y353720D01*
X115192Y361720D02*Y352120D01*
X110392Y356920D02*X119992D01*
X113592Y358520D02*X116792D01*
X113592D02*Y355320D01*
X116792D01*
Y358520D02*Y355320D01*
X111992Y360120D02*X118392D01*
X111992D02*Y353720D01*
X118392D01*
Y360120D02*Y353720D01*
X15000Y466050D02*Y456450D01*
X10200Y461250D02*X19800D01*
X13400Y462850D02*X16600D01*
X13400D02*Y459650D01*
X16600D01*
Y462850D02*Y459650D01*
X11800Y464450D02*X18200D01*
X11800D02*Y458050D01*
X18200D01*
Y464450D02*Y458050D01*
X140000Y463500D02*Y457500D01*
Y463500D02*X143750Y457500D01*
Y463500D02*Y457500D01*
X145550Y462750D02*Y458250D01*
Y462750D02*X146300Y463500D01*
X147800D01*
X148550Y462750D01*
Y458250D01*
X147800Y457500D02*X148550Y458250D01*
X146300Y457500D02*X147800D01*
X145550Y458250D02*X146300Y457500D01*
X98000Y462750D02*X98750Y463500D01*
X101000D01*
X101750Y462750D01*
Y461250D01*
X98000Y457500D02*X101750Y461250D01*
X98000Y457500D02*X101750D01*
X45000Y458250D02*X45750Y457500D01*
X45000Y462750D02*Y458250D01*
Y462750D02*X45750Y463500D01*
X47250D01*
X48000Y462750D01*
Y458250D01*
X47250Y457500D02*X48000Y458250D01*
X45750Y457500D02*X47250D01*
X45000Y459000D02*X48000Y462000D01*
X49800Y457500D02*X50550D01*
X52350Y462300D02*X53550Y463500D01*
Y457500D01*
X52350D02*X54600D01*
X56400Y458250D02*X57150Y457500D01*
X56400Y462750D02*Y458250D01*
Y462750D02*X57150Y463500D01*
X58650D01*
X59400Y462750D01*
Y458250D01*
X58650Y457500D02*X59400Y458250D01*
X57150Y457500D02*X58650D01*
X56400Y459000D02*X59400Y462000D01*
X61200Y458250D02*X61950Y457500D01*
X61200Y462750D02*Y458250D01*
Y462750D02*X61950Y463500D01*
X63450D01*
X64200Y462750D01*
Y458250D01*
X63450Y457500D02*X64200Y458250D01*
X61950Y457500D02*X63450D01*
X61200Y459000D02*X64200Y462000D01*
X374758Y382600D02*X377958D01*
X374758D02*Y379400D01*
X377958D01*
Y382600D02*Y379400D01*
X373158Y384200D02*X379558D01*
X373158D02*Y377800D01*
X379558D01*
Y384200D02*Y377800D01*
X407042Y382600D02*X410242D01*
X407042D02*Y379400D01*
X410242D01*
Y382600D02*Y379400D01*
X405442Y384200D02*X411842D01*
X405442D02*Y377800D01*
X411842D01*
Y384200D02*Y377800D01*
X75931Y371800D02*Y367000D01*
Y371800D02*X80091Y374200D01*
X75931Y371800D02*X71771Y374200D01*
X74331Y371800D02*G75*G03X77531Y371800I1600J0D01*G01*
G75*G03X74331Y371800I-1600J0D01*G01*
X72731D02*G75*G03X79131Y371800I3200J0D01*G01*
G75*G03X72731Y371800I-3200J0D01*G01*
X95616Y352115D02*Y347315D01*
Y352115D02*X99776Y354515D01*
X95616Y352115D02*X91456Y354515D01*
X94016Y352115D02*G75*G03X97216Y352115I1600J0D01*G01*
G75*G03X94016Y352115I-1600J0D01*G01*
X92416D02*G75*G03X98816Y352115I3200J0D01*G01*
G75*G03X92416Y352115I-3200J0D01*G01*
X56246D02*Y347315D01*
Y352115D02*X60406Y354515D01*
X56246Y352115D02*X52086Y354515D01*
X54646Y352115D02*G75*G03X57846Y352115I1600J0D01*G01*
G75*G03X54646Y352115I-1600J0D01*G01*
X53046D02*G75*G03X59446Y352115I3200J0D01*G01*
G75*G03X53046Y352115I-3200J0D01*G01*
X85774D02*Y347315D01*
Y352115D02*X89934Y354515D01*
X85774Y352115D02*X81614Y354515D01*
X84174Y352115D02*G75*G03X87374Y352115I1600J0D01*G01*
G75*G03X84174Y352115I-1600J0D01*G01*
X82574D02*G75*G03X88974Y352115I3200J0D01*G01*
G75*G03X82574Y352115I-3200J0D01*G01*
X66089D02*Y347315D01*
Y352115D02*X70249Y354515D01*
X66089Y352115D02*X61929Y354515D01*
X64489Y352115D02*G75*G03X67689Y352115I1600J0D01*G01*
G75*G03X64489Y352115I-1600J0D01*G01*
X62889D02*G75*G03X69289Y352115I3200J0D01*G01*
G75*G03X62889Y352115I-3200J0D01*G01*
X15000Y476250D02*Y471450D01*
Y476250D02*X19160Y478650D01*
X15000Y476250D02*X10840Y478650D01*
X13400Y476250D02*G75*G03X16600Y476250I1600J0D01*G01*
G75*G03X13400Y476250I-1600J0D01*G01*
X11800D02*G75*G03X18200Y476250I3200J0D01*G01*
G75*G03X11800Y476250I-3200J0D01*G01*
X135000Y478500D02*X136500Y475500D01*
X138000Y478500D01*
X136500Y475500D02*Y472500D01*
X139800Y475800D02*X142050D01*
X139800Y472500D02*X142800D01*
X139800Y478500D02*Y472500D01*
Y478500D02*X142800D01*
X147600D02*X148350Y477750D01*
X145350Y478500D02*X147600D01*
X144600Y477750D02*X145350Y478500D01*
X144600Y477750D02*Y476250D01*
X145350Y475500D01*
X147600D01*
X148350Y474750D01*
Y473250D01*
X147600Y472500D02*X148350Y473250D01*
X145350Y472500D02*X147600D01*
X144600Y473250D02*X145350Y472500D01*
X98000Y478500D02*X101000D01*
X98000D02*Y475500D01*
X98750Y476250D01*
X100250D01*
X101000Y475500D01*
Y473250D01*
X100250Y472500D02*X101000Y473250D01*
X98750Y472500D02*X100250D01*
X98000Y473250D02*X98750Y472500D01*
X13400Y492850D02*X16600D01*
X13400D02*Y489650D01*
X16600D01*
Y492850D02*Y489650D01*
X11800Y494450D02*X18200D01*
X11800D02*Y488050D01*
X18200D01*
Y494450D02*Y488050D01*
X140000Y493500D02*Y487500D01*
Y493500D02*X143750Y487500D01*
Y493500D02*Y487500D01*
X145550Y492750D02*Y488250D01*
Y492750D02*X146300Y493500D01*
X147800D01*
X148550Y492750D01*
Y488250D01*
X147800Y487500D02*X148550Y488250D01*
X146300Y487500D02*X147800D01*
X145550Y488250D02*X146300Y487500D01*
X98000Y492750D02*X98750Y493500D01*
X101000D01*
X101750Y492750D01*
Y491250D01*
X98000Y487500D02*X101750Y491250D01*
X98000Y487500D02*X101750D01*
X45000Y488250D02*X45750Y487500D01*
X45000Y492750D02*Y488250D01*
Y492750D02*X45750Y493500D01*
X47250D01*
X48000Y492750D01*
Y488250D01*
X47250Y487500D02*X48000Y488250D01*
X45750Y487500D02*X47250D01*
X45000Y489000D02*X48000Y492000D01*
X49800Y487500D02*X50550D01*
X52350Y488250D02*X53100Y487500D01*
X52350Y492750D02*Y488250D01*
Y492750D02*X53100Y493500D01*
X54600D01*
X55350Y492750D01*
Y488250D01*
X54600Y487500D02*X55350Y488250D01*
X53100Y487500D02*X54600D01*
X52350Y489000D02*X55350Y492000D01*
X57150Y493500D02*X60150D01*
X57150D02*Y490500D01*
X57900Y491250D01*
X59400D01*
X60150Y490500D01*
Y488250D01*
X59400Y487500D02*X60150Y488250D01*
X57900Y487500D02*X59400D01*
X57150Y488250D02*X57900Y487500D01*
X62700D02*X64950Y490500D01*
Y492750D02*Y490500D01*
X64200Y493500D02*X64950Y492750D01*
X62700Y493500D02*X64200D01*
X61950Y492750D02*X62700Y493500D01*
X61950Y492750D02*Y491250D01*
X62700Y490500D01*
X64950D01*
X45000Y473250D02*X45750Y472500D01*
X45000Y477750D02*Y473250D01*
Y477750D02*X45750Y478500D01*
X47250D01*
X48000Y477750D01*
Y473250D01*
X47250Y472500D02*X48000Y473250D01*
X45750Y472500D02*X47250D01*
X45000Y474000D02*X48000Y477000D01*
X49800Y472500D02*X50550D01*
X52350Y473250D02*X53100Y472500D01*
X52350Y477750D02*Y473250D01*
Y477750D02*X53100Y478500D01*
X54600D01*
X55350Y477750D01*
Y473250D01*
X54600Y472500D02*X55350Y473250D01*
X53100Y472500D02*X54600D01*
X52350Y474000D02*X55350Y477000D01*
X57150Y478500D02*X60150D01*
X57150D02*Y475500D01*
X57900Y476250D01*
X59400D01*
X60150Y475500D01*
Y473250D01*
X59400Y472500D02*X60150Y473250D01*
X57900Y472500D02*X59400D01*
X57150Y473250D02*X57900Y472500D01*
X62700D02*X64950Y475500D01*
Y477750D02*Y475500D01*
X64200Y478500D02*X64950Y477750D01*
X62700Y478500D02*X64200D01*
X61950Y477750D02*X62700Y478500D01*
X61950Y477750D02*Y476250D01*
X62700Y475500D01*
X64950D01*
X75131Y352115D02*G75*G03X76731Y352115I800J0D01*G01*
G75*G03X75131Y352115I-800J0D01*G01*
X73531D02*G75*G03X78331Y352115I2400J0D01*G01*
G75*G03X73531Y352115I-2400J0D01*G01*
X55446Y381643D02*G75*G03X57046Y381643I800J0D01*G01*
G75*G03X55446Y381643I-800J0D01*G01*
X53846D02*G75*G03X58646Y381643I2400J0D01*G01*
G75*G03X53846Y381643I-2400J0D01*G01*
X55446Y371800D02*G75*G03X57046Y371800I800J0D01*G01*
G75*G03X55446Y371800I-800J0D01*G01*
X53846D02*G75*G03X58646Y371800I2400J0D01*G01*
G75*G03X53846Y371800I-2400J0D01*G01*
X94816Y381643D02*G75*G03X96416Y381643I800J0D01*G01*
G75*G03X94816Y381643I-800J0D01*G01*
X93216D02*G75*G03X98016Y381643I2400J0D01*G01*
G75*G03X93216Y381643I-2400J0D01*G01*
X94816Y371800D02*G75*G03X96416Y371800I800J0D01*G01*
G75*G03X94816Y371800I-800J0D01*G01*
X93216D02*G75*G03X98016Y371800I2400J0D01*G01*
G75*G03X93216Y371800I-2400J0D01*G01*
X14200Y506250D02*G75*G03X15800Y506250I800J0D01*G01*
G75*G03X14200Y506250I-800J0D01*G01*
X12600D02*G75*G03X17400Y506250I2400J0D01*G01*
G75*G03X12600Y506250I-2400J0D01*G01*
X140000Y508500D02*Y502500D01*
Y508500D02*X143750Y502500D01*
Y508500D02*Y502500D01*
X145550Y507750D02*Y503250D01*
Y507750D02*X146300Y508500D01*
X147800D01*
X148550Y507750D01*
Y503250D01*
X147800Y502500D02*X148550Y503250D01*
X146300Y502500D02*X147800D01*
X145550Y503250D02*X146300Y502500D01*
X98000Y508500D02*X101000D01*
X98000D02*Y505500D01*
X98750Y506250D01*
X100250D01*
X101000Y505500D01*
Y503250D01*
X100250Y502500D02*X101000Y503250D01*
X98750Y502500D02*X100250D01*
X98000Y503250D02*X98750Y502500D01*
X45000Y503250D02*X45750Y502500D01*
X45000Y507750D02*Y503250D01*
Y507750D02*X45750Y508500D01*
X47250D01*
X48000Y507750D01*
Y503250D01*
X47250Y502500D02*X48000Y503250D01*
X45750Y502500D02*X47250D01*
X45000Y504000D02*X48000Y507000D01*
X49800Y502500D02*X50550D01*
X52350Y503250D02*X53100Y502500D01*
X52350Y507750D02*Y503250D01*
Y507750D02*X53100Y508500D01*
X54600D01*
X55350Y507750D01*
Y503250D01*
X54600Y502500D02*X55350Y503250D01*
X53100Y502500D02*X54600D01*
X52350Y504000D02*X55350Y507000D01*
X57150Y504750D02*X60150Y508500D01*
X57150Y504750D02*X60900D01*
X60150Y508500D02*Y502500D01*
X63450D02*X66450Y508500D01*
X62700D02*X66450D01*
X333100Y352900D02*X337900Y348100D01*
X333100D02*X337900Y352900D01*
X333900Y352100D02*X337100D01*
X333900D02*Y348900D01*
X337100D01*
Y352100D02*Y348900D01*
X343100Y352900D02*X347900Y348100D01*
X343100D02*X347900Y352900D01*
X343900Y352100D02*X347100D01*
X343900D02*Y348900D01*
X347100D01*
Y352100D02*Y348900D01*
X353100Y352900D02*X357900Y348100D01*
X353100D02*X357900Y352900D01*
X353900Y352100D02*X357100D01*
X353900D02*Y348900D01*
X357100D01*
Y352100D02*Y348900D01*
X12600Y523650D02*X17400Y518850D01*
X12600D02*X17400Y523650D01*
X13400Y522850D02*X16600D01*
X13400D02*Y519650D01*
X16600D01*
Y522850D02*Y519650D01*
X135000Y523500D02*X136500Y520500D01*
X138000Y523500D01*
X136500Y520500D02*Y517500D01*
X139800Y520800D02*X142050D01*
X139800Y517500D02*X142800D01*
X139800Y523500D02*Y517500D01*
Y523500D02*X142800D01*
X147600D02*X148350Y522750D01*
X145350Y523500D02*X147600D01*
X144600Y522750D02*X145350Y523500D01*
X144600Y522750D02*Y521250D01*
X145350Y520500D01*
X147600D01*
X148350Y519750D01*
Y518250D01*
X147600Y517500D02*X148350Y518250D01*
X145350Y517500D02*X147600D01*
X144600Y518250D02*X145350Y517500D01*
X98000Y522750D02*X98750Y523500D01*
X100250D01*
X101000Y522750D01*
X100250Y517500D02*X101000Y518250D01*
X98750Y517500D02*X100250D01*
X98000Y518250D02*X98750Y517500D01*
Y520800D02*X100250D01*
X101000Y522750D02*Y521550D01*
Y520050D02*Y518250D01*
Y520050D02*X100250Y520800D01*
X101000Y521550D02*X100250Y520800D01*
X45000Y518250D02*X45750Y517500D01*
X45000Y522750D02*Y518250D01*
Y522750D02*X45750Y523500D01*
X47250D01*
X48000Y522750D01*
Y518250D01*
X47250Y517500D02*X48000Y518250D01*
X45750Y517500D02*X47250D01*
X45000Y519000D02*X48000Y522000D01*
X49800Y517500D02*X50550D01*
X52350Y518250D02*X53100Y517500D01*
X52350Y522750D02*Y518250D01*
Y522750D02*X53100Y523500D01*
X54600D01*
X55350Y522750D01*
Y518250D01*
X54600Y517500D02*X55350Y518250D01*
X53100Y517500D02*X54600D01*
X52350Y519000D02*X55350Y522000D01*
X57150Y519750D02*X60150Y523500D01*
X57150Y519750D02*X60900D01*
X60150Y523500D02*Y517500D01*
X62700Y522750D02*X63450Y523500D01*
X65700D01*
X66450Y522750D01*
Y521250D01*
X62700Y517500D02*X66450Y521250D01*
X62700Y517500D02*X66450D01*
X458280Y91653D02*Y85253D01*
X455080Y88453D02*X461480D01*
X456680Y90053D02*X459880D01*
X456680D02*Y86853D01*
X459880D01*
Y90053D02*Y86853D01*
X448280Y91653D02*Y85253D01*
X445080Y88453D02*X451480D01*
X446680Y90053D02*X449880D01*
X446680D02*Y86853D01*
X449880D01*
Y90053D02*Y86853D01*
X458280Y101653D02*Y95253D01*
X455080Y98453D02*X461480D01*
X456680Y100053D02*X459880D01*
X456680D02*Y96853D01*
X459880D01*
Y100053D02*Y96853D01*
X448280Y101653D02*Y95253D01*
X445080Y98453D02*X451480D01*
X446680Y100053D02*X449880D01*
X446680D02*Y96853D01*
X449880D01*
Y100053D02*Y96853D01*
X458280Y111653D02*Y105253D01*
X455080Y108453D02*X461480D01*
X456680Y110053D02*X459880D01*
X456680D02*Y106853D01*
X459880D01*
Y110053D02*Y106853D01*
X448280Y111653D02*Y105253D01*
X445080Y108453D02*X451480D01*
X446680Y110053D02*X449880D01*
X446680D02*Y106853D01*
X449880D01*
Y110053D02*Y106853D01*
X458280Y121653D02*Y115253D01*
X455080Y118453D02*X461480D01*
X456680Y120053D02*X459880D01*
X456680D02*Y116853D01*
X459880D01*
Y120053D02*Y116853D01*
X448280Y121653D02*Y115253D01*
X445080Y118453D02*X451480D01*
X446680Y120053D02*X449880D01*
X446680D02*Y116853D01*
X449880D01*
Y120053D02*Y116853D01*
X458280Y131653D02*Y125253D01*
X455080Y128453D02*X461480D01*
X456680Y130053D02*X459880D01*
X456680D02*Y126853D01*
X459880D01*
Y130053D02*Y126853D01*
X448280Y131653D02*Y125253D01*
X445080Y128453D02*X451480D01*
X446680Y130053D02*X449880D01*
X446680D02*Y126853D01*
X449880D01*
Y130053D02*Y126853D01*
X458280Y141653D02*Y135253D01*
X455080Y138453D02*X461480D01*
X456680Y140053D02*X459880D01*
X456680D02*Y136853D01*
X459880D01*
Y140053D02*Y136853D01*
X448280Y141653D02*Y135253D01*
X445080Y138453D02*X451480D01*
X446680Y140053D02*X449880D01*
X446680D02*Y136853D01*
X449880D01*
Y140053D02*Y136853D01*
X458280Y151653D02*Y145253D01*
X455080Y148453D02*X461480D01*
X456680Y150053D02*X459880D01*
X456680D02*Y146853D01*
X459880D01*
Y150053D02*Y146853D01*
X448280Y151653D02*Y145253D01*
X445080Y148453D02*X451480D01*
X446680Y150053D02*X449880D01*
X446680D02*Y146853D01*
X449880D01*
Y150053D02*Y146853D01*
X458280Y161653D02*Y155253D01*
X455080Y158453D02*X461480D01*
X456680Y160053D02*X459880D01*
X456680D02*Y156853D01*
X459880D01*
Y160053D02*Y156853D01*
X448280Y161653D02*Y155253D01*
X445080Y158453D02*X451480D01*
X446680Y160053D02*X449880D01*
X446680D02*Y156853D01*
X449880D01*
Y160053D02*Y156853D01*
X458280Y171653D02*Y165253D01*
X455080Y168453D02*X461480D01*
X456680Y170053D02*X459880D01*
X456680D02*Y166853D01*
X459880D01*
Y170053D02*Y166853D01*
X448280Y171653D02*Y165253D01*
X445080Y168453D02*X451480D01*
X446680Y170053D02*X449880D01*
X446680D02*Y166853D01*
X449880D01*
Y170053D02*Y166853D01*
X458280Y181653D02*Y175253D01*
X455080Y178453D02*X461480D01*
X456680Y180053D02*X459880D01*
X456680D02*Y176853D01*
X459880D01*
Y180053D02*Y176853D01*
X448280Y181653D02*Y175253D01*
X445080Y178453D02*X451480D01*
X446680Y180053D02*X449880D01*
X446680D02*Y176853D01*
X449880D01*
Y180053D02*Y176853D01*
X458280Y191653D02*Y185253D01*
X455080Y188453D02*X461480D01*
X456680Y190053D02*X459880D01*
X456680D02*Y186853D01*
X459880D01*
Y190053D02*Y186853D01*
X448280Y191653D02*Y185253D01*
X445080Y188453D02*X451480D01*
X446680Y190053D02*X449880D01*
X446680D02*Y186853D01*
X449880D01*
Y190053D02*Y186853D01*
X458280Y201653D02*Y195253D01*
X455080Y198453D02*X461480D01*
X456680Y200053D02*X459880D01*
X456680D02*Y196853D01*
X459880D01*
Y200053D02*Y196853D01*
X448280Y201653D02*Y195253D01*
X445080Y198453D02*X451480D01*
X446680Y200053D02*X449880D01*
X446680D02*Y196853D01*
X449880D01*
Y200053D02*Y196853D01*
X458280Y211653D02*Y205253D01*
X455080Y208453D02*X461480D01*
X456680Y210053D02*X459880D01*
X456680D02*Y206853D01*
X459880D01*
Y210053D02*Y206853D01*
X448280Y211653D02*Y205253D01*
X445080Y208453D02*X451480D01*
X446680Y210053D02*X449880D01*
X446680D02*Y206853D01*
X449880D01*
Y210053D02*Y206853D01*
X458280Y221653D02*Y215253D01*
X455080Y218453D02*X461480D01*
X456680Y220053D02*X459880D01*
X456680D02*Y216853D01*
X459880D01*
Y220053D02*Y216853D01*
X448280Y221653D02*Y215253D01*
X445080Y218453D02*X451480D01*
X446680Y220053D02*X449880D01*
X446680D02*Y216853D01*
X449880D01*
Y220053D02*Y216853D01*
X458280Y231653D02*Y225253D01*
X455080Y228453D02*X461480D01*
X456680Y230053D02*X459880D01*
X456680D02*Y226853D01*
X459880D01*
Y230053D02*Y226853D01*
X448280Y231653D02*Y225253D01*
X445080Y228453D02*X451480D01*
X446680Y230053D02*X449880D01*
X446680D02*Y226853D01*
X449880D01*
Y230053D02*Y226853D01*
X458280Y241653D02*Y235253D01*
X455080Y238453D02*X461480D01*
X456680Y240053D02*X459880D01*
X456680D02*Y236853D01*
X459880D01*
Y240053D02*Y236853D01*
X448280Y241653D02*Y235253D01*
X445080Y238453D02*X451480D01*
X446680Y240053D02*X449880D01*
X446680D02*Y236853D01*
X449880D01*
Y240053D02*Y236853D01*
X458280Y251653D02*Y245253D01*
X455080Y248453D02*X461480D01*
X456680Y250053D02*X459880D01*
X456680D02*Y246853D01*
X459880D01*
Y250053D02*Y246853D01*
X448280Y251653D02*Y245253D01*
X445080Y248453D02*X451480D01*
X446680Y250053D02*X449880D01*
X446680D02*Y246853D01*
X449880D01*
Y250053D02*Y246853D01*
X458280Y261653D02*Y255253D01*
X455080Y258453D02*X461480D01*
X456680Y260053D02*X459880D01*
X456680D02*Y256853D01*
X459880D01*
Y260053D02*Y256853D01*
X448280Y261653D02*Y255253D01*
X445080Y258453D02*X451480D01*
X446680Y260053D02*X449880D01*
X446680D02*Y256853D01*
X449880D01*
Y260053D02*Y256853D01*
X458280Y271653D02*Y265253D01*
X455080Y268453D02*X461480D01*
X456680Y270053D02*X459880D01*
X456680D02*Y266853D01*
X459880D01*
Y270053D02*Y266853D01*
X448280Y271653D02*Y265253D01*
X445080Y268453D02*X451480D01*
X446680Y270053D02*X449880D01*
X446680D02*Y266853D01*
X449880D01*
Y270053D02*Y266853D01*
X458280Y281653D02*Y275253D01*
X455080Y278453D02*X461480D01*
X456680Y280053D02*X459880D01*
X456680D02*Y276853D01*
X459880D01*
Y280053D02*Y276853D01*
X448280Y281653D02*Y275253D01*
X445080Y278453D02*X451480D01*
X446680Y280053D02*X449880D01*
X446680D02*Y276853D01*
X449880D01*
Y280053D02*Y276853D01*
X540500Y141700D02*Y135300D01*
X537300Y138500D02*X543700D01*
X538900Y140100D02*X542100D01*
X538900D02*Y136900D01*
X542100D01*
Y140100D02*Y136900D01*
X550500Y141700D02*Y135300D01*
X547300Y138500D02*X553700D01*
X548900Y140100D02*X552100D01*
X548900D02*Y136900D01*
X552100D01*
Y140100D02*Y136900D01*
X498374Y120200D02*Y113800D01*
X495174Y117000D02*X501574D01*
X496774Y118600D02*X499974D01*
X496774D02*Y115400D01*
X499974D01*
Y118600D02*Y115400D01*
X498374Y110200D02*Y103800D01*
X495174Y107000D02*X501574D01*
X496774Y108600D02*X499974D01*
X496774D02*Y105400D01*
X499974D01*
Y108600D02*Y105400D01*
X498374Y100200D02*Y93800D01*
X495174Y97000D02*X501574D01*
X496774Y98600D02*X499974D01*
X496774D02*Y95400D01*
X499974D01*
Y98600D02*Y95400D01*
X498374Y90200D02*Y83800D01*
X495174Y87000D02*X501574D01*
X496774Y88600D02*X499974D01*
X496774D02*Y85400D01*
X499974D01*
Y88600D02*Y85400D01*
X498374Y80200D02*Y73800D01*
X495174Y77000D02*X501574D01*
X496774Y78600D02*X499974D01*
X496774D02*Y75400D01*
X499974D01*
Y78600D02*Y75400D01*
X415000Y233200D02*Y226800D01*
X411800Y230000D02*X418200D01*
X413400Y231600D02*X416600D01*
X413400D02*Y228400D01*
X416600D01*
Y231600D02*Y228400D01*
X415000Y243200D02*Y236800D01*
X411800Y240000D02*X418200D01*
X413400Y241600D02*X416600D01*
X413400D02*Y238400D01*
X416600D01*
Y241600D02*Y238400D01*
X415000Y253200D02*Y246800D01*
X411800Y250000D02*X418200D01*
X413400Y251600D02*X416600D01*
X413400D02*Y248400D01*
X416600D01*
Y251600D02*Y248400D01*
X415000Y263200D02*Y256800D01*
X411800Y260000D02*X418200D01*
X413400Y261600D02*X416600D01*
X413400D02*Y258400D01*
X416600D01*
Y261600D02*Y258400D01*
X289000Y348700D02*Y342300D01*
X285800Y345500D02*X292200D01*
X287400Y347100D02*X290600D01*
X287400D02*Y343900D01*
X290600D01*
Y347100D02*Y343900D01*
X279000Y348700D02*Y342300D01*
X275800Y345500D02*X282200D01*
X277400Y347100D02*X280600D01*
X277400D02*Y343900D01*
X280600D01*
Y347100D02*Y343900D01*
X269000Y348700D02*Y342300D01*
X265800Y345500D02*X272200D01*
X267400Y347100D02*X270600D01*
X267400D02*Y343900D01*
X270600D01*
Y347100D02*Y343900D01*
X259000Y348700D02*Y342300D01*
X255800Y345500D02*X262200D01*
X257400Y347100D02*X260600D01*
X257400D02*Y343900D01*
X260600D01*
Y347100D02*Y343900D01*
X34476Y73665D02*Y67265D01*
X31276Y70465D02*X37676D01*
X32876Y72065D02*X36076D01*
X32876D02*Y68865D01*
X36076D01*
Y72065D02*Y68865D01*
X44476Y73665D02*Y67265D01*
X41276Y70465D02*X47676D01*
X42876Y72065D02*X46076D01*
X42876D02*Y68865D01*
X46076D01*
Y72065D02*Y68865D01*
X34476Y233665D02*Y227265D01*
X31276Y230465D02*X37676D01*
X32876Y232065D02*X36076D01*
X32876D02*Y228865D01*
X36076D01*
Y232065D02*Y228865D01*
X44476Y233665D02*Y227265D01*
X41276Y230465D02*X47676D01*
X42876Y232065D02*X46076D01*
X42876D02*Y228865D01*
X46076D01*
Y232065D02*Y228865D01*
X200692Y284620D02*Y278220D01*
X197492Y281420D02*X203892D01*
X199092Y283020D02*X202292D01*
X199092D02*Y279820D01*
X202292D01*
Y283020D02*Y279820D01*
X190692Y284620D02*Y278220D01*
X187492Y281420D02*X193892D01*
X189092Y283020D02*X192292D01*
X189092D02*Y279820D01*
X192292D01*
Y283020D02*Y279820D01*
X180692Y284620D02*Y278220D01*
X177492Y281420D02*X183892D01*
X179092Y283020D02*X182292D01*
X179092D02*Y279820D01*
X182292D01*
Y283020D02*Y279820D01*
X170692Y284620D02*Y278220D01*
X167492Y281420D02*X173892D01*
X169092Y283020D02*X172292D01*
X169092D02*Y279820D01*
X172292D01*
Y283020D02*Y279820D01*
X160692Y284620D02*Y278220D01*
X157492Y281420D02*X163892D01*
X159092Y283020D02*X162292D01*
X159092D02*Y279820D01*
X162292D01*
Y283020D02*Y279820D01*
X150692Y284620D02*Y278220D01*
X147492Y281420D02*X153892D01*
X149092Y283020D02*X152292D01*
X149092D02*Y279820D01*
X152292D01*
Y283020D02*Y279820D01*
X140692Y284620D02*Y278220D01*
X137492Y281420D02*X143892D01*
X139092Y283020D02*X142292D01*
X139092D02*Y279820D01*
X142292D01*
Y283020D02*Y279820D01*
X130692Y284620D02*Y278220D01*
X127492Y281420D02*X133892D01*
X129092Y283020D02*X132292D01*
X129092D02*Y279820D01*
X132292D01*
Y283020D02*Y279820D01*
X120692Y284620D02*Y278220D01*
X117492Y281420D02*X123892D01*
X119092Y283020D02*X122292D01*
X119092D02*Y279820D01*
X122292D01*
Y283020D02*Y279820D01*
X181440Y353360D02*Y346960D01*
X178240Y350160D02*X184640D01*
X179840Y351760D02*X183040D01*
X179840D02*Y348560D01*
X183040D01*
Y351760D02*Y348560D01*
X167661Y353360D02*Y346960D01*
X164461Y350160D02*X170861D01*
X166061Y351760D02*X169261D01*
X166061D02*Y348560D01*
X169261D01*
Y351760D02*Y348560D01*
X150731Y353360D02*Y346960D01*
X147531Y350160D02*X153931D01*
X149131Y351760D02*X152331D01*
X149131D02*Y348560D01*
X152331D01*
Y351760D02*Y348560D01*
X136952Y353360D02*Y346960D01*
X133752Y350160D02*X140152D01*
X135352Y351760D02*X138552D01*
X135352D02*Y348560D01*
X138552D01*
Y351760D02*Y348560D01*
X15000Y539450D02*Y533050D01*
X11800Y536250D02*X18200D01*
X13400Y537850D02*X16600D01*
X13400D02*Y534650D01*
X16600D01*
Y537850D02*Y534650D01*
X135000Y538500D02*X136500Y535500D01*
X138000Y538500D01*
X136500Y535500D02*Y532500D01*
X139800Y535800D02*X142050D01*
X139800Y532500D02*X142800D01*
X139800Y538500D02*Y532500D01*
Y538500D02*X142800D01*
X147600D02*X148350Y537750D01*
X145350Y538500D02*X147600D01*
X144600Y537750D02*X145350Y538500D01*
X144600Y537750D02*Y536250D01*
X145350Y535500D01*
X147600D01*
X148350Y534750D01*
Y533250D01*
X147600Y532500D02*X148350Y533250D01*
X145350Y532500D02*X147600D01*
X144600Y533250D02*X145350Y532500D01*
X98750D02*X101750Y538500D01*
X98000D02*X101750D01*
X103550Y537750D02*X104300Y538500D01*
X106550D01*
X107300Y537750D01*
Y536250D01*
X103550Y532500D02*X107300Y536250D01*
X103550Y532500D02*X107300D01*
X45000Y533250D02*X45750Y532500D01*
X45000Y537750D02*Y533250D01*
Y537750D02*X45750Y538500D01*
X47250D01*
X48000Y537750D01*
Y533250D01*
X47250Y532500D02*X48000Y533250D01*
X45750Y532500D02*X47250D01*
X45000Y534000D02*X48000Y537000D01*
X49800Y532500D02*X50550D01*
X52350Y533250D02*X53100Y532500D01*
X52350Y537750D02*Y533250D01*
Y537750D02*X53100Y538500D01*
X54600D01*
X55350Y537750D01*
Y533250D01*
X54600Y532500D02*X55350Y533250D01*
X53100Y532500D02*X54600D01*
X52350Y534000D02*X55350Y537000D01*
X57150Y537750D02*X57900Y538500D01*
X59400D01*
X60150Y537750D01*
X59400Y532500D02*X60150Y533250D01*
X57900Y532500D02*X59400D01*
X57150Y533250D02*X57900Y532500D01*
Y535800D02*X59400D01*
X60150Y537750D02*Y536550D01*
Y535050D02*Y533250D01*
Y535050D02*X59400Y535800D01*
X60150Y536550D02*X59400Y535800D01*
X61950Y533250D02*X62700Y532500D01*
X61950Y534450D02*Y533250D01*
Y534450D02*X63000Y535500D01*
X63900D01*
X64950Y534450D01*
Y533250D01*
X64200Y532500D02*X64950Y533250D01*
X62700Y532500D02*X64200D01*
X61950Y536550D02*X63000Y535500D01*
X61950Y537750D02*Y536550D01*
Y537750D02*X62700Y538500D01*
X64200D01*
X64950Y537750D01*
Y536550D01*
X63900Y535500D02*X64950Y536550D01*
X415455Y196000D02*Y192800D01*
Y196000D02*X418228Y197600D01*
X415455Y196000D02*X412682Y197600D01*
X413855Y196000D02*G75*G03X417055Y196000I1600J0D01*G01*
G75*G03X413855Y196000I-1600J0D01*G01*
X415455Y186000D02*Y182800D01*
Y186000D02*X418228Y187600D01*
X415455Y186000D02*X412682Y187600D01*
X413855Y186000D02*G75*G03X417055Y186000I1600J0D01*G01*
G75*G03X413855Y186000I-1600J0D01*G01*
X415455Y176000D02*Y172800D01*
Y176000D02*X418228Y177600D01*
X415455Y176000D02*X412682Y177600D01*
X413855Y176000D02*G75*G03X417055Y176000I1600J0D01*G01*
G75*G03X413855Y176000I-1600J0D01*G01*
X415455Y166000D02*Y162800D01*
Y166000D02*X418228Y167600D01*
X415455Y166000D02*X412682Y167600D01*
X413855Y166000D02*G75*G03X417055Y166000I1600J0D01*G01*
G75*G03X413855Y166000I-1600J0D01*G01*
X415455Y156000D02*Y152800D01*
Y156000D02*X418228Y157600D01*
X415455Y156000D02*X412682Y157600D01*
X413855Y156000D02*G75*G03X417055Y156000I1600J0D01*G01*
G75*G03X413855Y156000I-1600J0D01*G01*
X415455Y146000D02*Y142800D01*
Y146000D02*X418228Y147600D01*
X415455Y146000D02*X412682Y147600D01*
X413855Y146000D02*G75*G03X417055Y146000I1600J0D01*G01*
G75*G03X413855Y146000I-1600J0D01*G01*
X415455Y136000D02*Y132800D01*
Y136000D02*X418228Y137600D01*
X415455Y136000D02*X412682Y137600D01*
X413855Y136000D02*G75*G03X417055Y136000I1600J0D01*G01*
G75*G03X413855Y136000I-1600J0D01*G01*
X385455D02*Y132800D01*
Y136000D02*X388228Y137600D01*
X385455Y136000D02*X382682Y137600D01*
X383855Y136000D02*G75*G03X387055Y136000I1600J0D01*G01*
G75*G03X383855Y136000I-1600J0D01*G01*
X385455Y146000D02*Y142800D01*
Y146000D02*X388228Y147600D01*
X385455Y146000D02*X382682Y147600D01*
X383855Y146000D02*G75*G03X387055Y146000I1600J0D01*G01*
G75*G03X383855Y146000I-1600J0D01*G01*
X385455Y156000D02*Y152800D01*
Y156000D02*X388228Y157600D01*
X385455Y156000D02*X382682Y157600D01*
X383855Y156000D02*G75*G03X387055Y156000I1600J0D01*G01*
G75*G03X383855Y156000I-1600J0D01*G01*
X385455Y166000D02*Y162800D01*
Y166000D02*X388228Y167600D01*
X385455Y166000D02*X382682Y167600D01*
X383855Y166000D02*G75*G03X387055Y166000I1600J0D01*G01*
G75*G03X383855Y166000I-1600J0D01*G01*
X385455Y176000D02*Y172800D01*
Y176000D02*X388228Y177600D01*
X385455Y176000D02*X382682Y177600D01*
X383855Y176000D02*G75*G03X387055Y176000I1600J0D01*G01*
G75*G03X383855Y176000I-1600J0D01*G01*
X385455Y186000D02*Y182800D01*
Y186000D02*X388228Y187600D01*
X385455Y186000D02*X382682Y187600D01*
X383855Y186000D02*G75*G03X387055Y186000I1600J0D01*G01*
G75*G03X383855Y186000I-1600J0D01*G01*
X385455Y196000D02*Y192800D01*
Y196000D02*X388228Y197600D01*
X385455Y196000D02*X382682Y197600D01*
X383855Y196000D02*G75*G03X387055Y196000I1600J0D01*G01*
G75*G03X383855Y196000I-1600J0D01*G01*
X415000Y94500D02*Y91300D01*
Y94500D02*X417773Y96100D01*
X415000Y94500D02*X412227Y96100D01*
X413400Y94500D02*G75*G03X416600Y94500I1600J0D01*G01*
G75*G03X413400Y94500I-1600J0D01*G01*
X415000Y84500D02*Y81300D01*
Y84500D02*X417773Y86100D01*
X415000Y84500D02*X412227Y86100D01*
X413400Y84500D02*G75*G03X416600Y84500I1600J0D01*G01*
G75*G03X413400Y84500I-1600J0D01*G01*
X415000Y74500D02*Y71300D01*
Y74500D02*X417773Y76100D01*
X415000Y74500D02*X412227Y76100D01*
X413400Y74500D02*G75*G03X416600Y74500I1600J0D01*G01*
G75*G03X413400Y74500I-1600J0D01*G01*
X415000Y64500D02*Y61300D01*
Y64500D02*X417773Y66100D01*
X415000Y64500D02*X412227Y66100D01*
X413400Y64500D02*G75*G03X416600Y64500I1600J0D01*G01*
G75*G03X413400Y64500I-1600J0D01*G01*
X415000Y54500D02*Y51300D01*
Y54500D02*X417773Y56100D01*
X415000Y54500D02*X412227Y56100D01*
X413400Y54500D02*G75*G03X416600Y54500I1600J0D01*G01*
G75*G03X413400Y54500I-1600J0D01*G01*
X415000Y44500D02*Y41300D01*
Y44500D02*X417773Y46100D01*
X415000Y44500D02*X412227Y46100D01*
X413400Y44500D02*G75*G03X416600Y44500I1600J0D01*G01*
G75*G03X413400Y44500I-1600J0D01*G01*
X415000Y34500D02*Y31300D01*
Y34500D02*X417773Y36100D01*
X415000Y34500D02*X412227Y36100D01*
X413400Y34500D02*G75*G03X416600Y34500I1600J0D01*G01*
G75*G03X413400Y34500I-1600J0D01*G01*
X385000D02*Y31300D01*
Y34500D02*X387773Y36100D01*
X385000Y34500D02*X382227Y36100D01*
X383400Y34500D02*G75*G03X386600Y34500I1600J0D01*G01*
G75*G03X383400Y34500I-1600J0D01*G01*
X385000Y44500D02*Y41300D01*
Y44500D02*X387773Y46100D01*
X385000Y44500D02*X382227Y46100D01*
X383400Y44500D02*G75*G03X386600Y44500I1600J0D01*G01*
G75*G03X383400Y44500I-1600J0D01*G01*
X385000Y54500D02*Y51300D01*
Y54500D02*X387773Y56100D01*
X385000Y54500D02*X382227Y56100D01*
X383400Y54500D02*G75*G03X386600Y54500I1600J0D01*G01*
G75*G03X383400Y54500I-1600J0D01*G01*
X385000Y64500D02*Y61300D01*
Y64500D02*X387773Y66100D01*
X385000Y64500D02*X382227Y66100D01*
X383400Y64500D02*G75*G03X386600Y64500I1600J0D01*G01*
G75*G03X383400Y64500I-1600J0D01*G01*
X385000Y74500D02*Y71300D01*
Y74500D02*X387773Y76100D01*
X385000Y74500D02*X382227Y76100D01*
X383400Y74500D02*G75*G03X386600Y74500I1600J0D01*G01*
G75*G03X383400Y74500I-1600J0D01*G01*
X385000Y84500D02*Y81300D01*
Y84500D02*X387773Y86100D01*
X385000Y84500D02*X382227Y86100D01*
X383400Y84500D02*G75*G03X386600Y84500I1600J0D01*G01*
G75*G03X383400Y84500I-1600J0D01*G01*
X385000Y94500D02*Y91300D01*
Y94500D02*X387773Y96100D01*
X385000Y94500D02*X382227Y96100D01*
X383400Y94500D02*G75*G03X386600Y94500I1600J0D01*G01*
G75*G03X383400Y94500I-1600J0D01*G01*
X409000Y343000D02*Y339800D01*
Y343000D02*X411773Y344600D01*
X409000Y343000D02*X406227Y344600D01*
X407400Y343000D02*G75*G03X410600Y343000I1600J0D01*G01*
G75*G03X407400Y343000I-1600J0D01*G01*
X409000Y333000D02*Y329800D01*
Y333000D02*X411773Y334600D01*
X409000Y333000D02*X406227Y334600D01*
X407400Y333000D02*G75*G03X410600Y333000I1600J0D01*G01*
G75*G03X407400Y333000I-1600J0D01*G01*
X409000Y323000D02*Y319800D01*
Y323000D02*X411773Y324600D01*
X409000Y323000D02*X406227Y324600D01*
X407400Y323000D02*G75*G03X410600Y323000I1600J0D01*G01*
G75*G03X407400Y323000I-1600J0D01*G01*
X409000Y313000D02*Y309800D01*
Y313000D02*X411773Y314600D01*
X409000Y313000D02*X406227Y314600D01*
X407400Y313000D02*G75*G03X410600Y313000I1600J0D01*G01*
G75*G03X407400Y313000I-1600J0D01*G01*
X409000Y303000D02*Y299800D01*
Y303000D02*X411773Y304600D01*
X409000Y303000D02*X406227Y304600D01*
X407400Y303000D02*G75*G03X410600Y303000I1600J0D01*G01*
G75*G03X407400Y303000I-1600J0D01*G01*
X409000Y293000D02*Y289800D01*
Y293000D02*X411773Y294600D01*
X409000Y293000D02*X406227Y294600D01*
X407400Y293000D02*G75*G03X410600Y293000I1600J0D01*G01*
G75*G03X407400Y293000I-1600J0D01*G01*
X409000Y283000D02*Y279800D01*
Y283000D02*X411773Y284600D01*
X409000Y283000D02*X406227Y284600D01*
X407400Y283000D02*G75*G03X410600Y283000I1600J0D01*G01*
G75*G03X407400Y283000I-1600J0D01*G01*
X379000D02*Y279800D01*
Y283000D02*X381773Y284600D01*
X379000Y283000D02*X376227Y284600D01*
X377400Y283000D02*G75*G03X380600Y283000I1600J0D01*G01*
G75*G03X377400Y283000I-1600J0D01*G01*
X379000Y293000D02*Y289800D01*
Y293000D02*X381773Y294600D01*
X379000Y293000D02*X376227Y294600D01*
X377400Y293000D02*G75*G03X380600Y293000I1600J0D01*G01*
G75*G03X377400Y293000I-1600J0D01*G01*
X379000Y303000D02*Y299800D01*
Y303000D02*X381773Y304600D01*
X379000Y303000D02*X376227Y304600D01*
X377400Y303000D02*G75*G03X380600Y303000I1600J0D01*G01*
G75*G03X377400Y303000I-1600J0D01*G01*
X379000Y313000D02*Y309800D01*
Y313000D02*X381773Y314600D01*
X379000Y313000D02*X376227Y314600D01*
X377400Y313000D02*G75*G03X380600Y313000I1600J0D01*G01*
G75*G03X377400Y313000I-1600J0D01*G01*
X379000Y323000D02*Y319800D01*
Y323000D02*X381773Y324600D01*
X379000Y323000D02*X376227Y324600D01*
X377400Y323000D02*G75*G03X380600Y323000I1600J0D01*G01*
G75*G03X377400Y323000I-1600J0D01*G01*
X379000Y333000D02*Y329800D01*
Y333000D02*X381773Y334600D01*
X379000Y333000D02*X376227Y334600D01*
X377400Y333000D02*G75*G03X380600Y333000I1600J0D01*G01*
G75*G03X377400Y333000I-1600J0D01*G01*
X379000Y343000D02*Y339800D01*
Y343000D02*X381773Y344600D01*
X379000Y343000D02*X376227Y344600D01*
X377400Y343000D02*G75*G03X380600Y343000I1600J0D01*G01*
G75*G03X377400Y343000I-1600J0D01*G01*
X56000Y115000D02*Y111800D01*
Y115000D02*X58773Y116600D01*
X56000Y115000D02*X53227Y116600D01*
X54400Y115000D02*G75*G03X57600Y115000I1600J0D01*G01*
G75*G03X54400Y115000I-1600J0D01*G01*
X56000Y125000D02*Y121800D01*
Y125000D02*X58773Y126600D01*
X56000Y125000D02*X53227Y126600D01*
X54400Y125000D02*G75*G03X57600Y125000I1600J0D01*G01*
G75*G03X54400Y125000I-1600J0D01*G01*
X56000Y135000D02*Y131800D01*
Y135000D02*X58773Y136600D01*
X56000Y135000D02*X53227Y136600D01*
X54400Y135000D02*G75*G03X57600Y135000I1600J0D01*G01*
G75*G03X54400Y135000I-1600J0D01*G01*
X56000Y145000D02*Y141800D01*
Y145000D02*X58773Y146600D01*
X56000Y145000D02*X53227Y146600D01*
X54400Y145000D02*G75*G03X57600Y145000I1600J0D01*G01*
G75*G03X54400Y145000I-1600J0D01*G01*
X56000Y155000D02*Y151800D01*
Y155000D02*X58773Y156600D01*
X56000Y155000D02*X53227Y156600D01*
X54400Y155000D02*G75*G03X57600Y155000I1600J0D01*G01*
G75*G03X54400Y155000I-1600J0D01*G01*
X56000Y165000D02*Y161800D01*
Y165000D02*X58773Y166600D01*
X56000Y165000D02*X53227Y166600D01*
X54400Y165000D02*G75*G03X57600Y165000I1600J0D01*G01*
G75*G03X54400Y165000I-1600J0D01*G01*
X56000Y175000D02*Y171800D01*
Y175000D02*X58773Y176600D01*
X56000Y175000D02*X53227Y176600D01*
X54400Y175000D02*G75*G03X57600Y175000I1600J0D01*G01*
G75*G03X54400Y175000I-1600J0D01*G01*
X56000Y185000D02*Y181800D01*
Y185000D02*X58773Y186600D01*
X56000Y185000D02*X53227Y186600D01*
X54400Y185000D02*G75*G03X57600Y185000I1600J0D01*G01*
G75*G03X54400Y185000I-1600J0D01*G01*
X26000D02*Y181800D01*
Y185000D02*X28773Y186600D01*
X26000Y185000D02*X23227Y186600D01*
X24400Y185000D02*G75*G03X27600Y185000I1600J0D01*G01*
G75*G03X24400Y185000I-1600J0D01*G01*
X26000Y175000D02*Y171800D01*
Y175000D02*X28773Y176600D01*
X26000Y175000D02*X23227Y176600D01*
X24400Y175000D02*G75*G03X27600Y175000I1600J0D01*G01*
G75*G03X24400Y175000I-1600J0D01*G01*
X26000Y165000D02*Y161800D01*
Y165000D02*X28773Y166600D01*
X26000Y165000D02*X23227Y166600D01*
X24400Y165000D02*G75*G03X27600Y165000I1600J0D01*G01*
G75*G03X24400Y165000I-1600J0D01*G01*
X26000Y155000D02*Y151800D01*
Y155000D02*X28773Y156600D01*
X26000Y155000D02*X23227Y156600D01*
X24400Y155000D02*G75*G03X27600Y155000I1600J0D01*G01*
G75*G03X24400Y155000I-1600J0D01*G01*
X26000Y145000D02*Y141800D01*
Y145000D02*X28773Y146600D01*
X26000Y145000D02*X23227Y146600D01*
X24400Y145000D02*G75*G03X27600Y145000I1600J0D01*G01*
G75*G03X24400Y145000I-1600J0D01*G01*
X26000Y135000D02*Y131800D01*
Y135000D02*X28773Y136600D01*
X26000Y135000D02*X23227Y136600D01*
X24400Y135000D02*G75*G03X27600Y135000I1600J0D01*G01*
G75*G03X24400Y135000I-1600J0D01*G01*
X26000Y125000D02*Y121800D01*
Y125000D02*X28773Y126600D01*
X26000Y125000D02*X23227Y126600D01*
X24400Y125000D02*G75*G03X27600Y125000I1600J0D01*G01*
G75*G03X24400Y125000I-1600J0D01*G01*
X26000Y115000D02*Y111800D01*
Y115000D02*X28773Y116600D01*
X26000Y115000D02*X23227Y116600D01*
X24400Y115000D02*G75*G03X27600Y115000I1600J0D01*G01*
G75*G03X24400Y115000I-1600J0D01*G01*
X219985Y131413D02*Y128213D01*
Y131413D02*X222758Y133013D01*
X219985Y131413D02*X217212Y133013D01*
X218385Y131413D02*G75*G03X221585Y131413I1600J0D01*G01*
G75*G03X218385Y131413I-1600J0D01*G01*
X219985Y141413D02*Y138213D01*
Y141413D02*X222758Y143013D01*
X219985Y141413D02*X217212Y143013D01*
X218385Y141413D02*G75*G03X221585Y141413I1600J0D01*G01*
G75*G03X218385Y141413I-1600J0D01*G01*
X219985Y151413D02*Y148213D01*
Y151413D02*X222758Y153013D01*
X219985Y151413D02*X217212Y153013D01*
X218385Y151413D02*G75*G03X221585Y151413I1600J0D01*G01*
G75*G03X218385Y151413I-1600J0D01*G01*
X219985Y161413D02*Y158213D01*
Y161413D02*X222758Y163013D01*
X219985Y161413D02*X217212Y163013D01*
X218385Y161413D02*G75*G03X221585Y161413I1600J0D01*G01*
G75*G03X218385Y161413I-1600J0D01*G01*
X219985Y171413D02*Y168213D01*
Y171413D02*X222758Y173013D01*
X219985Y171413D02*X217212Y173013D01*
X218385Y171413D02*G75*G03X221585Y171413I1600J0D01*G01*
G75*G03X218385Y171413I-1600J0D01*G01*
X219985Y181413D02*Y178213D01*
Y181413D02*X222758Y183013D01*
X219985Y181413D02*X217212Y183013D01*
X218385Y181413D02*G75*G03X221585Y181413I1600J0D01*G01*
G75*G03X218385Y181413I-1600J0D01*G01*
X219985Y191413D02*Y188213D01*
Y191413D02*X222758Y193013D01*
X219985Y191413D02*X217212Y193013D01*
X218385Y191413D02*G75*G03X221585Y191413I1600J0D01*G01*
G75*G03X218385Y191413I-1600J0D01*G01*
X219985Y201413D02*Y198213D01*
Y201413D02*X222758Y203013D01*
X219985Y201413D02*X217212Y203013D01*
X218385Y201413D02*G75*G03X221585Y201413I1600J0D01*G01*
G75*G03X218385Y201413I-1600J0D01*G01*
X189985D02*Y198213D01*
Y201413D02*X192758Y203013D01*
X189985Y201413D02*X187212Y203013D01*
X188385Y201413D02*G75*G03X191585Y201413I1600J0D01*G01*
G75*G03X188385Y201413I-1600J0D01*G01*
X189985Y191413D02*Y188213D01*
Y191413D02*X192758Y193013D01*
X189985Y191413D02*X187212Y193013D01*
X188385Y191413D02*G75*G03X191585Y191413I1600J0D01*G01*
G75*G03X188385Y191413I-1600J0D01*G01*
X189985Y181413D02*Y178213D01*
Y181413D02*X192758Y183013D01*
X189985Y181413D02*X187212Y183013D01*
X188385Y181413D02*G75*G03X191585Y181413I1600J0D01*G01*
G75*G03X188385Y181413I-1600J0D01*G01*
X189985Y171413D02*Y168213D01*
Y171413D02*X192758Y173013D01*
X189985Y171413D02*X187212Y173013D01*
X188385Y171413D02*G75*G03X191585Y171413I1600J0D01*G01*
G75*G03X188385Y171413I-1600J0D01*G01*
X189985Y161413D02*Y158213D01*
Y161413D02*X192758Y163013D01*
X189985Y161413D02*X187212Y163013D01*
X188385Y161413D02*G75*G03X191585Y161413I1600J0D01*G01*
G75*G03X188385Y161413I-1600J0D01*G01*
X189985Y151413D02*Y148213D01*
Y151413D02*X192758Y153013D01*
X189985Y151413D02*X187212Y153013D01*
X188385Y151413D02*G75*G03X191585Y151413I1600J0D01*G01*
G75*G03X188385Y151413I-1600J0D01*G01*
X189985Y141413D02*Y138213D01*
Y141413D02*X192758Y143013D01*
X189985Y141413D02*X187212Y143013D01*
X188385Y141413D02*G75*G03X191585Y141413I1600J0D01*G01*
G75*G03X188385Y141413I-1600J0D01*G01*
X189985Y131413D02*Y128213D01*
Y131413D02*X192758Y133013D01*
X189985Y131413D02*X187212Y133013D01*
X188385Y131413D02*G75*G03X191585Y131413I1600J0D01*G01*
G75*G03X188385Y131413I-1600J0D01*G01*
X499500Y145500D02*Y142300D01*
Y145500D02*X502273Y147100D01*
X499500Y145500D02*X496727Y147100D01*
X497900Y145500D02*G75*G03X501100Y145500I1600J0D01*G01*
G75*G03X497900Y145500I-1600J0D01*G01*
X483500Y116000D02*Y112800D01*
Y116000D02*X486273Y117600D01*
X483500Y116000D02*X480727Y117600D01*
X481900Y116000D02*G75*G03X485100Y116000I1600J0D01*G01*
G75*G03X481900Y116000I-1600J0D01*G01*
X473000Y91500D02*Y88300D01*
Y91500D02*X475773Y93100D01*
X473000Y91500D02*X470227Y93100D01*
X471400Y91500D02*G75*G03X474600Y91500I1600J0D01*G01*
G75*G03X471400Y91500I-1600J0D01*G01*
X499500Y300000D02*Y296800D01*
Y300000D02*X502273Y301600D01*
X499500Y300000D02*X496727Y301600D01*
X497900Y300000D02*G75*G03X501100Y300000I1600J0D01*G01*
G75*G03X497900Y300000I-1600J0D01*G01*
X430500Y342000D02*Y338800D01*
Y342000D02*X433273Y343600D01*
X430500Y342000D02*X427727Y343600D01*
X428900Y342000D02*G75*G03X432100Y342000I1600J0D01*G01*
G75*G03X428900Y342000I-1600J0D01*G01*
X483000Y318000D02*Y314800D01*
Y318000D02*X485773Y319600D01*
X483000Y318000D02*X480227Y319600D01*
X481400Y318000D02*G75*G03X484600Y318000I1600J0D01*G01*
G75*G03X481400Y318000I-1600J0D01*G01*
X65000Y262000D02*Y258800D01*
Y262000D02*X67773Y263600D01*
X65000Y262000D02*X62227Y263600D01*
X63400Y262000D02*G75*G03X66600Y262000I1600J0D01*G01*
G75*G03X63400Y262000I-1600J0D01*G01*
X388000Y272000D02*Y268800D01*
Y272000D02*X390773Y273600D01*
X388000Y272000D02*X385227Y273600D01*
X386400Y272000D02*G75*G03X389600Y272000I1600J0D01*G01*
G75*G03X386400Y272000I-1600J0D01*G01*
X473500Y256000D02*Y252800D01*
Y256000D02*X476273Y257600D01*
X473500Y256000D02*X470727Y257600D01*
X471900Y256000D02*G75*G03X475100Y256000I1600J0D01*G01*
G75*G03X471900Y256000I-1600J0D01*G01*
X489500Y128000D02*Y124800D01*
Y128000D02*X492273Y129600D01*
X489500Y128000D02*X486727Y129600D01*
X487900Y128000D02*G75*G03X491100Y128000I1600J0D01*G01*
G75*G03X487900Y128000I-1600J0D01*G01*
X492500Y278500D02*Y275300D01*
Y278500D02*X495273Y280100D01*
X492500Y278500D02*X489727Y280100D01*
X490900Y278500D02*G75*G03X494100Y278500I1600J0D01*G01*
G75*G03X490900Y278500I-1600J0D01*G01*
X490000Y208500D02*Y205300D01*
Y208500D02*X492773Y210100D01*
X490000Y208500D02*X487227Y210100D01*
X488400Y208500D02*G75*G03X491600Y208500I1600J0D01*G01*
G75*G03X488400Y208500I-1600J0D01*G01*
X473500Y168500D02*Y165300D01*
Y168500D02*X476273Y170100D01*
X473500Y168500D02*X470727Y170100D01*
X471900Y168500D02*G75*G03X475100Y168500I1600J0D01*G01*
G75*G03X471900Y168500I-1600J0D01*G01*
X264500Y89500D02*Y86300D01*
Y89500D02*X267273Y91100D01*
X264500Y89500D02*X261727Y91100D01*
X262900Y89500D02*G75*G03X266100Y89500I1600J0D01*G01*
G75*G03X262900Y89500I-1600J0D01*G01*
X275000Y113500D02*Y110300D01*
Y113500D02*X277773Y115100D01*
X275000Y113500D02*X272227Y115100D01*
X273400Y113500D02*G75*G03X276600Y113500I1600J0D01*G01*
G75*G03X273400Y113500I-1600J0D01*G01*
X246500Y21500D02*Y18300D01*
Y21500D02*X249273Y23100D01*
X246500Y21500D02*X243727Y23100D01*
X244900Y21500D02*G75*G03X248100Y21500I1600J0D01*G01*
G75*G03X244900Y21500I-1600J0D01*G01*
X147500Y88000D02*Y84800D01*
Y88000D02*X150273Y89600D01*
X147500Y88000D02*X144727Y89600D01*
X145900Y88000D02*G75*G03X149100Y88000I1600J0D01*G01*
G75*G03X145900Y88000I-1600J0D01*G01*
X135500Y114500D02*Y111300D01*
Y114500D02*X138273Y116100D01*
X135500Y114500D02*X132727Y116100D01*
X133900Y114500D02*G75*G03X137100Y114500I1600J0D01*G01*
G75*G03X133900Y114500I-1600J0D01*G01*
X473500Y308000D02*Y304800D01*
Y308000D02*X476273Y309600D01*
X473500Y308000D02*X470727Y309600D01*
X471900Y308000D02*G75*G03X475100Y308000I1600J0D01*G01*
G75*G03X471900Y308000I-1600J0D01*G01*
X208500Y314500D02*Y311300D01*
Y314500D02*X211273Y316100D01*
X208500Y314500D02*X205727Y316100D01*
X206900Y314500D02*G75*G03X210100Y314500I1600J0D01*G01*
G75*G03X206900Y314500I-1600J0D01*G01*
X15000Y551250D02*Y548050D01*
Y551250D02*X17773Y552850D01*
X15000Y551250D02*X12227Y552850D01*
X13400Y551250D02*G75*G03X16600Y551250I1600J0D01*G01*
G75*G03X13400Y551250I-1600J0D01*G01*
X135000Y553500D02*X136500Y550500D01*
X138000Y553500D01*
X136500Y550500D02*Y547500D01*
X139800Y550800D02*X142050D01*
X139800Y547500D02*X142800D01*
X139800Y553500D02*Y547500D01*
Y553500D02*X142800D01*
X147600D02*X148350Y552750D01*
X145350Y553500D02*X147600D01*
X144600Y552750D02*X145350Y553500D01*
X144600Y552750D02*Y551250D01*
X145350Y550500D01*
X147600D01*
X148350Y549750D01*
Y548250D01*
X147600Y547500D02*X148350Y548250D01*
X145350Y547500D02*X147600D01*
X144600Y548250D02*X145350Y547500D01*
X98750D02*X101000Y550500D01*
Y552750D02*Y550500D01*
X100250Y553500D02*X101000Y552750D01*
X98750Y553500D02*X100250D01*
X98000Y552750D02*X98750Y553500D01*
X98000Y552750D02*Y551250D01*
X98750Y550500D01*
X101000D01*
X102800Y549750D02*X105800Y553500D01*
X102800Y549750D02*X106550D01*
X105800Y553500D02*Y547500D01*
X45000Y548250D02*X45750Y547500D01*
X45000Y552750D02*Y548250D01*
Y552750D02*X45750Y553500D01*
X47250D01*
X48000Y552750D01*
Y548250D01*
X47250Y547500D02*X48000Y548250D01*
X45750Y547500D02*X47250D01*
X45000Y549000D02*X48000Y552000D01*
X49800Y547500D02*X50550D01*
X52350Y548250D02*X53100Y547500D01*
X52350Y552750D02*Y548250D01*
Y552750D02*X53100Y553500D01*
X54600D01*
X55350Y552750D01*
Y548250D01*
X54600Y547500D02*X55350Y548250D01*
X53100Y547500D02*X54600D01*
X52350Y549000D02*X55350Y552000D01*
X57150Y552750D02*X57900Y553500D01*
X59400D01*
X60150Y552750D01*
X59400Y547500D02*X60150Y548250D01*
X57900Y547500D02*X59400D01*
X57150Y548250D02*X57900Y547500D01*
Y550800D02*X59400D01*
X60150Y552750D02*Y551550D01*
Y550050D02*Y548250D01*
Y550050D02*X59400Y550800D01*
X60150Y551550D02*X59400Y550800D01*
X61950Y553500D02*X64950D01*
X61950D02*Y550500D01*
X62700Y551250D01*
X64200D01*
X64950Y550500D01*
Y548250D01*
X64200Y547500D02*X64950Y548250D01*
X62700Y547500D02*X64200D01*
X61950Y548250D02*X62700Y547500D01*
X383026Y382600D02*X386226D01*
X383026D02*Y379400D01*
X386226D01*
Y382600D02*Y379400D01*
X390900Y382600D02*X394100D01*
X390900D02*Y379400D01*
X394100D01*
Y382600D02*Y379400D01*
X398774Y382600D02*X401974D01*
X398774D02*Y379400D01*
X401974D01*
Y382600D02*Y379400D01*
X13400Y567850D02*X16600D01*
X13400D02*Y564650D01*
X16600D01*
Y567850D02*Y564650D01*
X135000Y568500D02*X136500Y565500D01*
X138000Y568500D01*
X136500Y565500D02*Y562500D01*
X139800Y565800D02*X142050D01*
X139800Y562500D02*X142800D01*
X139800Y568500D02*Y562500D01*
Y568500D02*X142800D01*
X147600D02*X148350Y567750D01*
X145350Y568500D02*X147600D01*
X144600Y567750D02*X145350Y568500D01*
X144600Y567750D02*Y566250D01*
X145350Y565500D01*
X147600D01*
X148350Y564750D01*
Y563250D01*
X147600Y562500D02*X148350Y563250D01*
X145350Y562500D02*X147600D01*
X144600Y563250D02*X145350Y562500D01*
X98000Y567750D02*X98750Y568500D01*
X100250D01*
X101000Y567750D01*
X100250Y562500D02*X101000Y563250D01*
X98750Y562500D02*X100250D01*
X98000Y563250D02*X98750Y562500D01*
Y565800D02*X100250D01*
X101000Y567750D02*Y566550D01*
Y565050D02*Y563250D01*
Y565050D02*X100250Y565800D01*
X101000Y566550D02*X100250Y565800D01*
X45000Y563250D02*X45750Y562500D01*
X45000Y567750D02*Y563250D01*
Y567750D02*X45750Y568500D01*
X47250D01*
X48000Y567750D01*
Y563250D01*
X47250Y562500D02*X48000Y563250D01*
X45750Y562500D02*X47250D01*
X45000Y564000D02*X48000Y567000D01*
X49800Y562500D02*X50550D01*
X52350Y563250D02*X53100Y562500D01*
X52350Y567750D02*Y563250D01*
Y567750D02*X53100Y568500D01*
X54600D01*
X55350Y567750D01*
Y563250D01*
X54600Y562500D02*X55350Y563250D01*
X53100Y562500D02*X54600D01*
X52350Y564000D02*X55350Y567000D01*
X57150Y567750D02*X57900Y568500D01*
X59400D01*
X60150Y567750D01*
X59400Y562500D02*X60150Y563250D01*
X57900Y562500D02*X59400D01*
X57150Y563250D02*X57900Y562500D01*
Y565800D02*X59400D01*
X60150Y567750D02*Y566550D01*
Y565050D02*Y563250D01*
Y565050D02*X59400Y565800D01*
X60150Y566550D02*X59400Y565800D01*
X61950Y567300D02*X63150Y568500D01*
Y562500D01*
X61950D02*X64200D01*
X173700Y40500D02*G75*G03X175300Y40500I800J0D01*G01*
G75*G03X173700Y40500I-800J0D01*G01*
Y10500D02*G75*G03X175300Y10500I800J0D01*G01*
G75*G03X173700Y10500I-800J0D01*G01*
X233700Y40500D02*G75*G03X235300Y40500I800J0D01*G01*
G75*G03X233700Y40500I-800J0D01*G01*
Y10500D02*G75*G03X235300Y10500I800J0D01*G01*
G75*G03X233700Y10500I-800J0D01*G01*
X219200Y238500D02*G75*G03X220800Y238500I800J0D01*G01*
G75*G03X219200Y238500I-800J0D01*G01*
X229200D02*G75*G03X230800Y238500I800J0D01*G01*
G75*G03X229200Y238500I-800J0D01*G01*
X198200D02*G75*G03X199800Y238500I800J0D01*G01*
G75*G03X198200Y238500I-800J0D01*G01*
X188200D02*G75*G03X189800Y238500I800J0D01*G01*
G75*G03X188200Y238500I-800J0D01*G01*
X399200Y106500D02*G75*G03X400800Y106500I800J0D01*G01*
G75*G03X399200Y106500I-800J0D01*G01*
Y116500D02*G75*G03X400800Y116500I800J0D01*G01*
G75*G03X399200Y116500I-800J0D01*G01*
X394700Y207500D02*G75*G03X396300Y207500I800J0D01*G01*
G75*G03X394700Y207500I-800J0D01*G01*
X404700D02*G75*G03X406300Y207500I800J0D01*G01*
G75*G03X404700Y207500I-800J0D01*G01*
X361700Y283000D02*G75*G03X363300Y283000I800J0D01*G01*
G75*G03X361700Y283000I-800J0D01*G01*
Y293000D02*G75*G03X363300Y293000I800J0D01*G01*
G75*G03X361700Y293000I-800J0D01*G01*
X48200Y193500D02*G75*G03X49800Y193500I800J0D01*G01*
G75*G03X48200Y193500I-800J0D01*G01*
X58200D02*G75*G03X59800Y193500I800J0D01*G01*
G75*G03X58200Y193500I-800J0D01*G01*
X549200Y199000D02*G75*G03X550800Y199000I800J0D01*G01*
G75*G03X549200Y199000I-800J0D01*G01*
X539200D02*G75*G03X540800Y199000I800J0D01*G01*
G75*G03X539200Y199000I-800J0D01*G01*
X209700Y219000D02*G75*G03X211300Y219000I800J0D01*G01*
G75*G03X209700Y219000I-800J0D01*G01*
X199700D02*G75*G03X201300Y219000I800J0D01*G01*
G75*G03X199700Y219000I-800J0D01*G01*
X327001Y238529D02*G75*G03X328601Y238529I800J0D01*G01*
G75*G03X327001Y238529I-800J0D01*G01*
X330828Y247768D02*G75*G03X332428Y247768I800J0D01*G01*
G75*G03X330828Y247768I-800J0D01*G01*
X82769Y237613D02*G75*G03X84369Y237613I800J0D01*G01*
G75*G03X82769Y237613I-800J0D01*G01*
X78942Y246852D02*G75*G03X80542Y246852I800J0D01*G01*
G75*G03X78942Y246852I-800J0D01*G01*
X14200Y581250D02*G75*G03X15800Y581250I800J0D01*G01*
G75*G03X14200Y581250I-800J0D01*G01*
X135000Y583500D02*X136500Y580500D01*
X138000Y583500D01*
X136500Y580500D02*Y577500D01*
X139800Y580800D02*X142050D01*
X139800Y577500D02*X142800D01*
X139800Y583500D02*Y577500D01*
Y583500D02*X142800D01*
X147600D02*X148350Y582750D01*
X145350Y583500D02*X147600D01*
X144600Y582750D02*X145350Y583500D01*
X144600Y582750D02*Y581250D01*
X145350Y580500D01*
X147600D01*
X148350Y579750D01*
Y578250D01*
X147600Y577500D02*X148350Y578250D01*
X145350Y577500D02*X147600D01*
X144600Y578250D02*X145350Y577500D01*
X98000Y582750D02*X98750Y583500D01*
X101000D01*
X101750Y582750D01*
Y581250D01*
X98000Y577500D02*X101750Y581250D01*
X98000Y577500D02*X101750D01*
X103550Y579750D02*X106550Y583500D01*
X103550Y579750D02*X107300D01*
X106550Y583500D02*Y577500D01*
X45000Y578250D02*X45750Y577500D01*
X45000Y582750D02*Y578250D01*
Y582750D02*X45750Y583500D01*
X47250D01*
X48000Y582750D01*
Y578250D01*
X47250Y577500D02*X48000Y578250D01*
X45750Y577500D02*X47250D01*
X45000Y579000D02*X48000Y582000D01*
X49800Y577500D02*X50550D01*
X52350Y578250D02*X53100Y577500D01*
X52350Y582750D02*Y578250D01*
Y582750D02*X53100Y583500D01*
X54600D01*
X55350Y582750D01*
Y578250D01*
X54600Y577500D02*X55350Y578250D01*
X53100Y577500D02*X54600D01*
X52350Y579000D02*X55350Y582000D01*
X57150Y582750D02*X57900Y583500D01*
X59400D01*
X60150Y582750D01*
X59400Y577500D02*X60150Y578250D01*
X57900Y577500D02*X59400D01*
X57150Y578250D02*X57900Y577500D01*
Y580800D02*X59400D01*
X60150Y582750D02*Y581550D01*
Y580050D02*Y578250D01*
Y580050D02*X59400Y580800D01*
X60150Y581550D02*X59400Y580800D01*
X61950Y578250D02*X62700Y577500D01*
X61950Y582750D02*Y578250D01*
Y582750D02*X62700Y583500D01*
X64200D01*
X64950Y582750D01*
Y578250D01*
X64200Y577500D02*X64950Y578250D01*
X62700Y577500D02*X64200D01*
X61950Y579000D02*X64950Y582000D01*
X417800Y366200D02*X420200Y363800D01*
X417800D02*X420200Y366200D01*
X377800D02*X380200Y363800D01*
X377800D02*X380200Y366200D01*
X365300Y359700D02*X367700Y357300D01*
X365300D02*X367700Y359700D01*
X365300Y319700D02*X367700Y317300D01*
X365300D02*X367700Y319700D01*
X164300Y208700D02*X166700Y206300D01*
X164300D02*X166700Y208700D01*
X164300Y248700D02*X166700Y246300D01*
X164300D02*X166700Y248700D01*
X244300Y208700D02*X246700Y206300D01*
X244300D02*X246700Y208700D01*
X244300Y248700D02*X246700Y246300D01*
X244300D02*X246700Y248700D01*
X151800Y213700D02*X154200Y211300D01*
X151800D02*X154200Y213700D01*
X151800Y253700D02*X154200Y251300D01*
X151800D02*X154200Y253700D01*
X256800Y213700D02*X259200Y211300D01*
X256800D02*X259200Y213700D01*
X256800Y253700D02*X259200Y251300D01*
X256800D02*X259200Y253700D01*
X554300Y243200D02*X556700Y240800D01*
X554300D02*X556700Y243200D01*
X569607Y206245D02*X572007Y203845D01*
X569607D02*X572007Y206245D01*
X534300Y243200D02*X536700Y240800D01*
X534300D02*X536700Y243200D01*
X518993Y206245D02*X521393Y203845D01*
X518993D02*X521393Y206245D01*
X544300Y256700D02*X546700Y254300D01*
X544300D02*X546700Y256700D01*
X544300Y216700D02*X546700Y214300D01*
X544300D02*X546700Y216700D01*
X417800Y356700D02*X420200Y354300D01*
X417800D02*X420200Y356700D01*
X377800D02*X380200Y354300D01*
X377800D02*X380200Y356700D01*
X154300Y267200D02*X156700Y264800D01*
X154300D02*X156700Y267200D01*
X194300D02*X196700Y264800D01*
X194300D02*X196700Y267200D01*
X13800Y597450D02*X16200Y595050D01*
X13800D02*X16200Y597450D01*
X135000Y598500D02*X136500Y595500D01*
X138000Y598500D01*
X136500Y595500D02*Y592500D01*
X139800Y595800D02*X142050D01*
X139800Y592500D02*X142800D01*
X139800Y598500D02*Y592500D01*
Y598500D02*X142800D01*
X147600D02*X148350Y597750D01*
X145350Y598500D02*X147600D01*
X144600Y597750D02*X145350Y598500D01*
X144600Y597750D02*Y596250D01*
X145350Y595500D01*
X147600D01*
X148350Y594750D01*
Y593250D01*
X147600Y592500D02*X148350Y593250D01*
X145350Y592500D02*X147600D01*
X144600Y593250D02*X145350Y592500D01*
X98000Y597750D02*X98750Y598500D01*
X101000D01*
X101750Y597750D01*
Y596250D01*
X98000Y592500D02*X101750Y596250D01*
X98000Y592500D02*X101750D01*
X103550Y597750D02*X104300Y598500D01*
X106550D01*
X107300Y597750D01*
Y596250D01*
X103550Y592500D02*X107300Y596250D01*
X103550Y592500D02*X107300D01*
X45000Y593250D02*X45750Y592500D01*
X45000Y597750D02*Y593250D01*
Y597750D02*X45750Y598500D01*
X47250D01*
X48000Y597750D01*
Y593250D01*
X47250Y592500D02*X48000Y593250D01*
X45750Y592500D02*X47250D01*
X45000Y594000D02*X48000Y597000D01*
X49800Y592500D02*X50550D01*
X52350Y593250D02*X53100Y592500D01*
X52350Y597750D02*Y593250D01*
Y597750D02*X53100Y598500D01*
X54600D01*
X55350Y597750D01*
Y593250D01*
X54600Y592500D02*X55350Y593250D01*
X53100Y592500D02*X54600D01*
X52350Y594000D02*X55350Y597000D01*
X57150Y597750D02*X57900Y598500D01*
X60150D01*
X60900Y597750D01*
Y596250D01*
X57150Y592500D02*X60900Y596250D01*
X57150Y592500D02*X60900D01*
X63450D02*X65700Y595500D01*
Y597750D02*Y595500D01*
X64950Y598500D02*X65700Y597750D01*
X63450Y598500D02*X64950D01*
X62700Y597750D02*X63450Y598500D01*
X62700Y597750D02*Y596250D01*
X63450Y595500D01*
X65700D01*
X115868Y240350D02*Y237150D01*
X114268Y238750D02*X117468D01*
X119695Y231111D02*Y227911D01*
X118095Y229511D02*X121295D01*
X123522Y221872D02*Y218672D01*
X121922Y220272D02*X125122D01*
X127349Y212633D02*Y209433D01*
X125749Y211033D02*X128949D01*
X131175Y203395D02*Y200195D01*
X129575Y201795D02*X132775D01*
X135002Y194156D02*Y190956D01*
X133402Y192556D02*X136602D01*
X138829Y184917D02*Y181717D01*
X137229Y183317D02*X140429D01*
X142656Y175678D02*Y172478D01*
X141056Y174078D02*X144256D01*
X146483Y166440D02*Y163240D01*
X144883Y164840D02*X148083D01*
X150310Y157201D02*Y154001D01*
X148710Y155601D02*X151910D01*
X154136Y147962D02*Y144762D01*
X152536Y146362D02*X155736D01*
X157963Y138723D02*Y135523D01*
X156363Y137123D02*X159563D01*
X161790Y129485D02*Y126285D01*
X160190Y127885D02*X163390D01*
X165617Y120246D02*Y117046D01*
X164017Y118646D02*X167217D01*
X169444Y111007D02*Y107807D01*
X167844Y109407D02*X171044D01*
X173271Y101768D02*Y98568D01*
X171671Y100168D02*X174871D01*
X177097Y92529D02*Y89329D01*
X175497Y90929D02*X178697D01*
X180924Y83290D02*Y80090D01*
X179324Y81690D02*X182524D01*
X184751Y74052D02*Y70852D01*
X183151Y72452D02*X186351D01*
X188578Y64813D02*Y61613D01*
X186978Y63213D02*X190178D01*
X133145Y41852D02*Y38652D01*
X131545Y40252D02*X134745D01*
X129319Y51091D02*Y47891D01*
X127719Y49491D02*X130919D01*
X125491Y60330D02*Y57130D01*
X123891Y58730D02*X127091D01*
X121665Y69568D02*Y66368D01*
X120065Y67968D02*X123265D01*
X117838Y78807D02*Y75607D01*
X116238Y77207D02*X119438D01*
X114011Y88046D02*Y84846D01*
X112411Y86446D02*X115611D01*
X110184Y97285D02*Y94085D01*
X108584Y95685D02*X111784D01*
X106357Y106523D02*Y103323D01*
X104757Y104923D02*X107957D01*
X102530Y115762D02*Y112562D01*
X100930Y114162D02*X104130D01*
X98704Y125001D02*Y121801D01*
X97104Y123401D02*X100304D01*
X94877Y134240D02*Y131040D01*
X93277Y132640D02*X96477D01*
X91050Y143479D02*Y140279D01*
X89450Y141879D02*X92650D01*
X87223Y152717D02*Y149517D01*
X85623Y151117D02*X88823D01*
X83396Y161956D02*Y158756D01*
X81796Y160356D02*X84996D01*
X79570Y171195D02*Y167995D01*
X77970Y169595D02*X81170D01*
X75743Y180434D02*Y177234D01*
X74143Y178834D02*X77343D01*
X71916Y189672D02*Y186472D01*
X70316Y188072D02*X73516D01*
X68089Y198911D02*Y195711D01*
X66489Y197311D02*X69689D01*
X64263Y208150D02*Y204950D01*
X62663Y206550D02*X65863D01*
X60435Y217389D02*Y214189D01*
X58835Y215789D02*X62035D01*
X531000Y184600D02*Y181400D01*
X529400Y183000D02*X532600D01*
X531000Y174600D02*Y171400D01*
X529400Y173000D02*X532600D01*
X531000Y164600D02*Y161400D01*
X529400Y163000D02*X532600D01*
X531000Y154600D02*Y151400D01*
X529400Y153000D02*X532600D01*
X561000Y154600D02*Y151400D01*
X559400Y153000D02*X562600D01*
X561000Y164600D02*Y161400D01*
X559400Y163000D02*X562600D01*
X561000Y174600D02*Y171400D01*
X559400Y173000D02*X562600D01*
X561000Y184600D02*Y181400D01*
X559400Y183000D02*X562600D01*
X350280Y217456D02*Y214256D01*
X348680Y215856D02*X351880D01*
X346453Y208217D02*Y205017D01*
X344853Y206617D02*X348053D01*
X342626Y198978D02*Y195778D01*
X341026Y197378D02*X344226D01*
X338799Y189739D02*Y186539D01*
X337199Y188139D02*X340399D01*
X334973Y180501D02*Y177301D01*
X333373Y178901D02*X336573D01*
X331146Y171262D02*Y168062D01*
X329546Y169662D02*X332746D01*
X327319Y162023D02*Y158823D01*
X325719Y160423D02*X328919D01*
X323492Y152784D02*Y149584D01*
X321892Y151184D02*X325092D01*
X319665Y143546D02*Y140346D01*
X318065Y141946D02*X321265D01*
X315838Y134307D02*Y131107D01*
X314238Y132707D02*X317438D01*
X312012Y125068D02*Y121868D01*
X310412Y123468D02*X313612D01*
X308185Y115829D02*Y112629D01*
X306585Y114229D02*X309785D01*
X304358Y106591D02*Y103391D01*
X302758Y104991D02*X305958D01*
X300531Y97352D02*Y94152D01*
X298931Y95752D02*X302131D01*
X296704Y88113D02*Y84913D01*
X295104Y86513D02*X298304D01*
X292877Y78874D02*Y75674D01*
X291277Y77274D02*X294477D01*
X289051Y69635D02*Y66435D01*
X287451Y68035D02*X290651D01*
X285224Y60396D02*Y57196D01*
X283624Y58796D02*X286824D01*
X281397Y51157D02*Y47957D01*
X279797Y49557D02*X282997D01*
X277570Y41919D02*Y38719D01*
X275970Y40319D02*X279170D01*
X222137Y64880D02*Y61680D01*
X220537Y63280D02*X223737D01*
X225964Y74119D02*Y70919D01*
X224364Y72519D02*X227564D01*
X229791Y83358D02*Y80158D01*
X228191Y81758D02*X231391D01*
X233618Y92596D02*Y89396D01*
X232018Y90996D02*X235218D01*
X237445Y101835D02*Y98635D01*
X235845Y100235D02*X239045D01*
X241271Y111074D02*Y107874D01*
X239671Y109474D02*X242871D01*
X245099Y120313D02*Y117113D01*
X243499Y118713D02*X246699D01*
X248925Y129552D02*Y126352D01*
X247325Y127952D02*X250525D01*
X252752Y138790D02*Y135590D01*
X251152Y137190D02*X254352D01*
X256579Y148029D02*Y144829D01*
X254979Y146429D02*X258179D01*
X260406Y157268D02*Y154068D01*
X258806Y155668D02*X262006D01*
X264233Y166507D02*Y163307D01*
X262633Y164907D02*X265833D01*
X268060Y175745D02*Y172545D01*
X266460Y174145D02*X269660D01*
X271886Y184984D02*Y181784D01*
X270286Y183384D02*X273486D01*
X275713Y194223D02*Y191023D01*
X274113Y192623D02*X277313D01*
X279540Y203462D02*Y200262D01*
X277940Y201862D02*X281140D01*
X283367Y212700D02*Y209500D01*
X281767Y211100D02*X284967D01*
X287193Y221939D02*Y218739D01*
X285593Y220339D02*X288793D01*
X291021Y231178D02*Y227978D01*
X289421Y229578D02*X292621D01*
X294847Y240417D02*Y237217D01*
X293247Y238817D02*X296447D01*
X15000Y612850D02*Y609650D01*
X13400Y611250D02*X16600D01*
X135000Y613500D02*X136500Y610500D01*
X138000Y613500D01*
X136500Y610500D02*Y607500D01*
X139800Y610800D02*X142050D01*
X139800Y607500D02*X142800D01*
X139800Y613500D02*Y607500D01*
Y613500D02*X142800D01*
X147600D02*X148350Y612750D01*
X145350Y613500D02*X147600D01*
X144600Y612750D02*X145350Y613500D01*
X144600Y612750D02*Y611250D01*
X145350Y610500D01*
X147600D01*
X148350Y609750D01*
Y608250D01*
X147600Y607500D02*X148350Y608250D01*
X145350Y607500D02*X147600D01*
X144600Y608250D02*X145350Y607500D01*
X98000Y608250D02*X98750Y607500D01*
X98000Y609450D02*Y608250D01*
Y609450D02*X99050Y610500D01*
X99950D01*
X101000Y609450D01*
Y608250D01*
X100250Y607500D02*X101000Y608250D01*
X98750Y607500D02*X100250D01*
X98000Y611550D02*X99050Y610500D01*
X98000Y612750D02*Y611550D01*
Y612750D02*X98750Y613500D01*
X100250D01*
X101000Y612750D01*
Y611550D01*
X99950Y610500D02*X101000Y611550D01*
X102800Y608250D02*X103550Y607500D01*
X102800Y609450D02*Y608250D01*
Y609450D02*X103850Y610500D01*
X104750D01*
X105800Y609450D01*
Y608250D01*
X105050Y607500D02*X105800Y608250D01*
X103550Y607500D02*X105050D01*
X102800Y611550D02*X103850Y610500D01*
X102800Y612750D02*Y611550D01*
Y612750D02*X103550Y613500D01*
X105050D01*
X105800Y612750D01*
Y611550D01*
X104750Y610500D02*X105800Y611550D01*
X45000Y608250D02*X45750Y607500D01*
X45000Y612750D02*Y608250D01*
Y612750D02*X45750Y613500D01*
X47250D01*
X48000Y612750D01*
Y608250D01*
X47250Y607500D02*X48000Y608250D01*
X45750Y607500D02*X47250D01*
X45000Y609000D02*X48000Y612000D01*
X49800Y607500D02*X50550D01*
X52350Y608250D02*X53100Y607500D01*
X52350Y612750D02*Y608250D01*
Y612750D02*X53100Y613500D01*
X54600D01*
X55350Y612750D01*
Y608250D01*
X54600Y607500D02*X55350Y608250D01*
X53100Y607500D02*X54600D01*
X52350Y609000D02*X55350Y612000D01*
X57150Y612750D02*X57900Y613500D01*
X60150D01*
X60900Y612750D01*
Y611250D01*
X57150Y607500D02*X60900Y611250D01*
X57150Y607500D02*X60900D01*
X62700Y608250D02*X63450Y607500D01*
X62700Y609450D02*Y608250D01*
Y609450D02*X63750Y610500D01*
X64650D01*
X65700Y609450D01*
Y608250D01*
X64950Y607500D02*X65700Y608250D01*
X63450Y607500D02*X64950D01*
X62700Y611550D02*X63750Y610500D01*
X62700Y612750D02*Y611550D01*
Y612750D02*X63450Y613500D01*
X64950D01*
X65700Y612750D01*
Y611550D01*
X64650Y610500D02*X65700Y611550D01*
X430000Y171000D02*Y169400D01*
Y171000D02*X431387Y171800D01*
X430000Y171000D02*X428613Y171800D01*
X419500Y315500D02*Y313900D01*
Y315500D02*X420887Y316300D01*
X419500Y315500D02*X418113Y316300D01*
X130000Y168000D02*Y166400D01*
Y168000D02*X131387Y168800D01*
X130000Y168000D02*X128613Y168800D01*
X375000Y175500D02*Y173900D01*
Y175500D02*X376387Y176300D01*
X375000Y175500D02*X373613Y176300D01*
X283500Y97000D02*Y95400D01*
Y97000D02*X284887Y97800D01*
X283500Y97000D02*X282113Y97800D01*
X161000Y302000D02*Y300400D01*
Y302000D02*X162387Y302800D01*
X161000Y302000D02*X159613Y302800D01*
X168000Y297000D02*Y295400D01*
Y297000D02*X169387Y297800D01*
X168000Y297000D02*X166613Y297800D01*
X15000Y626250D02*Y624650D01*
Y626250D02*X16387Y627050D01*
X15000Y626250D02*X13613Y627050D01*
X135000Y628500D02*X136500Y625500D01*
X138000Y628500D01*
X136500Y625500D02*Y622500D01*
X139800Y625800D02*X142050D01*
X139800Y622500D02*X142800D01*
X139800Y628500D02*Y622500D01*
Y628500D02*X142800D01*
X147600D02*X148350Y627750D01*
X145350Y628500D02*X147600D01*
X144600Y627750D02*X145350Y628500D01*
X144600Y627750D02*Y626250D01*
X145350Y625500D01*
X147600D01*
X148350Y624750D01*
Y623250D01*
X147600Y622500D02*X148350Y623250D01*
X145350Y622500D02*X147600D01*
X144600Y623250D02*X145350Y622500D01*
X98750D02*X101750Y628500D01*
X98000D02*X101750D01*
X45000Y623250D02*X45750Y622500D01*
X45000Y627750D02*Y623250D01*
Y627750D02*X45750Y628500D01*
X47250D01*
X48000Y627750D01*
Y623250D01*
X47250Y622500D02*X48000Y623250D01*
X45750Y622500D02*X47250D01*
X45000Y624000D02*X48000Y627000D01*
X49800Y622500D02*X50550D01*
X52350Y623250D02*X53100Y622500D01*
X52350Y627750D02*Y623250D01*
Y627750D02*X53100Y628500D01*
X54600D01*
X55350Y627750D01*
Y623250D01*
X54600Y622500D02*X55350Y623250D01*
X53100Y622500D02*X54600D01*
X52350Y624000D02*X55350Y627000D01*
X57150Y627750D02*X57900Y628500D01*
X60150D01*
X60900Y627750D01*
Y626250D01*
X57150Y622500D02*X60900Y626250D01*
X57150Y622500D02*X60900D01*
X62700Y623250D02*X63450Y622500D01*
X62700Y627750D02*Y623250D01*
Y627750D02*X63450Y628500D01*
X64950D01*
X65700Y627750D01*
Y623250D01*
X64950Y622500D02*X65700Y623250D01*
X63450Y622500D02*X64950D01*
X62700Y624000D02*X65700Y627000D01*
X3000Y643500D02*X3750Y642750D01*
X750Y643500D02*X3000D01*
X0Y642750D02*X750Y643500D01*
X0Y642750D02*Y641250D01*
X750Y640500D01*
X3000D01*
X3750Y639750D01*
Y638250D01*
X3000Y637500D02*X3750Y638250D01*
X750Y637500D02*X3000D01*
X0Y638250D02*X750Y637500D01*
X5550Y640500D02*Y638250D01*
X6300Y637500D01*
X8550Y640500D02*Y636000D01*
X7800Y635250D02*X8550Y636000D01*
X6300Y635250D02*X7800D01*
X5550Y636000D02*X6300Y635250D01*
Y637500D02*X7800D01*
X8550Y638250D01*
X11100Y639750D02*Y637500D01*
Y639750D02*X11850Y640500D01*
X12600D01*
X13350Y639750D01*
Y637500D01*
Y639750D02*X14100Y640500D01*
X14850D01*
X15600Y639750D01*
Y637500D01*
X10350Y640500D02*X11100Y639750D01*
X17400Y643500D02*Y637500D01*
Y638250D02*X18150Y637500D01*
X19650D01*
X20400Y638250D01*
Y639750D02*Y638250D01*
X19650Y640500D02*X20400Y639750D01*
X18150Y640500D02*X19650D01*
X17400Y639750D02*X18150Y640500D01*
X22200Y639750D02*Y638250D01*
Y639750D02*X22950Y640500D01*
X24450D01*
X25200Y639750D01*
Y638250D01*
X24450Y637500D02*X25200Y638250D01*
X22950Y637500D02*X24450D01*
X22200Y638250D02*X22950Y637500D01*
X27000Y643500D02*Y638250D01*
X27750Y637500D01*
X0Y634250D02*X29250D01*
X41750Y643500D02*Y637500D01*
X43700Y643500D02*X44750Y642450D01*
Y638550D01*
X43700Y637500D02*X44750Y638550D01*
X41000Y637500D02*X43700D01*
X41000Y643500D02*X43700D01*
G54D123*X46550Y642000D02*Y641850D01*
G54D122*Y639750D02*Y637500D01*
X50300Y640500D02*X51050Y639750D01*
X48800Y640500D02*X50300D01*
X48050Y639750D02*X48800Y640500D01*
X48050Y639750D02*Y638250D01*
X48800Y637500D01*
X51050Y640500D02*Y638250D01*
X51800Y637500D01*
X48800D02*X50300D01*
X51050Y638250D01*
X54350Y639750D02*Y637500D01*
Y639750D02*X55100Y640500D01*
X55850D01*
X56600Y639750D01*
Y637500D01*
Y639750D02*X57350Y640500D01*
X58100D01*
X58850Y639750D01*
Y637500D01*
X53600Y640500D02*X54350Y639750D01*
X60650Y637500D02*X61400D01*
X65900Y638250D02*X66650Y637500D01*
X65900Y642750D02*X66650Y643500D01*
X65900Y642750D02*Y638250D01*
X68450Y643500D02*X69950D01*
X69200D02*Y637500D01*
X68450D02*X69950D01*
X72500Y639750D02*Y637500D01*
Y639750D02*X73250Y640500D01*
X74000D01*
X74750Y639750D01*
Y637500D01*
X71750Y640500D02*X72500Y639750D01*
X77300Y640500D02*X79550D01*
X76550Y639750D02*X77300Y640500D01*
X76550Y639750D02*Y638250D01*
X77300Y637500D01*
X79550D01*
X81350Y643500D02*Y637500D01*
Y639750D02*X82100Y640500D01*
X83600D01*
X84350Y639750D01*
Y637500D01*
X86150Y643500D02*X86900Y642750D01*
Y638250D01*
X86150Y637500D02*X86900Y638250D01*
X41000Y634250D02*X88700D01*
X96050Y637500D02*X98000D01*
X95000Y638550D02*X96050Y637500D01*
X95000Y642450D02*Y638550D01*
Y642450D02*X96050Y643500D01*
X98000D01*
X99800Y639750D02*Y638250D01*
Y639750D02*X100550Y640500D01*
X102050D01*
X102800Y639750D01*
Y638250D01*
X102050Y637500D02*X102800Y638250D01*
X100550Y637500D02*X102050D01*
X99800Y638250D02*X100550Y637500D01*
X104600Y640500D02*Y638250D01*
X105350Y637500D01*
X106850D01*
X107600Y638250D01*
Y640500D02*Y638250D01*
X110150Y639750D02*Y637500D01*
Y639750D02*X110900Y640500D01*
X111650D01*
X112400Y639750D01*
Y637500D01*
X109400Y640500D02*X110150Y639750D01*
X114950Y643500D02*Y638250D01*
X115700Y637500D01*
X114200Y641250D02*X115700D01*
X95000Y634250D02*X117200D01*
X130750Y643500D02*Y637500D01*
X130000Y643500D02*X133000D01*
X133750Y642750D01*
Y641250D01*
X133000Y640500D02*X133750Y641250D01*
X130750Y640500D02*X133000D01*
X135550Y643500D02*Y638250D01*
X136300Y637500D01*
X140050Y640500D02*X140800Y639750D01*
X138550Y640500D02*X140050D01*
X137800Y639750D02*X138550Y640500D01*
X137800Y639750D02*Y638250D01*
X138550Y637500D01*
X140800Y640500D02*Y638250D01*
X141550Y637500D01*
X138550D02*X140050D01*
X140800Y638250D01*
X144100Y643500D02*Y638250D01*
X144850Y637500D01*
X143350Y641250D02*X144850D01*
X147100Y637500D02*X149350D01*
X146350Y638250D02*X147100Y637500D01*
X146350Y639750D02*Y638250D01*
Y639750D02*X147100Y640500D01*
X148600D01*
X149350Y639750D01*
X146350Y639000D02*X149350D01*
Y639750D02*Y639000D01*
X154150Y643500D02*Y637500D01*
X153400D02*X154150Y638250D01*
X151900Y637500D02*X153400D01*
X151150Y638250D02*X151900Y637500D01*
X151150Y639750D02*Y638250D01*
Y639750D02*X151900Y640500D01*
X153400D01*
X154150Y639750D01*
X157450Y640500D02*Y639750D01*
Y638250D02*Y637500D01*
X155950Y642750D02*Y642000D01*
Y642750D02*X156700Y643500D01*
X158200D01*
X158950Y642750D01*
Y642000D01*
X157450Y640500D02*X158950Y642000D01*
X130000Y634250D02*X160750D01*
X0Y658500D02*X3000D01*
X1500D02*Y652500D01*
X4800Y658500D02*Y652500D01*
Y654750D02*X5550Y655500D01*
X7050D01*
X7800Y654750D01*
Y652500D01*
X10350D02*X12600D01*
X9600Y653250D02*X10350Y652500D01*
X9600Y654750D02*Y653250D01*
Y654750D02*X10350Y655500D01*
X11850D01*
X12600Y654750D01*
X9600Y654000D02*X12600D01*
Y654750D02*Y654000D01*
X15150Y654750D02*Y652500D01*
Y654750D02*X15900Y655500D01*
X17400D01*
X14400D02*X15150Y654750D01*
X19950Y652500D02*X22200D01*
X19200Y653250D02*X19950Y652500D01*
X19200Y654750D02*Y653250D01*
Y654750D02*X19950Y655500D01*
X21450D01*
X22200Y654750D01*
X19200Y654000D02*X22200D01*
Y654750D02*Y654000D01*
X28950Y655500D02*X29700Y654750D01*
X27450Y655500D02*X28950D01*
X26700Y654750D02*X27450Y655500D01*
X26700Y654750D02*Y653250D01*
X27450Y652500D01*
X29700Y655500D02*Y653250D01*
X30450Y652500D01*
X27450D02*X28950D01*
X29700Y653250D01*
X33000Y654750D02*Y652500D01*
Y654750D02*X33750Y655500D01*
X35250D01*
X32250D02*X33000Y654750D01*
X37800Y652500D02*X40050D01*
X37050Y653250D02*X37800Y652500D01*
X37050Y654750D02*Y653250D01*
Y654750D02*X37800Y655500D01*
X39300D01*
X40050Y654750D01*
X37050Y654000D02*X40050D01*
Y654750D02*Y654000D01*
X44550Y657300D02*X45750Y658500D01*
Y652500D01*
X44550D02*X46800D01*
X48600Y658500D02*X51600D01*
X48600D02*Y655500D01*
X49350Y656250D01*
X50850D01*
X51600Y655500D01*
Y653250D01*
X50850Y652500D02*X51600Y653250D01*
X49350Y652500D02*X50850D01*
X48600Y653250D02*X49350Y652500D01*
X59100Y658500D02*Y652500D01*
X58350D02*X59100Y653250D01*
X56850Y652500D02*X58350D01*
X56100Y653250D02*X56850Y652500D01*
X56100Y654750D02*Y653250D01*
Y654750D02*X56850Y655500D01*
X58350D01*
X59100Y654750D01*
G54D123*X60900Y657000D02*Y656850D01*
G54D122*Y654750D02*Y652500D01*
X63150Y657750D02*Y652500D01*
Y657750D02*X63900Y658500D01*
X64650D01*
X62400Y655500D02*X63900D01*
X66900Y657750D02*Y652500D01*
Y657750D02*X67650Y658500D01*
X68400D01*
X66150Y655500D02*X67650D01*
X70650Y652500D02*X72900D01*
X69900Y653250D02*X70650Y652500D01*
X69900Y654750D02*Y653250D01*
Y654750D02*X70650Y655500D01*
X72150D01*
X72900Y654750D01*
X69900Y654000D02*X72900D01*
Y654750D02*Y654000D01*
X75450Y654750D02*Y652500D01*
Y654750D02*X76200Y655500D01*
X77700D01*
X74700D02*X75450Y654750D01*
X80250Y652500D02*X82500D01*
X79500Y653250D02*X80250Y652500D01*
X79500Y654750D02*Y653250D01*
Y654750D02*X80250Y655500D01*
X81750D01*
X82500Y654750D01*
X79500Y654000D02*X82500D01*
Y654750D02*Y654000D01*
X85050Y654750D02*Y652500D01*
Y654750D02*X85800Y655500D01*
X86550D01*
X87300Y654750D01*
Y652500D01*
X84300Y655500D02*X85050Y654750D01*
X89850Y658500D02*Y653250D01*
X90600Y652500D01*
X89100Y656250D02*X90600D01*
X97800Y658500D02*Y652500D01*
X97050D02*X97800Y653250D01*
X95550Y652500D02*X97050D01*
X94800Y653250D02*X95550Y652500D01*
X94800Y654750D02*Y653250D01*
Y654750D02*X95550Y655500D01*
X97050D01*
X97800Y654750D01*
X100350D02*Y652500D01*
Y654750D02*X101100Y655500D01*
X102600D01*
X99600D02*X100350Y654750D01*
G54D123*X104400Y657000D02*Y656850D01*
G54D122*Y654750D02*Y652500D01*
X105900Y658500D02*Y653250D01*
X106650Y652500D01*
X108150Y658500D02*Y653250D01*
X108900Y652500D01*
X113850D02*X116100D01*
X116850Y653250D01*
X116100Y654000D02*X116850Y653250D01*
X113850Y654000D02*X116100D01*
X113100Y654750D02*X113850Y654000D01*
X113100Y654750D02*X113850Y655500D01*
X116100D01*
X116850Y654750D01*
X113100Y653250D02*X113850Y652500D01*
G54D123*X118650Y657000D02*Y656850D01*
G54D122*Y654750D02*Y652500D01*
X120150Y655500D02*X123150D01*
X120150Y652500D02*X123150Y655500D01*
X120150Y652500D02*X123150D01*
X125700D02*X127950D01*
X124950Y653250D02*X125700Y652500D01*
X124950Y654750D02*Y653250D01*
Y654750D02*X125700Y655500D01*
X127200D01*
X127950Y654750D01*
X124950Y654000D02*X127950D01*
Y654750D02*Y654000D01*
X130500Y652500D02*X132750D01*
X133500Y653250D01*
X132750Y654000D02*X133500Y653250D01*
X130500Y654000D02*X132750D01*
X129750Y654750D02*X130500Y654000D01*
X129750Y654750D02*X130500Y655500D01*
X132750D01*
X133500Y654750D01*
X129750Y653250D02*X130500Y652500D01*
X138000Y655500D02*Y653250D01*
X138750Y652500D01*
X140250D01*
X141000Y653250D01*
Y655500D02*Y653250D01*
X143550Y652500D02*X145800D01*
X146550Y653250D01*
X145800Y654000D02*X146550Y653250D01*
X143550Y654000D02*X145800D01*
X142800Y654750D02*X143550Y654000D01*
X142800Y654750D02*X143550Y655500D01*
X145800D01*
X146550Y654750D01*
X142800Y653250D02*X143550Y652500D01*
X149100D02*X151350D01*
X148350Y653250D02*X149100Y652500D01*
X148350Y654750D02*Y653250D01*
Y654750D02*X149100Y655500D01*
X150600D01*
X151350Y654750D01*
X148350Y654000D02*X151350D01*
Y654750D02*Y654000D01*
X156150Y658500D02*Y652500D01*
X155400D02*X156150Y653250D01*
X153900Y652500D02*X155400D01*
X153150Y653250D02*X153900Y652500D01*
X153150Y654750D02*Y653250D01*
Y654750D02*X153900Y655500D01*
X155400D01*
X156150Y654750D01*
G54D123*X160650Y657000D02*Y656850D01*
G54D122*Y654750D02*Y652500D01*
X162900Y654750D02*Y652500D01*
Y654750D02*X163650Y655500D01*
X164400D01*
X165150Y654750D01*
Y652500D01*
X162150Y655500D02*X162900Y654750D01*
X170400Y658500D02*Y653250D01*
X171150Y652500D01*
X169650Y656250D02*X171150D01*
X172650Y658500D02*Y652500D01*
Y654750D02*X173400Y655500D01*
X174900D01*
X175650Y654750D01*
Y652500D01*
G54D123*X177450Y657000D02*Y656850D01*
G54D122*Y654750D02*Y652500D01*
X179700D02*X181950D01*
X182700Y653250D01*
X181950Y654000D02*X182700Y653250D01*
X179700Y654000D02*X181950D01*
X178950Y654750D02*X179700Y654000D01*
X178950Y654750D02*X179700Y655500D01*
X181950D01*
X182700Y654750D01*
X178950Y653250D02*X179700Y652500D01*
X187200Y658500D02*Y653250D01*
X187950Y652500D01*
X191700Y655500D02*X192450Y654750D01*
X190200Y655500D02*X191700D01*
X189450Y654750D02*X190200Y655500D01*
X189450Y654750D02*Y653250D01*
X190200Y652500D01*
X192450Y655500D02*Y653250D01*
X193200Y652500D01*
X190200D02*X191700D01*
X192450Y653250D01*
X195000Y655500D02*Y653250D01*
X195750Y652500D01*
X198000Y655500D02*Y651000D01*
X197250Y650250D02*X198000Y651000D01*
X195750Y650250D02*X197250D01*
X195000Y651000D02*X195750Y650250D01*
Y652500D02*X197250D01*
X198000Y653250D01*
X199800Y654750D02*Y653250D01*
Y654750D02*X200550Y655500D01*
X202050D01*
X202800Y654750D01*
Y653250D01*
X202050Y652500D02*X202800Y653250D01*
X200550Y652500D02*X202050D01*
X199800Y653250D02*X200550Y652500D01*
X204600Y655500D02*Y653250D01*
X205350Y652500D01*
X206850D01*
X207600Y653250D01*
Y655500D02*Y653250D01*
X210150Y658500D02*Y653250D01*
X210900Y652500D01*
X209400Y656250D02*X210900D01*
X212400Y651000D02*X213900Y652500D01*
X218400Y657750D02*X219150Y658500D01*
X220650D01*
X221400Y657750D01*
X220650Y652500D02*X221400Y653250D01*
X219150Y652500D02*X220650D01*
X218400Y653250D02*X219150Y652500D01*
Y655800D02*X220650D01*
X221400Y657750D02*Y656550D01*
Y655050D02*Y653250D01*
Y655050D02*X220650Y655800D01*
X221400Y656550D02*X220650Y655800D01*
X223200Y654750D02*X226200Y658500D01*
X223200Y654750D02*X226950D01*
X226200Y658500D02*Y652500D01*
X228750Y653250D02*X229500Y652500D01*
X228750Y657750D02*Y653250D01*
Y657750D02*X229500Y658500D01*
X231000D01*
X231750Y657750D01*
Y653250D01*
X231000Y652500D02*X231750Y653250D01*
X229500Y652500D02*X231000D01*
X228750Y654000D02*X231750Y657000D01*
X236250Y658500D02*Y652500D01*
Y654750D02*X237000Y655500D01*
X238500D01*
X239250Y654750D01*
Y652500D01*
X241050Y654750D02*Y653250D01*
Y654750D02*X241800Y655500D01*
X243300D01*
X244050Y654750D01*
Y653250D01*
X243300Y652500D02*X244050Y653250D01*
X241800Y652500D02*X243300D01*
X241050Y653250D02*X241800Y652500D01*
X245850Y658500D02*Y653250D01*
X246600Y652500D01*
X248850D02*X251100D01*
X248100Y653250D02*X248850Y652500D01*
X248100Y654750D02*Y653250D01*
Y654750D02*X248850Y655500D01*
X250350D01*
X251100Y654750D01*
X248100Y654000D02*X251100D01*
Y654750D02*Y654000D01*
X253650Y652500D02*X255900D01*
X256650Y653250D01*
X255900Y654000D02*X256650Y653250D01*
X253650Y654000D02*X255900D01*
X252900Y654750D02*X253650Y654000D01*
X252900Y654750D02*X253650Y655500D01*
X255900D01*
X256650Y654750D01*
X252900Y653250D02*X253650Y652500D01*
X261900Y658500D02*Y653250D01*
X262650Y652500D01*
X261150Y656250D02*X262650D01*
X264150Y654750D02*Y653250D01*
Y654750D02*X264900Y655500D01*
X266400D01*
X267150Y654750D01*
Y653250D01*
X266400Y652500D02*X267150Y653250D01*
X264900Y652500D02*X266400D01*
X264150Y653250D02*X264900Y652500D01*
X269700Y658500D02*Y653250D01*
X270450Y652500D01*
X268950Y656250D02*X270450D01*
X274200Y655500D02*X274950Y654750D01*
X272700Y655500D02*X274200D01*
X271950Y654750D02*X272700Y655500D01*
X271950Y654750D02*Y653250D01*
X272700Y652500D01*
X274950Y655500D02*Y653250D01*
X275700Y652500D01*
X272700D02*X274200D01*
X274950Y653250D01*
X277500Y658500D02*Y653250D01*
X278250Y652500D01*
G54D124*X0Y360000D02*Y29900D01*
X29900D01*
Y0D01*
X303900D01*
Y28700D01*
X304300Y28300D01*
X386200D01*
Y0D01*
X660200D01*
Y30100D01*
X0Y360100D02*X200Y360300D01*
X30300D01*
X29700Y360900D01*
Y390000D01*
X320200D01*
Y364200D01*
X320400Y364400D01*
X370100D01*
Y390000D01*
X660000D01*
Y360000D01*
X660400Y359600D01*
X660000Y30000D02*X690000Y195000D01*
X660000Y360000D01*
G54D122*X258675Y-9500D02*X261675D01*
X262425Y-8750D01*
Y-6950D02*Y-8750D01*
X261675Y-6200D02*X262425Y-6950D01*
X259425Y-6200D02*X261675D01*
X259425Y-3500D02*Y-9500D01*
X258675Y-3500D02*X261675D01*
X262425Y-4250D01*
Y-5450D01*
X261675Y-6200D02*X262425Y-5450D01*
X264225Y-7250D02*Y-8750D01*
Y-7250D02*X264975Y-6500D01*
X266475D01*
X267225Y-7250D01*
Y-8750D01*
X266475Y-9500D02*X267225Y-8750D01*
X264975Y-9500D02*X266475D01*
X264225Y-8750D02*X264975Y-9500D01*
X271275Y-6500D02*X272025Y-7250D01*
X269775Y-6500D02*X271275D01*
X269025Y-7250D02*X269775Y-6500D01*
X269025Y-7250D02*Y-8750D01*
X269775Y-9500D01*
X272025Y-6500D02*Y-8750D01*
X272775Y-9500D01*
X269775D02*X271275D01*
X272025Y-8750D01*
X275325Y-7250D02*Y-9500D01*
Y-7250D02*X276075Y-6500D01*
X277575D01*
X274575D02*X275325Y-7250D01*
X282375Y-3500D02*Y-9500D01*
X281625D02*X282375Y-8750D01*
X280125Y-9500D02*X281625D01*
X279375Y-8750D02*X280125Y-9500D01*
X279375Y-7250D02*Y-8750D01*
Y-7250D02*X280125Y-6500D01*
X281625D01*
X282375Y-7250D01*
X286875D02*Y-8750D01*
Y-7250D02*X287625Y-6500D01*
X289125D01*
X289875Y-7250D01*
Y-8750D01*
X289125Y-9500D02*X289875Y-8750D01*
X287625Y-9500D02*X289125D01*
X286875Y-8750D02*X287625Y-9500D01*
X291675Y-6500D02*Y-8750D01*
X292425Y-9500D01*
X293925D01*
X294675Y-8750D01*
Y-6500D02*Y-8750D01*
X297225Y-3500D02*Y-8750D01*
X297975Y-9500D01*
X296475Y-5750D02*X297975D01*
X299475Y-3500D02*Y-8750D01*
X300225Y-9500D01*
G54D123*X301725Y-5000D02*Y-5150D01*
G54D122*Y-7250D02*Y-9500D01*
X303975Y-7250D02*Y-9500D01*
Y-7250D02*X304725Y-6500D01*
X305475D01*
X306225Y-7250D01*
Y-9500D01*
X303225Y-6500D02*X303975Y-7250D01*
X308775Y-9500D02*X311025D01*
X308025Y-8750D02*X308775Y-9500D01*
X308025Y-7250D02*Y-8750D01*
Y-7250D02*X308775Y-6500D01*
X310275D01*
X311025Y-7250D01*
X308025Y-8000D02*X311025D01*
Y-7250D02*Y-8000D01*
G54D123*X315525Y-5000D02*Y-5150D01*
G54D122*Y-7250D02*Y-9500D01*
X317775D02*X320025D01*
X320775Y-8750D01*
X320025Y-8000D02*X320775Y-8750D01*
X317775Y-8000D02*X320025D01*
X317025Y-7250D02*X317775Y-8000D01*
X317025Y-7250D02*X317775Y-6500D01*
X320025D01*
X320775Y-7250D01*
X317025Y-8750D02*X317775Y-9500D01*
X326025Y-3500D02*Y-8750D01*
X326775Y-9500D01*
X325275Y-5750D02*X326775D01*
X328275Y-3500D02*Y-9500D01*
Y-7250D02*X329025Y-6500D01*
X330525D01*
X331275Y-7250D01*
Y-9500D01*
X333825D02*X336075D01*
X333075Y-8750D02*X333825Y-9500D01*
X333075Y-7250D02*Y-8750D01*
Y-7250D02*X333825Y-6500D01*
X335325D01*
X336075Y-7250D01*
X333075Y-8000D02*X336075D01*
Y-7250D02*Y-8000D01*
X341325Y-6500D02*X343575D01*
X340575Y-7250D02*X341325Y-6500D01*
X340575Y-7250D02*Y-8750D01*
X341325Y-9500D01*
X343575D01*
X346125D02*X348375D01*
X345375Y-8750D02*X346125Y-9500D01*
X345375Y-7250D02*Y-8750D01*
Y-7250D02*X346125Y-6500D01*
X347625D01*
X348375Y-7250D01*
X345375Y-8000D02*X348375D01*
Y-7250D02*Y-8000D01*
X350925Y-7250D02*Y-9500D01*
Y-7250D02*X351675Y-6500D01*
X352425D01*
X353175Y-7250D01*
Y-9500D01*
X350175Y-6500D02*X350925Y-7250D01*
X355725Y-3500D02*Y-8750D01*
X356475Y-9500D01*
X354975Y-5750D02*X356475D01*
X358725Y-9500D02*X360975D01*
X357975Y-8750D02*X358725Y-9500D01*
X357975Y-7250D02*Y-8750D01*
Y-7250D02*X358725Y-6500D01*
X360225D01*
X360975Y-7250D01*
X357975Y-8000D02*X360975D01*
Y-7250D02*Y-8000D01*
X363525Y-7250D02*Y-9500D01*
Y-7250D02*X364275Y-6500D01*
X365775D01*
X362775D02*X363525Y-7250D01*
X367575Y-3500D02*Y-8750D01*
X368325Y-9500D01*
G54D123*X369825Y-5000D02*Y-5150D01*
G54D122*Y-7250D02*Y-9500D01*
X372075Y-7250D02*Y-9500D01*
Y-7250D02*X372825Y-6500D01*
X373575D01*
X374325Y-7250D01*
Y-9500D01*
X371325Y-6500D02*X372075Y-7250D01*
X376875Y-9500D02*X379125D01*
X376125Y-8750D02*X376875Y-9500D01*
X376125Y-7250D02*Y-8750D01*
Y-7250D02*X376875Y-6500D01*
X378375D01*
X379125Y-7250D01*
X376125Y-8000D02*X379125D01*
Y-7250D02*Y-8000D01*
X383625Y-7250D02*Y-8750D01*
Y-7250D02*X384375Y-6500D01*
X385875D01*
X386625Y-7250D01*
Y-8750D01*
X385875Y-9500D02*X386625Y-8750D01*
X384375Y-9500D02*X385875D01*
X383625Y-8750D02*X384375Y-9500D01*
X389175Y-4250D02*Y-9500D01*
Y-4250D02*X389925Y-3500D01*
X390675D01*
X388425Y-6500D02*X389925D01*
X395625Y-3500D02*Y-8750D01*
X396375Y-9500D01*
X394875Y-5750D02*X396375D01*
X397875Y-3500D02*Y-9500D01*
Y-7250D02*X398625Y-6500D01*
X400125D01*
X400875Y-7250D01*
Y-9500D01*
G54D123*X402675Y-5000D02*Y-5150D01*
G54D122*Y-7250D02*Y-9500D01*
X404925D02*X407175D01*
X407925Y-8750D01*
X407175Y-8000D02*X407925Y-8750D01*
X404925Y-8000D02*X407175D01*
X404175Y-7250D02*X404925Y-8000D01*
X404175Y-7250D02*X404925Y-6500D01*
X407175D01*
X407925Y-7250D01*
X404175Y-8750D02*X404925Y-9500D01*
X413175Y-7250D02*Y-11750D01*
X412425Y-6500D02*X413175Y-7250D01*
X413925Y-6500D01*
X415425D01*
X416175Y-7250D01*
Y-8750D01*
X415425Y-9500D02*X416175Y-8750D01*
X413925Y-9500D02*X415425D01*
X413175Y-8750D02*X413925Y-9500D01*
X420225Y-6500D02*X420975Y-7250D01*
X418725Y-6500D02*X420225D01*
X417975Y-7250D02*X418725Y-6500D01*
X417975Y-7250D02*Y-8750D01*
X418725Y-9500D01*
X420975Y-6500D02*Y-8750D01*
X421725Y-9500D01*
X418725D02*X420225D01*
X420975Y-8750D01*
X424275Y-3500D02*Y-8750D01*
X425025Y-9500D01*
X423525Y-5750D02*X425025D01*
X426525Y-3500D02*Y-9500D01*
Y-7250D02*X427275Y-6500D01*
X428775D01*
X429525Y-7250D01*
Y-9500D01*
X200750Y418500D02*Y412500D01*
X202700Y418500D02*X203750Y417450D01*
Y413550D01*
X202700Y412500D02*X203750Y413550D01*
X200000Y412500D02*X202700D01*
X200000Y418500D02*X202700D01*
X207800Y415500D02*X208550Y414750D01*
X206300Y415500D02*X207800D01*
X205550Y414750D02*X206300Y415500D01*
X205550Y414750D02*Y413250D01*
X206300Y412500D01*
X208550Y415500D02*Y413250D01*
X209300Y412500D01*
X206300D02*X207800D01*
X208550Y413250D01*
X211850Y418500D02*Y413250D01*
X212600Y412500D01*
X211100Y416250D02*X212600D01*
X214850Y412500D02*X217100D01*
X214100Y413250D02*X214850Y412500D01*
X214100Y414750D02*Y413250D01*
Y414750D02*X214850Y415500D01*
X216350D01*
X217100Y414750D01*
X214100Y414000D02*X217100D01*
Y414750D02*Y414000D01*
X218900Y416250D02*X219650D01*
X218900Y414750D02*X219650D01*
X227150Y418500D02*X227900Y417750D01*
X224900Y418500D02*X227150D01*
X224150Y417750D02*X224900Y418500D01*
X224150Y417750D02*Y416250D01*
X224900Y415500D01*
X227150D01*
X227900Y414750D01*
Y413250D01*
X227150Y412500D02*X227900Y413250D01*
X224900Y412500D02*X227150D01*
X224150Y413250D02*X224900Y412500D01*
X231950Y415500D02*X232700Y414750D01*
X230450Y415500D02*X231950D01*
X229700Y414750D02*X230450Y415500D01*
X229700Y414750D02*Y413250D01*
X230450Y412500D01*
X232700Y415500D02*Y413250D01*
X233450Y412500D01*
X230450D02*X231950D01*
X232700Y413250D01*
X236000Y418500D02*Y413250D01*
X236750Y412500D01*
X235250Y416250D02*X236750D01*
X240950Y417750D02*X241700Y418500D01*
X243950D01*
X244700Y417750D01*
Y416250D01*
X240950Y412500D02*X244700Y416250D01*
X240950Y412500D02*X244700D01*
X246500Y417750D02*X247250Y418500D01*
X249500D01*
X250250Y417750D01*
Y416250D01*
X246500Y412500D02*X250250Y416250D01*
X246500Y412500D02*X250250D01*
X254750Y417000D02*Y412500D01*
Y417000D02*X255800Y418500D01*
X257450D01*
X258500Y417000D01*
Y412500D01*
X254750Y415500D02*X258500D01*
X261050Y414750D02*Y410250D01*
X260300Y415500D02*X261050Y414750D01*
X261800Y415500D01*
X263300D01*
X264050Y414750D01*
Y413250D01*
X263300Y412500D02*X264050Y413250D01*
X261800Y412500D02*X263300D01*
X261050Y413250D02*X261800Y412500D01*
X266600Y414750D02*Y412500D01*
Y414750D02*X267350Y415500D01*
X268850D01*
X265850D02*X266600Y414750D01*
X273350Y417750D02*X274100Y418500D01*
X276350D01*
X277100Y417750D01*
Y416250D01*
X273350Y412500D02*X277100Y416250D01*
X273350Y412500D02*X277100D01*
X278900Y413250D02*X279650Y412500D01*
X278900Y417750D02*Y413250D01*
Y417750D02*X279650Y418500D01*
X281150D01*
X281900Y417750D01*
Y413250D01*
X281150Y412500D02*X281900Y413250D01*
X279650Y412500D02*X281150D01*
X278900Y414000D02*X281900Y417000D01*
X283700Y417300D02*X284900Y418500D01*
Y412500D01*
X283700D02*X285950D01*
X288500D02*X291500Y418500D01*
X287750D02*X291500D01*
X296000Y413250D02*X296750Y412500D01*
X296000Y417750D02*Y413250D01*
Y417750D02*X296750Y418500D01*
X298250D01*
X299000Y417750D01*
Y413250D01*
X298250Y412500D02*X299000Y413250D01*
X296750Y412500D02*X298250D01*
X296000Y414000D02*X299000Y417000D01*
X300800Y414750D02*X303800Y418500D01*
X300800Y414750D02*X304550D01*
X303800Y418500D02*Y412500D01*
X306350Y416250D02*X307100D01*
X306350Y414750D02*X307100D01*
X308900D02*X311900Y418500D01*
X308900Y414750D02*X312650D01*
X311900Y418500D02*Y412500D01*
X314450Y418500D02*X317450D01*
X314450D02*Y415500D01*
X315200Y416250D01*
X316700D01*
X317450Y415500D01*
Y413250D01*
X316700Y412500D02*X317450Y413250D01*
X315200Y412500D02*X316700D01*
X314450Y413250D02*X315200Y412500D01*
X319250Y416250D02*X320000D01*
X319250Y414750D02*X320000D01*
X321800Y418500D02*X324800D01*
X321800D02*Y415500D01*
X322550Y416250D01*
X324050D01*
X324800Y415500D01*
Y413250D01*
X324050Y412500D02*X324800Y413250D01*
X322550Y412500D02*X324050D01*
X321800Y413250D02*X322550Y412500D01*
X326600Y417750D02*X327350Y418500D01*
X329600D01*
X330350Y417750D01*
Y416250D01*
X326600Y412500D02*X330350Y416250D01*
X326600Y412500D02*X330350D01*
X334850Y417000D02*Y412500D01*
Y417000D02*X335900Y418500D01*
X337550D01*
X338600Y417000D01*
Y412500D01*
X334850Y415500D02*X338600D01*
X340400Y418500D02*Y412500D01*
Y418500D02*X342650Y415500D01*
X344900Y418500D01*
Y412500D01*
X352400Y418500D02*X353150Y417750D01*
X350150Y418500D02*X352400D01*
X349400Y417750D02*X350150Y418500D01*
X349400Y417750D02*Y413250D01*
X350150Y412500D01*
X352400D01*
X353150Y413250D01*
Y414750D02*Y413250D01*
X352400Y415500D02*X353150Y414750D01*
X350900Y415500D02*X352400D01*
X354950Y418500D02*Y412500D01*
Y418500D02*X357200Y415500D01*
X359450Y418500D01*
Y412500D01*
X361250Y418500D02*X364250D01*
X362750D02*Y412500D01*
X368750Y418500D02*Y413250D01*
X369500Y412500D01*
X371000D01*
X371750Y413250D01*
Y418500D02*Y413250D01*
X373550Y418500D02*X376550D01*
X375050D02*Y412500D01*
X379400D02*X381350D01*
X378350Y413550D02*X379400Y412500D01*
X378350Y417450D02*Y413550D01*
Y417450D02*X379400Y418500D01*
X381350D01*
X200000Y432000D02*Y427500D01*
Y432000D02*X201050Y433500D01*
X202700D01*
X203750Y432000D01*
Y427500D01*
X200000Y430500D02*X203750D01*
X205550D02*Y428250D01*
X206300Y427500D01*
X207800D01*
X208550Y428250D01*
Y430500D02*Y428250D01*
X211100Y433500D02*Y428250D01*
X211850Y427500D01*
X210350Y431250D02*X211850D01*
X213350Y433500D02*Y427500D01*
Y429750D02*X214100Y430500D01*
X215600D01*
X216350Y429750D01*
Y427500D01*
X218150Y429750D02*Y428250D01*
Y429750D02*X218900Y430500D01*
X220400D01*
X221150Y429750D01*
Y428250D01*
X220400Y427500D02*X221150Y428250D01*
X218900Y427500D02*X220400D01*
X218150Y428250D02*X218900Y427500D01*
X223700Y429750D02*Y427500D01*
Y429750D02*X224450Y430500D01*
X225950D01*
X222950D02*X223700Y429750D01*
X227750Y431250D02*X228500D01*
X227750Y429750D02*X228500D01*
X233000Y433500D02*X234500Y427500D01*
X236000Y433500D01*
G54D123*X237800Y432000D02*Y431850D01*
G54D122*Y429750D02*Y427500D01*
X240050Y429750D02*Y427500D01*
Y429750D02*X240800Y430500D01*
X241550D01*
X242300Y429750D01*
Y427500D01*
X239300Y430500D02*X240050Y429750D01*
X244850Y430500D02*X247100D01*
X244100Y429750D02*X244850Y430500D01*
X244100Y429750D02*Y428250D01*
X244850Y427500D01*
X247100D01*
X249650D02*X251900D01*
X248900Y428250D02*X249650Y427500D01*
X248900Y429750D02*Y428250D01*
Y429750D02*X249650Y430500D01*
X251150D01*
X251900Y429750D01*
X248900Y429000D02*X251900D01*
Y429750D02*Y429000D01*
X256400Y433500D02*Y430500D01*
X257150Y427500D01*
X258650Y430500D01*
X260150Y427500D01*
X260900Y430500D01*
Y433500D02*Y430500D01*
X263450Y427500D02*X265700D01*
X262700Y428250D02*X263450Y427500D01*
X262700Y429750D02*Y428250D01*
Y429750D02*X263450Y430500D01*
X264950D01*
X265700Y429750D01*
X262700Y429000D02*X265700D01*
Y429750D02*Y429000D01*
X269750Y430500D02*X270500Y429750D01*
X268250Y430500D02*X269750D01*
X267500Y429750D02*X268250Y430500D01*
X267500Y429750D02*Y428250D01*
X268250Y427500D01*
X270500Y430500D02*Y428250D01*
X271250Y427500D01*
X268250D02*X269750D01*
X270500Y428250D01*
X273050Y430500D02*X274550Y427500D01*
X276050Y430500D02*X274550Y427500D01*
X278600D02*X280850D01*
X277850Y428250D02*X278600Y427500D01*
X277850Y429750D02*Y428250D01*
Y429750D02*X278600Y430500D01*
X280100D01*
X280850Y429750D01*
X277850Y429000D02*X280850D01*
Y429750D02*Y429000D01*
X283400Y429750D02*Y427500D01*
Y429750D02*X284150Y430500D01*
X285650D01*
X282650D02*X283400Y429750D01*
X200000Y448500D02*X203000D01*
X201500D02*Y442500D01*
G54D123*X204800Y447000D02*Y446850D01*
G54D122*Y444750D02*Y442500D01*
X207050Y448500D02*Y443250D01*
X207800Y442500D01*
X206300Y446250D02*X207800D01*
X209300Y448500D02*Y443250D01*
X210050Y442500D01*
X212300D02*X214550D01*
X211550Y443250D02*X212300Y442500D01*
X211550Y444750D02*Y443250D01*
Y444750D02*X212300Y445500D01*
X213800D01*
X214550Y444750D01*
X211550Y444000D02*X214550D01*
Y444750D02*Y444000D01*
X216350Y446250D02*X217100D01*
X216350Y444750D02*X217100D01*
X221600Y443250D02*X222350Y442500D01*
X221600Y447750D02*X222350Y448500D01*
X221600Y447750D02*Y443250D01*
X224150Y445500D02*Y443250D01*
X224900Y442500D01*
X226400D01*
X227150Y443250D01*
Y445500D02*Y443250D01*
X229700Y444750D02*Y442500D01*
Y444750D02*X230450Y445500D01*
X231200D01*
X231950Y444750D01*
Y442500D01*
X228950Y445500D02*X229700Y444750D01*
X233750Y448500D02*Y442500D01*
Y444750D02*X236000Y442500D01*
X233750Y444750D02*X235250Y446250D01*
X238550Y444750D02*Y442500D01*
Y444750D02*X239300Y445500D01*
X240050D01*
X240800Y444750D01*
Y442500D01*
X237800Y445500D02*X238550Y444750D01*
X242600D02*Y443250D01*
Y444750D02*X243350Y445500D01*
X244850D01*
X245600Y444750D01*
Y443250D01*
X244850Y442500D02*X245600Y443250D01*
X243350Y442500D02*X244850D01*
X242600Y443250D02*X243350Y442500D01*
X247400Y445500D02*Y443250D01*
X248150Y442500D01*
X248900D01*
X249650Y443250D01*
Y445500D02*Y443250D01*
X250400Y442500D01*
X251150D01*
X251900Y443250D01*
Y445500D02*Y443250D01*
X254450Y444750D02*Y442500D01*
Y444750D02*X255200Y445500D01*
X255950D01*
X256700Y444750D01*
Y442500D01*
X253700Y445500D02*X254450Y444750D01*
X258500Y448500D02*X259250Y447750D01*
Y443250D01*
X258500Y442500D02*X259250Y443250D01*
X263750Y445500D02*X266750D01*
X271250Y448500D02*Y442500D01*
Y448500D02*X274250D01*
X271250Y445800D02*X273500D01*
X278300Y445500D02*X279050Y444750D01*
X276800Y445500D02*X278300D01*
X276050Y444750D02*X276800Y445500D01*
X276050Y444750D02*Y443250D01*
X276800Y442500D01*
X279050Y445500D02*Y443250D01*
X279800Y442500D01*
X276800D02*X278300D01*
X279050Y443250D01*
X281600Y448500D02*Y442500D01*
Y443250D02*X282350Y442500D01*
X283850D01*
X284600Y443250D01*
Y444750D02*Y443250D01*
X283850Y445500D02*X284600Y444750D01*
X282350Y445500D02*X283850D01*
X281600Y444750D02*X282350Y445500D01*
X287150Y444750D02*Y442500D01*
Y444750D02*X287900Y445500D01*
X289400D01*
X286400D02*X287150Y444750D01*
G54D123*X291200Y447000D02*Y446850D01*
G54D122*Y444750D02*Y442500D01*
X293450Y445500D02*X295700D01*
X292700Y444750D02*X293450Y445500D01*
X292700Y444750D02*Y443250D01*
X293450Y442500D01*
X295700D01*
X299750Y445500D02*X300500Y444750D01*
X298250Y445500D02*X299750D01*
X297500Y444750D02*X298250Y445500D01*
X297500Y444750D02*Y443250D01*
X298250Y442500D01*
X300500Y445500D02*Y443250D01*
X301250Y442500D01*
X298250D02*X299750D01*
X300500Y443250D01*
X303800Y448500D02*Y443250D01*
X304550Y442500D01*
X303050Y446250D02*X304550D01*
G54D123*X306050Y447000D02*Y446850D01*
G54D122*Y444750D02*Y442500D01*
X307550Y444750D02*Y443250D01*
Y444750D02*X308300Y445500D01*
X309800D01*
X310550Y444750D01*
Y443250D01*
X309800Y442500D02*X310550Y443250D01*
X308300Y442500D02*X309800D01*
X307550Y443250D02*X308300Y442500D01*
X313100Y444750D02*Y442500D01*
Y444750D02*X313850Y445500D01*
X314600D01*
X315350Y444750D01*
Y442500D01*
X312350Y445500D02*X313100Y444750D01*
X320600Y448500D02*Y442500D01*
X322550Y448500D02*X323600Y447450D01*
Y443550D01*
X322550Y442500D02*X323600Y443550D01*
X319850Y442500D02*X322550D01*
X319850Y448500D02*X322550D01*
X326150Y444750D02*Y442500D01*
Y444750D02*X326900Y445500D01*
X328400D01*
X325400D02*X326150Y444750D01*
X332450Y445500D02*X333200Y444750D01*
X330950Y445500D02*X332450D01*
X330200Y444750D02*X330950Y445500D01*
X330200Y444750D02*Y443250D01*
X330950Y442500D01*
X333200Y445500D02*Y443250D01*
X333950Y442500D01*
X330950D02*X332450D01*
X333200Y443250D01*
X335750Y445500D02*Y443250D01*
X336500Y442500D01*
X337250D01*
X338000Y443250D01*
Y445500D02*Y443250D01*
X338750Y442500D01*
X339500D01*
X340250Y443250D01*
Y445500D02*Y443250D01*
G54D123*X342050Y447000D02*Y446850D01*
G54D122*Y444750D02*Y442500D01*
X344300Y444750D02*Y442500D01*
Y444750D02*X345050Y445500D01*
X345800D01*
X346550Y444750D01*
Y442500D01*
X343550Y445500D02*X344300Y444750D01*
X350600Y445500D02*X351350Y444750D01*
X349100Y445500D02*X350600D01*
X348350Y444750D02*X349100Y445500D01*
X348350Y444750D02*Y443250D01*
X349100Y442500D01*
X350600D01*
X351350Y443250D01*
X348350Y441000D02*X349100Y440250D01*
X350600D01*
X351350Y441000D01*
Y445500D02*Y441000D01*
M02*
