G04 start of page 12 for group -4014 idx -4014 *
G04 Title: (unknown), bottompaste *
G04 Creator: pcb 20140316 *
G04 CreationDate: Sat 22 Apr 2017 04:45:52 AM GMT UTC *
G04 For: vince *
G04 Format: Gerber/RS-274X *
G04 PCB-Dimensions (mil): 6900.00 3900.00 *
G04 PCB-Coordinate-Origin: lower left *
%MOIN*%
%FSLAX25Y25*%
%LNBOTTOMPASTE*%
%ADD120C,0.0600*%
G54D120*X413955Y196000D02*X416955D01*
X413955Y186000D02*X416955D01*
X413955Y176000D02*X416955D01*
X413955Y166000D02*X416955D01*
X413955Y156000D02*X416955D01*
X413955Y146000D02*X416955D01*
X413955Y136000D02*X416955D01*
X383955D02*X386955D01*
X383955Y146000D02*X386955D01*
X383955Y156000D02*X386955D01*
X383955Y166000D02*X386955D01*
X383955Y176000D02*X386955D01*
X383955Y186000D02*X386955D01*
X383955Y196000D02*X386955D01*
X413500Y94500D02*X416500D01*
X413500Y84500D02*X416500D01*
X413500Y74500D02*X416500D01*
X413500Y64500D02*X416500D01*
X413500Y54500D02*X416500D01*
X413500Y44500D02*X416500D01*
X413500Y34500D02*X416500D01*
X383500D02*X386500D01*
X383500Y44500D02*X386500D01*
X383500Y54500D02*X386500D01*
X383500Y64500D02*X386500D01*
X383500Y74500D02*X386500D01*
X383500Y84500D02*X386500D01*
X383500Y94500D02*X386500D01*
X407500Y343000D02*X410500D01*
X407500Y333000D02*X410500D01*
X407500Y323000D02*X410500D01*
X407500Y313000D02*X410500D01*
X407500Y303000D02*X410500D01*
X407500Y293000D02*X410500D01*
X407500Y283000D02*X410500D01*
X377500D02*X380500D01*
X377500Y293000D02*X380500D01*
X377500Y303000D02*X380500D01*
X377500Y313000D02*X380500D01*
X377500Y323000D02*X380500D01*
X377500Y333000D02*X380500D01*
X377500Y343000D02*X380500D01*
X54500Y115000D02*X57500D01*
X54500Y125000D02*X57500D01*
X54500Y135000D02*X57500D01*
X54500Y145000D02*X57500D01*
X54500Y155000D02*X57500D01*
X54500Y165000D02*X57500D01*
X54500Y175000D02*X57500D01*
X54500Y185000D02*X57500D01*
X24500D02*X27500D01*
X24500Y175000D02*X27500D01*
X24500Y165000D02*X27500D01*
X24500Y155000D02*X27500D01*
X24500Y145000D02*X27500D01*
X24500Y135000D02*X27500D01*
X24500Y125000D02*X27500D01*
X24500Y115000D02*X27500D01*
X218485Y131413D02*X221485D01*
X218485Y141413D02*X221485D01*
X218485Y151413D02*X221485D01*
X218485Y161413D02*X221485D01*
X218485Y171413D02*X221485D01*
X218485Y181413D02*X221485D01*
X218485Y191413D02*X221485D01*
X218485Y201413D02*X221485D01*
X188485D02*X191485D01*
X188485Y191413D02*X191485D01*
X188485Y181413D02*X191485D01*
X188485Y171413D02*X191485D01*
X188485Y161413D02*X191485D01*
X188485Y151413D02*X191485D01*
X188485Y141413D02*X191485D01*
X188485Y131413D02*X191485D01*
M02*
