G04 start of page 3 for group 5 idx 5 *
G04 Title: (unknown), bottom *
G04 Creator: pcb 20140316 *
G04 CreationDate: Sat 22 Apr 2017 04:45:52 AM GMT UTC *
G04 For: vince *
G04 Format: Gerber/RS-274X *
G04 PCB-Dimensions (mil): 6900.00 3900.00 *
G04 PCB-Coordinate-Origin: lower left *
%MOIN*%
%FSLAX25Y25*%
%LNBOTTOM*%
%ADD62C,0.1000*%
%ADD61C,0.0472*%
%ADD60C,0.0420*%
%ADD59C,0.0315*%
%ADD58C,0.0591*%
%ADD57C,0.0285*%
%ADD56C,0.1181*%
%ADD55C,0.1083*%
%ADD54C,0.0380*%
%ADD53C,0.1285*%
%ADD52C,0.0280*%
%ADD51C,0.1260*%
%ADD50C,0.0300*%
%ADD49C,0.0200*%
%ADD48C,0.0350*%
%ADD47C,0.0500*%
%ADD46C,0.0827*%
%ADD45C,0.0720*%
%ADD44C,0.0551*%
%ADD43C,0.0650*%
%ADD42C,0.0550*%
%ADD41C,0.0001*%
%ADD40C,0.0600*%
%ADD39C,0.0400*%
%ADD38C,0.0120*%
%ADD37C,0.0250*%
G54D37*X520193Y205307D02*X506913Y218587D01*
X499500Y145500D02*X510000Y135000D01*
Y108500D01*
X498000Y96500D01*
G54D38*X448280Y218453D02*X453327Y223500D01*
G54D37*X448280Y158453D02*Y158280D01*
Y168453D02*X440953D01*
G54D39*X458280D02*X473453D01*
X473500Y168500D01*
G54D38*X458280Y178720D02*Y178453D01*
Y178720D02*X453500Y183500D01*
X437500D01*
X436500Y182500D01*
G54D37*X431500Y198000D02*X447827D01*
X448280Y198453D01*
G54D39*X458280Y208453D02*X489953D01*
X490000Y208500D01*
X365500Y238500D02*X327830D01*
X327801Y238529D01*
G54D37*X287193Y220339D02*X342626Y197378D01*
G54D39*X328000Y238500D02*X294847Y238817D01*
G54D38*X297000Y151500D02*X316500Y157500D01*
X294500Y150500D02*X297765Y151735D01*
X288500Y118500D02*X295500Y103313D01*
X295472Y103372D02*X297570Y102370D01*
X299000Y189500D02*X308500D01*
X319000Y158000D02*X336000Y152000D01*
X316500Y157500D02*X319370Y157870D01*
X340000Y152500D02*X385455Y166000D01*
G54D39*X400000Y106500D02*X397000D01*
G54D38*X336000Y152000D02*X340500Y152648D01*
G54D39*X395500Y207500D02*Y208000D01*
X365000Y238500D01*
X385455Y196000D02*Y197455D01*
X395500Y207500D01*
G54D37*X415455Y186000D02*X419500D01*
X431500Y198000D01*
X458280Y108453D02*X476421D01*
Y108921D01*
X483500Y116000D01*
X458280Y98453D02*X497047D01*
X498500Y97000D01*
X473000Y91500D02*X493374D01*
X498374Y86500D01*
G54D39*X458280Y128453D02*X489047D01*
X489500Y128000D01*
G54D37*X448280Y138453D02*X444953D01*
X435000Y128500D01*
Y74500D01*
X415000Y54500D01*
X428500Y98000D02*X415000Y84500D01*
X402500Y61000D02*Y100000D01*
G54D38*X415000Y44500D02*X404000D01*
G54D37*X402500Y100000D02*X424000Y121500D01*
G54D39*X400000Y116500D02*X378000D01*
X365000Y103500D01*
Y94500D01*
X397000Y106500D02*X385000Y94500D01*
G54D37*Y44500D02*X386000D01*
X402500Y61000D01*
G54D39*X365000Y94500D02*X385000Y74500D01*
G54D38*X316170Y94570D02*X363100Y39500D01*
X404000Y44500D02*X399000Y39500D01*
X363000D01*
G54D37*X440953Y168453D02*X425000Y152500D01*
X429000Y139173D02*X448280Y158453D01*
G54D38*X435000Y181000D02*X437000Y183000D01*
X422500Y161000D02*X430000Y168500D01*
Y171000D01*
G54D37*X425000Y152500D02*Y122500D01*
X429000Y98500D02*Y139173D01*
X425000Y122500D02*X424500Y122000D01*
G54D38*X385455Y176000D02*X390455Y181000D01*
X435000D01*
X415455Y176000D02*X410455Y171000D01*
X361500D01*
X385455Y146000D02*X400455Y161000D01*
X423000D01*
G54D37*X385000Y34500D02*X384000Y33500D01*
X264500Y34000D02*X384500D01*
X385000Y34500D01*
X571000Y190000D02*Y173000D01*
X561000Y163000D01*
X546500Y178500D02*Y167500D01*
X561000Y153000D01*
X545500Y215500D02*X571000Y190000D01*
X520193Y205045D02*Y204807D01*
X546500Y178500D01*
G54D39*X458280Y278453D02*X492453D01*
X492500Y278500D01*
G54D38*X458280Y268453D02*X458327Y268500D01*
X495100D01*
X508000Y281400D01*
G54D39*X405000Y260000D02*X415000Y250000D01*
G54D37*Y240000D02*X431500Y256500D01*
G54D39*X437000Y252000D02*X415000Y230000D01*
X409000Y283000D02*X404000Y278000D01*
Y261000D01*
X390500Y293000D02*X404750Y278750D01*
X379000Y293000D02*X390500D01*
G54D38*X409000D02*X404500D01*
X399500Y298000D01*
X400100Y297400D01*
G54D39*X395500Y207000D02*Y264500D01*
X388000Y272000D01*
G54D37*X431500Y310000D02*X442000Y320500D01*
G54D38*X419250Y315750D02*Y321750D01*
G54D39*X437000Y307100D02*X444700Y314800D01*
G54D37*X431500Y256500D02*Y310000D01*
G54D39*X437000Y282000D02*Y252000D01*
G54D37*X415000Y260000D02*X425500Y270500D01*
Y313500D02*X439000Y327000D01*
G54D38*X419250Y321750D02*X413000Y328000D01*
G54D37*X425500Y270500D02*Y313500D01*
X430500Y342000D02*X420500D01*
G54D39*X437000Y282200D02*Y307100D01*
G54D38*X414600Y337400D02*X409000Y343000D01*
X413750Y338250D02*X418150Y333850D01*
G54D39*X388000Y272000D02*X373500D01*
G54D38*X409000Y323000D02*Y322500D01*
X394500Y308000D01*
X413000Y328000D02*X384000D01*
X379000Y323000D01*
X394750Y307950D02*X372250D01*
X372800D02*X372650D01*
G54D37*X439000Y327000D02*X474500D01*
X482500Y319000D01*
G54D38*X418150Y333850D02*X488950D01*
X508000Y314800D01*
G54D37*X442000Y320500D02*X469000D01*
G54D39*X444700Y314800D02*X467300D01*
X473500Y308600D01*
G54D37*X469000Y320500D02*X489500Y300000D01*
X499500D01*
G54D38*X508000Y281400D02*Y314800D01*
Y314100D01*
G54D37*X458280Y218453D02*X458327Y218500D01*
X506913Y218587D02*X458413D01*
G54D38*X453327Y223500D02*X537500D01*
X545500Y215500D01*
G54D37*X473500Y256000D02*X545000D01*
X535500Y242000D02*Y245500D01*
X545500Y255500D01*
X555500Y242000D02*Y245500D01*
X545000Y256000D02*X555500Y245500D01*
G54D38*X231500Y156500D02*X236000Y161000D01*
X257000D01*
X248250Y173250D02*X299000Y162500D01*
X317000Y180500D01*
X308000Y189500D02*X317000D01*
X270500Y200000D02*X299000Y189500D01*
X252000Y199000D02*X270500Y200000D01*
G54D37*X286943Y220443D02*X258000Y212500D01*
G54D39*X265580Y281420D02*X295000Y252000D01*
Y239320D01*
X294500Y238820D01*
G54D38*X317000Y180500D02*X341500Y171000D01*
X317000Y189500D02*X349500Y180000D01*
X341500Y171000D02*X364000D01*
G54D39*X350280Y215856D02*X366500Y199636D01*
Y196500D01*
X377000Y186000D01*
X385455D01*
G54D38*X349500Y180000D02*X374000Y176000D01*
G54D39*X373500Y272000D02*X362500Y283000D01*
G54D38*X357750Y297950D02*X399750D01*
X351500Y291500D02*Y291750D01*
X357500Y297750D01*
G54D39*X365500Y238500D02*Y261000D01*
X376500Y272000D01*
G54D37*X317500Y314500D02*X328000Y304000D01*
X354300Y303800D02*X328200D01*
X328150Y303850D01*
X379000Y313000D02*X371200D01*
X368700Y310500D01*
X361000D01*
X354500Y304000D01*
G54D38*X372650Y307950D02*X369800Y305100D01*
X360900D01*
X356200Y300400D01*
X356300Y300500D02*X271500D01*
X270100Y301900D01*
G54D39*X258500Y346000D02*X259000Y345500D01*
X150731Y350160D02*X166572Y366000D01*
X181440Y350160D02*Y350060D01*
X167661Y350160D02*Y349839D01*
X166572Y366000D02*X258500D01*
X279000Y345500D01*
X257500Y343500D02*X259250Y345250D01*
X269500Y345000D02*X269000Y345500D01*
X136952Y350160D02*X160792Y374000D01*
X263000D01*
X181440Y350060D02*X188000Y343500D01*
X257500D01*
G54D37*X208500Y314500D02*X317500D01*
G54D38*X195000Y291500D02*X351500D01*
X161000Y302000D02*X270000D01*
G54D39*X263000Y374000D02*X289000Y348000D01*
Y345500D01*
G54D37*X420500Y342000D02*X397500Y365000D01*
X379000D01*
X373000Y347500D02*Y358500D01*
X379000Y364500D01*
Y365000D01*
X345500Y350500D02*X357000Y339000D01*
X364500D01*
X373000Y347500D01*
G54D39*X189699Y191699D02*X210500Y203500D01*
Y219000D01*
G54D37*X153000Y212500D02*X165500Y207500D01*
X230000Y238500D02*Y232500D01*
X165500Y247500D02*X143500Y238000D01*
X230000Y238500D02*X245500Y247500D01*
X165000Y247284D02*X189000Y238500D01*
X230000Y232500D02*X223500Y227500D01*
X258000Y212500D02*X245500Y207500D01*
X223500Y227500D02*X140000Y227000D01*
G54D39*X199000Y259500D02*X220000Y238500D01*
G54D37*X68089Y197311D02*X123522Y220272D01*
G54D38*X66000Y170000D02*X100500Y183000D01*
X114500Y166500D02*X97000Y169500D01*
X73500Y160000D02*X89500Y170000D01*
X97500Y169414D01*
X100500Y183000D02*X132000Y186000D01*
X145500Y191000D01*
X149500Y183000D02*X114500Y166500D01*
X130000Y168000D02*X94227Y149073D01*
G54D37*X123500Y220263D02*X127349Y211033D01*
X153000Y212500D01*
G54D38*X145500Y191000D02*X189985Y181413D01*
X195072Y186500D01*
X239500D02*X252000Y199000D01*
X189985Y171413D02*X149500Y183000D01*
X195072Y156500D02*X231500D01*
X190318Y171318D02*X204182D01*
X208500Y167000D01*
X195072Y186500D02*X239500D01*
X208000Y167500D02*X209000Y166500D01*
X226500D01*
G54D37*X253500Y58050D02*X229791Y81758D01*
X228500Y81500D02*X229274Y82274D01*
X253025Y58525D02*Y45475D01*
X264500Y34000D01*
G54D38*X252752Y137190D02*X265310D01*
G54D39*X237244Y100244D02*X265000Y89500D01*
G54D38*X297500Y102400D02*X316240Y94540D01*
X226500Y166500D02*X233197Y173197D01*
X248500D01*
X259000Y161500D02*X294500Y150500D01*
X257000Y161000D02*X259000Y161500D01*
G54D39*X248925Y127952D02*X275000Y113500D01*
G54D38*X265000Y137190D02*X288500Y118500D01*
X245000Y118712D02*X283500Y97000D01*
X242500Y136600D02*X243090Y137190D01*
X252752D01*
G54D39*X189985Y131413D02*X190072Y131500D01*
G54D38*X189985Y151413D02*X195072Y156500D01*
X162400Y111900D02*X178200Y118500D01*
X170189Y135900D02*X170889Y136600D01*
X178130Y118470D02*X245098Y118713D01*
X170889Y136600D02*X242500D01*
G54D39*X106357Y104923D02*X136000Y114500D01*
G54D38*X102530Y114162D02*X170500Y136000D01*
X160500Y111000D02*X110184Y95685D01*
X160270Y110930D02*X162470Y111930D01*
G54D39*X117838Y77207D02*X147500Y88000D01*
X117500Y77084D02*X116584D01*
X107500Y68000D01*
Y47000D01*
G54D37*X34476Y70465D02*Y91024D01*
X5500Y120000D01*
G54D39*X26000Y115000D02*X20000D01*
X13500Y121500D01*
G54D37*X5500Y120000D02*Y195714D01*
G54D39*X26000Y175000D02*X21500D01*
X13500Y167000D01*
Y127500D01*
Y121500D02*Y127000D01*
X107500Y47000D02*X108500D01*
X125000Y30500D01*
X154500D01*
X174500Y10500D01*
G54D37*X206000Y39000D02*X234500Y10500D01*
X125491Y58730D02*X155270D01*
X129319Y49491D02*X205509D01*
X206000Y49000D01*
Y49491D02*Y39000D01*
X206009Y49491D02*Y62509D01*
X155270Y58730D02*X159500Y54500D01*
X191000D01*
X198500Y62000D01*
Y68500D01*
X211500Y81500D01*
X228500D01*
X206009Y62509D02*X216000Y72500D01*
X225946D01*
X225964Y72519D01*
G54D38*X110500Y324500D02*X110000Y324000D01*
G54D39*X86500Y315500D02*X106612D01*
G54D37*X144548Y238452D02*X129000Y255500D01*
X76500Y261000D01*
X140503Y227003D02*X120000Y249000D01*
X70500Y254500D01*
X71000Y254444D02*X58000Y237000D01*
G54D39*X150756Y296976D02*X95616Y352115D01*
X106612Y315500D02*X140692Y281420D01*
X140556Y281556D02*Y266444D01*
X147500Y259500D01*
X56246Y352115D02*Y345754D01*
X86500Y315500D01*
X60435Y215789D02*X83478Y237522D01*
X60063Y215437D02*X52000Y209500D01*
X51500Y195500D01*
G54D37*X58000Y237000D02*X28000Y237500D01*
X14000Y203500D01*
X5500Y195714D02*X14500Y204714D01*
G54D39*X51500Y195500D02*X33500Y175000D01*
X26000D01*
G54D38*Y165000D02*X41500D01*
X46500Y170000D01*
X66000D01*
X32000Y160000D02*X26000Y155000D01*
X32000Y160000D02*X73500D01*
X26000Y135000D02*X31100Y140100D01*
X66900D01*
X71879Y145079D01*
X84500Y144400D02*X94700Y149300D01*
X71900Y145100D02*X84500Y144400D01*
G54D39*X184000Y333500D02*X265000D01*
X269500Y338000D01*
Y345000D01*
X170556Y281556D02*X170692Y281420D01*
G54D38*X201212Y280900D02*X200692Y281420D01*
G54D39*X150616Y297116D02*X154996D01*
X170692Y281420D01*
G54D38*X189500Y297000D02*X195000Y291500D01*
G54D39*X200692Y281420D02*X265580D01*
G54D37*X76500Y261000D02*X64000Y261500D01*
G54D39*X147500Y259500D02*X199000D01*
X167661Y349839D02*X184000Y333500D01*
X180692Y281420D02*Y274308D01*
X189000Y266000D01*
X195500D01*
G54D38*X169000Y298000D02*X168500Y297500D01*
G54D37*X195500Y266000D02*X197500D01*
G54D38*X168000Y297000D02*X189500D01*
G54D40*X174500Y40500D03*
Y10500D03*
X146483Y164840D03*
X189985Y161413D03*
Y151413D03*
Y141413D03*
Y131413D03*
X150310Y155601D03*
X154136Y146362D03*
X157963Y137123D03*
X161790Y127885D03*
X165617Y118646D03*
X169444Y109407D03*
X173271Y100168D03*
X177097Y90929D03*
X180924Y81690D03*
X184751Y72452D03*
X188578Y63213D03*
X133145Y40252D03*
X129319Y49491D03*
X125491Y58730D03*
X121665Y67968D03*
X117838Y77207D03*
X114011Y86446D03*
X110184Y95685D03*
X106357Y104923D03*
G54D41*G36*
X31476Y73465D02*Y67465D01*
X37476D01*
Y73465D01*
X31476D01*
G37*
G54D40*X44476Y70465D03*
X234500Y40500D03*
Y10500D03*
X222137Y63280D03*
X225964Y72519D03*
X229791Y81758D03*
X233618Y90996D03*
X237445Y100235D03*
X241271Y109474D03*
X245099Y118713D03*
X248925Y127952D03*
X219985Y131413D03*
Y141413D03*
Y151413D03*
Y161413D03*
X252752Y137190D03*
X256579Y146429D03*
X260406Y155668D03*
X264233Y164907D03*
X458280Y148453D03*
Y158453D03*
Y168453D03*
Y178453D03*
X448280D03*
X458280Y188453D03*
Y108453D03*
X448280D03*
X458280Y118453D03*
Y128453D03*
Y138453D03*
X448280Y118453D03*
Y128453D03*
Y138453D03*
Y148453D03*
Y158453D03*
Y168453D03*
G54D41*G36*
X537500Y141500D02*Y135500D01*
X543500D01*
Y141500D01*
X537500D01*
G37*
G54D40*X550500Y138500D03*
X531000Y153000D03*
G54D41*G36*
X528000Y186000D02*Y180000D01*
X534000D01*
Y186000D01*
X528000D01*
G37*
G54D40*X531000Y173000D03*
Y163000D03*
X561000Y153000D03*
Y163000D03*
Y173000D03*
Y183000D03*
X555500Y242000D03*
X545500Y255500D03*
Y215500D03*
X570807Y205045D03*
X520193D03*
G54D41*G36*
X547250Y201750D02*Y196250D01*
X552750D01*
Y201750D01*
X547250D01*
G37*
G54D42*X540000Y199000D03*
G54D40*X535500Y242000D03*
G54D41*G36*
X455280Y91453D02*Y85453D01*
X461280D01*
Y91453D01*
X455280D01*
G37*
G54D40*X448280Y88453D03*
Y98453D03*
G54D43*X498374Y117000D03*
Y107000D03*
G54D40*X458280Y98453D03*
G54D43*X498374Y97000D03*
Y87000D03*
G54D41*G36*
X495124Y80250D02*Y73750D01*
X501624D01*
Y80250D01*
X495124D01*
G37*
G54D40*X448280Y258453D03*
Y268453D03*
Y278453D03*
X409000Y313000D03*
X379000D03*
X409000Y303000D03*
Y293000D03*
Y283000D03*
X379000D03*
Y293000D03*
Y303000D03*
G54D41*G36*
X359750Y285750D02*Y280250D01*
X365250D01*
Y285750D01*
X359750D01*
G37*
G54D42*X362500Y293000D03*
G54D40*X415000Y260000D03*
X419000Y365000D03*
X409000Y343000D03*
Y333000D03*
X419000Y355500D03*
X409000Y323000D03*
X379000D03*
G54D44*X384626Y381000D03*
X392500D03*
X400374D03*
G54D40*X379000Y355500D03*
X366500Y318500D03*
X379000Y365000D03*
X366500Y358500D03*
X379000Y333000D03*
Y343000D03*
G54D41*G36*
X331900Y354100D02*Y346900D01*
X339100D01*
Y354100D01*
X331900D01*
G37*
G54D45*X345500Y350500D03*
X355500D03*
G54D41*G36*
X286000Y348500D02*Y342500D01*
X292000D01*
Y348500D01*
X286000D01*
G37*
G54D40*X279000Y345500D03*
X269000D03*
X259000D03*
G54D46*X75931Y371800D03*
X95616Y352115D03*
G54D43*X167661Y350160D03*
X150731D03*
G54D41*G36*
X133702Y353410D02*Y346910D01*
X140202D01*
Y353410D01*
X133702D01*
G37*
G54D46*X56246Y352115D03*
X85774D03*
X66089D03*
G54D43*X181440Y350160D03*
G54D40*X155500Y266000D03*
G54D43*X170692Y281420D03*
X160692D03*
G54D40*X195500Y266000D03*
G54D43*X200692Y281420D03*
X190692D03*
X180692D03*
X150692D03*
X140692D03*
X130692D03*
G54D41*G36*
X117442Y284670D02*Y278170D01*
X123942D01*
Y284670D01*
X117442D01*
G37*
G54D40*X448280Y188453D03*
Y198453D03*
Y208453D03*
X458280Y198453D03*
Y208453D03*
Y218453D03*
X448280D03*
Y228453D03*
Y238453D03*
Y248453D03*
X458280Y228453D03*
Y238453D03*
Y248453D03*
Y258453D03*
Y268453D03*
Y278453D03*
X415455Y196000D03*
Y186000D03*
Y176000D03*
G54D41*G36*
X412000Y233000D02*Y227000D01*
X418000D01*
Y233000D01*
X412000D01*
G37*
G54D40*X415000Y240000D03*
Y250000D03*
X415455Y166000D03*
Y156000D03*
Y146000D03*
Y136000D03*
X385455Y156000D03*
Y166000D03*
Y176000D03*
Y186000D03*
Y196000D03*
G54D41*G36*
X392750Y210250D02*Y204750D01*
X398250D01*
Y210250D01*
X392750D01*
G37*
G54D42*X405500Y207500D03*
G54D40*X385455Y136000D03*
X385000Y94500D03*
X415000D03*
Y84500D03*
Y74500D03*
G54D41*G36*
X397250Y109250D02*Y103750D01*
X402750D01*
Y109250D01*
X397250D01*
G37*
G54D42*X400000Y116500D03*
G54D40*X415000Y64500D03*
X385000D03*
Y74500D03*
Y84500D03*
X415000Y54500D03*
X385000D03*
X415000Y44500D03*
X385000D03*
X415000Y34500D03*
X385000D03*
X385455Y146000D03*
G54D41*G36*
X347280Y218856D02*Y212856D01*
X353280D01*
Y218856D01*
X347280D01*
G37*
G54D40*X346453Y206617D03*
X342626Y197378D03*
X338799Y188139D03*
X334973Y178901D03*
X331146Y169662D03*
X323492Y151184D03*
X319665Y141946D03*
X315838Y132707D03*
X312012Y123468D03*
X308185Y114229D03*
X304358Y104991D03*
X300531Y95752D03*
X296704Y86513D03*
X292877Y77274D03*
X289051Y68035D03*
X285224Y58796D03*
X281397Y49557D03*
X277570Y40319D03*
X327319Y160423D03*
X275713Y192623D03*
X279540Y201862D03*
X283367Y211100D03*
X287193Y220339D03*
X291021Y229578D03*
X294847Y238817D03*
G54D41*G36*
X325051Y241279D02*Y235779D01*
X330551D01*
Y241279D01*
X325051D01*
G37*
G54D42*X331628Y247768D03*
G54D41*G36*
X112868Y241750D02*Y235750D01*
X118868D01*
Y241750D01*
X112868D01*
G37*
G36*
X217000Y241500D02*Y235500D01*
X223000D01*
Y241500D01*
X217000D01*
G37*
G54D40*X230000Y238500D03*
G54D41*G36*
X196000Y241500D02*Y235500D01*
X202000D01*
Y241500D01*
X196000D01*
G37*
G54D40*X189000Y238500D03*
X119695Y229511D03*
X123522Y220272D03*
X127349Y211033D03*
X165500Y207500D03*
X153000Y212500D03*
X165500Y247500D03*
X153000Y252500D03*
X102530Y114162D03*
X56000Y115000D03*
X98704Y123401D03*
X56000Y125000D03*
X94877Y132640D03*
X91050Y141879D03*
X87223Y151117D03*
X83396Y160356D03*
X79570Y169595D03*
X75743Y178834D03*
X71916Y188072D03*
X68089Y197311D03*
G54D41*G36*
X46250Y196250D02*Y190750D01*
X51750D01*
Y196250D01*
X46250D01*
G37*
G54D42*X59000Y193500D03*
G54D40*X64263Y206550D03*
X60435Y215789D03*
G54D41*G36*
X31476Y233465D02*Y227465D01*
X37476D01*
Y233465D01*
X31476D01*
G37*
G54D40*X44476Y230465D03*
X56000Y185000D03*
G54D41*G36*
X80819Y240363D02*Y234863D01*
X86319D01*
Y240363D01*
X80819D01*
G37*
G54D42*X79742Y246852D03*
G54D40*X56000Y135000D03*
Y145000D03*
Y155000D03*
Y165000D03*
Y175000D03*
X26000Y185000D03*
Y175000D03*
Y165000D03*
Y155000D03*
Y145000D03*
Y135000D03*
Y125000D03*
Y115000D03*
X245500Y207500D03*
Y247500D03*
X258000Y212500D03*
Y252500D03*
X268060Y174145D03*
X271886Y183384D03*
X219985Y171413D03*
X131175Y201795D03*
X135002Y192556D03*
X138829Y183317D03*
X142656Y174078D03*
X219985Y181413D03*
Y191413D03*
Y201413D03*
G54D41*G36*
X207750Y221750D02*Y216250D01*
X213250D01*
Y221750D01*
X207750D01*
G37*
G54D42*X200500Y219000D03*
G54D40*X189985Y201413D03*
Y191413D03*
Y181413D03*
Y171413D03*
X54500Y115000D02*X57500D01*
X54500Y125000D02*X57500D01*
X54500Y135000D02*X57500D01*
X54500Y145000D02*X57500D01*
X54500Y155000D02*X57500D01*
X54500Y165000D02*X57500D01*
X54500Y175000D02*X57500D01*
X54500Y185000D02*X57500D01*
X24500D02*X27500D01*
X24500Y175000D02*X27500D01*
X24500Y165000D02*X27500D01*
X24500Y155000D02*X27500D01*
X24500Y145000D02*X27500D01*
X24500Y135000D02*X27500D01*
X24500Y125000D02*X27500D01*
X24500Y115000D02*X27500D01*
X218485Y131413D02*X221485D01*
X218485Y141413D02*X221485D01*
X218485Y151413D02*X221485D01*
X218485Y161413D02*X221485D01*
X218485Y171413D02*X221485D01*
X218485Y181413D02*X221485D01*
X218485Y191413D02*X221485D01*
X218485Y201413D02*X221485D01*
X188485D02*X191485D01*
X188485Y191413D02*X191485D01*
X188485Y181413D02*X191485D01*
X188485Y171413D02*X191485D01*
X188485Y161413D02*X191485D01*
X188485Y151413D02*X191485D01*
X188485Y141413D02*X191485D01*
X188485Y131413D02*X191485D01*
X413955Y156000D02*X416955D01*
X413955Y146000D02*X416955D01*
X413955Y136000D02*X416955D01*
X383955D02*X386955D01*
X383955Y146000D02*X386955D01*
X383955Y156000D02*X386955D01*
X383955Y166000D02*X386955D01*
X383955Y176000D02*X386955D01*
X383955Y186000D02*X386955D01*
X383955Y196000D02*X386955D01*
X413955Y176000D02*X416955D01*
X413955Y166000D02*X416955D01*
X413955Y196000D02*X416955D01*
X413955Y186000D02*X416955D01*
X413500Y94500D02*X416500D01*
X413500Y84500D02*X416500D01*
X413500Y74500D02*X416500D01*
X413500Y64500D02*X416500D01*
X413500Y54500D02*X416500D01*
X413500Y44500D02*X416500D01*
X413500Y34500D02*X416500D01*
X383500D02*X386500D01*
X383500Y44500D02*X386500D01*
X383500Y54500D02*X386500D01*
X383500Y64500D02*X386500D01*
X383500Y74500D02*X386500D01*
X383500Y84500D02*X386500D01*
X383500Y94500D02*X386500D01*
X407500Y343000D02*X410500D01*
X407500Y333000D02*X410500D01*
X407500Y323000D02*X410500D01*
X407500Y313000D02*X410500D01*
X407500Y303000D02*X410500D01*
X407500Y293000D02*X410500D01*
X407500Y283000D02*X410500D01*
X377500D02*X380500D01*
X377500Y293000D02*X380500D01*
X377500Y303000D02*X380500D01*
X377500Y313000D02*X380500D01*
X377500Y323000D02*X380500D01*
X377500Y333000D02*X380500D01*
X377500Y343000D02*X380500D01*
X499500Y145500D03*
X483500Y116000D03*
X473000Y91500D03*
X489500Y128000D03*
X65000Y262000D03*
G54D47*X161000Y302000D03*
X168000Y297000D03*
G54D40*X208500Y314500D03*
G54D47*X130000Y168000D03*
G54D40*X147500Y88000D03*
X135500Y114500D03*
G54D47*X375000Y175500D03*
G54D40*X388000Y272000D03*
G54D47*X283500Y97000D03*
G54D40*X264500Y89500D03*
X275000Y113500D03*
X246500Y21500D03*
G54D47*X430000Y171000D03*
G54D40*X490000Y208500D03*
X473500Y168500D03*
X499500Y300000D03*
X473500Y256000D03*
X492500Y278500D03*
X430500Y342000D03*
G54D47*X419500Y315500D03*
G54D40*X483000Y318000D03*
X473500Y308000D03*
G54D48*G54D49*G54D48*G54D49*G54D48*G54D49*G54D48*G54D49*G54D48*G54D49*G54D48*G54D49*G54D48*G54D50*G54D51*G54D52*G54D48*G54D52*G54D53*G54D54*G54D50*G54D52*G54D48*G54D52*G54D55*G54D56*G54D55*G54D51*G54D54*G54D52*G54D51*G54D52*G54D57*G54D50*G54D57*G54D55*G54D54*G54D56*G54D54*G54D48*G54D50*G54D54*G54D57*G54D48*G54D58*G54D57*G54D48*G54D58*G54D59*G54D57*G54D51*G54D57*G54D48*G54D60*G54D54*G54D61*G54D58*G54D62*G54D54*G54D58*G54D54*G54D57*G54D54*G54D57*G54D54*G54D48*G54D54*G54D48*G54D50*G54D48*G54D50*G54D48*G54D52*G54D50*G54D52*G54D50*G54D52*G54D57*G54D52*G54D48*G54D52*G54D48*G54D52*G54D50*G54D52*G54D51*G54D54*G54D48*G54D50*G54D53*G54D48*G54D57*G54D52*G54D48*G54D52*G54D48*G54D50*G54D48*M02*
