G04 start of page 10 for group -4078 idx -4078 *
G04 Title: (unknown), bottomsilk *
G04 Creator: pcb 20140316 *
G04 CreationDate: Sat 22 Apr 2017 04:45:52 AM GMT UTC *
G04 For: vince *
G04 Format: Gerber/RS-274X *
G04 PCB-Dimensions (mil): 6900.00 3900.00 *
G04 PCB-Coordinate-Origin: lower left *
%MOIN*%
%FSLAX25Y25*%
%LNBOTTOMSILK*%
%ADD118C,0.0100*%
%ADD117C,0.0250*%
%ADD116C,0.0400*%
%ADD115C,0.0110*%
G54D115*X402000Y180000D02*X398000Y178000D01*
Y180500D01*
X400500Y176800D02*X398000Y174800D01*
X400500Y174300D02*Y176800D01*
X398000Y174800D02*X402000D01*
X399000Y173100D02*X402000D01*
X399000D02*X398000Y172400D01*
Y171300D02*Y172400D01*
Y171300D02*X399000Y170600D01*
X402000D01*
X400000D02*Y173100D01*
X398000Y169400D02*X402000D01*
X398000Y166900D02*X402000D01*
X400000D02*Y169400D01*
X402000Y163700D02*Y165000D01*
X401300Y165700D02*X402000Y165000D01*
X398700Y165700D02*X401300D01*
X398700D02*X398000Y165000D01*
Y163700D02*Y165000D01*
Y160500D02*Y162500D01*
Y161500D02*X402000D01*
X398800Y159300D02*X398000Y158500D01*
X402000D01*
Y157800D02*Y159300D01*
X398500Y156600D02*X398000Y156100D01*
Y154600D02*Y156100D01*
Y154600D02*X398500Y154100D01*
X399500D01*
X402000Y156600D02*X399500Y154100D01*
X402000D02*Y156600D01*
X398000Y150900D02*Y152900D01*
X400000D01*
X399500Y152400D01*
Y151400D02*Y152400D01*
Y151400D02*X400000Y150900D01*
X401500D01*
X402000Y151400D02*X401500Y150900D01*
X402000Y151400D02*Y152400D01*
X401500Y152900D02*X402000Y152400D01*
X398000Y149700D02*X402000D01*
X398000D02*X402000Y147200D01*
X398000D02*X402000D01*
X395500Y330500D02*X391500Y328500D01*
Y331000D01*
X394000Y327300D02*X391500Y325300D01*
X394000Y324800D02*Y327300D01*
X391500Y325300D02*X395500D01*
X392500Y323600D02*X395500D01*
X392500D02*X391500Y322900D01*
Y321800D02*Y322900D01*
Y321800D02*X392500Y321100D01*
X395500D01*
X393500D02*Y323600D01*
X391500Y319900D02*X395500D01*
X391500Y317400D02*X395500D01*
X393500D02*Y319900D01*
X395500Y314200D02*Y315500D01*
X394800Y316200D02*X395500Y315500D01*
X392200Y316200D02*X394800D01*
X392200D02*X391500Y315500D01*
Y314200D02*Y315500D01*
Y311000D02*Y313000D01*
Y312000D02*X395500D01*
X392300Y309800D02*X391500Y309000D01*
X395500D01*
Y308300D02*Y309800D01*
X392000Y307100D02*X391500Y306600D01*
Y305100D02*Y306600D01*
Y305100D02*X392000Y304600D01*
X393000D01*
X395500Y307100D02*X393000Y304600D01*
X395500D02*Y307100D01*
X391500Y301400D02*Y303400D01*
X393500D01*
X393000Y302900D01*
Y301900D02*Y302900D01*
Y301900D02*X393500Y301400D01*
X395000D01*
X395500Y301900D02*X395000Y301400D01*
X395500Y301900D02*Y302900D01*
X395000Y303400D02*X395500Y302900D01*
X391500Y300200D02*X395500D01*
X391500D02*X395500Y297700D01*
X391500D02*X395500D01*
X457500Y379000D02*Y382000D01*
X456800Y383000D01*
X455700D02*X456800D01*
X455700D02*X455000Y382000D01*
Y379000D02*Y382000D01*
Y381000D02*X457500D01*
X453800Y379000D02*Y383000D01*
X452300Y381000D01*
X450800Y383000D01*
Y379000D02*Y383000D01*
X449100Y379000D02*Y383000D01*
X447600D02*X449600D01*
X447600D02*X447100Y382500D01*
Y381500D02*Y382500D01*
X447600Y381000D02*X447100Y381500D01*
X447600Y381000D02*X449100D01*
X445900Y379000D02*Y383000D01*
X443900Y379000D02*X445900D01*
X441700Y383000D02*X442700D01*
X442200Y379000D02*Y383000D01*
X441700Y379000D02*X442700D01*
X440500D02*Y383000D01*
X438500D02*X440500D01*
X439000Y381200D02*X440500D01*
X436300Y383000D02*X437300D01*
X436800Y379000D02*Y383000D01*
X436300Y379000D02*X437300D01*
X433600Y381200D02*X435100D01*
X433100Y379000D02*X435100D01*
Y383000D01*
X433100D02*X435100D01*
X429900D02*X431900D01*
X429900D02*X429400Y382500D01*
Y381500D02*Y382500D01*
X429900Y381000D02*X429400Y381500D01*
X429900Y381000D02*X431400D01*
Y379000D02*Y383000D01*
X430600Y381000D02*X429400Y379000D01*
X426400Y379500D02*Y382500D01*
X425900Y383000D01*
X424900D02*X425900D01*
X424900D02*X424400Y382500D01*
Y379500D02*Y382500D01*
X424900Y379000D02*X424400Y379500D01*
X424900Y379000D02*X425900D01*
X426400Y379500D02*X425900Y379000D01*
X423200D02*Y383000D01*
X421200D02*X423200D01*
X421700Y381200D02*X423200D01*
X420000Y379000D02*Y383000D01*
X418000D02*X420000D01*
X418500Y381200D02*X420000D01*
X519000Y19250D02*X516250Y8250D01*
X513500Y19250D01*
X510200Y8250D02*Y19250D01*
X506075Y13750D01*
X501950Y19250D01*
Y8250D02*Y19250D01*
X498650Y13750D02*Y19250D01*
Y13750D02*X497275Y8250D01*
X494525Y13750D01*
X491775Y8250D01*
X490400Y13750D01*
Y19250D01*
X482150Y8250D02*Y19250D01*
X475275Y8250D02*Y19250D01*
Y13750D02*X482150D01*
X471975Y8250D02*Y16500D01*
X470050Y19250D01*
X467025D02*X470050D01*
X467025D02*X465100Y16500D01*
Y8250D02*Y16500D01*
Y13750D02*X471975D01*
X456300Y19250D02*X461800D01*
X456300D02*X454925Y17875D01*
Y15125D02*Y17875D01*
X456300Y13750D02*X454925Y15125D01*
X456300Y13750D02*X460425D01*
Y8250D02*Y19250D01*
X458225Y13750D02*X454925Y8250D01*
X450250D02*Y19250D01*
X446675D02*X444750Y17325D01*
Y10175D02*Y17325D01*
X446675Y8250D02*X444750Y10175D01*
X446675Y8250D02*X451625D01*
X446675Y19250D02*X451625D01*
X441450Y13750D02*Y19250D01*
Y13750D02*X440075Y8250D01*
X437325Y13750D01*
X434575Y8250D01*
X433200Y13750D01*
Y19250D01*
X429900Y8250D02*Y16500D01*
X427975Y19250D01*
X424950D02*X427975D01*
X424950D02*X423025Y16500D01*
Y8250D02*Y16500D01*
Y13750D02*X429900D01*
X414225Y19250D02*X419725D01*
X414225D02*X412850Y17875D01*
Y15125D02*Y17875D01*
X414225Y13750D02*X412850Y15125D01*
X414225Y13750D02*X418350D01*
Y8250D02*Y19250D01*
X416150Y13750D02*X412850Y8250D01*
X405425Y14300D02*X409550D01*
X404050Y8250D02*X409550D01*
Y19250D01*
X404050D02*X409550D01*
X296960Y8900D02*X300236D01*
X302000Y10664D02*X300236Y8900D01*
X302000Y10664D02*Y17216D01*
X300236Y18980D01*
X296960D02*X300236D01*
X293936Y8900D02*Y18980D01*
X287636Y8900D02*Y18980D01*
Y13940D02*X293936D01*
X282092Y18980D02*X284612D01*
X283352Y8900D02*Y18980D01*
X282092Y8900D02*X284612D01*
X277808D02*Y18980D01*
X274028D02*X279068D01*
X274028D02*X272768Y17720D01*
Y15200D02*Y17720D01*
X274028Y13940D02*X272768Y15200D01*
X274028Y13940D02*X277808D01*
X264704Y18980D02*X269744D01*
X267224Y8900D02*Y18980D01*
X261680Y10160D02*Y18980D01*
Y10160D02*X260420Y8900D01*
X257900D02*X260420D01*
X257900D02*X256640Y10160D01*
Y18980D01*
X253616Y8900D02*Y18980D01*
X247316Y8900D01*
Y18980D01*
X240512Y14444D02*X244292D01*
X239252Y8900D02*X244292D01*
Y18980D01*
X239252D02*X244292D01*
X226652D02*X225392Y17720D01*
X226652Y18980D02*X230432D01*
X231692Y17720D02*X230432Y18980D01*
X231692Y15200D02*Y17720D01*
Y15200D02*X230432Y13940D01*
X226652D02*X230432D01*
X226652D02*X225392Y12680D01*
Y10160D02*Y12680D01*
X226652Y8900D02*X225392Y10160D01*
X226652Y8900D02*X230432D01*
X231692Y10160D02*X230432Y8900D01*
X222368Y10160D02*Y17720D01*
X221108Y18980D01*
X218588D02*X221108D01*
X218588D02*X217328Y17720D01*
Y10160D02*Y17720D01*
X218588Y8900D02*X217328Y10160D01*
X218588Y8900D02*X221108D01*
X222368Y10160D02*X221108Y8900D01*
X214304Y10160D02*Y18980D01*
Y10160D02*X213044Y8900D01*
X210524D02*X213044D01*
X210524D02*X209264Y10160D01*
Y18980D01*
X206240Y8900D02*Y18980D01*
X199940Y8900D01*
Y18980D01*
X195656Y8900D02*Y18980D01*
X192380D02*X190616Y17216D01*
Y10664D02*Y17216D01*
X192380Y8900D02*X190616Y10664D01*
X192380Y8900D02*X196916D01*
X192380Y18980D02*X196916D01*
X183056Y8900D02*Y18980D01*
X179276Y13940D01*
X175496Y18980D01*
Y8900D02*Y18980D01*
X172472Y8900D02*Y18980D01*
Y13940D02*X167432Y18980D01*
X172472Y13940D02*X167432Y8900D01*
X164408Y16964D02*X162392Y18980D01*
Y8900D02*Y18980D01*
X160628Y8900D02*X164408D01*
X97500Y17720D02*X96240Y18980D01*
X92460D02*X96240D01*
X92460D02*X91200Y17720D01*
Y15200D02*Y17720D01*
X97500Y8900D02*X91200Y15200D01*
Y8900D02*X97500D01*
X88176Y10160D02*X86916Y8900D01*
X88176Y10160D02*Y17720D01*
X86916Y18980D01*
X84396D02*X86916D01*
X84396D02*X83136Y17720D01*
Y10160D02*Y17720D01*
X84396Y8900D02*X83136Y10160D01*
X84396Y8900D02*X86916D01*
X88176Y11420D02*X83136Y16460D01*
X80112Y16964D02*X78096Y18980D01*
Y8900D02*Y18980D01*
X76332Y8900D02*X80112D01*
X72048D02*X67008Y18980D01*
X73308D01*
X402000Y77500D02*X398000Y75500D01*
Y78000D01*
X400500Y74300D02*X398000Y72300D01*
X400500Y71800D02*Y74300D01*
X398000Y72300D02*X402000D01*
X399000Y70600D02*X402000D01*
X399000D02*X398000Y69900D01*
Y68800D02*Y69900D01*
Y68800D02*X399000Y68100D01*
X402000D01*
X400000D02*Y70600D01*
X398000Y66900D02*X402000D01*
X398000Y64400D02*X402000D01*
X400000D02*Y66900D01*
X402000Y61200D02*Y62500D01*
X401300Y63200D02*X402000Y62500D01*
X398700Y63200D02*X401300D01*
X398700D02*X398000Y62500D01*
Y61200D02*Y62500D01*
Y58000D02*Y60000D01*
Y59000D02*X402000D01*
X398800Y56800D02*X398000Y56000D01*
X402000D01*
Y55300D02*Y56800D01*
X398500Y54100D02*X398000Y53600D01*
Y52100D02*Y53600D01*
Y52100D02*X398500Y51600D01*
X399500D01*
X402000Y54100D02*X399500Y51600D01*
X402000D02*Y54100D01*
X398000Y48400D02*Y50400D01*
X400000D01*
X399500Y49900D01*
Y48900D02*Y49900D01*
Y48900D02*X400000Y48400D01*
X401500D01*
X402000Y48900D02*X401500Y48400D01*
X402000Y48900D02*Y49900D01*
X401500Y50400D02*X402000Y49900D01*
X398000Y47200D02*X402000D01*
X398000D02*X402000Y44700D01*
X398000D02*X402000D01*
X217500Y32200D02*X216700Y33000D01*
Y29000D02*Y33000D01*
X216000Y29000D02*X217500D01*
X213000D02*Y33000D01*
X211500Y31000D01*
X210000Y33000D01*
Y29000D02*Y33000D01*
X208800Y29000D02*Y33000D01*
X206300Y29000D02*Y33000D01*
Y31000D02*X208800D01*
X203100D02*X205100D01*
Y29000D02*X203100Y31000D01*
Y29000D02*X205100D01*
X335000Y205500D02*Y208500D01*
X334300Y209500D01*
X333200D02*X334300D01*
X333200D02*X332500Y208500D01*
Y205500D02*Y208500D01*
Y207500D02*X335000D01*
X331300Y209500D02*X330300Y207500D01*
X329300Y209500D01*
X330300Y205500D02*Y207500D01*
X326100D02*X328100D01*
X324900Y209000D02*X324400Y209500D01*
X323400D02*X324400D01*
X323400D02*X322900Y209000D01*
X323400Y205500D02*X322900Y206000D01*
X323400Y205500D02*X324400D01*
X324900Y206000D02*X324400Y205500D01*
X323400Y207700D02*X324400D01*
X322900Y208200D02*Y209000D01*
Y206000D02*Y207200D01*
X323400Y207700D01*
X322900Y208200D02*X323400Y207700D01*
X319700Y207500D02*X321700D01*
X318500Y206000D02*X318000Y205500D01*
X318500Y206000D02*Y206800D01*
X317800Y207500D01*
X317200D02*X317800D01*
X317200D02*X316500Y206800D01*
Y206000D02*Y206800D01*
X317000Y205500D02*X316500Y206000D01*
X317000Y205500D02*X318000D01*
X318500Y208200D02*X317800Y207500D01*
X318500Y208200D02*Y209000D01*
X318000Y209500D01*
X317000D02*X318000D01*
X317000D02*X316500Y209000D01*
Y208200D02*Y209000D01*
X317200Y207500D02*X316500Y208200D01*
X314800Y205500D02*X313300Y207500D01*
Y209000D01*
X313800Y209500D02*X313300Y209000D01*
X313800Y209500D02*X314800D01*
X315300Y209000D02*X314800Y209500D01*
X315300Y208000D02*Y209000D01*
Y208000D02*X314800Y207500D01*
X313300D02*X314800D01*
X312100Y208700D02*X311300Y209500D01*
Y205500D02*Y209500D01*
X310600Y205500D02*X312100D01*
X309400Y206000D02*X308900Y205500D01*
X309400Y206000D02*Y209000D01*
X308900Y209500D01*
X307900D02*X308900D01*
X307900D02*X307400Y209000D01*
Y206000D02*Y209000D01*
X307900Y205500D02*X307400Y206000D01*
X307900Y205500D02*X308900D01*
X309400Y206500D02*X307400Y208500D01*
X272500Y229200D02*X271700Y230000D01*
Y226000D02*Y230000D01*
X271000Y226000D02*X272500D01*
X269800D02*Y230000D01*
Y228000D02*X267800Y230000D01*
X269800Y228000D02*X267800Y226000D01*
X239500Y220200D02*X238700Y221000D01*
Y217000D02*Y221000D01*
X238000Y217000D02*X239500D01*
X236800Y217500D02*X236300Y217000D01*
X236800Y217500D02*Y220500D01*
X236300Y221000D01*
X235300D02*X236300D01*
X235300D02*X234800Y220500D01*
Y217500D02*Y220500D01*
X235300Y217000D02*X234800Y217500D01*
X235300Y217000D02*X236300D01*
X236800Y218000D02*X234800Y220000D01*
X233600Y217000D02*Y221000D01*
Y219000D02*X231600Y221000D01*
X233600Y219000D02*X231600Y217000D01*
X111000Y212500D02*Y215500D01*
X110300Y216500D01*
X109200D02*X110300D01*
X109200D02*X108500Y215500D01*
Y212500D02*Y215500D01*
Y214500D02*X111000D01*
X107300Y216500D02*X106300Y214500D01*
X105300Y216500D01*
X106300Y212500D02*Y214500D01*
X102100D02*X104100D01*
X100900Y216000D02*X100400Y216500D01*
X99400D02*X100400D01*
X99400D02*X98900Y216000D01*
X99400Y212500D02*X98900Y213000D01*
X99400Y212500D02*X100400D01*
X100900Y213000D02*X100400Y212500D01*
X99400Y214700D02*X100400D01*
X98900Y215200D02*Y216000D01*
Y213000D02*Y214200D01*
X99400Y214700D01*
X98900Y215200D02*X99400Y214700D01*
X95700Y214500D02*X97700D01*
X94500Y213000D02*X94000Y212500D01*
X94500Y213000D02*Y213800D01*
X93800Y214500D01*
X93200D02*X93800D01*
X93200D02*X92500Y213800D01*
Y213000D02*Y213800D01*
X93000Y212500D02*X92500Y213000D01*
X93000Y212500D02*X94000D01*
X94500Y215200D02*X93800Y214500D01*
X94500Y215200D02*Y216000D01*
X94000Y216500D01*
X93000D02*X94000D01*
X93000D02*X92500Y216000D01*
Y215200D02*Y216000D01*
X93200Y214500D02*X92500Y215200D01*
X90800Y212500D02*X89300Y214500D01*
Y216000D01*
X89800Y216500D02*X89300Y216000D01*
X89800Y216500D02*X90800D01*
X91300Y216000D02*X90800Y216500D01*
X91300Y215000D02*Y216000D01*
Y215000D02*X90800Y214500D01*
X89300D02*X90800D01*
X88100Y215700D02*X87300Y216500D01*
Y212500D02*Y216500D01*
X86600Y212500D02*X88100D01*
X85400Y213000D02*X84900Y212500D01*
X85400Y213000D02*Y216000D01*
X84900Y216500D01*
X83900D02*X84900D01*
X83900D02*X83400Y216000D01*
Y213000D02*Y216000D01*
X83900Y212500D02*X83400Y213000D01*
X83900Y212500D02*X84900D01*
X85400Y213500D02*X83400Y215500D01*
X181000Y220200D02*X180200Y221000D01*
Y217000D02*Y221000D01*
X179500Y217000D02*X181000D01*
X178300Y217500D02*X177800Y217000D01*
X178300Y217500D02*Y220500D01*
X177800Y221000D01*
X176800D02*X177800D01*
X176800D02*X176300Y220500D01*
Y217500D02*Y220500D01*
X176800Y217000D02*X176300Y217500D01*
X176800Y217000D02*X177800D01*
X178300Y218000D02*X176300Y220000D01*
X175100Y217000D02*Y221000D01*
Y219000D02*X173100Y221000D01*
X175100Y219000D02*X173100Y217000D01*
X145000Y229700D02*X144200Y230500D01*
Y226500D02*Y230500D01*
X143500Y226500D02*X145000D01*
X142300D02*Y230500D01*
Y228500D02*X140300Y230500D01*
X142300Y228500D02*X140300Y226500D01*
X226500Y255200D02*X225700Y256000D01*
Y252000D02*Y256000D01*
X225000Y252000D02*X226500D01*
X223800Y252500D02*X223300Y252000D01*
X223800Y252500D02*Y255500D01*
X223300Y256000D01*
X222300D02*X223300D01*
X222300D02*X221800Y255500D01*
Y252500D02*Y255500D01*
X222300Y252000D02*X221800Y252500D01*
X222300Y252000D02*X223300D01*
X223800Y253000D02*X221800Y255000D01*
X220600Y252500D02*X220100Y252000D01*
X220600Y252500D02*Y255500D01*
X220100Y256000D01*
X219100D02*X220100D01*
X219100D02*X218600Y255500D01*
Y252500D02*Y255500D01*
X219100Y252000D02*X218600Y252500D01*
X219100Y252000D02*X220100D01*
X220600Y253000D02*X218600Y255000D01*
X217400Y252500D02*Y254000D01*
Y252500D02*X216900Y252000D01*
X215900D02*X216900D01*
X215900D02*X215400Y252500D01*
Y254000D01*
X214200Y252000D02*Y256000D01*
X212200D02*X214200D01*
X212700Y254200D02*X214200D01*
X196500Y255200D02*X195700Y256000D01*
Y252000D02*Y256000D01*
X195000Y252000D02*X196500D01*
X193800Y252500D02*X193300Y252000D01*
X193800Y252500D02*Y255500D01*
X193300Y256000D01*
X192300D02*X193300D01*
X192300D02*X191800Y255500D01*
Y252500D02*Y255500D01*
X192300Y252000D02*X191800Y252500D01*
X192300Y252000D02*X193300D01*
X193800Y253000D02*X191800Y255000D01*
X190600Y252500D02*X190100Y252000D01*
X190600Y252500D02*Y255500D01*
X190100Y256000D01*
X189100D02*X190100D01*
X189100D02*X188600Y255500D01*
Y252500D02*Y255500D01*
X189100Y252000D02*X188600Y252500D01*
X189100Y252000D02*X190100D01*
X190600Y253000D02*X188600Y255000D01*
X187400Y252500D02*Y254000D01*
Y252500D02*X186900Y252000D01*
X185900D02*X186900D01*
X185900D02*X185400Y252500D01*
Y254000D01*
X184200Y252000D02*Y256000D01*
X182200D02*X184200D01*
X182700Y254200D02*X184200D01*
X212500Y329000D02*Y333000D01*
X211000Y331000D01*
X209500Y333000D01*
Y329000D02*Y333000D01*
X208300Y329000D02*Y332000D01*
X207600Y333000D01*
X206500D02*X207600D01*
X206500D02*X205800Y332000D01*
Y329000D02*Y332000D01*
Y331000D02*X208300D01*
X204600Y329000D02*X202100Y333000D01*
X204600D02*X202100Y329000D01*
X198600D02*X197100Y331000D01*
Y332500D01*
X197600Y333000D02*X197100Y332500D01*
X197600Y333000D02*X198600D01*
X199100Y332500D02*X198600Y333000D01*
X199100Y331500D02*Y332500D01*
Y331500D02*X198600Y331000D01*
X197100D02*X198600D01*
X195900Y329500D02*X195400Y329000D01*
X195900Y329500D02*Y330300D01*
X195200Y331000D01*
X194600D02*X195200D01*
X194600D02*X193900Y330300D01*
Y329500D02*Y330300D01*
X194400Y329000D02*X193900Y329500D01*
X194400Y329000D02*X195400D01*
X195900Y331700D02*X195200Y331000D01*
X195900Y331700D02*Y332500D01*
X195400Y333000D01*
X194400D02*X195400D01*
X194400D02*X193900Y332500D01*
Y331700D02*Y332500D01*
X194600Y331000D02*X193900Y331700D01*
X192700Y332500D02*X192200Y333000D01*
X191200D02*X192200D01*
X191200D02*X190700Y332500D01*
X191200Y329000D02*X190700Y329500D01*
X191200Y329000D02*X192200D01*
X192700Y329500D02*X192200Y329000D01*
X191200Y331200D02*X192200D01*
X190700Y331700D02*Y332500D01*
Y329500D02*Y330700D01*
X191200Y331200D01*
X190700Y331700D02*X191200Y331200D01*
X189500Y329500D02*X189000Y329000D01*
X189500Y329500D02*Y332500D01*
X189000Y333000D01*
X188000D02*X189000D01*
X188000D02*X187500Y332500D01*
Y329500D02*Y332500D01*
X188000Y329000D02*X187500Y329500D01*
X188000Y329000D02*X189000D01*
X189500Y330000D02*X187500Y332000D01*
X184800Y333000D02*X184300Y332500D01*
X184800Y333000D02*X185800D01*
X186300Y332500D02*X185800Y333000D01*
X186300Y329500D02*Y332500D01*
Y329500D02*X185800Y329000D01*
X184800Y331200D02*X184300Y330700D01*
X184800Y331200D02*X186300D01*
X184800Y329000D02*X185800D01*
X184800D02*X184300Y329500D01*
Y330700D01*
X179300Y329000D02*X181300D01*
X179300D02*X178800Y329500D01*
Y330700D01*
X179300Y331200D02*X178800Y330700D01*
X179300Y331200D02*X180800D01*
Y329000D02*Y333000D01*
X179300D02*X181300D01*
X179300D02*X178800Y332500D01*
Y331700D02*Y332500D01*
X179300Y331200D02*X178800Y331700D01*
X175600Y333000D02*X177600D01*
X175600D02*X175100Y332500D01*
Y331500D02*Y332500D01*
X175600Y331000D02*X175100Y331500D01*
X175600Y331000D02*X177100D01*
Y329000D02*Y333000D01*
X176300Y331000D02*X175100Y329000D01*
X172400Y331200D02*X173900D01*
X171900Y329000D02*X173900D01*
Y333000D01*
X171900D02*X173900D01*
X170700Y329000D02*Y332000D01*
X170000Y333000D01*
X168900D02*X170000D01*
X168900D02*X168200Y332000D01*
Y329000D02*Y332000D01*
Y331000D02*X170700D01*
X167000Y329000D02*Y333000D01*
Y331000D02*X165000Y333000D01*
X167000Y331000D02*X165000Y329000D01*
X163800Y329500D02*Y332500D01*
X163300Y333000D01*
X162300D02*X163300D01*
X162300D02*X161800Y332500D01*
Y329500D02*Y332500D01*
X162300Y329000D02*X161800Y329500D01*
X162300Y329000D02*X163300D01*
X163800Y329500D02*X163300Y329000D01*
X160600Y329500D02*Y333000D01*
Y329500D02*X160100Y329000D01*
X159100D02*X160100D01*
X159100D02*X158600Y329500D01*
Y333000D01*
X155400D02*X157400D01*
X156400Y329000D02*Y333000D01*
G54D116*X495739Y290800D02*X538739D01*
X496739D02*X508739Y335800D01*
X538739Y290800D01*
X497739Y322800D02*X486739Y332800D01*
X479739Y327800D01*
X470739Y338800D01*
X491739Y302800D02*X483739Y314800D01*
X473739Y306800D01*
X466739Y317800D01*
X470739Y323800D01*
X450739Y328800D01*
X460739Y312800D01*
X467128Y317189D01*
X474739Y345800D02*X464739Y334800D01*
X453739Y351800D01*
X474739Y345800D01*
X488739Y343800D02*X529739D01*
X488739D02*X491972Y336731D01*
X534327Y336150D01*
X528739Y343800D01*
X508739D02*X505739Y374800D01*
X536739Y264800D02*X510739Y266800D01*
X507739Y239800D01*
X531739Y240800D01*
X536739Y243800D01*
Y264800D02*Y243800D01*
X527739Y230800D02*X525739Y240550D01*
X522739Y265877D02*X519739Y290800D01*
X568739Y334800D02*X635739D01*
X568739D02*X567739Y327800D01*
Y309800D01*
X557739Y267800D01*
X582739Y296800D01*
X578739Y298800D01*
X572739Y294800D01*
X567739Y310800D01*
X635739Y334800D02*Y265800D01*
X610739Y296800D01*
X615739Y298800D01*
X624739Y290800D01*
X635739Y315800D01*
X602739Y303800D02*X597739Y307800D01*
X600739Y313800D01*
X624739Y328800D02*X607739Y320800D01*
X595739Y317800D02*X584739Y327800D01*
X622835Y281800D02*X603739Y271800D01*
X584739D02*X603739D01*
X584739D02*X572739Y280800D01*
X594739Y288800D02*X609739D01*
X605708Y272831D02*X611739Y263800D01*
X592739Y254800D01*
X581739Y262800D01*
X585739Y271800D01*
X581739Y262800D02*X562739Y258800D01*
X538739Y264646D01*
X536739Y246800D02*X572739Y245800D01*
X573739Y213800D01*
X597739Y215800D01*
X596739Y187800D02*X601739Y159800D01*
X564739Y162800D01*
X573739Y213800D01*
X612139Y263200D02*X628739Y261800D01*
X630739Y233800D01*
X616739Y213800D01*
X610739Y224800D01*
X614739Y235800D01*
X612739Y243800D01*
X622503Y222035D02*X622739Y210800D01*
X618739D02*X622739D01*
X627739Y157800D01*
X617739Y154800D01*
X601739Y159800D01*
X615915Y212624D02*X616739Y208800D01*
X608739Y204800D01*
X602739Y205800D01*
X599739Y221800D01*
X610375Y223800D01*
X611805Y227733D02*X596739Y229800D01*
X595433Y225810D01*
X598897Y221642D01*
X627739Y157800D02*X630739Y148800D01*
X629739Y133800D01*
X615739Y117800D01*
X612739Y130800D01*
X619739Y144800D01*
X631072Y147800D02*X619072Y143467D01*
X619739Y155400D01*
X603739Y159175D02*Y147800D01*
X596739Y136800D01*
Y116800D01*
X615272Y117267D01*
X612551Y131613D02*X596739Y135800D01*
X619807Y143732D02*X603739Y148800D01*
X591564Y160625D02*X590739Y149800D01*
X578739Y130800D01*
X561739Y141800D01*
X576739Y151800D01*
X590662Y148800D01*
X575539Y151000D02*X574739Y161989D01*
X601917Y158800D02*X590662Y148800D01*
X596528Y154011D02*X595739Y143800D01*
X582739Y119800D01*
X579126Y131413D01*
X582739Y119800D02*X561739Y131800D01*
X560739Y141133D01*
X635739Y334800D02*X620739Y347800D01*
X619739Y341800D01*
X604739Y347800D01*
X606599Y342286D01*
X595739Y347800D01*
X594739Y342800D01*
X580739Y347800D01*
X579739Y340800D01*
X565739Y346800D01*
X569739Y334800D01*
G54D117*X623739Y328330D02*X625739Y321800D01*
X622739Y315800D01*
X616739Y317800D01*
X612739Y323153D01*
X585076Y324746D02*X581739Y320800D01*
Y315800D01*
X587739Y313800D01*
X593643Y319705D01*
X620739Y321800D02*Y320800D01*
X586739Y319800D02*Y318800D01*
G54D118*X415000Y347500D02*Y278500D01*
X373000D02*X415000D01*
X373000Y347500D02*Y278500D01*
Y347500D02*X388750D01*
X394000Y342250D01*
X399250Y347500D01*
X415000D01*
X362500Y287000D02*Y283000D01*
X361000Y287000D02*X364000D01*
X362500Y293000D02*Y289000D01*
X361000D02*X364000D01*
X327801Y238529D02*X329332Y242224D01*
X330718Y241650D02*X327946Y242798D01*
X330097Y244072D02*X331628Y247768D01*
X331483Y243498D02*X328711Y244646D01*
X169500Y45500D02*X239500D01*
Y5500D01*
X169500D02*X239500D01*
X169500Y16500D02*Y5500D01*
Y16500D02*X174500Y25500D01*
X169500Y34500D01*
Y45500D02*Y34500D01*
X421000Y99000D02*Y30000D01*
X379000D02*X421000D01*
X379000Y99000D02*Y30000D01*
Y99000D02*X394750D01*
X400000Y93750D01*
X405250Y99000D01*
X421000D01*
X118574Y245283D02*X195111Y60507D01*
X130439Y33719D01*
X53903Y218495D02*X130439Y33719D01*
X118574Y245283D02*X90858Y233802D01*
X81619Y229976D02*X53903Y218495D01*
X81636Y229935D02*G75*G03X90841Y233843I4603J1954D01*G01*
X165500Y221500D02*Y212500D01*
X161500Y221500D02*X169500D01*
Y233500D02*Y221500D01*
X161500Y233500D02*X169500D01*
X161500D02*Y221500D01*
X165500Y242500D02*Y233500D01*
X153000Y226500D02*Y217500D01*
X149000Y226500D02*X157000D01*
Y238500D02*Y226500D01*
X149000Y238500D02*X157000D01*
X149000D02*Y226500D01*
X153000Y247500D02*Y238500D01*
X198000Y243500D02*X200000D01*
X204000Y238500D02*G75*G03X204000Y238500I-10000J0D01*G01*
X190464Y232964D02*G75*G03X197536Y232964I3536J3536D01*G01*
X215692Y366420D02*Y271420D01*
X105692Y366420D02*X215692D01*
X105692D02*Y271420D01*
X215692D01*
X159692Y366420D02*Y336420D01*
X188692D01*
Y366420D02*Y336420D01*
X129692Y366420D02*X188692D01*
X129692D02*Y336420D01*
X159692D01*
X52309Y385580D02*Y342273D01*
Y385580D02*X56246D01*
Y389517D02*Y385580D01*
Y389517D02*X68057D01*
Y385580D01*
X83805D01*
Y389517D02*Y385580D01*
Y389517D02*X95616D01*
Y385580D01*
X99553D01*
Y342273D01*
X52309D02*X99553D01*
X68057Y397391D02*Y389517D01*
Y397391D02*X83805D01*
Y389517D01*
X83569Y237613D02*X82038Y241309D01*
X83424Y241883D02*X80652Y240735D01*
X81273Y243156D02*X79742Y246852D01*
X82659Y243730D02*X79887Y242582D01*
X245500Y221500D02*Y212500D01*
X241500Y221500D02*X249500D01*
Y233500D02*Y221500D01*
X241500Y233500D02*X249500D01*
X241500D02*Y221500D01*
X245500Y242500D02*Y233500D01*
X258000Y226500D02*Y217500D01*
X254000Y226500D02*X262000D01*
Y238500D02*Y226500D01*
X254000Y238500D02*X262000D01*
X254000D02*Y226500D01*
X258000Y247500D02*Y238500D01*
X219000Y233500D02*X221000D01*
X215000Y238500D02*G75*G03X215000Y238500I10000J0D01*G01*
X228536Y244036D02*G75*G03X221464Y244036I-3536J-3536D01*G01*
X356813Y218562D02*X280276Y33786D01*
X215604Y60574D01*
X292141Y245350D02*X215604Y60574D01*
X356813Y218562D02*X329097Y230042D01*
X319858Y233869D02*X292141Y245350D01*
X319874Y233910D02*G75*G03X329080Y230002I4603J-1954D01*G01*
X375571Y372339D02*X409429D01*
Y389661D02*Y372339D01*
X375571Y389661D02*X409429D01*
X375571D02*Y372339D01*
X384626Y389661D02*Y388087D01*
X400374D01*
Y389661D02*Y388087D01*
X392500Y389661D02*X400374D01*
X392500D02*Y388087D01*
X421455Y200500D02*Y131500D01*
X379455D02*X421455D01*
X379455Y200500D02*Y131500D01*
Y200500D02*X395205D01*
X400455Y195250D01*
X405705Y200500D01*
X421455D01*
X395500Y207500D02*X399500D01*
Y206000D02*Y209000D01*
X401500Y207500D02*X405500D01*
X401500Y206000D02*Y209000D01*
X400000Y110500D02*Y106500D01*
X398500Y110500D02*X401500D01*
X400000Y116500D02*Y112500D01*
X398500D02*X401500D01*
X635225Y24006D02*X625225Y4006D01*
X585225D02*X625225D01*
X585225D02*X575225Y24006D01*
X635225D01*
X625225Y4006D02*X615225Y24006D01*
X605225Y4006D01*
X595225Y24006D01*
X585225Y4006D01*
G54D115*X413000Y353500D02*X415000D01*
X414000Y349500D02*Y353500D01*
X409800D02*X411800D01*
X409800D02*X409300Y353000D01*
Y352000D02*Y353000D01*
X409800Y351500D02*X409300Y352000D01*
X409800Y351500D02*X411300D01*
Y349500D02*Y353500D01*
X410500Y351500D02*X409300Y349500D01*
X407100Y353500D02*X408100D01*
X407600Y349500D02*Y353500D01*
X407100Y349500D02*X408100D01*
X405900Y353000D02*X405400Y353500D01*
X404400D02*X405400D01*
X404400D02*X403900Y353000D01*
X404400Y349500D02*X403900Y350000D01*
X404400Y349500D02*X405400D01*
X405900Y350000D02*X405400Y349500D01*
X404400Y351700D02*X405400D01*
X403900Y352200D02*Y353000D01*
Y350000D02*Y351200D01*
X404400Y351700D01*
X403900Y352200D02*X404400Y351700D01*
X401500Y213500D02*X402800D01*
X403500Y214200D02*X402800Y213500D01*
X403500Y214200D02*Y216800D01*
X402800Y217500D01*
X401500D02*X402800D01*
X400300Y215000D02*X398300Y217500D01*
X397800Y215000D02*X400300D01*
X398300Y213500D02*Y217500D01*
X397000Y371000D02*X396250Y370250D01*
X397000Y371000D02*X399250D01*
X400000Y370250D02*X399250Y371000D01*
X400000Y368750D02*Y370250D01*
Y368750D02*X399250Y368000D01*
X397000D02*X399250D01*
X397000D02*X396250Y367250D01*
Y365750D02*Y367250D01*
X397000Y365000D02*X396250Y365750D01*
X397000Y365000D02*X399250D01*
X400000Y365750D02*X399250Y365000D01*
X394450Y368000D02*Y371000D01*
Y368000D02*X393700Y365000D01*
X392200Y368000D01*
X390700Y365000D01*
X389950Y368000D01*
Y371000D01*
X388150Y369800D02*X386950Y371000D01*
Y365000D02*Y371000D01*
X385900Y365000D02*X388150D01*
X215500Y37000D02*Y40000D01*
X215000Y40500D01*
X214000D02*X215000D01*
X214000D02*X213500Y40000D01*
Y37000D02*Y40000D01*
X214000Y36500D02*X213500Y37000D01*
X214000Y36500D02*X215000D01*
X215500Y37000D02*X215000Y36500D01*
X210300Y40500D02*X209800Y40000D01*
X210300Y40500D02*X211800D01*
X212300Y40000D02*X211800Y40500D01*
X212300Y39000D02*Y40000D01*
Y39000D02*X211800Y38500D01*
X210300D02*X211800D01*
X210300D02*X209800Y38000D01*
Y37000D02*Y38000D01*
X210300Y36500D02*X209800Y37000D01*
X210300Y36500D02*X211800D01*
X212300Y37000D02*X211800Y36500D01*
X206600D02*X207900D01*
X208600Y37200D02*X207900Y36500D01*
X208600Y37200D02*Y39800D01*
X207900Y40500D01*
X206600D02*X207900D01*
X111000Y221000D02*Y224000D01*
X110300Y225000D01*
X109200D02*X110300D01*
X109200D02*X108500Y224000D01*
Y221000D02*Y224000D01*
Y223000D02*X111000D01*
X107300Y225000D02*X106300Y223000D01*
X105300Y225000D01*
X106300Y221000D02*Y223000D01*
X104100Y224500D02*X103600Y225000D01*
X102100D02*X103600D01*
X102100D02*X101600Y224500D01*
Y223500D02*Y224500D01*
X104100Y221000D02*X101600Y223500D01*
Y221000D02*X104100D01*
X143900Y237300D02*X145900D01*
X143900D02*X143400Y236800D01*
Y235800D02*Y236800D01*
X143900Y235300D02*X143400Y235800D01*
X143900Y235300D02*X145400D01*
Y233300D02*Y237300D01*
X144600Y235300D02*X143400Y233300D01*
X142200Y233800D02*X141700Y233300D01*
X142200Y233800D02*Y234600D01*
X141500Y235300D01*
X140900D02*X141500D01*
X140900D02*X140200Y234600D01*
Y233800D02*Y234600D01*
X140700Y233300D02*X140200Y233800D01*
X140700Y233300D02*X141700D01*
X142200Y236000D02*X141500Y235300D01*
X142200Y236000D02*Y236800D01*
X141700Y237300D01*
X140700D02*X141700D01*
X140700D02*X140200Y236800D01*
Y236000D02*Y236800D01*
X140900Y235300D02*X140200Y236000D01*
X211580Y339692D02*Y345692D01*
X209330Y342692D01*
X207080Y345692D01*
Y339692D02*Y345692D01*
X205280Y339692D02*Y344192D01*
X204230Y345692D01*
X202580D02*X204230D01*
X202580D02*X201530Y344192D01*
Y339692D02*Y344192D01*
Y342692D02*X205280D01*
X199730Y339692D02*X195980Y345692D01*
X199730D02*X195980Y339692D01*
X75550Y365254D02*X76750D01*
X75550Y360004D02*Y365254D01*
X76300Y359254D02*X75550Y360004D01*
X76300Y359254D02*X77050D01*
X77800Y360004D02*X77050Y359254D01*
X77800Y360004D02*Y360754D01*
X73750Y359254D02*Y363754D01*
X72700Y365254D01*
X71050D02*X72700D01*
X71050D02*X70000Y363754D01*
Y359254D02*Y363754D01*
Y362254D02*X73750D01*
X65200Y359254D02*X67150D01*
X68200Y360304D02*X67150Y359254D01*
X68200Y360304D02*Y364204D01*
X67150Y365254D01*
X65200D02*X67150D01*
X63400Y359254D02*Y365254D01*
Y362254D02*X60400Y365254D01*
X63400Y362254D02*X60400Y359254D01*
X58600Y360004D02*X57850Y359254D01*
X58600Y360004D02*Y364504D01*
X57850Y365254D01*
X56350D02*X57850D01*
X56350D02*X55600Y364504D01*
Y360004D02*Y364504D01*
X56350Y359254D02*X55600Y360004D01*
X56350Y359254D02*X57850D01*
X58600Y360754D02*X55600Y363754D01*
X73500Y238500D02*X74800D01*
X75500Y239200D02*X74800Y238500D01*
X75500Y239200D02*Y241800D01*
X74800Y242500D01*
X73500D02*X74800D01*
X72300Y239000D02*X71800Y238500D01*
X72300Y239000D02*Y239800D01*
X71600Y240500D01*
X71000D02*X71600D01*
X71000D02*X70300Y239800D01*
Y239000D02*Y239800D01*
X70800Y238500D02*X70300Y239000D01*
X70800Y238500D02*X71800D01*
X72300Y241200D02*X71600Y240500D01*
X72300Y241200D02*Y242000D01*
X71800Y242500D01*
X70800D02*X71800D01*
X70800D02*X70300Y242000D01*
Y241200D02*Y242000D01*
X71000Y240500D02*X70300Y241200D01*
X419455Y206500D02*X421455D01*
X420455Y202500D02*Y206500D01*
X416255D02*X418255D01*
X416255D02*X415755Y206000D01*
Y205000D02*Y206000D01*
X416255Y204500D02*X415755Y205000D01*
X416255Y204500D02*X417755D01*
Y202500D02*Y206500D01*
X416955Y204500D02*X415755Y202500D01*
X413555Y206500D02*X414555D01*
X414055Y202500D02*Y206500D01*
X413555Y202500D02*X414555D01*
X412355Y206000D02*X411855Y206500D01*
X410355D02*X411855D01*
X410355D02*X409855Y206000D01*
Y205000D02*Y206000D01*
X412355Y202500D02*X409855Y205000D01*
Y202500D02*X412355D01*
X270900Y236800D02*X272900D01*
X270900D02*X270400Y236300D01*
Y235300D02*Y236300D01*
X270900Y234800D02*X270400Y235300D01*
X270900Y234800D02*X272400D01*
Y232800D02*Y236800D01*
X271600Y234800D02*X270400Y232800D01*
X268700D02*X267200Y234800D01*
Y236300D01*
X267700Y236800D02*X267200Y236300D01*
X267700Y236800D02*X268700D01*
X269200Y236300D02*X268700Y236800D01*
X269200Y235300D02*Y236300D01*
Y235300D02*X268700Y234800D01*
X267200D02*X268700D01*
X338500Y214500D02*Y217500D01*
X337800Y218500D01*
X336700D02*X337800D01*
X336700D02*X336000Y217500D01*
Y214500D02*Y217500D01*
Y216500D02*X338500D01*
X334800Y218500D02*X333800Y216500D01*
X332800Y218500D01*
X333800Y214500D02*Y216500D01*
X331600Y217700D02*X330800Y218500D01*
Y214500D02*Y218500D01*
X330100Y214500D02*X331600D01*
X319272Y245830D02*X320572D01*
X321272Y246530D02*X320572Y245830D01*
X321272Y246530D02*Y249130D01*
X320572Y249830D01*
X319272D02*X320572D01*
X317572Y245830D02*X316072Y247830D01*
Y249330D01*
X316572Y249830D02*X316072Y249330D01*
X316572Y249830D02*X317572D01*
X318072Y249330D02*X317572Y249830D01*
X318072Y248330D02*Y249330D01*
Y248330D02*X317572Y247830D01*
X316072D02*X317572D01*
X177900Y227800D02*X179900D01*
X177900D02*X177400Y227300D01*
Y226300D02*Y227300D01*
X177900Y225800D02*X177400Y226300D01*
X177900Y225800D02*X179400D01*
Y223800D02*Y227800D01*
X178600Y225800D02*X177400Y223800D01*
X174700Y227800D02*X174200Y227300D01*
X174700Y227800D02*X175700D01*
X176200Y227300D02*X175700Y227800D01*
X176200Y224300D02*Y227300D01*
Y224300D02*X175700Y223800D01*
X174700Y226000D02*X174200Y225500D01*
X174700Y226000D02*X176200D01*
X174700Y223800D02*X175700D01*
X174700D02*X174200Y224300D01*
Y225500D01*
X236900Y228300D02*X238900D01*
X236900D02*X236400Y227800D01*
Y226800D02*Y227800D01*
X236900Y226300D02*X236400Y226800D01*
X236900Y226300D02*X238400D01*
Y224300D02*Y228300D01*
X237600Y226300D02*X236400Y224300D01*
X234700D02*X232700Y228300D01*
X235200D01*
X232000Y252000D02*X233300D01*
X234000Y252700D02*X233300Y252000D01*
X234000Y252700D02*Y255300D01*
X233300Y256000D01*
X232000D02*X233300D01*
X230800Y255200D02*X230000Y256000D01*
Y252000D02*Y256000D01*
X229300Y252000D02*X230800D01*
X204000Y251500D02*X205300D01*
X206000Y252200D02*X205300Y251500D01*
X206000Y252200D02*Y254800D01*
X205300Y255500D01*
X204000D02*X205300D01*
X202800Y255000D02*X202300Y255500D01*
X200800D02*X202300D01*
X200800D02*X200300Y255000D01*
Y254000D02*Y255000D01*
X202800Y251500D02*X200300Y254000D01*
Y251500D02*X202800D01*
X390000Y109500D02*X391300D01*
X392000Y110200D02*X391300Y109500D01*
X392000Y110200D02*Y112800D01*
X391300Y113500D01*
X390000D02*X391300D01*
X388800Y113000D02*X388300Y113500D01*
X387300D02*X388300D01*
X387300D02*X386800Y113000D01*
X387300Y109500D02*X386800Y110000D01*
X387300Y109500D02*X388300D01*
X388800Y110000D02*X388300Y109500D01*
X387300Y111700D02*X388300D01*
X386800Y112200D02*Y113000D01*
Y110000D02*Y111200D01*
X387300Y111700D01*
X386800Y112200D02*X387300Y111700D01*
X354000Y286000D02*X355300D01*
X356000Y286700D02*X355300Y286000D01*
X356000Y286700D02*Y289300D01*
X355300Y290000D01*
X354000D02*X355300D01*
X350800D02*X352800D01*
Y288000D02*Y290000D01*
Y288000D02*X352300Y288500D01*
X351300D02*X352300D01*
X351300D02*X350800Y288000D01*
Y286500D02*Y288000D01*
X351300Y286000D02*X350800Y286500D01*
X351300Y286000D02*X352300D01*
X352800Y286500D02*X352300Y286000D01*
X419000Y105000D02*X421000D01*
X420000Y101000D02*Y105000D01*
X415800D02*X417800D01*
X415800D02*X415300Y104500D01*
Y103500D02*Y104500D01*
X415800Y103000D02*X415300Y103500D01*
X415800Y103000D02*X417300D01*
Y101000D02*Y105000D01*
X416500Y103000D02*X415300Y101000D01*
X413100Y105000D02*X414100D01*
X413600Y101000D02*Y105000D01*
X413100Y101000D02*X414100D01*
X411900Y104200D02*X411100Y105000D01*
Y101000D02*Y105000D01*
X410400Y101000D02*X411900D01*
M02*
