G04 start of page 8 for group -4062 idx -4062 *
G04 Title: (unknown), soldermask *
G04 Creator: pcb 20140316 *
G04 CreationDate: Sat 22 Apr 2017 04:45:52 AM GMT UTC *
G04 For: vince *
G04 Format: Gerber/RS-274X *
G04 PCB-Dimensions (mil): 6900.00 3900.00 *
G04 PCB-Coordinate-Origin: lower left *
%MOIN*%
%FSLAX25Y25*%
%LNBOTTOMMASK*%
%ADD109C,0.1000*%
%ADD108C,0.0866*%
%ADD107C,0.0472*%
%ADD106C,0.0780*%
%ADD105C,0.0591*%
%ADD104C,0.0610*%
%ADD103C,0.0600*%
%ADD102C,0.0700*%
%ADD101C,0.1181*%
%ADD100C,0.2441*%
%ADD99C,0.0001*%
%ADD98C,0.1285*%
%ADD97C,0.0800*%
%ADD96C,0.1600*%
%ADD95C,0.0660*%
G54D95*X174500Y40500D03*
Y10500D03*
G54D96*X143500Y14000D03*
G54D95*X146483Y164840D03*
G54D97*X189985Y161413D03*
Y151413D03*
Y141413D03*
Y131413D03*
G54D95*X150310Y155601D03*
X154136Y146362D03*
X157963Y137123D03*
X161790Y127885D03*
X165617Y118646D03*
X169444Y109407D03*
X173271Y100168D03*
X177097Y90929D03*
X180924Y81690D03*
X184751Y72452D03*
X188578Y63213D03*
X133145Y40252D03*
X129319Y49491D03*
X125491Y58730D03*
X121665Y67968D03*
X117838Y77207D03*
X114011Y86446D03*
X110184Y95685D03*
X106357Y104923D03*
G54D98*X39476Y46465D03*
G54D99*G36*
X31176Y73765D02*Y67165D01*
X37776D01*
Y73765D01*
X31176D01*
G37*
G54D95*X44476Y70465D03*
X234500Y40500D03*
Y10500D03*
X222137Y63280D03*
X225964Y72519D03*
X229791Y81758D03*
X233618Y90996D03*
X237445Y100235D03*
X241271Y109474D03*
X245099Y118713D03*
X248925Y127952D03*
G54D97*X219985Y131413D03*
Y141413D03*
Y151413D03*
Y161413D03*
G54D95*X252752Y137190D03*
X256579Y146429D03*
X260406Y155668D03*
X264233Y164907D03*
G54D100*X453280Y297626D03*
X646193D03*
G54D101*X596799Y115157D03*
G54D100*X646193Y69280D03*
G54D96*X654000Y205500D03*
G54D102*X458280Y148453D03*
Y158453D03*
Y168453D03*
Y178453D03*
X448280D03*
X458280Y188453D03*
Y108453D03*
X448280D03*
X458280Y118453D03*
Y128453D03*
Y138453D03*
X448280Y118453D03*
Y128453D03*
Y138453D03*
Y148453D03*
Y158453D03*
Y168453D03*
G54D99*G36*
X537200Y141800D02*Y135200D01*
X543800D01*
Y141800D01*
X537200D01*
G37*
G54D95*X550500Y138500D03*
X531000Y153000D03*
G54D96*X546500Y14000D03*
G54D99*G36*
X527700Y186300D02*Y179700D01*
X534300D01*
Y186300D01*
X527700D01*
G37*
G54D95*X531000Y173000D03*
Y163000D03*
X561000Y153000D03*
Y163000D03*
Y173000D03*
Y183000D03*
G54D103*X555500Y242000D03*
X545500Y255500D03*
Y215500D03*
X570807Y205045D03*
X520193D03*
G54D99*G36*
X546950Y202050D02*Y195950D01*
X553050D01*
Y202050D01*
X546950D01*
G37*
G54D104*X540000Y199000D03*
G54D103*X535500Y242000D03*
G54D100*X453280Y69280D03*
G54D99*G36*
X454780Y91953D02*Y84953D01*
X461780D01*
Y91953D01*
X454780D01*
G37*
G54D102*X448280Y88453D03*
Y98453D03*
G54D101*X500343Y40354D03*
G54D102*X498374Y117000D03*
Y107000D03*
X458280Y98453D03*
X498374Y97000D03*
Y87000D03*
G54D99*G36*
X494874Y80500D02*Y73500D01*
X501874D01*
Y80500D01*
X494874D01*
G37*
G54D102*X448280Y258453D03*
Y268453D03*
Y278453D03*
G54D97*X409000Y313000D03*
X379000D03*
X409000Y303000D03*
Y293000D03*
Y283000D03*
X379000D03*
Y293000D03*
Y303000D03*
G54D99*G36*
X359450Y286050D02*Y279950D01*
X365550D01*
Y286050D01*
X359450D01*
G37*
G54D104*X362500Y293000D03*
G54D102*X415000Y260000D03*
G54D103*X419000Y365000D03*
G54D97*X409000Y343000D03*
Y333000D03*
G54D105*X408642Y381000D03*
G54D103*X419000Y355500D03*
G54D97*X409000Y323000D03*
X379000D03*
G54D105*X376358Y381000D03*
X384626D03*
X392500D03*
X400374D03*
G54D103*X379000Y355500D03*
G54D96*X345500Y320000D03*
G54D103*X366500Y318500D03*
X379000Y365000D03*
X366500Y358500D03*
G54D97*X379000Y333000D03*
Y343000D03*
G54D99*G36*
X331600Y354400D02*Y346600D01*
X339400D01*
Y354400D01*
X331600D01*
G37*
G54D106*X345500Y350500D03*
X355500D03*
G54D99*G36*
X285500Y349000D02*Y342000D01*
X292500D01*
Y349000D01*
X285500D01*
G37*
G54D102*X279000Y345500D03*
X269000D03*
X259000D03*
G54D107*X75931Y352115D03*
X56246Y381643D03*
Y371800D03*
X95616Y381643D03*
Y371800D03*
G54D108*X75931D03*
X95616Y352115D03*
G54D109*X206192Y356920D03*
X115192D03*
G54D102*X167661Y350160D03*
X150731D03*
G54D99*G36*
X133452Y353660D02*Y346660D01*
X140452D01*
Y353660D01*
X133452D01*
G37*
G54D108*X56246Y352115D03*
X85774D03*
X66089D03*
G54D102*X181440Y350160D03*
G54D103*X155500Y266000D03*
G54D102*X170692Y281420D03*
X160692D03*
G54D103*X195500Y266000D03*
G54D102*X200692Y281420D03*
X190692D03*
X180692D03*
X150692D03*
X140692D03*
X130692D03*
G54D99*G36*
X117192Y284920D02*Y277920D01*
X124192D01*
Y284920D01*
X117192D01*
G37*
G54D102*X448280Y188453D03*
Y198453D03*
Y208453D03*
X458280Y198453D03*
Y208453D03*
Y218453D03*
X448280D03*
Y228453D03*
Y238453D03*
Y248453D03*
X458280Y228453D03*
Y238453D03*
Y248453D03*
Y258453D03*
Y268453D03*
Y278453D03*
G54D97*X415455Y196000D03*
Y186000D03*
Y176000D03*
G54D99*G36*
X411500Y233500D02*Y226500D01*
X418500D01*
Y233500D01*
X411500D01*
G37*
G54D102*X415000Y240000D03*
Y250000D03*
G54D97*X415455Y166000D03*
Y156000D03*
Y146000D03*
Y136000D03*
X385455Y156000D03*
Y166000D03*
Y176000D03*
Y186000D03*
Y196000D03*
G54D99*G36*
X392450Y210550D02*Y204450D01*
X398550D01*
Y210550D01*
X392450D01*
G37*
G54D104*X405500Y207500D03*
G54D97*X385455Y136000D03*
X385000Y94500D03*
X415000D03*
Y84500D03*
Y74500D03*
G54D99*G36*
X396950Y109550D02*Y103450D01*
X403050D01*
Y109550D01*
X396950D01*
G37*
G54D104*X400000Y116500D03*
G54D97*X415000Y64500D03*
X385000D03*
Y74500D03*
Y84500D03*
X415000Y54500D03*
X385000D03*
X415000Y44500D03*
X385000D03*
X415000Y34500D03*
X385000D03*
X385455Y146000D03*
G54D99*G36*
X346980Y219156D02*Y212556D01*
X353580D01*
Y219156D01*
X346980D01*
G37*
G54D95*X346453Y206617D03*
X342626Y197378D03*
X338799Y188139D03*
X334973Y178901D03*
X331146Y169662D03*
X323492Y151184D03*
X319665Y141946D03*
X315838Y132707D03*
X312012Y123468D03*
X308185Y114229D03*
X304358Y104991D03*
X300531Y95752D03*
X296704Y86513D03*
X292877Y77274D03*
X289051Y68035D03*
X285224Y58796D03*
X281397Y49557D03*
X277570Y40319D03*
X327319Y160423D03*
X275713Y192623D03*
X279540Y201862D03*
X283367Y211100D03*
X287193Y220339D03*
X291021Y229578D03*
X294847Y238817D03*
G54D99*G36*
X324751Y241579D02*Y235479D01*
X330851D01*
Y241579D01*
X324751D01*
G37*
G54D104*X331628Y247768D03*
G54D99*G36*
X112568Y242050D02*Y235450D01*
X119168D01*
Y242050D01*
X112568D01*
G37*
G36*
X216700Y241800D02*Y235200D01*
X223300D01*
Y241800D01*
X216700D01*
G37*
G54D95*X230000Y238500D03*
G54D99*G36*
X195700Y241800D02*Y235200D01*
X202300D01*
Y241800D01*
X195700D01*
G37*
G54D95*X189000Y238500D03*
X119695Y229511D03*
X123522Y220272D03*
X127349Y211033D03*
G54D103*X165500Y207500D03*
X153000Y212500D03*
X165500Y247500D03*
X153000Y252500D03*
G54D95*X102530Y114162D03*
G54D97*X56000Y115000D03*
G54D95*X98704Y123401D03*
G54D97*X56000Y125000D03*
G54D95*X94877Y132640D03*
X91050Y141879D03*
X87223Y151117D03*
X83396Y160356D03*
X79570Y169595D03*
X75743Y178834D03*
X71916Y188072D03*
X68089Y197311D03*
G54D99*G36*
X45950Y196550D02*Y190450D01*
X52050D01*
Y196550D01*
X45950D01*
G37*
G54D104*X59000Y193500D03*
G54D95*X64263Y206550D03*
X60435Y215789D03*
G54D96*X36000Y205500D03*
G54D99*G36*
X31176Y233765D02*Y227165D01*
X37776D01*
Y233765D01*
X31176D01*
G37*
G54D95*X44476Y230465D03*
G54D97*X56000Y185000D03*
G54D99*G36*
X80519Y240663D02*Y234563D01*
X86619D01*
Y240663D01*
X80519D01*
G37*
G54D104*X79742Y246852D03*
G54D98*X39476Y254465D03*
G54D97*X56000Y135000D03*
Y145000D03*
Y155000D03*
Y165000D03*
Y175000D03*
X26000Y185000D03*
Y175000D03*
Y165000D03*
Y155000D03*
Y145000D03*
Y135000D03*
Y125000D03*
Y115000D03*
G54D103*X245500Y207500D03*
Y247500D03*
X258000Y212500D03*
Y252500D03*
G54D95*X268060Y174145D03*
X271886Y183384D03*
G54D97*X219985Y171413D03*
G54D95*X131175Y201795D03*
X135002Y192556D03*
X138829Y183317D03*
X142656Y174078D03*
G54D97*X219985Y181413D03*
Y191413D03*
Y201413D03*
G54D99*G36*
X207450Y222050D02*Y215950D01*
X213550D01*
Y222050D01*
X207450D01*
G37*
G54D104*X200500Y219000D03*
G54D97*X189985Y201413D03*
Y191413D03*
Y181413D03*
Y171413D03*
X54500Y115000D02*X57500D01*
X54500Y125000D02*X57500D01*
X54500Y135000D02*X57500D01*
X54500Y145000D02*X57500D01*
X54500Y155000D02*X57500D01*
X54500Y165000D02*X57500D01*
X54500Y175000D02*X57500D01*
X54500Y185000D02*X57500D01*
X24500D02*X27500D01*
X24500Y175000D02*X27500D01*
X24500Y165000D02*X27500D01*
X24500Y155000D02*X27500D01*
X24500Y145000D02*X27500D01*
X24500Y135000D02*X27500D01*
X24500Y125000D02*X27500D01*
X24500Y115000D02*X27500D01*
X218485Y131413D02*X221485D01*
X218485Y141413D02*X221485D01*
X218485Y151413D02*X221485D01*
X218485Y161413D02*X221485D01*
X218485Y171413D02*X221485D01*
X218485Y181413D02*X221485D01*
X218485Y191413D02*X221485D01*
X218485Y201413D02*X221485D01*
X188485D02*X191485D01*
X188485Y191413D02*X191485D01*
X188485Y181413D02*X191485D01*
X188485Y171413D02*X191485D01*
X188485Y161413D02*X191485D01*
X188485Y151413D02*X191485D01*
X188485Y141413D02*X191485D01*
X188485Y131413D02*X191485D01*
X413955Y156000D02*X416955D01*
X413955Y146000D02*X416955D01*
X413955Y136000D02*X416955D01*
X383955D02*X386955D01*
X383955Y146000D02*X386955D01*
X383955Y156000D02*X386955D01*
X383955Y166000D02*X386955D01*
X383955Y176000D02*X386955D01*
X383955Y186000D02*X386955D01*
X383955Y196000D02*X386955D01*
X413955Y176000D02*X416955D01*
X413955Y166000D02*X416955D01*
X413955Y196000D02*X416955D01*
X413955Y186000D02*X416955D01*
X413500Y94500D02*X416500D01*
X413500Y84500D02*X416500D01*
X413500Y74500D02*X416500D01*
X413500Y64500D02*X416500D01*
X413500Y54500D02*X416500D01*
X413500Y44500D02*X416500D01*
X413500Y34500D02*X416500D01*
X383500D02*X386500D01*
X383500Y44500D02*X386500D01*
X383500Y54500D02*X386500D01*
X383500Y64500D02*X386500D01*
X383500Y74500D02*X386500D01*
X383500Y84500D02*X386500D01*
X383500Y94500D02*X386500D01*
X407500Y343000D02*X410500D01*
X407500Y333000D02*X410500D01*
X407500Y323000D02*X410500D01*
X407500Y313000D02*X410500D01*
X407500Y303000D02*X410500D01*
X407500Y293000D02*X410500D01*
X407500Y283000D02*X410500D01*
X377500D02*X380500D01*
X377500Y293000D02*X380500D01*
X377500Y303000D02*X380500D01*
X377500Y313000D02*X380500D01*
X377500Y323000D02*X380500D01*
X377500Y333000D02*X380500D01*
X377500Y343000D02*X380500D01*
M02*
