M48
INCH
T72C0.020
T71C0.059
T70C0.042
T69C0.031
T68C0.029
T67C0.038
T66C0.035
T65C0.028
T64C0.030
T79C0.100
T78C0.047
T77C0.059
T76C0.118
T75C0.108
T74C0.129
T73C0.126
%
T72
X013000Y016800
X016100Y030200
X016800Y029700
X028350Y009700
X037500Y017550
X041950Y031550
X043000Y017100
T65
X006044Y021579
X006426Y020655
X006809Y019731
X007192Y018807
X007574Y017883
X007957Y016960
X008340Y016036
X008722Y015112
X009105Y014188
X009488Y013264
X009870Y012340
X010253Y011416
X010636Y010492
X011018Y009568
X011401Y008645
X011587Y023875
X011784Y007721
X011970Y022951
X012166Y006797
X012352Y022027
X012549Y005873
X012735Y021103
X012932Y004949
X013118Y020179
X013315Y004025
X013500Y019256
X013883Y018332
X014266Y017408
X014648Y016484
X015031Y015560
X015414Y014636
X015796Y013712
X016179Y012788
X016562Y011865
X016944Y010941
X017327Y010017
X017710Y009093
X018092Y008169
X018475Y007245
X018858Y006321
X022214Y006328
X022596Y007252
X022979Y008176
X023362Y009100
X023744Y010024
X024127Y010947
X024510Y011871
X024893Y012795
X025275Y013719
X025658Y014643
X026041Y015567
X026423Y016491
X026806Y017415
X027189Y018338
X027571Y019262
X027757Y004032
X027954Y020186
X028140Y004956
X028337Y021110
X028522Y005880
X028719Y022034
X028905Y006804
X029102Y022958
X029288Y007727
X029485Y023882
X029670Y008651
X030053Y009575
X030436Y010499
X030818Y011423
X031201Y012347
X031584Y013271
X031967Y014195
X032349Y015118
X032732Y016042
X033115Y016966
X033497Y017890
X033880Y018814
X034263Y019738
X034645Y020662
X035028Y021586
X053100Y018300
X053100Y017300
X053100Y016300
X053100Y015300
X056100Y018300
X056100Y017300
X056100Y016300
X056100Y015300
T68
X015300Y025250
X015300Y021250
X015550Y026600
X016550Y024750
X016550Y020750
X019550Y026600
X024550Y024750
X024550Y020750
X025800Y025250
X025800Y021250
X036650Y035850
X036650Y031850
X037900Y036500
X037900Y035550
X041900Y036500
X041900Y035550
X052019Y020504
X053550Y024200
X054550Y025550
X054550Y021550
X055550Y024200
X057081Y020504
T64
X004900Y019350
X005900Y019350
X007974Y024685
X008357Y023761
X017450Y004050
X017450Y001050
X018900Y023850
X019900Y023850
X020050Y021900
X021050Y021900
X022000Y023850
X023000Y023850
X023450Y004050
X023450Y001050
X032780Y023853
X033163Y024777
X036250Y029300
X036250Y028300
X039550Y020750
X040000Y011650
X040000Y010650
X040550Y020750
X054000Y019900
X055000Y019900
T69
X038463Y038100
X039250Y038100
X040037Y038100
T66
X002600Y018500
X002600Y017500
X002600Y016500
X002600Y015500
X002600Y014500
X002600Y013500
X002600Y012500
X002600Y011500
X005600Y018500
X005600Y017500
X005600Y016500
X005600Y015500
X005600Y014500
X005600Y013500
X005600Y012500
X005600Y011500
X006500Y026200
X013550Y011450
X014750Y008800
X018999Y020141
X018999Y019141
X018999Y018141
X018999Y017141
X018999Y016141
X018999Y015141
X018999Y014141
X018999Y013141
X020850Y031450
X021999Y020141
X021999Y019141
X021999Y018141
X021999Y017141
X021999Y016141
X021999Y015141
X021999Y014141
X021999Y013141
X024650Y002150
X026450Y008950
X027500Y011350
X037900Y034300
X037900Y033300
X037900Y032300
X037900Y031300
X037900Y030300
X037900Y029300
X037900Y028300
X038500Y009450
X038500Y008450
X038500Y007450
X038500Y006450
X038500Y005450
X038500Y004450
X038500Y003450
X038546Y019600
X038546Y018600
X038546Y017600
X038546Y016600
X038546Y015600
X038546Y014600
X038546Y013600
X038800Y027200
X040900Y034300
X040900Y033300
X040900Y032300
X040900Y031300
X040900Y030300
X040900Y029300
X040900Y028300
X041500Y009450
X041500Y008450
X041500Y007450
X041500Y006450
X041500Y005450
X041500Y004450
X041500Y003450
X041546Y019600
X041546Y018600
X041546Y017600
X041546Y016600
X041546Y015600
X041546Y014600
X041546Y013600
X043050Y034200
X047300Y009150
X047350Y030800
X047350Y025600
X047350Y016850
X048300Y031800
X048350Y011600
X048950Y012800
X049000Y020850
X049250Y027850
X049950Y030000
X049950Y014550
T67
X003448Y023047
X003448Y007047
X004448Y023047
X004448Y007047
X012069Y028142
X013069Y028142
X013695Y035016
X014069Y028142
X015069Y028142
X015073Y035016
X016069Y028142
X016766Y035016
X017069Y028142
X018069Y028142
X018144Y035016
X019069Y028142
X020069Y028142
X025900Y034550
X026900Y034550
X027900Y034550
X028900Y034550
X041500Y026000
X041500Y025000
X041500Y024000
X041500Y023000
X044828Y027845
X044828Y026845
X044828Y025845
X044828Y024845
X044828Y023845
X044828Y022845
X044828Y021845
X044828Y020845
X044828Y019845
X044828Y018845
X044828Y017845
X044828Y016845
X044828Y015845
X044828Y014845
X044828Y013845
X044828Y012845
X044828Y011845
X044828Y010845
X044828Y009845
X044828Y008845
X045828Y027845
X045828Y026845
X045828Y025845
X045828Y024845
X045828Y023845
X045828Y022845
X045828Y021845
X045828Y020845
X045828Y019845
X045828Y018845
X045828Y017845
X045828Y016845
X045828Y015845
X045828Y014845
X045828Y013845
X045828Y012845
X045828Y011845
X045828Y010845
X045828Y009845
X045828Y008845
X049837Y011700
X049837Y010700
X049837Y009700
X049837Y008700
X049837Y007700
X054050Y013850
X055050Y013850
T70
X033550Y035050
X034550Y035050
X035550Y035050
T71
X005625Y035212
X006609Y035212
X007593Y037180
X008577Y035212
X009562Y035212
%
T78
X005625Y038164
X005625Y037180
X007593Y035212
X009562Y038164
X009562Y037180
T77
X037636Y038100
X040864Y038100
T79
X011519Y035692
X020619Y035692
T75
X045328Y029763
X045328Y006928
X064619Y029763
X064619Y006928
T76
X050034Y004035
X059680Y011516
T73
X003600Y020550
X014350Y001400
X034550Y032000
X054650Y001400
X065400Y020550
T74
X003948Y025447
X003948Y004647
M30
