M48
INCH
T79C0.100
T78C0.047
T77C0.059
T76C0.118
T75C0.108
T74C0.129
T73C0.126
%
T78
X005625Y038164
X005625Y037180
X007593Y035212
X009562Y038164
X009562Y037180
T77
X037636Y038100
X040864Y038100
T79
X011519Y035692
X020619Y035692
T75
X045328Y029763
X045328Y006928
X064619Y029763
X064619Y006928
T76
X050034Y004035
X059680Y011516
T73
X003600Y020550
X014350Y001400
X034550Y032000
X054650Y001400
X065400Y020550
T74
X003948Y025447
X003948Y004647
M30
