M48
INCH
T17C0.020
T23C0.035
T24C0.052
T25C0.125
T26C0.046
T27C0.110
T28C0.042
%
T17
X030249Y026750
X028500Y019075
X014720Y019575
X011300Y019575
X033349Y018575
X017409Y027915
X030250Y028750
X034650Y014250
X033450Y007649
X035100Y011349
X031250Y003199
X029200Y005999
X028850Y006499
X036800Y005999
X030350Y004349
X025700Y003199
X026840Y006349
X024800Y017100
X034750Y012149
X032549Y011349
X043210Y002559
X042250Y016599
X022199Y009750
X017450Y004049
X021549Y005750
X000549Y008250
X002850Y015750
X017100Y014250
X013300Y016150
X006800Y008049
X016549Y007649
X011300Y017100
T23
X024000Y017150
X025063Y018000
X022000Y017150
X016968Y019000
X013031Y019000
X021968Y019000
X018031Y019000
X011968Y023000
X011968Y022000
X013031Y022000
X013031Y023000
X016968Y022000
X016968Y023000
X018031Y023000
X018031Y022000
X021968Y023000
X021968Y022000
X029000Y023000
X028000Y023000
X027000Y023000
X026000Y023000
X025000Y023000
X024000Y023000
X023000Y023000
X027000Y020000
X028000Y020000
X029000Y020000
X030063Y018000
X029000Y018000
X031150Y020150
X034000Y018000
X037150Y026150
X036150Y026150
X035150Y026150
X034150Y026150
X033150Y026150
X032150Y026150
X031150Y026150
X032800Y028000
X030800Y028000
X032150Y020150
X033150Y020150
X034150Y020150
X035150Y020150
X036150Y020150
X037150Y020150
X038150Y020150
X039150Y020150
X040150Y020150
X041150Y020150
X042150Y020150
X042150Y026150
X041150Y026150
X040150Y026150
X039150Y026150
X038150Y026150
X040400Y028000
X042400Y028000
X008031Y023000
X008031Y022000
X005400Y017000
X003400Y017000
X004000Y002000
X005000Y002000
X006000Y002000
X007000Y002000
X008000Y002000
X001000Y009000
X004000Y005000
X002000Y009000
X003000Y009000
X004000Y009000
X005000Y009000
X005000Y005000
X006000Y009000
X006000Y005000
X007000Y009000
X007000Y005000
X008000Y009000
X008000Y005000
X008000Y015000
X007000Y015000
X006000Y015000
X005000Y015000
X004000Y015000
X003000Y015000
X002000Y015000
X001000Y015000
X038900Y005100
X037900Y005100
X036900Y005100
X036900Y002100
X037900Y002100
X038900Y002100
X025000Y005000
X024000Y005000
X023000Y005000
X022000Y005000
X021000Y005000
X020000Y005000
X020000Y002000
X021000Y002000
X022000Y002000
X023000Y002000
X024000Y002000
X025000Y002000
X026000Y005000
X026000Y002000
X031900Y005100
X030900Y005100
X029900Y005100
X029900Y002100
X030900Y002100
X031900Y002100
X035900Y005100
X034900Y005100
X033900Y005100
X032900Y005100
X032900Y002100
X033900Y002100
X034900Y002100
X035900Y002100
X013000Y005000
X012000Y005000
X011000Y005000
X010000Y005000
X010000Y002000
X009000Y005000
X009000Y002000
X011000Y002000
X012000Y002000
X013000Y002000
X019000Y005000
X018000Y005000
X017000Y005000
X017000Y002000
X018000Y002000
X019000Y002000
X023000Y020000
X024000Y020000
X025000Y020000
X026000Y020000
X027400Y016400
X025400Y016400
X036000Y015000
X038300Y016000
X038300Y015000
X035000Y015000
X038300Y014000
X038300Y013000
X038300Y012000
X038300Y011000
X038300Y010000
X038300Y009000
X038300Y008000
X038300Y007000
X041300Y007000
X041300Y008000
X041300Y009000
X041300Y010000
X041300Y011000
X041300Y012000
X041300Y013000
X041300Y014000
X041300Y015000
X041300Y016000
X025000Y009000
X026000Y009000
X027000Y009000
X028000Y009000
X029000Y009000
X030000Y009000
X031000Y009000
X032000Y009000
X033000Y009000
X034000Y009000
X035000Y009000
X036000Y009000
X034000Y015000
X033000Y015000
X032000Y015000
X031000Y015000
X030000Y015000
X029000Y015000
X028000Y015000
X027000Y015000
X026000Y015000
X025000Y015000
X034500Y016700
X032500Y016700
X024000Y015000
X023000Y015000
X022000Y015000
X021000Y015000
X020000Y015000
X019000Y015000
X018000Y015000
X017000Y015000
X016000Y015000
X015000Y015000
X016000Y017000
X014000Y017000
X014000Y015000
X013000Y015000
X012000Y015000
X011000Y015000
X010000Y015000
X009000Y015000
X013000Y009000
X014000Y009000
X015000Y009000
X016000Y009000
X017000Y009000
X012000Y009000
X018000Y009000
X019000Y009000
X020000Y009000
X021000Y009000
X022000Y009000
X023000Y009000
X024000Y009000
X009000Y009000
X010000Y009000
X011000Y009000
X012000Y017000
X010000Y017000
X026300Y021925
T28
X001000Y002000
X002000Y002000
X003000Y002000
X001000Y005000
X002000Y005000
X003000Y005000
X040700Y004300
X041700Y004300
X040700Y001900
X041700Y001900
X042700Y001900
X042700Y004300
X027000Y005000
X028000Y005000
X029000Y005000
X027000Y002000
X028000Y002000
X029000Y002000
X014000Y005000
X015000Y005000
X014000Y002000
X015000Y002000
X016000Y002000
X016000Y005000
T26
X035700Y028000
X036700Y028000
X003700Y019900
X003700Y020900
T24
X014140Y024880
X014680Y026000
X013600Y026000
X013060Y024880
X012520Y026000
X011980Y024880
X018460Y024880
X017380Y024880
X016300Y024880
X016840Y026000
X015760Y026000
X015220Y024880
X023860Y024880
X022780Y024880
X021700Y024880
X020620Y024880
X024940Y024880
X019540Y024880
X023320Y026000
X022240Y026000
X020080Y026000
X024400Y026000
X021160Y026000
X019000Y026000
X017920Y026000
T27
X004000Y026000
X002100Y024800
T25
X009200Y025440
X027720Y025440
X004000Y023600
X042500Y017900
X001300Y017900
M30
