G04 start of page 2 for group 0 idx 0 *
G04 Title: (unknown), top *
G04 Creator: pcb 20140316 *
G04 CreationDate: Thu 02 Mar 2017 04:20:42 AM GMT UTC *
G04 For: vince *
G04 Format: Gerber/RS-274X *
G04 PCB-Dimensions (mil): 6900.00 3900.00 *
G04 PCB-Coordinate-Origin: lower left *
%MOIN*%
%FSLAX25Y25*%
%LNTOP*%
%ADD25C,0.0380*%
%ADD24C,0.0285*%
%ADD23C,0.0850*%
%ADD22C,0.1260*%
%ADD21C,0.0709*%
%ADD20C,0.1250*%
%ADD19C,0.0472*%
%ADD18C,0.0200*%
%ADD17C,0.0350*%
%ADD16C,0.0500*%
%ADD15C,0.0001*%
%ADD14C,0.0787*%
%ADD13C,0.0600*%
%ADD12C,0.0100*%
%ADD11C,0.0250*%
G54D11*X116500Y146500D02*X106500D01*
X96500D01*
X156500D02*X146500D01*
X136500D01*
X126500D01*
X116500D01*
X143750Y134250D02*X137500Y140500D01*
X104500D01*
X84000Y120000D01*
X102000Y116000D02*X94000Y108000D01*
X94500Y108500D01*
X153500Y133500D02*X136000Y116000D01*
X102000D01*
G54D12*X136500Y76500D02*X121000D01*
X146000Y72000D02*X131500D01*
X156500Y67500D02*X141000D01*
X171000Y63000D02*X151000D01*
X171500Y58500D02*X161000D01*
G54D11*X74000Y33500D02*Y32000D01*
X77350Y36850D02*X74000Y33500D01*
X77350Y198700D02*Y36850D01*
X84000Y33500D02*Y120000D01*
G54D12*X74400Y206900D02*Y120350D01*
X66243Y210293D02*Y120743D01*
G54D11*X94000Y33000D02*Y108000D01*
X136500Y189000D02*X126500D01*
X116500D01*
X106500D01*
X96500D01*
X176500D02*X203125D01*
G54D12*X166500Y176500D02*X167000D01*
X166500Y178000D02*Y175000D01*
X157000Y178000D02*X171000Y164000D01*
X175500D01*
X147000Y178000D02*X166500Y158500D01*
X175500D01*
X176500Y178000D02*X201500D01*
X166500Y175000D02*X170000Y171500D01*
X176000D01*
X156500Y178000D02*X157000D01*
X146500D02*X147000D01*
G54D11*X176500Y146500D02*X166500D01*
X156500D01*
X153500Y134000D02*Y133500D01*
X176500Y231500D02*X166500D01*
X156500D01*
X146500D01*
X136500D01*
G54D12*X249000Y251000D02*X76606D01*
G54D11*X177000Y231500D02*X240500D01*
X136500D02*X126500D01*
X116500D01*
X106500D01*
G54D12*X96500Y226050D02*Y219000D01*
G54D11*X204550Y213550D02*X92200D01*
X203125Y189000D02*X205100Y187025D01*
X211500Y210500D02*X222200Y199800D01*
X206050Y215050D02*X204550Y213550D01*
X211500Y220500D02*X206050Y215050D01*
X240500Y231500D02*X272000Y200000D01*
X211500Y220500D02*X233000Y199000D01*
X106500Y231500D02*X96500D01*
X86500D01*
X92200Y213550D02*X77350Y198700D01*
G54D12*X95850Y226700D02*X96500Y226050D01*
X95850Y226700D02*X82650D01*
X76606Y251000D02*X60606Y235000D01*
X86500Y219000D02*X74400Y206900D01*
X82650Y226700D02*X66243Y210293D01*
X11394Y254343D02*Y254106D01*
X19000Y246500D01*
G54D11*X166500Y189000D02*X156500D01*
X146500D01*
X136500D01*
X166500D02*X176500D01*
X205000Y187125D02*X205375D01*
X210000Y182500D01*
G54D12*X377000Y45500D02*X379500D01*
X377000D01*
X379500Y48500D02*Y47000D01*
Y48700D01*
X339500Y45500D02*Y47000D01*
Y48500D01*
X319000Y95000D02*X319500Y94500D01*
X328500Y89000D02*X329500Y90000D01*
X320000Y95000D02*X319500Y94500D01*
G54D11*X96500Y146500D02*X86500D01*
X96500Y189000D02*X86500D01*
G54D12*X19000Y246500D02*Y131500D01*
X12000Y124500D01*
X30000D02*Y130500D01*
X26000Y134500D01*
Y177000D01*
X12500Y84500D02*X17200Y79800D01*
X74400Y120350D02*X33850Y79800D01*
X66243Y120743D02*X30000Y84500D01*
X33850Y79800D02*X17200D01*
G54D11*X272000Y200000D02*Y146500D01*
X221500Y200500D02*Y167000D01*
X233000Y199000D02*Y167000D01*
G54D12*X228000Y151500D02*Y128000D01*
G54D11*X221500Y167000D02*X222000Y166500D01*
G54D12*X201500Y178000D02*X228000Y151500D01*
G54D11*X256000Y200000D02*Y140500D01*
X245000Y187500D02*Y126500D01*
X256000Y140500D02*X279500Y117000D01*
G54D12*X228000Y128000D02*X257000Y99000D01*
X175500Y164000D02*X250500Y89000D01*
X175500Y158500D02*X248500Y85500D01*
G54D11*X245000Y126500D02*X266500Y105000D01*
G54D12*X176000Y171500D02*X253000Y94500D01*
X250500Y89000D02*X328500D01*
X248500Y85500D02*X339500D01*
G54D11*X266500Y105000D02*X289500D01*
X290000Y104500D01*
G54D12*X319500Y94500D02*X253000D01*
X359500Y76500D02*X135000D01*
G54D11*X289500Y117000D02*Y129000D01*
X272000Y146500D01*
X325000Y134000D02*X337000D01*
X339500Y119500D02*X344500Y124500D01*
X372500D01*
X345000Y134000D02*X346000D01*
X299500Y117000D02*Y169500D01*
X339500Y117000D02*Y119500D01*
X335500Y134000D02*X336500D01*
G54D12*X314500Y107000D02*Y215000D01*
X308500Y221000D01*
X299500Y170000D02*Y224000D01*
X304500Y229000D01*
X341000D01*
X345500Y224500D01*
G54D11*Y134000D02*X393000Y181500D01*
X408000D01*
X337000Y134000D02*X407500Y204500D01*
X319550Y118500D02*X319500Y117000D01*
X319550Y115500D01*
X319500D01*
X319550Y138225D02*Y118500D01*
X369225Y128550D02*X334375D01*
X329500Y123675D02*Y118500D01*
G54D12*X257000Y99000D02*X407000D01*
X426000Y95000D02*X320000D01*
X432000Y90000D02*X329500D01*
X407000Y99000D02*X420500Y112500D01*
Y129000D01*
X432000Y140500D01*
G54D11*X279500Y45500D02*Y40500D01*
G54D12*X309500Y48500D02*Y47000D01*
X443500D02*X437500Y53000D01*
X145000Y72000D02*X547500D01*
X155000Y67500D02*X555000D01*
X169500Y63000D02*X555500D01*
G54D11*X299500Y36000D02*X416000D01*
G54D12*X111000Y81000D02*X447500D01*
X169500Y58500D02*X555000D01*
X555500Y59000D01*
G54D11*X289500Y45500D02*Y32975D01*
X299500Y45500D02*Y36800D01*
X289500Y32975D02*X283625Y27100D01*
X299500Y30500D02*X284000Y15000D01*
X299500Y37000D02*Y30500D01*
X279500Y40500D02*X111000D01*
X127000Y33500D02*X220500D01*
X129500Y24500D02*X133500Y28500D01*
X211000D01*
X220500Y33500D02*X230500Y23500D01*
X280025D01*
X284263Y27737D01*
X211000Y28500D02*X224500Y15000D01*
X284000D01*
X416000Y36000D02*X435500Y16500D01*
X511000D01*
X111000Y40500D02*X104000Y33500D01*
X101500Y22500D02*X116000D01*
X127000Y33500D01*
X130000Y25000D02*X120500Y15500D01*
X92000D01*
X94000Y33500D02*Y30000D01*
X101500Y22500D01*
X92000Y15500D02*X74000Y33500D01*
G54D12*X551500Y118000D02*X535000Y101500D01*
X526000Y108500D02*X475000D01*
X535000Y101500D02*X477500D01*
X475000Y108500D02*X447500Y81000D01*
X477500Y101500D02*X452500Y76500D01*
X547500Y72000D02*X548000Y72500D01*
X555500Y63000D02*X556000Y63500D01*
X559500Y53000D02*X453500D01*
X564500Y47000D02*X443500D01*
G54D11*X524000Y176500D02*X514000D01*
X534000D02*X524000D01*
X544000D02*X534000D01*
G54D12*X511500Y136500D02*X467500D01*
X510000Y129000D02*X471000D01*
X517500Y114000D02*X468000D01*
X467500Y136500D02*X426000Y95000D01*
X471000Y129000D02*X432000Y90000D01*
X468000Y114000D02*X439500Y85500D01*
X531500Y128000D02*X517500Y114000D01*
X541500Y136000D02*Y124000D01*
X526000Y108500D01*
X553500Y148000D02*X541500Y136000D01*
X553000Y140000D02*X552500Y139500D01*
X552000D01*
X551500Y139000D01*
X564000Y148000D02*Y145000D01*
X559000Y140000D01*
X553000D01*
X551500Y139000D02*Y118000D01*
X574000Y148000D02*Y98500D01*
X506500Y140500D02*X514000Y148000D01*
X524000D02*X523000D01*
X511500Y136500D01*
X523500Y141500D02*X522500Y140500D01*
X521500D01*
X510000Y129000D01*
X534000Y148000D02*Y145000D01*
X544000Y147500D02*X536500Y140000D01*
X533000D01*
X534000Y145000D02*X530500Y141500D01*
X533000Y140000D02*X531500Y138500D01*
Y128000D01*
X530500Y141500D02*X523500D01*
X574000Y98500D02*X547500Y72000D01*
X584000Y96500D02*X555000Y67500D01*
X594000Y101500D02*X555500Y63000D01*
X604000Y107500D02*X555000Y58500D01*
X591000Y84500D02*X559500Y53000D01*
X584000Y148000D02*Y96500D01*
X594000Y148000D02*Y101500D01*
X604000Y148000D02*Y107500D01*
X660000Y84500D02*X591000D01*
X677500D02*X676500D01*
X666500Y74500D01*
X592000D01*
X564500Y47000D01*
G54D11*X431000Y190325D02*X369225Y128550D01*
X372500Y124500D02*X426000Y178000D01*
X524000Y219000D02*X514000D01*
X459675D02*X431000Y190325D01*
X514000Y219000D02*X459675D01*
X426000Y178000D02*X514000D01*
G54D12*X432000Y140500D02*X506500D01*
G54D11*X334375Y128550D02*X329500Y123675D01*
X319550Y118500D02*X319500D01*
X397375Y216050D02*X319550Y138225D01*
X411225Y216050D02*X397375D01*
G54D12*X439500Y85500D02*X339000D01*
X452500Y76500D02*X360000D01*
G54D11*X427300Y232125D02*X411225Y216050D01*
X449175Y254000D02*X427300Y232125D01*
G54D12*X356394Y285657D02*X333606D01*
X356394Y335157D02*X333606D01*
X405606D02*X411243Y329520D01*
X405606Y354843D02*X356394D01*
X399969Y305343D02*X356394D01*
X405606Y335157D02*X356394D01*
X411243Y329520D02*Y289250D01*
X284394Y335157D02*X278757Y329520D01*
X333606Y335157D02*X284394D01*
X278757Y329520D02*Y291294D01*
X284394Y305343D02*X287212D01*
X290031D02*X287212D01*
X333606D02*X290031D01*
X333606Y354843D02*X284394D01*
X402788Y305343D02*X399969D01*
X405606D02*X402788D01*
X399969D01*
X405606D02*X402788D01*
X399969D02*Y280969D01*
X405606Y286431D02*Y285657D01*
X411243Y289250D02*X409199D01*
X411243Y289500D02*Y286757D01*
X409199Y289250D02*X405606Y285657D01*
X399969Y280969D02*X381000Y262000D01*
X411243Y286757D02*X430000Y268000D01*
X405606Y285657D02*Y286431D01*
X290031Y305343D02*Y287116D01*
Y305343D02*X287212D01*
X284394D01*
X304607Y272540D02*X308500Y268647D01*
X283657Y285657D02*X249000Y251000D01*
X308500Y268647D02*Y261000D01*
X284394Y285657D02*X283657D01*
X278757Y291294D02*X284394Y285657D01*
X290031Y287116D02*X304607Y272540D01*
G54D11*X594000Y176500D02*X584000D01*
X604000D02*X594000D01*
X534000Y219000D02*X524000D01*
X544000D02*X534000D01*
X554000D02*X544000D01*
X564000D02*X554000D01*
X574000D02*X564000D01*
X584000D02*X574000D01*
X594000D02*X584000D01*
X604000D02*X594000D01*
G54D12*X629394Y234657D02*Y234106D01*
X636000Y227500D01*
Y163264D01*
X629394Y234394D02*Y234606D01*
G54D11*X524106Y261657D02*X514106D01*
X513339D01*
X534106D02*X524106D01*
X544106D02*X534106D01*
X554106D02*X544106D01*
X564106D02*X554106D01*
X574106D02*X564106D01*
X584106D02*X574106D01*
X594106D02*X584106D01*
X604106D02*X594106D01*
X508550Y256869D02*X505681Y254000D01*
X449175D01*
X513339Y261657D02*X508550Y256869D01*
X513339Y261657D02*X514106Y263157D01*
X513339Y264657D01*
X514106D01*
G54D12*X678606Y176343D02*Y175606D01*
X669500Y190000D02*X665000Y185500D01*
X678500Y254236D02*X678882Y254618D01*
X679000Y254736D02*Y254500D01*
X669500Y245000D01*
Y190000D01*
X665000Y130500D02*Y185500D01*
G54D11*X554000Y176500D02*X544000D01*
X564000D02*X554000D01*
X574000D02*X564000D01*
X584000D02*X574000D01*
G54D12*X636000Y163264D02*X629394Y156657D01*
X678606Y175606D02*X672000Y169000D01*
Y130000D01*
X677500Y124500D01*
X660000D02*Y125500D01*
X665000Y130500D01*
X544000Y148000D02*Y147500D01*
X554000Y148000D02*X553500D01*
G54D13*X604106Y263157D03*
X604000Y178000D03*
Y220500D03*
Y190500D03*
X594106Y263157D03*
X594000Y178000D03*
Y220500D03*
Y190500D03*
G54D14*X629394Y254343D03*
X678606D03*
X629394Y176343D03*
X678606D03*
G54D13*X574106Y263157D03*
X564106D03*
X554106D03*
X544106D03*
X534106D03*
X524106D03*
X514106D03*
Y233157D03*
X524106D03*
X534106D03*
X544106D03*
X554106D03*
X564106D03*
X574106D03*
X584106D03*
X594106D03*
X604106D03*
G54D14*X629394Y234657D03*
X678606D03*
X284394Y305343D03*
Y354843D03*
Y335157D03*
Y285657D03*
G54D13*X308500Y221000D03*
Y261000D03*
X286000Y221500D03*
Y261500D03*
G54D14*X333606Y305343D03*
Y285657D03*
X356394Y305343D03*
Y285657D03*
G54D13*X345500Y254500D03*
G54D14*X333606Y354843D03*
Y335157D03*
X356394Y354843D03*
X405606D03*
X356394Y335157D03*
X405606D03*
Y305343D03*
Y285657D03*
G54D13*X407000Y221500D03*
Y261500D03*
X381000Y262000D03*
Y222000D03*
X345500Y224500D03*
X584000Y178000D03*
X574000D03*
X564000D03*
X554000D03*
X544000D03*
X534000D03*
X524000D03*
X514000D03*
Y190500D03*
X524000D03*
X534000D03*
X544000D03*
X554000D03*
X564000D03*
X574000D03*
X584000D03*
X584106Y263157D03*
X584000Y220500D03*
X574000D03*
X564000D03*
X554000D03*
X544000D03*
X534000D03*
X524000D03*
X514000D03*
X156500Y233000D03*
Y220500D03*
X146500D03*
X166500Y233000D03*
Y220500D03*
X176500Y233000D03*
Y220500D03*
Y263000D03*
X166500D03*
X156500D03*
X211500Y220500D03*
X116500Y233000D03*
X126500D03*
X136500D03*
X146500D03*
X86500D03*
X96500D03*
X106500D03*
G54D14*X11394Y254343D03*
X60606D03*
X11394Y234657D03*
X60606D03*
G54D13*X146500Y263000D03*
X136500D03*
X126500D03*
X116500D03*
X106500D03*
X96500D03*
X86500D03*
X136500Y220500D03*
X126500D03*
X116500D03*
X106500D03*
X96500D03*
X86500D03*
X279500Y117000D03*
X289500D03*
X299500D03*
X309500D03*
X319500D03*
X329500D03*
X339500D03*
X349500D03*
X325000Y134000D03*
X335000D03*
X345000D03*
X355000D03*
G54D15*G36*
X362000Y137000D02*Y131000D01*
X368000D01*
Y137000D01*
X362000D01*
G37*
G54D13*X359500Y117000D03*
X369500D03*
X379500D03*
X389500D03*
X399500D03*
X409500D03*
Y47000D03*
X399500D03*
X389500D03*
X379500D03*
X369500D03*
X359500D03*
X349500D03*
X339500D03*
X329500D03*
X319500D03*
X309500D03*
X299500D03*
X289500D03*
X279500D03*
X526500Y134000D03*
X514000Y148000D03*
X524000D03*
X534000D03*
X536500Y134000D03*
X546500D03*
X556500D03*
G54D15*G36*
X563500Y137000D02*Y131000D01*
X569500D01*
Y137000D01*
X563500D01*
G37*
G54D13*X544000Y148000D03*
X554000D03*
X564000D03*
X574000D03*
X584000D03*
X594000D03*
X604000D03*
G54D14*X629394Y156657D03*
X678606D03*
G54D13*X677500Y84500D03*
Y124500D03*
X660000Y84500D03*
Y124500D03*
X86500Y190500D03*
X96500D03*
X106500D03*
G54D15*G36*
X101000Y36500D02*Y30500D01*
X107000D01*
Y36500D01*
X101000D01*
G37*
G54D13*X94000Y33500D03*
X84000D03*
X74000D03*
G54D14*X11394Y176343D03*
X60606D03*
Y156657D03*
X11394D03*
G54D13*X30000Y84500D03*
Y124500D03*
X12500Y84500D03*
Y124500D03*
X116500Y190500D03*
X126500D03*
X136500D03*
X146500Y178000D03*
X136500D03*
X126500D03*
X116500D03*
X106500D03*
X96500D03*
X86500D03*
G54D15*G36*
X208500Y193500D02*Y187500D01*
X214500D01*
Y193500D01*
X208500D01*
G37*
G54D13*X211500Y200500D03*
Y210500D03*
X146500Y190500D03*
X156500D03*
Y178000D03*
Y148000D03*
X166500D03*
X176500D03*
X166500Y190500D03*
X176500D03*
Y178000D03*
X166500D03*
X86500Y148000D03*
X96500D03*
X106500D03*
X116500D03*
X126500D03*
X123500Y134000D03*
X136500Y148000D03*
X146500D03*
X133500Y134000D03*
X143500D03*
X153500D03*
G54D15*G36*
X160500Y137000D02*Y131000D01*
X166500D01*
Y137000D01*
X160500D01*
G37*
G54D13*X86500Y192000D02*Y189000D01*
X96500Y192000D02*Y189000D01*
X106500Y192000D02*Y189000D01*
X116500Y192000D02*Y189000D01*
X86500Y149500D02*Y146500D01*
X96500Y149500D02*Y146500D01*
X106500Y149500D02*Y146500D01*
X116500Y149500D02*Y146500D01*
X126500Y149500D02*Y146500D01*
X136500Y149500D02*Y146500D01*
X146500Y149500D02*Y146500D01*
X126500Y192000D02*Y189000D01*
X136500Y192000D02*Y189000D01*
X146500Y192000D02*Y189000D01*
Y179500D02*Y176500D01*
X136500Y179500D02*Y176500D01*
X126500Y179500D02*Y176500D01*
X116500Y179500D02*Y176500D01*
X106500Y179500D02*Y176500D01*
X96500Y179500D02*Y176500D01*
X86500Y179500D02*Y176500D01*
X156500Y192000D02*Y189000D01*
X166500Y192000D02*Y189000D01*
X176500Y192000D02*Y189000D01*
Y179500D02*Y176500D01*
X166500Y179500D02*Y176500D01*
X156500Y179500D02*Y176500D01*
Y149500D02*Y146500D01*
X166500Y149500D02*Y146500D01*
X176500Y149500D02*Y146500D01*
X146500Y234500D02*Y231500D01*
Y222000D02*Y219000D01*
X156500Y234500D02*Y231500D01*
X166500Y234500D02*Y231500D01*
X176500Y222000D02*Y219000D01*
X166500Y222000D02*Y219000D01*
X156500Y222000D02*Y219000D01*
X106500Y234500D02*Y231500D01*
X116500Y234500D02*Y231500D01*
X86500Y234500D02*Y231500D01*
X96500Y234500D02*Y231500D01*
X126500Y234500D02*Y231500D01*
X176500Y234500D02*Y231500D01*
Y264500D02*Y261500D01*
X166500Y264500D02*Y261500D01*
X156500Y264500D02*Y261500D01*
X146500Y264500D02*Y261500D01*
X136500Y264500D02*Y261500D01*
X126500Y264500D02*Y261500D01*
X116500Y264500D02*Y261500D01*
X106500Y264500D02*Y261500D01*
X96500Y264500D02*Y261500D01*
X86500Y264500D02*Y261500D01*
X136500Y234500D02*Y231500D01*
Y222000D02*Y219000D01*
X126500Y222000D02*Y219000D01*
X116500Y222000D02*Y219000D01*
X106500Y222000D02*Y219000D01*
X96500Y222000D02*Y219000D01*
X86500Y222000D02*Y219000D01*
X604106Y264657D02*Y261657D01*
X594106Y264657D02*Y261657D01*
X584106Y264657D02*Y261657D01*
X574106Y264657D02*Y261657D01*
X564106Y264657D02*Y261657D01*
X554106Y264657D02*Y261657D01*
X544106Y264657D02*Y261657D01*
X534106Y264657D02*Y261657D01*
X524106Y264657D02*Y261657D01*
X514106Y264657D02*Y261657D01*
Y234657D02*Y231657D01*
X524106Y234657D02*Y231657D01*
X534106Y234657D02*Y231657D01*
X544106Y234657D02*Y231657D01*
X554106Y234657D02*Y231657D01*
X564106Y234657D02*Y231657D01*
X574106Y234657D02*Y231657D01*
X574000Y222000D02*Y219000D01*
X564000Y222000D02*Y219000D01*
X554000Y222000D02*Y219000D01*
X544000Y222000D02*Y219000D01*
X534000Y222000D02*Y219000D01*
X524000Y222000D02*Y219000D01*
X514000Y222000D02*Y219000D01*
X584106Y234657D02*Y231657D01*
X594106Y234657D02*Y231657D01*
X604106Y234657D02*Y231657D01*
X604000Y222000D02*Y219000D01*
X594000Y222000D02*Y219000D01*
X584000Y222000D02*Y219000D01*
X279500Y118500D02*Y115500D01*
X289500Y118500D02*Y115500D01*
X299500Y118500D02*Y115500D01*
X309500Y118500D02*Y115500D01*
X319500Y118500D02*Y115500D01*
X329500Y118500D02*Y115500D01*
X339500Y118500D02*Y115500D01*
X349500Y118500D02*Y115500D01*
X359500Y118500D02*Y115500D01*
X369500Y118500D02*Y115500D01*
X379500Y118500D02*Y115500D01*
X389500Y118500D02*Y115500D01*
X399500Y118500D02*Y115500D01*
X409500Y118500D02*Y115500D01*
Y48500D02*Y45500D01*
X399500Y48500D02*Y45500D01*
X389500Y48500D02*Y45500D01*
X379500Y48500D02*Y45500D01*
X369500Y48500D02*Y45500D01*
X359500Y48500D02*Y45500D01*
X349500Y48500D02*Y45500D01*
X339500Y48500D02*Y45500D01*
X329500Y48500D02*Y45500D01*
X319500Y48500D02*Y45500D01*
X309500Y48500D02*Y45500D01*
X299500Y48500D02*Y45500D01*
X289500Y48500D02*Y45500D01*
X279500Y48500D02*Y45500D01*
X604000Y179500D02*Y176500D01*
X594000Y179500D02*Y176500D01*
X584000Y179500D02*Y176500D01*
X574000Y179500D02*Y176500D01*
X564000Y179500D02*Y176500D01*
X554000Y179500D02*Y176500D01*
Y192000D02*Y189000D01*
X564000Y192000D02*Y189000D01*
X574000Y192000D02*Y189000D01*
X584000Y192000D02*Y189000D01*
X594000Y192000D02*Y189000D01*
X604000Y192000D02*Y189000D01*
X514000Y179500D02*Y176500D01*
Y149500D02*Y146500D01*
X524000Y149500D02*Y146500D01*
X534000Y149500D02*Y146500D01*
X544000Y149500D02*Y146500D01*
X554000Y149500D02*Y146500D01*
X564000Y149500D02*Y146500D01*
X574000Y149500D02*Y146500D01*
X584000Y149500D02*Y146500D01*
X594000Y149500D02*Y146500D01*
X604000Y149500D02*Y146500D01*
X544000Y179500D02*Y176500D01*
Y192000D02*Y189000D01*
X534000Y179500D02*Y176500D01*
X524000Y179500D02*Y176500D01*
X514000Y192000D02*Y189000D01*
X524000Y192000D02*Y189000D01*
X534000Y192000D02*Y189000D01*
X210000Y182500D03*
X222000Y166500D03*
G54D16*X26000Y177000D03*
G54D13*X233000Y167000D03*
X245000Y187500D03*
X256000Y200500D03*
G54D16*X430000Y268000D03*
G54D13*X511000Y16500D03*
G54D16*X437500Y53000D03*
X453500D03*
X309500Y99000D03*
X319500Y94500D03*
G54D13*X290500Y105500D03*
G54D16*X314500Y107000D03*
X339500Y85500D03*
X349500Y81000D03*
X359500Y76500D03*
X369500Y72000D03*
G54D13*X299500Y170000D03*
X408000Y181500D03*
X407500Y204500D03*
G54D16*X329500Y90000D03*
X379500Y67500D03*
X389500Y63000D03*
X399500Y58500D03*
X111000Y81000D03*
X121000Y76500D03*
X131500Y72000D03*
X141000Y67500D03*
X151000Y63000D03*
X161000Y58500D03*
G54D13*X179500Y40500D03*
G54D17*G54D18*G54D17*G54D18*G54D17*G54D18*G54D17*G54D18*G54D17*G54D18*G54D17*G54D19*G54D20*G54D21*G54D22*G54D19*G54D21*G54D17*G54D23*G54D17*G54D19*G54D21*G54D19*G54D21*G54D19*G54D21*G54D19*G54D21*G54D24*G54D20*G54D19*G54D24*G54D22*G54D19*G54D21*G54D20*G54D21*G54D19*G54D21*G54D19*G54D21*G54D24*G54D20*G54D24*G54D17*G54D25*G54D23*G54D20*G54D17*G54D19*G54D21*G54D20*G54D19*G54D21*G54D19*G54D17*G54D23*G54D25*G54D17*G54D23*G54D17*G54D23*G54D17*G54D23*G54D25*G54D17*G54D25*G54D23*G54D17*G54D23*G54D17*G54D19*G54D21*G54D24*G54D23*G54D22*G54D17*G54D25*G54D19*G54D21*G54D22*G54D19*G54D23*G54D19*G54D21*G54D24*G54D17*G54D25*G54D17*G54D22*G54D17*G54D25*G54D17*G54D25*G54D23*M02*
