G04 start of page 4 for group 2 idx 2 *
G04 Title: (unknown), signal2 *
G04 Creator: pcb 20140316 *
G04 CreationDate: Thu 02 Mar 2017 04:20:42 AM GMT UTC *
G04 For: vince *
G04 Format: Gerber/RS-274X *
G04 PCB-Dimensions (mil): 6900.00 3900.00 *
G04 PCB-Coordinate-Origin: lower left *
%MOIN*%
%FSLAX25Y25*%
%LNGROUP2*%
%ADD51C,0.0380*%
%ADD50C,0.0285*%
%ADD49C,0.0850*%
%ADD48C,0.1260*%
%ADD47C,0.0709*%
%ADD46C,0.1250*%
%ADD45C,0.0472*%
%ADD44C,0.0200*%
%ADD43C,0.0350*%
%ADD42C,0.0500*%
%ADD41C,0.0001*%
%ADD40C,0.0787*%
%ADD39C,0.0600*%
G54D39*X604106Y263157D03*
X604000Y178000D03*
Y220500D03*
Y190500D03*
X594106Y263157D03*
X594000Y178000D03*
Y220500D03*
Y190500D03*
G54D40*X629394Y254343D03*
X678606D03*
X629394Y176343D03*
X678606D03*
G54D39*X574106Y263157D03*
X564106D03*
X554106D03*
X544106D03*
X534106D03*
X524106D03*
X514106D03*
Y233157D03*
X524106D03*
X534106D03*
X544106D03*
X554106D03*
X564106D03*
X574106D03*
X584106D03*
X594106D03*
X604106D03*
G54D40*X629394Y234657D03*
X678606D03*
X284394Y305343D03*
Y354843D03*
Y335157D03*
Y285657D03*
G54D39*X308500Y221000D03*
Y261000D03*
X286000Y221500D03*
Y261500D03*
G54D40*X333606Y305343D03*
Y285657D03*
X356394Y305343D03*
Y285657D03*
G54D39*X345500Y254500D03*
G54D40*X333606Y354843D03*
Y335157D03*
X356394Y354843D03*
X405606D03*
X356394Y335157D03*
X405606D03*
Y305343D03*
Y285657D03*
G54D39*X407000Y221500D03*
Y261500D03*
X381000Y262000D03*
Y222000D03*
X345500Y224500D03*
X584000Y178000D03*
X574000D03*
X564000D03*
X554000D03*
X544000D03*
X534000D03*
X524000D03*
X514000D03*
Y190500D03*
X524000D03*
X534000D03*
X544000D03*
X554000D03*
X564000D03*
X574000D03*
X584000D03*
X584106Y263157D03*
X584000Y220500D03*
X574000D03*
X564000D03*
X554000D03*
X544000D03*
X534000D03*
X524000D03*
X514000D03*
X156500Y233000D03*
Y220500D03*
X146500D03*
X166500Y233000D03*
Y220500D03*
X176500Y233000D03*
Y220500D03*
Y263000D03*
X166500D03*
X156500D03*
X211500Y220500D03*
X116500Y233000D03*
X126500D03*
X136500D03*
X146500D03*
X86500D03*
X96500D03*
X106500D03*
G54D40*X11394Y254343D03*
X60606D03*
X11394Y234657D03*
X60606D03*
G54D39*X146500Y263000D03*
X136500D03*
X126500D03*
X116500D03*
X106500D03*
X96500D03*
X86500D03*
X136500Y220500D03*
X126500D03*
X116500D03*
X106500D03*
X96500D03*
X86500D03*
X279500Y117000D03*
X289500D03*
X299500D03*
X309500D03*
X319500D03*
X329500D03*
X339500D03*
X349500D03*
X325000Y134000D03*
X335000D03*
X345000D03*
X355000D03*
G54D41*G36*
X362000Y137000D02*Y131000D01*
X368000D01*
Y137000D01*
X362000D01*
G37*
G54D39*X359500Y117000D03*
X369500D03*
X379500D03*
X389500D03*
X399500D03*
X409500D03*
Y47000D03*
X399500D03*
X389500D03*
X379500D03*
X369500D03*
X359500D03*
X349500D03*
X339500D03*
X329500D03*
X319500D03*
X309500D03*
X299500D03*
X289500D03*
X279500D03*
X526500Y134000D03*
X514000Y148000D03*
X524000D03*
X534000D03*
X536500Y134000D03*
X546500D03*
X556500D03*
G54D41*G36*
X563500Y137000D02*Y131000D01*
X569500D01*
Y137000D01*
X563500D01*
G37*
G54D39*X544000Y148000D03*
X554000D03*
X564000D03*
X574000D03*
X584000D03*
X594000D03*
X604000D03*
G54D40*X629394Y156657D03*
X678606D03*
G54D39*X677500Y84500D03*
Y124500D03*
X660000Y84500D03*
Y124500D03*
X86500Y190500D03*
X96500D03*
X106500D03*
G54D41*G36*
X101000Y36500D02*Y30500D01*
X107000D01*
Y36500D01*
X101000D01*
G37*
G54D39*X94000Y33500D03*
X84000D03*
X74000D03*
G54D40*X11394Y176343D03*
X60606D03*
Y156657D03*
X11394D03*
G54D39*X30000Y84500D03*
Y124500D03*
X12500Y84500D03*
Y124500D03*
X116500Y190500D03*
X126500D03*
X136500D03*
X146500Y178000D03*
X136500D03*
X126500D03*
X116500D03*
X106500D03*
X96500D03*
X86500D03*
G54D41*G36*
X208500Y193500D02*Y187500D01*
X214500D01*
Y193500D01*
X208500D01*
G37*
G54D39*X211500Y200500D03*
Y210500D03*
X146500Y190500D03*
X156500D03*
Y178000D03*
Y148000D03*
X166500D03*
X176500D03*
X166500Y190500D03*
X176500D03*
Y178000D03*
X166500D03*
X86500Y148000D03*
X96500D03*
X106500D03*
X116500D03*
X126500D03*
X123500Y134000D03*
X136500Y148000D03*
X146500D03*
X133500Y134000D03*
X143500D03*
X153500D03*
G54D41*G36*
X160500Y137000D02*Y131000D01*
X166500D01*
Y137000D01*
X160500D01*
G37*
G54D39*X210000Y182500D03*
X222000Y166500D03*
G54D42*X26000Y177000D03*
G54D39*X233000Y167000D03*
X245000Y187500D03*
X256000Y200500D03*
G54D42*X430000Y268000D03*
G54D39*X511000Y16500D03*
G54D42*X437500Y53000D03*
X453500D03*
X309500Y99000D03*
X319500Y94500D03*
G54D39*X290500Y105500D03*
G54D42*X314500Y107000D03*
X339500Y85500D03*
X349500Y81000D03*
X359500Y76500D03*
X369500Y72000D03*
G54D39*X299500Y170000D03*
X408000Y181500D03*
X407500Y204500D03*
G54D42*X329500Y90000D03*
X379500Y67500D03*
X389500Y63000D03*
X399500Y58500D03*
X111000Y81000D03*
X121000Y76500D03*
X131500Y72000D03*
X141000Y67500D03*
X151000Y63000D03*
X161000Y58500D03*
G54D39*X179500Y40500D03*
G54D43*G54D44*G54D43*G54D44*G54D43*G54D44*G54D43*G54D44*G54D43*G54D44*G54D43*G54D45*G54D46*G54D47*G54D48*G54D45*G54D47*G54D43*G54D49*G54D43*G54D45*G54D47*G54D45*G54D47*G54D45*G54D47*G54D45*G54D47*G54D50*G54D46*G54D45*G54D50*G54D48*G54D45*G54D47*G54D46*G54D47*G54D45*G54D47*G54D45*G54D47*G54D50*G54D46*G54D50*G54D43*G54D51*G54D49*G54D46*G54D43*G54D45*G54D47*G54D46*G54D45*G54D47*G54D45*G54D43*G54D49*G54D51*G54D43*G54D49*G54D43*G54D49*G54D43*G54D49*G54D51*G54D43*G54D51*G54D49*G54D43*G54D49*G54D43*G54D45*G54D47*G54D50*G54D49*G54D48*G54D43*G54D51*G54D45*G54D47*G54D48*G54D45*G54D49*G54D45*G54D47*G54D50*G54D43*G54D51*G54D43*G54D48*G54D43*G54D51*G54D43*G54D51*G54D49*M02*
