M48
INCH
T115C0.085
T114C0.126
T113C0.071
T112C0.125
%
T113
X003600Y026222
X003600Y022678
X003600Y018422
X003600Y014878
X030900Y036272
X030900Y032728
X030900Y031322
X030900Y027778
X038100Y036272
X038100Y032728
X038100Y031322
X038100Y027778
X065400Y026222
X065400Y022678
X065400Y018422
X065400Y014878
T115
X005080Y013170
X005080Y003380
X021180Y026070
X021180Y015030
X023620Y013170
X023620Y003380
X025230Y013170
X025230Y003380
X043770Y013170
X043770Y003380
X045380Y013170
X045380Y003380
X048170Y026070
X048170Y015030
X063920Y013170
X063920Y003380
T112
X001295Y028300
X026300Y037675
X026300Y028300
X042695Y037675
X042695Y028300
X067700Y028300
T114
X003600Y020550
X014350Y001400
X034550Y032000
X054650Y001400
X065400Y020550
M30
