G04 start of page 15 for group -4078 idx -4078 *
G04 Title: (unknown), bottomsilk *
G04 Creator: pcb 20140316 *
G04 CreationDate: Thu 02 Mar 2017 04:20:42 AM GMT UTC *
G04 For: vince *
G04 Format: Gerber/RS-274X *
G04 PCB-Dimensions (mil): 6900.00 3900.00 *
G04 PCB-Coordinate-Origin: lower left *
%MOIN*%
%FSLAX25Y25*%
%LNBOTTOMSILK*%
%ADD137C,0.0100*%
G54D137*X64000Y78500D02*X114000D01*
X64000D02*Y33500D01*
X114000D01*
Y78500D02*Y33500D01*
X269500Y122000D02*X419500D01*
Y42000D02*Y122000D01*
X269500Y42000D02*X419500D01*
X269500D02*Y73000D01*
X274500Y82000D01*
X269500Y91000D01*
Y122000D01*
X102500Y72000D02*X104000D01*
X103250Y66000D02*Y72000D01*
X102500Y66000D02*X104000D01*
X100700Y71250D02*X99950Y72000D01*
X97700D02*X99950D01*
X97700D02*X96950Y71250D01*
Y69750D02*Y71250D01*
X100700Y66000D02*X96950Y69750D01*
Y66000D02*X100700D01*
X92150D02*X94100D01*
X95150Y67050D02*X94100Y66000D01*
X95150Y67050D02*Y70950D01*
X94100Y72000D01*
X92150D02*X94100D01*
X88850D02*X90350D01*
X89600Y66000D02*Y72000D01*
X88850Y66000D02*X90350D01*
X87050D02*Y72000D01*
X83300Y66000D01*
Y72000D01*
X260500Y118000D02*X264500D01*
X260500Y115500D02*X264500D01*
X262500D02*Y118000D01*
X260500Y112300D02*Y114300D01*
Y113300D02*X264500D01*
X261300Y111100D02*X260500Y110300D01*
X264500D01*
Y109600D02*Y111100D01*
X260500Y106900D02*X261000Y106400D01*
X260500Y106900D02*Y107900D01*
X261000Y108400D02*X260500Y107900D01*
X261000Y108400D02*X264000D01*
X264500Y107900D01*
X262300Y106900D02*X262800Y106400D01*
X262300Y106900D02*Y108400D01*
X264500Y106900D02*Y107900D01*
Y106900D02*X264000Y106400D01*
X262800D02*X264000D01*
X260500Y105200D02*X264500D01*
X262500D02*X260500Y103200D01*
X262500Y105200D02*X264500Y103200D01*
X261000Y102000D02*X260500Y101500D01*
Y100500D02*Y101500D01*
Y100500D02*X261000Y100000D01*
X264500Y100500D02*X264000Y100000D01*
X264500Y100500D02*Y101500D01*
X264000Y102000D02*X264500Y101500D01*
X262300Y100500D02*Y101500D01*
X261000Y100000D02*X261800D01*
X262800D02*X264000D01*
X262800D02*X262300Y100500D01*
X261800Y100000D02*X262300Y100500D01*
X261000Y98800D02*X260500Y98300D01*
Y97300D02*Y98300D01*
Y97300D02*X261000Y96800D01*
X264500Y97300D02*X264000Y96800D01*
X264500Y97300D02*Y98300D01*
X264000Y98800D02*X264500Y98300D01*
X262300Y97300D02*Y98300D01*
X261000Y96800D02*X261800D01*
X262800D02*X264000D01*
X262800D02*X262300Y97300D01*
X261800Y96800D02*X262300Y97300D01*
M02*
