G04 start of page 18 for group -3984 idx -3984 *
G04 Title: (unknown), fab *
G04 Creator: pcb 20140316 *
G04 CreationDate: Thu 02 Mar 2017 04:20:42 AM GMT UTC *
G04 For: vince *
G04 Format: Gerber/RS-274X *
G04 PCB-Dimensions (mil): 6900.00 3900.00 *
G04 PCB-Coordinate-Origin: lower left *
%MOIN*%
%FSLAX25Y25*%
%LNFAB*%
%ADD143C,0.0100*%
%ADD142C,0.0075*%
%ADD141C,0.0060*%
%ADD140C,0.0080*%
G54D140*X653200Y205500D02*G75*G03X654800Y205500I800J0D01*G01*
G75*G03X653200Y205500I-800J0D01*G01*
X651600D02*G75*G03X656400Y205500I2400J0D01*G01*
G75*G03X651600Y205500I-2400J0D01*G01*
X35200D02*G75*G03X36800Y205500I800J0D01*G01*
G75*G03X35200Y205500I-800J0D01*G01*
X33600D02*G75*G03X38400Y205500I2400J0D01*G01*
G75*G03X33600Y205500I-2400J0D01*G01*
X545700Y14000D02*G75*G03X547300Y14000I800J0D01*G01*
G75*G03X545700Y14000I-800J0D01*G01*
X544100D02*G75*G03X548900Y14000I2400J0D01*G01*
G75*G03X544100Y14000I-2400J0D01*G01*
X142700D02*G75*G03X144300Y14000I800J0D01*G01*
G75*G03X142700Y14000I-800J0D01*G01*
X141100D02*G75*G03X145900Y14000I2400J0D01*G01*
G75*G03X141100Y14000I-2400J0D01*G01*
X344700Y320000D02*G75*G03X346300Y320000I800J0D01*G01*
G75*G03X344700Y320000I-800J0D01*G01*
X343100D02*G75*G03X347900Y320000I2400J0D01*G01*
G75*G03X343100Y320000I-2400J0D01*G01*
X14200Y401250D02*G75*G03X15800Y401250I800J0D01*G01*
G75*G03X14200Y401250I-800J0D01*G01*
X12600D02*G75*G03X17400Y401250I2400J0D01*G01*
G75*G03X12600Y401250I-2400J0D01*G01*
G54D141*X140000Y403500D02*Y397500D01*
Y403500D02*X143750Y397500D01*
Y403500D02*Y397500D01*
X145550Y402750D02*Y398250D01*
Y402750D02*X146300Y403500D01*
X147800D01*
X148550Y402750D01*
Y398250D01*
X147800Y397500D02*X148550Y398250D01*
X146300Y397500D02*X147800D01*
X145550Y398250D02*X146300Y397500D01*
X98000Y403500D02*X101000D01*
X98000D02*Y400500D01*
X98750Y401250D01*
X100250D01*
X101000Y400500D01*
Y398250D01*
X100250Y397500D02*X101000Y398250D01*
X98750Y397500D02*X100250D01*
X98000Y398250D02*X98750Y397500D01*
X45000Y398250D02*X45750Y397500D01*
X45000Y402750D02*Y398250D01*
Y402750D02*X45750Y403500D01*
X47250D01*
X48000Y402750D01*
Y398250D01*
X47250Y397500D02*X48000Y398250D01*
X45750Y397500D02*X47250D01*
X45000Y399000D02*X48000Y402000D01*
X49800Y397500D02*X50550D01*
X52350Y402300D02*X53550Y403500D01*
Y397500D01*
X52350D02*X54600D01*
X56400Y402750D02*X57150Y403500D01*
X59400D01*
X60150Y402750D01*
Y401250D01*
X56400Y397500D02*X60150Y401250D01*
X56400Y397500D02*X60150D01*
X64200Y403500D02*X64950Y402750D01*
X62700Y403500D02*X64200D01*
X61950Y402750D02*X62700Y403500D01*
X61950Y402750D02*Y398250D01*
X62700Y397500D01*
X64200Y400800D02*X64950Y400050D01*
X61950Y400800D02*X64200D01*
X62700Y397500D02*X64200D01*
X64950Y398250D01*
Y400050D02*Y398250D01*
X674600Y285400D02*X679400Y280600D01*
X674600D02*X679400Y285400D01*
X675400Y284600D02*X678600D01*
X675400D02*Y281400D01*
X678600D01*
Y284600D02*Y281400D01*
X424550Y285400D02*X429350Y280600D01*
X424550D02*X429350Y285400D01*
X425350Y284600D02*X428550D01*
X425350D02*Y281400D01*
X428550D01*
Y284600D02*Y281400D01*
X424550Y379150D02*X429350Y374350D01*
X424550D02*X429350Y379150D01*
X425350Y378350D02*X428550D01*
X425350D02*Y375150D01*
X428550D01*
Y378350D02*Y375150D01*
X10550Y285400D02*X15350Y280600D01*
X10550D02*X15350Y285400D01*
X11350Y284600D02*X14550D01*
X11350D02*Y281400D01*
X14550D01*
Y284600D02*Y281400D01*
X260600Y285400D02*X265400Y280600D01*
X260600D02*X265400Y285400D01*
X261400Y284600D02*X264600D01*
X261400D02*Y281400D01*
X264600D01*
Y284600D02*Y281400D01*
X260600Y379150D02*X265400Y374350D01*
X260600D02*X265400Y379150D01*
X261400Y378350D02*X264600D01*
X261400D02*Y375150D01*
X264600D01*
Y378350D02*Y375150D01*
X12600Y418650D02*X17400Y413850D01*
X12600D02*X17400Y418650D01*
X13400Y417850D02*X16600D01*
X13400D02*Y414650D01*
X16600D01*
Y417850D02*Y414650D01*
X140000Y418500D02*Y412500D01*
Y418500D02*X143750Y412500D01*
Y418500D02*Y412500D01*
X145550Y417750D02*Y413250D01*
Y417750D02*X146300Y418500D01*
X147800D01*
X148550Y417750D01*
Y413250D01*
X147800Y412500D02*X148550Y413250D01*
X146300Y412500D02*X147800D01*
X145550Y413250D02*X146300Y412500D01*
X100250Y418500D02*X101000Y417750D01*
X98750Y418500D02*X100250D01*
X98000Y417750D02*X98750Y418500D01*
X98000Y417750D02*Y413250D01*
X98750Y412500D01*
X100250Y415800D02*X101000Y415050D01*
X98000Y415800D02*X100250D01*
X98750Y412500D02*X100250D01*
X101000Y413250D01*
Y415050D02*Y413250D01*
X45000D02*X45750Y412500D01*
X45000Y417750D02*Y413250D01*
Y417750D02*X45750Y418500D01*
X47250D01*
X48000Y417750D01*
Y413250D01*
X47250Y412500D02*X48000Y413250D01*
X45750Y412500D02*X47250D01*
X45000Y414000D02*X48000Y417000D01*
X49800Y412500D02*X50550D01*
X52350Y417300D02*X53550Y418500D01*
Y412500D01*
X52350D02*X54600D01*
X56400Y417750D02*X57150Y418500D01*
X59400D01*
X60150Y417750D01*
Y416250D01*
X56400Y412500D02*X60150Y416250D01*
X56400Y412500D02*X60150D01*
X61950Y418500D02*X64950D01*
X61950D02*Y415500D01*
X62700Y416250D01*
X64200D01*
X64950Y415500D01*
Y413250D01*
X64200Y412500D02*X64950Y413250D01*
X62700Y412500D02*X64200D01*
X61950Y413250D02*X62700Y412500D01*
X50800Y134900D02*Y128500D01*
X47600Y131700D02*X54000D01*
X49200Y133300D02*X52400D01*
X49200D02*Y130100D01*
X52400D01*
Y133300D02*Y130100D01*
X50800Y37000D02*Y30600D01*
X47600Y33800D02*X54000D01*
X49200Y35400D02*X52400D01*
X49200D02*Y32200D01*
X52400D01*
Y35400D02*Y32200D01*
X236200Y134900D02*Y128500D01*
X233000Y131700D02*X239400D01*
X234600Y133300D02*X237800D01*
X234600D02*Y130100D01*
X237800D01*
Y133300D02*Y130100D01*
X236200Y37000D02*Y30600D01*
X233000Y33800D02*X239400D01*
X234600Y35400D02*X237800D01*
X234600D02*Y32200D01*
X237800D01*
Y35400D02*Y32200D01*
X252300Y134900D02*Y128500D01*
X249100Y131700D02*X255500D01*
X250700Y133300D02*X253900D01*
X250700D02*Y130100D01*
X253900D01*
Y133300D02*Y130100D01*
X252300Y37000D02*Y30600D01*
X249100Y33800D02*X255500D01*
X250700Y35400D02*X253900D01*
X250700D02*Y32200D01*
X253900D01*
Y35400D02*Y32200D01*
X437700Y134900D02*Y128500D01*
X434500Y131700D02*X440900D01*
X436100Y133300D02*X439300D01*
X436100D02*Y130100D01*
X439300D01*
Y133300D02*Y130100D01*
X437700Y37000D02*Y30600D01*
X434500Y33800D02*X440900D01*
X436100Y35400D02*X439300D01*
X436100D02*Y32200D01*
X439300D01*
Y35400D02*Y32200D01*
X453800Y134900D02*Y128500D01*
X450600Y131700D02*X457000D01*
X452200Y133300D02*X455400D01*
X452200D02*Y130100D01*
X455400D01*
Y133300D02*Y130100D01*
X453800Y37000D02*Y30600D01*
X450600Y33800D02*X457000D01*
X452200Y35400D02*X455400D01*
X452200D02*Y32200D01*
X455400D01*
Y35400D02*Y32200D01*
X639200Y134900D02*Y128500D01*
X636000Y131700D02*X642400D01*
X637600Y133300D02*X640800D01*
X637600D02*Y130100D01*
X640800D01*
Y133300D02*Y130100D01*
X639200Y37000D02*Y30600D01*
X636000Y33800D02*X642400D01*
X637600Y35400D02*X640800D01*
X637600D02*Y32200D01*
X640800D01*
Y35400D02*Y32200D01*
X211800Y153500D02*Y147100D01*
X208600Y150300D02*X215000D01*
X210200Y151900D02*X213400D01*
X210200D02*Y148700D01*
X213400D01*
Y151900D02*Y148700D01*
X211800Y263900D02*Y257500D01*
X208600Y260700D02*X215000D01*
X210200Y262300D02*X213400D01*
X210200D02*Y259100D01*
X213400D01*
Y262300D02*Y259100D01*
X481700Y153500D02*Y147100D01*
X478500Y150300D02*X484900D01*
X480100Y151900D02*X483300D01*
X480100D02*Y148700D01*
X483300D01*
Y151900D02*Y148700D01*
X481700Y263900D02*Y257500D01*
X478500Y260700D02*X484900D01*
X480100Y262300D02*X483300D01*
X480100D02*Y259100D01*
X483300D01*
Y262300D02*Y259100D01*
X15000Y434450D02*Y428050D01*
X11800Y431250D02*X18200D01*
X13400Y432850D02*X16600D01*
X13400D02*Y429650D01*
X16600D01*
Y432850D02*Y429650D01*
X140000Y433500D02*Y427500D01*
Y433500D02*X143750Y427500D01*
Y433500D02*Y427500D01*
X145550Y432750D02*Y428250D01*
Y432750D02*X146300Y433500D01*
X147800D01*
X148550Y432750D01*
Y428250D01*
X147800Y427500D02*X148550Y428250D01*
X146300Y427500D02*X147800D01*
X145550Y428250D02*X146300Y427500D01*
X98000Y432300D02*X99200Y433500D01*
Y427500D01*
X98000D02*X100250D01*
X104300Y433500D02*X105050Y432750D01*
X102800Y433500D02*X104300D01*
X102050Y432750D02*X102800Y433500D01*
X102050Y432750D02*Y428250D01*
X102800Y427500D01*
X104300Y430800D02*X105050Y430050D01*
X102050Y430800D02*X104300D01*
X102800Y427500D02*X104300D01*
X105050Y428250D01*
Y430050D02*Y428250D01*
X45000D02*X45750Y427500D01*
X45000Y432750D02*Y428250D01*
Y432750D02*X45750Y433500D01*
X47250D01*
X48000Y432750D01*
Y428250D01*
X47250Y427500D02*X48000Y428250D01*
X45750Y427500D02*X47250D01*
X45000Y429000D02*X48000Y432000D01*
X49800Y427500D02*X50550D01*
X52350Y428250D02*X53100Y427500D01*
X52350Y432750D02*Y428250D01*
Y432750D02*X53100Y433500D01*
X54600D01*
X55350Y432750D01*
Y428250D01*
X54600Y427500D02*X55350Y428250D01*
X53100Y427500D02*X54600D01*
X52350Y429000D02*X55350Y432000D01*
X57150Y428250D02*X57900Y427500D01*
X57150Y429450D02*Y428250D01*
Y429450D02*X58200Y430500D01*
X59100D01*
X60150Y429450D01*
Y428250D01*
X59400Y427500D02*X60150Y428250D01*
X57900Y427500D02*X59400D01*
X57150Y431550D02*X58200Y430500D01*
X57150Y432750D02*Y431550D01*
Y432750D02*X57900Y433500D01*
X59400D01*
X60150Y432750D01*
Y431550D01*
X59100Y430500D02*X60150Y431550D01*
X61950Y433500D02*X64950D01*
X61950D02*Y430500D01*
X62700Y431250D01*
X64200D01*
X64950Y430500D01*
Y428250D01*
X64200Y427500D02*X64950Y428250D01*
X62700Y427500D02*X64200D01*
X61950Y428250D02*X62700Y427500D01*
X36000Y184217D02*Y181017D01*
Y184217D02*X38773Y185817D01*
X36000Y184217D02*X33227Y185817D01*
X34400Y184217D02*G75*G03X37600Y184217I1600J0D01*G01*
G75*G03X34400Y184217I-1600J0D01*G01*
X36000Y148783D02*Y145583D01*
Y148783D02*X38773Y150383D01*
X36000Y148783D02*X33227Y150383D01*
X34400Y148783D02*G75*G03X37600Y148783I1600J0D01*G01*
G75*G03X34400Y148783I-1600J0D01*G01*
X36000Y262217D02*Y259017D01*
Y262217D02*X38773Y263817D01*
X36000Y262217D02*X33227Y263817D01*
X34400Y262217D02*G75*G03X37600Y262217I1600J0D01*G01*
G75*G03X34400Y262217I-1600J0D01*G01*
X36000Y226783D02*Y223583D01*
Y226783D02*X38773Y228383D01*
X36000Y226783D02*X33227Y228383D01*
X34400Y226783D02*G75*G03X37600Y226783I1600J0D01*G01*
G75*G03X34400Y226783I-1600J0D01*G01*
X309000Y313217D02*Y310017D01*
Y313217D02*X311773Y314817D01*
X309000Y313217D02*X306227Y314817D01*
X307400Y313217D02*G75*G03X310600Y313217I1600J0D01*G01*
G75*G03X307400Y313217I-1600J0D01*G01*
X309000Y277783D02*Y274583D01*
Y277783D02*X311773Y279383D01*
X309000Y277783D02*X306227Y279383D01*
X307400Y277783D02*G75*G03X310600Y277783I1600J0D01*G01*
G75*G03X307400Y277783I-1600J0D01*G01*
X309000Y362717D02*Y359517D01*
Y362717D02*X311773Y364317D01*
X309000Y362717D02*X306227Y364317D01*
X307400Y362717D02*G75*G03X310600Y362717I1600J0D01*G01*
G75*G03X307400Y362717I-1600J0D01*G01*
X309000Y327283D02*Y324083D01*
Y327283D02*X311773Y328883D01*
X309000Y327283D02*X306227Y328883D01*
X307400Y327283D02*G75*G03X310600Y327283I1600J0D01*G01*
G75*G03X307400Y327283I-1600J0D01*G01*
X381000Y362717D02*Y359517D01*
Y362717D02*X383773Y364317D01*
X381000Y362717D02*X378227Y364317D01*
X379400Y362717D02*G75*G03X382600Y362717I1600J0D01*G01*
G75*G03X379400Y362717I-1600J0D01*G01*
X381000Y327283D02*Y324083D01*
Y327283D02*X383773Y328883D01*
X381000Y327283D02*X378227Y328883D01*
X379400Y327283D02*G75*G03X382600Y327283I1600J0D01*G01*
G75*G03X379400Y327283I-1600J0D01*G01*
X381000Y313217D02*Y310017D01*
Y313217D02*X383773Y314817D01*
X381000Y313217D02*X378227Y314817D01*
X379400Y313217D02*G75*G03X382600Y313217I1600J0D01*G01*
G75*G03X379400Y313217I-1600J0D01*G01*
X381000Y277783D02*Y274583D01*
Y277783D02*X383773Y279383D01*
X381000Y277783D02*X378227Y279383D01*
X379400Y277783D02*G75*G03X382600Y277783I1600J0D01*G01*
G75*G03X379400Y277783I-1600J0D01*G01*
X654000Y262217D02*Y259017D01*
Y262217D02*X656773Y263817D01*
X654000Y262217D02*X651227Y263817D01*
X652400Y262217D02*G75*G03X655600Y262217I1600J0D01*G01*
G75*G03X652400Y262217I-1600J0D01*G01*
X654000Y226783D02*Y223583D01*
Y226783D02*X656773Y228383D01*
X654000Y226783D02*X651227Y228383D01*
X652400Y226783D02*G75*G03X655600Y226783I1600J0D01*G01*
G75*G03X652400Y226783I-1600J0D01*G01*
X654000Y184217D02*Y181017D01*
Y184217D02*X656773Y185817D01*
X654000Y184217D02*X651227Y185817D01*
X652400Y184217D02*G75*G03X655600Y184217I1600J0D01*G01*
G75*G03X652400Y184217I-1600J0D01*G01*
X654000Y148783D02*Y145583D01*
Y148783D02*X656773Y150383D01*
X654000Y148783D02*X651227Y150383D01*
X652400Y148783D02*G75*G03X655600Y148783I1600J0D01*G01*
G75*G03X652400Y148783I-1600J0D01*G01*
X15000Y446250D02*Y443050D01*
Y446250D02*X17773Y447850D01*
X15000Y446250D02*X12227Y447850D01*
X13400Y446250D02*G75*G03X16600Y446250I1600J0D01*G01*
G75*G03X13400Y446250I-1600J0D01*G01*
X140000Y448500D02*Y442500D01*
Y448500D02*X143750Y442500D01*
Y448500D02*Y442500D01*
X145550Y447750D02*Y443250D01*
Y447750D02*X146300Y448500D01*
X147800D01*
X148550Y447750D01*
Y443250D01*
X147800Y442500D02*X148550Y443250D01*
X146300Y442500D02*X147800D01*
X145550Y443250D02*X146300Y442500D01*
X98000Y447300D02*X99200Y448500D01*
Y442500D01*
X98000D02*X100250D01*
X104300Y448500D02*X105050Y447750D01*
X102800Y448500D02*X104300D01*
X102050Y447750D02*X102800Y448500D01*
X102050Y447750D02*Y443250D01*
X102800Y442500D01*
X104300Y445800D02*X105050Y445050D01*
X102050Y445800D02*X104300D01*
X102800Y442500D02*X104300D01*
X105050Y443250D01*
Y445050D02*Y443250D01*
X45000D02*X45750Y442500D01*
X45000Y447750D02*Y443250D01*
Y447750D02*X45750Y448500D01*
X47250D01*
X48000Y447750D01*
Y443250D01*
X47250Y442500D02*X48000Y443250D01*
X45750Y442500D02*X47250D01*
X45000Y444000D02*X48000Y447000D01*
X49800Y442500D02*X50550D01*
X52350Y443250D02*X53100Y442500D01*
X52350Y447750D02*Y443250D01*
Y447750D02*X53100Y448500D01*
X54600D01*
X55350Y447750D01*
Y443250D01*
X54600Y442500D02*X55350Y443250D01*
X53100Y442500D02*X54600D01*
X52350Y444000D02*X55350Y447000D01*
X57900Y442500D02*X60900Y448500D01*
X57150D02*X60900D01*
X62700Y447300D02*X63900Y448500D01*
Y442500D01*
X62700D02*X64950D01*
X9794Y177943D02*X12994D01*
X9794D02*Y174743D01*
X12994D01*
Y177943D02*Y174743D01*
X59006Y177943D02*X62206D01*
X59006D02*Y174743D01*
X62206D01*
Y177943D02*Y174743D01*
X9794Y158257D02*X12994D01*
X9794D02*Y155057D01*
X12994D01*
Y158257D02*Y155057D01*
X59006Y158257D02*X62206D01*
X59006D02*Y155057D01*
X62206D01*
Y158257D02*Y155057D01*
X9794Y255943D02*X12994D01*
X9794D02*Y252743D01*
X12994D01*
Y255943D02*Y252743D01*
X59006Y255943D02*X62206D01*
X59006D02*Y252743D01*
X62206D01*
Y255943D02*Y252743D01*
X9794Y236257D02*X12994D01*
X9794D02*Y233057D01*
X12994D01*
Y236257D02*Y233057D01*
X59006Y236257D02*X62206D01*
X59006D02*Y233057D01*
X62206D01*
Y236257D02*Y233057D01*
X282794Y306943D02*X285994D01*
X282794D02*Y303743D01*
X285994D01*
Y306943D02*Y303743D01*
X332006Y306943D02*X335206D01*
X332006D02*Y303743D01*
X335206D01*
Y306943D02*Y303743D01*
X282794Y287257D02*X285994D01*
X282794D02*Y284057D01*
X285994D01*
Y287257D02*Y284057D01*
X332006Y287257D02*X335206D01*
X332006D02*Y284057D01*
X335206D01*
Y287257D02*Y284057D01*
X282794Y356443D02*X285994D01*
X282794D02*Y353243D01*
X285994D01*
Y356443D02*Y353243D01*
X332006Y356443D02*X335206D01*
X332006D02*Y353243D01*
X335206D01*
Y356443D02*Y353243D01*
X282794Y336757D02*X285994D01*
X282794D02*Y333557D01*
X285994D01*
Y336757D02*Y333557D01*
X332006Y336757D02*X335206D01*
X332006D02*Y333557D01*
X335206D01*
Y336757D02*Y333557D01*
X354794Y356443D02*X357994D01*
X354794D02*Y353243D01*
X357994D01*
Y356443D02*Y353243D01*
X404006Y356443D02*X407206D01*
X404006D02*Y353243D01*
X407206D01*
Y356443D02*Y353243D01*
X354794Y336757D02*X357994D01*
X354794D02*Y333557D01*
X357994D01*
Y336757D02*Y333557D01*
X404006Y336757D02*X407206D01*
X404006D02*Y333557D01*
X407206D01*
Y336757D02*Y333557D01*
X354794Y306943D02*X357994D01*
X354794D02*Y303743D01*
X357994D01*
Y306943D02*Y303743D01*
X404006Y306943D02*X407206D01*
X404006D02*Y303743D01*
X407206D01*
Y306943D02*Y303743D01*
X354794Y287257D02*X357994D01*
X354794D02*Y284057D01*
X357994D01*
Y287257D02*Y284057D01*
X404006Y287257D02*X407206D01*
X404006D02*Y284057D01*
X407206D01*
Y287257D02*Y284057D01*
X627794Y255943D02*X630994D01*
X627794D02*Y252743D01*
X630994D01*
Y255943D02*Y252743D01*
X677006Y255943D02*X680206D01*
X677006D02*Y252743D01*
X680206D01*
Y255943D02*Y252743D01*
X627794Y236257D02*X630994D01*
X627794D02*Y233057D01*
X630994D01*
Y236257D02*Y233057D01*
X677006Y236257D02*X680206D01*
X677006D02*Y233057D01*
X680206D01*
Y236257D02*Y233057D01*
X627794Y177943D02*X630994D01*
X627794D02*Y174743D01*
X630994D01*
Y177943D02*Y174743D01*
X677006Y177943D02*X680206D01*
X677006D02*Y174743D01*
X680206D01*
Y177943D02*Y174743D01*
X627794Y158257D02*X630994D01*
X627794D02*Y155057D01*
X630994D01*
Y158257D02*Y155057D01*
X677006Y158257D02*X680206D01*
X677006D02*Y155057D01*
X680206D01*
Y158257D02*Y155057D01*
X13400Y462850D02*X16600D01*
X13400D02*Y459650D01*
X16600D01*
Y462850D02*Y459650D01*
X135000Y463500D02*X136500Y460500D01*
X138000Y463500D01*
X136500Y460500D02*Y457500D01*
X139800Y460800D02*X142050D01*
X139800Y457500D02*X142800D01*
X139800Y463500D02*Y457500D01*
Y463500D02*X142800D01*
X147600D02*X148350Y462750D01*
X145350Y463500D02*X147600D01*
X144600Y462750D02*X145350Y463500D01*
X144600Y462750D02*Y461250D01*
X145350Y460500D01*
X147600D01*
X148350Y459750D01*
Y458250D01*
X147600Y457500D02*X148350Y458250D01*
X145350Y457500D02*X147600D01*
X144600Y458250D02*X145350Y457500D01*
X98000Y462750D02*X98750Y463500D01*
X100250D01*
X101000Y462750D01*
X100250Y457500D02*X101000Y458250D01*
X98750Y457500D02*X100250D01*
X98000Y458250D02*X98750Y457500D01*
Y460800D02*X100250D01*
X101000Y462750D02*Y461550D01*
Y460050D02*Y458250D01*
Y460050D02*X100250Y460800D01*
X101000Y461550D02*X100250Y460800D01*
X102800Y462750D02*X103550Y463500D01*
X105800D01*
X106550Y462750D01*
Y461250D01*
X102800Y457500D02*X106550Y461250D01*
X102800Y457500D02*X106550D01*
X45000Y458250D02*X45750Y457500D01*
X45000Y462750D02*Y458250D01*
Y462750D02*X45750Y463500D01*
X47250D01*
X48000Y462750D01*
Y458250D01*
X47250Y457500D02*X48000Y458250D01*
X45750Y457500D02*X47250D01*
X45000Y459000D02*X48000Y462000D01*
X49800Y457500D02*X50550D01*
X52350Y458250D02*X53100Y457500D01*
X52350Y462750D02*Y458250D01*
Y462750D02*X53100Y463500D01*
X54600D01*
X55350Y462750D01*
Y458250D01*
X54600Y457500D02*X55350Y458250D01*
X53100Y457500D02*X54600D01*
X52350Y459000D02*X55350Y462000D01*
X57150Y459750D02*X60150Y463500D01*
X57150Y459750D02*X60900D01*
X60150Y463500D02*Y457500D01*
X63450D02*X66450Y463500D01*
X62700D02*X66450D01*
X122700Y134000D02*G75*G03X124300Y134000I800J0D01*G01*
G75*G03X122700Y134000I-800J0D01*G01*
X132700D02*G75*G03X134300Y134000I800J0D01*G01*
G75*G03X132700Y134000I-800J0D01*G01*
X142700D02*G75*G03X144300Y134000I800J0D01*G01*
G75*G03X142700Y134000I-800J0D01*G01*
X152700D02*G75*G03X154300Y134000I800J0D01*G01*
G75*G03X152700Y134000I-800J0D01*G01*
X162700D02*G75*G03X164300Y134000I800J0D01*G01*
G75*G03X162700Y134000I-800J0D01*G01*
X324200D02*G75*G03X325800Y134000I800J0D01*G01*
G75*G03X324200Y134000I-800J0D01*G01*
X334200D02*G75*G03X335800Y134000I800J0D01*G01*
G75*G03X334200Y134000I-800J0D01*G01*
X344200D02*G75*G03X345800Y134000I800J0D01*G01*
G75*G03X344200Y134000I-800J0D01*G01*
X354200D02*G75*G03X355800Y134000I800J0D01*G01*
G75*G03X354200Y134000I-800J0D01*G01*
X364200D02*G75*G03X365800Y134000I800J0D01*G01*
G75*G03X364200Y134000I-800J0D01*G01*
X525700D02*G75*G03X527300Y134000I800J0D01*G01*
G75*G03X525700Y134000I-800J0D01*G01*
X535700D02*G75*G03X537300Y134000I800J0D01*G01*
G75*G03X535700Y134000I-800J0D01*G01*
X545700D02*G75*G03X547300Y134000I800J0D01*G01*
G75*G03X545700Y134000I-800J0D01*G01*
X555700D02*G75*G03X557300Y134000I800J0D01*G01*
G75*G03X555700Y134000I-800J0D01*G01*
X565700D02*G75*G03X567300Y134000I800J0D01*G01*
G75*G03X565700Y134000I-800J0D01*G01*
X210700Y190500D02*G75*G03X212300Y190500I800J0D01*G01*
G75*G03X210700Y190500I-800J0D01*G01*
Y200500D02*G75*G03X212300Y200500I800J0D01*G01*
G75*G03X210700Y200500I-800J0D01*G01*
Y210500D02*G75*G03X212300Y210500I800J0D01*G01*
G75*G03X210700Y210500I-800J0D01*G01*
Y220500D02*G75*G03X212300Y220500I800J0D01*G01*
G75*G03X210700Y220500I-800J0D01*G01*
X103200Y33500D02*G75*G03X104800Y33500I800J0D01*G01*
G75*G03X103200Y33500I-800J0D01*G01*
X93200D02*G75*G03X94800Y33500I800J0D01*G01*
G75*G03X93200Y33500I-800J0D01*G01*
X83200D02*G75*G03X84800Y33500I800J0D01*G01*
G75*G03X83200Y33500I-800J0D01*G01*
X73200D02*G75*G03X74800Y33500I800J0D01*G01*
G75*G03X73200Y33500I-800J0D01*G01*
X14200Y476250D02*G75*G03X15800Y476250I800J0D01*G01*
G75*G03X14200Y476250I-800J0D01*G01*
X135000Y478500D02*X136500Y475500D01*
X138000Y478500D01*
X136500Y475500D02*Y472500D01*
X139800Y475800D02*X142050D01*
X139800Y472500D02*X142800D01*
X139800Y478500D02*Y472500D01*
Y478500D02*X142800D01*
X147600D02*X148350Y477750D01*
X145350Y478500D02*X147600D01*
X144600Y477750D02*X145350Y478500D01*
X144600Y477750D02*Y476250D01*
X145350Y475500D01*
X147600D01*
X148350Y474750D01*
Y473250D01*
X147600Y472500D02*X148350Y473250D01*
X145350Y472500D02*X147600D01*
X144600Y473250D02*X145350Y472500D01*
X98000Y477750D02*X98750Y478500D01*
X101000D01*
X101750Y477750D01*
Y476250D01*
X98000Y472500D02*X101750Y476250D01*
X98000Y472500D02*X101750D01*
X103550Y477750D02*X104300Y478500D01*
X105800D01*
X106550Y477750D01*
X105800Y472500D02*X106550Y473250D01*
X104300Y472500D02*X105800D01*
X103550Y473250D02*X104300Y472500D01*
Y475800D02*X105800D01*
X106550Y477750D02*Y476550D01*
Y475050D02*Y473250D01*
Y475050D02*X105800Y475800D01*
X106550Y476550D02*X105800Y475800D01*
X45000Y473250D02*X45750Y472500D01*
X45000Y477750D02*Y473250D01*
Y477750D02*X45750Y478500D01*
X47250D01*
X48000Y477750D01*
Y473250D01*
X47250Y472500D02*X48000Y473250D01*
X45750Y472500D02*X47250D01*
X45000Y474000D02*X48000Y477000D01*
X49800Y472500D02*X50550D01*
X52350Y473250D02*X53100Y472500D01*
X52350Y477750D02*Y473250D01*
Y477750D02*X53100Y478500D01*
X54600D01*
X55350Y477750D01*
Y473250D01*
X54600Y472500D02*X55350Y473250D01*
X53100Y472500D02*X54600D01*
X52350Y474000D02*X55350Y477000D01*
X57150Y477750D02*X57900Y478500D01*
X59400D01*
X60150Y477750D01*
X59400Y472500D02*X60150Y473250D01*
X57900Y472500D02*X59400D01*
X57150Y473250D02*X57900Y472500D01*
Y475800D02*X59400D01*
X60150Y477750D02*Y476550D01*
Y475050D02*Y473250D01*
Y475050D02*X59400Y475800D01*
X60150Y476550D02*X59400Y475800D01*
X61950Y473250D02*X62700Y472500D01*
X61950Y474450D02*Y473250D01*
Y474450D02*X63000Y475500D01*
X63900D01*
X64950Y474450D01*
Y473250D01*
X64200Y472500D02*X64950Y473250D01*
X62700Y472500D02*X64200D01*
X61950Y476550D02*X63000Y475500D01*
X61950Y477750D02*Y476550D01*
Y477750D02*X62700Y478500D01*
X64200D01*
X64950Y477750D01*
Y476550D01*
X63900Y475500D02*X64950Y476550D01*
X85300Y234200D02*X87700Y231800D01*
X85300D02*X87700Y234200D01*
X95300D02*X97700Y231800D01*
X95300D02*X97700Y234200D01*
X105300D02*X107700Y231800D01*
X105300D02*X107700Y234200D01*
X115300D02*X117700Y231800D01*
X115300D02*X117700Y234200D01*
X125300D02*X127700Y231800D01*
X125300D02*X127700Y234200D01*
X135300D02*X137700Y231800D01*
X135300D02*X137700Y234200D01*
X145300D02*X147700Y231800D01*
X145300D02*X147700Y234200D01*
X155300D02*X157700Y231800D01*
X155300D02*X157700Y234200D01*
X165300D02*X167700Y231800D01*
X165300D02*X167700Y234200D01*
X175300D02*X177700Y231800D01*
X175300D02*X177700Y234200D01*
X175300Y264200D02*X177700Y261800D01*
X175300D02*X177700Y264200D01*
X165300D02*X167700Y261800D01*
X165300D02*X167700Y264200D01*
X155300D02*X157700Y261800D01*
X155300D02*X157700Y264200D01*
X145300D02*X147700Y261800D01*
X145300D02*X147700Y264200D01*
X135300D02*X137700Y261800D01*
X135300D02*X137700Y264200D01*
X125300D02*X127700Y261800D01*
X125300D02*X127700Y264200D01*
X115300D02*X117700Y261800D01*
X115300D02*X117700Y264200D01*
X105300D02*X107700Y261800D01*
X105300D02*X107700Y264200D01*
X95300D02*X97700Y261800D01*
X95300D02*X97700Y264200D01*
X85300D02*X87700Y261800D01*
X85300D02*X87700Y264200D01*
X85300Y191700D02*X87700Y189300D01*
X85300D02*X87700Y191700D01*
X95300D02*X97700Y189300D01*
X95300D02*X97700Y191700D01*
X105300D02*X107700Y189300D01*
X105300D02*X107700Y191700D01*
X115300D02*X117700Y189300D01*
X115300D02*X117700Y191700D01*
X125300D02*X127700Y189300D01*
X125300D02*X127700Y191700D01*
X135300D02*X137700Y189300D01*
X135300D02*X137700Y191700D01*
X145300D02*X147700Y189300D01*
X145300D02*X147700Y191700D01*
X155300D02*X157700Y189300D01*
X155300D02*X157700Y191700D01*
X165300D02*X167700Y189300D01*
X165300D02*X167700Y191700D01*
X175300D02*X177700Y189300D01*
X175300D02*X177700Y191700D01*
X175300Y221700D02*X177700Y219300D01*
X175300D02*X177700Y221700D01*
X165300D02*X167700Y219300D01*
X165300D02*X167700Y221700D01*
X155300D02*X157700Y219300D01*
X155300D02*X157700Y221700D01*
X145300D02*X147700Y219300D01*
X145300D02*X147700Y221700D01*
X135300D02*X137700Y219300D01*
X135300D02*X137700Y221700D01*
X125300D02*X127700Y219300D01*
X125300D02*X127700Y221700D01*
X115300D02*X117700Y219300D01*
X115300D02*X117700Y221700D01*
X105300D02*X107700Y219300D01*
X105300D02*X107700Y221700D01*
X95300D02*X97700Y219300D01*
X95300D02*X97700Y221700D01*
X85300D02*X87700Y219300D01*
X85300D02*X87700Y221700D01*
X85300Y149200D02*X87700Y146800D01*
X85300D02*X87700Y149200D01*
X95300D02*X97700Y146800D01*
X95300D02*X97700Y149200D01*
X105300D02*X107700Y146800D01*
X105300D02*X107700Y149200D01*
X115300D02*X117700Y146800D01*
X115300D02*X117700Y149200D01*
X125300D02*X127700Y146800D01*
X125300D02*X127700Y149200D01*
X135300D02*X137700Y146800D01*
X135300D02*X137700Y149200D01*
X145300D02*X147700Y146800D01*
X145300D02*X147700Y149200D01*
X155300D02*X157700Y146800D01*
X155300D02*X157700Y149200D01*
X165300D02*X167700Y146800D01*
X165300D02*X167700Y149200D01*
X175300D02*X177700Y146800D01*
X175300D02*X177700Y149200D01*
X175300Y179200D02*X177700Y176800D01*
X175300D02*X177700Y179200D01*
X165300D02*X167700Y176800D01*
X165300D02*X167700Y179200D01*
X155300D02*X157700Y176800D01*
X155300D02*X157700Y179200D01*
X145300D02*X147700Y176800D01*
X145300D02*X147700Y179200D01*
X135300D02*X137700Y176800D01*
X135300D02*X137700Y179200D01*
X125300D02*X127700Y176800D01*
X125300D02*X127700Y179200D01*
X115300D02*X117700Y176800D01*
X115300D02*X117700Y179200D01*
X105300D02*X107700Y176800D01*
X105300D02*X107700Y179200D01*
X95300D02*X97700Y176800D01*
X95300D02*X97700Y179200D01*
X85300D02*X87700Y176800D01*
X85300D02*X87700Y179200D01*
X602906Y264357D02*X605306Y261957D01*
X602906D02*X605306Y264357D01*
X592906D02*X595306Y261957D01*
X592906D02*X595306Y264357D01*
X582906D02*X585306Y261957D01*
X582906D02*X585306Y264357D01*
X572906D02*X575306Y261957D01*
X572906D02*X575306Y264357D01*
X562906D02*X565306Y261957D01*
X562906D02*X565306Y264357D01*
X552906D02*X555306Y261957D01*
X552906D02*X555306Y264357D01*
X542906D02*X545306Y261957D01*
X542906D02*X545306Y264357D01*
X532906D02*X535306Y261957D01*
X532906D02*X535306Y264357D01*
X522906D02*X525306Y261957D01*
X522906D02*X525306Y264357D01*
X512906D02*X515306Y261957D01*
X512906D02*X515306Y264357D01*
X512906Y234357D02*X515306Y231957D01*
X512906D02*X515306Y234357D01*
X522906D02*X525306Y231957D01*
X522906D02*X525306Y234357D01*
X532906D02*X535306Y231957D01*
X532906D02*X535306Y234357D01*
X542906D02*X545306Y231957D01*
X542906D02*X545306Y234357D01*
X552906D02*X555306Y231957D01*
X552906D02*X555306Y234357D01*
X562906D02*X565306Y231957D01*
X562906D02*X565306Y234357D01*
X572906D02*X575306Y231957D01*
X572906D02*X575306Y234357D01*
X582906D02*X585306Y231957D01*
X582906D02*X585306Y234357D01*
X592906D02*X595306Y231957D01*
X592906D02*X595306Y234357D01*
X602906D02*X605306Y231957D01*
X602906D02*X605306Y234357D01*
X278300Y118200D02*X280700Y115800D01*
X278300D02*X280700Y118200D01*
X288300D02*X290700Y115800D01*
X288300D02*X290700Y118200D01*
X298300D02*X300700Y115800D01*
X298300D02*X300700Y118200D01*
X308300D02*X310700Y115800D01*
X308300D02*X310700Y118200D01*
X318300D02*X320700Y115800D01*
X318300D02*X320700Y118200D01*
X328300D02*X330700Y115800D01*
X328300D02*X330700Y118200D01*
X338300D02*X340700Y115800D01*
X338300D02*X340700Y118200D01*
X348300D02*X350700Y115800D01*
X348300D02*X350700Y118200D01*
X358300D02*X360700Y115800D01*
X358300D02*X360700Y118200D01*
X368300D02*X370700Y115800D01*
X368300D02*X370700Y118200D01*
X378300D02*X380700Y115800D01*
X378300D02*X380700Y118200D01*
X388300D02*X390700Y115800D01*
X388300D02*X390700Y118200D01*
X398300D02*X400700Y115800D01*
X398300D02*X400700Y118200D01*
X408300D02*X410700Y115800D01*
X408300D02*X410700Y118200D01*
X408300Y48200D02*X410700Y45800D01*
X408300D02*X410700Y48200D01*
X398300D02*X400700Y45800D01*
X398300D02*X400700Y48200D01*
X388300D02*X390700Y45800D01*
X388300D02*X390700Y48200D01*
X378300D02*X380700Y45800D01*
X378300D02*X380700Y48200D01*
X368300D02*X370700Y45800D01*
X368300D02*X370700Y48200D01*
X358300D02*X360700Y45800D01*
X358300D02*X360700Y48200D01*
X348300D02*X350700Y45800D01*
X348300D02*X350700Y48200D01*
X338300D02*X340700Y45800D01*
X338300D02*X340700Y48200D01*
X328300D02*X330700Y45800D01*
X328300D02*X330700Y48200D01*
X318300D02*X320700Y45800D01*
X318300D02*X320700Y48200D01*
X308300D02*X310700Y45800D01*
X308300D02*X310700Y48200D01*
X298300D02*X300700Y45800D01*
X298300D02*X300700Y48200D01*
X288300D02*X290700Y45800D01*
X288300D02*X290700Y48200D01*
X278300D02*X280700Y45800D01*
X278300D02*X280700Y48200D01*
X602800Y179200D02*X605200Y176800D01*
X602800D02*X605200Y179200D01*
X592800D02*X595200Y176800D01*
X592800D02*X595200Y179200D01*
X582800D02*X585200Y176800D01*
X582800D02*X585200Y179200D01*
X572800D02*X575200Y176800D01*
X572800D02*X575200Y179200D01*
X562800D02*X565200Y176800D01*
X562800D02*X565200Y179200D01*
X552800D02*X555200Y176800D01*
X552800D02*X555200Y179200D01*
X542800D02*X545200Y176800D01*
X542800D02*X545200Y179200D01*
X532800D02*X535200Y176800D01*
X532800D02*X535200Y179200D01*
X522800D02*X525200Y176800D01*
X522800D02*X525200Y179200D01*
X512800D02*X515200Y176800D01*
X512800D02*X515200Y179200D01*
X512800Y149200D02*X515200Y146800D01*
X512800D02*X515200Y149200D01*
X522800D02*X525200Y146800D01*
X522800D02*X525200Y149200D01*
X532800D02*X535200Y146800D01*
X532800D02*X535200Y149200D01*
X542800D02*X545200Y146800D01*
X542800D02*X545200Y149200D01*
X552800D02*X555200Y146800D01*
X552800D02*X555200Y149200D01*
X562800D02*X565200Y146800D01*
X562800D02*X565200Y149200D01*
X572800D02*X575200Y146800D01*
X572800D02*X575200Y149200D01*
X582800D02*X585200Y146800D01*
X582800D02*X585200Y149200D01*
X592800D02*X595200Y146800D01*
X592800D02*X595200Y149200D01*
X602800D02*X605200Y146800D01*
X602800D02*X605200Y149200D01*
X602800Y221700D02*X605200Y219300D01*
X602800D02*X605200Y221700D01*
X592800D02*X595200Y219300D01*
X592800D02*X595200Y221700D01*
X582800D02*X585200Y219300D01*
X582800D02*X585200Y221700D01*
X572800D02*X575200Y219300D01*
X572800D02*X575200Y221700D01*
X562800D02*X565200Y219300D01*
X562800D02*X565200Y221700D01*
X552800D02*X555200Y219300D01*
X552800D02*X555200Y221700D01*
X542800D02*X545200Y219300D01*
X542800D02*X545200Y221700D01*
X532800D02*X535200Y219300D01*
X532800D02*X535200Y221700D01*
X522800D02*X525200Y219300D01*
X522800D02*X525200Y221700D01*
X512800D02*X515200Y219300D01*
X512800D02*X515200Y221700D01*
X512800Y191700D02*X515200Y189300D01*
X512800D02*X515200Y191700D01*
X522800D02*X525200Y189300D01*
X522800D02*X525200Y191700D01*
X532800D02*X535200Y189300D01*
X532800D02*X535200Y191700D01*
X542800D02*X545200Y189300D01*
X542800D02*X545200Y191700D01*
X552800D02*X555200Y189300D01*
X552800D02*X555200Y191700D01*
X562800D02*X565200Y189300D01*
X562800D02*X565200Y191700D01*
X572800D02*X575200Y189300D01*
X572800D02*X575200Y191700D01*
X582800D02*X585200Y189300D01*
X582800D02*X585200Y191700D01*
X592800D02*X595200Y189300D01*
X592800D02*X595200Y191700D01*
X602800D02*X605200Y189300D01*
X602800D02*X605200Y191700D01*
X208800Y183700D02*X211200Y181300D01*
X208800D02*X211200Y183700D01*
X298300Y171200D02*X300700Y168800D01*
X298300D02*X300700Y171200D01*
X220800Y167700D02*X223200Y165300D01*
X220800D02*X223200Y167700D01*
X231800Y168200D02*X234200Y165800D01*
X231800D02*X234200Y168200D01*
X178300Y41700D02*X180700Y39300D01*
X178300D02*X180700Y41700D01*
X289300Y106700D02*X291700Y104300D01*
X289300D02*X291700Y106700D01*
X509800Y17700D02*X512200Y15300D01*
X509800D02*X512200Y17700D01*
X243800Y188700D02*X246200Y186300D01*
X243800D02*X246200Y188700D01*
X254800Y201700D02*X257200Y199300D01*
X254800D02*X257200Y201700D01*
X406800Y182700D02*X409200Y180300D01*
X406800D02*X409200Y182700D01*
X406300Y205700D02*X408700Y203300D01*
X406300D02*X408700Y205700D01*
X13800Y492450D02*X16200Y490050D01*
X13800D02*X16200Y492450D01*
X135000Y493500D02*X136500Y490500D01*
X138000Y493500D01*
X136500Y490500D02*Y487500D01*
X139800Y490800D02*X142050D01*
X139800Y487500D02*X142800D01*
X139800Y493500D02*Y487500D01*
Y493500D02*X142800D01*
X147600D02*X148350Y492750D01*
X145350Y493500D02*X147600D01*
X144600Y492750D02*X145350Y493500D01*
X144600Y492750D02*Y491250D01*
X145350Y490500D01*
X147600D01*
X148350Y489750D01*
Y488250D01*
X147600Y487500D02*X148350Y488250D01*
X145350Y487500D02*X147600D01*
X144600Y488250D02*X145350Y487500D01*
X98000Y492300D02*X99200Y493500D01*
Y487500D01*
X98000D02*X100250D01*
X102050Y493500D02*X105050D01*
X102050D02*Y490500D01*
X102800Y491250D01*
X104300D01*
X105050Y490500D01*
Y488250D01*
X104300Y487500D02*X105050Y488250D01*
X102800Y487500D02*X104300D01*
X102050Y488250D02*X102800Y487500D01*
X107600D02*X109850Y490500D01*
Y492750D02*Y490500D01*
X109100Y493500D02*X109850Y492750D01*
X107600Y493500D02*X109100D01*
X106850Y492750D02*X107600Y493500D01*
X106850Y492750D02*Y491250D01*
X107600Y490500D01*
X109850D01*
X45000Y488250D02*X45750Y487500D01*
X45000Y492750D02*Y488250D01*
Y492750D02*X45750Y493500D01*
X47250D01*
X48000Y492750D01*
Y488250D01*
X47250Y487500D02*X48000Y488250D01*
X45750Y487500D02*X47250D01*
X45000Y489000D02*X48000Y492000D01*
X49800Y487500D02*X50550D01*
X52350Y488250D02*X53100Y487500D01*
X52350Y492750D02*Y488250D01*
Y492750D02*X53100Y493500D01*
X54600D01*
X55350Y492750D01*
Y488250D01*
X54600Y487500D02*X55350Y488250D01*
X53100Y487500D02*X54600D01*
X52350Y489000D02*X55350Y492000D01*
X57150Y492750D02*X57900Y493500D01*
X59400D01*
X60150Y492750D01*
X59400Y487500D02*X60150Y488250D01*
X57900Y487500D02*X59400D01*
X57150Y488250D02*X57900Y487500D01*
Y490800D02*X59400D01*
X60150Y492750D02*Y491550D01*
Y490050D02*Y488250D01*
Y490050D02*X59400Y490800D01*
X60150Y491550D02*X59400Y490800D01*
X61950Y493500D02*X64950D01*
X61950D02*Y490500D01*
X62700Y491250D01*
X64200D01*
X64950Y490500D01*
Y488250D01*
X64200Y487500D02*X64950Y488250D01*
X62700Y487500D02*X64200D01*
X61950Y488250D02*X62700Y487500D01*
X30000Y86100D02*Y82900D01*
X28400Y84500D02*X31600D01*
X30000Y126100D02*Y122900D01*
X28400Y124500D02*X31600D01*
X12500Y86100D02*Y82900D01*
X10900Y84500D02*X14100D01*
X12500Y126100D02*Y122900D01*
X10900Y124500D02*X14100D01*
X308500Y222600D02*Y219400D01*
X306900Y221000D02*X310100D01*
X308500Y262600D02*Y259400D01*
X306900Y261000D02*X310100D01*
X286000Y223100D02*Y219900D01*
X284400Y221500D02*X287600D01*
X286000Y263100D02*Y259900D01*
X284400Y261500D02*X287600D01*
X407000Y223100D02*Y219900D01*
X405400Y221500D02*X408600D01*
X407000Y263100D02*Y259900D01*
X405400Y261500D02*X408600D01*
X381000Y223600D02*Y220400D01*
X379400Y222000D02*X382600D01*
X381000Y263600D02*Y260400D01*
X379400Y262000D02*X382600D01*
X677500Y86100D02*Y82900D01*
X675900Y84500D02*X679100D01*
X677500Y126100D02*Y122900D01*
X675900Y124500D02*X679100D01*
X660000Y86100D02*Y82900D01*
X658400Y84500D02*X661600D01*
X660000Y126100D02*Y122900D01*
X658400Y124500D02*X661600D01*
X345500Y256100D02*Y252900D01*
X343900Y254500D02*X347100D01*
X345500Y226100D02*Y222900D01*
X343900Y224500D02*X347100D01*
X15000Y507850D02*Y504650D01*
X13400Y506250D02*X16600D01*
X135000Y508500D02*X136500Y505500D01*
X138000Y508500D01*
X136500Y505500D02*Y502500D01*
X139800Y505800D02*X142050D01*
X139800Y502500D02*X142800D01*
X139800Y508500D02*Y502500D01*
Y508500D02*X142800D01*
X147600D02*X148350Y507750D01*
X145350Y508500D02*X147600D01*
X144600Y507750D02*X145350Y508500D01*
X144600Y507750D02*Y506250D01*
X145350Y505500D01*
X147600D01*
X148350Y504750D01*
Y503250D01*
X147600Y502500D02*X148350Y503250D01*
X145350Y502500D02*X147600D01*
X144600Y503250D02*X145350Y502500D01*
X98000Y507300D02*X99200Y508500D01*
Y502500D01*
X98000D02*X100250D01*
X102050Y503250D02*X102800Y502500D01*
X102050Y504450D02*Y503250D01*
Y504450D02*X103100Y505500D01*
X104000D01*
X105050Y504450D01*
Y503250D01*
X104300Y502500D02*X105050Y503250D01*
X102800Y502500D02*X104300D01*
X102050Y506550D02*X103100Y505500D01*
X102050Y507750D02*Y506550D01*
Y507750D02*X102800Y508500D01*
X104300D01*
X105050Y507750D01*
Y506550D01*
X104000Y505500D02*X105050Y506550D01*
X45000Y503250D02*X45750Y502500D01*
X45000Y507750D02*Y503250D01*
Y507750D02*X45750Y508500D01*
X47250D01*
X48000Y507750D01*
Y503250D01*
X47250Y502500D02*X48000Y503250D01*
X45750Y502500D02*X47250D01*
X45000Y504000D02*X48000Y507000D01*
X49800Y502500D02*X50550D01*
X52350Y503250D02*X53100Y502500D01*
X52350Y507750D02*Y503250D01*
Y507750D02*X53100Y508500D01*
X54600D01*
X55350Y507750D01*
Y503250D01*
X54600Y502500D02*X55350Y503250D01*
X53100Y502500D02*X54600D01*
X52350Y504000D02*X55350Y507000D01*
X57150Y507750D02*X57900Y508500D01*
X60150D01*
X60900Y507750D01*
Y506250D01*
X57150Y502500D02*X60900Y506250D01*
X57150Y502500D02*X60900D01*
X63450D02*X65700Y505500D01*
Y507750D02*Y505500D01*
X64950Y508500D02*X65700Y507750D01*
X63450Y508500D02*X64950D01*
X62700Y507750D02*X63450Y508500D01*
X62700Y507750D02*Y506250D01*
X63450Y505500D01*
X65700D01*
X26000Y177000D02*Y175400D01*
Y177000D02*X27387Y177800D01*
X26000Y177000D02*X24613Y177800D01*
X430000Y268000D02*Y266400D01*
Y268000D02*X431387Y268800D01*
X430000Y268000D02*X428613Y268800D01*
X309500Y99000D02*Y97400D01*
Y99000D02*X310887Y99800D01*
X309500Y99000D02*X308113Y99800D01*
X319500Y94500D02*Y92900D01*
Y94500D02*X320887Y95300D01*
X319500Y94500D02*X318113Y95300D01*
X329500Y90000D02*Y88400D01*
Y90000D02*X330887Y90800D01*
X329500Y90000D02*X328113Y90800D01*
X339500Y85500D02*Y83900D01*
Y85500D02*X340887Y86300D01*
X339500Y85500D02*X338113Y86300D01*
X349500Y81000D02*Y79400D01*
Y81000D02*X350887Y81800D01*
X349500Y81000D02*X348113Y81800D01*
X359500Y76500D02*Y74900D01*
Y76500D02*X360887Y77300D01*
X359500Y76500D02*X358113Y77300D01*
X369500Y72000D02*Y70400D01*
Y72000D02*X370887Y72800D01*
X369500Y72000D02*X368113Y72800D01*
X379500Y67500D02*Y65900D01*
Y67500D02*X380887Y68300D01*
X379500Y67500D02*X378113Y68300D01*
X389500Y63000D02*Y61400D01*
Y63000D02*X390887Y63800D01*
X389500Y63000D02*X388113Y63800D01*
X111000Y81000D02*Y79400D01*
Y81000D02*X112387Y81800D01*
X111000Y81000D02*X109613Y81800D01*
X399500Y58500D02*Y56900D01*
Y58500D02*X400887Y59300D01*
X399500Y58500D02*X398113Y59300D01*
X121000Y76500D02*Y74900D01*
Y76500D02*X122387Y77300D01*
X121000Y76500D02*X119613Y77300D01*
X131500Y72000D02*Y70400D01*
Y72000D02*X132887Y72800D01*
X131500Y72000D02*X130113Y72800D01*
X141000Y67500D02*Y65900D01*
Y67500D02*X142387Y68300D01*
X141000Y67500D02*X139613Y68300D01*
X151000Y63000D02*Y61400D01*
Y63000D02*X152387Y63800D01*
X151000Y63000D02*X149613Y63800D01*
X161000Y58500D02*Y56900D01*
Y58500D02*X162387Y59300D01*
X161000Y58500D02*X159613Y59300D01*
X437500Y53000D02*Y51400D01*
Y53000D02*X438887Y53800D01*
X437500Y53000D02*X436113Y53800D01*
X453500Y53000D02*Y51400D01*
Y53000D02*X454887Y53800D01*
X453500Y53000D02*X452113Y53800D01*
X314500Y107000D02*Y105400D01*
Y107000D02*X315887Y107800D01*
X314500Y107000D02*X313113Y107800D01*
X15000Y521250D02*Y519650D01*
Y521250D02*X16387Y522050D01*
X15000Y521250D02*X13613Y522050D01*
X135000Y523500D02*X136500Y520500D01*
X138000Y523500D01*
X136500Y520500D02*Y517500D01*
X139800Y520800D02*X142050D01*
X139800Y517500D02*X142800D01*
X139800Y523500D02*Y517500D01*
Y523500D02*X142800D01*
X147600D02*X148350Y522750D01*
X145350Y523500D02*X147600D01*
X144600Y522750D02*X145350Y523500D01*
X144600Y522750D02*Y521250D01*
X145350Y520500D01*
X147600D01*
X148350Y519750D01*
Y518250D01*
X147600Y517500D02*X148350Y518250D01*
X145350Y517500D02*X147600D01*
X144600Y518250D02*X145350Y517500D01*
X98000Y522750D02*X98750Y523500D01*
X101000D01*
X101750Y522750D01*
Y521250D01*
X98000Y517500D02*X101750Y521250D01*
X98000Y517500D02*X101750D01*
X103550Y522300D02*X104750Y523500D01*
Y517500D01*
X103550D02*X105800D01*
X45000Y518250D02*X45750Y517500D01*
X45000Y522750D02*Y518250D01*
Y522750D02*X45750Y523500D01*
X47250D01*
X48000Y522750D01*
Y518250D01*
X47250Y517500D02*X48000Y518250D01*
X45750Y517500D02*X47250D01*
X45000Y519000D02*X48000Y522000D01*
X49800Y517500D02*X50550D01*
X52350Y518250D02*X53100Y517500D01*
X52350Y522750D02*Y518250D01*
Y522750D02*X53100Y523500D01*
X54600D01*
X55350Y522750D01*
Y518250D01*
X54600Y517500D02*X55350Y518250D01*
X53100Y517500D02*X54600D01*
X52350Y519000D02*X55350Y522000D01*
X57150Y522750D02*X57900Y523500D01*
X60150D01*
X60900Y522750D01*
Y521250D01*
X57150Y517500D02*X60900Y521250D01*
X57150Y517500D02*X60900D01*
X62700Y518250D02*X63450Y517500D01*
X62700Y522750D02*Y518250D01*
Y522750D02*X63450Y523500D01*
X64950D01*
X65700Y522750D01*
Y518250D01*
X64950Y517500D02*X65700Y518250D01*
X63450Y517500D02*X64950D01*
X62700Y519000D02*X65700Y522000D01*
X3000Y538500D02*X3750Y537750D01*
X750Y538500D02*X3000D01*
X0Y537750D02*X750Y538500D01*
X0Y537750D02*Y536250D01*
X750Y535500D01*
X3000D01*
X3750Y534750D01*
Y533250D01*
X3000Y532500D02*X3750Y533250D01*
X750Y532500D02*X3000D01*
X0Y533250D02*X750Y532500D01*
X5550Y535500D02*Y533250D01*
X6300Y532500D01*
X8550Y535500D02*Y531000D01*
X7800Y530250D02*X8550Y531000D01*
X6300Y530250D02*X7800D01*
X5550Y531000D02*X6300Y530250D01*
Y532500D02*X7800D01*
X8550Y533250D01*
X11100Y534750D02*Y532500D01*
Y534750D02*X11850Y535500D01*
X12600D01*
X13350Y534750D01*
Y532500D01*
Y534750D02*X14100Y535500D01*
X14850D01*
X15600Y534750D01*
Y532500D01*
X10350Y535500D02*X11100Y534750D01*
X17400Y538500D02*Y532500D01*
Y533250D02*X18150Y532500D01*
X19650D01*
X20400Y533250D01*
Y534750D02*Y533250D01*
X19650Y535500D02*X20400Y534750D01*
X18150Y535500D02*X19650D01*
X17400Y534750D02*X18150Y535500D01*
X22200Y534750D02*Y533250D01*
Y534750D02*X22950Y535500D01*
X24450D01*
X25200Y534750D01*
Y533250D01*
X24450Y532500D02*X25200Y533250D01*
X22950Y532500D02*X24450D01*
X22200Y533250D02*X22950Y532500D01*
X27000Y538500D02*Y533250D01*
X27750Y532500D01*
X0Y529250D02*X29250D01*
X41750Y538500D02*Y532500D01*
X43700Y538500D02*X44750Y537450D01*
Y533550D01*
X43700Y532500D02*X44750Y533550D01*
X41000Y532500D02*X43700D01*
X41000Y538500D02*X43700D01*
G54D142*X46550Y537000D02*Y536850D01*
G54D141*Y534750D02*Y532500D01*
X50300Y535500D02*X51050Y534750D01*
X48800Y535500D02*X50300D01*
X48050Y534750D02*X48800Y535500D01*
X48050Y534750D02*Y533250D01*
X48800Y532500D01*
X51050Y535500D02*Y533250D01*
X51800Y532500D01*
X48800D02*X50300D01*
X51050Y533250D01*
X54350Y534750D02*Y532500D01*
Y534750D02*X55100Y535500D01*
X55850D01*
X56600Y534750D01*
Y532500D01*
Y534750D02*X57350Y535500D01*
X58100D01*
X58850Y534750D01*
Y532500D01*
X53600Y535500D02*X54350Y534750D01*
X60650Y532500D02*X61400D01*
X65900Y533250D02*X66650Y532500D01*
X65900Y537750D02*X66650Y538500D01*
X65900Y537750D02*Y533250D01*
X68450Y538500D02*X69950D01*
X69200D02*Y532500D01*
X68450D02*X69950D01*
X72500Y534750D02*Y532500D01*
Y534750D02*X73250Y535500D01*
X74000D01*
X74750Y534750D01*
Y532500D01*
X71750Y535500D02*X72500Y534750D01*
X77300Y535500D02*X79550D01*
X76550Y534750D02*X77300Y535500D01*
X76550Y534750D02*Y533250D01*
X77300Y532500D01*
X79550D01*
X81350Y538500D02*Y532500D01*
Y534750D02*X82100Y535500D01*
X83600D01*
X84350Y534750D01*
Y532500D01*
X86150Y538500D02*X86900Y537750D01*
Y533250D01*
X86150Y532500D02*X86900Y533250D01*
X41000Y529250D02*X88700D01*
X96050Y532500D02*X98000D01*
X95000Y533550D02*X96050Y532500D01*
X95000Y537450D02*Y533550D01*
Y537450D02*X96050Y538500D01*
X98000D01*
X99800Y534750D02*Y533250D01*
Y534750D02*X100550Y535500D01*
X102050D01*
X102800Y534750D01*
Y533250D01*
X102050Y532500D02*X102800Y533250D01*
X100550Y532500D02*X102050D01*
X99800Y533250D02*X100550Y532500D01*
X104600Y535500D02*Y533250D01*
X105350Y532500D01*
X106850D01*
X107600Y533250D01*
Y535500D02*Y533250D01*
X110150Y534750D02*Y532500D01*
Y534750D02*X110900Y535500D01*
X111650D01*
X112400Y534750D01*
Y532500D01*
X109400Y535500D02*X110150Y534750D01*
X114950Y538500D02*Y533250D01*
X115700Y532500D01*
X114200Y536250D02*X115700D01*
X95000Y529250D02*X117200D01*
X130750Y538500D02*Y532500D01*
X130000Y538500D02*X133000D01*
X133750Y537750D01*
Y536250D01*
X133000Y535500D02*X133750Y536250D01*
X130750Y535500D02*X133000D01*
X135550Y538500D02*Y533250D01*
X136300Y532500D01*
X140050Y535500D02*X140800Y534750D01*
X138550Y535500D02*X140050D01*
X137800Y534750D02*X138550Y535500D01*
X137800Y534750D02*Y533250D01*
X138550Y532500D01*
X140800Y535500D02*Y533250D01*
X141550Y532500D01*
X138550D02*X140050D01*
X140800Y533250D01*
X144100Y538500D02*Y533250D01*
X144850Y532500D01*
X143350Y536250D02*X144850D01*
X147100Y532500D02*X149350D01*
X146350Y533250D02*X147100Y532500D01*
X146350Y534750D02*Y533250D01*
Y534750D02*X147100Y535500D01*
X148600D01*
X149350Y534750D01*
X146350Y534000D02*X149350D01*
Y534750D02*Y534000D01*
X154150Y538500D02*Y532500D01*
X153400D02*X154150Y533250D01*
X151900Y532500D02*X153400D01*
X151150Y533250D02*X151900Y532500D01*
X151150Y534750D02*Y533250D01*
Y534750D02*X151900Y535500D01*
X153400D01*
X154150Y534750D01*
X157450Y535500D02*Y534750D01*
Y533250D02*Y532500D01*
X155950Y537750D02*Y537000D01*
Y537750D02*X156700Y538500D01*
X158200D01*
X158950Y537750D01*
Y537000D01*
X157450Y535500D02*X158950Y537000D01*
X130000Y529250D02*X160750D01*
X0Y553500D02*X3000D01*
X1500D02*Y547500D01*
X4800Y553500D02*Y547500D01*
Y549750D02*X5550Y550500D01*
X7050D01*
X7800Y549750D01*
Y547500D01*
X10350D02*X12600D01*
X9600Y548250D02*X10350Y547500D01*
X9600Y549750D02*Y548250D01*
Y549750D02*X10350Y550500D01*
X11850D01*
X12600Y549750D01*
X9600Y549000D02*X12600D01*
Y549750D02*Y549000D01*
X15150Y549750D02*Y547500D01*
Y549750D02*X15900Y550500D01*
X17400D01*
X14400D02*X15150Y549750D01*
X19950Y547500D02*X22200D01*
X19200Y548250D02*X19950Y547500D01*
X19200Y549750D02*Y548250D01*
Y549750D02*X19950Y550500D01*
X21450D01*
X22200Y549750D01*
X19200Y549000D02*X22200D01*
Y549750D02*Y549000D01*
X28950Y550500D02*X29700Y549750D01*
X27450Y550500D02*X28950D01*
X26700Y549750D02*X27450Y550500D01*
X26700Y549750D02*Y548250D01*
X27450Y547500D01*
X29700Y550500D02*Y548250D01*
X30450Y547500D01*
X27450D02*X28950D01*
X29700Y548250D01*
X33000Y549750D02*Y547500D01*
Y549750D02*X33750Y550500D01*
X35250D01*
X32250D02*X33000Y549750D01*
X37800Y547500D02*X40050D01*
X37050Y548250D02*X37800Y547500D01*
X37050Y549750D02*Y548250D01*
Y549750D02*X37800Y550500D01*
X39300D01*
X40050Y549750D01*
X37050Y549000D02*X40050D01*
Y549750D02*Y549000D01*
X45300Y547500D02*X47550Y550500D01*
Y552750D02*Y550500D01*
X46800Y553500D02*X47550Y552750D01*
X45300Y553500D02*X46800D01*
X44550Y552750D02*X45300Y553500D01*
X44550Y552750D02*Y551250D01*
X45300Y550500D01*
X47550D01*
X55050Y553500D02*Y547500D01*
X54300D02*X55050Y548250D01*
X52800Y547500D02*X54300D01*
X52050Y548250D02*X52800Y547500D01*
X52050Y549750D02*Y548250D01*
Y549750D02*X52800Y550500D01*
X54300D01*
X55050Y549750D01*
G54D142*X56850Y552000D02*Y551850D01*
G54D141*Y549750D02*Y547500D01*
X59100Y552750D02*Y547500D01*
Y552750D02*X59850Y553500D01*
X60600D01*
X58350Y550500D02*X59850D01*
X62850Y552750D02*Y547500D01*
Y552750D02*X63600Y553500D01*
X64350D01*
X62100Y550500D02*X63600D01*
X66600Y547500D02*X68850D01*
X65850Y548250D02*X66600Y547500D01*
X65850Y549750D02*Y548250D01*
Y549750D02*X66600Y550500D01*
X68100D01*
X68850Y549750D01*
X65850Y549000D02*X68850D01*
Y549750D02*Y549000D01*
X71400Y549750D02*Y547500D01*
Y549750D02*X72150Y550500D01*
X73650D01*
X70650D02*X71400Y549750D01*
X76200Y547500D02*X78450D01*
X75450Y548250D02*X76200Y547500D01*
X75450Y549750D02*Y548250D01*
Y549750D02*X76200Y550500D01*
X77700D01*
X78450Y549750D01*
X75450Y549000D02*X78450D01*
Y549750D02*Y549000D01*
X81000Y549750D02*Y547500D01*
Y549750D02*X81750Y550500D01*
X82500D01*
X83250Y549750D01*
Y547500D01*
X80250Y550500D02*X81000Y549750D01*
X85800Y553500D02*Y548250D01*
X86550Y547500D01*
X85050Y551250D02*X86550D01*
X93750Y553500D02*Y547500D01*
X93000D02*X93750Y548250D01*
X91500Y547500D02*X93000D01*
X90750Y548250D02*X91500Y547500D01*
X90750Y549750D02*Y548250D01*
Y549750D02*X91500Y550500D01*
X93000D01*
X93750Y549750D01*
X96300D02*Y547500D01*
Y549750D02*X97050Y550500D01*
X98550D01*
X95550D02*X96300Y549750D01*
G54D142*X100350Y552000D02*Y551850D01*
G54D141*Y549750D02*Y547500D01*
X101850Y553500D02*Y548250D01*
X102600Y547500D01*
X104100Y553500D02*Y548250D01*
X104850Y547500D01*
X109800D02*X112050D01*
X112800Y548250D01*
X112050Y549000D02*X112800Y548250D01*
X109800Y549000D02*X112050D01*
X109050Y549750D02*X109800Y549000D01*
X109050Y549750D02*X109800Y550500D01*
X112050D01*
X112800Y549750D01*
X109050Y548250D02*X109800Y547500D01*
G54D142*X114600Y552000D02*Y551850D01*
G54D141*Y549750D02*Y547500D01*
X116100Y550500D02*X119100D01*
X116100Y547500D02*X119100Y550500D01*
X116100Y547500D02*X119100D01*
X121650D02*X123900D01*
X120900Y548250D02*X121650Y547500D01*
X120900Y549750D02*Y548250D01*
Y549750D02*X121650Y550500D01*
X123150D01*
X123900Y549750D01*
X120900Y549000D02*X123900D01*
Y549750D02*Y549000D01*
X126450Y547500D02*X128700D01*
X129450Y548250D01*
X128700Y549000D02*X129450Y548250D01*
X126450Y549000D02*X128700D01*
X125700Y549750D02*X126450Y549000D01*
X125700Y549750D02*X126450Y550500D01*
X128700D01*
X129450Y549750D01*
X125700Y548250D02*X126450Y547500D01*
X133950Y550500D02*Y548250D01*
X134700Y547500D01*
X136200D01*
X136950Y548250D01*
Y550500D02*Y548250D01*
X139500Y547500D02*X141750D01*
X142500Y548250D01*
X141750Y549000D02*X142500Y548250D01*
X139500Y549000D02*X141750D01*
X138750Y549750D02*X139500Y549000D01*
X138750Y549750D02*X139500Y550500D01*
X141750D01*
X142500Y549750D01*
X138750Y548250D02*X139500Y547500D01*
X145050D02*X147300D01*
X144300Y548250D02*X145050Y547500D01*
X144300Y549750D02*Y548250D01*
Y549750D02*X145050Y550500D01*
X146550D01*
X147300Y549750D01*
X144300Y549000D02*X147300D01*
Y549750D02*Y549000D01*
X152100Y553500D02*Y547500D01*
X151350D02*X152100Y548250D01*
X149850Y547500D02*X151350D01*
X149100Y548250D02*X149850Y547500D01*
X149100Y549750D02*Y548250D01*
Y549750D02*X149850Y550500D01*
X151350D01*
X152100Y549750D01*
G54D142*X156600Y552000D02*Y551850D01*
G54D141*Y549750D02*Y547500D01*
X158850Y549750D02*Y547500D01*
Y549750D02*X159600Y550500D01*
X160350D01*
X161100Y549750D01*
Y547500D01*
X158100Y550500D02*X158850Y549750D01*
X166350Y553500D02*Y548250D01*
X167100Y547500D01*
X165600Y551250D02*X167100D01*
X168600Y553500D02*Y547500D01*
Y549750D02*X169350Y550500D01*
X170850D01*
X171600Y549750D01*
Y547500D01*
G54D142*X173400Y552000D02*Y551850D01*
G54D141*Y549750D02*Y547500D01*
X175650D02*X177900D01*
X178650Y548250D01*
X177900Y549000D02*X178650Y548250D01*
X175650Y549000D02*X177900D01*
X174900Y549750D02*X175650Y549000D01*
X174900Y549750D02*X175650Y550500D01*
X177900D01*
X178650Y549750D01*
X174900Y548250D02*X175650Y547500D01*
X183150Y553500D02*Y548250D01*
X183900Y547500D01*
X187650Y550500D02*X188400Y549750D01*
X186150Y550500D02*X187650D01*
X185400Y549750D02*X186150Y550500D01*
X185400Y549750D02*Y548250D01*
X186150Y547500D01*
X188400Y550500D02*Y548250D01*
X189150Y547500D01*
X186150D02*X187650D01*
X188400Y548250D01*
X190950Y550500D02*Y548250D01*
X191700Y547500D01*
X193950Y550500D02*Y546000D01*
X193200Y545250D02*X193950Y546000D01*
X191700Y545250D02*X193200D01*
X190950Y546000D02*X191700Y545250D01*
Y547500D02*X193200D01*
X193950Y548250D01*
X195750Y549750D02*Y548250D01*
Y549750D02*X196500Y550500D01*
X198000D01*
X198750Y549750D01*
Y548250D01*
X198000Y547500D02*X198750Y548250D01*
X196500Y547500D02*X198000D01*
X195750Y548250D02*X196500Y547500D01*
X200550Y550500D02*Y548250D01*
X201300Y547500D01*
X202800D01*
X203550Y548250D01*
Y550500D02*Y548250D01*
X206100Y553500D02*Y548250D01*
X206850Y547500D01*
X205350Y551250D02*X206850D01*
X208350Y546000D02*X209850Y547500D01*
X214350Y552750D02*X215100Y553500D01*
X217350D01*
X218100Y552750D01*
Y551250D01*
X214350Y547500D02*X218100Y551250D01*
X214350Y547500D02*X218100D01*
X220650D02*X222900Y550500D01*
Y552750D02*Y550500D01*
X222150Y553500D02*X222900Y552750D01*
X220650Y553500D02*X222150D01*
X219900Y552750D02*X220650Y553500D01*
X219900Y552750D02*Y551250D01*
X220650Y550500D01*
X222900D01*
X226950Y553500D02*X227700Y552750D01*
X225450Y553500D02*X226950D01*
X224700Y552750D02*X225450Y553500D01*
X224700Y552750D02*Y548250D01*
X225450Y547500D01*
X226950Y550800D02*X227700Y550050D01*
X224700Y550800D02*X226950D01*
X225450Y547500D02*X226950D01*
X227700Y548250D01*
Y550050D02*Y548250D01*
X232200Y553500D02*Y547500D01*
Y549750D02*X232950Y550500D01*
X234450D01*
X235200Y549750D01*
Y547500D01*
X237000Y549750D02*Y548250D01*
Y549750D02*X237750Y550500D01*
X239250D01*
X240000Y549750D01*
Y548250D01*
X239250Y547500D02*X240000Y548250D01*
X237750Y547500D02*X239250D01*
X237000Y548250D02*X237750Y547500D01*
X241800Y553500D02*Y548250D01*
X242550Y547500D01*
X244800D02*X247050D01*
X244050Y548250D02*X244800Y547500D01*
X244050Y549750D02*Y548250D01*
Y549750D02*X244800Y550500D01*
X246300D01*
X247050Y549750D01*
X244050Y549000D02*X247050D01*
Y549750D02*Y549000D01*
X249600Y547500D02*X251850D01*
X252600Y548250D01*
X251850Y549000D02*X252600Y548250D01*
X249600Y549000D02*X251850D01*
X248850Y549750D02*X249600Y549000D01*
X248850Y549750D02*X249600Y550500D01*
X251850D01*
X252600Y549750D01*
X248850Y548250D02*X249600Y547500D01*
X257850Y553500D02*Y548250D01*
X258600Y547500D01*
X257100Y551250D02*X258600D01*
X260100Y549750D02*Y548250D01*
Y549750D02*X260850Y550500D01*
X262350D01*
X263100Y549750D01*
Y548250D01*
X262350Y547500D02*X263100Y548250D01*
X260850Y547500D02*X262350D01*
X260100Y548250D02*X260850Y547500D01*
X265650Y553500D02*Y548250D01*
X266400Y547500D01*
X264900Y551250D02*X266400D01*
X270150Y550500D02*X270900Y549750D01*
X268650Y550500D02*X270150D01*
X267900Y549750D02*X268650Y550500D01*
X267900Y549750D02*Y548250D01*
X268650Y547500D01*
X270900Y550500D02*Y548250D01*
X271650Y547500D01*
X268650D02*X270150D01*
X270900Y548250D01*
X273450Y553500D02*Y548250D01*
X274200Y547500D01*
G54D143*X690000Y30000D02*Y300500D01*
X659500D01*
Y270500D01*
X445000D01*
X444500D02*Y300500D01*
X414500D01*
Y359000D01*
Y359500D02*X444500D01*
Y389500D01*
X370000D01*
Y365000D01*
X320000D01*
Y390000D01*
X245500D01*
Y359000D01*
X275000D01*
X275500D02*Y300500D01*
X245500D01*
Y270500D01*
X30500D01*
Y300500D01*
X500D01*
Y30000D01*
X30000D01*
Y0D01*
X304500D01*
Y26500D01*
X386000D01*
Y0D01*
X660000D01*
Y30000D01*
X690000D01*
G54D141*X258675Y-9500D02*X261675D01*
X262425Y-8750D01*
Y-6950D02*Y-8750D01*
X261675Y-6200D02*X262425Y-6950D01*
X259425Y-6200D02*X261675D01*
X259425Y-3500D02*Y-9500D01*
X258675Y-3500D02*X261675D01*
X262425Y-4250D01*
Y-5450D01*
X261675Y-6200D02*X262425Y-5450D01*
X264225Y-7250D02*Y-8750D01*
Y-7250D02*X264975Y-6500D01*
X266475D01*
X267225Y-7250D01*
Y-8750D01*
X266475Y-9500D02*X267225Y-8750D01*
X264975Y-9500D02*X266475D01*
X264225Y-8750D02*X264975Y-9500D01*
X271275Y-6500D02*X272025Y-7250D01*
X269775Y-6500D02*X271275D01*
X269025Y-7250D02*X269775Y-6500D01*
X269025Y-7250D02*Y-8750D01*
X269775Y-9500D01*
X272025Y-6500D02*Y-8750D01*
X272775Y-9500D01*
X269775D02*X271275D01*
X272025Y-8750D01*
X275325Y-7250D02*Y-9500D01*
Y-7250D02*X276075Y-6500D01*
X277575D01*
X274575D02*X275325Y-7250D01*
X282375Y-3500D02*Y-9500D01*
X281625D02*X282375Y-8750D01*
X280125Y-9500D02*X281625D01*
X279375Y-8750D02*X280125Y-9500D01*
X279375Y-7250D02*Y-8750D01*
Y-7250D02*X280125Y-6500D01*
X281625D01*
X282375Y-7250D01*
X286875D02*Y-8750D01*
Y-7250D02*X287625Y-6500D01*
X289125D01*
X289875Y-7250D01*
Y-8750D01*
X289125Y-9500D02*X289875Y-8750D01*
X287625Y-9500D02*X289125D01*
X286875Y-8750D02*X287625Y-9500D01*
X291675Y-6500D02*Y-8750D01*
X292425Y-9500D01*
X293925D01*
X294675Y-8750D01*
Y-6500D02*Y-8750D01*
X297225Y-3500D02*Y-8750D01*
X297975Y-9500D01*
X296475Y-5750D02*X297975D01*
X299475Y-3500D02*Y-8750D01*
X300225Y-9500D01*
G54D142*X301725Y-5000D02*Y-5150D01*
G54D141*Y-7250D02*Y-9500D01*
X303975Y-7250D02*Y-9500D01*
Y-7250D02*X304725Y-6500D01*
X305475D01*
X306225Y-7250D01*
Y-9500D01*
X303225Y-6500D02*X303975Y-7250D01*
X308775Y-9500D02*X311025D01*
X308025Y-8750D02*X308775Y-9500D01*
X308025Y-7250D02*Y-8750D01*
Y-7250D02*X308775Y-6500D01*
X310275D01*
X311025Y-7250D01*
X308025Y-8000D02*X311025D01*
Y-7250D02*Y-8000D01*
G54D142*X315525Y-5000D02*Y-5150D01*
G54D141*Y-7250D02*Y-9500D01*
X317775D02*X320025D01*
X320775Y-8750D01*
X320025Y-8000D02*X320775Y-8750D01*
X317775Y-8000D02*X320025D01*
X317025Y-7250D02*X317775Y-8000D01*
X317025Y-7250D02*X317775Y-6500D01*
X320025D01*
X320775Y-7250D01*
X317025Y-8750D02*X317775Y-9500D01*
X326025Y-3500D02*Y-8750D01*
X326775Y-9500D01*
X325275Y-5750D02*X326775D01*
X328275Y-3500D02*Y-9500D01*
Y-7250D02*X329025Y-6500D01*
X330525D01*
X331275Y-7250D01*
Y-9500D01*
X333825D02*X336075D01*
X333075Y-8750D02*X333825Y-9500D01*
X333075Y-7250D02*Y-8750D01*
Y-7250D02*X333825Y-6500D01*
X335325D01*
X336075Y-7250D01*
X333075Y-8000D02*X336075D01*
Y-7250D02*Y-8000D01*
X341325Y-6500D02*X343575D01*
X340575Y-7250D02*X341325Y-6500D01*
X340575Y-7250D02*Y-8750D01*
X341325Y-9500D01*
X343575D01*
X346125D02*X348375D01*
X345375Y-8750D02*X346125Y-9500D01*
X345375Y-7250D02*Y-8750D01*
Y-7250D02*X346125Y-6500D01*
X347625D01*
X348375Y-7250D01*
X345375Y-8000D02*X348375D01*
Y-7250D02*Y-8000D01*
X350925Y-7250D02*Y-9500D01*
Y-7250D02*X351675Y-6500D01*
X352425D01*
X353175Y-7250D01*
Y-9500D01*
X350175Y-6500D02*X350925Y-7250D01*
X355725Y-3500D02*Y-8750D01*
X356475Y-9500D01*
X354975Y-5750D02*X356475D01*
X358725Y-9500D02*X360975D01*
X357975Y-8750D02*X358725Y-9500D01*
X357975Y-7250D02*Y-8750D01*
Y-7250D02*X358725Y-6500D01*
X360225D01*
X360975Y-7250D01*
X357975Y-8000D02*X360975D01*
Y-7250D02*Y-8000D01*
X363525Y-7250D02*Y-9500D01*
Y-7250D02*X364275Y-6500D01*
X365775D01*
X362775D02*X363525Y-7250D01*
X367575Y-3500D02*Y-8750D01*
X368325Y-9500D01*
G54D142*X369825Y-5000D02*Y-5150D01*
G54D141*Y-7250D02*Y-9500D01*
X372075Y-7250D02*Y-9500D01*
Y-7250D02*X372825Y-6500D01*
X373575D01*
X374325Y-7250D01*
Y-9500D01*
X371325Y-6500D02*X372075Y-7250D01*
X376875Y-9500D02*X379125D01*
X376125Y-8750D02*X376875Y-9500D01*
X376125Y-7250D02*Y-8750D01*
Y-7250D02*X376875Y-6500D01*
X378375D01*
X379125Y-7250D01*
X376125Y-8000D02*X379125D01*
Y-7250D02*Y-8000D01*
X383625Y-7250D02*Y-8750D01*
Y-7250D02*X384375Y-6500D01*
X385875D01*
X386625Y-7250D01*
Y-8750D01*
X385875Y-9500D02*X386625Y-8750D01*
X384375Y-9500D02*X385875D01*
X383625Y-8750D02*X384375Y-9500D01*
X389175Y-4250D02*Y-9500D01*
Y-4250D02*X389925Y-3500D01*
X390675D01*
X388425Y-6500D02*X389925D01*
X395625Y-3500D02*Y-8750D01*
X396375Y-9500D01*
X394875Y-5750D02*X396375D01*
X397875Y-3500D02*Y-9500D01*
Y-7250D02*X398625Y-6500D01*
X400125D01*
X400875Y-7250D01*
Y-9500D01*
G54D142*X402675Y-5000D02*Y-5150D01*
G54D141*Y-7250D02*Y-9500D01*
X404925D02*X407175D01*
X407925Y-8750D01*
X407175Y-8000D02*X407925Y-8750D01*
X404925Y-8000D02*X407175D01*
X404175Y-7250D02*X404925Y-8000D01*
X404175Y-7250D02*X404925Y-6500D01*
X407175D01*
X407925Y-7250D01*
X404175Y-8750D02*X404925Y-9500D01*
X413175Y-7250D02*Y-11750D01*
X412425Y-6500D02*X413175Y-7250D01*
X413925Y-6500D01*
X415425D01*
X416175Y-7250D01*
Y-8750D01*
X415425Y-9500D02*X416175Y-8750D01*
X413925Y-9500D02*X415425D01*
X413175Y-8750D02*X413925Y-9500D01*
X420225Y-6500D02*X420975Y-7250D01*
X418725Y-6500D02*X420225D01*
X417975Y-7250D02*X418725Y-6500D01*
X417975Y-7250D02*Y-8750D01*
X418725Y-9500D01*
X420975Y-6500D02*Y-8750D01*
X421725Y-9500D01*
X418725D02*X420225D01*
X420975Y-8750D01*
X424275Y-3500D02*Y-8750D01*
X425025Y-9500D01*
X423525Y-5750D02*X425025D01*
X426525Y-3500D02*Y-9500D01*
Y-7250D02*X427275Y-6500D01*
X428775D01*
X429525Y-7250D01*
Y-9500D01*
X200750Y418500D02*Y412500D01*
X202700Y418500D02*X203750Y417450D01*
Y413550D01*
X202700Y412500D02*X203750Y413550D01*
X200000Y412500D02*X202700D01*
X200000Y418500D02*X202700D01*
X207800Y415500D02*X208550Y414750D01*
X206300Y415500D02*X207800D01*
X205550Y414750D02*X206300Y415500D01*
X205550Y414750D02*Y413250D01*
X206300Y412500D01*
X208550Y415500D02*Y413250D01*
X209300Y412500D01*
X206300D02*X207800D01*
X208550Y413250D01*
X211850Y418500D02*Y413250D01*
X212600Y412500D01*
X211100Y416250D02*X212600D01*
X214850Y412500D02*X217100D01*
X214100Y413250D02*X214850Y412500D01*
X214100Y414750D02*Y413250D01*
Y414750D02*X214850Y415500D01*
X216350D01*
X217100Y414750D01*
X214100Y414000D02*X217100D01*
Y414750D02*Y414000D01*
X218900Y416250D02*X219650D01*
X218900Y414750D02*X219650D01*
X224150Y418500D02*X227150D01*
X225650D02*Y412500D01*
X228950Y418500D02*Y412500D01*
Y414750D02*X229700Y415500D01*
X231200D01*
X231950Y414750D01*
Y412500D01*
X233750Y415500D02*Y413250D01*
X234500Y412500D01*
X236000D01*
X236750Y413250D01*
Y415500D02*Y413250D01*
X241250D02*X242000Y412500D01*
X241250Y417750D02*Y413250D01*
Y417750D02*X242000Y418500D01*
X243500D01*
X244250Y417750D01*
Y413250D01*
X243500Y412500D02*X244250Y413250D01*
X242000Y412500D02*X243500D01*
X241250Y414000D02*X244250Y417000D01*
X246050Y417750D02*X246800Y418500D01*
X249050D01*
X249800Y417750D01*
Y416250D01*
X246050Y412500D02*X249800Y416250D01*
X246050Y412500D02*X249800D01*
X254300Y418500D02*Y412500D01*
Y418500D02*X256550Y415500D01*
X258800Y418500D01*
Y412500D01*
X262850Y415500D02*X263600Y414750D01*
X261350Y415500D02*X262850D01*
X260600Y414750D02*X261350Y415500D01*
X260600Y414750D02*Y413250D01*
X261350Y412500D01*
X263600Y415500D02*Y413250D01*
X264350Y412500D01*
X261350D02*X262850D01*
X263600Y413250D01*
X266900Y414750D02*Y412500D01*
Y414750D02*X267650Y415500D01*
X269150D01*
X266150D02*X266900Y414750D01*
X273650Y417750D02*X274400Y418500D01*
X276650D01*
X277400Y417750D01*
Y416250D01*
X273650Y412500D02*X277400Y416250D01*
X273650Y412500D02*X277400D01*
X279200Y413250D02*X279950Y412500D01*
X279200Y417750D02*Y413250D01*
Y417750D02*X279950Y418500D01*
X281450D01*
X282200Y417750D01*
Y413250D01*
X281450Y412500D02*X282200Y413250D01*
X279950Y412500D02*X281450D01*
X279200Y414000D02*X282200Y417000D01*
X284000Y417300D02*X285200Y418500D01*
Y412500D01*
X284000D02*X286250D01*
X288800D02*X291800Y418500D01*
X288050D02*X291800D01*
X296300Y413250D02*X297050Y412500D01*
X296300Y417750D02*Y413250D01*
Y417750D02*X297050Y418500D01*
X298550D01*
X299300Y417750D01*
Y413250D01*
X298550Y412500D02*X299300Y413250D01*
X297050Y412500D02*X298550D01*
X296300Y414000D02*X299300Y417000D01*
X301100Y414750D02*X304100Y418500D01*
X301100Y414750D02*X304850D01*
X304100Y418500D02*Y412500D01*
X306650Y416250D02*X307400D01*
X306650Y414750D02*X307400D01*
X309200Y417750D02*X309950Y418500D01*
X312200D01*
X312950Y417750D01*
Y416250D01*
X309200Y412500D02*X312950Y416250D01*
X309200Y412500D02*X312950D01*
X314750Y413250D02*X315500Y412500D01*
X314750Y417750D02*Y413250D01*
Y417750D02*X315500Y418500D01*
X317000D01*
X317750Y417750D01*
Y413250D01*
X317000Y412500D02*X317750Y413250D01*
X315500Y412500D02*X317000D01*
X314750Y414000D02*X317750Y417000D01*
X319550Y416250D02*X320300D01*
X319550Y414750D02*X320300D01*
X322100D02*X325100Y418500D01*
X322100Y414750D02*X325850D01*
X325100Y418500D02*Y412500D01*
X327650Y417750D02*X328400Y418500D01*
X330650D01*
X331400Y417750D01*
Y416250D01*
X327650Y412500D02*X331400Y416250D01*
X327650Y412500D02*X331400D01*
X335900Y417000D02*Y412500D01*
Y417000D02*X336950Y418500D01*
X338600D01*
X339650Y417000D01*
Y412500D01*
X335900Y415500D02*X339650D01*
X341450Y418500D02*Y412500D01*
Y418500D02*X343700Y415500D01*
X345950Y418500D01*
Y412500D01*
X353450Y418500D02*X354200Y417750D01*
X351200Y418500D02*X353450D01*
X350450Y417750D02*X351200Y418500D01*
X350450Y417750D02*Y413250D01*
X351200Y412500D01*
X353450D01*
X354200Y413250D01*
Y414750D02*Y413250D01*
X353450Y415500D02*X354200Y414750D01*
X351950Y415500D02*X353450D01*
X356000Y418500D02*Y412500D01*
Y418500D02*X358250Y415500D01*
X360500Y418500D01*
Y412500D01*
X362300Y418500D02*X365300D01*
X363800D02*Y412500D01*
X369800Y418500D02*Y413250D01*
X370550Y412500D01*
X372050D01*
X372800Y413250D01*
Y418500D02*Y413250D01*
X374600Y418500D02*X377600D01*
X376100D02*Y412500D01*
X380450D02*X382400D01*
X379400Y413550D02*X380450Y412500D01*
X379400Y417450D02*Y413550D01*
Y417450D02*X380450Y418500D01*
X382400D01*
X200000Y432000D02*Y427500D01*
Y432000D02*X201050Y433500D01*
X202700D01*
X203750Y432000D01*
Y427500D01*
X200000Y430500D02*X203750D01*
X205550D02*Y428250D01*
X206300Y427500D01*
X207800D01*
X208550Y428250D01*
Y430500D02*Y428250D01*
X211100Y433500D02*Y428250D01*
X211850Y427500D01*
X210350Y431250D02*X211850D01*
X213350Y433500D02*Y427500D01*
Y429750D02*X214100Y430500D01*
X215600D01*
X216350Y429750D01*
Y427500D01*
X218150Y429750D02*Y428250D01*
Y429750D02*X218900Y430500D01*
X220400D01*
X221150Y429750D01*
Y428250D01*
X220400Y427500D02*X221150Y428250D01*
X218900Y427500D02*X220400D01*
X218150Y428250D02*X218900Y427500D01*
X223700Y429750D02*Y427500D01*
Y429750D02*X224450Y430500D01*
X225950D01*
X222950D02*X223700Y429750D01*
X227750Y431250D02*X228500D01*
X227750Y429750D02*X228500D01*
X233000Y433500D02*X234500Y427500D01*
X236000Y433500D01*
G54D142*X237800Y432000D02*Y431850D01*
G54D141*Y429750D02*Y427500D01*
X240050Y429750D02*Y427500D01*
Y429750D02*X240800Y430500D01*
X241550D01*
X242300Y429750D01*
Y427500D01*
X239300Y430500D02*X240050Y429750D01*
X244850Y430500D02*X247100D01*
X244100Y429750D02*X244850Y430500D01*
X244100Y429750D02*Y428250D01*
X244850Y427500D01*
X247100D01*
X249650D02*X251900D01*
X248900Y428250D02*X249650Y427500D01*
X248900Y429750D02*Y428250D01*
Y429750D02*X249650Y430500D01*
X251150D01*
X251900Y429750D01*
X248900Y429000D02*X251900D01*
Y429750D02*Y429000D01*
X256400Y433500D02*Y430500D01*
X257150Y427500D01*
X258650Y430500D01*
X260150Y427500D01*
X260900Y430500D01*
Y433500D02*Y430500D01*
X263450Y427500D02*X265700D01*
X262700Y428250D02*X263450Y427500D01*
X262700Y429750D02*Y428250D01*
Y429750D02*X263450Y430500D01*
X264950D01*
X265700Y429750D01*
X262700Y429000D02*X265700D01*
Y429750D02*Y429000D01*
X269750Y430500D02*X270500Y429750D01*
X268250Y430500D02*X269750D01*
X267500Y429750D02*X268250Y430500D01*
X267500Y429750D02*Y428250D01*
X268250Y427500D01*
X270500Y430500D02*Y428250D01*
X271250Y427500D01*
X268250D02*X269750D01*
X270500Y428250D01*
X273050Y430500D02*X274550Y427500D01*
X276050Y430500D02*X274550Y427500D01*
X278600D02*X280850D01*
X277850Y428250D02*X278600Y427500D01*
X277850Y429750D02*Y428250D01*
Y429750D02*X278600Y430500D01*
X280100D01*
X280850Y429750D01*
X277850Y429000D02*X280850D01*
Y429750D02*Y429000D01*
X283400Y429750D02*Y427500D01*
Y429750D02*X284150Y430500D01*
X285650D01*
X282650D02*X283400Y429750D01*
X200000Y448500D02*X203000D01*
X201500D02*Y442500D01*
G54D142*X204800Y447000D02*Y446850D01*
G54D141*Y444750D02*Y442500D01*
X207050Y448500D02*Y443250D01*
X207800Y442500D01*
X206300Y446250D02*X207800D01*
X209300Y448500D02*Y443250D01*
X210050Y442500D01*
X212300D02*X214550D01*
X211550Y443250D02*X212300Y442500D01*
X211550Y444750D02*Y443250D01*
Y444750D02*X212300Y445500D01*
X213800D01*
X214550Y444750D01*
X211550Y444000D02*X214550D01*
Y444750D02*Y444000D01*
X216350Y446250D02*X217100D01*
X216350Y444750D02*X217100D01*
X221600Y443250D02*X222350Y442500D01*
X221600Y447750D02*X222350Y448500D01*
X221600Y447750D02*Y443250D01*
X224150Y445500D02*Y443250D01*
X224900Y442500D01*
X226400D01*
X227150Y443250D01*
Y445500D02*Y443250D01*
X229700Y444750D02*Y442500D01*
Y444750D02*X230450Y445500D01*
X231200D01*
X231950Y444750D01*
Y442500D01*
X228950Y445500D02*X229700Y444750D01*
X233750Y448500D02*Y442500D01*
Y444750D02*X236000Y442500D01*
X233750Y444750D02*X235250Y446250D01*
X238550Y444750D02*Y442500D01*
Y444750D02*X239300Y445500D01*
X240050D01*
X240800Y444750D01*
Y442500D01*
X237800Y445500D02*X238550Y444750D01*
X242600D02*Y443250D01*
Y444750D02*X243350Y445500D01*
X244850D01*
X245600Y444750D01*
Y443250D01*
X244850Y442500D02*X245600Y443250D01*
X243350Y442500D02*X244850D01*
X242600Y443250D02*X243350Y442500D01*
X247400Y445500D02*Y443250D01*
X248150Y442500D01*
X248900D01*
X249650Y443250D01*
Y445500D02*Y443250D01*
X250400Y442500D01*
X251150D01*
X251900Y443250D01*
Y445500D02*Y443250D01*
X254450Y444750D02*Y442500D01*
Y444750D02*X255200Y445500D01*
X255950D01*
X256700Y444750D01*
Y442500D01*
X253700Y445500D02*X254450Y444750D01*
X258500Y448500D02*X259250Y447750D01*
Y443250D01*
X258500Y442500D02*X259250Y443250D01*
X263750Y445500D02*X266750D01*
X271250Y448500D02*Y442500D01*
Y448500D02*X274250D01*
X271250Y445800D02*X273500D01*
X278300Y445500D02*X279050Y444750D01*
X276800Y445500D02*X278300D01*
X276050Y444750D02*X276800Y445500D01*
X276050Y444750D02*Y443250D01*
X276800Y442500D01*
X279050Y445500D02*Y443250D01*
X279800Y442500D01*
X276800D02*X278300D01*
X279050Y443250D01*
X281600Y448500D02*Y442500D01*
Y443250D02*X282350Y442500D01*
X283850D01*
X284600Y443250D01*
Y444750D02*Y443250D01*
X283850Y445500D02*X284600Y444750D01*
X282350Y445500D02*X283850D01*
X281600Y444750D02*X282350Y445500D01*
X287150Y444750D02*Y442500D01*
Y444750D02*X287900Y445500D01*
X289400D01*
X286400D02*X287150Y444750D01*
G54D142*X291200Y447000D02*Y446850D01*
G54D141*Y444750D02*Y442500D01*
X293450Y445500D02*X295700D01*
X292700Y444750D02*X293450Y445500D01*
X292700Y444750D02*Y443250D01*
X293450Y442500D01*
X295700D01*
X299750Y445500D02*X300500Y444750D01*
X298250Y445500D02*X299750D01*
X297500Y444750D02*X298250Y445500D01*
X297500Y444750D02*Y443250D01*
X298250Y442500D01*
X300500Y445500D02*Y443250D01*
X301250Y442500D01*
X298250D02*X299750D01*
X300500Y443250D01*
X303800Y448500D02*Y443250D01*
X304550Y442500D01*
X303050Y446250D02*X304550D01*
G54D142*X306050Y447000D02*Y446850D01*
G54D141*Y444750D02*Y442500D01*
X307550Y444750D02*Y443250D01*
Y444750D02*X308300Y445500D01*
X309800D01*
X310550Y444750D01*
Y443250D01*
X309800Y442500D02*X310550Y443250D01*
X308300Y442500D02*X309800D01*
X307550Y443250D02*X308300Y442500D01*
X313100Y444750D02*Y442500D01*
Y444750D02*X313850Y445500D01*
X314600D01*
X315350Y444750D01*
Y442500D01*
X312350Y445500D02*X313100Y444750D01*
X320600Y448500D02*Y442500D01*
X322550Y448500D02*X323600Y447450D01*
Y443550D01*
X322550Y442500D02*X323600Y443550D01*
X319850Y442500D02*X322550D01*
X319850Y448500D02*X322550D01*
X326150Y444750D02*Y442500D01*
Y444750D02*X326900Y445500D01*
X328400D01*
X325400D02*X326150Y444750D01*
X332450Y445500D02*X333200Y444750D01*
X330950Y445500D02*X332450D01*
X330200Y444750D02*X330950Y445500D01*
X330200Y444750D02*Y443250D01*
X330950Y442500D01*
X333200Y445500D02*Y443250D01*
X333950Y442500D01*
X330950D02*X332450D01*
X333200Y443250D01*
X335750Y445500D02*Y443250D01*
X336500Y442500D01*
X337250D01*
X338000Y443250D01*
Y445500D02*Y443250D01*
X338750Y442500D01*
X339500D01*
X340250Y443250D01*
Y445500D02*Y443250D01*
G54D142*X342050Y447000D02*Y446850D01*
G54D141*Y444750D02*Y442500D01*
X344300Y444750D02*Y442500D01*
Y444750D02*X345050Y445500D01*
X345800D01*
X346550Y444750D01*
Y442500D01*
X343550Y445500D02*X344300Y444750D01*
X350600Y445500D02*X351350Y444750D01*
X349100Y445500D02*X350600D01*
X348350Y444750D02*X349100Y445500D01*
X348350Y444750D02*Y443250D01*
X349100Y442500D01*
X350600D01*
X351350Y443250D01*
X348350Y441000D02*X349100Y440250D01*
X350600D01*
X351350Y441000D01*
Y445500D02*Y441000D01*
M02*
