G04 start of page 17 for group -4014 idx -4014 *
G04 Title: (unknown), bottompaste *
G04 Creator: pcb 20140316 *
G04 CreationDate: Thu 02 Mar 2017 04:20:42 AM GMT UTC *
G04 For: vince *
G04 Format: Gerber/RS-274X *
G04 PCB-Dimensions (mil): 6900.00 3900.00 *
G04 PCB-Coordinate-Origin: lower left *
%MOIN*%
%FSLAX25Y25*%
%LNBOTTOMPASTE*%
%ADD139C,0.0600*%
G54D139*X86500Y234500D02*Y231500D01*
X96500Y234500D02*Y231500D01*
X106500Y234500D02*Y231500D01*
X116500Y234500D02*Y231500D01*
X126500Y234500D02*Y231500D01*
X136500Y234500D02*Y231500D01*
X146500Y234500D02*Y231500D01*
X156500Y234500D02*Y231500D01*
X166500Y234500D02*Y231500D01*
X176500Y234500D02*Y231500D01*
Y264500D02*Y261500D01*
X166500Y264500D02*Y261500D01*
X156500Y264500D02*Y261500D01*
X146500Y264500D02*Y261500D01*
X136500Y264500D02*Y261500D01*
X126500Y264500D02*Y261500D01*
X116500Y264500D02*Y261500D01*
X106500Y264500D02*Y261500D01*
X96500Y264500D02*Y261500D01*
X86500Y264500D02*Y261500D01*
Y192000D02*Y189000D01*
X96500Y192000D02*Y189000D01*
X106500Y192000D02*Y189000D01*
X116500Y192000D02*Y189000D01*
X126500Y192000D02*Y189000D01*
X136500Y192000D02*Y189000D01*
X146500Y192000D02*Y189000D01*
X156500Y192000D02*Y189000D01*
X166500Y192000D02*Y189000D01*
X176500Y192000D02*Y189000D01*
Y222000D02*Y219000D01*
X166500Y222000D02*Y219000D01*
X156500Y222000D02*Y219000D01*
X146500Y222000D02*Y219000D01*
X136500Y222000D02*Y219000D01*
X126500Y222000D02*Y219000D01*
X116500Y222000D02*Y219000D01*
X106500Y222000D02*Y219000D01*
X96500Y222000D02*Y219000D01*
X86500Y222000D02*Y219000D01*
Y149500D02*Y146500D01*
X96500Y149500D02*Y146500D01*
X106500Y149500D02*Y146500D01*
X116500Y149500D02*Y146500D01*
X126500Y149500D02*Y146500D01*
X136500Y149500D02*Y146500D01*
X146500Y149500D02*Y146500D01*
X156500Y149500D02*Y146500D01*
X166500Y149500D02*Y146500D01*
X176500Y149500D02*Y146500D01*
Y179500D02*Y176500D01*
X166500Y179500D02*Y176500D01*
X156500Y179500D02*Y176500D01*
X146500Y179500D02*Y176500D01*
X136500Y179500D02*Y176500D01*
X126500Y179500D02*Y176500D01*
X116500Y179500D02*Y176500D01*
X106500Y179500D02*Y176500D01*
X96500Y179500D02*Y176500D01*
X86500Y179500D02*Y176500D01*
X604106Y264657D02*Y261657D01*
X594106Y264657D02*Y261657D01*
X584106Y264657D02*Y261657D01*
X574106Y264657D02*Y261657D01*
X564106Y264657D02*Y261657D01*
X554106Y264657D02*Y261657D01*
X544106Y264657D02*Y261657D01*
X534106Y264657D02*Y261657D01*
X524106Y264657D02*Y261657D01*
X514106Y264657D02*Y261657D01*
Y234657D02*Y231657D01*
X524106Y234657D02*Y231657D01*
X534106Y234657D02*Y231657D01*
X544106Y234657D02*Y231657D01*
X554106Y234657D02*Y231657D01*
X564106Y234657D02*Y231657D01*
X574106Y234657D02*Y231657D01*
X584106Y234657D02*Y231657D01*
X594106Y234657D02*Y231657D01*
X604106Y234657D02*Y231657D01*
X279500Y118500D02*Y115500D01*
X289500Y118500D02*Y115500D01*
X299500Y118500D02*Y115500D01*
X309500Y118500D02*Y115500D01*
X319500Y118500D02*Y115500D01*
X329500Y118500D02*Y115500D01*
X339500Y118500D02*Y115500D01*
X349500Y118500D02*Y115500D01*
X359500Y118500D02*Y115500D01*
X369500Y118500D02*Y115500D01*
X379500Y118500D02*Y115500D01*
X389500Y118500D02*Y115500D01*
X399500Y118500D02*Y115500D01*
X409500Y118500D02*Y115500D01*
Y48500D02*Y45500D01*
X399500Y48500D02*Y45500D01*
X389500Y48500D02*Y45500D01*
X379500Y48500D02*Y45500D01*
X369500Y48500D02*Y45500D01*
X359500Y48500D02*Y45500D01*
X349500Y48500D02*Y45500D01*
X339500Y48500D02*Y45500D01*
X329500Y48500D02*Y45500D01*
X319500Y48500D02*Y45500D01*
X309500Y48500D02*Y45500D01*
X299500Y48500D02*Y45500D01*
X289500Y48500D02*Y45500D01*
X279500Y48500D02*Y45500D01*
X604000Y179500D02*Y176500D01*
X594000Y179500D02*Y176500D01*
X584000Y179500D02*Y176500D01*
X574000Y179500D02*Y176500D01*
X564000Y179500D02*Y176500D01*
X554000Y179500D02*Y176500D01*
X544000Y179500D02*Y176500D01*
X534000Y179500D02*Y176500D01*
X524000Y179500D02*Y176500D01*
X514000Y179500D02*Y176500D01*
Y149500D02*Y146500D01*
X524000Y149500D02*Y146500D01*
X534000Y149500D02*Y146500D01*
X544000Y149500D02*Y146500D01*
X554000Y149500D02*Y146500D01*
X564000Y149500D02*Y146500D01*
X574000Y149500D02*Y146500D01*
X584000Y149500D02*Y146500D01*
X594000Y149500D02*Y146500D01*
X604000Y149500D02*Y146500D01*
Y222000D02*Y219000D01*
X594000Y222000D02*Y219000D01*
X584000Y222000D02*Y219000D01*
X574000Y222000D02*Y219000D01*
X564000Y222000D02*Y219000D01*
X554000Y222000D02*Y219000D01*
X544000Y222000D02*Y219000D01*
X534000Y222000D02*Y219000D01*
X524000Y222000D02*Y219000D01*
X514000Y222000D02*Y219000D01*
Y192000D02*Y189000D01*
X524000Y192000D02*Y189000D01*
X534000Y192000D02*Y189000D01*
X544000Y192000D02*Y189000D01*
X554000Y192000D02*Y189000D01*
X564000Y192000D02*Y189000D01*
X574000Y192000D02*Y189000D01*
X584000Y192000D02*Y189000D01*
X594000Y192000D02*Y189000D01*
X604000Y192000D02*Y189000D01*
M02*
