M48
INCH
T115C0.085
T114C0.126
T113C0.071
T112C0.125
T111C0.020
T110C0.038
T109C0.029
T108C0.047
T107C0.035
%
T111
X002600Y017700
X011100Y008100
X012100Y007650
X013150Y007200
X014100Y006750
X015100Y006300
X016100Y005850
X030950Y009900
X031450Y010700
X031950Y009450
X032950Y009000
X033950Y008550
X034950Y008100
X035950Y007650
X036950Y007200
X037950Y006750
X038950Y006300
X039950Y005850
X043000Y026800
X043750Y005300
X045350Y005300
T109
X001250Y012450
X001250Y008450
X003000Y012450
X003000Y008450
X028600Y026150
X028600Y022150
X030850Y026100
X030850Y022100
X034550Y025450
X034550Y022450
X038100Y026200
X038100Y022200
X040700Y026150
X040700Y022150
X066000Y012450
X066000Y008450
X067750Y012450
X067750Y008450
T107
X008650Y026300
X008650Y023300
X008650Y022050
X008650Y019050
X008650Y017800
X008650Y014800
X009650Y026300
X009650Y023300
X009650Y022050
X009650Y019050
X009650Y017800
X009650Y014800
X010650Y026300
X010650Y023300
X010650Y022050
X010650Y019050
X010650Y017800
X010650Y014800
X011650Y026300
X011650Y023300
X011650Y022050
X011650Y019050
X011650Y017800
X011650Y014800
X012650Y026300
X012650Y023300
X012650Y022050
X012650Y019050
X012650Y017800
X012650Y014800
X013650Y026300
X013650Y023300
X013650Y022050
X013650Y019050
X013650Y017800
X013650Y014800
X014650Y026300
X014650Y023300
X014650Y022050
X014650Y019050
X014650Y017800
X014650Y014800
X015650Y026300
X015650Y023300
X015650Y022050
X015650Y019050
X015650Y017800
X015650Y014800
X016650Y026300
X016650Y023300
X016650Y022050
X016650Y019050
X016650Y017800
X016650Y014800
X017650Y026300
X017650Y023300
X017650Y022050
X017650Y019050
X017650Y017800
X017650Y014800
X017950Y004050
X021000Y018250
X022200Y016650
X023300Y016700
X024500Y018750
X025600Y020050
X027950Y011700
X027950Y004700
X028950Y011700
X028950Y004700
X029050Y010550
X029950Y017000
X029950Y011700
X029950Y004700
X030950Y011700
X030950Y004700
X031950Y011700
X031950Y004700
X032950Y011700
X032950Y004700
X033950Y011700
X033950Y004700
X034950Y011700
X034950Y004700
X035950Y011700
X035950Y004700
X036950Y011700
X036950Y004700
X037950Y011700
X037950Y004700
X038950Y011700
X038950Y004700
X039950Y011700
X039950Y004700
X040750Y020450
X040800Y018150
X040950Y011700
X040950Y004700
X051100Y001650
X051400Y022050
X051400Y019050
X051400Y017800
X051400Y014800
X051411Y026316
X051411Y023316
X052400Y022050
X052400Y019050
X052400Y017800
X052400Y014800
X052411Y026316
X052411Y023316
X053400Y022050
X053400Y019050
X053400Y017800
X053400Y014800
X053411Y026316
X053411Y023316
X054400Y022050
X054400Y019050
X054400Y017800
X054400Y014800
X054411Y026316
X054411Y023316
X055400Y022050
X055400Y019050
X055400Y017800
X055400Y014800
X055411Y026316
X055411Y023316
X056400Y022050
X056400Y019050
X056400Y017800
X056400Y014800
X056411Y026316
X056411Y023316
X057400Y022050
X057400Y019050
X057400Y017800
X057400Y014800
X057411Y026316
X057411Y023316
X058400Y022050
X058400Y019050
X058400Y017800
X058400Y014800
X058411Y026316
X058411Y023316
X059400Y022050
X059400Y019050
X059400Y017800
X059400Y014800
X059411Y026316
X059411Y023316
X060400Y022050
X060400Y019050
X060400Y017800
X060400Y014800
X060411Y026316
X060411Y023316
T110
X007400Y003350
X008400Y003350
X009400Y003350
X010400Y003350
X012350Y013400
X013350Y013400
X014350Y013400
X015350Y013400
X016350Y013400
X021150Y022050
X021150Y021050
X021150Y020050
X021150Y019050
X032500Y013400
X033500Y013400
X034500Y013400
X035500Y013400
X036500Y013400
X052650Y013400
X053650Y013400
X054650Y013400
X055650Y013400
X056650Y013400
T108
X001139Y025434
X001139Y023466
X001139Y017634
X001139Y015666
X006061Y025434
X006061Y023466
X006061Y017634
X006061Y015666
X028439Y035484
X028439Y033516
X028439Y030534
X028439Y028566
X033361Y035484
X033361Y033516
X033361Y030534
X033361Y028566
X035639Y035484
X035639Y033516
X035639Y030534
X035639Y028566
X040561Y035484
X040561Y033516
X040561Y030534
X040561Y028566
X062939Y025434
X062939Y023466
X062939Y017634
X062939Y015666
X067861Y025434
X067861Y023466
X067861Y017634
X067861Y015666
%
T113
X003600Y026222
X003600Y022678
X003600Y018422
X003600Y014878
X030900Y036272
X030900Y032728
X030900Y031322
X030900Y027778
X038100Y036272
X038100Y032728
X038100Y031322
X038100Y027778
X065400Y026222
X065400Y022678
X065400Y018422
X065400Y014878
T115
X005080Y013170
X005080Y003380
X021180Y026070
X021180Y015030
X023620Y013170
X023620Y003380
X025230Y013170
X025230Y003380
X043770Y013170
X043770Y003380
X045380Y013170
X045380Y003380
X048170Y026070
X048170Y015030
X063920Y013170
X063920Y003380
T112
X001295Y028300
X026300Y037675
X026300Y028300
X042695Y037675
X042695Y028300
X067700Y028300
T114
X003600Y020550
X014350Y001400
X034550Y032000
X054650Y001400
X065400Y020550
M30
