G04 start of page 2 for group 0 idx 0 *
G04 Title: (unknown), component *
G04 Creator: pcb 20100929 *
G04 CreationDate: Mon 21 Feb 2011 05:52:53 PM GMT UTC *
G04 For: vince *
G04 Format: Gerber/RS-274X *
G04 PCB-Dimensions: 480000 150000 *
G04 PCB-Coordinate-Origin: lower left *
%MOIN*%
%FSLAX25Y25*%
%LNFRONT*%
%ADD11C,0.0120*%
%ADD12C,0.0650*%
%ADD13C,0.0200*%
%ADD14C,0.0700*%
%ADD15C,0.0600*%
%ADD16C,0.0400*%
%ADD17C,0.0290*%
%ADD18C,0.0280*%
%ADD19C,0.0350*%
G54D11*X155000Y130000D02*X155001D01*
X155000D02*X120000D01*
X155001D02*X155000D01*
X100000Y107900D02*Y107899D01*
Y110000D02*Y107900D01*
Y107899D01*
Y110000D02*Y107900D01*
Y100000D02*Y99999D01*
Y105150D02*Y100000D01*
X100001Y107900D02*X100000D01*
X142948Y105150D02*X100000D01*
X170000Y91101D02*X92899D01*
X125000Y110000D02*X100000D01*
X125001D02*X125000D01*
X142948Y117052D02*Y105150D01*
X145149Y100000D02*X125000D01*
X145149Y114851D02*Y100000D01*
X86100Y72500D02*X81500D01*
X86100Y97900D02*Y72500D01*
X90698Y32500D02*X81500D01*
X78500Y42500D02*X73899D01*
X78500Y67900D02*Y62500D01*
Y62499D02*Y62500D01*
Y62499D01*
Y62500D01*
Y62499D02*Y62500D01*
Y62499D02*Y62500D01*
Y62499D02*Y62500D01*
Y62499D02*Y62500D01*
Y67900D02*X41698D01*
X100000Y107900D02*X51500D01*
X86100Y97900D02*X43899D01*
Y119253D02*Y97900D01*
X51500Y112500D02*Y107900D01*
X71698Y57100D02*Y7899D01*
X73899Y42500D02*Y13098D01*
X59701Y15897D02*Y8696D01*
X58301D02*Y8695D01*
X59701Y8696D01*
X59702D01*
X58301D02*X59701D01*
X58301D01*
X59702D02*X59701D01*
X90698Y32500D02*Y16699D01*
X92899Y91101D02*Y38500D01*
X68097Y62099D02*Y4299D01*
X78500Y62500D02*Y62499D01*
Y62500D01*
X96500Y55000D02*Y54999D01*
Y57101D02*Y55000D01*
Y54999D01*
Y57101D02*Y55000D01*
X97500Y38500D02*X97501D01*
X97500D02*X92899D01*
X97501D02*X97500D01*
X97501D02*X97500Y40000D01*
X100000Y83500D02*Y76101D01*
Y33900D02*Y26500D01*
X110000Y31699D02*Y26500D01*
X117500Y76101D02*Y68500D01*
X140000Y76101D02*X117500D01*
X137500Y68500D02*Y63900D01*
X117500Y68500D02*Y68499D01*
X137500Y63900D02*X112899D01*
Y76101D02*Y63900D01*
Y76101D02*X100000D01*
X107500Y55000D02*Y41500D01*
X107501Y55000D02*X107500D01*
X133900D02*X107501D01*
X157500Y31699D02*X110000D01*
X142899Y33900D02*X100000D01*
X107500Y41500D02*Y41499D01*
X157500Y38500D02*Y31699D01*
X140000Y83500D02*Y76101D01*
X147500Y68500D02*X142899D01*
X147501D02*X147500D01*
X142899D02*Y33900D01*
X147501Y68500D02*X147500Y70000D01*
X96500Y57101D02*Y55000D01*
X133900Y49701D02*Y49700D01*
X147500Y68500D02*X147501D01*
X117500D02*Y68499D01*
X152100Y41500D02*X147500D01*
X152100Y80501D02*Y41500D01*
X107500D02*Y41499D01*
Y40000D01*
X133900Y49701D02*Y49700D01*
X107500Y68500D02*Y55000D01*
X133900D02*Y49701D01*
X107500Y55000D02*X96500D01*
X107501D02*X107500D01*
X160000Y26500D02*X162100D01*
X160000D01*
X162101D02*X162100D01*
X160000Y26499D02*X162100Y26500D01*
X162101D01*
X187500Y18900D02*X150000D01*
Y23500D02*Y18900D01*
X172100Y68500D02*Y33900D01*
X162100Y68500D02*Y26500D01*
Y68500D02*X157500D01*
X160000Y83500D02*Y76101D01*
X172100Y68500D02*X167500D01*
X187500Y76101D02*X160000D01*
X212899Y83500D02*Y46101D01*
X197500Y38500D02*X197501D01*
X197500Y40000D01*
X192899Y64799D02*Y38500D01*
X207500Y41500D02*Y41499D01*
Y41500D02*Y41499D01*
Y40000D01*
Y68500D02*Y41500D01*
X187500Y68500D02*Y68499D01*
Y76101D02*Y68500D01*
X210000Y83500D02*X212899D01*
X210000D02*X212899D01*
X210000D01*
X212899D02*X210000Y85000D01*
Y33900D02*Y26500D01*
X180000Y33900D02*X172100D01*
X180000D02*Y26500D01*
X197500Y38500D02*X192899D01*
X197501D02*X197500D01*
X187500D02*Y18900D01*
Y68500D02*Y70000D01*
X150000Y83500D02*Y80501D01*
X152100D02*X150000D01*
X152101D02*X152100D01*
X150000Y83500D02*Y80501D01*
Y83500D02*Y80501D01*
Y83500D02*Y80501D01*
X117500Y68500D02*Y70000D01*
Y68499D02*Y68500D01*
X150000Y80501D02*X152100D01*
X152101D01*
X193750Y101251D02*X192899D01*
X193751D02*X193750D01*
X192899D02*Y91101D01*
X188750Y101251D02*Y87500D01*
X200001Y110000D02*X200000D01*
X175001D01*
X200001D02*X200000D01*
Y100000D02*Y95150D01*
X186988Y101251D02*X188750D01*
X187500Y68500D02*Y68499D01*
Y68500D01*
X192899Y91101D02*Y64799D01*
Y91101D02*Y64799D01*
X150000Y80501D02*X152100D01*
X150000D02*Y80500D01*
Y83500D02*Y80501D01*
Y80500D01*
X175000Y110000D02*X150000D01*
X175001D02*X175000D01*
X175001D02*X175000D01*
Y100000D02*Y99999D01*
Y104851D02*Y100000D01*
X170000Y91101D02*Y86500D01*
X260000Y130000D02*X260001D01*
X260000D02*X220000D01*
X260001D02*X260000D01*
X193750Y101251D02*X193751D01*
X100000Y100000D02*Y99999D01*
Y110000D02*Y107900D01*
X100001D01*
X125000Y110000D02*X125001D01*
X41698Y146705D02*Y67900D01*
X86549Y138702D02*Y131499D01*
X175000Y110000D02*X175001D01*
X227500D02*X200001D01*
X227501D02*X227500D01*
X252100Y83500D02*X250000D01*
X240000D02*Y76101D01*
X217500D01*
X260000Y83500D02*Y76101D01*
X252101Y83500D02*X252100D01*
X250000Y85000D01*
X212900Y83500D02*X212899D01*
X217500Y68500D02*Y68499D01*
Y76101D02*Y68500D01*
X387500D02*Y68499D01*
X414000Y82500D02*X414001D01*
X414000D01*
X414001D02*X414000D01*
Y72500D02*X412501D01*
X414000Y82500D02*X412500D01*
X412501Y72500D02*X412500D01*
X411000D01*
X412501D02*X412500D01*
X350000Y83500D02*X352899D01*
X352900D01*
X350000D02*X352899D01*
X357500Y38500D02*Y38499D01*
X352899Y83500D02*X350000Y85000D01*
X414000Y62500D02*X414001D01*
X414000D02*X412500D01*
X414001D02*X414000D01*
Y52500D02*X412501D01*
X412500D01*
X412501D02*X412500D01*
X414000Y42500D02*X414001D01*
X414000D02*X412500D01*
X414001D02*X414000D01*
X412500Y52500D02*X411000D01*
X387500Y40000D02*Y38500D01*
X422201Y64700D02*Y64699D01*
X422500Y34300D02*Y34299D01*
X280000Y33900D02*X272100D01*
X287500Y68500D02*Y68499D01*
X272100Y68500D02*Y33900D01*
X412501Y112499D02*X412500Y112500D01*
Y102500D02*X411000D01*
X412501D02*X412500D01*
X411000Y112500D02*X411101Y115499D01*
X411000Y112500D02*X411101Y115499D01*
Y112500D01*
Y115499D02*X411000Y112500D01*
X411101Y115499D02*Y112500D01*
X411000D02*X411101D01*
Y115499D02*Y115500D01*
Y115499D01*
Y112500D02*X412500D01*
X287500Y76101D02*Y68500D01*
X312899Y83500D02*X310000Y85000D01*
X305000Y110000D02*X280001D01*
X305001D02*X305000D01*
X330000D02*X305001D01*
X330001D02*X330000D01*
X315000Y103749D02*Y95150D01*
X423899Y37900D02*X406399D01*
X387500Y38500D02*Y18900D01*
X423899Y37900D02*Y34300D01*
X427500Y37301D02*X423899Y37900D01*
X427500D02*X423899D01*
X422201Y117100D02*Y117099D01*
Y82500D02*X414001D01*
X280000Y33900D02*Y26500D01*
X307500Y40000D02*Y39999D01*
Y41500D02*Y40000D01*
X297501Y38500D02*X297500Y40000D01*
X294000Y33900D02*Y31099D01*
X337500Y38500D02*Y38499D01*
X297500Y38500D02*X297501D01*
X307500D02*Y39999D01*
Y40000D01*
X317500Y68500D02*Y68499D01*
X310000Y83500D02*X312899D01*
X312900D01*
X310000D02*X312899D01*
X305000Y100000D02*Y99999D01*
Y110000D02*X305001D01*
X330000D02*X330001D01*
X289299Y91550D02*Y91549D01*
X344600Y95150D02*X344601D01*
X355000Y100000D02*Y96750D01*
X360000Y130000D02*X325000D01*
X360001D02*X360000D01*
X355000Y100000D02*X355001D01*
X414000Y112500D02*Y115500D01*
Y112500D02*Y115500D01*
X412501D01*
X380000Y100000D02*Y99999D01*
Y110000D02*Y107900D01*
Y110000D02*X380001D01*
X414000Y112500D02*Y112499D01*
Y102500D02*X412501D01*
X414000Y92500D02*X414001D01*
X412501Y102500D02*X412500D01*
X414000Y92500D02*X412500D01*
X414001D02*X414000D01*
X390299Y116250D02*Y116249D01*
X412501Y115500D02*X412500D01*
X414000D02*X412501D01*
X444000Y22500D02*X444001D01*
X444000D02*X442500D01*
X444001D02*X444000D01*
X441000Y52500D02*Y52499D01*
Y52500D01*
X442500D01*
X441000Y82500D02*Y82499D01*
Y92500D02*Y92499D01*
Y82499D02*Y82500D01*
X442500D01*
X441000Y92499D02*Y92500D01*
X442500D01*
X357500Y38500D02*Y40000D01*
Y38499D02*Y38500D01*
X337500D02*Y40000D01*
Y38499D02*Y38500D01*
X317500Y68500D02*Y70000D01*
Y68499D02*Y68500D01*
X387500D02*Y70000D01*
Y68499D02*Y68500D01*
X422500Y34299D02*X423899Y34300D01*
X423900D01*
X422500D02*X423899D01*
X422201Y64700D02*Y64699D01*
Y82500D02*Y64700D01*
X453002Y117101D02*Y4299D01*
X448600Y102500D02*Y37900D01*
X450801Y17900D02*X422202D01*
Y16699D01*
Y17900D02*X393899D01*
X237500Y38500D02*Y38499D01*
X427500Y37900D02*Y37301D01*
X423899Y34300D02*X422500D01*
X423900D02*X423899D01*
X307500Y33900D02*X294000D01*
X307500Y38500D02*Y33900D01*
X375700Y62500D02*Y57900D01*
X272100Y68500D02*X267500D01*
X287500Y76101D02*X260000D01*
Y26499D02*X262100Y26500D01*
X262101D01*
X260000D02*X262100D01*
X262101D02*X262100D01*
X441000Y57900D02*X375700D01*
X441000Y52500D02*Y52499D01*
Y57900D02*Y52500D01*
Y32500D02*Y27900D01*
X414000D01*
X448600Y37900D02*X427500D01*
X414000Y32500D02*Y27900D01*
X406399Y22500D02*X401500D01*
X406399Y37900D02*Y22500D01*
X380000Y107900D02*Y107899D01*
Y110000D02*Y107900D01*
X390299Y116250D02*Y116249D01*
Y119253D02*Y116250D01*
X412501Y112499D02*X401500Y112500D01*
X414000D02*X412501Y112499D01*
X414000D02*X412501D01*
X412500Y115500D02*Y112500D01*
Y115500D02*X411101D01*
Y138702D02*Y115500D01*
X412501D02*X412500D01*
X422201Y117100D02*Y117099D01*
Y117101D02*Y117100D01*
X453002Y117101D02*X422201D01*
X450801Y112500D02*X444000D01*
X448600Y102500D02*X444000D01*
X376500Y125054D02*Y125053D01*
X360000Y130000D02*X360001D01*
X376500Y125054D02*Y125053D01*
Y135101D02*Y125054D01*
X364600Y123500D02*X364601D01*
X284850D02*Y123499D01*
Y123500D02*Y123499D01*
X364600Y123500D02*X284850D01*
X418600Y146705D02*Y129300D01*
X414702Y143104D02*Y124300D01*
X411000Y72500D02*X401500D01*
X450801Y112500D02*Y17900D01*
X444000Y22500D02*X431500D01*
X444001D02*X444000D01*
X393899Y32500D02*Y17900D01*
X398500Y32500D02*X393899D01*
X414000Y42500D02*X401500D01*
X414001D02*X414000D01*
X411000Y52500D02*X401500D01*
X414000Y62500D02*X401500D01*
X414001D02*X414000D01*
X428500Y112500D02*Y107900D01*
X380000D01*
X441000Y97900D02*X386801D01*
X441000Y92500D02*Y92499D01*
X414000Y82500D02*X401500D01*
X414001D02*X414000D01*
Y92500D02*X401500D01*
X414001D02*X414000D01*
X411000Y102500D02*X401500D01*
X380000Y107900D02*Y107899D01*
Y110000D02*Y107900D01*
Y110000D02*X355000D01*
X380001D02*X380000D01*
X355000Y96750D02*Y96749D01*
Y100000D02*Y96750D01*
X372201D02*X355000D01*
X372201D02*Y95150D01*
X384600D02*X372201D01*
X386801Y100000D02*X380000D01*
X386801D02*Y97900D01*
X380000Y100000D02*Y99999D01*
X384600Y95150D02*Y87900D01*
X441000Y97900D02*Y92500D01*
Y82500D02*Y82499D01*
Y87900D02*Y82500D01*
Y87900D02*X384600D01*
X375399Y31101D02*Y18900D01*
Y31101D02*X350000D01*
X357500Y46101D02*Y38500D01*
X362100Y48302D02*Y33900D01*
X357500Y46101D02*X342899D01*
X350000Y31101D02*Y26500D01*
X357500Y38500D02*Y38499D01*
X347500Y38500D02*Y33900D01*
X362100D02*X347500D01*
X315000Y95150D02*X289299D01*
Y91550D02*Y91549D01*
Y95150D02*Y91550D01*
X270000Y91101D02*X192899D01*
X355000Y96750D02*Y96749D01*
X321549Y104850D02*Y95150D01*
X344600D02*X321549D01*
X344601D02*X344600D01*
X355000Y100000D02*Y96750D01*
X436399Y7899D02*X436400D01*
X436399D02*X71698D01*
X436400D02*X436399D01*
X418600Y13098D02*X418601D01*
X418600D02*X73899D01*
X418601D02*X418600D01*
X453002Y4299D02*X68097D01*
X287500Y18900D02*X250000D01*
X422202Y16699D02*X90698D01*
X390299Y119253D02*X43899D01*
X414702Y143104D02*X73900D01*
X411101Y138702D02*X86549D01*
X418600Y146705D02*X41698D01*
X376500Y135101D02*X91549D01*
X364601Y123500D02*X364600D01*
X175000Y100000D02*Y99999D01*
X252500Y100000D02*X252501D01*
X252500D02*X227500D01*
X252501D02*X252500D01*
X200000Y110000D02*X200001D01*
X227500D02*X227501D01*
X280000Y95150D02*X200000D01*
X280000Y100000D02*Y95150D01*
X305001Y110000D02*X305000D01*
Y104851D02*Y100000D01*
X312899Y83500D02*X310000D01*
X312900D02*X312899D01*
X347948Y114851D02*Y100000D01*
X280000Y110000D02*X280001D01*
X280000D02*X252500D01*
X280001D02*X280000D01*
X280001D02*X280000D01*
X350149Y117052D02*X142948D01*
X347948Y114851D02*X145149D01*
X305000Y100000D02*Y99999D01*
Y104851D02*X175000D01*
X380000D02*Y100000D01*
X370000Y91101D02*X292899D01*
X380000Y104851D02*X350149D01*
Y117052D02*Y104851D01*
X355001Y100000D02*X355000D01*
X347948D01*
X352899Y83500D02*X350000D01*
X352900D02*X352899D01*
X370000Y91101D02*Y86500D01*
X342899Y33900D02*X310000D01*
Y26500D01*
X337500Y38500D02*Y38499D01*
X342899Y46101D02*Y33900D01*
X362100Y48302D02*X352899D01*
X337500Y46101D02*Y38500D01*
Y46101D02*X312899D01*
X340000Y83500D02*Y76101D01*
X317500D01*
X312899Y83500D02*Y46101D01*
X317500Y68500D02*Y68499D01*
Y76101D02*Y68500D01*
X352899Y83500D02*Y48302D01*
X372100Y68500D02*X367500D01*
X372100D02*Y33900D01*
X380000D02*X372100D01*
X380000D02*Y26500D01*
X387500Y68500D02*Y68499D01*
Y76101D02*Y68500D01*
Y76101D02*X360000D01*
Y83500D02*Y76101D01*
X387500Y18900D02*X375399D01*
X297500Y38500D02*X292899D01*
X297501D02*X297500D01*
X287500Y68500D02*Y68499D01*
Y68500D01*
X307500D02*Y41500D01*
X292899Y91101D02*Y38500D01*
X287500D02*Y18900D01*
X237500Y46101D02*X212899D01*
X237500Y38500D02*Y40000D01*
Y38499D02*Y38500D01*
X252100D02*X247500D01*
X237500D02*Y38499D01*
X212899Y83500D02*X212900D01*
X217500Y68500D02*Y70000D01*
Y68499D02*Y68500D01*
X257500Y33900D02*X210000D01*
X237500Y46101D02*Y38500D01*
X217500Y68500D02*Y68499D01*
X262100Y68500D02*Y26500D01*
X287500Y68500D02*Y70000D01*
X250000Y83500D02*X252100D01*
X252101D01*
X250000D02*X252100D01*
X250000Y23500D02*Y18900D01*
X252100Y83500D02*Y38500D01*
X262100Y68500D02*X257500D01*
X270000Y91101D02*Y86500D01*
X257500Y38500D02*Y33900D01*
X262100Y26500D02*X260000D01*
G54D12*X150000Y110000D03*
Y100000D03*
X175000Y110000D03*
Y100000D03*
G54D13*G36*
X161500Y133500D02*Y126500D01*
X168500D01*
Y133500D01*
X161500D01*
G37*
G54D14*X155000Y130000D03*
G54D12*X200000Y110000D03*
Y100000D03*
G54D15*X180000Y85000D03*
X200000D03*
X170000D03*
X160000D03*
X150000D03*
X140000D03*
X130000D03*
X120000D03*
G54D14*Y130000D03*
G54D15*X110000Y85000D03*
X100000D03*
G54D13*G36*
X106500Y133500D02*Y126500D01*
X113500D01*
Y133500D01*
X106500D01*
G37*
G54D15*X50000Y112500D03*
Y102500D03*
Y92500D03*
Y82500D03*
Y72500D03*
Y62500D03*
Y52500D03*
Y42500D03*
Y32500D03*
Y22500D03*
X80000Y52500D03*
Y62500D03*
Y72500D03*
Y82500D03*
Y92500D03*
Y22500D03*
Y32500D03*
Y42500D03*
X97500Y70000D03*
X107500D03*
X117500D03*
X127500D03*
X137500D03*
X147500D03*
X157500D03*
X167500D03*
X177500D03*
X187500D03*
G54D12*X100000Y110000D03*
Y100000D03*
X125000Y110000D03*
Y100000D03*
G54D15*X80000Y102500D03*
Y112500D03*
X100000Y25000D03*
X110000D03*
X120000D03*
X130000D03*
X140000D03*
X150000D03*
X160000D03*
X157500Y40000D03*
X147500D03*
X170000Y25000D03*
X167500Y40000D03*
X180000Y25000D03*
X187500Y40000D03*
X177500D03*
X200000Y25000D03*
X137500Y40000D03*
X127500D03*
X117500D03*
X107500D03*
X97500D03*
G54D12*X227500Y110000D03*
X252500D03*
X280000D03*
X227500Y100000D03*
X252500D03*
X280000D03*
X305000D03*
X330000D03*
X355000D03*
G54D13*G36*
X266500Y133500D02*Y126500D01*
X273500D01*
Y133500D01*
X266500D01*
G37*
G54D14*X260000Y130000D03*
G54D13*G36*
X206500Y133500D02*Y126500D01*
X213500D01*
Y133500D01*
X206500D01*
G37*
G54D14*X220000Y130000D03*
G54D15*X267500Y70000D03*
X277500D03*
X287500D03*
X280000Y85000D03*
X270000D03*
X260000D03*
X250000D03*
X240000D03*
X230000D03*
X220000D03*
X210000D03*
X350000D03*
X340000D03*
X330000D03*
X320000D03*
X310000D03*
X300000D03*
X247500Y40000D03*
X237500D03*
X227500D03*
X217500D03*
X207500D03*
X197500D03*
Y70000D03*
X207500D03*
X217500D03*
X210000Y25000D03*
X220000D03*
X230000D03*
X227500Y70000D03*
X237500D03*
X247500D03*
X257500D03*
X240000Y25000D03*
X250000D03*
X260000D03*
X270000D03*
X287500Y40000D03*
X297500D03*
X280000Y25000D03*
X300000D03*
X277500Y40000D03*
X267500D03*
X257500D03*
X430000Y22500D03*
X442500D03*
X412500D03*
X430000Y32500D03*
X442500D03*
X412500D03*
X400000Y72500D03*
Y62500D03*
Y52500D03*
Y42500D03*
Y32500D03*
Y22500D03*
G54D12*X305000Y110000D03*
X330000D03*
X355000D03*
X380000D03*
G54D13*G36*
X311500Y133500D02*Y126500D01*
X318500D01*
Y133500D01*
X311500D01*
G37*
G54D14*X325000Y130000D03*
G54D12*X380000Y100000D03*
G54D15*X400000Y102500D03*
G54D13*G36*
X366500Y133500D02*Y126500D01*
X373500D01*
Y133500D01*
X366500D01*
G37*
G54D14*X360000Y130000D03*
G54D15*X430000Y102500D03*
X412500D03*
X430000Y112500D03*
X400000D03*
X412500D03*
X442500D03*
Y102500D03*
X297500Y70000D03*
X307500D03*
X317500D03*
X327500D03*
X337500D03*
X347500D03*
X357500D03*
X367500D03*
X377500D03*
X387500D03*
X430000Y42500D03*
X442500D03*
X412500D03*
Y52500D03*
Y62500D03*
Y72500D03*
X430000Y52500D03*
Y62500D03*
Y72500D03*
X442500D03*
Y62500D03*
Y52500D03*
X430000Y82500D03*
Y92500D03*
X442500D03*
Y82500D03*
X400000Y92500D03*
Y82500D03*
X412500D03*
Y92500D03*
X380000Y85000D03*
X370000D03*
X360000D03*
X387500Y40000D03*
X377500D03*
X367500D03*
X357500D03*
X347500D03*
X337500D03*
X327500D03*
X317500D03*
X307500D03*
X310000Y25000D03*
X320000D03*
X330000D03*
X340000D03*
X350000D03*
X360000D03*
X370000D03*
X380000D03*
G54D16*X375700Y62500D03*
X390299Y116250D03*
X422500Y34300D03*
X422201Y117100D03*
Y64700D03*
X364600Y123500D03*
X376500Y125054D03*
X418600Y129300D03*
X414702Y124300D03*
X91549Y135101D03*
X73900Y143104D03*
X86549Y131499D03*
X284850Y123500D03*
X418600Y13098D03*
X59701Y15897D03*
X58301Y8696D03*
X436399Y7899D03*
X289299Y91550D03*
X344600Y95150D03*
X321549Y104850D03*
X294000Y31099D03*
X315000Y103749D03*
X193750Y101251D03*
X96500Y57101D03*
X71698Y57100D03*
X133900Y49701D03*
X68097Y62099D03*
X188750Y87500D03*
X186988Y101251D03*
G54D15*X48500Y112500D02*X51500D01*
X48500Y102500D02*X51500D01*
X48500Y92500D02*X51500D01*
X48500Y82500D02*X51500D01*
X48500Y72500D02*X51500D01*
X48500Y62500D02*X51500D01*
X48500Y52500D02*X51500D01*
X48500Y42500D02*X51500D01*
X48500Y32500D02*X51500D01*
X78500Y62500D02*X81500D01*
X78500Y72500D02*X81500D01*
X78500Y82500D02*X81500D01*
X78500Y92500D02*X81500D01*
X78500Y102500D02*X81500D01*
X78500Y112500D02*X81500D01*
X48500Y22500D02*X51500D01*
X78500Y32500D02*X81500D01*
X78500Y42500D02*X81500D01*
X78500Y52500D02*X81500D01*
X237500Y41500D02*Y38500D01*
X227500Y41500D02*Y38500D01*
X217500Y41500D02*Y38500D01*
X207500Y41500D02*Y38500D01*
X187500Y41500D02*Y38500D01*
X197500Y41500D02*Y38500D01*
Y71500D02*Y68500D01*
X207500Y71500D02*Y68500D01*
X217500Y71500D02*Y68500D01*
X227500Y71500D02*Y68500D01*
X237500Y71500D02*Y68500D01*
X247500Y71500D02*Y68500D01*
X187500Y71500D02*Y68500D01*
X257500Y71500D02*Y68500D01*
X260000Y86500D02*Y83500D01*
X250000Y86500D02*Y83500D01*
X240000Y86500D02*Y83500D01*
X230000Y86500D02*Y83500D01*
X220000Y86500D02*Y83500D01*
X210000Y86500D02*Y83500D01*
X200000Y86500D02*Y83500D01*
Y26500D02*Y23500D01*
X210000Y26500D02*Y23500D01*
X220000Y26500D02*Y23500D01*
X230000Y26500D02*Y23500D01*
X398500Y72500D02*X401500D01*
X398500Y62500D02*X401500D01*
X398500Y52500D02*X401500D01*
X398500Y42500D02*X401500D01*
X387500Y41500D02*Y38500D01*
X398500Y32500D02*X401500D01*
X398500Y22500D02*X401500D01*
X377500Y41500D02*Y38500D01*
X367500Y41500D02*Y38500D01*
X357500Y41500D02*Y38500D01*
X317500Y71500D02*Y68500D01*
X327500Y71500D02*Y68500D01*
X337500Y71500D02*Y68500D01*
X347500Y71500D02*Y68500D01*
X357500Y71500D02*Y68500D01*
X367500Y71500D02*Y68500D01*
X377500Y71500D02*Y68500D01*
X347500Y41500D02*Y38500D01*
X337500Y41500D02*Y38500D01*
X327500Y41500D02*Y38500D01*
X317500Y41500D02*Y38500D01*
X320000Y26500D02*Y23500D01*
X330000Y26500D02*Y23500D01*
X340000Y26500D02*Y23500D01*
X350000Y26500D02*Y23500D01*
X360000Y26500D02*Y23500D01*
X370000Y26500D02*Y23500D01*
X380000Y26500D02*Y23500D01*
X387500Y71500D02*Y68500D01*
X380000Y86500D02*Y83500D01*
X370000Y86500D02*Y83500D01*
X360000Y86500D02*Y83500D01*
X350000Y86500D02*Y83500D01*
X340000Y86500D02*Y83500D01*
X330000Y86500D02*Y83500D01*
X320000Y86500D02*Y83500D01*
X78500Y22500D02*X81500D01*
X100000Y26500D02*Y23500D01*
X110000Y26500D02*Y23500D01*
X120000Y26500D02*Y23500D01*
X180000Y86500D02*Y83500D01*
X170000Y86500D02*Y83500D01*
X160000Y86500D02*Y83500D01*
X150000Y86500D02*Y83500D01*
Y26500D02*Y23500D01*
X160000Y26500D02*Y23500D01*
X170000Y26500D02*Y23500D01*
X180000Y26500D02*Y23500D01*
X177500Y41500D02*Y38500D01*
X167500Y41500D02*Y38500D01*
X157500Y41500D02*Y38500D01*
X147500Y41500D02*Y38500D01*
X130000Y26500D02*Y23500D01*
X140000Y26500D02*Y23500D01*
X137500Y41500D02*Y38500D01*
X127500Y41500D02*Y38500D01*
X117500Y41500D02*Y38500D01*
X107500Y41500D02*Y38500D01*
X97500Y41500D02*Y38500D01*
X140000Y86500D02*Y83500D01*
X130000Y86500D02*Y83500D01*
X120000Y86500D02*Y83500D01*
X110000Y86500D02*Y83500D01*
X100000Y86500D02*Y83500D01*
X97500Y71500D02*Y68500D01*
X107500Y71500D02*Y68500D01*
X117500Y71500D02*Y68500D01*
X127500Y71500D02*Y68500D01*
X137500Y71500D02*Y68500D01*
X147500Y71500D02*Y68500D01*
X157500Y71500D02*Y68500D01*
X167500Y71500D02*Y68500D01*
X177500Y71500D02*Y68500D01*
X428500Y22500D02*X431500D01*
X428500Y32500D02*X431500D01*
X411000Y22500D02*X414000D01*
X411000Y32500D02*X414000D01*
X428500Y62500D02*X431500D01*
X428500Y72500D02*X431500D01*
X428500Y82500D02*X431500D01*
X428500Y92500D02*X431500D01*
X428500Y102500D02*X431500D01*
X428500Y112500D02*X431500D01*
X398500D02*X401500D01*
X411000D02*X414000D01*
X398500Y102500D02*X401500D01*
X398500Y92500D02*X401500D01*
X398500Y82500D02*X401500D01*
X411000D02*X414000D01*
X411000Y92500D02*X414000D01*
X411000Y102500D02*X414000D01*
X441000Y112500D02*X444000D01*
X441000Y102500D02*X444000D01*
X441000Y92500D02*X444000D01*
X441000Y82500D02*X444000D01*
X441000Y72500D02*X444000D01*
X441000Y62500D02*X444000D01*
X441000Y52500D02*X444000D01*
X441000Y42500D02*X444000D01*
X441000Y32500D02*X444000D01*
X441000Y22500D02*X444000D01*
X428500Y42500D02*X431500D01*
X428500Y52500D02*X431500D01*
X411000Y42500D02*X414000D01*
X411000Y52500D02*X414000D01*
X411000Y62500D02*X414000D01*
X411000Y72500D02*X414000D01*
X267500Y41500D02*Y38500D01*
X257500Y41500D02*Y38500D01*
X287500Y41500D02*Y38500D01*
X277500Y41500D02*Y38500D01*
X247500Y41500D02*Y38500D01*
X307500Y41500D02*Y38500D01*
X297500Y41500D02*Y38500D01*
X267500Y71500D02*Y68500D01*
X277500Y71500D02*Y68500D01*
X287500Y71500D02*Y68500D01*
X297500Y71500D02*Y68500D01*
X307500Y71500D02*Y68500D01*
X280000Y86500D02*Y83500D01*
X270000Y86500D02*Y83500D01*
X310000Y86500D02*Y83500D01*
X300000Y86500D02*Y83500D01*
X240000Y26500D02*Y23500D01*
X250000Y26500D02*Y23500D01*
X260000Y26500D02*Y23500D01*
X270000Y26500D02*Y23500D01*
X280000Y26500D02*Y23500D01*
X300000Y26500D02*Y23500D01*
X310000Y26500D02*Y23500D01*
G54D17*G54D18*G54D17*G54D19*G54D18*G54D19*G54D18*G54D19*G54D17*G54D19*G54D17*G54D18*G54D19*G54D17*G54D18*G54D17*G54D19*G54D18*G54D19*G54D13*M02*
