M48
INCH
T14C0.020
T17C0.035
T18C0.029
T19C0.028
%
T14
X037210Y005790
X034600Y011489
X033010Y011845
X034100Y011849
X034600Y005930
X041860Y012350
X042360Y012349
X039210Y000989
X043639Y000409
X039940Y001590
X038210Y001709
X040610Y011850
X042000Y005790
X045220Y009149
X045220Y009650
X045000Y005710
X042220Y003710
X041460Y001650
X019100Y009735
X028485Y012205
X018540Y009330
X007029Y010429
X006789Y008790
X004250Y006709
X014860Y005949
X010289Y004750
X025570Y005750
X030110Y005690
X022750Y005610
X025850Y005249
X027929Y004750
T19
X027000Y013000
X026000Y013000
X021000Y013000
X022000Y013000
X031500Y013000
X032500Y013000
X037000Y013000
X036000Y013000
X016500Y013000
X015500Y013000
X011000Y013000
X012000Y013000
T18
X022750Y011000
X025250Y011000
X028000Y011000
X022750Y010000
X025250Y010000
X028000Y010000
X030500Y010000
X033000Y010000
X035500Y010000
X030500Y011000
X033000Y011000
X035500Y011000
X038000Y011000
X038000Y010000
X015000Y011000
X015000Y010000
X017500Y011000
X017500Y010000
X010000Y011000
X010000Y010000
X012500Y011000
X012500Y010000
X020000Y011000
X020000Y010000
T17
X040000Y010250
X021000Y002500
X022000Y002500
X023000Y002500
X024000Y002500
X025000Y002500
X026000Y002500
X027000Y002500
X037000Y008500
X036000Y008500
X035000Y008500
X034000Y008500
X033000Y008500
X032000Y008500
X031000Y008500
X030000Y008500
X029000Y008500
X028000Y008500
X027000Y008500
X026000Y008500
X025000Y008500
X024000Y008500
X023000Y008500
X022000Y008500
X021000Y008500
X029000Y002500
X030000Y002500
X031000Y002500
X032000Y002500
X033000Y002500
X034000Y002500
X035000Y002500
X036000Y002500
X037000Y002500
X028750Y004000
X029750Y004000
X027750Y004000
X026750Y004000
X025750Y004000
X030750Y004000
X024750Y004000
X023750Y004000
X022750Y004000
X021750Y004000
X020750Y004000
X019750Y004000
X019750Y007000
X020750Y007000
X021750Y007000
X022750Y007000
X023750Y007000
X024750Y007000
X025750Y007000
X038750Y004000
X037750Y004000
X036750Y004000
X035750Y004000
X034750Y004000
X033750Y004000
X032750Y004000
X031750Y004000
X026750Y007000
X027750Y007000
X028750Y007000
X029750Y007000
X030750Y007000
X031750Y007000
X032750Y007000
X043000Y002250
X043000Y003250
X043000Y004250
X043000Y005250
X043000Y006250
X043000Y007250
X040000Y007250
X040000Y006250
X040000Y005250
X040000Y004250
X040000Y003250
X040000Y002250
X043000Y008250
X043000Y009250
X040000Y009250
X040000Y008250
X033750Y007000
X034750Y007000
X035750Y007000
X036750Y007000
X037750Y007000
X038750Y007000
X043000Y010250
X044250Y010250
X043000Y011250
X040000Y011250
X044250Y011250
X041250Y011250
X041250Y008250
X041250Y009250
X044250Y009250
X044250Y008250
X041250Y010250
X044250Y007250
X044250Y006250
X044250Y005250
X044250Y004250
X044250Y003250
X044250Y002250
X041250Y002250
X041250Y003250
X041250Y004250
X041250Y005250
X041250Y006250
X041250Y007250
X028000Y002500
X008000Y010250
X008000Y011250
X005000Y011250
X005000Y010250
X005000Y009250
X005000Y008250
X005000Y007250
X005000Y006250
X005000Y005250
X005000Y004250
X005000Y003250
X008000Y002250
X008000Y003250
X008000Y004250
X008000Y005250
X008000Y006250
X008000Y007250
X008000Y008250
X005000Y002250
X008000Y009250
X018750Y004000
X017750Y004000
X016750Y004000
X015750Y004000
X014750Y004000
X013750Y004000
X013750Y007000
X014750Y007000
X015750Y007000
X016750Y007000
X017750Y007000
X020000Y008500
X019000Y008500
X018000Y008500
X017000Y008500
X016000Y008500
X015000Y008500
X014000Y008500
X013000Y008500
X012000Y008500
X011000Y008500
X012750Y004000
X012750Y007000
X011750Y004000
X011750Y007000
X010750Y004000
X009750Y004000
X009750Y007000
X010750Y007000
X011000Y002500
X012000Y002500
X013000Y002500
X018750Y007000
X020000Y002500
X018000Y002500
X019000Y002500
X014000Y002500
X015000Y002500
X016000Y002500
X017000Y002500
M30
