G04 start of page 3 for group 1 idx 1 *
G04 Title: (unknown), solder *
G04 Creator: pcb 20091103 *
G04 CreationDate: Sun 12 Sep 2010 08:48:13 PM GMT UTC *
G04 For: vince *
G04 Format: Gerber/RS-274X *
G04 PCB-Dimensions: 480000 150000 *
G04 PCB-Coordinate-Origin: lower left *
%MOIN*%
%FSLAX25Y25*%
%LNBACK*%
%ADD12C,0.0600*%
%ADD13C,0.0650*%
%ADD14C,0.0200*%
%ADD15C,0.0700*%
%ADD17C,0.0350*%
%ADD18C,0.0290*%
%ADD19C,0.0280*%
%ADD24C,0.0120*%
%ADD25C,0.0400*%
G54D24*X340000Y26500D02*Y26499D01*
Y25000D01*
X317500Y40000D02*X317501Y38500D01*
X317500D01*
X340000Y26500D02*Y26499D01*
X320000Y18900D02*Y18899D01*
X317500Y41500D02*X312899D01*
Y41499D01*
Y75302D02*Y41500D01*
X452201Y131503D02*Y96500D01*
X452202Y131503D02*X452201D01*
Y96500D02*Y96499D01*
X453602Y91498D02*X452203D01*
X455802Y93698D02*X453602Y91498D01*
X448600Y123499D02*Y104799D01*
Y123499D02*Y104799D01*
Y127101D02*Y123499D01*
Y104799D02*Y82500D01*
Y82499D01*
X431500D02*Y82500D01*
Y82499D01*
Y82500D02*X430000D01*
X453602Y67900D02*X453601D01*
X362101Y59301D02*X362100D01*
X441000Y57900D02*X420001D01*
X346001Y59301D02*X346000Y59300D01*
X354050Y59301D02*X346001D01*
X436100Y91503D02*Y77900D01*
X437097Y92500D02*X436100Y91503D01*
X441000Y92500D02*X437097D01*
X372100Y78900D02*Y57900D01*
X372101Y78900D02*X372100D01*
X364600Y95150D02*Y78900D01*
X364601Y95150D02*X364600D01*
X362101Y83500D02*X362100D01*
Y59301D01*
X335399Y80496D02*X333802Y78899D01*
X335399Y95149D02*Y80496D01*
X333802Y78899D02*X332899Y77996D01*
X317500Y75403D02*Y68500D01*
X316497Y78900D02*X312899Y75302D01*
X325000Y78900D02*X316497D01*
X318198Y76101D02*X317500Y75403D01*
X327201Y76101D02*X318198D01*
X441000Y57900D02*Y52500D01*
X431500D02*X431501D01*
X414000Y67900D02*Y67899D01*
X453601Y67900D02*X414000D01*
X431500Y52500D02*X430000D01*
X450000Y37101D02*X422201D01*
X431500Y32500D02*X430000D01*
X431501D02*X431500D01*
Y22500D01*
Y22499D01*
Y22500D01*
Y42500D02*Y42499D01*
Y22500D02*Y22499D01*
X453601Y27900D02*Y27899D01*
Y27900D02*X437997D01*
X436399Y4092D02*Y4091D01*
Y4092D02*Y4091D01*
Y26302D02*Y4092D01*
X431500Y22500D02*X430000D01*
X437997Y27900D02*X436399Y26302D01*
X448600Y82500D02*X444000D01*
X453601Y67900D02*Y27900D01*
X450000Y57100D02*Y37101D01*
X450001D02*X450000D01*
X441001Y57900D02*X441000D01*
X431501Y52500D02*X431500D01*
Y42500D01*
Y42499D01*
Y32500D02*X431501D01*
X431500Y42499D02*Y42500D01*
X430000D01*
X441000Y52499D02*Y52500D01*
Y52499D02*Y52500D01*
Y52499D02*Y52500D01*
X406100Y97900D02*Y77900D01*
X406101Y97900D02*X406100D01*
X418600Y82500D02*X414000D01*
X452201Y96500D02*Y96499D01*
X431500Y92500D02*Y92499D01*
Y92500D02*Y92499D01*
X406100Y77900D02*Y77899D01*
X436100Y77900D02*X406100D01*
X436101D02*X436100D01*
X431500Y82500D02*Y82499D01*
Y92499D02*Y82500D01*
X418600Y52500D02*X414000D01*
X418601D02*X418600D01*
X441000D02*Y52499D01*
Y52500D01*
Y52499D01*
Y52500D01*
Y52499D02*Y52500D01*
X382100Y17095D02*Y15098D01*
X382101D02*X382100D01*
Y17095D02*Y15098D01*
X382101D01*
X382100Y17095D02*Y15098D01*
X392100Y9894D02*Y9893D01*
Y9894D02*Y9893D01*
X382100Y15098D02*Y15097D01*
Y15098D02*Y15097D01*
X414602Y16500D02*X403000D01*
X401500Y22500D02*Y19502D01*
Y22500D02*Y19502D01*
Y22500D02*Y19502D01*
Y22500D02*Y19502D01*
Y22500D02*X400000D01*
X401500Y19502D02*Y22500D01*
X399400Y15900D02*Y6293D01*
X403000Y16500D02*Y16499D01*
X401500Y19502D02*Y19501D01*
Y19502D02*X403000D01*
X401500D02*X403000D01*
X401500Y19501D02*Y19502D01*
X403000D02*X403001D01*
X401500D02*Y19501D01*
X399400Y6293D02*Y6292D01*
X414000Y72500D02*Y67900D01*
X406100Y97900D02*X393051D01*
X392100D01*
X372100Y57900D02*Y57899D01*
X346001Y95150D02*Y95149D01*
X364600Y95150D02*X346001D01*
X360000Y83500D02*X362100D01*
X360000D02*X362100D01*
X360000Y85000D01*
X362100Y83500D02*X360000D01*
X364600Y78900D02*Y78899D01*
X362100Y83500D02*X362101D01*
X372100Y78900D02*X364600D01*
X325000D02*Y78899D01*
X362100Y59301D02*X354050D01*
X332899Y77996D02*Y49700D01*
X392100Y97900D02*Y9894D01*
X380000Y97900D02*Y97899D01*
Y97900D02*Y97899D01*
X392100Y97900D02*X380000D01*
X346000Y59300D02*Y59299D01*
Y59300D02*Y59299D01*
X372100Y57900D02*Y57899D01*
X365399Y18900D02*Y18899D01*
X362899Y45302D02*Y31699D01*
X365399Y35001D02*Y18900D01*
X357500Y38500D02*Y33900D01*
X362899Y31699D02*Y31698D01*
X357500Y33900D02*Y33899D01*
X345199Y31699D02*X340000Y26500D01*
X362899Y31699D02*X345199D01*
X367501Y37102D02*X367500D01*
X367501D01*
X387501Y46101D02*X387500D01*
Y38500D01*
X367500Y37102D02*X365399Y35001D01*
X363698Y46101D02*X362899Y45302D01*
X387500Y46101D02*X363698D01*
X367501Y38500D02*X367500D01*
X367501D02*X367500Y40000D01*
X346001Y114897D02*Y95150D01*
X334851Y100000D02*X334850D01*
X355000D02*Y99999D01*
X341000Y100750D02*X335399Y95149D01*
X359851Y104851D02*X355000Y100000D01*
X384851Y104851D02*X384850D01*
Y107253D02*Y104851D01*
X380000Y100000D02*Y97900D01*
Y100000D02*Y97900D01*
Y100000D02*Y97900D01*
X384850Y104851D02*X359851D01*
X455803Y135101D02*X455802D01*
X375101Y124900D02*X375100D01*
X448601Y127101D02*X448600D01*
X404698D01*
X381703Y131503D02*X375100Y124900D01*
X452201Y131503D02*X381703D01*
X448600Y123499D02*X423602D01*
X309850Y134253D02*Y117550D01*
X310698Y135101D02*X309850Y134253D01*
X455802Y135101D02*X310698D01*
X393051Y97900D02*X392100D01*
X431500Y92500D02*X430000D01*
X431500D02*Y92499D01*
X418601Y82500D02*X418600D01*
X431501Y102500D02*X431500D01*
Y92500D01*
X418600Y123500D02*Y82500D01*
X431500Y102500D02*X430000D01*
X431500D02*X431501D01*
X455802Y135101D02*Y93698D01*
X406100Y118500D02*Y102500D01*
X404698Y127101D02*X384850Y107253D01*
X406101Y102500D02*X406100D01*
X403800D01*
X406101D02*X406100D01*
X401500D02*X403800D01*
X406100D02*X403800D01*
X401500D01*
X411000D02*X406101D01*
X343327Y127100D02*X334850D01*
X343327D02*X334850D01*
X330100Y122350D02*Y118451D01*
X334850Y127100D02*X330100Y122350D01*
X351802Y127100D02*Y124900D01*
X351803Y127100D02*X351802D01*
X343327D01*
X351802Y124900D02*Y124899D01*
X375100Y124900D02*X351802D01*
X334850Y127100D02*Y100000D01*
X341000Y118498D02*Y100750D01*
X97500Y86006D02*Y71500D01*
X110000Y130000D02*Y95150D01*
X100000Y110000D02*Y107900D01*
Y110000D02*Y107900D01*
X100001D01*
X100000D02*Y107899D01*
X110000Y95150D02*X106644D01*
X113198Y123198D02*Y92949D01*
X116198Y91101D02*X115399Y90302D01*
Y80496D02*X113802Y78899D01*
X115399Y90302D02*Y80496D01*
X113802Y78899D02*X112899Y77996D01*
X120000Y130000D02*X114899Y124899D01*
X113198Y123198D01*
Y92949D02*Y92948D01*
Y92949D02*X108046D01*
X110000Y95150D02*Y95149D01*
X108046Y92949D02*X102899Y87802D01*
X106644Y95150D02*X97500Y86006D01*
X87099Y52500D02*X87098D01*
X81500D01*
X87098D02*Y1892D01*
X110000Y26500D02*Y26499D01*
Y25000D01*
X102899Y47500D02*Y47499D01*
X105399Y38500D02*Y16699D01*
Y16698D01*
Y38500D02*X107500Y40000D01*
X80001Y102500D02*X80000D01*
X80001D02*X80000D01*
X78500D01*
X70299Y104299D02*Y102500D01*
X51500Y112500D02*Y107900D01*
X70299Y104299D02*Y102500D01*
Y104299D02*Y102500D01*
X51500Y107900D02*Y107899D01*
X70299Y102500D02*Y102499D01*
Y102500D02*Y102499D01*
X78500Y102500D02*X70299D01*
X81500D02*X80001D01*
X100000Y107900D02*X51500D01*
X67897Y87900D02*Y82500D01*
Y82499D01*
X78500Y82500D02*X67897D01*
X80001D02*X80000D01*
X78500Y72500D02*Y67101D01*
X78501D02*X78500D01*
X81500Y82500D02*X80001D01*
X80000D01*
X78500D01*
X42502Y67101D02*X42500Y67099D01*
X78500Y67101D02*X42502D01*
X120000Y26500D02*Y26499D01*
Y26500D02*Y26499D01*
X112900Y26500D02*X112899D01*
X110000Y26499D02*X112899Y26500D01*
X110000D02*X112899D01*
X112900D01*
X112899D02*X110000D01*
X120000Y26499D02*Y25000D01*
X112899Y77996D02*Y26500D01*
X102899Y87802D02*Y47500D01*
X191000Y127609D02*Y97350D01*
X178249Y100000D02*X178250D01*
X178249Y101650D02*Y100000D01*
X179850Y103251D02*X178249Y101650D01*
X179850Y120062D02*Y103251D01*
X165399Y90302D02*Y78900D01*
X166198Y91101D02*X165399Y90302D01*
X175399Y91101D02*X166198D01*
X170000Y83500D02*Y76101D01*
Y76100D01*
X167500Y68500D02*Y63900D01*
X162100Y68500D02*X157500D01*
X167500Y63900D02*Y63899D01*
X152899Y75302D02*Y59498D01*
X156497Y78900D02*X152899Y75302D01*
X165399Y78900D02*X156497D01*
X170000Y33900D02*Y26500D01*
Y26499D02*Y25000D01*
Y26500D02*Y26499D01*
X175399Y35001D02*Y18900D01*
X170001Y33900D02*X170000D01*
X157500Y38500D02*Y33900D01*
Y33899D01*
X162100Y33900D02*Y33899D01*
X170000Y33900D02*X162100D01*
X155399Y16699D02*Y6293D01*
X150000Y23500D02*Y18900D01*
X175399D02*X150000D01*
X175399D02*Y18899D01*
X150000Y18900D02*Y18899D01*
X155399Y6293D02*Y6292D01*
X185399Y78900D02*X175399D01*
X179851Y103251D02*X179850D01*
X178250Y100000D02*X178249D01*
X175000D02*X178249D01*
X175000D02*Y99999D01*
X178249Y100000D01*
X182100Y63900D02*X167500D01*
X187500Y76101D02*X170000D01*
X171750Y135101D02*X171749D01*
Y113250D01*
Y113249D01*
X168500Y126502D02*Y95150D01*
Y95149D01*
X175000Y113250D02*Y110000D01*
Y109999D01*
Y110000D02*Y113250D01*
Y110000D02*Y113250D01*
X175001D02*X175000D01*
X175001D01*
X175000D02*X171749D01*
X177600Y95150D02*X168500D01*
X165000Y126502D02*Y126501D01*
Y126502D02*Y126501D01*
X168500Y126502D02*X165000D01*
X171749Y135101D02*X150698D01*
X182100Y63900D02*Y33900D01*
X182101Y63900D02*X182100D01*
X185399Y78900D02*Y78899D01*
X187501Y76101D02*X187500D01*
Y68500D01*
X190000Y33900D02*Y26500D01*
X190001Y33900D02*X190000D01*
X182100D02*Y33899D01*
X190000Y33900D02*X182100D01*
X177500Y37102D02*X175399Y35001D01*
X177501Y38500D02*X177500D01*
X177501D02*X177500Y40000D01*
X177501Y37102D02*X177500D01*
X190000Y26499D02*Y25000D01*
Y26500D02*Y26499D01*
X175399Y91101D02*Y78900D01*
Y78899D01*
X175400Y91101D02*X175399D01*
X177601Y95150D02*X177600D01*
X191000Y97350D02*Y97349D01*
Y97350D02*Y97349D01*
X185401Y93302D02*X185399Y93300D01*
X180001Y86500D02*X180000D01*
X177600Y95150D02*Y86500D01*
X180000D02*Y86499D01*
Y85000D01*
X177600Y86500D02*X180000Y86499D01*
Y86500D02*X177600D01*
X185399Y93300D02*Y78900D01*
X152899Y59498D02*X148601D01*
X162100Y68500D02*Y33900D01*
X162101Y68500D02*X162100D01*
X140000Y83500D02*Y76101D01*
X145400Y91101D02*X145399D01*
Y72899D01*
X147501D02*X147500D01*
X145399D01*
X147500Y72898D02*X145399D01*
X150001Y110000D02*X150000D01*
X100001Y107900D02*X100000D01*
Y110000D02*Y107900D01*
X122900Y83500D02*X122899D01*
Y46101D01*
Y83500D02*X120000D01*
X127500Y75403D02*Y68500D01*
X107500D02*Y41500D01*
X102899Y47500D02*Y47499D01*
X122899Y46101D02*Y46100D01*
X128198Y76101D02*X127500Y75403D01*
X140000Y76101D02*X128198D01*
X145399Y91101D02*X116198D01*
X149899Y134302D02*Y110000D01*
X168501Y126502D02*X168500D01*
X165000Y130000D02*Y126502D01*
X150698Y135101D02*X149899Y134302D01*
X150000Y110000D02*X149899D01*
Y109999D01*
X150000Y110000D02*X149899Y109999D01*
X150000Y110000D02*X149899D01*
X150000D02*X150001D01*
X140001Y76101D02*X140000D01*
X135001Y46101D02*X135000D01*
Y44499D01*
X137501D02*X137500D01*
X122899Y83500D02*X120000Y85000D01*
X122899Y83500D02*X122900D01*
X137500Y44499D02*Y38500D01*
Y44499D02*X135000D01*
Y44498D01*
Y46101D02*X122899D01*
X155399Y16699D02*X105399D01*
X127400Y33900D02*X120000Y26500D01*
X157500Y33900D02*X127400D01*
X315000Y86500D02*X310000D01*
X315000D02*Y86499D01*
X330000Y85000D02*X327201Y83500D01*
Y76101D01*
X327202D02*X327201D01*
X330000Y85000D02*X327201Y83500D01*
X330000D01*
Y85000D01*
X355000Y100000D02*Y99999D01*
X334850Y100000D02*X330000D01*
X309850D02*X305000D01*
X418600Y52500D02*Y1892D01*
Y1891D01*
X403000Y19502D02*X401500D01*
X403000D02*Y16500D01*
X403001Y19502D02*X403000D01*
X401500Y22500D02*Y19502D01*
X354051Y49700D02*X354050D01*
Y59301D02*Y49700D01*
X365399Y18900D02*X320000D01*
X300000Y26500D02*Y26499D01*
X301100Y56902D02*X301101D01*
X301100D01*
X307400Y33900D02*X300000Y26500D01*
X357500Y33900D02*X307400D01*
X294600D02*Y15098D01*
Y33900D02*X292101D01*
X270000Y26500D02*Y26499D01*
X272100Y26500D01*
X270000D01*
Y26499D02*Y25000D01*
X272101Y26500D02*X272100D01*
X287500Y37102D02*X287501D01*
X272100Y26500D02*X272101D01*
X294601Y33900D02*X294600D01*
X287501Y37102D02*X287500D01*
X292101Y33900D02*Y33899D01*
X285399Y18900D02*Y18899D01*
X317501Y41500D02*X317500D01*
X320000Y23500D02*Y18900D01*
X270000Y86500D02*Y86499D01*
X277500Y83500D02*X280000D01*
X280001D01*
X270000Y86499D02*Y85000D01*
X277500Y83500D02*X280000Y85000D01*
X284850Y100000D02*X280000D01*
X297500Y53302D02*Y38500D01*
X301100Y56902D02*X297500Y53302D01*
X287501Y38500D02*X287500D01*
X287501D02*X287500Y40000D01*
X292101Y63900D02*Y33900D01*
X292102Y63900D02*X292101D01*
X272101Y48899D02*X272100D01*
X279300Y52499D02*X279299D01*
Y47500D01*
Y47499D01*
X272100Y63900D02*Y63899D01*
X237501Y38500D02*X237500Y40000D01*
X317500Y41500D02*X317501D01*
X317500Y40000D01*
X354050Y49700D02*X332899D01*
Y49699D01*
X307500Y68500D02*Y41500D01*
X300000Y26500D02*Y26499D01*
Y25000D01*
X279299Y47500D02*Y47499D01*
X254900Y56699D02*Y48899D01*
X255701Y57500D02*X254900Y56699D01*
X382100Y15098D02*X294600D01*
X254601Y96751D02*X254600D01*
X309851Y100000D02*X309850D01*
Y117550D02*Y100000D01*
X284851D02*X284850D01*
Y122051D02*Y122050D01*
X288451Y117550D02*Y117549D01*
X284850Y122050D02*Y100000D01*
Y122051D02*Y122050D01*
X315000Y130000D02*Y86500D01*
X325000Y130000D02*Y78900D01*
X330100Y118451D02*Y118450D01*
Y118451D02*Y118450D01*
X284850Y139503D02*Y122051D01*
X284851Y139503D02*X284850D01*
X288451Y141704D02*Y117550D01*
X288452Y141704D02*X288451D01*
X284850Y122051D02*Y122050D01*
X309850Y117550D02*X288451D01*
X270000Y137302D02*Y130000D01*
Y129999D01*
Y130000D02*Y129999D01*
Y130000D02*Y129999D01*
X270001Y137302D02*X270000D01*
Y129999D02*Y86500D01*
X205698Y135101D02*X204899Y134302D01*
X234600Y135101D02*X205698D01*
X204296Y137302D02*X194601Y127607D01*
X202894Y139503D02*X191000Y127609D01*
X201492Y141704D02*X179850Y120062D01*
X270000Y137302D02*X204296D01*
X284850Y139503D02*X202894D01*
X288451Y141704D02*X201492D01*
X175000Y110000D02*Y109999D01*
X165000Y130000D02*Y126502D01*
Y130000D02*Y126502D01*
X194601Y76101D02*X193698D01*
X194601Y127607D02*Y76101D01*
X220000Y130000D02*Y95150D01*
X234601Y135101D02*X234600D01*
Y76101D01*
X223802Y78899D02*X222899Y77996D01*
X210000Y130000D02*Y92949D01*
X204899Y86500D02*Y86499D01*
X210000Y92949D02*Y92948D01*
X220000Y92949D02*X210000D01*
X210001Y86500D02*X210000D01*
X204899D01*
Y134302D02*Y86500D01*
X234600Y76101D02*X233698D01*
X214600D02*X198198D01*
X214600Y78100D02*Y76101D01*
X224601Y95150D02*X224600D01*
Y79697D02*X223802Y78899D01*
X224600Y95150D02*Y79697D01*
X220000Y83500D02*X214600Y78100D01*
X192899Y75302D02*Y36100D01*
X220000Y83500D02*X220001D01*
X220000Y86500D02*Y86499D01*
X227500Y83500D02*X230000D01*
X230001D01*
X207500Y68500D02*Y41500D01*
X222899D02*Y41499D01*
Y77996D02*Y41500D01*
X197500Y36100D02*X192899D01*
X193698Y76101D02*X192899Y75302D01*
X197500Y75403D02*Y68500D01*
X198198Y76101D02*X197500Y75403D01*
X105399Y38500D02*X107500D01*
X137500Y41500D02*Y44499D01*
Y41500D02*Y44499D01*
X135000D01*
X137500Y41500D02*Y44499D01*
X197501Y36100D02*X197500D01*
X197501D01*
X230000Y26500D02*Y26499D01*
X205399Y16699D02*X155399D01*
X205399Y33400D02*Y16699D01*
X207500Y38500D02*Y35501D01*
Y38500D02*Y35501D01*
Y38500D02*Y35501D01*
X192899Y36100D02*Y36099D01*
X207501Y35501D02*X207500D01*
Y35500D01*
Y35501D02*Y35500D01*
Y35501D02*X205399Y33400D01*
X210000Y86500D02*X210001D01*
X100000Y107900D02*Y107899D01*
X165399Y78900D02*Y78899D01*
X152899Y59498D02*Y59497D01*
X147500Y72899D02*X145399D01*
X147500D02*X147501D01*
X147500D02*X145399Y72898D01*
X194602Y76101D02*X194601D01*
X234601D02*X234600D01*
X210001Y86500D02*X210000Y85000D01*
X178249Y100000D02*X175000D01*
X180000Y86500D02*Y86499D01*
Y86500D02*X177600D01*
X180000D02*X180001D01*
X120000Y83500D02*X122899D01*
X120000D02*X122899D01*
X207500Y35501D02*X207501D01*
X177500Y37102D02*X177501D01*
X190000Y26500D02*Y26499D01*
X170000Y26500D02*Y26499D01*
X137500Y44499D02*X137501D01*
X137500Y41500D02*Y44499D01*
X135000Y44498D01*
X237400Y33900D02*X230000Y26500D01*
X214601Y76101D02*X214600D01*
X222899Y41500D02*X217500D01*
X227500Y56100D02*Y41500D01*
X237501Y38500D02*X237500D01*
X232899D01*
Y38499D01*
X250000Y83500D02*X252100D01*
X250000D02*X252100D01*
X220001D02*X220000Y85000D01*
X227500Y83500D02*X230000Y85000D01*
X252100Y83500D02*X250000Y85000D01*
X247500Y56501D02*Y38500D01*
X232899Y75302D02*Y38500D01*
X233698Y76101D02*X232899Y75302D01*
X418600Y1892D02*X87098D01*
Y1891D01*
X399400Y6293D02*X155399D01*
X250000Y23500D02*Y18900D01*
X255701Y57500D02*X255702D01*
X250000Y18900D02*Y18899D01*
X254900Y48899D02*Y48898D01*
X285399Y18900D02*X250000D01*
X230000Y26500D02*Y26499D01*
Y25000D01*
X267500Y33900D02*Y33899D01*
X285399Y35001D02*Y18900D01*
X267500Y33900D02*X237400D01*
X237500Y38500D02*X237501D01*
X287500Y37102D02*X285399Y35001D01*
X294600Y15098D02*Y15097D01*
X205399Y16699D02*Y16698D01*
X272100Y48899D02*Y26500D01*
X267500Y38500D02*Y33900D01*
X270000Y26500D02*X272100D01*
X252500Y96751D02*Y96750D01*
X254600Y96751D02*X252500D01*
X210000Y85000D02*X210001Y83500D01*
X210000D01*
X252100D02*X252101D01*
X254600Y78900D02*Y78899D01*
X272100Y78900D02*X254600D01*
X252500Y100000D02*Y96751D01*
X252101Y83500D02*X252100D01*
X252500Y100000D02*Y96751D01*
Y100000D02*Y96751D01*
Y96750D01*
X252100Y83500D02*X250000D01*
X230001D02*X230000D01*
X227500D02*Y68500D01*
X230000Y83500D02*X227500D01*
X220000Y95150D02*Y95149D01*
X224600Y95150D02*X220000D01*
Y92949D02*Y86500D01*
X220001Y92949D02*X220000D01*
X220001Y83500D02*X220000D01*
Y86500D02*Y86499D01*
X254600Y96751D02*Y78900D01*
X280001Y83500D02*X280000D01*
X270000Y86500D02*Y86499D01*
X280000Y83500D02*X277500D01*
Y71500D01*
X272100Y78900D02*Y63900D01*
X272101Y78900D02*X272100D01*
X292101Y63900D02*X272100D01*
X252100Y61101D02*X247500Y56501D01*
X279299Y52499D02*X258502D01*
X272100Y48899D02*X254900D01*
X255702Y57500D02*X255701D01*
X252100Y83500D02*Y61101D01*
X252101D02*X252100D01*
G54D13*X227500Y110000D03*
X252500D03*
X280000D03*
X227500Y100000D03*
X252500D03*
X280000D03*
X305000D03*
X330000D03*
X355000D03*
G54D14*G36*
X266500Y133500D02*Y126500D01*
X273500D01*
Y133500D01*
X266500D01*
G37*
G54D15*X260000Y130000D03*
G54D14*G36*
X206500Y133500D02*Y126500D01*
X213500D01*
Y133500D01*
X206500D01*
G37*
G54D15*X220000Y130000D03*
G54D13*X305000Y110000D03*
X330000D03*
X355000D03*
X380000D03*
G54D14*G36*
X311500Y133500D02*Y126500D01*
X318500D01*
Y133500D01*
X311500D01*
G37*
G54D15*X325000Y130000D03*
G54D13*X380000Y100000D03*
G54D12*X400000Y102500D03*
G54D14*G36*
X366500Y133500D02*Y126500D01*
X373500D01*
Y133500D01*
X366500D01*
G37*
G54D15*X360000Y130000D03*
G54D12*X210000Y25000D03*
X220000D03*
X230000D03*
X240000D03*
X250000D03*
X260000D03*
X270000D03*
X370000Y85000D03*
X360000D03*
X350000D03*
X340000D03*
X330000D03*
X320000D03*
X310000D03*
X300000D03*
X290000D03*
X280000D03*
X270000D03*
X260000D03*
X250000D03*
X240000D03*
X230000D03*
X220000D03*
X210000D03*
X290000Y25000D03*
X300000D03*
X310000D03*
X320000D03*
X330000D03*
X340000D03*
X350000D03*
X360000D03*
X370000D03*
X287500Y40000D03*
X297500D03*
X277500D03*
X267500D03*
X257500D03*
X307500D03*
X247500D03*
X237500D03*
X227500D03*
X217500D03*
X207500D03*
X197500D03*
Y70000D03*
X207500D03*
X217500D03*
X227500D03*
X237500D03*
X247500D03*
X257500D03*
X387500Y40000D03*
X377500D03*
X367500D03*
X357500D03*
X347500D03*
X337500D03*
X327500D03*
X317500D03*
X267500Y70000D03*
X277500D03*
X287500D03*
X297500D03*
X307500D03*
X317500D03*
X327500D03*
X430000Y22500D03*
Y32500D03*
Y42500D03*
Y52500D03*
Y62500D03*
Y72500D03*
X400000D03*
Y62500D03*
Y52500D03*
Y42500D03*
Y32500D03*
Y22500D03*
X430000Y82500D03*
Y92500D03*
X400000D03*
Y82500D03*
X337500Y70000D03*
X347500D03*
X357500D03*
X367500D03*
X377500D03*
X387500D03*
X430000Y102500D03*
X442500D03*
X430000Y112500D03*
X400000D03*
X442500D03*
X412500D03*
Y82500D03*
Y92500D03*
X442500D03*
Y82500D03*
X412500Y102500D03*
X442500Y72500D03*
Y62500D03*
Y52500D03*
Y42500D03*
Y32500D03*
Y22500D03*
X412500D03*
Y32500D03*
Y42500D03*
Y52500D03*
Y62500D03*
Y72500D03*
X280000Y25000D03*
G54D13*X150000Y110000D03*
Y100000D03*
G54D14*G36*
X161500Y133500D02*Y126500D01*
X168500D01*
Y133500D01*
X161500D01*
G37*
G54D15*X155000Y130000D03*
G54D13*X175000Y110000D03*
Y100000D03*
X100000Y110000D03*
Y100000D03*
X125000Y110000D03*
Y100000D03*
G54D14*G36*
X106500Y133500D02*Y126500D01*
X113500D01*
Y133500D01*
X106500D01*
G37*
G54D15*X120000Y130000D03*
G54D13*X200000Y110000D03*
Y100000D03*
G54D12*X80000Y102500D03*
Y112500D03*
X50000D03*
Y102500D03*
Y92500D03*
Y82500D03*
Y72500D03*
Y62500D03*
Y52500D03*
Y42500D03*
Y32500D03*
X80000Y22500D03*
Y32500D03*
Y42500D03*
Y52500D03*
Y62500D03*
Y72500D03*
Y82500D03*
X50000Y22500D03*
X80000Y92500D03*
X187500Y40000D03*
X177500D03*
X167500D03*
X157500D03*
X147500D03*
X137500D03*
Y70000D03*
X147500D03*
X157500D03*
X167500D03*
X177500D03*
X200000Y85000D03*
X190000D03*
X180000D03*
X170000D03*
X160000D03*
X150000D03*
X140000D03*
X130000D03*
X120000D03*
X110000D03*
X127500Y40000D03*
Y70000D03*
X117500Y40000D03*
Y70000D03*
X107500Y40000D03*
X97500D03*
Y70000D03*
X107500D03*
X110000Y25000D03*
X120000D03*
X130000D03*
X187500Y70000D03*
X200000Y25000D03*
X180000D03*
X190000D03*
X140000D03*
X150000D03*
X160000D03*
X170000D03*
G54D25*X372100Y57900D03*
X346001Y114897D03*
X330100Y118451D03*
X341000Y118498D03*
X346000Y59300D03*
X418600Y123500D03*
X423602Y123499D03*
X392100Y9894D03*
X436399Y4092D03*
X399400Y15900D03*
X382100Y17095D03*
X406100Y118500D03*
X420001Y57900D03*
X452203Y91498D03*
X452201Y96500D03*
X450000Y57100D03*
X422201Y37101D03*
X414602Y16500D03*
X191000Y97350D03*
X284850Y122051D03*
X185401Y93302D03*
X70299Y104299D03*
X67897Y87900D03*
X42500Y67099D03*
X148601Y59498D03*
X102899Y47500D03*
X255701Y57500D03*
X301100Y56902D03*
X227500Y56100D03*
X258502Y52499D03*
X279299Y47500D03*
G54D12*X428500Y22500D02*X431500D01*
X428500Y32500D02*X431500D01*
X411000Y22500D02*X414000D01*
X411000Y32500D02*X414000D01*
X398500Y72500D02*X401500D01*
X398500Y62500D02*X401500D01*
X398500Y52500D02*X401500D01*
X398500Y42500D02*X401500D01*
X387500Y41500D02*Y38500D01*
X398500Y32500D02*X401500D01*
X398500Y22500D02*X401500D01*
X387500Y71500D02*Y68500D01*
X428500Y42500D02*X431500D01*
X428500Y52500D02*X431500D01*
X411000Y42500D02*X414000D01*
X411000Y52500D02*X414000D01*
X411000Y62500D02*X414000D01*
X411000Y72500D02*X414000D01*
X300000Y26500D02*Y23500D01*
X310000Y26500D02*Y23500D01*
X320000Y26500D02*Y23500D01*
X330000Y26500D02*Y23500D01*
X340000Y26500D02*Y23500D01*
X370000Y26500D02*Y23500D01*
X377500Y41500D02*Y38500D01*
X367500Y41500D02*Y38500D01*
X357500Y41500D02*Y38500D01*
X350000Y26500D02*Y23500D01*
X360000Y26500D02*Y23500D01*
X347500Y41500D02*Y38500D01*
X337500Y41500D02*Y38500D01*
X327500Y41500D02*Y38500D01*
X317500Y41500D02*Y38500D01*
X307500Y41500D02*Y38500D01*
X297500Y41500D02*Y38500D01*
X327500Y71500D02*Y68500D01*
X337500Y71500D02*Y68500D01*
X347500Y71500D02*Y68500D01*
X340000Y86500D02*Y83500D01*
X330000Y86500D02*Y83500D01*
X320000Y86500D02*Y83500D01*
X310000Y86500D02*Y83500D01*
X300000Y86500D02*Y83500D01*
X357500Y71500D02*Y68500D01*
X367500Y71500D02*Y68500D01*
X377500Y71500D02*Y68500D01*
X370000Y86500D02*Y83500D01*
X360000Y86500D02*Y83500D01*
X350000Y86500D02*Y83500D01*
X428500Y62500D02*X431500D01*
X428500Y72500D02*X431500D01*
X428500Y82500D02*X431500D01*
X428500Y92500D02*X431500D01*
X428500Y102500D02*X431500D01*
X398500Y112500D02*X401500D01*
X411000D02*X414000D01*
X398500Y102500D02*X401500D01*
X398500Y92500D02*X401500D01*
X398500Y82500D02*X401500D01*
X411000D02*X414000D01*
X411000Y92500D02*X414000D01*
X411000Y102500D02*X414000D01*
X441000Y22500D02*X444000D01*
X441000Y72500D02*X444000D01*
X441000Y62500D02*X444000D01*
X441000Y52500D02*X444000D01*
X441000Y42500D02*X444000D01*
X441000Y32500D02*X444000D01*
X428500Y112500D02*X431500D01*
X441000D02*X444000D01*
X441000Y102500D02*X444000D01*
X441000Y92500D02*X444000D01*
X441000Y82500D02*X444000D01*
X48500Y112500D02*X51500D01*
X48500Y102500D02*X51500D01*
X48500Y92500D02*X51500D01*
X48500Y82500D02*X51500D01*
X48500Y72500D02*X51500D01*
X48500Y62500D02*X51500D01*
X48500Y52500D02*X51500D01*
X48500Y42500D02*X51500D01*
X48500Y32500D02*X51500D01*
X48500Y22500D02*X51500D01*
X78500D02*X81500D01*
X78500Y32500D02*X81500D01*
X78500Y42500D02*X81500D01*
X78500Y52500D02*X81500D01*
X78500Y62500D02*X81500D01*
X78500Y72500D02*X81500D01*
X78500Y82500D02*X81500D01*
X78500Y92500D02*X81500D01*
X78500Y102500D02*X81500D01*
X78500Y112500D02*X81500D01*
X237500Y41500D02*Y38500D01*
X227500Y41500D02*Y38500D01*
X217500Y41500D02*Y38500D01*
X207500Y41500D02*Y38500D01*
X267500Y41500D02*Y38500D01*
X257500Y41500D02*Y38500D01*
X287500Y41500D02*Y38500D01*
X277500Y41500D02*Y38500D01*
X247500Y41500D02*Y38500D01*
X197500Y41500D02*Y38500D01*
Y71500D02*Y68500D01*
X207500Y71500D02*Y68500D01*
X217500Y71500D02*Y68500D01*
X227500Y71500D02*Y68500D01*
X237500Y71500D02*Y68500D01*
X247500Y71500D02*Y68500D01*
X257500Y71500D02*Y68500D01*
X267500Y71500D02*Y68500D01*
X277500Y71500D02*Y68500D01*
X287500Y71500D02*Y68500D01*
X200000Y26500D02*Y23500D01*
X210000Y26500D02*Y23500D01*
X220000Y26500D02*Y23500D01*
X230000Y26500D02*Y23500D01*
X240000Y26500D02*Y23500D01*
X250000Y26500D02*Y23500D01*
X260000Y26500D02*Y23500D01*
X270000Y26500D02*Y23500D01*
X280000Y26500D02*Y23500D01*
X290000Y26500D02*Y23500D01*
X297500Y71500D02*Y68500D01*
X307500Y71500D02*Y68500D01*
X317500Y71500D02*Y68500D01*
X280000Y86500D02*Y83500D01*
X270000Y86500D02*Y83500D01*
X260000Y86500D02*Y83500D01*
X290000Y86500D02*Y83500D01*
X250000Y86500D02*Y83500D01*
X240000Y86500D02*Y83500D01*
X230000Y86500D02*Y83500D01*
X220000Y86500D02*Y83500D01*
X210000Y86500D02*Y83500D01*
X200000Y86500D02*Y83500D01*
X190000Y86500D02*Y83500D01*
X180000Y86500D02*Y83500D01*
X170000Y86500D02*Y83500D01*
X160000Y86500D02*Y83500D01*
X150000Y86500D02*Y83500D01*
X140000Y86500D02*Y83500D01*
X130000Y86500D02*Y83500D01*
X120000Y86500D02*Y83500D01*
X110000Y86500D02*Y83500D01*
X187500Y41500D02*Y38500D01*
X177500Y41500D02*Y38500D01*
X167500Y41500D02*Y38500D01*
X157500Y41500D02*Y38500D01*
X127500Y41500D02*Y38500D01*
X117500Y41500D02*Y38500D01*
X107500Y41500D02*Y38500D01*
X110000Y26500D02*Y23500D01*
X120000Y26500D02*Y23500D01*
X97500Y41500D02*Y38500D01*
Y71500D02*Y68500D01*
X107500Y71500D02*Y68500D01*
X117500Y71500D02*Y68500D01*
X127500Y71500D02*Y68500D01*
X137500Y71500D02*Y68500D01*
X147500Y71500D02*Y68500D01*
X157500Y71500D02*Y68500D01*
X167500Y71500D02*Y68500D01*
X177500Y71500D02*Y68500D01*
X187500Y71500D02*Y68500D01*
X147500Y41500D02*Y38500D01*
X137500Y41500D02*Y38500D01*
X130000Y26500D02*Y23500D01*
X140000Y26500D02*Y23500D01*
X150000Y26500D02*Y23500D01*
X160000Y26500D02*Y23500D01*
X170000Y26500D02*Y23500D01*
X180000Y26500D02*Y23500D01*
X190000Y26500D02*Y23500D01*
G54D18*G54D19*G54D18*G54D19*G54D18*G54D17*G54D19*G54D17*G54D18*G54D19*G54D18*G54D19*G54D18*G54D17*G54D14*M02*
