G04 start of page 3 for group 5 idx 5 *
G04 Title: (unknown), bottom *
G04 Creator: pcb 20110918 *
G04 CreationDate: Fri 10 Jan 2014 09:42:05 PM GMT UTC *
G04 For: vince *
G04 Format: Gerber/RS-274X *
G04 PCB-Dimensions: 1000000 160000 *
G04 PCB-Coordinate-Origin: lower left *
%MOIN*%
%FSLAX25Y25*%
%LNBOTTOM*%
%ADD32C,0.0380*%
%ADD31C,0.1250*%
%ADD30C,0.0280*%
%ADD29C,0.0350*%
%ADD28C,0.0200*%
%ADD27C,0.0400*%
%ADD26C,0.0700*%
%ADD25C,0.0001*%
%ADD24C,0.0600*%
%ADD23C,0.0250*%
%ADD22C,0.0100*%
G54D22*X813500Y93500D02*Y62750D01*
X869500Y103000D02*X819500D01*
X869500Y109500D02*Y103000D01*
X859500Y105750D02*X858750Y105000D01*
X859500Y109500D02*Y105750D01*
X819500Y103000D02*X815500D01*
X869500D02*X819500D01*
X860250Y117000D02*X859500Y116250D01*
Y112500D01*
X815500Y103000D02*X769500Y57000D01*
X813500Y62750D02*X819250Y57000D01*
X709500Y49500D02*Y45000D01*
X749500D02*X729500D01*
X709500D01*
X769500Y57000D02*Y49500D01*
X749500D02*Y45000D01*
X729500D01*
X769500Y57000D02*Y52500D01*
X863250Y57000D02*X819250D01*
X858750Y45000D02*X749500D01*
X858750Y105000D02*X774000D01*
X759500Y105750D02*X713750Y60000D01*
X748750Y105000D02*X714000D01*
X769500Y111000D02*Y109500D01*
X774000Y105000D02*X769500Y109500D01*
X789500Y116250D02*X771250Y134500D01*
X789500Y116250D02*Y109500D01*
X775000Y117000D02*X779500Y112500D01*
X775000Y117000D02*X730250D01*
X729500Y116250D01*
X749500Y105750D02*X748750Y105000D01*
X749500Y109500D02*Y105750D01*
X729500Y116250D02*Y109500D01*
X714000D02*Y105000D01*
X719500Y116250D02*Y112500D01*
X779500D02*Y111000D01*
X919500Y56250D02*X872750Y103000D01*
X869500D01*
X919500Y49500D02*Y56250D01*
X909500Y45750D02*X908750Y45000D01*
X909500Y49500D02*Y45750D01*
X919500Y116250D02*X918750Y117000D01*
X919500Y116250D02*Y109500D01*
X864000Y56250D02*X863250Y57000D01*
X864000Y56250D02*Y45750D01*
X859500D02*X858750Y45000D01*
X859500Y49500D02*Y45750D01*
X869500Y51000D02*Y49500D01*
X874000Y45000D02*X869500Y49500D01*
X908750Y45000D02*X874000D01*
X918750Y117000D02*X860250D01*
X714000Y109500D02*Y105000D01*
Y116250D02*Y109500D01*
X709500Y116250D02*X708750Y117000D01*
X709500Y116250D02*Y109500D01*
X706250Y129500D02*X719500Y116250D01*
X623250Y81000D02*X615000Y89250D01*
X658000Y74000D02*X598000D01*
X611500Y89750D02*X607750Y86000D01*
X609250Y71500D02*X610000Y70750D01*
X615750Y103500D02*X611500Y99250D01*
X624000Y103500D02*X615750D01*
X635000Y105750D02*X644250Y96500D01*
X611500Y99250D02*Y89750D01*
X615000Y89250D02*Y96500D01*
X605000Y116250D02*Y89500D01*
X672750Y154000D02*X675000Y151750D01*
X672750Y154000D02*X664500D01*
X659500Y157500D02*X658000Y156000D01*
Y138000D01*
X675000Y151750D02*Y140000D01*
X706250Y129500D02*X600750D01*
X624000Y117000D02*X619500Y112500D01*
Y111000D01*
X663000Y113500D02*X662000Y112500D01*
X639500D01*
X708750Y117000D02*X624000D01*
X711250Y119000D02*X607750D01*
X635000Y111000D02*X629500D01*
X635000D02*Y105750D01*
X623250Y81000D02*X660750D01*
X666500Y82500D02*X658000Y74000D01*
X651500Y55000D02*X646000Y60500D01*
X625000Y55250D02*X623250Y57000D01*
X660750Y81000D02*X663000Y83250D01*
X713750Y60000D02*X680000D01*
X663000Y93500D02*Y83250D01*
X659500Y86000D02*X658000Y84500D01*
X653000Y96500D02*X644250D01*
X709000Y100000D02*X680000D01*
X709500Y45000D02*X625000D01*
X703750Y55000D02*X705000Y56250D01*
X658000Y84500D02*X626000D01*
X609500Y49500D02*Y45500D01*
X610000Y70750D02*Y67000D01*
X625000Y55250D02*Y51000D01*
X630000Y52500D02*X629500D01*
X625000Y51000D02*Y45000D01*
X630000Y52500D02*X629500Y51000D01*
X630000Y49500D01*
X629500D01*
X623250Y57000D02*X604000D01*
X759500Y109500D02*Y105750D01*
X820000Y95000D02*Y65500D01*
X670000Y100000D02*Y60000D01*
X651500Y55000D02*X703750D01*
X705750Y57000D02*X705000Y56250D01*
X769500Y57000D02*X705750D01*
X864000Y45750D02*X820250Y2000D01*
X633000Y37500D02*X618750D01*
X776000Y41000D02*X621500D01*
X607750Y119000D02*X605000Y116250D01*
X714000D02*X711250Y119000D01*
X714000Y105000D02*X709000Y100000D01*
X624500Y93000D02*X621000Y89500D01*
X658000Y93000D02*X624500D01*
X771250Y134500D02*X663000D01*
X618000Y38250D02*X618750Y37500D01*
Y44500D02*X618000Y43750D01*
X624500Y44500D02*X618750D01*
X514500Y140750D02*Y130250D01*
X550000Y140750D02*Y134000D01*
X530000Y144500D02*Y137000D01*
X536500Y102250D02*X535750Y103000D01*
X536500Y102250D02*Y74750D01*
X533250Y71500D02*X530750D01*
X536500Y74750D02*X533250Y71500D01*
X555000Y129000D02*Y95000D01*
X540000Y125500D02*Y117000D01*
Y125500D02*Y117000D01*
X530000Y130250D02*X518750Y119000D01*
X543250Y117000D02*X540000D01*
X550750Y141500D02*X550000Y140750D01*
X552000Y108250D02*X543250Y117000D01*
X552000Y108250D02*Y89500D01*
X619500Y51000D02*X614000D01*
Y5500D01*
X625000Y51000D02*Y45000D01*
X624500Y44500D01*
X618000Y43750D02*Y38250D01*
X604000Y57000D02*X599500Y52500D01*
X580000Y70750D02*Y64000D01*
X599500Y52500D02*Y51000D01*
X593250Y45000D02*X577500Y29250D01*
X594000Y60000D02*Y45750D01*
X574000D02*X545250Y17000D01*
X559500Y51000D02*Y49500D01*
X555000Y45000D01*
X567250Y57500D02*X564500D01*
X575750Y57000D02*X574000Y55250D01*
X609500Y45500D02*X581000Y17000D01*
X609250Y71500D02*X586250D01*
X596250Y79000D02*X589500Y85750D01*
X579250Y71500D02*X575750D01*
X607750Y86000D02*X595500D01*
X565000Y82250D02*X575750Y71500D01*
X575000Y129000D02*Y86000D01*
X599500Y112500D02*X594500Y117500D01*
X565000Y104000D02*X559500Y109500D01*
X565000Y104000D02*Y82250D01*
X585000Y87000D02*X598000Y74000D01*
X580000Y134000D02*X575000Y129000D01*
X560000Y134000D02*X555000Y129000D01*
X600000Y134000D02*Y130250D01*
X600750Y129500D02*X600000Y130250D01*
X594500Y140750D02*Y117500D01*
X555000Y95000D02*X555500Y94500D01*
X530000Y70750D02*Y67000D01*
X564500Y57500D02*X559500Y52500D01*
X570000Y60250D02*X567250Y57500D01*
X530750Y71500D02*X530000Y70750D01*
X559250Y59500D02*X516500D01*
X580000Y70750D02*X579250Y71500D01*
X584500Y60250D02*X581250Y57000D01*
X586250Y71500D02*X584500Y69750D01*
X352250Y143000D02*X329500Y120250D01*
X359500Y132250D02*Y109500D01*
X349500Y137000D02*Y109500D01*
X329500Y112500D02*Y111000D01*
X353500Y141000D02*X349500Y137000D01*
X329500Y120250D02*Y112500D01*
X384000Y116250D02*X364500Y135750D01*
X375000Y105500D02*X369500Y111000D01*
Y109500D01*
X365000Y105000D01*
X364500Y135750D02*X354500D01*
X245750Y144250D02*X251000Y139000D01*
X256250D02*X268500Y126750D01*
X256250Y139000D02*X251000D01*
X177000Y55000D02*X172500Y50500D01*
X94500Y64500D02*Y30500D01*
X193000Y58750D02*X189250Y55000D01*
X200000Y52500D02*X188000Y40500D01*
X229750Y115000D02*X193000Y78250D01*
X241000Y116750D02*X239250Y115000D01*
X247500Y57750D02*X240250Y50500D01*
X251000Y56750D02*X240250Y46000D01*
X254500Y50250D02*X240250Y36000D01*
X445500Y141000D02*X353500D01*
X444250Y139000D02*X406750D01*
X245750Y144250D02*X93000D01*
X179000Y123375D02*Y110500D01*
Y108750D02*X176250Y106000D01*
X179000Y135000D02*Y123375D01*
Y110500D02*Y108750D01*
X186500Y110500D02*X179000D01*
X176250Y106000D02*X124000D01*
X94000Y121000D02*X102500Y112500D01*
X305000Y110000D02*X301750D01*
X305000Y116250D02*Y110000D01*
X305750Y117000D02*X305000Y116250D01*
X318750Y117000D02*X305750D01*
X314000Y86250D02*Y37500D01*
X319500Y116250D02*X318750Y117000D01*
X319500Y116250D02*Y109500D01*
X309500D02*Y105750D01*
X310250Y105000D02*X309500Y105750D01*
X324000Y17000D02*X317500Y23500D01*
X367500Y43500D02*Y43250D01*
X358000Y96500D02*X324250D01*
X357750Y103000D02*X366000Y94750D01*
X324000Y45000D02*X319500Y49500D01*
X358750Y45000D02*X324000D01*
X366000Y94750D02*Y56000D01*
X358000Y83500D02*X317500D01*
X357750Y103000D02*X307750D01*
X365000Y105000D02*X310250D01*
X307750Y103000D02*X305000Y105750D01*
X301750Y110000D02*X280750Y89000D01*
X324250Y96500D02*X314000Y86250D01*
X384000Y116250D02*Y83500D01*
X375000Y105500D02*Y75250D01*
X425000Y96000D02*X416000Y87000D01*
X428250Y105000D02*X427000D01*
X406000Y138250D02*Y78500D01*
X414750Y105750D02*Y105000D01*
Y105750D02*Y105000D01*
Y105750D02*Y105000D01*
X427000D02*X414750D01*
X369500Y52500D02*X366000Y56000D01*
X406000Y44250D02*X393250Y57000D01*
X375000Y75250D02*X393250Y57000D01*
X391750Y19000D02*X367500Y43250D01*
X445000Y21750D02*X442250Y19000D01*
X416000Y87000D02*Y22750D01*
X414250Y21000D02*X406750D01*
X406000Y21750D02*X406750Y21000D01*
X31000Y127750D02*Y34000D01*
X33000Y124750D02*Y35250D01*
X37750Y75000D02*X37000Y74250D01*
X37750Y79500D02*X35000Y76750D01*
X39250Y131000D02*X33000Y124750D01*
X67750Y85000D02*X67000Y84250D01*
X74500Y85000D02*X67750D01*
X67000Y84250D02*Y77750D01*
X62250Y60500D02*X58500D01*
X79000Y55750D02*X78250Y55000D01*
X84750Y65500D02*X79000Y59750D01*
X58500Y100500D02*X57000D01*
X62250Y110500D02*X58500D01*
X48250Y115000D02*X44500D01*
X48250Y79500D02*X37750D01*
X78250Y95000D02*X79000Y94250D01*
X78250Y95000D02*X74500D01*
X80875Y115000D02*X74500D01*
X87250D02*X80875D01*
X79000Y101250D02*X78250Y100500D01*
X82750Y105000D02*X79000Y101250D01*
X37750Y134500D02*X31000Y127750D01*
X44000Y133750D02*Y125000D01*
X106000Y20500D02*X98250D01*
X90250Y65500D02*X91000Y64750D01*
X90250Y65500D02*X84750D01*
X79000Y59750D02*Y55750D01*
X78250Y55000D02*X74500D01*
X78250Y45000D02*X79000Y44250D01*
X78250Y45000D02*X74500D01*
X91000Y64750D02*Y27750D01*
X98250Y20500D02*X91000Y27750D01*
X125500Y18500D02*X116500Y9500D01*
X83500D01*
X103250Y11500D02*X84750D01*
X88500Y70500D02*X94500Y64500D01*
X102750Y66000D02*X101000Y64250D01*
X122500Y66000D02*X111750D01*
X122500Y70500D02*Y66000D01*
X105500Y80500D02*X92750D01*
X108500Y90500D02*X113000Y86000D01*
X90500Y111750D02*X87250Y115000D01*
X93750Y153500D02*X83750Y143500D01*
X115000Y23250D02*X103250Y11500D01*
X93000Y144250D02*X87250Y138500D01*
X44500Y27000D02*X38000D01*
X36000Y3000D02*X51250D01*
X64250Y16000D01*
X65500Y30500D02*X44000Y9000D01*
X30500D01*
X87500Y62000D02*Y15000D01*
X71250Y49500D02*X61500D01*
X58500D01*
X64250Y16000D02*Y15250D01*
X62000Y33250D02*X59250Y30500D01*
X63750Y35000D02*X62000Y33250D01*
X71500Y35000D02*X63750D01*
X81000Y46750D02*Y15250D01*
X84750Y11500D02*X81000Y15250D01*
X83500Y9500D02*X79000Y14000D01*
X59250Y30500D02*X37750D01*
X79000Y44250D02*Y14000D01*
X88500Y70500D02*X67000D01*
Y77750D02*Y70500D01*
Y65250D02*X62250Y60500D01*
X67000Y77750D02*Y70500D01*
Y65250D01*
X58500Y49500D02*X38750D01*
X49000Y65750D02*X48250Y65000D01*
X37000Y51250D02*X38750Y49500D01*
X35000Y76750D02*Y43250D01*
X37750Y40500D02*X35000Y43250D01*
X37000Y74250D02*Y51250D01*
X33000Y35250D02*X37750Y30500D01*
X31000Y34000D02*X38000Y27000D01*
X43250Y134500D02*X44000Y133750D01*
X43250Y134500D02*X37750D01*
X40500Y131000D02*X39250D01*
X49500Y139000D02*Y116250D01*
X67000Y135000D02*Y115250D01*
X87250Y138500D02*Y115000D01*
X94000Y139000D02*Y121000D01*
X87250Y115000D02*X80875D01*
X49500Y116250D02*X48250Y115000D01*
X67000Y115250D02*X62250Y110500D01*
X83750Y143500D02*Y121500D01*
X90500Y111750D02*Y109500D01*
X108500Y112500D02*X102500D01*
X108500D02*Y110500D01*
X122500D02*Y107500D01*
X119500Y100500D02*X115750D01*
X78250D02*X58500D01*
X183500D02*X179000Y96000D01*
X127000D01*
X112250Y105000D02*X113000Y104250D01*
X112250Y105000D02*X82750D01*
X183500Y40500D02*X179000Y36000D01*
X143500D01*
X139000Y40500D02*X143500Y36000D01*
X122500Y40500D02*X139000D01*
X200000Y79750D02*Y52500D01*
X188000Y40500D02*X186500D01*
X71250Y49500D02*X61500D01*
X78250D02*X81000Y46750D01*
X78250Y49500D02*X71250D01*
X115750Y50500D02*X115000Y49750D01*
X122500Y50500D02*X115750D01*
X44500Y75000D02*X37750D01*
X49000Y78750D02*X48250Y79500D01*
X49000Y78750D02*Y65750D01*
X48250Y65000D02*X44500D01*
X61500Y49500D02*X58500D01*
Y50500D02*Y49500D01*
X55500Y40500D02*X37750D01*
X64500Y55000D02*X44500D01*
X58500Y49500D02*Y50500D01*
X57000D01*
X193000Y78250D02*Y58750D01*
X183500Y80500D02*X179000Y76000D01*
X190250Y80500D02*X186500D01*
Y70500D02*Y66000D01*
X247500Y104000D02*Y57750D01*
X240250Y50500D02*X236500D01*
X241000Y140750D02*Y116750D01*
X239250Y115000D02*X229750D01*
X202000Y46750D02*X173750Y18500D01*
X191000Y139750D02*Y81250D01*
X196500Y52250D02*X190250Y46000D01*
X196500Y60500D02*Y52250D01*
X172500Y90500D02*Y86000D01*
X173750Y18500D02*X125500D01*
X115000Y34000D02*Y23250D01*
X133000Y34000D02*X140000Y27000D01*
X133000Y34000D02*X115000D01*
X179000Y76000D02*X127000D01*
X165000Y46750D02*X151250Y60500D01*
X172500Y86000D02*X113000D01*
X186500Y66000D02*X122500D01*
X119500Y80500D02*X114000Y75000D01*
X74500D01*
X115000Y42250D02*Y34000D01*
X92750Y80500D02*X79000Y94250D01*
X240250Y36000D02*X226250D01*
X240250Y46000D02*X229750D01*
X214750Y54000D02*X215500Y53250D01*
X214750Y54000D02*X209250D01*
X202000Y46750D01*
X215500Y53250D02*Y46750D01*
X226250Y36000D02*X215500Y46750D01*
X254500Y134500D02*Y50250D01*
X251000Y139000D02*Y56750D01*
X229750Y90500D02*X229000Y89750D01*
X236500Y90500D02*X229750D01*
X242500Y109000D02*Y108250D01*
X239250Y105000D01*
X227000Y100500D02*Y41500D01*
X239250Y105000D02*X225250D01*
X200000Y79750D01*
X229000Y89750D02*Y46750D01*
X229750Y46000D02*X229000Y46750D01*
X268500Y126750D02*Y38000D01*
X111750Y66000D02*X102750D01*
X122500D02*X111750D01*
X115000Y49750D02*Y42250D01*
X151250Y60500D02*X122500D01*
X127000Y96000D02*X122500Y100500D01*
X113000Y104250D02*Y103250D01*
X115750Y100500D02*X113000Y103250D01*
X124000Y106000D02*X122500Y107500D01*
X127000Y76000D02*X122500Y80500D01*
X101000Y64250D02*Y30500D01*
X190250Y46000D02*X165750D01*
X191000Y81250D02*X190250Y80500D01*
X165000Y46750D02*X165750Y46000D01*
G54D23*X410500Y134500D02*Y25500D01*
G54D22*X430500Y134500D02*Y25500D01*
X440500Y134500D02*Y25500D01*
X442250Y19000D02*X391750D01*
X406000Y44250D02*Y21750D01*
X406750Y139000D02*X406000Y138250D01*
X416000Y22750D02*X414250Y21000D01*
X473250Y117000D02*X474000Y116250D01*
X473250Y117000D02*X465750D01*
X464000Y115250D02*Y105750D01*
X461750Y103500D02*X458500D01*
X464000Y105750D02*X461750Y103500D01*
X465750Y117000D02*X464000Y115250D01*
X445000Y89000D02*Y21750D01*
X455000Y128250D02*X444250Y139000D01*
X455000Y128250D02*Y92500D01*
Y45750D01*
X455750Y45000D02*X455000Y45750D01*
X459500Y56250D02*Y49500D01*
X466000Y92500D02*X455000D01*
X460250Y57000D02*X459500Y56250D01*
X446500Y111000D02*X444000Y108500D01*
X474000Y116250D02*Y86750D01*
X514500Y140750D02*X512250Y143000D01*
X593750Y141500D02*X594500Y140750D01*
X593750Y141500D02*X550750D01*
X510000Y134000D02*Y130250D01*
X540000Y134000D02*Y125500D01*
X530000Y134000D02*Y130250D01*
X585000Y122500D02*Y87000D01*
X569500Y111000D02*Y109500D01*
X535500Y150000D02*X530000Y144500D01*
X540000Y117000D02*X510250D01*
X510000Y130250D02*X509250Y129500D01*
X509500Y116250D02*Y109500D01*
X518750Y119000D02*X502250D01*
X499500Y116250D02*Y109500D01*
X533000Y99500D02*X483000D01*
X502250Y119000D02*X499500Y116250D01*
X510250Y117000D02*X509500Y116250D01*
X514500Y130250D02*X505250Y121000D01*
X535750Y103000D02*X482250D01*
X533000Y93000D02*X479500D01*
X584500Y69750D02*Y60250D01*
X581250Y57000D02*X575750D01*
X574000Y55250D02*Y45750D01*
X577500Y76000D02*X569500Y84000D01*
X594000Y45750D02*X593250Y45000D01*
X590000Y64000D02*X594000Y60000D01*
X563000Y41500D02*X519500D01*
X499500Y56250D02*Y52500D01*
X480000Y77500D02*X533000D01*
X446500Y123500D02*Y111000D01*
X509250Y129500D02*X457000D01*
X484250Y121000D02*X479500Y116250D01*
X445500Y141000D02*X457000Y129500D01*
X479500Y105750D02*X482250Y103000D01*
X469500Y88000D02*X480000Y77500D01*
X474750Y86000D02*X474000Y86750D01*
X469500Y88000D02*Y109500D01*
X479500Y91000D02*X477500Y89500D01*
Y90000D02*X479500D01*
X477500D02*X479500D01*
X477500D01*
X479500Y91000D02*Y90000D01*
X477500Y89500D02*Y90000D01*
Y89500D02*Y90000D01*
Y89500D02*Y90000D01*
X479500Y93000D02*Y91000D01*
X477500D02*X479500D01*
X477500Y90000D02*Y89500D01*
Y90000D02*Y91000D01*
X189250Y55000D02*X177000D01*
X212000Y30500D02*Y50500D01*
X102500Y112500D02*X104500Y110500D01*
X105500D01*
X108500Y112500D02*Y110500D01*
X428250Y105000D02*X427000D01*
X424750Y120000D02*X414750D01*
X395500Y118500D02*Y98000D01*
X572000Y153500D02*X93750D01*
X569500Y109500D02*Y84000D01*
X512250Y143000D02*X352250D01*
X319500Y51000D02*Y49500D01*
X359500Y45750D02*X358750Y45000D01*
X359500Y49500D02*Y45750D01*
X280750Y89000D02*Y30500D01*
X188000Y40500D02*X186500D01*
X185000D01*
X115000Y42250D02*Y34000D01*
X280750Y30500D02*X212000D01*
X108500Y110500D02*X107000D01*
X122500Y107500D02*Y110500D01*
X121000D01*
X305000Y110000D02*Y105750D01*
X179000Y123375D02*Y110500D01*
X479500Y109500D02*Y105750D01*
X505250Y121000D02*X484250D01*
X479500Y116250D02*Y109500D01*
X489500D02*Y105750D01*
X533000Y86000D02*X474750D01*
X490250Y105000D02*X489500Y105750D01*
X535000Y105000D02*X490250D01*
X820250Y2000D02*X151500D01*
X270000Y27000D02*Y17000D01*
X545250D02*X324000D01*
X280750Y30500D02*X297250Y14000D01*
X577500Y29250D02*X562250Y14000D01*
X151500Y2000D02*X138500Y15000D01*
X562250Y14000D02*X297250D01*
X570000Y64000D02*Y60250D01*
X516500Y59500D02*X509500Y52500D01*
X560000Y60250D02*X559250Y59500D01*
X560000Y64000D02*Y60250D01*
X539500Y111000D02*Y109500D01*
X535000Y105000D01*
X540000Y109000D02*X539500Y109500D01*
X540000Y109000D02*Y64000D01*
X572000Y153500D02*X576500Y149000D01*
X654500D02*X576500D01*
X670000Y150500D02*Y138000D01*
Y107000D02*X669500Y106500D01*
X645500D01*
X641500Y79000D02*X643000Y77500D01*
X630000Y64000D02*Y52500D01*
X641500Y79000D02*X596250D01*
X589500Y85750D02*Y109500D01*
X498750Y57000D02*X460250D01*
X479500Y45750D02*X478750Y45000D01*
X479500Y49500D02*Y45750D01*
X478750Y45000D02*X455750D01*
X509500Y52500D02*Y51000D01*
X498750Y57000D02*X499500Y56250D01*
Y49500D02*Y45750D01*
X500250Y45000D02*X499500Y45750D01*
X555000Y45000D02*X500250D01*
G54D24*X121000Y120500D03*
Y110500D03*
Y100500D03*
Y90500D03*
Y80500D03*
Y70500D03*
Y60500D03*
X171000D03*
X121000Y50500D03*
X171000D03*
X121000Y40500D03*
X171000D03*
Y70500D03*
Y80500D03*
Y90500D03*
Y100500D03*
Y110500D03*
Y120500D03*
X185000D03*
Y110500D03*
Y100500D03*
Y90500D03*
Y80500D03*
Y70500D03*
Y60500D03*
Y50500D03*
Y40500D03*
X235000Y110500D03*
Y120500D03*
X57000D03*
X107000D03*
G54D25*G36*
X826500Y69000D02*Y62000D01*
X833500D01*
Y69000D01*
X826500D01*
G37*
G54D26*X820000Y65500D03*
G54D24*X859500Y51000D03*
X869500D03*
X879500D03*
X889500D03*
X899500D03*
X909500D03*
X919500D03*
X929500D03*
X939500D03*
Y111000D03*
X929500D03*
X919500D03*
X909500D03*
X899500D03*
X889500D03*
X879500D03*
X869500D03*
X859500D03*
X709500Y51000D03*
X719500D03*
X729500D03*
X739500D03*
X749500D03*
X759500D03*
X769500D03*
X779500D03*
X789500D03*
G54D25*G36*
X676500Y63500D02*Y56500D01*
X683500D01*
Y63500D01*
X676500D01*
G37*
G54D26*X670000Y60000D03*
G54D24*X789500Y111000D03*
G54D25*G36*
X826500Y98500D02*Y91500D01*
X833500D01*
Y98500D01*
X826500D01*
G37*
G54D26*X820000Y95000D03*
G54D24*X779500Y111000D03*
X769500D03*
X759500D03*
X749500D03*
X739500D03*
X729500D03*
X719500D03*
X709500D03*
G54D25*G36*
X676500Y103500D02*Y96500D01*
X683500D01*
Y103500D01*
X676500D01*
G37*
G54D26*X670000Y100000D03*
G54D24*X309500Y51000D03*
X319500D03*
X329500D03*
X339500D03*
X349500D03*
X359500D03*
X369500D03*
X379500D03*
X389500D03*
G54D25*G36*
X407500Y28500D02*Y22500D01*
X413500D01*
Y28500D01*
X407500D01*
G37*
G54D24*X420500Y25500D03*
X430500D03*
X440500D03*
X235000Y40500D03*
Y50500D03*
Y60500D03*
Y70500D03*
Y80500D03*
Y90500D03*
Y100500D03*
X389500Y111000D03*
X379500D03*
X369500D03*
X359500D03*
X349500D03*
X339500D03*
X329500D03*
X319500D03*
X309500D03*
X57000Y110500D03*
Y100500D03*
Y90500D03*
Y80500D03*
Y70500D03*
Y60500D03*
Y50500D03*
Y40500D03*
X43000Y35000D03*
Y45000D03*
Y55000D03*
Y65000D03*
Y75000D03*
Y85000D03*
Y95000D03*
Y105000D03*
Y115000D03*
Y125000D03*
X107000Y40500D03*
Y50500D03*
Y60500D03*
Y70500D03*
Y80500D03*
Y90500D03*
Y100500D03*
Y110500D03*
X73000Y125000D03*
Y115000D03*
Y105000D03*
Y95000D03*
Y85000D03*
Y75000D03*
Y65000D03*
Y55000D03*
Y45000D03*
Y35000D03*
G54D25*G36*
X407500Y137500D02*Y131500D01*
X413500D01*
Y137500D01*
X407500D01*
G37*
G54D24*X420500Y134500D03*
X430500D03*
X440500D03*
X500000Y135500D03*
X510000D03*
X520000D03*
X530000D03*
X540000D03*
X550000D03*
X560000D03*
X570000D03*
X580000D03*
X590000D03*
X600000D03*
X610000D03*
X620000D03*
X630000D03*
X639500Y111000D03*
X629500D03*
X619500D03*
X630000Y65500D03*
X620000D03*
X610000D03*
X600000D03*
X590000D03*
X580000D03*
X570000D03*
X569500Y51000D03*
X579500D03*
X560000Y65500D03*
X559500Y51000D03*
X589500D03*
X599500D03*
X609500D03*
X619500D03*
X629500D03*
X639500D03*
X550000Y65500D03*
X540000D03*
X530000D03*
X520000D03*
X510000D03*
X500000D03*
X459500Y51000D03*
X469500D03*
X479500D03*
X489500D03*
X499500D03*
X509500D03*
X519500D03*
X529500D03*
X539500D03*
X609500Y111000D03*
X599500D03*
X589500D03*
X579500D03*
X569500D03*
X559500D03*
X539500D03*
X529500D03*
X519500D03*
X509500D03*
X499500D03*
X489500D03*
X479500D03*
X469500D03*
X459500D03*
X119500Y60500D02*X122500D01*
X119500Y50500D02*X122500D01*
X119500Y40500D02*X122500D01*
X105500D02*X108500D01*
X105500Y50500D02*X108500D01*
X119500Y100500D02*X122500D01*
X119500Y90500D02*X122500D01*
X119500Y120500D02*X122500D01*
X119500Y110500D02*X122500D01*
X119500Y80500D02*X122500D01*
X119500Y70500D02*X122500D01*
X105500Y60500D02*X108500D01*
X105500Y70500D02*X108500D01*
X105500Y80500D02*X108500D01*
X105500Y90500D02*X108500D01*
X105500Y100500D02*X108500D01*
X105500Y110500D02*X108500D01*
X105500Y120500D02*X108500D01*
X309500Y52500D02*Y49500D01*
X319500Y52500D02*Y49500D01*
X329500Y52500D02*Y49500D01*
X339500Y52500D02*Y49500D01*
X349500Y52500D02*Y49500D01*
X359500Y52500D02*Y49500D01*
X369500Y52500D02*Y49500D01*
X379500Y52500D02*Y49500D01*
X389500Y52500D02*Y49500D01*
Y112500D02*Y109500D01*
X379500Y112500D02*Y109500D01*
X369500Y112500D02*Y109500D01*
X359500Y112500D02*Y109500D01*
X349500Y112500D02*Y109500D01*
X339500Y112500D02*Y109500D01*
X329500Y112500D02*Y109500D01*
X319500Y112500D02*Y109500D01*
X309500Y112500D02*Y109500D01*
X169500Y40500D02*X172500D01*
X169500Y50500D02*X172500D01*
X169500Y60500D02*X172500D01*
X169500Y90500D02*X172500D01*
X169500Y100500D02*X172500D01*
X169500Y110500D02*X172500D01*
X183500D02*X186500D01*
X169500Y120500D02*X172500D01*
X183500D02*X186500D01*
X183500Y100500D02*X186500D01*
X183500Y90500D02*X186500D01*
X169500Y70500D02*X172500D01*
X169500Y80500D02*X172500D01*
X183500D02*X186500D01*
X183500Y70500D02*X186500D01*
X183500Y60500D02*X186500D01*
X183500Y50500D02*X186500D01*
X183500Y40500D02*X186500D01*
X233500D02*X236500D01*
X233500Y50500D02*X236500D01*
X233500Y60500D02*X236500D01*
X233500Y70500D02*X236500D01*
X233500Y80500D02*X236500D01*
X233500Y90500D02*X236500D01*
X233500Y100500D02*X236500D01*
X233500Y110500D02*X236500D01*
X233500Y120500D02*X236500D01*
X55500D02*X58500D01*
X55500Y110500D02*X58500D01*
X71500Y125000D02*X74500D01*
X71500Y115000D02*X74500D01*
X55500Y80500D02*X58500D01*
X55500Y70500D02*X58500D01*
X55500Y60500D02*X58500D01*
X55500Y50500D02*X58500D01*
X55500Y40500D02*X58500D01*
X41500Y35000D02*X44500D01*
X41500Y45000D02*X44500D01*
X41500Y55000D02*X44500D01*
X41500Y65000D02*X44500D01*
X41500Y75000D02*X44500D01*
X41500Y85000D02*X44500D01*
X41500Y95000D02*X44500D01*
X41500Y105000D02*X44500D01*
X41500Y115000D02*X44500D01*
X41500Y125000D02*X44500D01*
X55500Y100500D02*X58500D01*
X55500Y90500D02*X58500D01*
X71500Y105000D02*X74500D01*
X71500Y95000D02*X74500D01*
X71500Y85000D02*X74500D01*
X71500Y75000D02*X74500D01*
X71500Y65000D02*X74500D01*
X71500Y55000D02*X74500D01*
X71500Y45000D02*X74500D01*
X71500Y35000D02*X74500D01*
X859500Y52500D02*Y49500D01*
X869500Y52500D02*Y49500D01*
X879500Y52500D02*Y49500D01*
X889500Y52500D02*Y49500D01*
X899500Y52500D02*Y49500D01*
X909500Y52500D02*Y49500D01*
X919500Y52500D02*Y49500D01*
X929500Y52500D02*Y49500D01*
X939500Y52500D02*Y49500D01*
Y112500D02*Y109500D01*
X929500Y112500D02*Y109500D01*
X919500Y112500D02*Y109500D01*
X909500Y112500D02*Y109500D01*
X899500Y112500D02*Y109500D01*
X889500Y112500D02*Y109500D01*
X879500Y112500D02*Y109500D01*
X869500Y112500D02*Y109500D01*
X709500Y52500D02*Y49500D01*
X719500Y52500D02*Y49500D01*
X729500Y52500D02*Y49500D01*
X739500Y52500D02*Y49500D01*
X749500Y52500D02*Y49500D01*
X759500Y52500D02*Y49500D01*
X769500Y52500D02*Y49500D01*
X779500Y52500D02*Y49500D01*
X789500Y52500D02*Y49500D01*
X859500Y112500D02*Y109500D01*
X789500Y112500D02*Y109500D01*
X779500Y112500D02*Y109500D01*
X769500Y112500D02*Y109500D01*
X759500Y112500D02*Y109500D01*
X749500Y112500D02*Y109500D01*
X739500Y112500D02*Y109500D01*
X729500Y112500D02*Y109500D01*
X719500Y112500D02*Y109500D01*
X709500Y112500D02*Y109500D01*
X500000Y137000D02*Y134000D01*
X510000Y137000D02*Y134000D01*
X520000Y137000D02*Y134000D01*
X530000Y137000D02*Y134000D01*
X540000Y67000D02*Y64000D01*
X530000Y67000D02*Y64000D01*
X520000Y67000D02*Y64000D01*
X500000Y67000D02*Y64000D01*
X459500Y52500D02*Y49500D01*
X469500Y52500D02*Y49500D01*
X479500Y52500D02*Y49500D01*
X489500Y52500D02*Y49500D01*
X499500Y52500D02*Y49500D01*
X510000Y67000D02*Y64000D01*
X509500Y52500D02*Y49500D01*
X519500Y52500D02*Y49500D01*
X529500Y52500D02*Y49500D01*
X539500Y52500D02*Y49500D01*
Y112500D02*Y109500D01*
X529500Y112500D02*Y109500D01*
X519500Y112500D02*Y109500D01*
X509500Y112500D02*Y109500D01*
X499500Y112500D02*Y109500D01*
X489500Y112500D02*Y109500D01*
X479500Y112500D02*Y109500D01*
X469500Y112500D02*Y109500D01*
X459500Y112500D02*Y109500D01*
X540000Y137000D02*Y134000D01*
X550000Y137000D02*Y134000D01*
X560000Y137000D02*Y134000D01*
X570000Y137000D02*Y134000D01*
X580000Y137000D02*Y134000D01*
X590000Y137000D02*Y134000D01*
X600000Y137000D02*Y134000D01*
X610000Y137000D02*Y134000D01*
X620000Y137000D02*Y134000D01*
X630000Y137000D02*Y134000D01*
Y67000D02*Y64000D01*
X620000Y67000D02*Y64000D01*
X610000Y67000D02*Y64000D01*
X600000Y67000D02*Y64000D01*
X590000Y67000D02*Y64000D01*
X580000Y67000D02*Y64000D01*
X570000Y67000D02*Y64000D01*
X560000Y67000D02*Y64000D01*
X550000Y67000D02*Y64000D01*
X559500Y52500D02*Y49500D01*
X569500Y52500D02*Y49500D01*
X579500Y52500D02*Y49500D01*
X589500Y52500D02*Y49500D01*
X599500Y52500D02*Y49500D01*
X609500Y52500D02*Y49500D01*
X619500Y52500D02*Y49500D01*
X629500Y52500D02*Y49500D01*
X639500Y52500D02*Y49500D01*
Y112500D02*Y109500D01*
X629500Y112500D02*Y109500D01*
X619500Y112500D02*Y109500D01*
X609500Y112500D02*Y109500D01*
X599500Y112500D02*Y109500D01*
X589500Y112500D02*Y109500D01*
X579500Y112500D02*Y109500D01*
X569500Y112500D02*Y109500D01*
X559500Y112500D02*Y109500D01*
G54D27*X44500Y27000D03*
X65500Y30500D03*
X40500Y131000D03*
X49500Y139000D03*
X67000Y135000D03*
X64500Y55000D03*
X64250Y16000D03*
X36000Y3000D03*
X30500Y9000D03*
X458500Y103500D03*
X445000Y89000D03*
X446500Y123500D03*
X444000Y108500D03*
X427000Y105000D03*
X424750Y120000D03*
X414750D03*
X425000Y96000D03*
X414750Y105750D03*
X317500Y23500D03*
X519500Y41500D03*
X477500Y89500D03*
X483000Y99500D03*
X466000Y92500D03*
X406000Y78500D03*
X247500Y104000D03*
X241000Y140750D03*
X227000Y100500D03*
X242500Y109000D03*
X254500Y134500D03*
X270000Y17000D03*
Y27000D03*
X268500Y38000D03*
X191000Y139750D03*
X179000Y135000D03*
X196500Y60500D03*
X227000Y41500D03*
X212000Y50500D03*
Y30500D03*
X138500Y15000D03*
X140000Y27000D03*
X90500Y109500D03*
X94000Y139000D03*
X87500Y15000D03*
Y62000D03*
X106000Y20500D03*
X94500Y30500D03*
X101000D03*
X83750Y121500D03*
X367500Y43500D03*
X358000Y96500D03*
X314000Y37500D03*
X358000Y83500D03*
X317500D03*
X354500Y135750D03*
X384000Y83500D03*
X395500Y118500D03*
Y98000D03*
X359500Y132250D03*
X575000Y86000D03*
X555500Y94500D03*
X585000Y122500D03*
X533000Y86000D03*
X552000Y89500D03*
X535500Y150000D03*
X533000Y99500D03*
Y93000D03*
X595500Y86000D03*
X533000Y77500D03*
X615000Y96500D03*
X605000Y89500D03*
X626000Y84500D03*
X621000Y89500D03*
X666500Y82500D03*
X659500Y86000D03*
X658000Y93000D03*
X646000Y60500D03*
X653000Y96500D03*
X645500Y106500D03*
X643000Y77500D03*
X624000Y103500D03*
X614000Y5500D03*
X633000Y37500D03*
X581000Y17000D03*
X621500Y41000D03*
X563000Y41500D03*
X577500Y76000D03*
X663000Y93500D03*
X813500D03*
X675000Y140000D03*
X658000Y138000D03*
X670000Y150500D03*
Y138000D03*
X664500Y154000D03*
X663000Y113500D03*
Y134500D03*
X659500Y157500D03*
X654500Y149000D03*
X670000Y107000D03*
X776000Y41000D03*
G54D28*G54D29*G54D30*G54D29*G54D31*G54D29*G54D31*G54D29*G54D30*G54D29*G54D30*G54D29*G54D30*G54D29*G54D32*G54D29*G54D31*G54D29*G54D31*G54D29*G54D32*G54D29*M02*
