G04 start of page 12 for group -3984 idx -3984 *
G04 Title: (unknown), fab *
G04 Creator: pcb 20110918 *
G04 CreationDate: Fri 10 Jan 2014 09:42:05 PM GMT UTC *
G04 For: vince *
G04 Format: Gerber/RS-274X *
G04 PCB-Dimensions: 1000000 160000 *
G04 PCB-Coordinate-Origin: lower left *
%MOIN*%
%FSLAX25Y25*%
%LNFAB*%
%ADD56C,0.0100*%
%ADD55C,0.0075*%
%ADD54C,0.0060*%
%ADD53C,0.0080*%
G54D53*X982400Y17600D02*X985600D01*
X982400D02*Y14400D01*
X985600D01*
Y17600D02*Y14400D01*
X982400Y145600D02*X985600D01*
X982400D02*Y142400D01*
X985600D01*
Y145600D02*Y142400D01*
X14400Y145600D02*X17600D01*
X14400D02*Y142400D01*
X17600D01*
Y145600D02*Y142400D01*
X14400Y17600D02*X17600D01*
X14400D02*Y14400D01*
X17600D01*
Y17600D02*Y14400D01*
X13400Y172850D02*X16600D01*
X13400D02*Y169650D01*
X16600D01*
Y172850D02*Y169650D01*
G54D54*X140000Y173500D02*Y167500D01*
Y173500D02*X143750Y167500D01*
Y173500D02*Y167500D01*
X145550Y172750D02*Y168250D01*
Y172750D02*X146300Y173500D01*
X147800D01*
X148550Y172750D01*
Y168250D01*
X147800Y167500D02*X148550Y168250D01*
X146300Y167500D02*X147800D01*
X145550Y168250D02*X146300Y167500D01*
X98000Y169750D02*X101000Y173500D01*
X98000Y169750D02*X101750D01*
X101000Y173500D02*Y167500D01*
X45000Y168250D02*X45750Y167500D01*
X45000Y172750D02*Y168250D01*
Y172750D02*X45750Y173500D01*
X47250D01*
X48000Y172750D01*
Y168250D01*
X47250Y167500D02*X48000Y168250D01*
X45750Y167500D02*X47250D01*
X45000Y169000D02*X48000Y172000D01*
X49800Y167500D02*X50550D01*
X52350Y172300D02*X53550Y173500D01*
Y167500D01*
X52350D02*X54600D01*
X56400Y172750D02*X57150Y173500D01*
X59400D01*
X60150Y172750D01*
Y171250D01*
X56400Y167500D02*X60150Y171250D01*
X56400Y167500D02*X60150D01*
X61950Y173500D02*X64950D01*
X61950D02*Y170500D01*
X62700Y171250D01*
X64200D01*
X64950Y170500D01*
Y168250D01*
X64200Y167500D02*X64950Y168250D01*
X62700Y167500D02*X64200D01*
X61950Y168250D02*X62700Y167500D01*
X409700Y134500D02*G75*G03X411300Y134500I800J0D01*G01*
G75*G03X409700Y134500I-800J0D01*G01*
X419700D02*G75*G03X421300Y134500I800J0D01*G01*
G75*G03X419700Y134500I-800J0D01*G01*
X429700D02*G75*G03X431300Y134500I800J0D01*G01*
G75*G03X429700Y134500I-800J0D01*G01*
X439700D02*G75*G03X441300Y134500I800J0D01*G01*
G75*G03X439700Y134500I-800J0D01*G01*
X409700Y25500D02*G75*G03X411300Y25500I800J0D01*G01*
G75*G03X409700Y25500I-800J0D01*G01*
X419700D02*G75*G03X421300Y25500I800J0D01*G01*
G75*G03X419700Y25500I-800J0D01*G01*
X429700D02*G75*G03X431300Y25500I800J0D01*G01*
G75*G03X429700Y25500I-800J0D01*G01*
X439700D02*G75*G03X441300Y25500I800J0D01*G01*
G75*G03X439700Y25500I-800J0D01*G01*
X14200Y186250D02*G75*G03X15800Y186250I800J0D01*G01*
G75*G03X14200Y186250I-800J0D01*G01*
X135000Y188500D02*X136500Y185500D01*
X138000Y188500D01*
X136500Y185500D02*Y182500D01*
X139800Y185800D02*X142050D01*
X139800Y182500D02*X142800D01*
X139800Y188500D02*Y182500D01*
Y188500D02*X142800D01*
X147600D02*X148350Y187750D01*
X145350Y188500D02*X147600D01*
X144600Y187750D02*X145350Y188500D01*
X144600Y187750D02*Y186250D01*
X145350Y185500D01*
X147600D01*
X148350Y184750D01*
Y183250D01*
X147600Y182500D02*X148350Y183250D01*
X145350Y182500D02*X147600D01*
X144600Y183250D02*X145350Y182500D01*
X98000Y183250D02*X98750Y182500D01*
X98000Y184450D02*Y183250D01*
Y184450D02*X99050Y185500D01*
X99950D01*
X101000Y184450D01*
Y183250D01*
X100250Y182500D02*X101000Y183250D01*
X98750Y182500D02*X100250D01*
X98000Y186550D02*X99050Y185500D01*
X98000Y187750D02*Y186550D01*
Y187750D02*X98750Y188500D01*
X100250D01*
X101000Y187750D01*
Y186550D01*
X99950Y185500D02*X101000Y186550D01*
X45000Y183250D02*X45750Y182500D01*
X45000Y187750D02*Y183250D01*
Y187750D02*X45750Y188500D01*
X47250D01*
X48000Y187750D01*
Y183250D01*
X47250Y182500D02*X48000Y183250D01*
X45750Y182500D02*X47250D01*
X45000Y184000D02*X48000Y187000D01*
X49800Y182500D02*X50550D01*
X52350Y183250D02*X53100Y182500D01*
X52350Y187750D02*Y183250D01*
Y187750D02*X53100Y188500D01*
X54600D01*
X55350Y187750D01*
Y183250D01*
X54600Y182500D02*X55350Y183250D01*
X53100Y182500D02*X54600D01*
X52350Y184000D02*X55350Y187000D01*
X57150Y187750D02*X57900Y188500D01*
X59400D01*
X60150Y187750D01*
X59400Y182500D02*X60150Y183250D01*
X57900Y182500D02*X59400D01*
X57150Y183250D02*X57900Y182500D01*
Y185800D02*X59400D01*
X60150Y187750D02*Y186550D01*
Y185050D02*Y183250D01*
Y185050D02*X59400Y185800D01*
X60150Y186550D02*X59400Y185800D01*
X61950Y183250D02*X62700Y182500D01*
X61950Y184450D02*Y183250D01*
Y184450D02*X63000Y185500D01*
X63900D01*
X64950Y184450D01*
Y183250D01*
X64200Y182500D02*X64950Y183250D01*
X62700Y182500D02*X64200D01*
X61950Y186550D02*X63000Y185500D01*
X61950Y187750D02*Y186550D01*
Y187750D02*X62700Y188500D01*
X64200D01*
X64950Y187750D01*
Y186550D01*
X63900Y185500D02*X64950Y186550D01*
X119800Y121700D02*X122200Y119300D01*
X119800D02*X122200Y121700D01*
X119800Y111700D02*X122200Y109300D01*
X119800D02*X122200Y111700D01*
X119800Y101700D02*X122200Y99300D01*
X119800D02*X122200Y101700D01*
X119800Y91700D02*X122200Y89300D01*
X119800D02*X122200Y91700D01*
X119800Y81700D02*X122200Y79300D01*
X119800D02*X122200Y81700D01*
X119800Y71700D02*X122200Y69300D01*
X119800D02*X122200Y71700D01*
X119800Y61700D02*X122200Y59300D01*
X119800D02*X122200Y61700D01*
X119800Y51700D02*X122200Y49300D01*
X119800D02*X122200Y51700D01*
X119800Y41700D02*X122200Y39300D01*
X119800D02*X122200Y41700D01*
X169800D02*X172200Y39300D01*
X169800D02*X172200Y41700D01*
X169800Y51700D02*X172200Y49300D01*
X169800D02*X172200Y51700D01*
X169800Y61700D02*X172200Y59300D01*
X169800D02*X172200Y61700D01*
X169800Y71700D02*X172200Y69300D01*
X169800D02*X172200Y71700D01*
X169800Y81700D02*X172200Y79300D01*
X169800D02*X172200Y81700D01*
X169800Y91700D02*X172200Y89300D01*
X169800D02*X172200Y91700D01*
X169800Y101700D02*X172200Y99300D01*
X169800D02*X172200Y101700D01*
X169800Y111700D02*X172200Y109300D01*
X169800D02*X172200Y111700D01*
X169800Y121700D02*X172200Y119300D01*
X169800D02*X172200Y121700D01*
X858300Y52200D02*X860700Y49800D01*
X858300D02*X860700Y52200D01*
X868300D02*X870700Y49800D01*
X868300D02*X870700Y52200D01*
X878300D02*X880700Y49800D01*
X878300D02*X880700Y52200D01*
X888300D02*X890700Y49800D01*
X888300D02*X890700Y52200D01*
X898300D02*X900700Y49800D01*
X898300D02*X900700Y52200D01*
X908300D02*X910700Y49800D01*
X908300D02*X910700Y52200D01*
X918300D02*X920700Y49800D01*
X918300D02*X920700Y52200D01*
X928300D02*X930700Y49800D01*
X928300D02*X930700Y52200D01*
X938300D02*X940700Y49800D01*
X938300D02*X940700Y52200D01*
X938300Y112200D02*X940700Y109800D01*
X938300D02*X940700Y112200D01*
X928300D02*X930700Y109800D01*
X928300D02*X930700Y112200D01*
X918300D02*X920700Y109800D01*
X918300D02*X920700Y112200D01*
X908300D02*X910700Y109800D01*
X908300D02*X910700Y112200D01*
X898300D02*X900700Y109800D01*
X898300D02*X900700Y112200D01*
X888300D02*X890700Y109800D01*
X888300D02*X890700Y112200D01*
X878300D02*X880700Y109800D01*
X878300D02*X880700Y112200D01*
X868300D02*X870700Y109800D01*
X868300D02*X870700Y112200D01*
X858300D02*X860700Y109800D01*
X858300D02*X860700Y112200D01*
X708300Y52200D02*X710700Y49800D01*
X708300D02*X710700Y52200D01*
X718300D02*X720700Y49800D01*
X718300D02*X720700Y52200D01*
X728300D02*X730700Y49800D01*
X728300D02*X730700Y52200D01*
X738300D02*X740700Y49800D01*
X738300D02*X740700Y52200D01*
X748300D02*X750700Y49800D01*
X748300D02*X750700Y52200D01*
X758300D02*X760700Y49800D01*
X758300D02*X760700Y52200D01*
X768300D02*X770700Y49800D01*
X768300D02*X770700Y52200D01*
X778300D02*X780700Y49800D01*
X778300D02*X780700Y52200D01*
X788300D02*X790700Y49800D01*
X788300D02*X790700Y52200D01*
X788300Y112200D02*X790700Y109800D01*
X788300D02*X790700Y112200D01*
X778300D02*X780700Y109800D01*
X778300D02*X780700Y112200D01*
X768300D02*X770700Y109800D01*
X768300D02*X770700Y112200D01*
X758300D02*X760700Y109800D01*
X758300D02*X760700Y112200D01*
X748300D02*X750700Y109800D01*
X748300D02*X750700Y112200D01*
X738300D02*X740700Y109800D01*
X738300D02*X740700Y112200D01*
X728300D02*X730700Y109800D01*
X728300D02*X730700Y112200D01*
X718300D02*X720700Y109800D01*
X718300D02*X720700Y112200D01*
X708300D02*X710700Y109800D01*
X708300D02*X710700Y112200D01*
X308300Y52200D02*X310700Y49800D01*
X308300D02*X310700Y52200D01*
X318300D02*X320700Y49800D01*
X318300D02*X320700Y52200D01*
X328300D02*X330700Y49800D01*
X328300D02*X330700Y52200D01*
X338300D02*X340700Y49800D01*
X338300D02*X340700Y52200D01*
X348300D02*X350700Y49800D01*
X348300D02*X350700Y52200D01*
X358300D02*X360700Y49800D01*
X358300D02*X360700Y52200D01*
X368300D02*X370700Y49800D01*
X368300D02*X370700Y52200D01*
X378300D02*X380700Y49800D01*
X378300D02*X380700Y52200D01*
X388300D02*X390700Y49800D01*
X388300D02*X390700Y52200D01*
X388300Y112200D02*X390700Y109800D01*
X388300D02*X390700Y112200D01*
X378300D02*X380700Y109800D01*
X378300D02*X380700Y112200D01*
X368300D02*X370700Y109800D01*
X368300D02*X370700Y112200D01*
X358300D02*X360700Y109800D01*
X358300D02*X360700Y112200D01*
X348300D02*X350700Y109800D01*
X348300D02*X350700Y112200D01*
X338300D02*X340700Y109800D01*
X338300D02*X340700Y112200D01*
X328300D02*X330700Y109800D01*
X328300D02*X330700Y112200D01*
X318300D02*X320700Y109800D01*
X318300D02*X320700Y112200D01*
X308300D02*X310700Y109800D01*
X308300D02*X310700Y112200D01*
X183800Y121700D02*X186200Y119300D01*
X183800D02*X186200Y121700D01*
X183800Y111700D02*X186200Y109300D01*
X183800D02*X186200Y111700D01*
X183800Y101700D02*X186200Y99300D01*
X183800D02*X186200Y101700D01*
X183800Y91700D02*X186200Y89300D01*
X183800D02*X186200Y91700D01*
X183800Y81700D02*X186200Y79300D01*
X183800D02*X186200Y81700D01*
X183800Y71700D02*X186200Y69300D01*
X183800D02*X186200Y71700D01*
X183800Y61700D02*X186200Y59300D01*
X183800D02*X186200Y61700D01*
X183800Y51700D02*X186200Y49300D01*
X183800D02*X186200Y51700D01*
X183800Y41700D02*X186200Y39300D01*
X183800D02*X186200Y41700D01*
X233800D02*X236200Y39300D01*
X233800D02*X236200Y41700D01*
X233800Y51700D02*X236200Y49300D01*
X233800D02*X236200Y51700D01*
X233800Y61700D02*X236200Y59300D01*
X233800D02*X236200Y61700D01*
X233800Y71700D02*X236200Y69300D01*
X233800D02*X236200Y71700D01*
X233800Y81700D02*X236200Y79300D01*
X233800D02*X236200Y81700D01*
X233800Y91700D02*X236200Y89300D01*
X233800D02*X236200Y91700D01*
X233800Y101700D02*X236200Y99300D01*
X233800D02*X236200Y101700D01*
X233800Y111700D02*X236200Y109300D01*
X233800D02*X236200Y111700D01*
X233800Y121700D02*X236200Y119300D01*
X233800D02*X236200Y121700D01*
X55800D02*X58200Y119300D01*
X55800D02*X58200Y121700D01*
X55800Y111700D02*X58200Y109300D01*
X55800D02*X58200Y111700D01*
X55800Y101700D02*X58200Y99300D01*
X55800D02*X58200Y101700D01*
X55800Y91700D02*X58200Y89300D01*
X55800D02*X58200Y91700D01*
X55800Y81700D02*X58200Y79300D01*
X55800D02*X58200Y81700D01*
X55800Y71700D02*X58200Y69300D01*
X55800D02*X58200Y71700D01*
X55800Y61700D02*X58200Y59300D01*
X55800D02*X58200Y61700D01*
X55800Y51700D02*X58200Y49300D01*
X55800D02*X58200Y51700D01*
X55800Y41700D02*X58200Y39300D01*
X55800D02*X58200Y41700D01*
X105800D02*X108200Y39300D01*
X105800D02*X108200Y41700D01*
X105800Y51700D02*X108200Y49300D01*
X105800D02*X108200Y51700D01*
X105800Y61700D02*X108200Y59300D01*
X105800D02*X108200Y61700D01*
X105800Y71700D02*X108200Y69300D01*
X105800D02*X108200Y71700D01*
X105800Y81700D02*X108200Y79300D01*
X105800D02*X108200Y81700D01*
X105800Y91700D02*X108200Y89300D01*
X105800D02*X108200Y91700D01*
X105800Y101700D02*X108200Y99300D01*
X105800D02*X108200Y101700D01*
X105800Y111700D02*X108200Y109300D01*
X105800D02*X108200Y111700D01*
X105800Y121700D02*X108200Y119300D01*
X105800D02*X108200Y121700D01*
X498800Y136700D02*X501200Y134300D01*
X498800D02*X501200Y136700D01*
X508800D02*X511200Y134300D01*
X508800D02*X511200Y136700D01*
X518800D02*X521200Y134300D01*
X518800D02*X521200Y136700D01*
X528800D02*X531200Y134300D01*
X528800D02*X531200Y136700D01*
X538800D02*X541200Y134300D01*
X538800D02*X541200Y136700D01*
X548800D02*X551200Y134300D01*
X548800D02*X551200Y136700D01*
X558800D02*X561200Y134300D01*
X558800D02*X561200Y136700D01*
X568800D02*X571200Y134300D01*
X568800D02*X571200Y136700D01*
X578800D02*X581200Y134300D01*
X578800D02*X581200Y136700D01*
X588800D02*X591200Y134300D01*
X588800D02*X591200Y136700D01*
X598800D02*X601200Y134300D01*
X598800D02*X601200Y136700D01*
X608800D02*X611200Y134300D01*
X608800D02*X611200Y136700D01*
X618800D02*X621200Y134300D01*
X618800D02*X621200Y136700D01*
X628800D02*X631200Y134300D01*
X628800D02*X631200Y136700D01*
X628800Y66700D02*X631200Y64300D01*
X628800D02*X631200Y66700D01*
X618800D02*X621200Y64300D01*
X618800D02*X621200Y66700D01*
X608800D02*X611200Y64300D01*
X608800D02*X611200Y66700D01*
X598800D02*X601200Y64300D01*
X598800D02*X601200Y66700D01*
X588800D02*X591200Y64300D01*
X588800D02*X591200Y66700D01*
X578800D02*X581200Y64300D01*
X578800D02*X581200Y66700D01*
X568800D02*X571200Y64300D01*
X568800D02*X571200Y66700D01*
X558800D02*X561200Y64300D01*
X558800D02*X561200Y66700D01*
X548800D02*X551200Y64300D01*
X548800D02*X551200Y66700D01*
X538800D02*X541200Y64300D01*
X538800D02*X541200Y66700D01*
X528800D02*X531200Y64300D01*
X528800D02*X531200Y66700D01*
X518800D02*X521200Y64300D01*
X518800D02*X521200Y66700D01*
X508800D02*X511200Y64300D01*
X508800D02*X511200Y66700D01*
X498800D02*X501200Y64300D01*
X498800D02*X501200Y66700D01*
X558300Y52200D02*X560700Y49800D01*
X558300D02*X560700Y52200D01*
X568300D02*X570700Y49800D01*
X568300D02*X570700Y52200D01*
X578300D02*X580700Y49800D01*
X578300D02*X580700Y52200D01*
X588300D02*X590700Y49800D01*
X588300D02*X590700Y52200D01*
X598300D02*X600700Y49800D01*
X598300D02*X600700Y52200D01*
X608300D02*X610700Y49800D01*
X608300D02*X610700Y52200D01*
X618300D02*X620700Y49800D01*
X618300D02*X620700Y52200D01*
X628300D02*X630700Y49800D01*
X628300D02*X630700Y52200D01*
X638300D02*X640700Y49800D01*
X638300D02*X640700Y52200D01*
X638300Y112200D02*X640700Y109800D01*
X638300D02*X640700Y112200D01*
X628300D02*X630700Y109800D01*
X628300D02*X630700Y112200D01*
X618300D02*X620700Y109800D01*
X618300D02*X620700Y112200D01*
X608300D02*X610700Y109800D01*
X608300D02*X610700Y112200D01*
X598300D02*X600700Y109800D01*
X598300D02*X600700Y112200D01*
X588300D02*X590700Y109800D01*
X588300D02*X590700Y112200D01*
X578300D02*X580700Y109800D01*
X578300D02*X580700Y112200D01*
X568300D02*X570700Y109800D01*
X568300D02*X570700Y112200D01*
X558300D02*X560700Y109800D01*
X558300D02*X560700Y112200D01*
X41800Y36200D02*X44200Y33800D01*
X41800D02*X44200Y36200D01*
X41800Y46200D02*X44200Y43800D01*
X41800D02*X44200Y46200D01*
X41800Y56200D02*X44200Y53800D01*
X41800D02*X44200Y56200D01*
X41800Y66200D02*X44200Y63800D01*
X41800D02*X44200Y66200D01*
X41800Y76200D02*X44200Y73800D01*
X41800D02*X44200Y76200D01*
X41800Y86200D02*X44200Y83800D01*
X41800D02*X44200Y86200D01*
X41800Y96200D02*X44200Y93800D01*
X41800D02*X44200Y96200D01*
X41800Y106200D02*X44200Y103800D01*
X41800D02*X44200Y106200D01*
X41800Y116200D02*X44200Y113800D01*
X41800D02*X44200Y116200D01*
X41800Y126200D02*X44200Y123800D01*
X41800D02*X44200Y126200D01*
X71800D02*X74200Y123800D01*
X71800D02*X74200Y126200D01*
X71800Y116200D02*X74200Y113800D01*
X71800D02*X74200Y116200D01*
X71800Y106200D02*X74200Y103800D01*
X71800D02*X74200Y106200D01*
X71800Y96200D02*X74200Y93800D01*
X71800D02*X74200Y96200D01*
X71800Y86200D02*X74200Y83800D01*
X71800D02*X74200Y86200D01*
X71800Y76200D02*X74200Y73800D01*
X71800D02*X74200Y76200D01*
X71800Y66200D02*X74200Y63800D01*
X71800D02*X74200Y66200D01*
X71800Y56200D02*X74200Y53800D01*
X71800D02*X74200Y56200D01*
X71800Y46200D02*X74200Y43800D01*
X71800D02*X74200Y46200D01*
X71800Y36200D02*X74200Y33800D01*
X71800D02*X74200Y36200D01*
X458300Y52200D02*X460700Y49800D01*
X458300D02*X460700Y52200D01*
X468300D02*X470700Y49800D01*
X468300D02*X470700Y52200D01*
X478300D02*X480700Y49800D01*
X478300D02*X480700Y52200D01*
X488300D02*X490700Y49800D01*
X488300D02*X490700Y52200D01*
X498300D02*X500700Y49800D01*
X498300D02*X500700Y52200D01*
X508300D02*X510700Y49800D01*
X508300D02*X510700Y52200D01*
X518300D02*X520700Y49800D01*
X518300D02*X520700Y52200D01*
X528300D02*X530700Y49800D01*
X528300D02*X530700Y52200D01*
X538300D02*X540700Y49800D01*
X538300D02*X540700Y52200D01*
X538300Y112200D02*X540700Y109800D01*
X538300D02*X540700Y112200D01*
X528300D02*X530700Y109800D01*
X528300D02*X530700Y112200D01*
X518300D02*X520700Y109800D01*
X518300D02*X520700Y112200D01*
X508300D02*X510700Y109800D01*
X508300D02*X510700Y112200D01*
X498300D02*X500700Y109800D01*
X498300D02*X500700Y112200D01*
X488300D02*X490700Y109800D01*
X488300D02*X490700Y112200D01*
X478300D02*X480700Y109800D01*
X478300D02*X480700Y112200D01*
X468300D02*X470700Y109800D01*
X468300D02*X470700Y112200D01*
X458300D02*X460700Y109800D01*
X458300D02*X460700Y112200D01*
X13800Y202450D02*X16200Y200050D01*
X13800D02*X16200Y202450D01*
X135000Y203500D02*X136500Y200500D01*
X138000Y203500D01*
X136500Y200500D02*Y197500D01*
X139800Y200800D02*X142050D01*
X139800Y197500D02*X142800D01*
X139800Y203500D02*Y197500D01*
Y203500D02*X142800D01*
X147600D02*X148350Y202750D01*
X145350Y203500D02*X147600D01*
X144600Y202750D02*X145350Y203500D01*
X144600Y202750D02*Y201250D01*
X145350Y200500D01*
X147600D01*
X148350Y199750D01*
Y198250D01*
X147600Y197500D02*X148350Y198250D01*
X145350Y197500D02*X147600D01*
X144600Y198250D02*X145350Y197500D01*
X98000Y202300D02*X99200Y203500D01*
Y197500D01*
X98000D02*X100250D01*
X102800D02*X105050Y200500D01*
Y202750D02*Y200500D01*
X104300Y203500D02*X105050Y202750D01*
X102800Y203500D02*X104300D01*
X102050Y202750D02*X102800Y203500D01*
X102050Y202750D02*Y201250D01*
X102800Y200500D01*
X105050D01*
X106850Y202750D02*X107600Y203500D01*
X109850D01*
X110600Y202750D01*
Y201250D01*
X106850Y197500D02*X110600Y201250D01*
X106850Y197500D02*X110600D01*
X45000Y198250D02*X45750Y197500D01*
X45000Y202750D02*Y198250D01*
Y202750D02*X45750Y203500D01*
X47250D01*
X48000Y202750D01*
Y198250D01*
X47250Y197500D02*X48000Y198250D01*
X45750Y197500D02*X47250D01*
X45000Y199000D02*X48000Y202000D01*
X49800Y197500D02*X50550D01*
X52350Y198250D02*X53100Y197500D01*
X52350Y202750D02*Y198250D01*
Y202750D02*X53100Y203500D01*
X54600D01*
X55350Y202750D01*
Y198250D01*
X54600Y197500D02*X55350Y198250D01*
X53100Y197500D02*X54600D01*
X52350Y199000D02*X55350Y202000D01*
X57150Y202750D02*X57900Y203500D01*
X59400D01*
X60150Y202750D01*
X59400Y197500D02*X60150Y198250D01*
X57900Y197500D02*X59400D01*
X57150Y198250D02*X57900Y197500D01*
Y200800D02*X59400D01*
X60150Y202750D02*Y201550D01*
Y200050D02*Y198250D01*
Y200050D02*X59400Y200800D01*
X60150Y201550D02*X59400Y200800D01*
X61950Y203500D02*X64950D01*
X61950D02*Y200500D01*
X62700Y201250D01*
X64200D01*
X64950Y200500D01*
Y198250D01*
X64200Y197500D02*X64950Y198250D01*
X62700Y197500D02*X64200D01*
X61950Y198250D02*X62700Y197500D01*
X830000Y67100D02*Y63900D01*
X828400Y65500D02*X831600D01*
X820000Y67100D02*Y63900D01*
X818400Y65500D02*X821600D01*
X680000Y101600D02*Y98400D01*
X678400Y100000D02*X681600D01*
X670000Y101600D02*Y98400D01*
X668400Y100000D02*X671600D01*
X830000Y96600D02*Y93400D01*
X828400Y95000D02*X831600D01*
X820000Y96600D02*Y93400D01*
X818400Y95000D02*X821600D01*
X680000Y61600D02*Y58400D01*
X678400Y60000D02*X681600D01*
X670000Y61600D02*Y58400D01*
X668400Y60000D02*X671600D01*
X15000Y217850D02*Y214650D01*
X13400Y216250D02*X16600D01*
X135000Y218500D02*X136500Y215500D01*
X138000Y218500D01*
X136500Y215500D02*Y212500D01*
X139800Y215800D02*X142050D01*
X139800Y212500D02*X142800D01*
X139800Y218500D02*Y212500D01*
Y218500D02*X142800D01*
X147600D02*X148350Y217750D01*
X145350Y218500D02*X147600D01*
X144600Y217750D02*X145350Y218500D01*
X144600Y217750D02*Y216250D01*
X145350Y215500D01*
X147600D01*
X148350Y214750D01*
Y213250D01*
X147600Y212500D02*X148350Y213250D01*
X145350Y212500D02*X147600D01*
X144600Y213250D02*X145350Y212500D01*
X98000Y213250D02*X98750Y212500D01*
X98000Y214450D02*Y213250D01*
Y214450D02*X99050Y215500D01*
X99950D01*
X101000Y214450D01*
Y213250D01*
X100250Y212500D02*X101000Y213250D01*
X98750Y212500D02*X100250D01*
X98000Y216550D02*X99050Y215500D01*
X98000Y217750D02*Y216550D01*
Y217750D02*X98750Y218500D01*
X100250D01*
X101000Y217750D01*
Y216550D01*
X99950Y215500D02*X101000Y216550D01*
X45000Y213250D02*X45750Y212500D01*
X45000Y217750D02*Y213250D01*
Y217750D02*X45750Y218500D01*
X47250D01*
X48000Y217750D01*
Y213250D01*
X47250Y212500D02*X48000Y213250D01*
X45750Y212500D02*X47250D01*
X45000Y214000D02*X48000Y217000D01*
X49800Y212500D02*X50550D01*
X52350Y213250D02*X53100Y212500D01*
X52350Y217750D02*Y213250D01*
Y217750D02*X53100Y218500D01*
X54600D01*
X55350Y217750D01*
Y213250D01*
X54600Y212500D02*X55350Y213250D01*
X53100Y212500D02*X54600D01*
X52350Y214000D02*X55350Y217000D01*
X57150Y217750D02*X57900Y218500D01*
X60150D01*
X60900Y217750D01*
Y216250D01*
X57150Y212500D02*X60900Y216250D01*
X57150Y212500D02*X60900D01*
X62700Y213250D02*X63450Y212500D01*
X62700Y214450D02*Y213250D01*
Y214450D02*X63750Y215500D01*
X64650D01*
X65700Y214450D01*
Y213250D01*
X64950Y212500D02*X65700Y213250D01*
X63450Y212500D02*X64950D01*
X62700Y216550D02*X63750Y215500D01*
X62700Y217750D02*Y216550D01*
Y217750D02*X63450Y218500D01*
X64950D01*
X65700Y217750D01*
Y216550D01*
X64650Y215500D02*X65700Y216550D01*
X44500Y27000D02*Y25400D01*
Y27000D02*X45887Y27800D01*
X44500Y27000D02*X43113Y27800D01*
X575000Y86000D02*Y84400D01*
Y86000D02*X576387Y86800D01*
X575000Y86000D02*X573613Y86800D01*
X533000Y86000D02*Y84400D01*
Y86000D02*X534387Y86800D01*
X533000Y86000D02*X531613Y86800D01*
X458500Y103500D02*Y101900D01*
Y103500D02*X459887Y104300D01*
X458500Y103500D02*X457113Y104300D01*
X427000Y105000D02*Y103400D01*
Y105000D02*X428387Y105800D01*
X427000Y105000D02*X425613Y105800D01*
X247500Y104000D02*Y102400D01*
Y104000D02*X248887Y104800D01*
X247500Y104000D02*X246113Y104800D01*
X241000Y140750D02*Y139150D01*
Y140750D02*X242387Y141550D01*
X241000Y140750D02*X239613Y141550D01*
X555500Y94500D02*Y92900D01*
Y94500D02*X556887Y95300D01*
X555500Y94500D02*X554113Y95300D01*
X477500Y89500D02*Y87900D01*
Y89500D02*X478887Y90300D01*
X477500Y89500D02*X476113Y90300D01*
X445000Y89000D02*Y87400D01*
Y89000D02*X446387Y89800D01*
X445000Y89000D02*X443613Y89800D01*
X367500Y43500D02*Y41900D01*
Y43500D02*X368887Y44300D01*
X367500Y43500D02*X366113Y44300D01*
X615000Y96500D02*Y94900D01*
Y96500D02*X616387Y97300D01*
X615000Y96500D02*X613613Y97300D01*
X663000Y93500D02*Y91900D01*
Y93500D02*X664387Y94300D01*
X663000Y93500D02*X661613Y94300D01*
X813500Y93500D02*Y91900D01*
Y93500D02*X814887Y94300D01*
X813500Y93500D02*X812113Y94300D01*
X138500Y15000D02*Y13400D01*
Y15000D02*X139887Y15800D01*
X138500Y15000D02*X137113Y15800D01*
X87500Y15000D02*Y13400D01*
Y15000D02*X88887Y15800D01*
X87500Y15000D02*X86113Y15800D01*
X87500Y62000D02*Y60400D01*
Y62000D02*X88887Y62800D01*
X87500Y62000D02*X86113Y62800D01*
X424750Y120000D02*Y118400D01*
Y120000D02*X426137Y120800D01*
X424750Y120000D02*X423363Y120800D01*
X414750Y120000D02*Y118400D01*
Y120000D02*X416137Y120800D01*
X414750Y120000D02*X413363Y120800D01*
X395500Y118500D02*Y116900D01*
Y118500D02*X396887Y119300D01*
X395500Y118500D02*X394113Y119300D01*
X395500Y98000D02*Y96400D01*
Y98000D02*X396887Y98800D01*
X395500Y98000D02*X394113Y98800D01*
X358000Y96500D02*Y94900D01*
Y96500D02*X359387Y97300D01*
X358000Y96500D02*X356613Y97300D01*
X314000Y37500D02*Y35900D01*
Y37500D02*X315387Y38300D01*
X314000Y37500D02*X312613Y38300D01*
X106000Y20500D02*Y18900D01*
Y20500D02*X107387Y21300D01*
X106000Y20500D02*X104613Y21300D01*
X552000Y89500D02*Y87900D01*
Y89500D02*X553387Y90300D01*
X552000Y89500D02*X550613Y90300D01*
X605000Y89500D02*Y87900D01*
Y89500D02*X606387Y90300D01*
X605000Y89500D02*X603613Y90300D01*
X254500Y134500D02*Y132900D01*
Y134500D02*X255887Y135300D01*
X254500Y134500D02*X253113Y135300D01*
X535500Y150000D02*Y148400D01*
Y150000D02*X536887Y150800D01*
X535500Y150000D02*X534113Y150800D01*
X585000Y122500D02*Y120900D01*
Y122500D02*X586387Y123300D01*
X585000Y122500D02*X583613Y123300D01*
X666500Y82500D02*Y80900D01*
Y82500D02*X667887Y83300D01*
X666500Y82500D02*X665113Y83300D01*
X40500Y131000D02*Y129400D01*
Y131000D02*X41887Y131800D01*
X40500Y131000D02*X39113Y131800D01*
X359500Y132250D02*Y130650D01*
Y132250D02*X360887Y133050D01*
X359500Y132250D02*X358113Y133050D01*
X446500Y123500D02*Y121900D01*
Y123500D02*X447887Y124300D01*
X446500Y123500D02*X445113Y124300D01*
X444000Y108500D02*Y106900D01*
Y108500D02*X445387Y109300D01*
X444000Y108500D02*X442613Y109300D01*
X483000Y99500D02*Y97900D01*
Y99500D02*X484387Y100300D01*
X483000Y99500D02*X481613Y100300D01*
X533000Y99500D02*Y97900D01*
Y99500D02*X534387Y100300D01*
X533000Y99500D02*X531613Y100300D01*
X626000Y84500D02*Y82900D01*
Y84500D02*X627387Y85300D01*
X626000Y84500D02*X624613Y85300D01*
X659500Y86000D02*Y84400D01*
Y86000D02*X660887Y86800D01*
X659500Y86000D02*X658113Y86800D01*
X675000Y140000D02*Y138400D01*
Y140000D02*X676387Y140800D01*
X675000Y140000D02*X673613Y140800D01*
X664500Y154000D02*Y152400D01*
Y154000D02*X665887Y154800D01*
X664500Y154000D02*X663113Y154800D01*
X191000Y139750D02*Y138150D01*
Y139750D02*X192387Y140550D01*
X191000Y139750D02*X189613Y140550D01*
X196500Y60500D02*Y58900D01*
Y60500D02*X197887Y61300D01*
X196500Y60500D02*X195113Y61300D01*
X614000Y5500D02*Y3900D01*
Y5500D02*X615387Y6300D01*
X614000Y5500D02*X612613Y6300D01*
X65500Y30500D02*Y28900D01*
Y30500D02*X66887Y31300D01*
X65500Y30500D02*X64113Y31300D01*
X94500Y30500D02*Y28900D01*
Y30500D02*X95887Y31300D01*
X94500Y30500D02*X93113Y31300D01*
X646000Y60500D02*Y58900D01*
Y60500D02*X647387Y61300D01*
X646000Y60500D02*X644613Y61300D01*
X354500Y135750D02*Y134150D01*
Y135750D02*X355887Y136550D01*
X354500Y135750D02*X353113Y136550D01*
X384000Y83500D02*Y81900D01*
Y83500D02*X385387Y84300D01*
X384000Y83500D02*X382613Y84300D01*
X358000Y83500D02*Y81900D01*
Y83500D02*X359387Y84300D01*
X358000Y83500D02*X356613Y84300D01*
X317500Y83500D02*Y81900D01*
Y83500D02*X318887Y84300D01*
X317500Y83500D02*X316113Y84300D01*
X101000Y30500D02*Y28900D01*
Y30500D02*X102387Y31300D01*
X101000Y30500D02*X99613Y31300D01*
X633000Y37500D02*Y35900D01*
Y37500D02*X634387Y38300D01*
X633000Y37500D02*X631613Y38300D01*
X595500Y86000D02*Y84400D01*
Y86000D02*X596887Y86800D01*
X595500Y86000D02*X594113Y86800D01*
X624000Y103500D02*Y101900D01*
Y103500D02*X625387Y104300D01*
X624000Y103500D02*X622613Y104300D01*
X90500Y109500D02*Y107900D01*
Y109500D02*X91887Y110300D01*
X90500Y109500D02*X89113Y110300D01*
X581000Y17000D02*Y15400D01*
Y17000D02*X582387Y17800D01*
X581000Y17000D02*X579613Y17800D01*
X270000Y17000D02*Y15400D01*
Y17000D02*X271387Y17800D01*
X270000Y17000D02*X268613Y17800D01*
X270000Y27000D02*Y25400D01*
Y27000D02*X271387Y27800D01*
X270000Y27000D02*X268613Y27800D01*
X268500Y38000D02*Y36400D01*
Y38000D02*X269887Y38800D01*
X268500Y38000D02*X267113Y38800D01*
X621500Y41000D02*Y39400D01*
Y41000D02*X622887Y41800D01*
X621500Y41000D02*X620113Y41800D01*
X776000Y41000D02*Y39400D01*
Y41000D02*X777387Y41800D01*
X776000Y41000D02*X774613Y41800D01*
X49500Y139000D02*Y137400D01*
Y139000D02*X50887Y139800D01*
X49500Y139000D02*X48113Y139800D01*
X94000Y139000D02*Y137400D01*
Y139000D02*X95387Y139800D01*
X94000Y139000D02*X92613Y139800D01*
X67000Y135000D02*Y133400D01*
Y135000D02*X68387Y135800D01*
X67000Y135000D02*X65613Y135800D01*
X179000Y135000D02*Y133400D01*
Y135000D02*X180387Y135800D01*
X179000Y135000D02*X177613Y135800D01*
X663000Y113500D02*Y111900D01*
Y113500D02*X664387Y114300D01*
X663000Y113500D02*X661613Y114300D01*
X663000Y134500D02*Y132900D01*
Y134500D02*X664387Y135300D01*
X663000Y134500D02*X661613Y135300D01*
X317500Y23500D02*Y21900D01*
Y23500D02*X318887Y24300D01*
X317500Y23500D02*X316113Y24300D01*
X227000Y41500D02*Y39900D01*
Y41500D02*X228387Y42300D01*
X227000Y41500D02*X225613Y42300D01*
X227000Y100500D02*Y98900D01*
Y100500D02*X228387Y101300D01*
X227000Y100500D02*X225613Y101300D01*
X653000Y96500D02*Y94900D01*
Y96500D02*X654387Y97300D01*
X653000Y96500D02*X651613Y97300D01*
X621000Y89500D02*Y87900D01*
Y89500D02*X622387Y90300D01*
X621000Y89500D02*X619613Y90300D01*
X658000Y93000D02*Y91400D01*
Y93000D02*X659387Y93800D01*
X658000Y93000D02*X656613Y93800D01*
X658000Y138000D02*Y136400D01*
Y138000D02*X659387Y138800D01*
X658000Y138000D02*X656613Y138800D01*
X659500Y157500D02*Y155900D01*
Y157500D02*X660887Y158300D01*
X659500Y157500D02*X658113Y158300D01*
X563000Y41500D02*Y39900D01*
Y41500D02*X564387Y42300D01*
X563000Y41500D02*X561613Y42300D01*
X519500Y41500D02*Y39900D01*
Y41500D02*X520887Y42300D01*
X519500Y41500D02*X518113Y42300D01*
X533000Y77500D02*Y75900D01*
Y77500D02*X534387Y78300D01*
X533000Y77500D02*X531613Y78300D01*
X577500Y76000D02*Y74400D01*
Y76000D02*X578887Y76800D01*
X577500Y76000D02*X576113Y76800D01*
X212000Y50500D02*Y48900D01*
Y50500D02*X213387Y51300D01*
X212000Y50500D02*X210613Y51300D01*
X212000Y30500D02*Y28900D01*
Y30500D02*X213387Y31300D01*
X212000Y30500D02*X210613Y31300D01*
X140000Y27000D02*Y25400D01*
Y27000D02*X141387Y27800D01*
X140000Y27000D02*X138613Y27800D01*
X425000Y96000D02*Y94400D01*
Y96000D02*X426387Y96800D01*
X425000Y96000D02*X423613Y96800D01*
X242500Y109000D02*Y107400D01*
Y109000D02*X243887Y109800D01*
X242500Y109000D02*X241113Y109800D01*
X64500Y55000D02*Y53400D01*
Y55000D02*X65887Y55800D01*
X64500Y55000D02*X63113Y55800D01*
X466000Y92500D02*Y90900D01*
Y92500D02*X467387Y93300D01*
X466000Y92500D02*X464613Y93300D01*
X406000Y78500D02*Y76900D01*
Y78500D02*X407387Y79300D01*
X406000Y78500D02*X404613Y79300D01*
X83750Y121500D02*Y119900D01*
Y121500D02*X85137Y122300D01*
X83750Y121500D02*X82363Y122300D01*
X654500Y149000D02*Y147400D01*
Y149000D02*X655887Y149800D01*
X654500Y149000D02*X653113Y149800D01*
X670000Y150500D02*Y148900D01*
Y150500D02*X671387Y151300D01*
X670000Y150500D02*X668613Y151300D01*
X670000Y138000D02*Y136400D01*
Y138000D02*X671387Y138800D01*
X670000Y138000D02*X668613Y138800D01*
X670000Y107000D02*Y105400D01*
Y107000D02*X671387Y107800D01*
X670000Y107000D02*X668613Y107800D01*
X645500Y106500D02*Y104900D01*
Y106500D02*X646887Y107300D01*
X645500Y106500D02*X644113Y107300D01*
X643000Y77500D02*Y75900D01*
Y77500D02*X644387Y78300D01*
X643000Y77500D02*X641613Y78300D01*
X414750Y105750D02*Y104150D01*
Y105750D02*X416137Y106550D01*
X414750Y105750D02*X413363Y106550D01*
X533000Y93000D02*Y91400D01*
Y93000D02*X534387Y93800D01*
X533000Y93000D02*X531613Y93800D01*
X36000Y3000D02*Y1400D01*
Y3000D02*X37387Y3800D01*
X36000Y3000D02*X34613Y3800D01*
X64250Y16000D02*Y14400D01*
Y16000D02*X65637Y16800D01*
X64250Y16000D02*X62863Y16800D01*
X30500Y9000D02*Y7400D01*
Y9000D02*X31887Y9800D01*
X30500Y9000D02*X29113Y9800D01*
X15000Y231250D02*Y229650D01*
Y231250D02*X16387Y232050D01*
X15000Y231250D02*X13613Y232050D01*
X135000Y233500D02*X136500Y230500D01*
X138000Y233500D01*
X136500Y230500D02*Y227500D01*
X139800Y230800D02*X142050D01*
X139800Y227500D02*X142800D01*
X139800Y233500D02*Y227500D01*
Y233500D02*X142800D01*
X147600D02*X148350Y232750D01*
X145350Y233500D02*X147600D01*
X144600Y232750D02*X145350Y233500D01*
X144600Y232750D02*Y231250D01*
X145350Y230500D01*
X147600D01*
X148350Y229750D01*
Y228250D01*
X147600Y227500D02*X148350Y228250D01*
X145350Y227500D02*X147600D01*
X144600Y228250D02*X145350Y227500D01*
X98750D02*X101000Y230500D01*
Y232750D02*Y230500D01*
X100250Y233500D02*X101000Y232750D01*
X98750Y233500D02*X100250D01*
X98000Y232750D02*X98750Y233500D01*
X98000Y232750D02*Y231250D01*
X98750Y230500D01*
X101000D01*
X103550Y227500D02*X105800Y230500D01*
Y232750D02*Y230500D01*
X105050Y233500D02*X105800Y232750D01*
X103550Y233500D02*X105050D01*
X102800Y232750D02*X103550Y233500D01*
X102800Y232750D02*Y231250D01*
X103550Y230500D01*
X105800D01*
X45000Y228250D02*X45750Y227500D01*
X45000Y232750D02*Y228250D01*
Y232750D02*X45750Y233500D01*
X47250D01*
X48000Y232750D01*
Y228250D01*
X47250Y227500D02*X48000Y228250D01*
X45750Y227500D02*X47250D01*
X45000Y229000D02*X48000Y232000D01*
X49800Y227500D02*X50550D01*
X52350Y228250D02*X53100Y227500D01*
X52350Y232750D02*Y228250D01*
Y232750D02*X53100Y233500D01*
X54600D01*
X55350Y232750D01*
Y228250D01*
X54600Y227500D02*X55350Y228250D01*
X53100Y227500D02*X54600D01*
X52350Y229000D02*X55350Y232000D01*
X57150Y232750D02*X57900Y233500D01*
X60150D01*
X60900Y232750D01*
Y231250D01*
X57150Y227500D02*X60900Y231250D01*
X57150Y227500D02*X60900D01*
X62700Y228250D02*X63450Y227500D01*
X62700Y232750D02*Y228250D01*
Y232750D02*X63450Y233500D01*
X64950D01*
X65700Y232750D01*
Y228250D01*
X64950Y227500D02*X65700Y228250D01*
X63450Y227500D02*X64950D01*
X62700Y229000D02*X65700Y232000D01*
X3000Y248500D02*X3750Y247750D01*
X750Y248500D02*X3000D01*
X0Y247750D02*X750Y248500D01*
X0Y247750D02*Y246250D01*
X750Y245500D01*
X3000D01*
X3750Y244750D01*
Y243250D01*
X3000Y242500D02*X3750Y243250D01*
X750Y242500D02*X3000D01*
X0Y243250D02*X750Y242500D01*
X5550Y245500D02*Y243250D01*
X6300Y242500D01*
X8550Y245500D02*Y241000D01*
X7800Y240250D02*X8550Y241000D01*
X6300Y240250D02*X7800D01*
X5550Y241000D02*X6300Y240250D01*
Y242500D02*X7800D01*
X8550Y243250D01*
X11100Y244750D02*Y242500D01*
Y244750D02*X11850Y245500D01*
X12600D01*
X13350Y244750D01*
Y242500D01*
Y244750D02*X14100Y245500D01*
X14850D01*
X15600Y244750D01*
Y242500D01*
X10350Y245500D02*X11100Y244750D01*
X17400Y248500D02*Y242500D01*
Y243250D02*X18150Y242500D01*
X19650D01*
X20400Y243250D01*
Y244750D02*Y243250D01*
X19650Y245500D02*X20400Y244750D01*
X18150Y245500D02*X19650D01*
X17400Y244750D02*X18150Y245500D01*
X22200Y244750D02*Y243250D01*
Y244750D02*X22950Y245500D01*
X24450D01*
X25200Y244750D01*
Y243250D01*
X24450Y242500D02*X25200Y243250D01*
X22950Y242500D02*X24450D01*
X22200Y243250D02*X22950Y242500D01*
X27000Y248500D02*Y243250D01*
X27750Y242500D01*
X0Y239250D02*X29250D01*
X41750Y248500D02*Y242500D01*
X43700Y248500D02*X44750Y247450D01*
Y243550D01*
X43700Y242500D02*X44750Y243550D01*
X41000Y242500D02*X43700D01*
X41000Y248500D02*X43700D01*
G54D55*X46550Y247000D02*Y246850D01*
G54D54*Y244750D02*Y242500D01*
X50300Y245500D02*X51050Y244750D01*
X48800Y245500D02*X50300D01*
X48050Y244750D02*X48800Y245500D01*
X48050Y244750D02*Y243250D01*
X48800Y242500D01*
X51050Y245500D02*Y243250D01*
X51800Y242500D01*
X48800D02*X50300D01*
X51050Y243250D01*
X54350Y244750D02*Y242500D01*
Y244750D02*X55100Y245500D01*
X55850D01*
X56600Y244750D01*
Y242500D01*
Y244750D02*X57350Y245500D01*
X58100D01*
X58850Y244750D01*
Y242500D01*
X53600Y245500D02*X54350Y244750D01*
X60650Y242500D02*X61400D01*
X65900Y243250D02*X66650Y242500D01*
X65900Y247750D02*X66650Y248500D01*
X65900Y247750D02*Y243250D01*
X68450Y248500D02*X69950D01*
X69200D02*Y242500D01*
X68450D02*X69950D01*
X72500Y244750D02*Y242500D01*
Y244750D02*X73250Y245500D01*
X74000D01*
X74750Y244750D01*
Y242500D01*
X71750Y245500D02*X72500Y244750D01*
X77300Y245500D02*X79550D01*
X76550Y244750D02*X77300Y245500D01*
X76550Y244750D02*Y243250D01*
X77300Y242500D01*
X79550D01*
X81350Y248500D02*Y242500D01*
Y244750D02*X82100Y245500D01*
X83600D01*
X84350Y244750D01*
Y242500D01*
X86150Y248500D02*X86900Y247750D01*
Y243250D01*
X86150Y242500D02*X86900Y243250D01*
X41000Y239250D02*X88700D01*
X96050Y242500D02*X98000D01*
X95000Y243550D02*X96050Y242500D01*
X95000Y247450D02*Y243550D01*
Y247450D02*X96050Y248500D01*
X98000D01*
X99800Y244750D02*Y243250D01*
Y244750D02*X100550Y245500D01*
X102050D01*
X102800Y244750D01*
Y243250D01*
X102050Y242500D02*X102800Y243250D01*
X100550Y242500D02*X102050D01*
X99800Y243250D02*X100550Y242500D01*
X104600Y245500D02*Y243250D01*
X105350Y242500D01*
X106850D01*
X107600Y243250D01*
Y245500D02*Y243250D01*
X110150Y244750D02*Y242500D01*
Y244750D02*X110900Y245500D01*
X111650D01*
X112400Y244750D01*
Y242500D01*
X109400Y245500D02*X110150Y244750D01*
X114950Y248500D02*Y243250D01*
X115700Y242500D01*
X114200Y246250D02*X115700D01*
X95000Y239250D02*X117200D01*
X130750Y248500D02*Y242500D01*
X130000Y248500D02*X133000D01*
X133750Y247750D01*
Y246250D01*
X133000Y245500D02*X133750Y246250D01*
X130750Y245500D02*X133000D01*
X135550Y248500D02*Y243250D01*
X136300Y242500D01*
X140050Y245500D02*X140800Y244750D01*
X138550Y245500D02*X140050D01*
X137800Y244750D02*X138550Y245500D01*
X137800Y244750D02*Y243250D01*
X138550Y242500D01*
X140800Y245500D02*Y243250D01*
X141550Y242500D01*
X138550D02*X140050D01*
X140800Y243250D01*
X144100Y248500D02*Y243250D01*
X144850Y242500D01*
X143350Y246250D02*X144850D01*
X147100Y242500D02*X149350D01*
X146350Y243250D02*X147100Y242500D01*
X146350Y244750D02*Y243250D01*
Y244750D02*X147100Y245500D01*
X148600D01*
X149350Y244750D01*
X146350Y244000D02*X149350D01*
Y244750D02*Y244000D01*
X154150Y248500D02*Y242500D01*
X153400D02*X154150Y243250D01*
X151900Y242500D02*X153400D01*
X151150Y243250D02*X151900Y242500D01*
X151150Y244750D02*Y243250D01*
Y244750D02*X151900Y245500D01*
X153400D01*
X154150Y244750D01*
X157450Y245500D02*Y244750D01*
Y243250D02*Y242500D01*
X155950Y247750D02*Y247000D01*
Y247750D02*X156700Y248500D01*
X158200D01*
X158950Y247750D01*
Y247000D01*
X157450Y245500D02*X158950Y247000D01*
X130000Y239250D02*X160750D01*
X0Y263500D02*X3000D01*
X1500D02*Y257500D01*
X4800Y263500D02*Y257500D01*
Y259750D02*X5550Y260500D01*
X7050D01*
X7800Y259750D01*
Y257500D01*
X10350D02*X12600D01*
X9600Y258250D02*X10350Y257500D01*
X9600Y259750D02*Y258250D01*
Y259750D02*X10350Y260500D01*
X11850D01*
X12600Y259750D01*
X9600Y259000D02*X12600D01*
Y259750D02*Y259000D01*
X15150Y259750D02*Y257500D01*
Y259750D02*X15900Y260500D01*
X17400D01*
X14400D02*X15150Y259750D01*
X19950Y257500D02*X22200D01*
X19200Y258250D02*X19950Y257500D01*
X19200Y259750D02*Y258250D01*
Y259750D02*X19950Y260500D01*
X21450D01*
X22200Y259750D01*
X19200Y259000D02*X22200D01*
Y259750D02*Y259000D01*
X28950Y260500D02*X29700Y259750D01*
X27450Y260500D02*X28950D01*
X26700Y259750D02*X27450Y260500D01*
X26700Y259750D02*Y258250D01*
X27450Y257500D01*
X29700Y260500D02*Y258250D01*
X30450Y257500D01*
X27450D02*X28950D01*
X29700Y258250D01*
X33000Y259750D02*Y257500D01*
Y259750D02*X33750Y260500D01*
X35250D01*
X32250D02*X33000Y259750D01*
X37800Y257500D02*X40050D01*
X37050Y258250D02*X37800Y257500D01*
X37050Y259750D02*Y258250D01*
Y259750D02*X37800Y260500D01*
X39300D01*
X40050Y259750D01*
X37050Y259000D02*X40050D01*
Y259750D02*Y259000D01*
X44550Y263500D02*X47550D01*
X44550D02*Y260500D01*
X45300Y261250D01*
X46800D01*
X47550Y260500D01*
Y258250D01*
X46800Y257500D02*X47550Y258250D01*
X45300Y257500D02*X46800D01*
X44550Y258250D02*X45300Y257500D01*
X55050Y263500D02*Y257500D01*
X54300D02*X55050Y258250D01*
X52800Y257500D02*X54300D01*
X52050Y258250D02*X52800Y257500D01*
X52050Y259750D02*Y258250D01*
Y259750D02*X52800Y260500D01*
X54300D01*
X55050Y259750D01*
G54D55*X56850Y262000D02*Y261850D01*
G54D54*Y259750D02*Y257500D01*
X59100Y262750D02*Y257500D01*
Y262750D02*X59850Y263500D01*
X60600D01*
X58350Y260500D02*X59850D01*
X62850Y262750D02*Y257500D01*
Y262750D02*X63600Y263500D01*
X64350D01*
X62100Y260500D02*X63600D01*
X66600Y257500D02*X68850D01*
X65850Y258250D02*X66600Y257500D01*
X65850Y259750D02*Y258250D01*
Y259750D02*X66600Y260500D01*
X68100D01*
X68850Y259750D01*
X65850Y259000D02*X68850D01*
Y259750D02*Y259000D01*
X71400Y259750D02*Y257500D01*
Y259750D02*X72150Y260500D01*
X73650D01*
X70650D02*X71400Y259750D01*
X76200Y257500D02*X78450D01*
X75450Y258250D02*X76200Y257500D01*
X75450Y259750D02*Y258250D01*
Y259750D02*X76200Y260500D01*
X77700D01*
X78450Y259750D01*
X75450Y259000D02*X78450D01*
Y259750D02*Y259000D01*
X81000Y259750D02*Y257500D01*
Y259750D02*X81750Y260500D01*
X82500D01*
X83250Y259750D01*
Y257500D01*
X80250Y260500D02*X81000Y259750D01*
X85800Y263500D02*Y258250D01*
X86550Y257500D01*
X85050Y261250D02*X86550D01*
X93750Y263500D02*Y257500D01*
X93000D02*X93750Y258250D01*
X91500Y257500D02*X93000D01*
X90750Y258250D02*X91500Y257500D01*
X90750Y259750D02*Y258250D01*
Y259750D02*X91500Y260500D01*
X93000D01*
X93750Y259750D01*
X96300D02*Y257500D01*
Y259750D02*X97050Y260500D01*
X98550D01*
X95550D02*X96300Y259750D01*
G54D55*X100350Y262000D02*Y261850D01*
G54D54*Y259750D02*Y257500D01*
X101850Y263500D02*Y258250D01*
X102600Y257500D01*
X104100Y263500D02*Y258250D01*
X104850Y257500D01*
X109800D02*X112050D01*
X112800Y258250D01*
X112050Y259000D02*X112800Y258250D01*
X109800Y259000D02*X112050D01*
X109050Y259750D02*X109800Y259000D01*
X109050Y259750D02*X109800Y260500D01*
X112050D01*
X112800Y259750D01*
X109050Y258250D02*X109800Y257500D01*
G54D55*X114600Y262000D02*Y261850D01*
G54D54*Y259750D02*Y257500D01*
X116100Y260500D02*X119100D01*
X116100Y257500D02*X119100Y260500D01*
X116100Y257500D02*X119100D01*
X121650D02*X123900D01*
X120900Y258250D02*X121650Y257500D01*
X120900Y259750D02*Y258250D01*
Y259750D02*X121650Y260500D01*
X123150D01*
X123900Y259750D01*
X120900Y259000D02*X123900D01*
Y259750D02*Y259000D01*
X126450Y257500D02*X128700D01*
X129450Y258250D01*
X128700Y259000D02*X129450Y258250D01*
X126450Y259000D02*X128700D01*
X125700Y259750D02*X126450Y259000D01*
X125700Y259750D02*X126450Y260500D01*
X128700D01*
X129450Y259750D01*
X125700Y258250D02*X126450Y257500D01*
X133950Y260500D02*Y258250D01*
X134700Y257500D01*
X136200D01*
X136950Y258250D01*
Y260500D02*Y258250D01*
X139500Y257500D02*X141750D01*
X142500Y258250D01*
X141750Y259000D02*X142500Y258250D01*
X139500Y259000D02*X141750D01*
X138750Y259750D02*X139500Y259000D01*
X138750Y259750D02*X139500Y260500D01*
X141750D01*
X142500Y259750D01*
X138750Y258250D02*X139500Y257500D01*
X145050D02*X147300D01*
X144300Y258250D02*X145050Y257500D01*
X144300Y259750D02*Y258250D01*
Y259750D02*X145050Y260500D01*
X146550D01*
X147300Y259750D01*
X144300Y259000D02*X147300D01*
Y259750D02*Y259000D01*
X152100Y263500D02*Y257500D01*
X151350D02*X152100Y258250D01*
X149850Y257500D02*X151350D01*
X149100Y258250D02*X149850Y257500D01*
X149100Y259750D02*Y258250D01*
Y259750D02*X149850Y260500D01*
X151350D01*
X152100Y259750D01*
G54D55*X156600Y262000D02*Y261850D01*
G54D54*Y259750D02*Y257500D01*
X158850Y259750D02*Y257500D01*
Y259750D02*X159600Y260500D01*
X160350D01*
X161100Y259750D01*
Y257500D01*
X158100Y260500D02*X158850Y259750D01*
X166350Y263500D02*Y258250D01*
X167100Y257500D01*
X165600Y261250D02*X167100D01*
X168600Y263500D02*Y257500D01*
Y259750D02*X169350Y260500D01*
X170850D01*
X171600Y259750D01*
Y257500D01*
G54D55*X173400Y262000D02*Y261850D01*
G54D54*Y259750D02*Y257500D01*
X175650D02*X177900D01*
X178650Y258250D01*
X177900Y259000D02*X178650Y258250D01*
X175650Y259000D02*X177900D01*
X174900Y259750D02*X175650Y259000D01*
X174900Y259750D02*X175650Y260500D01*
X177900D01*
X178650Y259750D01*
X174900Y258250D02*X175650Y257500D01*
X183150Y263500D02*Y258250D01*
X183900Y257500D01*
X187650Y260500D02*X188400Y259750D01*
X186150Y260500D02*X187650D01*
X185400Y259750D02*X186150Y260500D01*
X185400Y259750D02*Y258250D01*
X186150Y257500D01*
X188400Y260500D02*Y258250D01*
X189150Y257500D01*
X186150D02*X187650D01*
X188400Y258250D01*
X190950Y260500D02*Y258250D01*
X191700Y257500D01*
X193950Y260500D02*Y256000D01*
X193200Y255250D02*X193950Y256000D01*
X191700Y255250D02*X193200D01*
X190950Y256000D02*X191700Y255250D01*
Y257500D02*X193200D01*
X193950Y258250D01*
X195750Y259750D02*Y258250D01*
Y259750D02*X196500Y260500D01*
X198000D01*
X198750Y259750D01*
Y258250D01*
X198000Y257500D02*X198750Y258250D01*
X196500Y257500D02*X198000D01*
X195750Y258250D02*X196500Y257500D01*
X200550Y260500D02*Y258250D01*
X201300Y257500D01*
X202800D01*
X203550Y258250D01*
Y260500D02*Y258250D01*
X206100Y263500D02*Y258250D01*
X206850Y257500D01*
X205350Y261250D02*X206850D01*
X208350Y256000D02*X209850Y257500D01*
X214350Y262750D02*X215100Y263500D01*
X216600D01*
X217350Y262750D01*
X216600Y257500D02*X217350Y258250D01*
X215100Y257500D02*X216600D01*
X214350Y258250D02*X215100Y257500D01*
Y260800D02*X216600D01*
X217350Y262750D02*Y261550D01*
Y260050D02*Y258250D01*
Y260050D02*X216600Y260800D01*
X217350Y261550D02*X216600Y260800D01*
X219150Y262300D02*X220350Y263500D01*
Y257500D01*
X219150D02*X221400D01*
X223200Y262300D02*X224400Y263500D01*
Y257500D01*
X223200D02*X225450D01*
X229950Y263500D02*Y257500D01*
Y259750D02*X230700Y260500D01*
X232200D01*
X232950Y259750D01*
Y257500D01*
X234750Y259750D02*Y258250D01*
Y259750D02*X235500Y260500D01*
X237000D01*
X237750Y259750D01*
Y258250D01*
X237000Y257500D02*X237750Y258250D01*
X235500Y257500D02*X237000D01*
X234750Y258250D02*X235500Y257500D01*
X239550Y263500D02*Y258250D01*
X240300Y257500D01*
X242550D02*X244800D01*
X241800Y258250D02*X242550Y257500D01*
X241800Y259750D02*Y258250D01*
Y259750D02*X242550Y260500D01*
X244050D01*
X244800Y259750D01*
X241800Y259000D02*X244800D01*
Y259750D02*Y259000D01*
X247350Y257500D02*X249600D01*
X250350Y258250D01*
X249600Y259000D02*X250350Y258250D01*
X247350Y259000D02*X249600D01*
X246600Y259750D02*X247350Y259000D01*
X246600Y259750D02*X247350Y260500D01*
X249600D01*
X250350Y259750D01*
X246600Y258250D02*X247350Y257500D01*
X255600Y263500D02*Y258250D01*
X256350Y257500D01*
X254850Y261250D02*X256350D01*
X257850Y259750D02*Y258250D01*
Y259750D02*X258600Y260500D01*
X260100D01*
X260850Y259750D01*
Y258250D01*
X260100Y257500D02*X260850Y258250D01*
X258600Y257500D02*X260100D01*
X257850Y258250D02*X258600Y257500D01*
X263400Y263500D02*Y258250D01*
X264150Y257500D01*
X262650Y261250D02*X264150D01*
X267900Y260500D02*X268650Y259750D01*
X266400Y260500D02*X267900D01*
X265650Y259750D02*X266400Y260500D01*
X265650Y259750D02*Y258250D01*
X266400Y257500D01*
X268650Y260500D02*Y258250D01*
X269400Y257500D01*
X266400D02*X267900D01*
X268650Y258250D01*
X271200Y263500D02*Y258250D01*
X271950Y257500D01*
G54D56*X0Y160000D02*X1000000D01*
X0D02*Y0D01*
X1000000Y160000D02*Y0D01*
X0D02*X1000000D01*
G54D54*X200000Y173500D02*Y167500D01*
Y173500D02*X202250Y170500D01*
X204500Y173500D01*
Y167500D01*
X208550Y170500D02*X209300Y169750D01*
X207050Y170500D02*X208550D01*
X206300Y169750D02*X207050Y170500D01*
X206300Y169750D02*Y168250D01*
X207050Y167500D01*
X209300Y170500D02*Y168250D01*
X210050Y167500D01*
X207050D02*X208550D01*
X209300Y168250D01*
X211850Y170500D02*X214850Y167500D01*
X211850D02*X214850Y170500D01*
G54D55*X216650Y172000D02*Y171850D01*
G54D54*Y169750D02*Y167500D01*
X218900Y169750D02*Y167500D01*
Y169750D02*X219650Y170500D01*
X220400D01*
X221150Y169750D01*
Y167500D01*
Y169750D02*X221900Y170500D01*
X222650D01*
X223400Y169750D01*
Y167500D01*
X218150Y170500D02*X218900Y169750D01*
X225200Y170500D02*Y168250D01*
X225950Y167500D01*
X227450D01*
X228200Y168250D01*
Y170500D02*Y168250D01*
X230750Y169750D02*Y167500D01*
Y169750D02*X231500Y170500D01*
X232250D01*
X233000Y169750D01*
Y167500D01*
Y169750D02*X233750Y170500D01*
X234500D01*
X235250Y169750D01*
Y167500D01*
X230000Y170500D02*X230750Y169750D01*
X240500Y173500D02*Y167500D01*
X242450Y173500D02*X243500Y172450D01*
Y168550D01*
X242450Y167500D02*X243500Y168550D01*
X239750Y167500D02*X242450D01*
X239750Y173500D02*X242450D01*
G54D55*X245300Y172000D02*Y171850D01*
G54D54*Y169750D02*Y167500D01*
X247550Y169750D02*Y167500D01*
Y169750D02*X248300Y170500D01*
X249050D01*
X249800Y169750D01*
Y167500D01*
Y169750D02*X250550Y170500D01*
X251300D01*
X252050Y169750D01*
Y167500D01*
X246800Y170500D02*X247550Y169750D01*
X254600Y167500D02*X256850D01*
X253850Y168250D02*X254600Y167500D01*
X253850Y169750D02*Y168250D01*
Y169750D02*X254600Y170500D01*
X256100D01*
X256850Y169750D01*
X253850Y169000D02*X256850D01*
Y169750D02*Y169000D01*
X259400Y169750D02*Y167500D01*
Y169750D02*X260150Y170500D01*
X260900D01*
X261650Y169750D01*
Y167500D01*
X258650Y170500D02*X259400Y169750D01*
X264200Y167500D02*X266450D01*
X267200Y168250D01*
X266450Y169000D02*X267200Y168250D01*
X264200Y169000D02*X266450D01*
X263450Y169750D02*X264200Y169000D01*
X263450Y169750D02*X264200Y170500D01*
X266450D01*
X267200Y169750D01*
X263450Y168250D02*X264200Y167500D01*
G54D55*X269000Y172000D02*Y171850D01*
G54D54*Y169750D02*Y167500D01*
X270500Y169750D02*Y168250D01*
Y169750D02*X271250Y170500D01*
X272750D01*
X273500Y169750D01*
Y168250D01*
X272750Y167500D02*X273500Y168250D01*
X271250Y167500D02*X272750D01*
X270500Y168250D02*X271250Y167500D01*
X276050Y169750D02*Y167500D01*
Y169750D02*X276800Y170500D01*
X277550D01*
X278300Y169750D01*
Y167500D01*
X275300Y170500D02*X276050Y169750D01*
X280850Y167500D02*X283100D01*
X283850Y168250D01*
X283100Y169000D02*X283850Y168250D01*
X280850Y169000D02*X283100D01*
X280100Y169750D02*X280850Y169000D01*
X280100Y169750D02*X280850Y170500D01*
X283100D01*
X283850Y169750D01*
X280100Y168250D02*X280850Y167500D01*
X285650Y171250D02*X286400D01*
X285650Y169750D02*X286400D01*
X290900Y172300D02*X292100Y173500D01*
Y167500D01*
X290900D02*X293150D01*
X294950Y168250D02*X295700Y167500D01*
X294950Y172750D02*Y168250D01*
Y172750D02*X295700Y173500D01*
X297200D01*
X297950Y172750D01*
Y168250D01*
X297200Y167500D02*X297950Y168250D01*
X295700Y167500D02*X297200D01*
X294950Y169000D02*X297950Y172000D01*
X299750Y168250D02*X300500Y167500D01*
X299750Y172750D02*Y168250D01*
Y172750D02*X300500Y173500D01*
X302000D01*
X302750Y172750D01*
Y168250D01*
X302000Y167500D02*X302750Y168250D01*
X300500Y167500D02*X302000D01*
X299750Y169000D02*X302750Y172000D01*
X304550Y168250D02*X305300Y167500D01*
X304550Y172750D02*Y168250D01*
Y172750D02*X305300Y173500D01*
X306800D01*
X307550Y172750D01*
Y168250D01*
X306800Y167500D02*X307550Y168250D01*
X305300Y167500D02*X306800D01*
X304550Y169000D02*X307550Y172000D01*
X309350Y168250D02*X310100Y167500D01*
X309350Y172750D02*Y168250D01*
Y172750D02*X310100Y173500D01*
X311600D01*
X312350Y172750D01*
Y168250D01*
X311600Y167500D02*X312350Y168250D01*
X310100Y167500D02*X311600D01*
X309350Y169000D02*X312350Y172000D01*
X314150Y167500D02*X314900D01*
X316700Y168250D02*X317450Y167500D01*
X316700Y172750D02*Y168250D01*
Y172750D02*X317450Y173500D01*
X318950D01*
X319700Y172750D01*
Y168250D01*
X318950Y167500D02*X319700Y168250D01*
X317450Y167500D02*X318950D01*
X316700Y169000D02*X319700Y172000D01*
X321500Y168250D02*X322250Y167500D01*
X321500Y172750D02*Y168250D01*
Y172750D02*X322250Y173500D01*
X323750D01*
X324500Y172750D01*
Y168250D01*
X323750Y167500D02*X324500Y168250D01*
X322250Y167500D02*X323750D01*
X321500Y169000D02*X324500Y172000D01*
X326300Y168250D02*X327050Y167500D01*
X326300Y172750D02*Y168250D01*
Y172750D02*X327050Y173500D01*
X328550D01*
X329300Y172750D01*
Y168250D01*
X328550Y167500D02*X329300Y168250D01*
X327050Y167500D02*X328550D01*
X326300Y169000D02*X329300Y172000D01*
X331100Y168250D02*X331850Y167500D01*
X331100Y172750D02*Y168250D01*
Y172750D02*X331850Y173500D01*
X333350D01*
X334100Y172750D01*
Y168250D01*
X333350Y167500D02*X334100Y168250D01*
X331850Y167500D02*X333350D01*
X331100Y169000D02*X334100Y172000D01*
X335900Y168250D02*X336650Y167500D01*
X335900Y172750D02*Y168250D01*
Y172750D02*X336650Y173500D01*
X338150D01*
X338900Y172750D01*
Y168250D01*
X338150Y167500D02*X338900Y168250D01*
X336650Y167500D02*X338150D01*
X335900Y169000D02*X338900Y172000D01*
X340700Y168250D02*X341450Y167500D01*
X340700Y172750D02*Y168250D01*
Y172750D02*X341450Y173500D01*
X342950D01*
X343700Y172750D01*
Y168250D01*
X342950Y167500D02*X343700Y168250D01*
X341450Y167500D02*X342950D01*
X340700Y169000D02*X343700Y172000D01*
X348950Y169750D02*Y167500D01*
Y169750D02*X349700Y170500D01*
X350450D01*
X351200Y169750D01*
Y167500D01*
Y169750D02*X351950Y170500D01*
X352700D01*
X353450Y169750D01*
Y167500D01*
X348200Y170500D02*X348950Y169750D01*
G54D55*X355250Y172000D02*Y171850D01*
G54D54*Y169750D02*Y167500D01*
X356750Y173500D02*Y168250D01*
X357500Y167500D01*
X359750D02*X362000D01*
X362750Y168250D01*
X362000Y169000D02*X362750Y168250D01*
X359750Y169000D02*X362000D01*
X359000Y169750D02*X359750Y169000D01*
X359000Y169750D02*X359750Y170500D01*
X362000D01*
X362750Y169750D01*
X359000Y168250D02*X359750Y167500D01*
X367250Y170500D02*Y168250D01*
X368000Y167500D01*
X368750D01*
X369500Y168250D01*
Y170500D02*Y168250D01*
X370250Y167500D01*
X371000D01*
X371750Y168250D01*
Y170500D02*Y168250D01*
G54D55*X373550Y172000D02*Y171850D01*
G54D54*Y169750D02*Y167500D01*
X378050Y173500D02*Y167500D01*
X377300D02*X378050Y168250D01*
X375800Y167500D02*X377300D01*
X375050Y168250D02*X375800Y167500D01*
X375050Y169750D02*Y168250D01*
Y169750D02*X375800Y170500D01*
X377300D01*
X378050Y169750D01*
X380600Y167500D02*X382850D01*
X379850Y168250D02*X380600Y167500D01*
X379850Y169750D02*Y168250D01*
Y169750D02*X380600Y170500D01*
X382100D01*
X382850Y169750D01*
X379850Y169000D02*X382850D01*
Y169750D02*Y169000D01*
X384650Y166000D02*X386150Y167500D01*
X390650Y172300D02*X391850Y173500D01*
Y167500D01*
X390650D02*X392900D01*
X396950Y173500D02*X397700Y172750D01*
X395450Y173500D02*X396950D01*
X394700Y172750D02*X395450Y173500D01*
X394700Y172750D02*Y168250D01*
X395450Y167500D01*
X396950Y170800D02*X397700Y170050D01*
X394700Y170800D02*X396950D01*
X395450Y167500D02*X396950D01*
X397700Y168250D01*
Y170050D02*Y168250D01*
X399500D02*X400250Y167500D01*
X399500Y172750D02*Y168250D01*
Y172750D02*X400250Y173500D01*
X401750D01*
X402500Y172750D01*
Y168250D01*
X401750Y167500D02*X402500Y168250D01*
X400250Y167500D02*X401750D01*
X399500Y169000D02*X402500Y172000D01*
X404300Y168250D02*X405050Y167500D01*
X404300Y172750D02*Y168250D01*
Y172750D02*X405050Y173500D01*
X406550D01*
X407300Y172750D01*
Y168250D01*
X406550Y167500D02*X407300Y168250D01*
X405050Y167500D02*X406550D01*
X404300Y169000D02*X407300Y172000D01*
X409100Y167500D02*X409850D01*
X411650Y168250D02*X412400Y167500D01*
X411650Y172750D02*Y168250D01*
Y172750D02*X412400Y173500D01*
X413900D01*
X414650Y172750D01*
Y168250D01*
X413900Y167500D02*X414650Y168250D01*
X412400Y167500D02*X413900D01*
X411650Y169000D02*X414650Y172000D01*
X416450Y168250D02*X417200Y167500D01*
X416450Y172750D02*Y168250D01*
Y172750D02*X417200Y173500D01*
X418700D01*
X419450Y172750D01*
Y168250D01*
X418700Y167500D02*X419450Y168250D01*
X417200Y167500D02*X418700D01*
X416450Y169000D02*X419450Y172000D01*
X421250Y168250D02*X422000Y167500D01*
X421250Y172750D02*Y168250D01*
Y172750D02*X422000Y173500D01*
X423500D01*
X424250Y172750D01*
Y168250D01*
X423500Y167500D02*X424250Y168250D01*
X422000Y167500D02*X423500D01*
X421250Y169000D02*X424250Y172000D01*
X426050Y168250D02*X426800Y167500D01*
X426050Y172750D02*Y168250D01*
Y172750D02*X426800Y173500D01*
X428300D01*
X429050Y172750D01*
Y168250D01*
X428300Y167500D02*X429050Y168250D01*
X426800Y167500D02*X428300D01*
X426050Y169000D02*X429050Y172000D01*
X430850Y168250D02*X431600Y167500D01*
X430850Y172750D02*Y168250D01*
Y172750D02*X431600Y173500D01*
X433100D01*
X433850Y172750D01*
Y168250D01*
X433100Y167500D02*X433850Y168250D01*
X431600Y167500D02*X433100D01*
X430850Y169000D02*X433850Y172000D01*
X435650Y168250D02*X436400Y167500D01*
X435650Y172750D02*Y168250D01*
Y172750D02*X436400Y173500D01*
X437900D01*
X438650Y172750D01*
Y168250D01*
X437900Y167500D02*X438650Y168250D01*
X436400Y167500D02*X437900D01*
X435650Y169000D02*X438650Y172000D01*
X443900Y169750D02*Y167500D01*
Y169750D02*X444650Y170500D01*
X445400D01*
X446150Y169750D01*
Y167500D01*
Y169750D02*X446900Y170500D01*
X447650D01*
X448400Y169750D01*
Y167500D01*
X443150Y170500D02*X443900Y169750D01*
G54D55*X450200Y172000D02*Y171850D01*
G54D54*Y169750D02*Y167500D01*
X451700Y173500D02*Y168250D01*
X452450Y167500D01*
X454700D02*X456950D01*
X457700Y168250D01*
X456950Y169000D02*X457700Y168250D01*
X454700Y169000D02*X456950D01*
X453950Y169750D02*X454700Y169000D01*
X453950Y169750D02*X454700Y170500D01*
X456950D01*
X457700Y169750D01*
X453950Y168250D02*X454700Y167500D01*
X462200Y173500D02*Y167500D01*
Y169750D02*X462950Y170500D01*
X464450D01*
X465200Y169750D01*
Y167500D01*
G54D55*X467000Y172000D02*Y171850D01*
G54D54*Y169750D02*Y167500D01*
X470750Y170500D02*X471500Y169750D01*
X469250Y170500D02*X470750D01*
X468500Y169750D02*X469250Y170500D01*
X468500Y169750D02*Y168250D01*
X469250Y167500D01*
X470750D01*
X471500Y168250D01*
X468500Y166000D02*X469250Y165250D01*
X470750D01*
X471500Y166000D01*
Y170500D02*Y166000D01*
X473300Y173500D02*Y167500D01*
Y169750D02*X474050Y170500D01*
X475550D01*
X476300Y169750D01*
Y167500D01*
X295625Y-9500D02*X298625D01*
X299375Y-8750D01*
Y-6950D02*Y-8750D01*
X298625Y-6200D02*X299375Y-6950D01*
X296375Y-6200D02*X298625D01*
X296375Y-3500D02*Y-9500D01*
X295625Y-3500D02*X298625D01*
X299375Y-4250D01*
Y-5450D01*
X298625Y-6200D02*X299375Y-5450D01*
X301175Y-7250D02*Y-8750D01*
Y-7250D02*X301925Y-6500D01*
X303425D01*
X304175Y-7250D01*
Y-8750D01*
X303425Y-9500D02*X304175Y-8750D01*
X301925Y-9500D02*X303425D01*
X301175Y-8750D02*X301925Y-9500D01*
X308225Y-6500D02*X308975Y-7250D01*
X306725Y-6500D02*X308225D01*
X305975Y-7250D02*X306725Y-6500D01*
X305975Y-7250D02*Y-8750D01*
X306725Y-9500D01*
X308975Y-6500D02*Y-8750D01*
X309725Y-9500D01*
X306725D02*X308225D01*
X308975Y-8750D01*
X312275Y-7250D02*Y-9500D01*
Y-7250D02*X313025Y-6500D01*
X314525D01*
X311525D02*X312275Y-7250D01*
X319325Y-3500D02*Y-9500D01*
X318575D02*X319325Y-8750D01*
X317075Y-9500D02*X318575D01*
X316325Y-8750D02*X317075Y-9500D01*
X316325Y-7250D02*Y-8750D01*
Y-7250D02*X317075Y-6500D01*
X318575D01*
X319325Y-7250D01*
X323825D02*Y-8750D01*
Y-7250D02*X324575Y-6500D01*
X326075D01*
X326825Y-7250D01*
Y-8750D01*
X326075Y-9500D02*X326825Y-8750D01*
X324575Y-9500D02*X326075D01*
X323825Y-8750D02*X324575Y-9500D01*
X328625Y-6500D02*Y-8750D01*
X329375Y-9500D01*
X330875D01*
X331625Y-8750D01*
Y-6500D02*Y-8750D01*
X334175Y-3500D02*Y-8750D01*
X334925Y-9500D01*
X333425Y-5750D02*X334925D01*
X336425Y-3500D02*Y-8750D01*
X337175Y-9500D01*
G54D55*X338675Y-5000D02*Y-5150D01*
G54D54*Y-7250D02*Y-9500D01*
X340925Y-7250D02*Y-9500D01*
Y-7250D02*X341675Y-6500D01*
X342425D01*
X343175Y-7250D01*
Y-9500D01*
X340175Y-6500D02*X340925Y-7250D01*
X345725Y-9500D02*X347975D01*
X344975Y-8750D02*X345725Y-9500D01*
X344975Y-7250D02*Y-8750D01*
Y-7250D02*X345725Y-6500D01*
X347225D01*
X347975Y-7250D01*
X344975Y-8000D02*X347975D01*
Y-7250D02*Y-8000D01*
G54D55*X352475Y-5000D02*Y-5150D01*
G54D54*Y-7250D02*Y-9500D01*
X354725D02*X356975D01*
X357725Y-8750D01*
X356975Y-8000D02*X357725Y-8750D01*
X354725Y-8000D02*X356975D01*
X353975Y-7250D02*X354725Y-8000D01*
X353975Y-7250D02*X354725Y-6500D01*
X356975D01*
X357725Y-7250D01*
X353975Y-8750D02*X354725Y-9500D01*
X362975Y-3500D02*Y-8750D01*
X363725Y-9500D01*
X362225Y-5750D02*X363725D01*
X365225Y-3500D02*Y-9500D01*
Y-7250D02*X365975Y-6500D01*
X367475D01*
X368225Y-7250D01*
Y-9500D01*
X370775D02*X373025D01*
X370025Y-8750D02*X370775Y-9500D01*
X370025Y-7250D02*Y-8750D01*
Y-7250D02*X370775Y-6500D01*
X372275D01*
X373025Y-7250D01*
X370025Y-8000D02*X373025D01*
Y-7250D02*Y-8000D01*
X378275Y-6500D02*X380525D01*
X377525Y-7250D02*X378275Y-6500D01*
X377525Y-7250D02*Y-8750D01*
X378275Y-9500D01*
X380525D01*
X383075D02*X385325D01*
X382325Y-8750D02*X383075Y-9500D01*
X382325Y-7250D02*Y-8750D01*
Y-7250D02*X383075Y-6500D01*
X384575D01*
X385325Y-7250D01*
X382325Y-8000D02*X385325D01*
Y-7250D02*Y-8000D01*
X387875Y-7250D02*Y-9500D01*
Y-7250D02*X388625Y-6500D01*
X389375D01*
X390125Y-7250D01*
Y-9500D01*
X387125Y-6500D02*X387875Y-7250D01*
X392675Y-3500D02*Y-8750D01*
X393425Y-9500D01*
X391925Y-5750D02*X393425D01*
X395675Y-9500D02*X397925D01*
X394925Y-8750D02*X395675Y-9500D01*
X394925Y-7250D02*Y-8750D01*
Y-7250D02*X395675Y-6500D01*
X397175D01*
X397925Y-7250D01*
X394925Y-8000D02*X397925D01*
Y-7250D02*Y-8000D01*
X400475Y-7250D02*Y-9500D01*
Y-7250D02*X401225Y-6500D01*
X402725D01*
X399725D02*X400475Y-7250D01*
X404525Y-3500D02*Y-8750D01*
X405275Y-9500D01*
G54D55*X406775Y-5000D02*Y-5150D01*
G54D54*Y-7250D02*Y-9500D01*
X409025Y-7250D02*Y-9500D01*
Y-7250D02*X409775Y-6500D01*
X410525D01*
X411275Y-7250D01*
Y-9500D01*
X408275Y-6500D02*X409025Y-7250D01*
X413825Y-9500D02*X416075D01*
X413075Y-8750D02*X413825Y-9500D01*
X413075Y-7250D02*Y-8750D01*
Y-7250D02*X413825Y-6500D01*
X415325D01*
X416075Y-7250D01*
X413075Y-8000D02*X416075D01*
Y-7250D02*Y-8000D01*
X420575Y-7250D02*Y-8750D01*
Y-7250D02*X421325Y-6500D01*
X422825D01*
X423575Y-7250D01*
Y-8750D01*
X422825Y-9500D02*X423575Y-8750D01*
X421325Y-9500D02*X422825D01*
X420575Y-8750D02*X421325Y-9500D01*
X426125Y-4250D02*Y-9500D01*
Y-4250D02*X426875Y-3500D01*
X427625D01*
X425375Y-6500D02*X426875D01*
X432575Y-3500D02*Y-8750D01*
X433325Y-9500D01*
X431825Y-5750D02*X433325D01*
X434825Y-3500D02*Y-9500D01*
Y-7250D02*X435575Y-6500D01*
X437075D01*
X437825Y-7250D01*
Y-9500D01*
G54D55*X439625Y-5000D02*Y-5150D01*
G54D54*Y-7250D02*Y-9500D01*
X441875D02*X444125D01*
X444875Y-8750D01*
X444125Y-8000D02*X444875Y-8750D01*
X441875Y-8000D02*X444125D01*
X441125Y-7250D02*X441875Y-8000D01*
X441125Y-7250D02*X441875Y-6500D01*
X444125D01*
X444875Y-7250D01*
X441125Y-8750D02*X441875Y-9500D01*
X449375Y-8750D02*X450125Y-9500D01*
X449375Y-7550D02*Y-8750D01*
Y-7550D02*X450425Y-6500D01*
X451325D01*
X452375Y-7550D01*
Y-8750D01*
X451625Y-9500D02*X452375Y-8750D01*
X450125Y-9500D02*X451625D01*
X449375Y-5450D02*X450425Y-6500D01*
X449375Y-4250D02*Y-5450D01*
Y-4250D02*X450125Y-3500D01*
X451625D01*
X452375Y-4250D01*
Y-5450D01*
X451325Y-6500D02*X452375Y-5450D01*
X454175Y-9500D02*X454925D01*
X456725Y-8750D02*X457475Y-9500D01*
X456725Y-4250D02*Y-8750D01*
Y-4250D02*X457475Y-3500D01*
X458975D01*
X459725Y-4250D01*
Y-8750D01*
X458975Y-9500D02*X459725Y-8750D01*
X457475Y-9500D02*X458975D01*
X456725Y-8000D02*X459725Y-5000D01*
X461525Y-8750D02*X462275Y-9500D01*
X461525Y-4250D02*Y-8750D01*
Y-4250D02*X462275Y-3500D01*
X463775D01*
X464525Y-4250D01*
Y-8750D01*
X463775Y-9500D02*X464525Y-8750D01*
X462275Y-9500D02*X463775D01*
X461525Y-8000D02*X464525Y-5000D01*
X466325Y-8750D02*X467075Y-9500D01*
X466325Y-4250D02*Y-8750D01*
Y-4250D02*X467075Y-3500D01*
X468575D01*
X469325Y-4250D01*
Y-8750D01*
X468575Y-9500D02*X469325Y-8750D01*
X467075Y-9500D02*X468575D01*
X466325Y-8000D02*X469325Y-5000D01*
X471125Y-8750D02*X471875Y-9500D01*
X471125Y-4250D02*Y-8750D01*
Y-4250D02*X471875Y-3500D01*
X473375D01*
X474125Y-4250D01*
Y-8750D01*
X473375Y-9500D02*X474125Y-8750D01*
X471875Y-9500D02*X473375D01*
X471125Y-8000D02*X474125Y-5000D01*
X475925Y-8750D02*X476675Y-9500D01*
X475925Y-4250D02*Y-8750D01*
Y-4250D02*X476675Y-3500D01*
X478175D01*
X478925Y-4250D01*
Y-8750D01*
X478175Y-9500D02*X478925Y-8750D01*
X476675Y-9500D02*X478175D01*
X475925Y-8000D02*X478925Y-5000D01*
X480725Y-8750D02*X481475Y-9500D01*
X480725Y-4250D02*Y-8750D01*
Y-4250D02*X481475Y-3500D01*
X482975D01*
X483725Y-4250D01*
Y-8750D01*
X482975Y-9500D02*X483725Y-8750D01*
X481475Y-9500D02*X482975D01*
X480725Y-8000D02*X483725Y-5000D01*
X488975Y-7250D02*Y-9500D01*
Y-7250D02*X489725Y-6500D01*
X490475D01*
X491225Y-7250D01*
Y-9500D01*
Y-7250D02*X491975Y-6500D01*
X492725D01*
X493475Y-7250D01*
Y-9500D01*
X488225Y-6500D02*X488975Y-7250D01*
G54D55*X495275Y-5000D02*Y-5150D01*
G54D54*Y-7250D02*Y-9500D01*
X496775Y-3500D02*Y-8750D01*
X497525Y-9500D01*
X502475Y-7250D02*Y-9500D01*
Y-7250D02*X503225Y-6500D01*
X504725D01*
X501725D02*X502475Y-7250D01*
X507275Y-9500D02*X509525D01*
X506525Y-8750D02*X507275Y-9500D01*
X506525Y-7250D02*Y-8750D01*
Y-7250D02*X507275Y-6500D01*
X508775D01*
X509525Y-7250D01*
X506525Y-8000D02*X509525D01*
Y-7250D02*Y-8000D01*
X512075Y-6500D02*X514325D01*
X511325Y-7250D02*X512075Y-6500D01*
X511325Y-7250D02*Y-8750D01*
X512075Y-9500D01*
X514325D01*
X516875Y-3500D02*Y-8750D01*
X517625Y-9500D01*
X516125Y-5750D02*X517625D01*
X521375Y-6500D02*X522125Y-7250D01*
X519875Y-6500D02*X521375D01*
X519125Y-7250D02*X519875Y-6500D01*
X519125Y-7250D02*Y-8750D01*
X519875Y-9500D01*
X522125Y-6500D02*Y-8750D01*
X522875Y-9500D01*
X519875D02*X521375D01*
X522125Y-8750D01*
X525425Y-7250D02*Y-9500D01*
Y-7250D02*X526175Y-6500D01*
X526925D01*
X527675Y-7250D01*
Y-9500D01*
X524675Y-6500D02*X525425Y-7250D01*
X531725Y-6500D02*X532475Y-7250D01*
X530225Y-6500D02*X531725D01*
X529475Y-7250D02*X530225Y-6500D01*
X529475Y-7250D02*Y-8750D01*
X530225Y-9500D01*
X531725D01*
X532475Y-8750D01*
X529475Y-11000D02*X530225Y-11750D01*
X531725D01*
X532475Y-11000D01*
Y-6500D02*Y-11000D01*
X534275Y-3500D02*Y-8750D01*
X535025Y-9500D01*
X537275D02*X539525D01*
X536525Y-8750D02*X537275Y-9500D01*
X536525Y-7250D02*Y-8750D01*
Y-7250D02*X537275Y-6500D01*
X538775D01*
X539525Y-7250D01*
X536525Y-8000D02*X539525D01*
Y-7250D02*Y-8000D01*
X544025Y-6500D02*X547025D01*
X551525Y-8750D02*X552275Y-9500D01*
X551525Y-4250D02*Y-8750D01*
Y-4250D02*X552275Y-3500D01*
X553775D01*
X554525Y-4250D01*
Y-8750D01*
X553775Y-9500D02*X554525Y-8750D01*
X552275Y-9500D02*X553775D01*
X551525Y-8000D02*X554525Y-5000D01*
X556325Y-11000D02*X557825Y-9500D01*
X559625Y-8750D02*X560375Y-9500D01*
X559625Y-4250D02*Y-8750D01*
Y-4250D02*X560375Y-3500D01*
X561875D01*
X562625Y-4250D01*
Y-8750D01*
X561875Y-9500D02*X562625Y-8750D01*
X560375Y-9500D02*X561875D01*
X559625Y-8000D02*X562625Y-5000D01*
X567875Y-3500D02*Y-8750D01*
X568625Y-9500D01*
X567125Y-5750D02*X568625D01*
X570125Y-7250D02*Y-8750D01*
Y-7250D02*X570875Y-6500D01*
X572375D01*
X573125Y-7250D01*
Y-8750D01*
X572375Y-9500D02*X573125Y-8750D01*
X570875Y-9500D02*X572375D01*
X570125Y-8750D02*X570875Y-9500D01*
X577625Y-4700D02*X578825Y-3500D01*
Y-9500D01*
X577625D02*X579875D01*
X581675Y-8750D02*X582425Y-9500D01*
X581675Y-4250D02*Y-8750D01*
Y-4250D02*X582425Y-3500D01*
X583925D01*
X584675Y-4250D01*
Y-8750D01*
X583925Y-9500D02*X584675Y-8750D01*
X582425Y-9500D02*X583925D01*
X581675Y-8000D02*X584675Y-5000D01*
X586475Y-8750D02*X587225Y-9500D01*
X586475Y-4250D02*Y-8750D01*
Y-4250D02*X587225Y-3500D01*
X588725D01*
X589475Y-4250D01*
Y-8750D01*
X588725Y-9500D02*X589475Y-8750D01*
X587225Y-9500D02*X588725D01*
X586475Y-8000D02*X589475Y-5000D01*
X591275Y-8750D02*X592025Y-9500D01*
X591275Y-4250D02*Y-8750D01*
Y-4250D02*X592025Y-3500D01*
X593525D01*
X594275Y-4250D01*
Y-8750D01*
X593525Y-9500D02*X594275Y-8750D01*
X592025Y-9500D02*X593525D01*
X591275Y-8000D02*X594275Y-5000D01*
X596075Y-8750D02*X596825Y-9500D01*
X596075Y-4250D02*Y-8750D01*
Y-4250D02*X596825Y-3500D01*
X598325D01*
X599075Y-4250D01*
Y-8750D01*
X598325Y-9500D02*X599075Y-8750D01*
X596825Y-9500D02*X598325D01*
X596075Y-8000D02*X599075Y-5000D01*
X600875Y-9500D02*X601625D01*
X603425Y-8750D02*X604175Y-9500D01*
X603425Y-4250D02*Y-8750D01*
Y-4250D02*X604175Y-3500D01*
X605675D01*
X606425Y-4250D01*
Y-8750D01*
X605675Y-9500D02*X606425Y-8750D01*
X604175Y-9500D02*X605675D01*
X603425Y-8000D02*X606425Y-5000D01*
X608225Y-8750D02*X608975Y-9500D01*
X608225Y-4250D02*Y-8750D01*
Y-4250D02*X608975Y-3500D01*
X610475D01*
X611225Y-4250D01*
Y-8750D01*
X610475Y-9500D02*X611225Y-8750D01*
X608975Y-9500D02*X610475D01*
X608225Y-8000D02*X611225Y-5000D01*
X613025Y-8750D02*X613775Y-9500D01*
X613025Y-4250D02*Y-8750D01*
Y-4250D02*X613775Y-3500D01*
X615275D01*
X616025Y-4250D01*
Y-8750D01*
X615275Y-9500D02*X616025Y-8750D01*
X613775Y-9500D02*X615275D01*
X613025Y-8000D02*X616025Y-5000D01*
X617825Y-8750D02*X618575Y-9500D01*
X617825Y-4250D02*Y-8750D01*
Y-4250D02*X618575Y-3500D01*
X620075D01*
X620825Y-4250D01*
Y-8750D01*
X620075Y-9500D02*X620825Y-8750D01*
X618575Y-9500D02*X620075D01*
X617825Y-8000D02*X620825Y-5000D01*
X622625Y-8750D02*X623375Y-9500D01*
X622625Y-4250D02*Y-8750D01*
Y-4250D02*X623375Y-3500D01*
X624875D01*
X625625Y-4250D01*
Y-8750D01*
X624875Y-9500D02*X625625Y-8750D01*
X623375Y-9500D02*X624875D01*
X622625Y-8000D02*X625625Y-5000D01*
X627425Y-8750D02*X628175Y-9500D01*
X627425Y-4250D02*Y-8750D01*
Y-4250D02*X628175Y-3500D01*
X629675D01*
X630425Y-4250D01*
Y-8750D01*
X629675Y-9500D02*X630425Y-8750D01*
X628175Y-9500D02*X629675D01*
X627425Y-8000D02*X630425Y-5000D01*
X632225Y-11000D02*X633725Y-9500D01*
X635525Y-4700D02*X636725Y-3500D01*
Y-9500D01*
X635525D02*X637775D01*
X641825Y-3500D02*X642575Y-4250D01*
X640325Y-3500D02*X641825D01*
X639575Y-4250D02*X640325Y-3500D01*
X639575Y-4250D02*Y-8750D01*
X640325Y-9500D01*
X641825Y-6200D02*X642575Y-6950D01*
X639575Y-6200D02*X641825D01*
X640325Y-9500D02*X641825D01*
X642575Y-8750D01*
Y-6950D02*Y-8750D01*
X644375D02*X645125Y-9500D01*
X644375Y-4250D02*Y-8750D01*
Y-4250D02*X645125Y-3500D01*
X646625D01*
X647375Y-4250D01*
Y-8750D01*
X646625Y-9500D02*X647375Y-8750D01*
X645125Y-9500D02*X646625D01*
X644375Y-8000D02*X647375Y-5000D01*
X649175Y-8750D02*X649925Y-9500D01*
X649175Y-4250D02*Y-8750D01*
Y-4250D02*X649925Y-3500D01*
X651425D01*
X652175Y-4250D01*
Y-8750D01*
X651425Y-9500D02*X652175Y-8750D01*
X649925Y-9500D02*X651425D01*
X649175Y-8000D02*X652175Y-5000D01*
X653975Y-9500D02*X654725D01*
X656525Y-8750D02*X657275Y-9500D01*
X656525Y-4250D02*Y-8750D01*
Y-4250D02*X657275Y-3500D01*
X658775D01*
X659525Y-4250D01*
Y-8750D01*
X658775Y-9500D02*X659525Y-8750D01*
X657275Y-9500D02*X658775D01*
X656525Y-8000D02*X659525Y-5000D01*
X661325Y-8750D02*X662075Y-9500D01*
X661325Y-4250D02*Y-8750D01*
Y-4250D02*X662075Y-3500D01*
X663575D01*
X664325Y-4250D01*
Y-8750D01*
X663575Y-9500D02*X664325Y-8750D01*
X662075Y-9500D02*X663575D01*
X661325Y-8000D02*X664325Y-5000D01*
X666125Y-8750D02*X666875Y-9500D01*
X666125Y-4250D02*Y-8750D01*
Y-4250D02*X666875Y-3500D01*
X668375D01*
X669125Y-4250D01*
Y-8750D01*
X668375Y-9500D02*X669125Y-8750D01*
X666875Y-9500D02*X668375D01*
X666125Y-8000D02*X669125Y-5000D01*
X670925Y-8750D02*X671675Y-9500D01*
X670925Y-4250D02*Y-8750D01*
Y-4250D02*X671675Y-3500D01*
X673175D01*
X673925Y-4250D01*
Y-8750D01*
X673175Y-9500D02*X673925Y-8750D01*
X671675Y-9500D02*X673175D01*
X670925Y-8000D02*X673925Y-5000D01*
X675725Y-8750D02*X676475Y-9500D01*
X675725Y-4250D02*Y-8750D01*
Y-4250D02*X676475Y-3500D01*
X677975D01*
X678725Y-4250D01*
Y-8750D01*
X677975Y-9500D02*X678725Y-8750D01*
X676475Y-9500D02*X677975D01*
X675725Y-8000D02*X678725Y-5000D01*
X680525Y-8750D02*X681275Y-9500D01*
X680525Y-4250D02*Y-8750D01*
Y-4250D02*X681275Y-3500D01*
X682775D01*
X683525Y-4250D01*
Y-8750D01*
X682775Y-9500D02*X683525Y-8750D01*
X681275Y-9500D02*X682775D01*
X680525Y-8000D02*X683525Y-5000D01*
X688775Y-7250D02*Y-9500D01*
Y-7250D02*X689525Y-6500D01*
X690275D01*
X691025Y-7250D01*
Y-9500D01*
Y-7250D02*X691775Y-6500D01*
X692525D01*
X693275Y-7250D01*
Y-9500D01*
X688025Y-6500D02*X688775Y-7250D01*
G54D55*X695075Y-5000D02*Y-5150D01*
G54D54*Y-7250D02*Y-9500D01*
X696575Y-3500D02*Y-8750D01*
X697325Y-9500D01*
X699575D02*X701825D01*
X702575Y-8750D01*
X701825Y-8000D02*X702575Y-8750D01*
X699575Y-8000D02*X701825D01*
X698825Y-7250D02*X699575Y-8000D01*
X698825Y-7250D02*X699575Y-6500D01*
X701825D01*
X702575Y-7250D01*
X698825Y-8750D02*X699575Y-9500D01*
X200750Y188500D02*Y182500D01*
X202700Y188500D02*X203750Y187450D01*
Y183550D01*
X202700Y182500D02*X203750Y183550D01*
X200000Y182500D02*X202700D01*
X200000Y188500D02*X202700D01*
X207800Y185500D02*X208550Y184750D01*
X206300Y185500D02*X207800D01*
X205550Y184750D02*X206300Y185500D01*
X205550Y184750D02*Y183250D01*
X206300Y182500D01*
X208550Y185500D02*Y183250D01*
X209300Y182500D01*
X206300D02*X207800D01*
X208550Y183250D01*
X211850Y188500D02*Y183250D01*
X212600Y182500D01*
X211100Y186250D02*X212600D01*
X214850Y182500D02*X217100D01*
X214100Y183250D02*X214850Y182500D01*
X214100Y184750D02*Y183250D01*
Y184750D02*X214850Y185500D01*
X216350D01*
X217100Y184750D01*
X214100Y184000D02*X217100D01*
Y184750D02*Y184000D01*
X218900Y186250D02*X219650D01*
X218900Y184750D02*X219650D01*
X224150Y188500D02*Y182500D01*
Y188500D02*X227150D01*
X224150Y185800D02*X226400D01*
X229700Y184750D02*Y182500D01*
Y184750D02*X230450Y185500D01*
X231950D01*
X228950D02*X229700Y184750D01*
G54D55*X233750Y187000D02*Y186850D01*
G54D54*Y184750D02*Y182500D01*
X237950Y187300D02*X239150Y188500D01*
Y182500D01*
X237950D02*X240200D01*
X242000Y183250D02*X242750Y182500D01*
X242000Y187750D02*Y183250D01*
Y187750D02*X242750Y188500D01*
X244250D01*
X245000Y187750D01*
Y183250D01*
X244250Y182500D02*X245000Y183250D01*
X242750Y182500D02*X244250D01*
X242000Y184000D02*X245000Y187000D01*
X250550Y188500D02*X251750D01*
Y183250D01*
X251000Y182500D02*X251750Y183250D01*
X250250Y182500D02*X251000D01*
X249500Y183250D02*X250250Y182500D01*
X249500Y184000D02*Y183250D01*
X255800Y185500D02*X256550Y184750D01*
X254300Y185500D02*X255800D01*
X253550Y184750D02*X254300Y185500D01*
X253550Y184750D02*Y183250D01*
X254300Y182500D01*
X256550Y185500D02*Y183250D01*
X257300Y182500D01*
X254300D02*X255800D01*
X256550Y183250D01*
X259850Y184750D02*Y182500D01*
Y184750D02*X260600Y185500D01*
X261350D01*
X262100Y184750D01*
Y182500D01*
X259100Y185500D02*X259850Y184750D01*
X266600Y187750D02*X267350Y188500D01*
X269600D01*
X270350Y187750D01*
Y186250D01*
X266600Y182500D02*X270350Y186250D01*
X266600Y182500D02*X270350D01*
X272150Y183250D02*X272900Y182500D01*
X272150Y187750D02*Y183250D01*
Y187750D02*X272900Y188500D01*
X274400D01*
X275150Y187750D01*
Y183250D01*
X274400Y182500D02*X275150Y183250D01*
X272900Y182500D02*X274400D01*
X272150Y184000D02*X275150Y187000D01*
X276950Y187300D02*X278150Y188500D01*
Y182500D01*
X276950D02*X279200D01*
X281000Y184750D02*X284000Y188500D01*
X281000Y184750D02*X284750D01*
X284000Y188500D02*Y182500D01*
X289250Y183250D02*X290000Y182500D01*
X289250Y187750D02*Y183250D01*
Y187750D02*X290000Y188500D01*
X291500D01*
X292250Y187750D01*
Y183250D01*
X291500Y182500D02*X292250Y183250D01*
X290000Y182500D02*X291500D01*
X289250Y184000D02*X292250Y187000D01*
X294800Y182500D02*X297050Y185500D01*
Y187750D02*Y185500D01*
X296300Y188500D02*X297050Y187750D01*
X294800Y188500D02*X296300D01*
X294050Y187750D02*X294800Y188500D01*
X294050Y187750D02*Y186250D01*
X294800Y185500D01*
X297050D01*
X298850Y186250D02*X299600D01*
X298850Y184750D02*X299600D01*
X301400D02*X304400Y188500D01*
X301400Y184750D02*X305150D01*
X304400Y188500D02*Y182500D01*
X306950Y187750D02*X307700Y188500D01*
X309950D01*
X310700Y187750D01*
Y186250D01*
X306950Y182500D02*X310700Y186250D01*
X306950Y182500D02*X310700D01*
X312500Y186250D02*X313250D01*
X312500Y184750D02*X313250D01*
X315050Y183250D02*X315800Y182500D01*
X315050Y187750D02*Y183250D01*
Y187750D02*X315800Y188500D01*
X317300D01*
X318050Y187750D01*
Y183250D01*
X317300Y182500D02*X318050Y183250D01*
X315800Y182500D02*X317300D01*
X315050Y184000D02*X318050Y187000D01*
X319850Y188500D02*X322850D01*
X319850D02*Y185500D01*
X320600Y186250D01*
X322100D01*
X322850Y185500D01*
Y183250D01*
X322100Y182500D02*X322850Y183250D01*
X320600Y182500D02*X322100D01*
X319850Y183250D02*X320600Y182500D01*
X328100Y188500D02*Y182500D01*
X327350Y188500D02*X330350D01*
X331100Y187750D01*
Y186250D01*
X330350Y185500D02*X331100Y186250D01*
X328100Y185500D02*X330350D01*
X332900Y188500D02*Y182500D01*
Y188500D02*X335150Y185500D01*
X337400Y188500D01*
Y182500D01*
X344900Y188500D02*X345650Y187750D01*
X342650Y188500D02*X344900D01*
X341900Y187750D02*X342650Y188500D01*
X341900Y187750D02*Y183250D01*
X342650Y182500D01*
X344900D01*
X345650Y183250D01*
Y184750D02*Y183250D01*
X344900Y185500D02*X345650Y184750D01*
X343400Y185500D02*X344900D01*
X347450Y188500D02*Y182500D01*
Y188500D02*X349700Y185500D01*
X351950Y188500D01*
Y182500D01*
X353750Y188500D02*X356750D01*
X355250D02*Y182500D01*
X361250Y188500D02*Y183250D01*
X362000Y182500D01*
X363500D01*
X364250Y183250D01*
Y188500D02*Y183250D01*
X366050Y188500D02*X369050D01*
X367550D02*Y182500D01*
X371900D02*X373850D01*
X370850Y183550D02*X371900Y182500D01*
X370850Y187450D02*Y183550D01*
Y187450D02*X371900Y188500D01*
X373850D01*
X200000Y202000D02*Y197500D01*
Y202000D02*X201050Y203500D01*
X202700D01*
X203750Y202000D01*
Y197500D01*
X200000Y200500D02*X203750D01*
X205550D02*Y198250D01*
X206300Y197500D01*
X207800D01*
X208550Y198250D01*
Y200500D02*Y198250D01*
X211100Y203500D02*Y198250D01*
X211850Y197500D01*
X210350Y201250D02*X211850D01*
X213350Y203500D02*Y197500D01*
Y199750D02*X214100Y200500D01*
X215600D01*
X216350Y199750D01*
Y197500D01*
X218150Y199750D02*Y198250D01*
Y199750D02*X218900Y200500D01*
X220400D01*
X221150Y199750D01*
Y198250D01*
X220400Y197500D02*X221150Y198250D01*
X218900Y197500D02*X220400D01*
X218150Y198250D02*X218900Y197500D01*
X223700Y199750D02*Y197500D01*
Y199750D02*X224450Y200500D01*
X225950D01*
X222950D02*X223700Y199750D01*
X227750Y201250D02*X228500D01*
X227750Y199750D02*X228500D01*
X233000Y203500D02*X234500Y197500D01*
X236000Y203500D01*
G54D55*X237800Y202000D02*Y201850D01*
G54D54*Y199750D02*Y197500D01*
X240050Y199750D02*Y197500D01*
Y199750D02*X240800Y200500D01*
X241550D01*
X242300Y199750D01*
Y197500D01*
X239300Y200500D02*X240050Y199750D01*
X244850Y200500D02*X247100D01*
X244100Y199750D02*X244850Y200500D01*
X244100Y199750D02*Y198250D01*
X244850Y197500D01*
X247100D01*
X249650D02*X251900D01*
X248900Y198250D02*X249650Y197500D01*
X248900Y199750D02*Y198250D01*
Y199750D02*X249650Y200500D01*
X251150D01*
X251900Y199750D01*
X248900Y199000D02*X251900D01*
Y199750D02*Y199000D01*
X254450Y199750D02*Y197500D01*
Y199750D02*X255200Y200500D01*
X255950D01*
X256700Y199750D01*
Y197500D01*
X253700Y200500D02*X254450Y199750D01*
X259250Y203500D02*Y198250D01*
X260000Y197500D01*
X258500Y201250D02*X260000D01*
X264200Y203500D02*Y200500D01*
X264950Y197500D01*
X266450Y200500D01*
X267950Y197500D01*
X268700Y200500D01*
Y203500D02*Y200500D01*
X271250Y197500D02*X273500D01*
X270500Y198250D02*X271250Y197500D01*
X270500Y199750D02*Y198250D01*
Y199750D02*X271250Y200500D01*
X272750D01*
X273500Y199750D01*
X270500Y199000D02*X273500D01*
Y199750D02*Y199000D01*
X277550Y200500D02*X278300Y199750D01*
X276050Y200500D02*X277550D01*
X275300Y199750D02*X276050Y200500D01*
X275300Y199750D02*Y198250D01*
X276050Y197500D01*
X278300Y200500D02*Y198250D01*
X279050Y197500D01*
X276050D02*X277550D01*
X278300Y198250D01*
X280850Y200500D02*X282350Y197500D01*
X283850Y200500D02*X282350Y197500D01*
X286400D02*X288650D01*
X285650Y198250D02*X286400Y197500D01*
X285650Y199750D02*Y198250D01*
Y199750D02*X286400Y200500D01*
X287900D01*
X288650Y199750D01*
X285650Y199000D02*X288650D01*
Y199750D02*Y199000D01*
X291200Y199750D02*Y197500D01*
Y199750D02*X291950Y200500D01*
X293450D01*
X290450D02*X291200Y199750D01*
X200000Y218500D02*X203000D01*
X201500D02*Y212500D01*
G54D55*X204800Y217000D02*Y216850D01*
G54D54*Y214750D02*Y212500D01*
X207050Y218500D02*Y213250D01*
X207800Y212500D01*
X206300Y216250D02*X207800D01*
X209300Y218500D02*Y213250D01*
X210050Y212500D01*
X212300D02*X214550D01*
X211550Y213250D02*X212300Y212500D01*
X211550Y214750D02*Y213250D01*
Y214750D02*X212300Y215500D01*
X213800D01*
X214550Y214750D01*
X211550Y214000D02*X214550D01*
Y214750D02*Y214000D01*
X216350Y216250D02*X217100D01*
X216350Y214750D02*X217100D01*
X221600Y213250D02*X222350Y212500D01*
X221600Y217750D02*X222350Y218500D01*
X221600Y217750D02*Y213250D01*
X224150Y215500D02*Y213250D01*
X224900Y212500D01*
X226400D01*
X227150Y213250D01*
Y215500D02*Y213250D01*
X229700Y214750D02*Y212500D01*
Y214750D02*X230450Y215500D01*
X231200D01*
X231950Y214750D01*
Y212500D01*
X228950Y215500D02*X229700Y214750D01*
X233750Y218500D02*Y212500D01*
Y214750D02*X236000Y212500D01*
X233750Y214750D02*X235250Y216250D01*
X238550Y214750D02*Y212500D01*
Y214750D02*X239300Y215500D01*
X240050D01*
X240800Y214750D01*
Y212500D01*
X237800Y215500D02*X238550Y214750D01*
X242600D02*Y213250D01*
Y214750D02*X243350Y215500D01*
X244850D01*
X245600Y214750D01*
Y213250D01*
X244850Y212500D02*X245600Y213250D01*
X243350Y212500D02*X244850D01*
X242600Y213250D02*X243350Y212500D01*
X247400Y215500D02*Y213250D01*
X248150Y212500D01*
X248900D01*
X249650Y213250D01*
Y215500D02*Y213250D01*
X250400Y212500D01*
X251150D01*
X251900Y213250D01*
Y215500D02*Y213250D01*
X254450Y214750D02*Y212500D01*
Y214750D02*X255200Y215500D01*
X255950D01*
X256700Y214750D01*
Y212500D01*
X253700Y215500D02*X254450Y214750D01*
X258500Y218500D02*X259250Y217750D01*
Y213250D01*
X258500Y212500D02*X259250Y213250D01*
X263750Y215500D02*X266750D01*
X271250Y218500D02*Y212500D01*
Y218500D02*X274250D01*
X271250Y215800D02*X273500D01*
X278300Y215500D02*X279050Y214750D01*
X276800Y215500D02*X278300D01*
X276050Y214750D02*X276800Y215500D01*
X276050Y214750D02*Y213250D01*
X276800Y212500D01*
X279050Y215500D02*Y213250D01*
X279800Y212500D01*
X276800D02*X278300D01*
X279050Y213250D01*
X281600Y218500D02*Y212500D01*
Y213250D02*X282350Y212500D01*
X283850D01*
X284600Y213250D01*
Y214750D02*Y213250D01*
X283850Y215500D02*X284600Y214750D01*
X282350Y215500D02*X283850D01*
X281600Y214750D02*X282350Y215500D01*
X287150Y214750D02*Y212500D01*
Y214750D02*X287900Y215500D01*
X289400D01*
X286400D02*X287150Y214750D01*
G54D55*X291200Y217000D02*Y216850D01*
G54D54*Y214750D02*Y212500D01*
X293450Y215500D02*X295700D01*
X292700Y214750D02*X293450Y215500D01*
X292700Y214750D02*Y213250D01*
X293450Y212500D01*
X295700D01*
X299750Y215500D02*X300500Y214750D01*
X298250Y215500D02*X299750D01*
X297500Y214750D02*X298250Y215500D01*
X297500Y214750D02*Y213250D01*
X298250Y212500D01*
X300500Y215500D02*Y213250D01*
X301250Y212500D01*
X298250D02*X299750D01*
X300500Y213250D01*
X303800Y218500D02*Y213250D01*
X304550Y212500D01*
X303050Y216250D02*X304550D01*
G54D55*X306050Y217000D02*Y216850D01*
G54D54*Y214750D02*Y212500D01*
X307550Y214750D02*Y213250D01*
Y214750D02*X308300Y215500D01*
X309800D01*
X310550Y214750D01*
Y213250D01*
X309800Y212500D02*X310550Y213250D01*
X308300Y212500D02*X309800D01*
X307550Y213250D02*X308300Y212500D01*
X313100Y214750D02*Y212500D01*
Y214750D02*X313850Y215500D01*
X314600D01*
X315350Y214750D01*
Y212500D01*
X312350Y215500D02*X313100Y214750D01*
X320600Y218500D02*Y212500D01*
X322550Y218500D02*X323600Y217450D01*
Y213550D01*
X322550Y212500D02*X323600Y213550D01*
X319850Y212500D02*X322550D01*
X319850Y218500D02*X322550D01*
X326150Y214750D02*Y212500D01*
Y214750D02*X326900Y215500D01*
X328400D01*
X325400D02*X326150Y214750D01*
X332450Y215500D02*X333200Y214750D01*
X330950Y215500D02*X332450D01*
X330200Y214750D02*X330950Y215500D01*
X330200Y214750D02*Y213250D01*
X330950Y212500D01*
X333200Y215500D02*Y213250D01*
X333950Y212500D01*
X330950D02*X332450D01*
X333200Y213250D01*
X335750Y215500D02*Y213250D01*
X336500Y212500D01*
X337250D01*
X338000Y213250D01*
Y215500D02*Y213250D01*
X338750Y212500D01*
X339500D01*
X340250Y213250D01*
Y215500D02*Y213250D01*
G54D55*X342050Y217000D02*Y216850D01*
G54D54*Y214750D02*Y212500D01*
X344300Y214750D02*Y212500D01*
Y214750D02*X345050Y215500D01*
X345800D01*
X346550Y214750D01*
Y212500D01*
X343550Y215500D02*X344300Y214750D01*
X350600Y215500D02*X351350Y214750D01*
X349100Y215500D02*X350600D01*
X348350Y214750D02*X349100Y215500D01*
X348350Y214750D02*Y213250D01*
X349100Y212500D01*
X350600D01*
X351350Y213250D01*
X348350Y211000D02*X349100Y210250D01*
X350600D01*
X351350Y211000D01*
Y215500D02*Y211000D01*
M02*
