M48
INCH
T36C0.020
T35C0.038
T34C0.028
T33C0.035
%
T36
X004450Y002700
X006550Y003050
X004050Y013100
X004950Y013900
X006700Y013500
X006450Y005500
X006425Y001600
X003600Y000300
X003050Y000900
X045850Y010350
X044500Y008900
X044650Y012350
X044400Y010850
X042700Y010500
X042475Y012000
X041475Y012000
X042500Y009600
X041475Y010575
X031750Y002350
X051950Y004150
X047750Y008950
X048300Y009950
X046600Y009250
X040600Y007850
X024750Y010400
X024100Y014075
X022700Y010050
X024250Y010900
X025450Y013450
X027000Y001700
X027000Y002700
X026850Y003800
X019100Y013975
X017900Y013500
X019650Y006050
X022700Y004150
X021200Y005050
X021200Y003050
X013850Y001500
X014000Y002700
X009050Y010950
X009400Y013900
X008750Y001500
X008750Y006200
X010600Y002050
X009450Y003050
X010100Y003050
X008375Y012150
X036750Y004350
X035800Y009650
X031400Y003750
X035800Y008350
X031750Y008350
X035450Y013575
X038400Y008350
X039550Y011850
X039550Y009800
X035950Y013225
X057500Y008600
X055550Y009450
X058500Y012250
X053300Y008600
X055200Y008950
X053550Y015000
X053300Y009950
X053300Y009300
X059550Y008600
X053300Y007750
X061500Y009650
X060500Y008950
X062600Y008450
X062100Y008950
X066650Y008250
X065950Y008600
X065800Y009300
X064600Y006050
X065300Y009650
X064550Y010650
X064300Y007750
X062400Y010350
X061400Y000550
X063300Y003750
X058100Y001700
X062150Y004100
X056300Y004150
X057750Y007600
X066300Y009350
X081350Y009350
X067500Y014000
X065800Y013800
X067000Y015050
X067000Y013800
X066450Y015400
X066300Y011350
X066300Y013450
X065950Y015750
X065450Y014900
X067000Y010700
X077600Y004100
T34
X083000Y006550
X082000Y006550
X068000Y006000
X067000Y006000
X083000Y009500
X082000Y009500
X068000Y010000
X067000Y010000
T33
X012100Y012050
X012100Y011050
X012100Y010050
X012100Y009050
X012100Y008050
X012100Y007050
X012100Y006050
X017100Y006050
X012100Y005050
X017100Y005050
X012100Y004050
X017100Y004050
X017100Y007050
X017100Y008050
X017100Y009050
X017100Y010050
X017100Y011050
X017100Y012050
X018500Y012050
X018500Y011050
X018500Y010050
X018500Y009050
X018500Y008050
X018500Y007050
X018500Y006050
X018500Y005050
X018500Y004050
X023500Y011050
X023500Y012050
X005700Y012050
X010700Y012050
X085950Y005100
X086950Y005100
X087950Y005100
X088950Y005100
X089950Y005100
X090950Y005100
X091950Y005100
X092950Y005100
X093950Y005100
X093950Y011100
X092950Y011100
X091950Y011100
X090950Y011100
X089950Y011100
X088950Y011100
X087950Y011100
X086950Y011100
X085950Y011100
X070950Y005100
X071950Y005100
X072950Y005100
X073950Y005100
X074950Y005100
X075950Y005100
X076950Y005100
X077950Y005100
X078950Y005100
X078950Y011100
X077950Y011100
X076950Y011100
X075950Y011100
X074950Y011100
X073950Y011100
X072950Y011100
X071950Y011100
X070950Y011100
X030950Y005100
X031950Y005100
X032950Y005100
X033950Y005100
X034950Y005100
X035950Y005100
X036950Y005100
X037950Y005100
X038950Y005100
X023500Y004050
X023500Y005050
X023500Y006050
X023500Y007050
X023500Y008050
X023500Y009050
X023500Y010050
X038950Y011100
X037950Y011100
X036950Y011100
X035950Y011100
X034950Y011100
X033950Y011100
X032950Y011100
X031950Y011100
X030950Y011100
X005700Y011050
X005700Y010050
X005700Y009050
X005700Y008050
X005700Y007050
X005700Y006050
X005700Y005050
X005700Y004050
X004300Y003500
X004300Y004500
X004300Y005500
X004300Y006500
X004300Y007500
X004300Y008500
X004300Y009500
X004300Y010500
X004300Y011500
X004300Y012500
X010700Y004050
X010700Y005050
X010700Y006050
X010700Y007050
X010700Y008050
X010700Y009050
X010700Y010050
X010700Y011050
X007300Y012500
X007300Y011500
X007300Y010500
X007300Y009500
X007300Y008500
X007300Y007500
X007300Y006500
X007300Y005500
X007300Y004500
X007300Y003500
X050000Y013550
X051000Y013550
X052000Y013550
X053000Y013550
X054000Y013550
X055000Y013550
X056000Y013550
X057000Y013550
X058000Y013550
X059000Y013550
X060000Y013550
X061000Y013550
X062000Y013550
X063000Y013550
X063950Y011100
X062950Y011100
X061950Y011100
X063000Y006550
X062000Y006550
X061000Y006550
X060000Y006550
X059000Y006550
X058000Y006550
X057000Y006550
X056950Y005100
X057950Y005100
X056000Y006550
X055950Y005100
X058950Y005100
X059950Y005100
X060950Y005100
X061950Y005100
X062950Y005100
X063950Y005100
X055000Y006550
X054000Y006550
X053000Y006550
X052000Y006550
X051000Y006550
X050000Y006550
X045950Y005100
X046950Y005100
X047950Y005100
X048950Y005100
X049950Y005100
X050950Y005100
X051950Y005100
X052950Y005100
X053950Y005100
X060950Y011100
X059950Y011100
X058950Y011100
X057950Y011100
X056950Y011100
X055950Y011100
X053950Y011100
X052950Y011100
X051950Y011100
X050950Y011100
X049950Y011100
X048950Y011100
X047950Y011100
X046950Y011100
X045950Y011100
T35
X041050Y002550
X042050Y002550
X043050Y002550
X044050Y002550
X041050Y013450
X042050Y013450
X043050Y013450
X044050Y013450
M30
