G04 start of page 2 for group 0 idx 0 *
G04 Title: (unknown), top *
G04 Creator: pcb 20110918 *
G04 CreationDate: Fri 10 Jan 2014 09:42:05 PM GMT UTC *
G04 For: vince *
G04 Format: Gerber/RS-274X *
G04 PCB-Dimensions: 1000000 160000 *
G04 PCB-Coordinate-Origin: lower left *
%MOIN*%
%FSLAX25Y25*%
%LNTOP*%
%ADD21C,0.0380*%
%ADD20C,0.1250*%
%ADD19C,0.0280*%
%ADD18C,0.0350*%
%ADD17C,0.0200*%
%ADD16C,0.0400*%
%ADD15C,0.0700*%
%ADD14C,0.0001*%
%ADD13C,0.0600*%
%ADD12C,0.0250*%
%ADD11C,0.0100*%
G54D11*X813500Y93500D02*X663000D01*
X739500Y109500D02*Y105750D01*
X742250Y103000D02*X739500Y105750D01*
X768750Y105000D02*X755750D01*
X755000Y105750D02*X755750Y105000D01*
X759500Y116250D02*X732250Y143500D01*
X759500Y116250D02*Y109500D01*
X755000Y115250D02*X753250Y117000D01*
X710250D01*
X719500Y109500D02*Y105750D01*
X724250Y101000D02*X719500Y105750D01*
X817500Y82500D02*X666500D01*
X830000Y65500D02*X825000Y70500D01*
X820000Y65500D02*X675500D01*
X869250D02*X830000D01*
X759500Y57000D02*Y52500D01*
Y57000D02*X739500D01*
X761500Y59000D02*X759500Y57000D01*
Y49500D01*
X779500D02*Y45000D01*
Y49500D02*Y45000D01*
X719500Y57000D02*X686250D01*
X685000Y55750D02*X684250Y55000D01*
X825000Y70500D02*X669000D01*
X877250Y79000D02*X663750D01*
X784250Y121000D02*X779500Y116250D01*
Y109500D01*
X789500Y105750D02*X786750Y103000D01*
X789500Y116250D02*Y112500D01*
X896500Y105000D02*X886500Y95000D01*
X896500Y109500D02*Y105000D01*
X899500Y109500D02*X896500D01*
X894000Y105750D02*X893250Y105000D01*
X830000Y95000D02*X817500Y82500D01*
X869500Y109500D02*Y105750D01*
X893250Y105000D02*X880250D01*
X879500Y109500D02*Y105750D01*
X880250Y105000D02*X879500Y105750D01*
X869500D02*X864750Y101000D01*
X886500Y95000D02*X830000D01*
X869500Y59000D02*X761500D01*
X781500Y43000D02*X779500Y45000D01*
X926750Y43000D02*X781500D01*
X934000Y56250D02*Y45750D01*
X929250Y41000D02*X776000D01*
X898750Y45000D02*X860250D01*
X859500Y45750D02*X860250Y45000D01*
X864750Y101000D02*X724250D01*
X755000Y115250D02*Y105750D01*
X769500D02*X768750Y105000D01*
X769500Y109500D02*Y105750D01*
X790250Y117000D02*X789500Y116250D01*
Y109500D02*Y105750D01*
X786750Y103000D02*X742250D01*
X889500Y117000D02*X790250D01*
X917250D02*X905000D01*
X895750D01*
X928750D02*X917250D01*
X889500D02*Y109500D01*
X896500Y111000D02*X898000Y112500D01*
X899500D01*
X889500Y117000D02*Y112500D01*
X894000Y115250D02*Y105750D01*
X939250Y121000D02*X784250D01*
X929500Y105750D02*X930250Y105000D01*
X936750Y119000D02*X891500D01*
X909500Y105750D02*X869250Y65500D01*
X901750Y59000D02*X869500D01*
X905000Y106750D02*X877250Y79000D01*
X901750Y59000D02*X869500D01*
X859500Y49500D02*Y45750D01*
X869500Y59000D02*Y49500D01*
X879500Y56250D02*Y49500D01*
X880250Y57000D02*X879500Y56250D01*
X929500Y109500D02*Y105750D01*
Y116250D02*X928750Y117000D01*
X929500Y116250D02*Y109500D01*
X891500Y119000D02*X889500Y117000D01*
X917250D02*X905000D01*
X895750D02*X894000Y115250D01*
X939500Y116250D02*X936750Y119000D01*
X939500Y116250D02*Y109500D01*
X944000Y105750D02*X943250Y105000D01*
X939250Y121000D02*X944000Y116250D01*
Y105750D01*
X909500Y109500D02*Y105750D01*
X905000Y117000D02*Y106750D01*
X896500Y109500D02*Y111000D01*
X899500D01*
X943250Y105000D02*X930250D01*
X899500Y45750D02*X898750Y45000D01*
X928750Y57000D02*X880250D01*
X899500Y49500D02*Y45750D01*
X934000D02*X929250Y41000D01*
X929500Y45750D02*X926750Y43000D01*
X929500Y49500D02*Y45750D01*
X931250Y59000D02*X934000Y56250D01*
X931250Y59000D02*X901750D01*
X928750Y57000D02*X929500Y56250D01*
Y52500D01*
X659500Y86000D02*Y80000D01*
X663000Y79750D02*X663750Y79000D01*
X662250Y89500D02*X655250D01*
X653000Y91750D02*X655250Y89500D01*
X675000Y136000D02*X673500Y134500D01*
X675000Y140000D02*Y136000D01*
X673500Y140750D02*X672750Y141500D01*
X673500Y140750D02*Y134500D01*
X645500Y106500D02*Y80000D01*
X643000Y77500D01*
X649000Y112000D02*Y69000D01*
X686250Y57000D02*X685000Y55750D01*
X684250Y55000D02*X663000D01*
X729500Y49500D02*Y45000D01*
X779500D02*X729500D01*
X629500D01*
Y49500D02*Y45000D01*
X739500Y57000D02*X719500D01*
Y49500D01*
X739500Y57000D02*X719500D01*
X670000Y138000D02*Y107000D01*
X673500Y134500D02*Y103500D01*
X670000Y100000D01*
X710250Y117000D02*X709500Y116250D01*
Y112500D01*
X732250Y143500D02*X653750D01*
X623000Y54250D02*X621250Y52500D01*
X624000Y130000D02*Y103500D01*
X628250Y59500D02*X623000Y54250D01*
X629500Y81750D02*X621250Y73500D01*
X639500Y88500D02*X622500Y71500D01*
X646000Y60500D02*X645000Y59500D01*
X628250D01*
X675500Y65500D02*X670000Y60000D01*
X663000Y55000D02*X649500Y68500D01*
X659500Y80000D02*X669000Y70500D01*
G54D12*X404000Y128000D02*X79625D01*
G54D11*X321500Y125000D02*X191000D01*
X179000D02*X183500Y120500D01*
X237500Y143500D02*Y138000D01*
X254500Y134500D02*X241000D01*
X191000Y125000D02*X186500Y120500D01*
X358250Y131000D02*X40500D01*
X105500Y121500D02*Y120500D01*
X359500Y45250D02*X383750Y21000D01*
X373500Y19000D02*X349500Y43000D01*
X58500Y59500D02*Y60500D01*
Y59500D02*Y60500D01*
Y59500D02*Y60500D01*
X233500Y41250D02*Y40500D01*
Y41250D02*Y40500D01*
Y41250D02*Y40500D01*
X105500Y69500D02*Y70500D01*
Y69500D02*Y70500D01*
X108500Y47500D02*Y50500D01*
Y47500D02*Y50500D01*
X172500Y110500D02*Y106000D01*
X236500D02*X172500D01*
X113000D01*
X379500Y116250D02*Y112500D01*
X331000Y103000D02*X325875D01*
X108500Y97500D02*Y100500D01*
Y97500D02*Y100500D01*
X94000Y139000D02*X49500D01*
X179000Y135000D02*X67000D01*
X37000Y133750D02*Y121250D01*
X127000Y125000D02*X122500Y120500D01*
X80250Y122500D02*X78250Y120500D01*
X81000Y125000D02*X80250Y124250D01*
G54D12*X79625Y128000D02*X77500Y125875D01*
G54D11*X105500Y121500D02*Y120500D01*
Y121500D02*Y120500D01*
X51000Y116750D02*X48250Y119500D01*
X67000Y111250D02*X63250Y115000D01*
X79000Y108750D02*X78250Y109500D01*
X177000Y34000D02*X83750D01*
X77250Y40500D02*X79000Y38750D01*
X102000Y44000D02*X105500Y40500D01*
X102000Y44000D02*X83750D01*
X77250Y40500D02*X58500D01*
X212000Y50500D02*X186500D01*
X208500Y27000D02*X140000D01*
X183500Y40500D02*X177000Y34000D01*
X169500Y40500D02*X165000Y36000D01*
X227000Y100500D02*X186500D01*
X122500Y90500D02*Y86000D01*
X186500D02*X122500D01*
X186500Y90500D02*Y86000D01*
X79000Y104500D02*Y99500D01*
X122500Y86000D02*X92500D01*
X55500Y90500D02*X50000Y85000D01*
X44500D01*
X62250Y90500D02*X58500D01*
X77250Y50500D02*X79000Y48750D01*
X77250Y50500D02*X67750D01*
X105500Y70500D02*Y69500D01*
X65750D01*
X64500Y55000D02*Y53750D01*
X61250Y65000D02*X51750D01*
X49000Y62250D02*Y45750D01*
X165000Y36000D02*X113000D01*
X229750Y45000D02*X177000D01*
X169500Y70500D02*X165000Y66000D01*
X113000D01*
X229000D02*X177000D01*
X172500Y70500D01*
X333250Y45000D02*X315750D01*
X314000Y37500D02*X289500D01*
X272500Y20500D01*
X108500Y100500D02*Y97500D01*
X74500Y62000D02*Y65000D01*
X73000D01*
X229000Y96000D02*X177000D01*
X105500Y121500D02*Y120500D01*
Y121500D02*X83750D01*
X165000Y116000D02*X113000D01*
G54D12*X73000Y125000D02*X71500D01*
G54D11*X105500Y121500D02*Y120500D01*
X169500D02*X165000Y116000D01*
X229000D02*X177000D01*
X48250Y45000D02*X44500D01*
X49000Y45750D02*X48250Y45000D01*
X79000Y108750D02*Y104500D01*
Y99500D02*X67750D01*
X63000Y94750D02*Y91250D01*
X169500Y100500D02*X165000Y96000D01*
X110000D01*
X55500Y110500D02*X50000D01*
X105500Y69500D02*Y70500D01*
Y69500D02*Y70500D01*
X113000Y66000D02*X108500Y70500D01*
Y47500D02*Y50500D01*
Y47500D02*Y50500D01*
X58500Y59500D02*Y60500D01*
Y59500D02*Y60500D01*
X51750Y65000D02*X49000Y62250D01*
X63000Y66750D02*X61250Y65000D01*
X65750Y69500D02*X63000Y66750D01*
X115000Y125000D02*X119500Y120500D01*
X108500Y90500D02*X101750D01*
X108500Y110500D02*X113000Y106000D01*
X108500Y97500D02*Y100500D01*
G54D12*X77500Y125875D02*Y125750D01*
X73000Y125000D01*
G54D11*X115000D02*X81000D01*
X179000D02*X127000D01*
X74500D02*X73000D01*
X80250Y124250D02*Y122500D01*
X78250Y120500D02*X58500D01*
X38750Y100500D02*X37000Y98750D01*
X37750Y115000D02*X33000Y110250D01*
X44500Y115000D02*X37750D01*
Y105000D02*X35000Y102250D01*
X44500Y105000D02*X37750D01*
X51000Y103250D02*X48250Y100500D01*
X51750Y105000D02*X51000Y104250D01*
X50000Y110500D02*X44500Y105000D01*
X55500Y100500D02*X50000Y95000D01*
X44500D01*
X74500Y105000D02*X51750D01*
X90500Y109500D02*Y101750D01*
X48250Y119500D02*X38750D01*
X37000Y121250D02*X38750Y119500D01*
X44500Y35000D02*Y27000D01*
X38500Y19500D02*X37000Y21000D01*
Y44500D02*Y21000D01*
X64250Y19500D02*Y16000D01*
X87500Y62000D02*X74500D01*
Y65000D02*Y62000D01*
X66000Y80500D02*X71500Y75000D01*
X66000Y80500D02*X58500D01*
X84000Y59250D02*X83750Y59500D01*
X92500Y86000D02*X79000Y99500D01*
X122500Y56000D02*X87250D01*
X58500Y60500D02*Y59500D01*
X37000Y70500D02*Y44500D01*
X55500Y70500D02*X37000D01*
Y44500D01*
X35000Y102250D02*Y16750D01*
X33000Y110250D02*Y15500D01*
X239250Y55000D02*X135250D01*
X196500Y60500D02*X186500D01*
X272500Y20500D02*X106000D01*
X122500Y60500D02*Y56000D01*
X169500Y80500D02*X165000Y76000D01*
X113000D01*
X229000D02*X177000D01*
X105500Y69500D02*Y70500D01*
X126250Y46000D02*X110000D01*
X108500Y50500D02*Y47500D01*
X138500Y15000D02*X87500D01*
X94500Y30500D02*X65500D01*
X101000D02*X90000Y19500D01*
X108500Y47500D02*Y50500D01*
X633000Y37500D02*Y18250D01*
X629500Y32500D02*X606000Y9000D01*
X629500Y45000D02*Y32500D01*
X604000Y33750D02*X581750Y11500D01*
X609500Y45750D02*X614250Y41000D01*
X559500Y45750D02*X532750Y19000D01*
X469500Y49500D02*Y45000D01*
X509500Y45750D02*X508750Y45000D01*
X514500Y46250D02*X493750Y25500D01*
X509500Y49500D02*Y45750D01*
X579500Y49500D02*X575500D01*
X529500D02*X525500D01*
X584500Y46250D02*X579750Y41500D01*
X469500Y45000D02*X451750D01*
X508750D02*X469500D01*
G54D12*X500000Y139750D02*Y137000D01*
G54D11*X528750Y146500D02*X534500Y140750D01*
X520750Y144500D02*X524500Y140750D01*
G54D12*X500000Y139750D02*Y137000D01*
G54D11*X570000Y134000D02*Y130250D01*
X569250Y129500D02*X536250D01*
X570000Y130250D02*X569250Y129500D01*
X522000Y134000D02*X520000Y135500D01*
G54D12*X500000Y137000D02*Y135500D01*
G54D11*X524500Y140750D02*Y131250D01*
X522000Y134000D02*Y130500D01*
X510000Y134000D02*Y130250D01*
X503250Y123500D02*X446500D01*
X486500Y105000D02*Y103000D01*
Y105000D02*X465500D01*
X459500Y111000D01*
X529500Y109500D02*Y103000D01*
Y109500D02*Y103000D01*
X520250Y117000D02*X519500Y116250D01*
Y105750D02*X516750Y103000D01*
X519500Y109500D02*Y105750D01*
X486500Y96750D02*X485750Y96000D01*
X486500Y103000D02*Y96750D01*
X466500Y93000D02*X466000Y92500D01*
X502250Y93000D02*X466500D01*
X555500D02*X533000D01*
X599500Y52500D02*X595500Y56500D01*
X609500Y49500D02*Y45750D01*
X611250Y57000D02*X605750D01*
X604000Y55250D01*
Y33750D01*
X595500Y86000D02*Y56500D01*
X590000Y64000D02*X584500Y58500D01*
Y46250D01*
X584750Y76000D02*X590000Y70750D01*
Y67000D01*
X610000Y70750D02*Y64000D01*
X605500Y72500D02*X600000Y67000D01*
X575500Y69750D02*Y49500D01*
X620000Y70750D02*Y67000D01*
X618250Y64000D02*X620000Y65500D01*
X618250Y67000D01*
X620000D01*
Y65500D02*Y64000D01*
Y67000D02*Y65500D01*
X579750Y41500D02*X563000D01*
X559500Y49500D02*Y45750D01*
X569500Y54000D02*X566500Y57000D01*
X563250D01*
X577500Y76000D02*X534500D01*
X584750D02*X577500D01*
X575500Y69750D02*X573750Y71500D01*
X550750D01*
X560000Y64000D02*Y60250D01*
X550750Y71500D02*X550000Y70750D01*
Y60250D02*X549250Y59500D01*
X550000Y64000D02*Y60250D01*
Y70750D02*Y67000D01*
X560000Y60250D02*X563250Y57000D01*
X532750Y59500D02*X529500Y56250D01*
Y67000D02*X530000Y65500D01*
X529500Y64000D01*
X530000D01*
X529500Y103000D02*Y67000D01*
X525500Y69750D02*X502250Y93000D01*
X525500Y69750D02*Y49500D01*
X519500D02*Y41500D01*
X549250Y59500D02*X532750D01*
X529500Y56250D02*Y52500D01*
X534500Y76000D02*X533000Y77500D01*
X510000Y60250D02*X506750Y57000D01*
X630000Y131000D02*X649000Y112000D01*
X630000Y134000D02*Y131000D01*
X663000Y134500D02*Y113500D01*
X639500Y109500D02*Y88500D01*
X653000Y96500D02*Y91750D01*
X663000Y88750D02*X662250Y89500D01*
X663000Y88750D02*Y79750D01*
X629500Y109500D02*Y81750D01*
X658000Y138000D02*Y93000D01*
X649500Y68500D02*X649000Y69000D01*
X622500Y71500D02*X620750D01*
X621250Y73500D02*X612750D01*
X617500Y86000D02*X605500Y74000D01*
Y72500D01*
X612750Y73500D02*X610000Y70750D01*
X620750Y71500D02*X620000Y70750D01*
X621500Y41000D02*X614250D01*
X629500Y49500D02*Y45000D01*
X620000Y64000D02*X618250D01*
X614500Y60250D02*X611250Y57000D01*
X618250Y64000D02*X614500Y60250D01*
X621250Y52500D02*X619500D01*
X626000Y91750D02*X617750Y100000D01*
X626000Y91750D02*Y84500D01*
X621000Y89500D02*X617500Y86000D01*
X595750Y117000D02*X595000Y116250D01*
X606250Y141500D02*X605500Y140750D01*
X610000Y132500D02*X605000Y127500D01*
X613000Y129500D02*X619500Y123000D01*
X610000Y132500D02*X613000Y129500D01*
X610000Y135500D02*Y134000D01*
X588750Y117000D02*X589500Y116250D01*
X588750Y117000D02*X565750D01*
X590000Y134000D02*Y130250D01*
X605500Y131250D02*X603750Y129500D01*
X610000Y134000D02*Y132500D01*
X620000Y134000D02*X624000Y130000D01*
X610000Y134000D02*Y132500D01*
X615000Y115250D02*X613250Y117000D01*
X615000Y115250D02*Y102750D01*
X619500Y123000D02*Y112500D01*
X564000Y115250D02*Y105750D01*
X563250Y105000D01*
X565750Y117000D02*X564000Y115250D01*
X589500Y116250D02*Y112500D01*
X563250Y105000D02*X540250D01*
X516750Y103000D02*X486500D01*
X576750D02*X529500D01*
X539500Y109500D02*Y105750D01*
X540250Y105000D02*X539500Y105750D01*
X558750Y117000D02*X520250D01*
X519500Y116250D02*Y112500D01*
X522000Y134000D02*X520000D01*
X585000Y122500D02*X530000D01*
X528250Y127500D02*X524500Y131250D01*
X605000Y127500D02*X528250D01*
X559500Y116250D02*X558750Y117000D01*
X559500Y116250D02*Y109500D01*
X579500Y105750D02*X576750Y103000D01*
X579500Y109500D02*Y105750D01*
X609500Y109500D02*Y102000D01*
X605000Y89500D02*X552000D01*
X595000Y106750D02*X587750Y99500D01*
X575000Y86000D02*X533000D01*
X555500Y94500D02*Y93000D01*
Y94500D02*Y93000D01*
Y94500D02*Y93000D01*
X483000Y99500D02*X426250D01*
X384000Y83500D02*X358000D01*
X485750Y96000D02*X425000D01*
X359500Y98000D02*X358000Y96500D01*
X379500Y59000D02*Y49500D01*
X406000Y78500D02*X386500Y59000D01*
X379500D02*X354500D01*
X386500D02*X379500D01*
X364000Y56250D02*Y46750D01*
X367250Y43500D02*X364000Y46750D01*
X455750Y57000D02*X430500Y31750D01*
X329000Y52500D02*X329500Y51000D01*
X319500Y56250D02*Y52500D01*
X314000Y56250D02*Y46750D01*
X315750Y45000D02*X314000Y46750D01*
X329500Y51000D02*X329000Y49500D01*
X329500D01*
X334000Y45750D02*X333250Y45000D01*
X335750Y57000D02*X334000Y55250D01*
X329500Y57750D02*Y55500D01*
X329000Y78250D02*Y55000D01*
X243000Y43250D02*X240250Y40500D01*
X249250Y49500D02*X243000Y43250D01*
X233500Y41250D02*Y40500D01*
X229750Y36000D02*X227000Y38750D01*
X270000Y36500D02*Y27000D01*
X241000Y56750D02*X239250Y55000D01*
X241250Y57000D02*X241000Y56750D01*
G54D12*X420500Y134500D02*Y64000D01*
X410500Y134500D02*X404000Y128000D01*
G54D11*X458500Y103500D02*X428500D01*
X427000Y105000D01*
X414750Y105750D02*Y103000D01*
G54D12*X500000Y139750D02*X415750D01*
G54D11*X490250Y120000D02*X424750D01*
X414750D02*X397000D01*
X359500Y132250D02*X358250Y131000D01*
G54D12*X415750Y139750D02*X410500Y134500D01*
G54D11*X477500Y89500D02*X477000Y89000D01*
X490250Y120000D02*X494000Y116250D01*
X367500Y43500D02*X367250D01*
X581000Y17000D02*X270000D01*
X434250Y21000D02*X383750D01*
X317500Y40250D02*Y23500D01*
X436000Y22750D02*X434250Y21000D01*
X436000Y29250D02*Y22750D01*
X532750Y19000D02*X373500D01*
X414750Y103000D02*X331000D01*
X614000Y5500D02*X39750D01*
X616750Y2000D02*X37000D01*
X36000Y3000D01*
X606000Y9000D02*X39500D01*
X36000D02*X30500D01*
X581750Y11500D02*X40250D01*
X35000Y16750D01*
X39500Y9000D02*X33000Y15500D01*
X39500Y5500D02*X36000Y9000D01*
X633000Y18250D02*X616750Y2000D01*
X90000Y19500D02*X38500D01*
X363250Y57000D02*X364000Y56250D01*
X363250Y57000D02*X335750D01*
X334000Y55250D02*Y45750D01*
X313250Y57000D02*X314000Y56250D01*
X313250Y57000D02*X241250D01*
X177000Y45000D02*X172500Y40500D01*
X113000Y36000D02*X108500Y40500D01*
X110000Y46000D02*X108500Y47500D01*
X127000Y46750D02*X126250Y46000D01*
X135250Y55000D02*X127000Y46750D01*
X67750Y50500D02*X64500Y53750D01*
X83750Y59500D02*X58500D01*
X83750Y44000D02*X79000Y48750D01*
X84000Y59250D02*X87250Y56000D01*
X83750Y34000D02*X79000Y38750D01*
X477000Y89000D02*X445000D01*
X395500Y98000D02*X359500D01*
X659500Y157500D02*X60750D01*
X37000Y133750D01*
X205250Y154000D02*X191000Y139750D01*
X363250Y144500D02*X354500Y135750D01*
X244000Y150000D02*X237500Y143500D01*
X90500Y101750D02*X101750Y90500D01*
X51000Y104250D02*Y103250D01*
X48250Y100500D02*X38750D01*
X108500Y97500D02*Y100500D01*
X105500Y121500D02*Y120500D01*
X108500Y97500D02*Y100500D01*
X113000Y76000D02*X108500Y80500D01*
X79000Y104500D02*Y99500D01*
X110000Y96000D02*X108500Y97500D01*
X63000Y91250D02*X62250Y90500D01*
X67750Y99500D02*X63000Y94750D01*
X78250Y109500D02*X68750D01*
X67000Y111250D02*X68750Y109500D01*
X73000Y125000D02*X71500D01*
X177000Y116000D02*X172500Y120500D01*
X113000Y116000D02*X108500Y120500D01*
X71500Y125000D02*X44500D01*
X177000Y96000D02*X172500Y100500D01*
X177000Y76000D02*X172500Y80500D01*
X63250Y115000D02*X52750D01*
X51000Y116750D02*X52750Y115000D01*
X37000Y98750D02*Y70500D01*
X321500Y125000D02*X329500Y117000D01*
X378750D02*X379500Y116250D01*
X378750Y117000D02*X329500D01*
Y109500D01*
X309750Y120500D02*X314000Y116250D01*
X329500Y117000D02*Y112500D01*
X339500Y109500D02*Y105000D01*
X331000Y103000D02*X325875D01*
X339500Y105000D02*X315750D01*
X389500Y105750D02*X388750Y105000D01*
X389500Y109500D02*Y105750D01*
X268500Y38000D02*X270000Y36500D01*
X316750Y41000D02*X317500Y40250D01*
X316750Y41000D02*X296500D01*
X296000Y41500D02*X296500Y41000D01*
X296000Y41500D02*X257000D01*
X309500Y49500D02*X249250D01*
X257000Y41500D02*X251500Y36000D01*
X229750D01*
X227000Y41500D02*Y38750D01*
X212000Y30500D02*X208500Y27000D01*
X229750Y45000D02*X233500Y41250D01*
X240250Y40500D02*X236500D01*
X309500Y51000D02*X312000Y43000D01*
X349500D02*X312000D01*
X349500Y49500D02*Y43000D01*
X359500Y49500D02*Y45250D01*
X349500Y49500D02*Y43000D01*
X247500Y104000D02*X248500Y103000D01*
X236500Y110500D02*Y106000D01*
X309500Y109000D02*X242500D01*
X233500Y70500D02*X229000Y66000D01*
X233500Y100500D02*X229000Y96000D01*
X305250Y70500D02*X236500D01*
X233500Y80500D02*X229000Y76000D01*
X317500Y83500D02*X314500Y80500D01*
X236500D01*
X306750Y100500D02*X329000Y78250D01*
X306750Y100500D02*X236500D01*
X305250Y70500D02*X319500Y56250D01*
X309500Y51000D02*X312000Y52500D01*
X309500D01*
X354500Y59000D02*X330750D01*
X379500D02*X354500D01*
X329500Y55500D02*X329000Y55000D01*
X330750Y59000D02*X329500Y57750D01*
X329000Y52500D02*X329500D01*
X329000D01*
X510000Y64000D02*Y60250D01*
X520000Y64000D02*X514500Y58500D01*
Y46250D01*
X530000Y67000D02*X529500D01*
X506750Y57000D02*X455750D01*
G54D12*X500000Y64000D02*X420500D01*
Y25500D01*
G54D11*X430500Y31750D02*Y25500D01*
X493750D02*X440500D01*
X451750Y45000D02*X436000Y29250D01*
G54D12*X420500Y64000D02*Y25500D01*
G54D11*X528750Y146500D02*X246750D01*
X535500Y150000D02*X244000D01*
X514500Y142500D02*X369750D01*
X520750Y144500D02*X363250D01*
X369750Y142500D02*X359500Y132250D01*
X664500Y154000D02*X205250D01*
X647250Y150000D02*X535500D01*
X233500Y120500D02*X229000Y116000D01*
X309750Y120500D02*X236500D01*
X325875Y103000D02*X248500D01*
X314000Y116250D02*Y106750D01*
X315750Y105000D02*X314000Y106750D01*
X397000Y120000D02*X395500Y118500D01*
X237500Y138000D02*X241000Y134500D01*
X246750Y146500D02*X241000Y140750D01*
X609500Y109500D02*X599500D01*
X509500D02*Y105750D01*
X508750Y105000D02*X495750D01*
X444000Y108500D02*X424250D01*
X388750Y105000D02*X339500D01*
X670000Y150500D02*X668500Y149000D01*
X654500D01*
X649000Y148250D02*X647250Y150000D01*
X514500Y142500D02*X520000Y137000D01*
X672750Y141500D02*X606250D01*
X423500Y107750D02*Y102250D01*
X587750Y99500D02*X533000D01*
X423500Y102250D02*X426250Y99500D01*
X424250Y108500D02*X423500Y107750D01*
X605500Y140750D02*Y131250D01*
X615000Y102750D02*X617750Y100000D01*
X649000Y148250D02*X653750Y143500D01*
X603750Y129500D02*X590750D01*
X590000Y130250D02*X590750Y129500D01*
X613250Y117000D02*X595750D01*
X595000Y116250D02*Y106750D01*
X510000Y130250D02*X503250Y123500D01*
X522000Y130500D02*X530000Y122500D01*
X494000Y116250D02*Y106750D01*
X609500Y102000D02*X615000Y96500D01*
X495750Y105000D02*X494000Y106750D01*
X509500Y105750D02*X508750Y105000D01*
X534500Y140750D02*Y131250D01*
X536250Y129500D02*X534500Y131250D01*
G54D13*X121000Y120500D03*
Y110500D03*
Y100500D03*
Y90500D03*
Y80500D03*
Y70500D03*
Y60500D03*
X171000D03*
X121000Y50500D03*
X171000D03*
X121000Y40500D03*
X171000D03*
Y70500D03*
Y80500D03*
Y90500D03*
Y100500D03*
Y110500D03*
Y120500D03*
X185000D03*
Y110500D03*
Y100500D03*
Y90500D03*
Y80500D03*
Y70500D03*
Y60500D03*
Y50500D03*
Y40500D03*
X235000Y110500D03*
Y120500D03*
X57000D03*
X107000D03*
G54D14*G36*
X826500Y69000D02*Y62000D01*
X833500D01*
Y69000D01*
X826500D01*
G37*
G54D15*X820000Y65500D03*
G54D13*X859500Y51000D03*
X869500D03*
X879500D03*
X889500D03*
X899500D03*
X909500D03*
X919500D03*
X929500D03*
X939500D03*
Y111000D03*
X929500D03*
X919500D03*
X909500D03*
X899500D03*
X889500D03*
X879500D03*
X869500D03*
X859500D03*
X709500Y51000D03*
X719500D03*
X729500D03*
X739500D03*
X749500D03*
X759500D03*
X769500D03*
X779500D03*
X789500D03*
G54D14*G36*
X676500Y63500D02*Y56500D01*
X683500D01*
Y63500D01*
X676500D01*
G37*
G54D15*X670000Y60000D03*
G54D13*X789500Y111000D03*
G54D14*G36*
X826500Y98500D02*Y91500D01*
X833500D01*
Y98500D01*
X826500D01*
G37*
G54D15*X820000Y95000D03*
G54D13*X779500Y111000D03*
X769500D03*
X759500D03*
X749500D03*
X739500D03*
X729500D03*
X719500D03*
X709500D03*
G54D14*G36*
X676500Y103500D02*Y96500D01*
X683500D01*
Y103500D01*
X676500D01*
G37*
G54D15*X670000Y100000D03*
G54D13*X309500Y51000D03*
X319500D03*
X329500D03*
X339500D03*
X349500D03*
X359500D03*
X369500D03*
X379500D03*
X389500D03*
G54D14*G36*
X407500Y28500D02*Y22500D01*
X413500D01*
Y28500D01*
X407500D01*
G37*
G54D13*X420500Y25500D03*
X430500D03*
X440500D03*
X235000Y40500D03*
Y50500D03*
Y60500D03*
Y70500D03*
Y80500D03*
Y90500D03*
Y100500D03*
X389500Y111000D03*
X379500D03*
X369500D03*
X359500D03*
X349500D03*
X339500D03*
X329500D03*
X319500D03*
X309500D03*
X57000Y110500D03*
Y100500D03*
Y90500D03*
Y80500D03*
Y70500D03*
Y60500D03*
Y50500D03*
Y40500D03*
X43000Y35000D03*
Y45000D03*
Y55000D03*
Y65000D03*
Y75000D03*
Y85000D03*
Y95000D03*
Y105000D03*
Y115000D03*
Y125000D03*
X107000Y40500D03*
Y50500D03*
Y60500D03*
Y70500D03*
Y80500D03*
Y90500D03*
Y100500D03*
Y110500D03*
X73000Y125000D03*
Y115000D03*
Y105000D03*
Y95000D03*
Y85000D03*
Y75000D03*
Y65000D03*
Y55000D03*
Y45000D03*
Y35000D03*
G54D14*G36*
X407500Y137500D02*Y131500D01*
X413500D01*
Y137500D01*
X407500D01*
G37*
G54D13*X420500Y134500D03*
X430500D03*
X440500D03*
X500000Y135500D03*
X510000D03*
X520000D03*
X530000D03*
X540000D03*
X550000D03*
X560000D03*
X570000D03*
X580000D03*
X590000D03*
X600000D03*
X610000D03*
X620000D03*
X630000D03*
X639500Y111000D03*
X629500D03*
X619500D03*
X630000Y65500D03*
X620000D03*
X610000D03*
X600000D03*
X590000D03*
X580000D03*
X570000D03*
X569500Y51000D03*
X579500D03*
X560000Y65500D03*
X559500Y51000D03*
X589500D03*
X599500D03*
X609500D03*
X619500D03*
X629500D03*
X639500D03*
X550000Y65500D03*
X540000D03*
X530000D03*
X520000D03*
X510000D03*
X500000D03*
X459500Y51000D03*
X469500D03*
X479500D03*
X489500D03*
X499500D03*
X509500D03*
X519500D03*
X529500D03*
X539500D03*
X609500Y111000D03*
X599500D03*
X589500D03*
X579500D03*
X569500D03*
X559500D03*
X539500D03*
X529500D03*
X519500D03*
X509500D03*
X499500D03*
X489500D03*
X479500D03*
X469500D03*
X459500D03*
X119500Y60500D02*X122500D01*
X119500Y50500D02*X122500D01*
X119500Y40500D02*X122500D01*
X105500D02*X108500D01*
X105500Y50500D02*X108500D01*
X119500Y100500D02*X122500D01*
X119500Y90500D02*X122500D01*
X119500Y120500D02*X122500D01*
X119500Y110500D02*X122500D01*
X119500Y80500D02*X122500D01*
X119500Y70500D02*X122500D01*
X105500Y60500D02*X108500D01*
X105500Y70500D02*X108500D01*
X105500Y80500D02*X108500D01*
X105500Y90500D02*X108500D01*
X105500Y100500D02*X108500D01*
X105500Y110500D02*X108500D01*
X105500Y120500D02*X108500D01*
X309500Y52500D02*Y49500D01*
X319500Y52500D02*Y49500D01*
X329500Y52500D02*Y49500D01*
X339500Y52500D02*Y49500D01*
X349500Y52500D02*Y49500D01*
X359500Y52500D02*Y49500D01*
X369500Y52500D02*Y49500D01*
X379500Y52500D02*Y49500D01*
X389500Y52500D02*Y49500D01*
Y112500D02*Y109500D01*
X379500Y112500D02*Y109500D01*
X369500Y112500D02*Y109500D01*
X359500Y112500D02*Y109500D01*
X349500Y112500D02*Y109500D01*
X339500Y112500D02*Y109500D01*
X329500Y112500D02*Y109500D01*
X319500Y112500D02*Y109500D01*
X309500Y112500D02*Y109500D01*
X169500Y40500D02*X172500D01*
X169500Y50500D02*X172500D01*
X169500Y60500D02*X172500D01*
X169500Y90500D02*X172500D01*
X169500Y100500D02*X172500D01*
X169500Y110500D02*X172500D01*
X183500D02*X186500D01*
X169500Y120500D02*X172500D01*
X183500D02*X186500D01*
X183500Y100500D02*X186500D01*
X183500Y90500D02*X186500D01*
X169500Y70500D02*X172500D01*
X169500Y80500D02*X172500D01*
X183500D02*X186500D01*
X183500Y70500D02*X186500D01*
X183500Y60500D02*X186500D01*
X183500Y50500D02*X186500D01*
X183500Y40500D02*X186500D01*
X233500D02*X236500D01*
X233500Y50500D02*X236500D01*
X233500Y60500D02*X236500D01*
X233500Y70500D02*X236500D01*
X233500Y80500D02*X236500D01*
X233500Y90500D02*X236500D01*
X233500Y100500D02*X236500D01*
X233500Y110500D02*X236500D01*
X233500Y120500D02*X236500D01*
X55500D02*X58500D01*
X55500Y110500D02*X58500D01*
X71500Y125000D02*X74500D01*
X71500Y115000D02*X74500D01*
X55500Y80500D02*X58500D01*
X55500Y70500D02*X58500D01*
X55500Y60500D02*X58500D01*
X55500Y50500D02*X58500D01*
X55500Y40500D02*X58500D01*
X41500Y35000D02*X44500D01*
X41500Y45000D02*X44500D01*
X41500Y55000D02*X44500D01*
X41500Y65000D02*X44500D01*
X41500Y75000D02*X44500D01*
X41500Y85000D02*X44500D01*
X41500Y95000D02*X44500D01*
X41500Y105000D02*X44500D01*
X41500Y115000D02*X44500D01*
X41500Y125000D02*X44500D01*
X55500Y100500D02*X58500D01*
X55500Y90500D02*X58500D01*
X71500Y105000D02*X74500D01*
X71500Y95000D02*X74500D01*
X71500Y85000D02*X74500D01*
X71500Y75000D02*X74500D01*
X71500Y65000D02*X74500D01*
X71500Y55000D02*X74500D01*
X71500Y45000D02*X74500D01*
X71500Y35000D02*X74500D01*
X859500Y52500D02*Y49500D01*
X869500Y52500D02*Y49500D01*
X879500Y52500D02*Y49500D01*
X889500Y52500D02*Y49500D01*
X899500Y52500D02*Y49500D01*
X909500Y52500D02*Y49500D01*
X919500Y52500D02*Y49500D01*
X929500Y52500D02*Y49500D01*
X939500Y52500D02*Y49500D01*
Y112500D02*Y109500D01*
X929500Y112500D02*Y109500D01*
X919500Y112500D02*Y109500D01*
X909500Y112500D02*Y109500D01*
X899500Y112500D02*Y109500D01*
X889500Y112500D02*Y109500D01*
X879500Y112500D02*Y109500D01*
X869500Y112500D02*Y109500D01*
X709500Y52500D02*Y49500D01*
X719500Y52500D02*Y49500D01*
X729500Y52500D02*Y49500D01*
X739500Y52500D02*Y49500D01*
X749500Y52500D02*Y49500D01*
X759500Y52500D02*Y49500D01*
X769500Y52500D02*Y49500D01*
X779500Y52500D02*Y49500D01*
X789500Y52500D02*Y49500D01*
X859500Y112500D02*Y109500D01*
X789500Y112500D02*Y109500D01*
X779500Y112500D02*Y109500D01*
X769500Y112500D02*Y109500D01*
X759500Y112500D02*Y109500D01*
X749500Y112500D02*Y109500D01*
X739500Y112500D02*Y109500D01*
X729500Y112500D02*Y109500D01*
X719500Y112500D02*Y109500D01*
X709500Y112500D02*Y109500D01*
X500000Y137000D02*Y134000D01*
X510000Y137000D02*Y134000D01*
X520000Y137000D02*Y134000D01*
X530000Y137000D02*Y134000D01*
X540000Y67000D02*Y64000D01*
X530000Y67000D02*Y64000D01*
X520000Y67000D02*Y64000D01*
X500000Y67000D02*Y64000D01*
X459500Y52500D02*Y49500D01*
X469500Y52500D02*Y49500D01*
X479500Y52500D02*Y49500D01*
X489500Y52500D02*Y49500D01*
X499500Y52500D02*Y49500D01*
X510000Y67000D02*Y64000D01*
X509500Y52500D02*Y49500D01*
X519500Y52500D02*Y49500D01*
X529500Y52500D02*Y49500D01*
X539500Y52500D02*Y49500D01*
Y112500D02*Y109500D01*
X529500Y112500D02*Y109500D01*
X519500Y112500D02*Y109500D01*
X509500Y112500D02*Y109500D01*
X499500Y112500D02*Y109500D01*
X489500Y112500D02*Y109500D01*
X479500Y112500D02*Y109500D01*
X469500Y112500D02*Y109500D01*
X459500Y112500D02*Y109500D01*
X540000Y137000D02*Y134000D01*
X550000Y137000D02*Y134000D01*
X560000Y137000D02*Y134000D01*
X570000Y137000D02*Y134000D01*
X580000Y137000D02*Y134000D01*
X590000Y137000D02*Y134000D01*
X600000Y137000D02*Y134000D01*
X610000Y137000D02*Y134000D01*
X620000Y137000D02*Y134000D01*
X630000Y137000D02*Y134000D01*
Y67000D02*Y64000D01*
X620000Y67000D02*Y64000D01*
X610000Y67000D02*Y64000D01*
X600000Y67000D02*Y64000D01*
X590000Y67000D02*Y64000D01*
X580000Y67000D02*Y64000D01*
X570000Y67000D02*Y64000D01*
X560000Y67000D02*Y64000D01*
X550000Y67000D02*Y64000D01*
X559500Y52500D02*Y49500D01*
X569500Y52500D02*Y49500D01*
X579500Y52500D02*Y49500D01*
X589500Y52500D02*Y49500D01*
X599500Y52500D02*Y49500D01*
X609500Y52500D02*Y49500D01*
X619500Y52500D02*Y49500D01*
X629500Y52500D02*Y49500D01*
X639500Y52500D02*Y49500D01*
Y112500D02*Y109500D01*
X629500Y112500D02*Y109500D01*
X619500Y112500D02*Y109500D01*
X609500Y112500D02*Y109500D01*
X599500Y112500D02*Y109500D01*
X589500Y112500D02*Y109500D01*
X579500Y112500D02*Y109500D01*
X569500Y112500D02*Y109500D01*
X559500Y112500D02*Y109500D01*
G54D16*X44500Y27000D03*
X65500Y30500D03*
X40500Y131000D03*
X49500Y139000D03*
X67000Y135000D03*
X64500Y55000D03*
X64250Y16000D03*
X36000Y3000D03*
X30500Y9000D03*
X458500Y103500D03*
X445000Y89000D03*
X446500Y123500D03*
X444000Y108500D03*
X427000Y105000D03*
X424750Y120000D03*
X414750D03*
X425000Y96000D03*
X414750Y105750D03*
X317500Y23500D03*
X519500Y41500D03*
X477500Y89500D03*
X483000Y99500D03*
X466000Y92500D03*
X406000Y78500D03*
X247500Y104000D03*
X241000Y140750D03*
X227000Y100500D03*
X242500Y109000D03*
X254500Y134500D03*
X270000Y17000D03*
Y27000D03*
X268500Y38000D03*
X191000Y139750D03*
X179000Y135000D03*
X196500Y60500D03*
X227000Y41500D03*
X212000Y50500D03*
Y30500D03*
X138500Y15000D03*
X140000Y27000D03*
X90500Y109500D03*
X94000Y139000D03*
X87500Y15000D03*
Y62000D03*
X106000Y20500D03*
X94500Y30500D03*
X101000D03*
X83750Y121500D03*
X367500Y43500D03*
X358000Y96500D03*
X314000Y37500D03*
X358000Y83500D03*
X317500D03*
X354500Y135750D03*
X384000Y83500D03*
X395500Y118500D03*
Y98000D03*
X359500Y132250D03*
X575000Y86000D03*
X555500Y94500D03*
X585000Y122500D03*
X533000Y86000D03*
X552000Y89500D03*
X535500Y150000D03*
X533000Y99500D03*
Y93000D03*
X595500Y86000D03*
X533000Y77500D03*
X615000Y96500D03*
X605000Y89500D03*
X626000Y84500D03*
X621000Y89500D03*
X666500Y82500D03*
X659500Y86000D03*
X658000Y93000D03*
X646000Y60500D03*
X653000Y96500D03*
X645500Y106500D03*
X643000Y77500D03*
X624000Y103500D03*
X614000Y5500D03*
X633000Y37500D03*
X581000Y17000D03*
X621500Y41000D03*
X563000Y41500D03*
X577500Y76000D03*
X663000Y93500D03*
X813500D03*
X675000Y140000D03*
X658000Y138000D03*
X670000Y150500D03*
Y138000D03*
X664500Y154000D03*
X663000Y113500D03*
Y134500D03*
X659500Y157500D03*
X654500Y149000D03*
X670000Y107000D03*
X776000Y41000D03*
G54D17*G54D18*G54D19*G54D18*G54D20*G54D18*G54D20*G54D18*G54D19*G54D18*G54D19*G54D18*G54D19*G54D18*G54D21*G54D18*G54D20*G54D18*G54D20*G54D18*G54D21*G54D18*M02*
