G04 start of page 7 for group 5 idx 5 *
G04 Title: (unknown), bottom *
G04 Creator: pcb 20110918 *
G04 CreationDate: Tue 14 Jan 2014 03:41:53 PM GMT UTC *
G04 For: vince *
G04 Format: Gerber/RS-274X *
G04 PCB-Dimensions: 1000000 160000 *
G04 PCB-Coordinate-Origin: lower left *
%MOIN*%
%FSLAX25Y25*%
%LNBOTTOM*%
%ADD68C,0.0380*%
%ADD67C,0.0280*%
%ADD66C,0.1250*%
%ADD65C,0.0350*%
%ADD64C,0.0200*%
%ADD63C,0.0400*%
%ADD62C,0.0700*%
%ADD61C,0.0001*%
%ADD60C,0.0600*%
%ADD59C,0.0250*%
%ADD58C,0.0100*%
G54D58*X209500Y144500D02*Y110500D01*
Y144500D03*
X206000Y113000D03*
X199500D01*
X452000Y151500D02*X60500D01*
X194000Y141000D02*X129000D01*
X448500Y135500D03*
X155250Y144500D02*X101000D01*
X86750D02*X70500Y128250D01*
X213000Y137500D03*
X236500Y120500D03*
X129000Y141000D02*X108500Y120500D01*
X329500Y112500D02*Y111000D01*
D03*
X349500Y136750D02*Y109500D01*
X369500Y111000D03*
X233500Y90500D02*Y86000D01*
D03*
X354000Y80500D02*X236500D01*
X374000Y91000D03*
X236500Y80500D02*X235000D01*
X233500Y100500D02*Y97000D01*
D03*
Y100500D02*Y97000D01*
D03*
Y100500D02*Y97000D01*
D03*
X213000Y148000D02*Y137500D01*
D03*
X257000Y141000D02*X236500Y120500D01*
D03*
D03*
X235000D01*
X233500Y97000D03*
Y110500D03*
X241000Y106000D03*
X233500Y110500D03*
X235000D01*
X241000Y106000D02*X186500D01*
D03*
X209500Y144500D02*X155250D01*
X179000Y105000D02*Y100500D01*
Y107750D02*Y105000D01*
Y114250D02*Y107750D01*
X369500Y117000D02*X355750D01*
X353000Y130000D03*
X369500Y112500D02*Y111000D01*
X349500Y109500D03*
X354000Y115250D02*Y105000D01*
X427000Y120500D03*
Y122000D02*X416250D01*
X436000Y117000D03*
X452000Y130000D03*
X424750Y110000D02*X414750D01*
X445000Y125000D03*
X359500Y105000D03*
X427000D02*X416250D01*
X406250Y97000D02*X385000D01*
D03*
X250000Y66000D03*
X186500D03*
X250000D02*X186500D01*
X183500Y75000D02*X135000D01*
X130500Y70500D03*
X183500D03*
X119500Y80500D03*
X172500Y86000D03*
X105500Y80500D02*X107000D01*
X191000Y96000D02*X181750D01*
X172500D03*
X179000Y100500D03*
X181750Y96000D02*X172500D01*
X233500Y97000D02*X192000D01*
X189500Y90500D02*X186500D01*
Y100500D02*X179000D01*
X194500Y95000D02*X193000Y93500D01*
X192000Y97000D02*X191000Y96000D01*
X172500D02*X110500D01*
X122500Y100500D03*
X108500Y93500D02*X105500D01*
X67000Y106500D02*Y95500D01*
X79750Y79000D02*X79000Y78250D01*
X314000Y57000D02*Y17500D01*
X280000Y57000D02*X273500Y50500D01*
X250000Y66000D03*
X319500Y70500D02*Y57000D01*
Y70500D03*
Y57000D02*Y52500D01*
D03*
D03*
Y51000D03*
Y52500D01*
X349000Y37500D02*Y18000D01*
X354000Y36500D03*
D03*
Y41500D02*Y36500D01*
D03*
X349000Y18000D03*
X357500Y27000D02*Y15500D01*
D03*
X345500Y30500D03*
X354000Y13500D03*
Y36500D02*Y13500D01*
D03*
D03*
X375000Y36500D03*
X362500Y38500D02*Y30500D01*
X440500Y25500D03*
X430500D03*
G54D59*X410500D03*
G54D58*X450000Y77750D02*Y19000D01*
X436000Y117000D02*Y21000D01*
X345500Y30500D02*X344000Y29000D01*
X345500Y30500D03*
X340500Y39000D03*
X344000Y34000D03*
X340500Y39000D03*
X325250D02*X321500Y35250D01*
X349500Y51000D02*X344000Y45500D01*
X349500Y51000D03*
X364500Y62500D02*X335000D01*
X344000Y45500D02*Y34000D01*
X331500Y65250D02*Y59000D01*
X314000Y17500D02*Y9000D01*
X321500Y14000D02*X317500D01*
X314000Y17500D02*Y9000D01*
D03*
D03*
X333500Y14000D02*Y9500D01*
X330000Y17500D03*
D03*
X333500Y9500D03*
X330000Y17500D02*Y7500D01*
X344000Y13500D03*
X342750Y34000D02*X330000Y21250D01*
X326500Y34000D02*Y5500D01*
X330000Y21250D02*Y17500D01*
X321500Y35250D02*Y14000D01*
X344000Y29000D02*Y13500D01*
X135000Y75000D02*X130500Y70500D01*
X127000Y75500D03*
X130500Y70500D03*
X127000Y75500D02*X89500D01*
X86000Y62500D03*
X63000Y72500D02*Y60500D01*
X101000Y34000D03*
Y45000D02*Y34000D01*
X123000D02*X101000D01*
X67000Y26500D03*
X82500Y7000D03*
X63000Y50750D02*Y36000D01*
X79000Y61750D02*Y55500D01*
X67000Y44750D02*Y26500D01*
X82500Y24500D02*Y59000D01*
X101000Y54250D02*Y45000D01*
X186500Y50500D02*X185000D01*
X172500D03*
X169500D02*X168750D01*
X172500D03*
X171000D01*
X168750D03*
X186500Y60500D03*
X169500D03*
X171000D01*
X186500D02*X185000D01*
X108500Y46000D03*
X122500Y56000D03*
X89500Y45000D03*
X123000Y34000D03*
D03*
X127000Y60500D03*
X172500Y50500D02*X168750D01*
X169500Y60500D02*X127000D01*
X186500D02*X185250D01*
X165000Y17500D03*
X179000Y32500D02*Y27000D01*
D03*
Y43750D02*Y32500D01*
X165000Y46750D02*Y17500D01*
X179000Y54250D02*Y43750D01*
X252000Y117000D02*X241000Y106000D01*
X329500Y117000D02*X252000D01*
X209500Y110500D03*
X233500D02*X209500D01*
X310000Y95000D03*
X383000Y94500D02*X381500D01*
X310000Y95000D02*X194500D01*
X303500Y104000D02*Y103000D01*
Y104000D02*Y103000D01*
D03*
D03*
X366500D02*X303500D01*
X354000Y105000D02*X309500D01*
X364500Y100500D02*X236500D01*
X309500Y105000D03*
X362500Y87500D02*X313500D01*
X366500Y84500D03*
X378500D02*X366500D01*
X427000Y97250D02*X414750Y85000D01*
X362500Y67500D02*X333750D01*
X319500Y70500D02*X236500D01*
X414750Y66500D03*
X397500Y102000D03*
X402500D02*X397500D01*
X414750Y110000D03*
X191000Y127000D02*Y115000D01*
D03*
Y127000D03*
X194000Y141000D03*
X191000Y127000D02*X189000D01*
X179750Y115000D02*X179000Y114250D01*
X191000Y115000D02*X179750D01*
X183500Y70500D03*
X185000D01*
X186500Y90500D03*
X185000D01*
X186500Y100500D03*
X185000D01*
X189500Y90500D03*
X193000Y93500D02*X192500D01*
X183500Y125000D02*Y120500D01*
Y125000D03*
Y120500D03*
D03*
X185000D01*
X119500Y85500D02*X63500D01*
X108500Y90500D03*
X119500Y66000D02*X89500D01*
X113000Y106000D02*X79000D01*
D03*
X108500Y97500D03*
X110500D02*X108500D01*
X110500Y96000D03*
X105500Y93500D02*X104000D01*
D03*
X67000Y95500D03*
X105500Y79000D02*X79750D01*
X105500D03*
X183500Y125000D02*X127000D01*
X189000Y127000D03*
X101000Y144500D02*X86750D01*
X122500Y120500D03*
X183500D03*
X119500D02*X113000Y114000D01*
X108500Y110500D02*X101000D01*
D03*
X108500Y120500D03*
X71500Y121000D03*
X186500Y100500D03*
X183500Y75000D02*Y70500D01*
X181750Y96000D02*X172500D01*
Y100500D02*Y96000D01*
X186500Y90500D03*
Y100500D03*
X193000Y93500D03*
X192500D02*X189500Y90500D01*
X191000Y96000D03*
D03*
X193000Y93500D03*
X179000Y105000D03*
X189500Y90500D03*
X186500D02*X189500D01*
X186500D02*X189500D01*
X233500Y86000D02*X172500D01*
X179000Y105000D02*X127000D01*
X179000Y43750D02*Y32500D01*
D03*
X185250Y60500D02*X179000Y54250D01*
X169500Y60500D03*
X168750Y50500D02*Y46000D01*
Y50500D02*X165000Y46750D01*
X172500Y50500D03*
X168750Y46000D03*
X186500Y60500D03*
Y70500D02*Y66000D01*
Y60500D03*
X191000Y55000D02*X186500Y50500D01*
D03*
D03*
X183500Y75000D03*
Y70500D03*
X191000Y45000D02*X186500Y40500D01*
D03*
D03*
X185000D01*
X309500Y49500D02*Y45000D01*
D03*
X273500Y50500D03*
X314000Y57000D03*
X246500Y60500D03*
X241000Y55000D03*
D03*
X246500Y60500D03*
X241000Y55000D01*
X244500Y27000D03*
X314000Y17500D02*X165000D01*
X244500Y27000D03*
X179000D01*
X236500Y50500D02*X235000D01*
X530000Y105000D02*Y67000D01*
X509500Y49500D02*Y45000D01*
X535000Y13500D02*Y7500D01*
X534500Y100750D02*Y57000D01*
D03*
X535000Y7500D03*
X531500Y16250D02*Y5500D01*
X499500Y28500D02*Y7500D01*
Y43000D02*Y35750D01*
Y28500D01*
X479500Y105000D02*X462500D01*
X460000Y101500D02*Y93750D01*
X479500Y105000D03*
X462500D01*
X479500Y109500D02*Y105000D01*
X489500Y21500D03*
X484500Y18000D02*Y9500D01*
X487500Y41500D02*Y35750D01*
X489500Y21500D02*X463000D01*
X495750Y57000D02*X494000Y55250D01*
X499500Y35750D02*X487500D01*
X499500Y43000D02*Y35750D01*
Y49500D02*Y43000D01*
X494000Y39250D03*
Y55250D02*Y39250D01*
X556500Y82000D03*
X555000D02*X556500D01*
D03*
X529500Y105000D02*X479500D01*
X540000Y100500D02*Y64000D01*
X539500Y109500D02*Y100500D01*
X540000D03*
X539500Y91500D03*
X556500Y43000D02*X499500D01*
X555750Y57000D02*X544000Y45250D01*
Y45000D03*
Y45250D02*Y45000D01*
X556500Y43500D02*Y43000D01*
X553000Y67000D02*X550000D01*
X553000D02*X550000Y65500D01*
X553000Y64000D03*
X556250Y41000D02*X531500Y16250D01*
X555000Y82000D02*Y70000D01*
X553000D02*X550000Y65500D01*
X553000Y64000D03*
X555000Y70000D03*
X550000Y64000D02*X553000D01*
X550000D02*X553000D01*
Y70000D02*Y67000D01*
X550000Y129500D02*X534500D01*
X550000D03*
D03*
X530000Y134000D02*Y126500D01*
X531000Y137000D03*
X524000Y117000D02*X519500Y112500D01*
X531000Y137000D02*X530000D01*
X534500Y129500D03*
X507750Y119000D02*X499500Y110750D01*
X510000Y129500D02*Y125000D01*
Y134000D02*Y129500D01*
Y125000D01*
Y123000D03*
Y125000D02*Y123000D01*
X499500Y109500D03*
X530000Y107250D03*
Y105000D01*
X529500D01*
Y109500D02*Y107250D01*
Y105000D01*
X530000Y107250D02*X529500D01*
X519500Y111000D03*
X499500Y110750D02*Y109500D01*
X550000Y134000D02*Y129500D01*
D03*
X599500D02*X550000D01*
X630000Y127500D03*
X620000Y129500D03*
X634500Y125500D03*
X606500Y143000D02*X596000D01*
X534500Y153500D02*Y129500D01*
X540000Y146500D03*
Y137000D01*
Y146500D02*X539500D01*
X588250D02*X540000D01*
X539500Y153000D02*X540000Y146500D01*
X531750Y157000D02*X531000Y156250D01*
Y137000D01*
X599500Y129500D02*Y112500D01*
X595000Y123000D03*
X599500Y129500D03*
Y112500D03*
D03*
X589500Y109500D03*
D03*
Y111000D01*
D03*
X599500Y112500D02*Y111000D01*
X589500D02*Y112500D01*
D03*
X559500Y109500D02*Y111000D01*
X560500Y109500D03*
X588250Y146500D02*X540000D01*
X696500Y157000D02*X531750D01*
X596000Y143000D02*X590000Y137000D01*
X610000Y140000D02*Y134000D01*
Y140000D03*
X636500Y146500D02*X588250D01*
X636500Y122500D03*
X639500Y112500D03*
X619500D03*
X635000Y117000D02*Y113750D01*
X619500Y116250D02*Y112500D01*
X635000Y121000D02*Y117000D01*
X696500Y143500D03*
Y150250D02*Y143500D01*
X691000Y131250D02*Y115500D01*
X687500Y131000D02*Y119500D01*
X668500Y119000D03*
X665250Y115500D02*X642500D01*
X685000D03*
X668500Y122250D02*Y119000D01*
X691000Y115500D03*
X685000D02*X665250D01*
X685000D02*X665250D01*
X687500Y119500D03*
X696000Y128500D02*X694500D01*
X681500Y112000D02*X649500D01*
X696000Y102000D03*
X692500Y98500D03*
X680000Y100000D03*
X660000Y105000D03*
X635000D03*
Y113750D02*Y105000D01*
X624000Y115250D02*Y103500D01*
X660000Y105000D02*X635000D01*
X620500Y96000D02*Y95000D01*
Y96000D02*Y95000D01*
Y96000D02*Y95000D01*
D03*
D03*
X629500Y109500D02*Y98500D01*
D03*
X624000Y103500D03*
X618500D01*
X649500Y95000D02*X620500D01*
X635000Y117000D02*Y113750D01*
X636500Y122500D02*X635000Y121000D01*
X642500Y115500D02*X639500Y112500D01*
X636500Y122500D03*
X635000Y117000D03*
X639500Y112500D03*
X625750Y117000D02*X624000Y115250D01*
X628750Y125500D02*X619500Y116250D01*
X634500Y125500D02*X628750D01*
X630000Y127500D02*X626250D01*
X630000Y134000D02*Y127500D01*
X636500Y146500D02*Y122500D01*
X634500Y141500D02*Y125500D01*
Y141500D03*
X636500Y146500D03*
X626250Y127500D02*X615000Y116250D01*
X619500Y112500D03*
X635000Y117000D02*X625750D01*
X618250Y129500D02*X605000Y116250D01*
X620000Y129500D02*X618250D01*
X620000Y134000D02*Y129500D01*
X606500Y143000D03*
D03*
X605000Y116250D02*Y51000D01*
X610000Y137000D02*Y140000D01*
Y137000D02*Y140000D01*
D03*
D03*
D03*
Y137000D01*
X611500Y141500D02*X610000Y140000D01*
D03*
D03*
D03*
D03*
X615000Y116250D02*Y51000D01*
X685000Y80500D02*X622750D01*
X649500Y95000D03*
D03*
X663500Y98500D02*X629500D01*
X670000Y60000D02*X638750D01*
X656500Y84000D02*X618500D01*
X620000Y77750D02*Y67000D01*
X595000Y123000D02*Y89000D01*
D03*
X585500Y96000D03*
X595000Y89000D03*
D03*
D03*
D03*
D03*
D03*
X564000Y119000D02*Y97250D01*
X569500Y109500D02*Y105000D01*
X560500Y109500D03*
X564000Y119000D03*
X559500Y117000D02*Y109500D01*
Y117000D03*
Y109500D03*
X560500D01*
X559500D02*X560500D01*
X559500D03*
X567500Y91500D02*Y90000D01*
Y91500D03*
Y90000D02*Y91500D01*
D03*
Y90000D03*
X560500Y109500D02*Y93500D01*
X564000Y97250D03*
D03*
X580000Y93500D02*Y67000D01*
X569500Y59500D02*Y52500D01*
Y59500D03*
X575500Y82000D03*
X569500Y52500D03*
X562500Y64000D02*X560000Y65500D01*
X562500Y67000D01*
X560000D01*
X575500Y82000D02*X575000Y81500D01*
X575500Y82000D03*
D03*
X580000Y93500D03*
X582000Y105000D02*Y85500D01*
X585500Y105500D02*Y96000D01*
X582000Y105000D03*
X590000Y85500D03*
X605000Y18500D02*Y17000D01*
D03*
X627500Y31000D02*Y17000D01*
X631000Y11000D03*
X627500Y17000D03*
X624000Y24000D03*
D03*
X666000Y39500D03*
X605750Y27500D03*
X624000Y24000D02*X621500Y21500D01*
X613500D01*
X614000Y43000D03*
X615000Y51000D02*X609500D01*
X614000Y43000D03*
X615000Y51000D03*
X624000Y64000D02*Y24000D01*
Y64000D03*
Y24000D03*
D03*
D03*
D03*
X622750Y80500D02*X620000Y77750D01*
X631000Y49500D03*
X629500D02*X631000D01*
X629500D02*X631000D01*
X629500D01*
X605000Y51000D03*
X634500Y55750D02*Y7500D01*
X631000Y49500D02*Y11000D01*
X634500Y7500D03*
X636500Y3500D03*
X631000Y49500D03*
X636500Y36750D02*Y3500D01*
X605750Y34750D02*Y27500D01*
D03*
X614000Y43000D02*X605750Y34750D01*
X638750Y60000D02*X634500Y55750D01*
X601500Y15000D03*
X605000Y18500D03*
X601500Y15000D03*
X575000D01*
X559500Y46500D02*X556500Y43500D01*
X569500Y41000D02*X556250D01*
X559500Y46500D03*
D03*
X560000Y64000D02*Y57000D01*
D03*
X559500Y46500D03*
Y49500D02*Y46500D01*
X569500Y49500D02*Y41000D01*
X559500Y49500D02*Y46500D01*
Y49500D02*Y46500D01*
X569500Y52500D02*Y51000D01*
X562500Y64000D03*
Y59500D01*
X560000Y64000D02*X562500D01*
X560000D02*X562500D01*
D03*
X575000Y15000D03*
Y81500D02*Y15000D01*
X594500Y58500D02*Y23500D01*
X590000Y85500D02*Y67000D01*
X594500Y23500D03*
X605000Y51000D02*X599500D01*
X600000Y64000D03*
X599500Y49500D02*Y51000D01*
X602250Y52500D01*
X599500D01*
X600000Y64000D03*
Y65500D01*
Y67000D01*
D03*
Y64000D02*X594500Y58500D01*
X599500Y51000D03*
D03*
X71500Y125000D02*Y121000D01*
Y125000D03*
Y121000D03*
D03*
X70500Y128250D02*Y127000D01*
D03*
X39250D02*X37000Y124750D01*
X60500Y151500D02*X35000Y126000D01*
X31500Y129000D02*X38000Y135500D01*
Y144500D02*X26500Y133000D01*
X71500Y125000D02*X48500D01*
X70500Y127000D02*X39250D01*
X44500Y121000D03*
X26500Y30000D03*
X31500Y128000D02*Y129000D01*
Y26500D02*Y128000D01*
X26500Y133000D02*Y24500D01*
X55500Y50500D03*
D03*
X57000D01*
X49500D03*
X55500D02*X49500D01*
X67750Y55500D02*X63000Y50750D01*
Y60500D03*
X58500D01*
X47500Y38000D02*Y36000D01*
Y38000D03*
D03*
X63000Y36000D02*X47500D01*
D03*
X71500Y111000D02*X67000Y106500D01*
X71500Y111000D03*
X58500Y120500D02*Y116500D01*
D03*
X48500Y125000D02*X44500Y121000D01*
D03*
D03*
X63500Y85500D02*X58500Y80500D01*
D03*
D03*
X57000D01*
X71500Y81000D03*
X58500Y80500D03*
X44500Y91000D02*X35000D01*
X44500Y111000D02*X37000D01*
X35000Y91000D03*
X37000Y111000D03*
Y124750D02*Y111000D01*
X35000Y126000D02*Y91000D01*
X44500Y41000D02*Y38000D01*
Y41000D02*Y38000D01*
Y41000D02*Y38000D01*
Y41000D02*Y38000D01*
Y41000D01*
Y38000D03*
X47500D01*
X44500D02*X47500D01*
X44500D01*
D03*
D03*
X49500Y61000D02*Y50500D01*
Y61000D02*X44500D01*
X86000Y41000D02*Y3500D01*
X79000Y55500D03*
X86000Y3500D03*
X79000Y78250D02*Y71000D01*
X71500Y81000D02*X63000Y72500D01*
X79000Y71000D03*
X74500D01*
X82500Y62500D03*
X86000Y75500D03*
X82500D01*
X101000Y45000D02*X89500D01*
X102750Y56000D02*X101000Y54250D01*
X122500Y56000D02*X102750D01*
X122500Y60500D02*Y56000D01*
X108500Y50500D02*Y46000D01*
X105500Y79000D02*Y80500D01*
D03*
Y79000D03*
X119500Y80500D03*
D03*
X121000D01*
X67000Y26500D02*X31500D01*
X73250Y51000D02*X67000Y44750D01*
X44500Y41000D02*Y38000D01*
X63000Y36000D03*
X49500Y61000D03*
X26500Y24500D02*X82500D01*
X172500Y90500D02*Y86000D01*
X179000Y107750D02*Y105000D01*
X186500Y110500D02*Y106000D01*
X194000Y141000D03*
X206000Y137500D02*Y113000D01*
X189000Y137500D02*Y127000D01*
X108500Y120500D03*
D03*
D03*
X79000Y116500D02*Y106000D01*
Y116500D03*
X58500D01*
X108500Y110500D03*
D03*
Y120500D02*X107000D01*
X108500Y110500D02*X107000D01*
X104000Y95500D02*X67000D01*
X155250Y144500D02*X101000D01*
Y110500D01*
X119500Y120500D03*
X127000Y125000D02*X122500Y120500D01*
D03*
X119500D03*
X122500D03*
X121000D01*
X127000Y75500D02*Y60500D01*
X119500Y85500D02*Y80500D01*
Y70500D02*Y66000D01*
D03*
Y85500D03*
X89500Y62500D02*Y45000D01*
X86000Y75500D02*Y62500D01*
X82500Y70000D02*Y62500D01*
X79750D02*X79000Y61750D01*
X89500Y62500D03*
X127000Y105000D02*X122500Y100500D01*
D03*
D03*
X121000D01*
X105500Y80500D02*Y79000D01*
Y80500D02*Y79000D01*
Y80500D02*Y79000D01*
Y80500D01*
Y79000D01*
X104000Y95500D02*Y93500D01*
Y95500D03*
X105500Y93500D02*X104000D01*
X105500D02*X104000D01*
X105500D03*
X108500D03*
X110500Y97500D02*Y96000D01*
X108500Y93500D03*
X110500Y97500D03*
X108500D03*
Y93500D02*Y90500D01*
D03*
Y93500D01*
Y90500D02*Y93500D01*
X105500Y90500D02*Y93500D01*
Y90500D02*Y93500D01*
Y90500D01*
X107000D01*
X110500Y97500D03*
X108500D03*
Y110500D03*
X113000Y114000D02*Y106000D01*
D03*
X108500Y97500D02*X110500D01*
X108500D02*X110500D01*
X108500Y100500D02*X107000D01*
X108500D02*Y97500D01*
Y100500D02*Y97500D01*
Y100500D02*Y97500D01*
Y100500D02*Y97500D01*
Y100500D02*Y97500D01*
Y100500D01*
X820000Y95000D03*
D03*
Y65500D03*
Y95000D03*
Y65500D01*
D03*
X815000Y77000D03*
X859500Y105000D02*X769500D01*
D03*
X859500D03*
X820000Y98500D03*
Y95000D01*
Y98500D01*
Y95000D02*Y98500D01*
D03*
X830000Y60500D03*
X815000D03*
X919500Y52500D03*
D03*
Y51000D01*
D03*
X899500Y45000D02*X859500D01*
X899500Y49500D02*Y45000D01*
D03*
X859500D03*
Y49500D02*Y45000D01*
X919500Y51000D02*Y49500D01*
D03*
X915000Y52500D03*
X919500D02*X915000D01*
Y103000D02*Y52500D01*
Y103000D03*
X929500Y112500D03*
X939500Y105000D03*
X919500Y109500D03*
X864000Y117000D02*X859500Y112500D01*
D03*
Y111000D01*
Y112500D03*
X889500Y105000D03*
X869500Y109500D02*Y103000D01*
X859500Y109500D02*Y105000D01*
X869500Y103000D03*
X889500Y109500D02*Y105000D01*
Y111000D02*Y109500D01*
X919500Y117000D02*Y109500D01*
Y117000D03*
Y109500D03*
D03*
X939500Y105000D02*X889500D01*
X939500Y109500D02*Y105000D01*
X929500Y112500D03*
Y111000D01*
X919500Y109500D02*Y111000D01*
X915000Y103000D02*X869500D01*
X919500Y117000D02*X864000D01*
X859500Y51000D02*Y49500D01*
X869500Y57000D02*Y49500D01*
Y57000D03*
Y49500D03*
D03*
Y51000D01*
Y49500D03*
Y57000D02*X759500D01*
X661500Y56500D02*Y43000D01*
X642750D02*X636500Y36750D01*
X681500Y55000D02*X666000Y39500D01*
X661500Y43000D03*
X642750D01*
X709500Y46500D02*X706500Y43500D01*
X709500Y46500D03*
D03*
D03*
X706500Y43500D02*Y40000D01*
X706000Y39500D01*
X709500Y49500D02*Y46500D01*
X719500Y57000D02*Y49500D01*
D03*
Y57000D02*X712250D01*
X719500D02*X712250D01*
X719500D03*
X666000Y39500D02*X645500D01*
X706500Y25500D03*
X705000Y55000D02*X681500D01*
X705750Y57000D02*X705000Y56250D01*
Y55000D03*
X712250Y57000D02*X705750D01*
X705000Y56250D02*Y55000D01*
X660000Y105000D03*
X680000D02*Y100000D01*
Y105000D02*X660000D01*
X696500Y150250D02*X668500Y122250D01*
X696000Y128500D03*
Y102000D01*
X681500Y112000D03*
X690500Y134000D02*X687500Y131000D01*
X696500Y157000D02*Y150250D01*
D03*
Y157000D03*
X639500Y112500D02*Y111000D01*
X692500Y106500D02*Y98500D01*
X704000D03*
X707500Y102000D02*Y98500D01*
Y102000D02*X696000D01*
X707500Y98500D03*
X704000D02*X692500D01*
X709500Y105000D03*
X815000Y77000D02*Y60500D01*
X830000D02*X815000D01*
X830000Y65500D02*Y60500D01*
X815000Y77000D02*X625500D01*
X820000Y98500D02*X707500D01*
X759500Y57000D03*
X735875D01*
X719500D01*
X759500D02*X735875D01*
X719500D03*
X656500Y84000D03*
X670000Y60000D03*
X685000Y80500D03*
X656500Y84000D03*
X670000Y60000D03*
X719500Y49500D03*
D03*
Y51000D01*
X709500Y49500D02*Y46500D01*
Y49500D02*Y46500D01*
D03*
D03*
X759500Y143500D02*Y109500D01*
D03*
D03*
Y111000D01*
X769500Y105000D02*X757250D01*
X769500Y109500D02*Y105000D01*
X757250D03*
X769500D02*X757250D01*
D03*
X739500Y132000D03*
X745000Y134000D03*
X759500Y143500D03*
X757250Y105000D03*
X745000D03*
X757250D02*X745000D01*
X757250D02*X745000D01*
X685000Y115500D02*Y80500D01*
X709500Y109500D02*Y105000D01*
X707500Y102000D03*
X704000Y98500D03*
X663500D03*
X680000Y105000D03*
X663500Y98500D03*
X680000Y100000D03*
X681500Y112000D03*
X685000Y115500D03*
X691000D02*X685000D01*
X687500Y119500D03*
X668500Y119000D03*
X691750Y132000D02*X691000Y131250D01*
X694500Y128500D02*X696000D01*
X694500D02*X696000D01*
D03*
X759500Y143500D02*X696500D01*
X745000Y134000D02*X690500D01*
X739500Y132000D02*X691750D01*
X745000Y134000D02*Y105000D01*
X739500Y132000D02*Y109500D01*
D03*
D03*
Y111000D01*
Y109500D03*
X745000Y105000D02*X709500D01*
X759500Y57000D02*Y49500D01*
D03*
D03*
Y51000D01*
Y49500D03*
Y57000D03*
Y109500D03*
G54D59*X410500Y134500D02*Y25500D01*
G54D58*X430500Y134500D02*Y25500D01*
X414750Y85000D02*Y66500D01*
D03*
X430500Y25500D03*
G54D59*X410500D03*
G54D58*X440500Y134500D02*Y25500D01*
D03*
X427000Y120500D03*
Y122000D01*
Y120500D02*Y122000D01*
D03*
X436000Y117000D03*
X452000Y130000D03*
X427000Y97250D03*
X424750Y110000D03*
X427000Y105000D03*
X499500Y7500D02*X330000D01*
X531500Y5500D02*X326500D01*
X359500Y57000D02*Y49500D01*
X450000Y19000D02*X385000D01*
X463000Y21500D02*X457000Y15500D01*
X484500Y9500D03*
X494000Y39250D03*
X489500Y21500D03*
X479500Y49500D03*
D03*
Y51000D01*
X344000Y13500D03*
X354000D03*
D03*
D03*
D03*
X349000Y18000D03*
X452000Y151500D02*Y130000D01*
Y151500D03*
X427000Y105000D03*
X424750Y110000D03*
X436000Y117000D03*
D03*
X414750D02*Y110000D01*
X427000Y97250D03*
Y122000D03*
Y120500D01*
X448500Y141000D02*Y135500D01*
X445000Y139000D02*Y125000D01*
Y139000D03*
X448500Y141000D03*
Y135500D03*
X462500Y105000D02*X445500D01*
X457000Y15500D03*
X453500Y75000D02*Y19000D01*
X457000Y15500D03*
X460000Y93750D03*
X453500Y19000D03*
X436000Y21000D02*X406000D01*
X482000Y82000D03*
X479500Y78500D02*Y49500D01*
Y78500D03*
X482000Y82000D03*
X468250D02*X464750Y78500D01*
X450750D02*X450000Y77750D01*
X464750Y78500D02*X450750D01*
X499500Y109500D03*
D03*
Y111000D01*
X530000Y126500D02*X516500D01*
X510000Y125000D02*X445000D01*
Y139000D02*X351750D01*
X397500Y130000D02*X353000D01*
X329500Y111000D03*
Y112500D01*
X349500Y109500D03*
Y111000D01*
X369500D03*
Y112500D01*
X383000Y94500D03*
X385000Y111000D02*X379500D01*
X374000Y105000D02*X359500D01*
X510000Y125000D03*
X519500Y109500D02*Y111000D01*
D03*
D03*
Y112500D01*
X530000Y126500D03*
Y137000D02*X531000D01*
X530000D02*X531000D01*
D03*
X634500Y141500D02*X611500D01*
X529500Y109500D02*Y107250D01*
X530000D01*
X529500Y109500D02*Y107250D01*
X530000D01*
D03*
X564000Y119000D02*X507750D01*
X595000Y123000D02*X510000D01*
X590000Y85500D02*X582000D01*
Y105000D02*X569500D01*
X385000Y49500D02*Y19000D01*
D03*
X406000Y64500D02*Y21000D01*
Y64500D03*
Y21000D03*
Y64500D02*X383000D01*
D03*
X457000Y15500D02*X357500D01*
X484500Y9500D02*X333500D01*
X499500Y7500D03*
X359500Y49500D03*
D03*
Y51000D01*
X450000Y19000D03*
X370000Y20500D03*
X436000Y21000D03*
X499500Y35750D02*Y28500D01*
X487500Y35750D03*
X453500Y19000D03*
X560000Y57000D02*X555750D01*
X544000Y45000D02*X509500D01*
X385000Y111000D02*Y97000D01*
X374000Y105000D03*
X385000Y111000D03*
X374000Y91000D03*
X369500Y117000D02*Y112500D01*
X366500Y103000D03*
X369500Y109500D02*Y111000D01*
D03*
X374000Y105000D02*Y91000D01*
X378500Y84500D03*
X366500Y103000D02*Y84500D01*
X383000Y94500D02*Y64500D01*
X378500Y84500D03*
X397500Y130000D02*Y102000D01*
X362500Y87500D02*Y67500D01*
X333750D02*X331500Y65250D01*
X364500Y62500D02*X335000D01*
X362500Y67500D03*
X354000Y80500D03*
X364500Y100500D02*Y62500D01*
X351750Y139000D02*X349500Y136750D01*
X354000Y80500D03*
X353000Y134000D02*Y130000D01*
X354000Y105000D03*
X329500Y117000D02*Y112500D01*
X355750Y117000D02*X354000Y115250D01*
X309500Y109500D02*Y105000D01*
X369500Y117000D03*
X397500Y130000D03*
X448500Y141000D02*X257000D01*
X406250Y97000D03*
X310000Y95000D03*
X383000Y94500D03*
X381500D02*X383000D01*
X381500D02*X383000D01*
X406250Y97000D03*
X402500Y102000D03*
X303500Y104000D02*Y103000D01*
X402500Y102000D03*
X362500Y87500D03*
X479500Y78500D02*X464750D01*
X329500Y117000D03*
Y109500D02*Y111000D01*
D03*
X359500Y109500D02*Y105000D01*
X364500Y100500D03*
X349500Y109500D03*
X482000Y82000D02*X468250D01*
X460000Y93750D03*
X559500Y117000D02*X524000D01*
X540000Y100500D02*X539500D01*
Y91500D01*
X559500Y109500D03*
X560500D02*X559500D01*
X519500Y112500D02*Y111000D01*
X580000Y93500D02*X560500D01*
X567500Y91500D02*X539500D01*
X567500Y90000D03*
X560500Y93500D03*
X585500Y96000D03*
X589500Y109500D02*X585500Y105500D01*
X569500Y105000D03*
X550000Y65500D02*X553000Y64000D01*
X555000Y70000D02*X553000D01*
X556500Y82000D02*X555000D01*
X582000Y85500D03*
X634500Y7500D02*X535000D01*
X627500Y17000D02*X605000D01*
Y18500D02*X590000D01*
X631000Y11000D02*X586500D01*
X594500Y23500D02*X585000D01*
X534500Y57000D02*X495750D01*
X624000Y64000D02*X620000D01*
X569500Y59500D02*X562500D01*
D03*
X553000Y64000D02*X550000D01*
X562500D02*X560000D01*
X479500Y49500D03*
X509500Y45000D03*
X569500Y41000D03*
Y52500D03*
X559500Y46500D03*
D03*
X556500Y43000D03*
X375000Y36500D02*X368000D01*
X364000Y59000D02*Y40000D01*
D03*
Y59000D03*
Y40000D03*
X375000Y43500D02*Y36500D01*
X359500Y57000D03*
Y49500D03*
X379500Y62500D02*Y49500D01*
Y62500D03*
Y49500D03*
X385000D03*
X379500D03*
D03*
Y51000D01*
X385000Y49500D02*X379500D01*
Y62500D02*X364500D01*
D03*
X319500Y49500D02*Y51000D01*
D03*
Y52500D02*Y51000D01*
Y57000D02*Y52500D01*
D03*
D03*
X89500Y62500D02*X86000D01*
X82500D02*X79750D01*
X79000Y55500D02*X67750D01*
X314000Y57000D02*X280000D01*
X273500Y50500D02*X236500D01*
X186500D03*
X241000Y55000D02*X191000D01*
X246500Y60500D03*
X179000Y32500D02*X168500D01*
X168750Y46000D02*X108500D01*
X364000Y40000D02*X362500Y38500D01*
X345500Y30500D03*
X344000Y34000D02*X342750D01*
X309500Y45000D02*X191000D01*
X362500Y30500D03*
X340500Y39000D02*X325250D01*
X186500Y40500D03*
X349500Y49500D02*Y51000D01*
D03*
Y52500D01*
D03*
Y51000D03*
X636500Y3500D02*X86000D01*
X531500Y5500D03*
X326500D03*
X370000Y30500D02*Y20500D01*
Y30500D03*
Y20500D03*
Y30500D02*X362500D01*
X364000Y59000D02*X331500D01*
X359500Y57000D02*X319500D01*
X331500Y59000D03*
X330000Y17500D03*
Y7500D03*
X321500Y14000D03*
G54D60*X121000Y120500D03*
Y110500D03*
Y100500D03*
Y90500D03*
Y80500D03*
Y70500D03*
Y60500D03*
X171000D03*
X121000Y50500D03*
X171000D03*
X121000Y40500D03*
X171000D03*
Y70500D03*
Y80500D03*
Y90500D03*
Y100500D03*
Y110500D03*
Y120500D03*
X185000D03*
Y110500D03*
Y100500D03*
Y90500D03*
Y80500D03*
Y70500D03*
Y60500D03*
Y50500D03*
Y40500D03*
X235000Y110500D03*
Y120500D03*
X57000D03*
X107000D03*
X57000Y110500D03*
Y100500D03*
Y90500D03*
Y80500D03*
Y70500D03*
Y60500D03*
Y50500D03*
X43000Y51000D03*
Y61000D03*
X57000Y40500D03*
X43000Y31000D03*
Y41000D03*
Y71000D03*
Y81000D03*
Y91000D03*
Y101000D03*
Y111000D03*
Y121000D03*
X107000Y40500D03*
Y50500D03*
Y60500D03*
Y70500D03*
Y80500D03*
Y90500D03*
Y100500D03*
Y110500D03*
X73000Y121000D03*
Y111000D03*
Y101000D03*
Y91000D03*
Y81000D03*
Y71000D03*
Y61000D03*
Y51000D03*
Y41000D03*
Y31000D03*
G54D61*G36*
X826500Y69000D02*Y62000D01*
X833500D01*
Y69000D01*
X826500D01*
G37*
G54D62*X820000Y65500D03*
G54D60*X859500Y51000D03*
X869500D03*
X879500D03*
X889500D03*
X899500D03*
X909500D03*
X919500D03*
X929500D03*
X939500D03*
Y111000D03*
X929500D03*
X919500D03*
X909500D03*
X899500D03*
X889500D03*
X879500D03*
X869500D03*
X859500D03*
X709500Y51000D03*
X719500D03*
X729500D03*
X739500D03*
X749500D03*
X759500D03*
X769500D03*
X779500D03*
X789500D03*
G54D61*G36*
X676500Y63500D02*Y56500D01*
X683500D01*
Y63500D01*
X676500D01*
G37*
G54D62*X670000Y60000D03*
G54D60*X789500Y111000D03*
G54D61*G36*
X826500Y98500D02*Y91500D01*
X833500D01*
Y98500D01*
X826500D01*
G37*
G54D62*X820000Y95000D03*
G54D60*X779500Y111000D03*
X769500D03*
X759500D03*
X749500D03*
X739500D03*
X729500D03*
X719500D03*
X709500D03*
G54D61*G36*
X676500Y103500D02*Y96500D01*
X683500D01*
Y103500D01*
X676500D01*
G37*
G54D62*X670000Y100000D03*
G54D60*X309500Y51000D03*
X319500D03*
X329500D03*
X339500D03*
X349500D03*
X359500D03*
X369500D03*
X379500D03*
X235000Y40500D03*
Y50500D03*
Y60500D03*
Y70500D03*
Y80500D03*
Y90500D03*
Y100500D03*
X389500Y111000D03*
X379500D03*
X369500D03*
X359500D03*
X349500D03*
X339500D03*
X329500D03*
X319500D03*
X309500D03*
X389500Y51000D03*
X459500D03*
X469500D03*
X479500D03*
X489500D03*
X499500D03*
X509500D03*
G54D61*G36*
X407500Y28500D02*Y22500D01*
X413500D01*
Y28500D01*
X407500D01*
G37*
G54D60*X420500Y25500D03*
X430500D03*
X440500D03*
G54D61*G36*
X407500Y137500D02*Y131500D01*
X413500D01*
Y137500D01*
X407500D01*
G37*
G54D60*X420500Y134500D03*
X430500D03*
X440500D03*
X539500Y111000D03*
X529500D03*
X519500D03*
X509500D03*
X499500D03*
X489500D03*
X479500D03*
X469500D03*
X459500D03*
X500000Y135500D03*
X510000D03*
X520000D03*
X530000D03*
X540000D03*
X550000D03*
X560000D03*
X570000D03*
X580000D03*
X590000D03*
X600000D03*
X610000D03*
X620000D03*
X630000D03*
X519500Y51000D03*
X529500D03*
X539500D03*
X560000Y65500D03*
X550000D03*
X540000D03*
X530000D03*
X520000D03*
X510000D03*
X500000D03*
X630000D03*
X620000D03*
X610000D03*
X600000D03*
X590000D03*
X580000D03*
X570000D03*
X559500Y51000D03*
X569500D03*
X579500D03*
X589500D03*
X599500D03*
X609500D03*
X619500D03*
X629500D03*
X639500D03*
Y111000D03*
X629500D03*
X619500D03*
X609500D03*
X599500D03*
X589500D03*
X579500D03*
X569500D03*
X559500D03*
X119500Y60500D02*X122500D01*
X119500Y50500D02*X122500D01*
X119500Y40500D02*X122500D01*
X105500D02*X108500D01*
X105500Y50500D02*X108500D01*
X119500Y100500D02*X122500D01*
X119500Y90500D02*X122500D01*
X119500Y120500D02*X122500D01*
X119500Y110500D02*X122500D01*
X119500Y80500D02*X122500D01*
X119500Y70500D02*X122500D01*
X105500Y60500D02*X108500D01*
X105500Y70500D02*X108500D01*
X105500Y80500D02*X108500D01*
X105500Y90500D02*X108500D01*
X105500Y100500D02*X108500D01*
X105500Y110500D02*X108500D01*
X105500Y120500D02*X108500D01*
X309500Y52500D02*Y49500D01*
X319500Y52500D02*Y49500D01*
X329500Y52500D02*Y49500D01*
X339500Y52500D02*Y49500D01*
X349500Y52500D02*Y49500D01*
X359500Y52500D02*Y49500D01*
X369500Y52500D02*Y49500D01*
X379500Y52500D02*Y49500D01*
X389500Y52500D02*Y49500D01*
Y112500D02*Y109500D01*
X379500Y112500D02*Y109500D01*
X369500Y112500D02*Y109500D01*
X359500Y112500D02*Y109500D01*
X349500Y112500D02*Y109500D01*
X339500Y112500D02*Y109500D01*
X329500Y112500D02*Y109500D01*
X319500Y112500D02*Y109500D01*
X309500Y112500D02*Y109500D01*
X169500Y40500D02*X172500D01*
X169500Y50500D02*X172500D01*
X169500Y60500D02*X172500D01*
X169500Y90500D02*X172500D01*
X169500Y100500D02*X172500D01*
X169500Y110500D02*X172500D01*
X183500D02*X186500D01*
X169500Y120500D02*X172500D01*
X183500D02*X186500D01*
X183500Y100500D02*X186500D01*
X183500Y90500D02*X186500D01*
X169500Y70500D02*X172500D01*
X169500Y80500D02*X172500D01*
X183500D02*X186500D01*
X183500Y70500D02*X186500D01*
X183500Y60500D02*X186500D01*
X183500Y50500D02*X186500D01*
X183500Y40500D02*X186500D01*
X233500D02*X236500D01*
X233500Y50500D02*X236500D01*
X233500Y60500D02*X236500D01*
X233500Y70500D02*X236500D01*
X233500Y80500D02*X236500D01*
X233500Y90500D02*X236500D01*
X233500Y100500D02*X236500D01*
X233500Y110500D02*X236500D01*
X233500Y120500D02*X236500D01*
X55500D02*X58500D01*
X55500Y110500D02*X58500D01*
X71500Y121000D02*X74500D01*
X71500Y111000D02*X74500D01*
X55500Y80500D02*X58500D01*
X55500Y70500D02*X58500D01*
X55500Y60500D02*X58500D01*
X55500Y50500D02*X58500D01*
X55500Y40500D02*X58500D01*
X41500Y31000D02*X44500D01*
X41500Y41000D02*X44500D01*
X41500Y51000D02*X44500D01*
X41500Y61000D02*X44500D01*
X41500Y71000D02*X44500D01*
X41500Y81000D02*X44500D01*
X41500Y91000D02*X44500D01*
X41500Y101000D02*X44500D01*
X41500Y111000D02*X44500D01*
X41500Y121000D02*X44500D01*
X55500Y100500D02*X58500D01*
X55500Y90500D02*X58500D01*
X71500Y101000D02*X74500D01*
X71500Y91000D02*X74500D01*
X71500Y81000D02*X74500D01*
X71500Y71000D02*X74500D01*
X71500Y61000D02*X74500D01*
X71500Y51000D02*X74500D01*
X71500Y41000D02*X74500D01*
X71500Y31000D02*X74500D01*
X859500Y52500D02*Y49500D01*
X869500Y52500D02*Y49500D01*
X879500Y52500D02*Y49500D01*
X889500Y52500D02*Y49500D01*
X899500Y52500D02*Y49500D01*
X909500Y52500D02*Y49500D01*
X919500Y52500D02*Y49500D01*
X929500Y52500D02*Y49500D01*
X939500Y52500D02*Y49500D01*
Y112500D02*Y109500D01*
X929500Y112500D02*Y109500D01*
X919500Y112500D02*Y109500D01*
X909500Y112500D02*Y109500D01*
X899500Y112500D02*Y109500D01*
X889500Y112500D02*Y109500D01*
X879500Y112500D02*Y109500D01*
X869500Y112500D02*Y109500D01*
X709500Y52500D02*Y49500D01*
X719500Y52500D02*Y49500D01*
X729500Y52500D02*Y49500D01*
X739500Y52500D02*Y49500D01*
X749500Y52500D02*Y49500D01*
X759500Y52500D02*Y49500D01*
X769500Y52500D02*Y49500D01*
X779500Y52500D02*Y49500D01*
X789500Y52500D02*Y49500D01*
X859500Y112500D02*Y109500D01*
X789500Y112500D02*Y109500D01*
X779500Y112500D02*Y109500D01*
X769500Y112500D02*Y109500D01*
X759500Y112500D02*Y109500D01*
X749500Y112500D02*Y109500D01*
X739500Y112500D02*Y109500D01*
X729500Y112500D02*Y109500D01*
X719500Y112500D02*Y109500D01*
X709500Y112500D02*Y109500D01*
X459500Y52500D02*Y49500D01*
X469500Y52500D02*Y49500D01*
X479500Y52500D02*Y49500D01*
X489500Y52500D02*Y49500D01*
X499500Y52500D02*Y49500D01*
X509500Y52500D02*Y49500D01*
X519500Y52500D02*Y49500D01*
X509500Y112500D02*Y109500D01*
X510000Y137000D02*Y134000D01*
X499500Y112500D02*Y109500D01*
X500000Y137000D02*Y134000D01*
X489500Y112500D02*Y109500D01*
X479500Y112500D02*Y109500D01*
X469500Y112500D02*Y109500D01*
X459500Y112500D02*Y109500D01*
X529500Y52500D02*Y49500D01*
X539500Y52500D02*Y49500D01*
X540000Y67000D02*Y64000D01*
X530000Y67000D02*Y64000D01*
X520000Y67000D02*Y64000D01*
X510000Y67000D02*Y64000D01*
X500000Y67000D02*Y64000D01*
X539500Y112500D02*Y109500D01*
X529500Y112500D02*Y109500D01*
X519500Y112500D02*Y109500D01*
X520000Y137000D02*Y134000D01*
X530000Y137000D02*Y134000D01*
X540000Y137000D02*Y134000D01*
X550000Y137000D02*Y134000D01*
X559500Y112500D02*Y109500D01*
X560000Y137000D02*Y134000D01*
X570000Y137000D02*Y134000D01*
X580000Y137000D02*Y134000D01*
X630000Y67000D02*Y64000D01*
X620000Y67000D02*Y64000D01*
X610000Y67000D02*Y64000D01*
X600000Y67000D02*Y64000D01*
X590000Y67000D02*Y64000D01*
X580000Y67000D02*Y64000D01*
X570000Y67000D02*Y64000D01*
X560000Y67000D02*Y64000D01*
X550000Y67000D02*Y64000D01*
X559500Y52500D02*Y49500D01*
X569500Y52500D02*Y49500D01*
X579500Y52500D02*Y49500D01*
X589500Y52500D02*Y49500D01*
X599500Y52500D02*Y49500D01*
X609500Y52500D02*Y49500D01*
X619500Y52500D02*Y49500D01*
X629500Y52500D02*Y49500D01*
X639500Y52500D02*Y49500D01*
X590000Y137000D02*Y134000D01*
X600000Y137000D02*Y134000D01*
X610000Y137000D02*Y134000D01*
X620000Y137000D02*Y134000D01*
X619500Y112500D02*Y109500D01*
X630000Y137000D02*Y134000D01*
X639500Y112500D02*Y109500D01*
X629500Y112500D02*Y109500D01*
X609500Y112500D02*Y109500D01*
X599500Y112500D02*Y109500D01*
X589500Y112500D02*Y109500D01*
X579500Y112500D02*Y109500D01*
X569500Y112500D02*Y109500D01*
G54D63*X213000Y148000D03*
Y137500D03*
X194000Y141000D03*
X86000Y41000D03*
X82500Y70000D03*
X38000Y135500D03*
Y144500D03*
X206000Y137500D03*
X189000D03*
X89500Y66000D03*
X130500Y70500D03*
X168500Y32500D03*
X123000Y34000D03*
X244500Y27000D03*
X349000Y18000D03*
Y37500D03*
X354000Y13500D03*
Y41500D03*
Y80500D03*
X368000Y36500D03*
X357500Y27000D03*
X345500Y30500D03*
X353000Y134000D03*
X199500Y113000D03*
X303500Y104000D03*
X310000Y95000D03*
X313500Y87500D03*
X314000Y9000D03*
X344000Y13500D03*
X333500Y14000D03*
X317500D03*
X340500Y39000D03*
X326500Y34000D03*
X335000Y62500D03*
X250000Y66000D03*
X246500Y60500D03*
X82500Y59000D03*
Y75500D03*
X89500D03*
X375000Y43500D03*
X374000Y91000D03*
X378500Y84500D03*
X381500Y94500D03*
X661500Y56500D03*
X414750Y66500D03*
X575500Y82000D03*
X453500Y75000D03*
X482000Y82000D03*
X556500D03*
X460000Y93750D03*
X567500Y90000D03*
X706000Y39500D03*
X534500Y153500D03*
X539500Y153000D03*
X516500Y126500D03*
X564000Y97250D03*
X618500Y103500D03*
X668500Y119000D03*
X656500Y84000D03*
X663500Y98500D03*
X692500Y106500D03*
X681500Y112000D03*
X687500Y119500D03*
X704000Y98500D03*
X585500Y96000D03*
X606500Y143000D03*
X694500Y128500D03*
X618500Y84000D03*
X595000Y89000D03*
X625500Y77000D03*
X614000Y43000D03*
X605750Y27500D03*
X627500Y31000D03*
X590000Y18500D03*
X613500Y21500D03*
X534500Y100750D03*
X620500Y96000D03*
X649500Y95000D03*
Y112000D03*
X535000Y13500D03*
X489500Y21500D03*
X494000Y39250D03*
X601500Y15000D03*
X585000Y23500D03*
X645500Y39500D03*
X586500Y11000D03*
X484500Y18000D03*
X487500Y41500D03*
X406250Y97000D03*
X416250Y105000D03*
X427000Y97250D03*
X445500Y105000D03*
X448500Y135500D03*
X402500Y102000D03*
X460000Y101500D03*
X452000Y130000D03*
X427000Y105000D03*
X424750Y110000D03*
X414750Y117000D03*
X436000D03*
X416250Y122000D03*
X427000Y120500D03*
X370000Y20500D03*
X453500Y19000D03*
G54D64*G54D65*G54D66*G54D65*G54D66*G54D65*G54D67*G54D65*G54D66*G54D65*G54D66*G54D65*G54D67*G54D65*G54D67*G54D65*G54D67*G54D65*G54D68*G54D65*M02*
