M48
INCH
T82C0.020
T81C0.038
T80C0.028
T79C0.035
%
T82
X021300Y014800
X021300Y013750
X019400Y014100
X008600Y004100
X008250Y007000
X003800Y013550
X003800Y014450
X020600Y013750
X018900Y013750
X008950Y006600
X013050Y007050
X016850Y003250
X012300Y003400
X024450Y002700
X034900Y001800
X034900Y003750
X035400Y001350
X035400Y004150
X035400Y008050
X036800Y003650
X035750Y002700
X034550Y003050
X035300Y013400
X019950Y011300
X030350Y010400
X031000Y009500
X031350Y008750
X031400Y000900
X034400Y001350
X033350Y001400
X031750Y001400
X034050Y003900
X032650Y003400
X033500Y006250
X025000Y006600
X024650Y006050
X008250Y005900
X008250Y007550
X008950Y007550
X037500Y004350
X037400Y009100
X037850Y008450
X038150Y009450
X066150Y005650
X041475Y006650
X057550Y008200
X045350Y007500
X048200Y008200
X055650Y008200
X046000Y009375
X056750Y009000
X070600Y003950
X053450Y015350
X053950Y015300
X051650Y012650
X056400Y009725
X061850Y010350
X066850Y011900
X065650Y008400
X066350Y009850
X069250Y010650
X068150Y011200
X068750Y011950
X070400Y009850
X058550Y009600
X060650Y014300
X069450Y012850
X061850Y008400
X059500Y008900
X062550Y007700
X061400Y004300
X060575Y002750
X062750Y003100
X059000Y001850
X061350Y002150
X053450Y010075
X062050Y009600
X064950Y009500
X064950Y011200
X053500Y001350
X048950Y002150
X049400Y003925
X060150Y001500
X058500Y002350
X064550Y003950
X058650Y001100
X048450Y001800
X048750Y004150
X040625Y009700
X041625Y010500
X042700Y009725
X044550Y010500
X044850Y013550
X040250Y010200
X046000Y010150
X045200Y013000
X042700Y010500
X042475Y011000
X041475Y011700
X043600Y011700
X041625Y012200
X042700Y012050
X037000Y002050
X045350Y001900
T80
X083000Y006550
X082000Y006550
X068000Y006000
X067000Y006000
X083000Y009500
X082000Y009500
X068000Y010000
X067000Y010000
T79
X012100Y012050
X012100Y011050
X012100Y010050
X012100Y009050
X012100Y008050
X012100Y007050
X012100Y006050
X017100Y006050
X012100Y005050
X017100Y005050
X012100Y004050
X017100Y004050
X017100Y007050
X017100Y008050
X017100Y009050
X017100Y010050
X017100Y011050
X017100Y012050
X018500Y012050
X018500Y011050
X018500Y010050
X018500Y009050
X018500Y008050
X018500Y007050
X018500Y006050
X018500Y005050
X018500Y004050
X023500Y011050
X023500Y012050
X005700Y012050
X010700Y012050
X005700Y011050
X005700Y010050
X005700Y009050
X005700Y008050
X005700Y007050
X005700Y006050
X005700Y005050
X004300Y005100
X004300Y006100
X005700Y004050
X004300Y003100
X004300Y004100
X004300Y007100
X004300Y008100
X004300Y009100
X004300Y010100
X004300Y011100
X004300Y012100
X010700Y004050
X010700Y005050
X010700Y006050
X010700Y007050
X010700Y008050
X010700Y009050
X010700Y010050
X010700Y011050
X007300Y012100
X007300Y011100
X007300Y010100
X007300Y009100
X007300Y008100
X007300Y007100
X007300Y006100
X007300Y005100
X007300Y004100
X007300Y003100
X085950Y005100
X086950Y005100
X087950Y005100
X088950Y005100
X089950Y005100
X090950Y005100
X091950Y005100
X092950Y005100
X093950Y005100
X093950Y011100
X092950Y011100
X091950Y011100
X090950Y011100
X089950Y011100
X088950Y011100
X087950Y011100
X086950Y011100
X085950Y011100
X070950Y005100
X071950Y005100
X072950Y005100
X073950Y005100
X074950Y005100
X075950Y005100
X076950Y005100
X077950Y005100
X078950Y005100
X078950Y011100
X077950Y011100
X076950Y011100
X075950Y011100
X074950Y011100
X073950Y011100
X072950Y011100
X071950Y011100
X070950Y011100
X030950Y005100
X031950Y005100
X032950Y005100
X033950Y005100
X034950Y005100
X035950Y005100
X036950Y005100
X037950Y005100
X023500Y004050
X023500Y005050
X023500Y006050
X023500Y007050
X023500Y008050
X023500Y009050
X023500Y010050
X038950Y011100
X037950Y011100
X036950Y011100
X035950Y011100
X034950Y011100
X033950Y011100
X032950Y011100
X031950Y011100
X030950Y011100
X038950Y005100
X045950Y005100
X046950Y005100
X047950Y005100
X048950Y005100
X049950Y005100
X050950Y005100
X053950Y011100
X052950Y011100
X051950Y011100
X050950Y011100
X049950Y011100
X048950Y011100
X047950Y011100
X046950Y011100
X045950Y011100
X050000Y013550
X051000Y013550
X052000Y013550
X053000Y013550
X054000Y013550
X055000Y013550
X056000Y013550
X057000Y013550
X058000Y013550
X059000Y013550
X060000Y013550
X061000Y013550
X062000Y013550
X063000Y013550
X051950Y005100
X052950Y005100
X053950Y005100
X056000Y006550
X055000Y006550
X054000Y006550
X053000Y006550
X052000Y006550
X051000Y006550
X050000Y006550
X063000Y006550
X062000Y006550
X061000Y006550
X060000Y006550
X059000Y006550
X058000Y006550
X057000Y006550
X055950Y005100
X056950Y005100
X057950Y005100
X058950Y005100
X059950Y005100
X060950Y005100
X061950Y005100
X062950Y005100
X063950Y005100
X063950Y011100
X062950Y011100
X061950Y011100
X060950Y011100
X059950Y011100
X058950Y011100
X057950Y011100
X056950Y011100
X055950Y011100
T81
X041050Y002550
X042050Y002550
X043050Y002550
X044050Y002550
X041050Y013450
X042050Y013450
X043050Y013450
X044050Y013450
M30
