G04 start of page 15 for group -4078 idx -4078 *
G04 Title: (unknown), bottomsilk *
G04 Creator: pcb 20110918 *
G04 CreationDate: Tue 14 Jan 2014 03:41:54 PM GMT UTC *
G04 For: vince *
G04 Format: Gerber/RS-274X *
G04 PCB-Dimensions: 1000000 160000 *
G04 PCB-Coordinate-Origin: lower left *
%MOIN*%
%FSLAX25Y25*%
%LNBOTTOMSILK*%
%ADD96C,0.0100*%
G54D96*X38000Y136000D02*Y16000D01*
Y136000D02*X78000D01*
Y16000D01*
X67000D02*X78000D01*
X67000D02*X58000Y21000D01*
X49000Y16000D01*
X38000D02*X49000D01*
X490000Y140500D02*X640000D01*
Y60500D01*
X490000D02*X640000D01*
X490000Y91500D02*Y60500D01*
Y91500D02*X495000Y100500D01*
X490000Y109500D01*
Y140500D02*Y109500D01*
X481000Y135500D02*Y136500D01*
Y136000D02*X485000D01*
Y135500D02*Y136500D01*
Y132300D02*Y133600D01*
X484300Y134300D02*X485000Y133600D01*
X481700Y134300D02*X484300D01*
X481700D02*X481000Y133600D01*
Y132300D02*Y133600D01*
X481800Y131100D02*X481000Y130300D01*
X485000D01*
Y129600D02*Y131100D01*
X44000Y10000D02*X44500Y10500D01*
X42500Y10000D02*X44000D01*
X42000Y10500D02*X42500Y10000D01*
X42000Y10500D02*Y11500D01*
X42500Y12000D01*
X44000D01*
X44500Y12500D01*
Y13500D01*
X44000Y14000D02*X44500Y13500D01*
X42500Y14000D02*X44000D01*
X42000Y13500D02*X42500Y14000D01*
X45700Y10500D02*Y13500D01*
Y10500D02*X46200Y10000D01*
X47200D01*
X47700Y10500D01*
Y13500D01*
X47200Y14000D02*X47700Y13500D01*
X46200Y14000D02*X47200D01*
X45700Y13500D02*X46200Y14000D01*
X49600D02*X50900D01*
X48900Y13300D02*X49600Y14000D01*
X48900Y10700D02*Y13300D01*
Y10700D02*X49600Y10000D01*
X50900D01*
X52100D02*Y14000D01*
Y12000D02*X54100Y10000D01*
X52100Y12000D02*X54100Y14000D01*
X55300Y11800D02*X56800D01*
X55300Y14000D02*X57300D01*
X55300Y10000D02*Y14000D01*
Y10000D02*X57300D01*
X58500D02*X60500D01*
X59500D02*Y14000D01*
X61700Y10800D02*X62500Y10000D01*
Y14000D01*
X61700D02*X63200D01*
M02*
