G04 start of page 2 for group 0 idx 0 *
G04 Title: (unknown), top *
G04 Creator: pcb 20110918 *
G04 CreationDate: Tue 14 Jan 2014 03:41:53 PM GMT UTC *
G04 For: vince *
G04 Format: Gerber/RS-274X *
G04 PCB-Dimensions: 1000000 160000 *
G04 PCB-Coordinate-Origin: lower left *
%MOIN*%
%FSLAX25Y25*%
%LNTOP*%
%ADD21C,0.0380*%
%ADD20C,0.0280*%
%ADD19C,0.1250*%
%ADD18C,0.0350*%
%ADD17C,0.0200*%
%ADD16C,0.0400*%
%ADD15C,0.0700*%
%ADD14C,0.0001*%
%ADD13C,0.0600*%
%ADD12C,0.0100*%
%ADD11C,0.0250*%
G54D11*X420500Y134500D02*Y64000D01*
G54D12*X414750Y84500D02*Y66500D01*
D03*
X427000Y120500D03*
D03*
X424750Y110000D03*
X427000Y120500D03*
X424750Y110000D03*
X414750Y84500D03*
Y66500D03*
X427000Y97250D03*
Y105000D03*
Y97250D03*
Y105000D03*
X423500Y117000D03*
Y71500D03*
Y123250D02*Y117000D01*
Y108750D02*Y71500D01*
X427000Y105000D03*
X424750Y110000D02*X423500Y108750D01*
X424750Y110000D03*
X427000Y97250D03*
X430250Y130000D02*X423500Y123250D01*
G54D11*X410500Y134500D03*
D03*
D03*
D03*
G54D12*X412750Y97000D02*X406250D01*
X412750Y101500D02*Y97000D01*
D03*
X416250Y105000D03*
Y122000D03*
X414750Y117000D03*
X416250Y105000D03*
X412750Y101500D01*
X414750Y117000D03*
X416250Y122000D03*
G54D11*X410500Y134500D02*Y126250D01*
D03*
G54D12*X452000Y130000D03*
D03*
X430500Y117000D02*Y113500D01*
Y117000D03*
X423500D01*
X452000Y130000D02*X430250D01*
X445500Y105000D03*
X449000Y113500D02*Y97250D01*
Y113500D03*
X430500D01*
D03*
X449000Y97250D03*
X460000Y101500D03*
D03*
D03*
X459500Y109500D02*Y105500D01*
Y105000D01*
X460000Y101500D02*X459500D01*
X460000D02*X459500D01*
D03*
X460000D02*X459500D01*
Y105000D03*
D03*
Y101500D01*
X449000Y97250D02*X427000D01*
X445500Y105000D03*
X449000Y97250D03*
X445500Y105000D02*X427000D01*
X449000Y97250D02*X427000D01*
X520000Y64000D03*
X567000Y61000D02*X565000D01*
X520000Y64000D03*
X567000Y61000D03*
D03*
X550000Y60500D02*Y57000D01*
Y64000D02*Y60500D01*
Y57000D03*
Y64000D02*Y60500D01*
Y57000D02*X535750D01*
X550000Y60500D02*Y57000D01*
X520000Y64000D02*Y65500D01*
D03*
X570000Y64000D02*Y65500D01*
D03*
Y67000D01*
D03*
Y61000D03*
Y64000D03*
X520000Y65500D02*Y67000D01*
D03*
X522000Y27000D02*X516500Y21500D01*
X590000Y27000D02*X522000D01*
X585000Y15000D02*X538500D01*
D03*
X590000Y18500D03*
X584500Y43000D02*X519500D01*
D03*
X565000Y52500D02*X559500D01*
X565000Y61000D02*Y52500D01*
X570000Y64000D02*X567000Y61000D01*
X570000Y64000D03*
D03*
Y61000D01*
Y64000D02*Y61000D01*
X579500Y45000D02*X550000D01*
X579500Y49500D02*Y45000D01*
X550000D03*
X570000Y61000D02*X567000D01*
X570000D02*X567000D01*
X590000Y64000D03*
D03*
X550000Y57000D02*Y45000D01*
X609500Y59500D02*X594500D01*
X590000Y64000D03*
X594500Y59500D03*
X610000Y64000D03*
D03*
Y65500D01*
X614500Y57000D03*
X610000Y64000D03*
X625000Y70250D02*Y52500D01*
X599500Y51000D02*X594000Y45500D01*
X584500Y43000D03*
X599500Y51000D03*
X579500Y45000D03*
X599500Y51000D02*Y45500D01*
Y52500D03*
X565000D03*
X625000D03*
X599500D03*
X609500Y49500D02*Y39500D01*
X614000Y56500D02*Y43000D01*
D03*
X609500Y39500D03*
X614000Y43000D03*
X627500Y31000D03*
X605750Y27500D03*
X627500Y31000D03*
X619500Y43000D03*
X590000Y27000D03*
X605750Y27500D02*X604500D01*
X596000Y19000D01*
X598250Y17750D02*X602000Y21500D01*
X613500D01*
X599500Y45500D02*X618000Y27000D01*
X598000Y17750D02*X598250D01*
G54D11*X500000Y139750D02*Y137000D01*
Y139750D03*
G54D12*X506250Y141500D02*X504500Y139750D01*
G54D11*X500000Y137000D02*Y139750D01*
D03*
G54D12*X491500Y135500D02*Y129500D01*
Y135500D03*
Y129500D03*
Y135500D02*X448500D01*
X504500Y129500D03*
G54D11*X500000Y134000D02*Y135500D01*
D03*
G54D12*X504500Y129500D02*X491500D01*
G54D11*X500000Y135500D03*
G54D12*X504500Y139750D02*Y129500D01*
G54D11*X500000Y139750D02*X415750D01*
X410500Y134500D01*
X500000Y137000D02*Y135500D01*
G54D12*X534000Y117000D02*X529500Y112500D01*
X524000Y117000D02*Y105000D01*
Y117000D03*
Y105000D03*
X534500Y100750D03*
D03*
X515750Y117000D02*X509500Y110750D01*
X519500Y109500D02*Y105000D01*
X524500Y141500D02*Y129500D01*
X522500Y134000D03*
Y127500D01*
X524500Y141500D03*
Y129500D03*
X534500Y153500D03*
X524500Y141500D02*X506250D01*
X516500Y126500D02*Y121000D01*
X524000Y117000D02*X515750D01*
X522500Y127500D03*
Y134000D02*X520000D01*
X539500Y153000D03*
X538000Y151500D02*Y150000D01*
D03*
X539500Y153000D03*
X538000Y151500D01*
X469500Y117000D02*Y109500D01*
X489500Y119000D02*Y112500D01*
Y120500D02*Y119000D01*
Y120500D03*
X469500Y117000D03*
X489500Y119000D02*Y112500D01*
X459500Y105500D02*Y105000D01*
X519500D02*X459500D01*
X519500D03*
X469500Y117000D02*X436000D01*
X489500Y120500D02*X427000D01*
X516500Y121000D03*
X595500Y127500D02*X522500D01*
X589500Y119000D02*Y112500D01*
Y119000D03*
X579500Y117000D03*
X534000D01*
X595500Y127500D03*
X570000Y137000D03*
X560000D03*
X570000D02*Y135500D01*
X560000Y137000D02*Y135500D01*
Y137000D03*
X570000D03*
X580000Y129500D02*X524500D01*
X598000Y121000D02*X516500D01*
X589500Y119000D02*X489500D01*
X598000Y117000D03*
X619500Y111000D02*X622000D01*
X619500D01*
X622000D02*X619500D01*
X618500Y103500D03*
X619500Y111000D02*X622000Y112500D01*
X619500D01*
X625500Y143000D02*X606500D01*
X600000Y126500D03*
X625500Y128500D03*
X624000Y117000D02*X598000D01*
X595500Y140750D02*Y127500D01*
X534500Y100750D03*
X520000Y134000D02*X522500D01*
X520000D02*X522500D01*
X520000Y135500D01*
X522500Y134000D03*
X520000Y135500D03*
X522500Y137000D01*
X520000D01*
X594500Y78500D02*X471500D01*
X590000Y76500D02*X511250D01*
X560000Y97250D02*X449000D01*
X589000Y96000D03*
X556500Y82000D02*X482000D01*
X560000Y84500D03*
X564000Y86500D03*
X575500Y84500D02*X560000D01*
X575500Y82000D03*
X573500Y96000D02*X567500Y90000D01*
X560000Y97250D02*Y84500D01*
Y97250D03*
X556500Y82000D03*
D03*
X610000D02*X575500D01*
X567500Y90000D03*
X571000Y86500D03*
X567500Y90000D03*
X571000Y86500D02*X564000D01*
X567500Y90000D03*
X589000Y100750D02*X534500D01*
X589000Y90000D02*X574500D01*
X585500Y96000D02*X573500D01*
X620500D02*X589000D01*
X618500Y105000D02*X524000D01*
X620500Y96000D02*X622000D01*
D03*
X620500D01*
D03*
X622000D01*
X624000Y92500D02*X591500D01*
X625500Y89000D02*X595000D01*
X625500Y77000D03*
X618500Y84000D02*X614500Y80000D01*
X450000Y21000D02*X436000D01*
X426000D02*X416000D01*
X426000D03*
X416000D03*
Y30000D02*Y21000D01*
Y30000D03*
X406500D01*
X460000Y93750D02*Y75000D01*
D03*
X464500Y71500D02*X423500D01*
X450750Y22500D02*X450000Y21750D01*
X453500Y19000D03*
D03*
X457000Y22500D02*X450750D01*
X450000Y21750D02*Y21000D01*
G54D11*X420500Y64000D02*Y25500D01*
G54D12*X430500D03*
G54D11*X420500D03*
G54D12*X430500Y31750D02*Y25500D01*
X457000Y22500D02*Y15500D01*
D03*
Y22500D03*
X459500Y41500D03*
X455750Y57000D02*X430500Y31750D01*
X436750Y30000D02*X436000Y29250D01*
X455000Y59500D02*X426000Y30500D01*
X436000Y29250D02*Y21000D01*
X426000Y30500D02*Y21000D01*
X510000Y64000D02*Y57000D01*
X514500Y58500D02*Y25500D01*
X509500Y49500D02*Y45000D01*
D03*
X514500Y25500D03*
X510000Y57000D03*
X519500Y49500D02*Y43000D01*
X535750Y57000D02*X529500Y50750D01*
X538500Y18000D02*Y15000D01*
X535000Y13500D03*
X538500Y18000D03*
X535000Y13500D03*
X516500Y21500D03*
X489500D01*
X538500Y18000D02*X484500D01*
X505500Y59500D02*X455000D01*
G54D11*X500000Y64000D02*X420500D01*
G54D12*X460000Y75000D02*X453500D01*
G54D11*X420500Y64000D02*Y25500D01*
D03*
G54D12*X471500Y78500D02*X464500Y71500D01*
X459500Y49500D02*Y41500D01*
X469500Y49500D02*Y45000D01*
X464500Y71500D03*
X469500Y45000D03*
X510000Y57000D02*X455750D01*
X509500Y45000D02*X469500D01*
X487500Y41500D02*X459500D01*
X514500Y25500D02*X440500D01*
X450000Y21000D03*
X436000D03*
X430500Y25500D03*
G54D11*X420500D03*
G54D12*X494000Y30000D02*X436750D01*
G54D11*X500000Y64000D03*
G54D12*X494000Y39250D02*Y30000D01*
X487500Y41500D03*
X494000Y30000D03*
X487500Y41500D03*
G54D11*X500000Y64000D03*
G54D12*X511250Y76500D02*X505500Y70750D01*
G54D11*X500000Y64000D02*Y65500D01*
D03*
Y67000D01*
D03*
G54D12*X505500Y70750D02*Y59500D01*
D03*
X520000Y64000D02*X514500Y58500D01*
X406000Y29500D03*
X371500D03*
X345500Y30500D02*X243000D01*
X357500Y27000D02*X244500D01*
X243000Y30500D03*
X326500Y34000D02*X319500D01*
X345500D03*
X319500Y49500D02*Y34000D01*
X329500Y57000D02*Y52500D01*
X349500Y45000D03*
X354000Y41500D03*
D03*
X246500Y60500D03*
X241000Y23500D03*
X229000Y21500D03*
X243000Y70500D02*Y30500D01*
X246500Y68750D02*Y60500D01*
X229000Y56750D02*Y21500D01*
X375000Y43500D02*X374000D01*
X368000Y36500D02*X349000D01*
D03*
X570000Y148000D02*X213000D01*
X560000Y143500D02*X196500D01*
X538000Y150000D02*X216500D01*
D03*
X414750Y117000D02*X402500Y104750D01*
X379500Y109500D02*Y105000D01*
X329500D03*
X339500Y117000D03*
X344500Y103000D02*X319500D01*
X369500D02*X344500D01*
X319500D01*
X211750Y134000D02*X206000D01*
X353000D02*X211750D01*
X242000Y117000D02*X241000Y116000D01*
X379500Y105000D03*
X344500Y103000D03*
X389500Y117000D02*X339500D01*
X381500Y94500D02*X344500D01*
D03*
X416250Y122000D02*X394500D01*
X414750Y84500D02*X378500D01*
X402500Y102000D03*
X457000Y15500D02*X357500D01*
X535000Y13500D02*X354000D01*
X453500Y19000D02*X370000D01*
X369500Y51000D02*X371500D01*
X369500D02*X371500D01*
X369500D02*X371500Y52500D01*
X369500D01*
X371500Y51000D02*X369500D01*
X371500D02*X369500D01*
X374000Y43500D03*
X307500Y18000D03*
X349000D01*
X333500Y14000D02*X317500D01*
X370000Y19000D03*
X357500Y15500D03*
X349000Y18000D03*
X313500Y87500D03*
X243000Y86000D02*Y70500D01*
X319500Y103000D03*
X313500Y111000D02*X309500D01*
X310000Y95000D02*X303500D01*
D03*
X229000Y90500D03*
X317000Y100500D02*Y67500D01*
X329500Y109500D02*Y105000D01*
X303500Y104000D02*Y95000D01*
X310000D03*
X344500Y103000D02*Y94500D01*
X319500Y103000D02*X317000Y100500D01*
X313500Y111000D02*Y87500D01*
X288750Y111000D02*X246500Y68750D01*
X349000Y18000D03*
Y37500D02*Y36500D01*
X357500Y27000D03*
Y21500D03*
X349000Y18000D03*
X357500Y21500D02*Y15500D01*
X406000Y29500D02*X371500D01*
X370000Y20500D02*Y19000D01*
Y20500D02*Y19000D01*
Y20500D02*Y19000D01*
D03*
X344000Y13500D02*Y9500D01*
X345500Y30500D03*
Y39000D02*Y34000D01*
X344000Y9500D03*
X368000Y36500D03*
X354000Y41500D03*
X361000Y34000D02*Y23500D01*
X371500Y51000D02*Y29500D01*
X349500Y49500D02*Y45000D01*
X375000Y43500D03*
X374000Y91000D02*Y43500D01*
X354000Y80500D02*Y41500D01*
X381500Y94500D03*
X369500Y103000D02*Y52500D01*
X314000Y9000D02*Y7500D01*
Y9000D02*Y7500D01*
Y9000D02*Y7500D01*
D03*
D03*
X349500Y45000D02*X325000D01*
X326500Y34000D03*
X335000Y62500D02*X329500Y57000D01*
X335000Y62500D03*
X333500Y14000D03*
D03*
X314000Y57000D02*X309500Y52500D01*
X325000Y57000D02*Y45000D01*
X402500Y104750D02*Y102000D01*
X319500Y109500D02*Y103000D01*
X394500Y122000D02*X389500Y117000D01*
Y112500D01*
X356500Y137500D02*Y129000D01*
X353000Y134000D03*
X339500Y117000D02*Y112500D01*
Y117000D03*
Y112500D01*
X369500Y51000D02*X371500D01*
X325000Y57000D03*
X317000Y67500D03*
X335000Y62500D03*
X313500Y87500D03*
X310000Y95000D03*
X361000Y23500D03*
X368000Y36500D03*
X381500Y94500D03*
X375000Y43500D03*
X374000D01*
X375000D02*X374000D01*
X375000D03*
X349000Y37500D02*Y36500D01*
Y37500D02*Y36500D01*
X406500Y30000D02*X406000Y29500D01*
X361000Y34000D03*
X326500D03*
X345500Y39000D03*
Y30500D03*
X357500Y27000D03*
X354000Y41500D03*
D03*
D03*
D03*
X344500Y103000D03*
X369500D03*
X379500Y105000D02*X329500D01*
X402500Y102000D03*
X389500Y117000D03*
X356500Y129000D03*
Y137500D03*
X353000Y134000D03*
X313500Y111000D03*
X309500D02*Y112500D01*
D03*
G54D11*X410500Y126250D02*X77500D01*
G54D12*X49000Y125500D02*X41000D01*
G54D11*X77500Y126250D03*
G54D12*X41000Y125500D02*X37750D01*
X41000Y128750D02*Y125500D01*
X65000Y127500D02*Y129500D01*
X356500Y137500D02*X213000D01*
X189000D03*
X194000Y141000D03*
X216500Y151500D02*X54000D01*
X38000Y144500D02*X47000Y153500D01*
X356500Y129000D02*X71250D01*
X206000Y134000D02*X69500D01*
X65000Y129500D01*
X339500Y117000D02*X242000D01*
X389500D02*Y112500D01*
X534500Y153500D02*X47000D01*
X181750Y85000D02*X172500D01*
X37000Y94750D02*Y66500D01*
X113000Y85000D02*X108500Y80500D01*
X33000Y120750D02*Y3500D01*
X349000Y36500D03*
X319500Y34000D03*
X345500Y39000D02*X340500D01*
X361000Y34000D02*X345500D01*
X594000Y45500D02*Y7500D01*
X596000Y5500D02*X77500D01*
X594000Y7500D02*X314000D01*
X598000Y3500D02*X33000D01*
X586500Y9500D02*X344000D01*
X586500D03*
X357500Y21500D02*X229000D01*
X361000Y23500D02*X241000D01*
X335000Y62500D03*
X44500Y31000D02*X35000D01*
D03*
X74500Y41000D02*X73000D01*
X74500Y28000D03*
Y61000D02*X73000D01*
X44500Y71000D02*X43000D01*
X232750Y60500D02*Y56000D01*
X241000Y76000D02*Y23500D01*
X233500Y70500D02*Y66000D01*
D03*
X232750Y56000D03*
Y60500D03*
X229000Y56750D01*
Y113000D02*Y90500D01*
X251500Y67500D02*X250000Y66000D01*
D03*
X317000Y67500D02*X251500D01*
X250000Y66000D03*
X243000Y86000D02*Y70500D01*
Y110500D02*Y86000D01*
X241000Y76000D03*
X243000Y86000D03*
X246500Y60500D03*
X325000Y57000D02*X314000D01*
X325000Y45000D03*
X236500Y90500D02*X229000D01*
X319500Y103000D03*
X307500Y5500D02*Y18000D01*
X243000Y110500D03*
X309500Y111000D02*X288750D01*
X243000Y110500D02*X236500D01*
X58500Y100500D02*X49000D01*
X229000Y113000D03*
X199500D01*
X241000Y116000D02*X203000D01*
X67000Y124750D02*Y116000D01*
X37750Y121000D02*X35000Y118250D01*
X38000Y135500D02*X54000Y151500D01*
X899500Y95000D02*X830000D01*
X906500Y65500D02*X830000D01*
Y95000D03*
D03*
X879500Y49500D02*Y45000D01*
D03*
D03*
X859500Y57000D03*
X906500Y65500D03*
X904000Y90000D03*
X899500Y95000D03*
X869500Y56250D02*Y52500D01*
X899500Y109500D02*Y95000D01*
X904000Y117000D02*Y90000D01*
X906500Y109500D02*Y65500D01*
Y109500D02*Y111000D01*
X904000Y117000D03*
X889500Y109500D02*Y105000D01*
D03*
X891750Y117000D03*
X879500D02*Y109500D01*
X891750Y117000D02*X879500D01*
X891750D02*X879500D01*
X891750D03*
D03*
X909500Y109500D03*
X904000Y117000D03*
X906500Y109500D02*X909500D01*
D03*
X906500D01*
X929500Y117000D02*Y109500D01*
X906500Y111000D02*X909500D01*
X906500D02*X908000Y112500D01*
X909500D01*
X904000Y117000D02*X891750D01*
X904000D02*X891750D01*
X859500Y57000D02*Y49500D01*
X870250Y57000D02*X869500Y56250D01*
X879500Y43000D03*
Y45000D02*Y43000D01*
X889500Y105000D02*X789500D01*
D03*
X830000Y100000D02*Y95000D01*
Y100000D03*
X820000Y95000D03*
D03*
D03*
D03*
D03*
D03*
Y65500D02*Y65000D01*
D03*
D03*
X789500Y109500D02*Y105000D01*
X909500Y57000D02*Y49500D01*
X879500D02*Y45000D01*
X909500Y57000D03*
X870250D01*
X915000Y45000D02*X879500D01*
X915000D02*X929500D01*
Y51000D01*
X919500Y59000D02*Y51000D01*
X618500Y105000D02*Y103500D01*
Y105000D03*
X625500Y89000D02*Y77000D01*
X646000Y100000D02*X634000D01*
X649500Y95000D03*
X646000Y100000D03*
X629500Y73500D02*Y71500D01*
Y73500D02*X628250D01*
X629500Y71500D03*
X625000Y52500D02*X619500D01*
X629500D02*X630000D01*
X629500D02*X630000D01*
D03*
X629500D01*
X634000Y100000D02*Y73500D01*
X646000Y114750D02*Y100000D01*
X680000Y60000D02*Y55000D01*
D03*
X665000D03*
X675000Y65000D02*X670000Y60000D01*
X618500Y84000D03*
X614500Y80000D02*Y57000D01*
X619500Y49500D02*Y43000D01*
X628250Y73500D02*X625000Y70250D01*
X629500Y49500D02*Y45000D01*
X649000Y43000D02*X619500D01*
X658000Y53000D03*
X653000Y73500D03*
X661500Y56500D03*
X665000Y64250D02*Y55000D01*
Y64250D02*X661500Y60750D01*
X605750Y27500D03*
X596000Y19000D02*Y5500D01*
X590000Y27000D02*Y18500D01*
X594000Y7500D03*
X596000Y5500D03*
X590000Y18500D03*
X586500Y11000D02*Y9500D01*
D03*
Y11000D02*Y9500D01*
D03*
Y11000D02*Y9500D01*
D03*
X598000Y17750D02*Y3500D01*
D03*
X585000Y23500D02*Y15000D01*
D03*
X601500D02*X667500D01*
X634000Y73500D02*X629500D01*
X680000Y55000D02*X665000D01*
X705000Y53000D03*
X666500Y27000D02*X679500Y40000D01*
X649000Y43000D02*Y31000D01*
X627500D03*
X649000D02*X627500D01*
X645500Y39500D02*X609500D01*
X705000Y56250D02*Y53000D01*
X618000Y27000D02*X666500D01*
X667500Y15000D02*X687500Y35000D01*
X668500Y119000D03*
X670000Y95000D03*
X668500Y119000D02*X653000Y103500D01*
X663750Y105000D02*X656500Y97750D01*
X670000Y60000D03*
X704000Y98500D03*
X692500Y105000D03*
D03*
D03*
D03*
D03*
X653000Y103500D02*Y73500D01*
X665000D02*Y64250D01*
X656500Y97750D02*Y84000D01*
D03*
X692500Y105000D02*X663750D01*
X680000Y100000D03*
X609500Y109500D02*X599500D01*
X598000Y121000D02*Y117000D01*
X624000D02*Y92500D01*
X622000Y111000D02*Y96000D01*
D03*
X609500Y59500D02*Y52500D01*
X645500Y39500D03*
X630000Y52500D03*
Y64000D02*Y52500D01*
X649500Y112000D02*Y95000D01*
X663500Y98500D02*Y90000D01*
X579500Y117000D02*Y109500D01*
X574500Y90000D02*X571000Y86500D01*
X564000Y97250D02*Y86500D01*
X601250Y146500D02*X595500Y140750D01*
X625500Y143000D02*Y128500D01*
X600000Y134000D02*Y126500D01*
X589000Y100750D02*Y96000D01*
X625500Y143000D03*
X654250Y123000D02*X646000Y114750D01*
X634000Y126500D02*Y100000D01*
X620500Y96000D03*
X580000Y134000D02*Y129500D01*
X570000Y148000D02*Y137000D01*
X560000Y143500D02*Y137000D01*
Y143500D03*
X570000Y148000D03*
X580000Y129500D03*
X594500Y78500D02*Y59500D01*
X590000Y76500D02*Y64000D01*
Y76500D03*
X594500Y78500D03*
X584500Y58500D02*Y43000D01*
X610000Y82000D02*Y64000D01*
Y82000D03*
X614500Y57000D02*X614000Y56500D01*
X590000Y64000D02*X584500Y58500D01*
X609500Y59500D03*
X614500Y57000D03*
X575500Y84500D02*Y82000D01*
Y84500D03*
Y82000D02*Y84500D01*
D03*
Y82000D03*
X625500Y77000D03*
X618500Y84000D03*
X591500Y92500D02*X589000Y90000D01*
X585500Y96000D03*
X589000Y90000D03*
X585500Y96000D03*
X589000Y100750D03*
X598000Y121000D03*
X665000Y64250D03*
X661500Y60750D02*Y56500D01*
X670000Y60000D03*
X661500Y56500D03*
X658000Y71500D03*
X656500Y84000D03*
X649000Y31000D03*
Y43000D03*
X665000Y73500D03*
X668500Y119000D03*
X645500Y39500D03*
X649500Y95000D03*
X619500Y111000D02*X622000D01*
X624000Y117000D03*
X609500Y109500D03*
X619500Y111000D02*X622000D01*
X634000Y126500D03*
X625500Y89000D03*
X624000Y92500D03*
X620500Y96000D03*
D03*
D03*
D03*
X618500Y103500D02*Y105000D01*
D03*
Y103500D03*
X775000Y45000D02*X749500D01*
Y57000D02*Y49500D01*
Y45000D01*
X779500Y43000D02*X754500D01*
X749500Y45000D03*
X775000Y56250D02*Y45000D01*
X769500Y59000D02*Y49500D01*
X775750Y57000D02*X775000Y56250D01*
X859500Y57000D02*X775750D01*
X769500Y59000D03*
X919500D01*
X879500Y43000D02*X779500D01*
X754500D01*
X820000Y65500D02*Y65000D01*
D03*
Y65500D02*Y65000D01*
D03*
Y95000D03*
X779500Y49500D02*Y43000D01*
D03*
X775000Y45000D03*
X904000Y117000D02*X945000D01*
X945500Y116500D01*
X946000Y35000D02*Y116500D01*
X945500Y117000D01*
X904000Y90000D02*X663500D01*
D03*
X724000Y105000D03*
X704000Y98500D03*
X724000Y105000D02*X692500D01*
Y106500D02*Y105000D01*
Y106500D02*Y105000D01*
D03*
D03*
X775000D03*
X749500Y103000D03*
X680000Y100000D03*
X830000D02*X705500D01*
X820000Y95000D02*X670000D01*
X775000Y117000D02*Y105000D01*
X779500Y117000D02*Y112500D01*
X775000Y117000D03*
X779500D02*Y112500D01*
Y119000D02*Y117000D01*
Y119000D03*
X775000Y117000D02*X740250D01*
X779500Y119000D02*X737750D01*
X789500Y105000D02*X775000D01*
X789500Y109500D02*Y105000D01*
D03*
X879500Y117000D02*X779500D01*
X739500Y116250D02*Y112500D01*
X749500Y57000D03*
X769500Y59000D02*X737250D01*
X769500D02*X737250D01*
X670000Y60000D03*
X820000Y65000D02*X675000D01*
X749500Y57000D02*X714000D01*
X754500Y43000D02*X729500D01*
X737250Y59000D02*X707750D01*
X729500Y43000D03*
Y45000D03*
X679500Y40000D02*X705500D01*
X706000Y39500D01*
X687500Y35000D02*X946000D01*
X724000Y146500D02*Y105000D01*
X694500Y128500D03*
X719500Y123000D02*Y109500D01*
Y123000D03*
X724000Y146500D03*
X694500Y128500D03*
X687500Y112000D02*X681500D01*
X687500D03*
Y119500D02*Y112000D01*
X724000Y146500D02*X601250D01*
X719500Y123000D02*X654250D01*
X634000Y126500D02*X600000D01*
X694500Y128500D02*X625500D01*
X683000Y103000D02*X680000Y100000D01*
X692500Y106500D02*Y105000D01*
D03*
Y106500D02*Y105000D01*
X705500Y100000D02*X704000Y98500D01*
X670000Y100000D02*Y95000D01*
X705000Y53000D02*X658000D01*
X707750Y59000D02*X705000Y56250D01*
X714000Y57000D02*X709500Y52500D01*
X749500Y103000D02*X683000D01*
X749500Y109500D02*Y103000D01*
X740250Y117000D02*X739500Y116250D01*
X737750Y119000D02*X729500Y110750D01*
Y49500D02*Y45000D01*
X629500D01*
X729500Y49500D02*Y45000D01*
X629500D03*
X729500D03*
X665000Y73500D02*X653000D01*
X634000D03*
X658000Y71500D02*Y53000D01*
Y71500D02*X629500D01*
X729500Y45000D02*Y43000D01*
G54D11*X74500Y122750D02*Y121000D01*
G54D12*X71250Y129000D02*X67000Y124750D01*
G54D11*X74500Y121000D03*
G54D12*Y31000D02*X73000D01*
X74500Y101000D03*
X73000D01*
X35000Y118250D02*Y31000D01*
X44500D03*
X43000D01*
X44500Y48000D02*Y51000D01*
Y48000D03*
X58500Y70500D02*Y66500D01*
X49000D02*X37000D01*
X55500Y81000D02*Y80500D01*
Y81000D01*
Y80500D02*Y81000D01*
Y80500D01*
D03*
X44500Y51000D02*X43000D01*
X55500Y70500D02*Y71000D01*
Y70500D01*
D03*
X47500Y48000D03*
X55500Y40500D02*X49000D01*
X58500Y50500D02*Y46000D01*
Y40500D02*Y36000D01*
X49000Y66500D02*Y56000D01*
X55500Y71000D02*Y70500D01*
Y71000D01*
X49000Y46000D02*Y40500D01*
X47500Y48000D02*Y46000D01*
Y48000D03*
X44500Y51000D02*Y48000D01*
X49000Y46000D03*
X44500Y51000D02*Y48000D01*
Y51000D02*Y48000D01*
Y51000D02*Y48000D01*
X47500D01*
X44500Y51000D02*Y48000D01*
X47500D01*
X44500Y31000D03*
Y48000D03*
X68500Y96000D02*X38250D01*
X37000Y94750D01*
X44500Y91000D02*Y90500D01*
Y91000D02*Y90500D01*
Y91000D02*Y90500D01*
D03*
X58500D02*X44500D01*
Y100500D02*X46750D01*
X44500D02*X46750D01*
X44500Y101000D02*X46750D01*
X44500Y100500D02*Y101000D01*
Y100500D03*
Y101000D02*Y100500D01*
Y101000D02*Y100500D01*
D03*
Y101000D02*X43000D01*
X46750D02*Y100500D01*
X49000D02*X46750D01*
X181750Y85000D02*X172500D01*
Y80500D01*
X191000Y85000D02*Y80500D01*
X196000Y115000D02*Y86000D01*
X183500Y95000D02*Y90500D01*
Y95000D03*
X191000Y85000D03*
X183500Y80500D02*Y76000D01*
X186500Y80500D02*Y76000D01*
X183500D03*
X169500Y60500D02*Y56000D01*
X172500Y60500D02*Y56000D01*
X169500Y70500D02*Y66000D01*
X172500Y70500D02*Y66000D01*
X169500D03*
Y56000D03*
X183500Y50500D02*Y46000D01*
Y40500D02*Y36000D01*
D03*
Y46000D03*
X89500Y66500D03*
X105500Y70500D02*Y70000D01*
Y70500D02*Y70000D01*
X82500Y81000D03*
X108500Y70500D02*Y66000D01*
X86000Y41000D03*
X79000Y56000D03*
X89500Y66500D02*Y66000D01*
Y91000D03*
X79000Y56000D02*X49000D01*
X183500Y110500D02*Y106000D01*
X186500Y120500D02*Y117500D01*
X177000Y115000D02*X172500Y110500D01*
X241000Y116000D03*
X203000Y117500D02*Y116000D01*
Y117500D03*
X241000Y116000D03*
X196500Y143500D02*X194000Y141000D01*
X211750Y134000D02*X206000D01*
Y137500D02*Y134000D01*
X189000Y141500D02*Y137500D01*
Y141500D03*
X194000Y141000D03*
X216500Y151500D02*Y150000D01*
X119500Y50500D02*Y46000D01*
X122500Y50500D02*Y46000D01*
X119500D03*
Y40500D02*Y36000D01*
X137500Y37500D02*Y36000D01*
X122500Y40500D02*Y37500D01*
X137500D03*
X119500Y36000D03*
X122500Y80500D02*Y76000D01*
X130500Y70500D03*
D03*
G54D11*X77500Y126250D02*Y125750D01*
Y126250D02*Y125750D01*
G54D12*X189000Y141500D02*X53750D01*
X119500Y110500D02*Y106000D01*
X170500Y116000D02*X67000D01*
X170500Y117500D02*Y116000D01*
X172500Y117500D03*
Y120500D02*Y117500D01*
X122500Y110500D02*Y106000D01*
X108500Y80500D03*
Y60500D02*Y56000D01*
X68500Y101000D02*Y96000D01*
X74500Y101000D03*
X127000Y95000D02*X122500Y90500D01*
X119500Y106000D02*X58500D01*
X44500Y31000D03*
X168500Y34000D02*Y32500D01*
Y34000D03*
X82500Y61000D02*Y59000D01*
Y61000D03*
Y81000D02*Y75500D01*
X89500Y91000D02*Y75500D01*
X77500Y28000D02*Y5500D01*
X74500Y31000D02*Y28000D01*
Y31000D02*Y28000D01*
Y31000D02*Y28000D01*
Y31000D02*Y28000D01*
Y31000D02*Y28000D01*
Y31000D01*
X77500Y28000D03*
X74500D02*X77500D01*
X74500D02*X77500D01*
X74500D03*
Y31000D02*Y28000D01*
D03*
X79000Y56000D02*Y50500D01*
X49000Y66500D03*
X58500Y110500D02*Y106000D01*
X41500Y121000D03*
X53750Y141500D02*X41000Y128750D01*
X49000Y125500D03*
X41500Y121000D03*
X37750Y125500D02*X33000Y120750D01*
X65000Y127500D02*Y111000D01*
X74500D03*
D03*
X49000Y125500D02*Y101000D01*
X46750D01*
X74500D03*
X68500D02*X71500D01*
X196000Y115000D03*
X183500Y106000D03*
X168500Y32500D02*Y34000D01*
D03*
Y32500D03*
D03*
X183500Y90500D03*
D03*
X172500Y80500D03*
D03*
Y110500D03*
Y80500D03*
X233500D02*X191000D01*
X232750Y56000D02*X172500D01*
X241000Y76000D02*X186500D01*
D03*
X172500Y56000D03*
X191000Y80500D03*
Y85000D02*X181750D01*
X243000Y86000D02*X196000D01*
D03*
X189000Y137500D03*
X186500Y120500D02*Y117500D01*
Y120500D02*Y117500D01*
D03*
X172500Y120500D02*Y117500D01*
Y120500D02*Y117500D01*
D03*
D03*
D03*
Y110500D03*
D03*
Y117500D02*X170500D01*
Y116000D03*
X119500Y106000D03*
X122500Y90500D03*
D03*
D03*
X105500Y70500D02*Y70000D01*
Y70500D01*
Y70000D01*
Y70500D01*
Y70000D03*
X130500Y70500D02*X122500D01*
Y76000D03*
X108500Y80500D03*
D03*
X169500Y56000D02*X108500D01*
X183500Y46000D02*X122500D01*
X183500Y36000D02*X137500D01*
Y37500D02*X122500D01*
X108500Y56000D03*
X119500Y46000D02*X58500D01*
X119500Y36000D02*X58500D01*
X49000Y46000D02*X47500D01*
X58500Y36000D03*
X47500Y46000D03*
X49000Y40500D03*
X58500Y46000D03*
X49000Y56000D03*
X79000Y50500D03*
X168500Y34000D02*X123000D01*
X86000Y41000D03*
X105500Y50500D02*X79000D01*
X82500Y59000D02*Y61000D01*
D03*
Y59000D03*
X77500Y28000D03*
X82500Y59000D03*
X122500Y40500D02*Y37500D01*
Y40500D02*Y37500D01*
Y40500D01*
Y37500D03*
Y46000D03*
X74500Y28000D03*
X77500D02*X74500D01*
X82500Y61000D02*X74500D01*
X82500Y75500D03*
Y81000D02*X74500D01*
X89500Y91000D02*X74500D01*
X89500Y75500D03*
X82500D03*
X89500Y66000D02*Y66500D01*
Y66000D02*Y66500D01*
Y66000D02*Y66500D01*
D03*
Y75500D03*
Y66000D02*Y66500D01*
X58500D03*
X89500D02*X58500D01*
X55500Y70500D03*
Y80500D03*
X49000Y101000D02*Y100500D01*
X74500Y111000D02*X65000D01*
D03*
X74500Y101000D02*X68500D01*
Y96000D03*
X170500Y117500D02*Y120500D01*
X183500Y106000D02*X122500D01*
X183500Y95000D02*X127000D01*
X183500Y76000D02*X122500D01*
X172500Y85000D02*X113000D01*
X70500Y134000D03*
X196000Y115000D02*X177000D01*
X203000Y117500D02*X186500D01*
D03*
X203000Y116000D03*
X169500Y66000D02*X108500D01*
X233500D02*X172500D01*
D03*
X108500D03*
X105500Y70000D02*X82500D01*
X105500D03*
X86000Y41000D02*X74500D01*
X122500Y37500D03*
X137500Y36000D03*
X55500Y71000D02*X44500D01*
X37000Y66500D03*
X55500Y81000D02*X44500D01*
Y90500D03*
X46750Y101000D02*X44500D01*
X46750Y100500D03*
X122500Y106000D03*
X58500D03*
X44500Y48000D03*
X47500D02*X44500D01*
X33000Y3500D03*
X77500Y5500D03*
X67000Y116000D03*
X41500Y121000D02*X37750D01*
G54D11*X74500D03*
X77500Y125750D02*X74500Y122750D01*
G54D13*X121000Y120500D03*
Y110500D03*
Y100500D03*
Y90500D03*
Y80500D03*
Y70500D03*
Y60500D03*
X171000D03*
X121000Y50500D03*
X171000D03*
X121000Y40500D03*
X171000D03*
Y70500D03*
Y80500D03*
Y90500D03*
Y100500D03*
Y110500D03*
Y120500D03*
X185000D03*
Y110500D03*
Y100500D03*
Y90500D03*
Y80500D03*
Y70500D03*
Y60500D03*
Y50500D03*
Y40500D03*
X235000Y110500D03*
Y120500D03*
X57000D03*
X107000D03*
X57000Y110500D03*
Y100500D03*
Y90500D03*
Y80500D03*
Y70500D03*
Y60500D03*
Y50500D03*
X43000Y51000D03*
Y61000D03*
X57000Y40500D03*
X43000Y31000D03*
Y41000D03*
Y71000D03*
Y81000D03*
Y91000D03*
Y101000D03*
Y111000D03*
Y121000D03*
X107000Y40500D03*
Y50500D03*
Y60500D03*
Y70500D03*
Y80500D03*
Y90500D03*
Y100500D03*
Y110500D03*
X73000Y121000D03*
Y111000D03*
Y101000D03*
Y91000D03*
Y81000D03*
Y71000D03*
Y61000D03*
Y51000D03*
Y41000D03*
Y31000D03*
G54D14*G36*
X826500Y69000D02*Y62000D01*
X833500D01*
Y69000D01*
X826500D01*
G37*
G54D15*X820000Y65500D03*
G54D13*X859500Y51000D03*
X869500D03*
X879500D03*
X889500D03*
X899500D03*
X909500D03*
X919500D03*
X929500D03*
X939500D03*
Y111000D03*
X929500D03*
X919500D03*
X909500D03*
X899500D03*
X889500D03*
X879500D03*
X869500D03*
X859500D03*
X709500Y51000D03*
X719500D03*
X729500D03*
X739500D03*
X749500D03*
X759500D03*
X769500D03*
X779500D03*
X789500D03*
G54D14*G36*
X676500Y63500D02*Y56500D01*
X683500D01*
Y63500D01*
X676500D01*
G37*
G54D15*X670000Y60000D03*
G54D13*X789500Y111000D03*
G54D14*G36*
X826500Y98500D02*Y91500D01*
X833500D01*
Y98500D01*
X826500D01*
G37*
G54D15*X820000Y95000D03*
G54D13*X779500Y111000D03*
X769500D03*
X759500D03*
X749500D03*
X739500D03*
X729500D03*
X719500D03*
X709500D03*
G54D14*G36*
X676500Y103500D02*Y96500D01*
X683500D01*
Y103500D01*
X676500D01*
G37*
G54D15*X670000Y100000D03*
G54D13*X309500Y51000D03*
X319500D03*
X329500D03*
X339500D03*
X349500D03*
X359500D03*
X369500D03*
X379500D03*
X235000Y40500D03*
Y50500D03*
Y60500D03*
Y70500D03*
Y80500D03*
Y90500D03*
Y100500D03*
X389500Y111000D03*
X379500D03*
X369500D03*
X359500D03*
X349500D03*
X339500D03*
X329500D03*
X319500D03*
X309500D03*
X389500Y51000D03*
X459500D03*
X469500D03*
X479500D03*
X489500D03*
X499500D03*
X509500D03*
G54D14*G36*
X407500Y28500D02*Y22500D01*
X413500D01*
Y28500D01*
X407500D01*
G37*
G54D13*X420500Y25500D03*
X430500D03*
X440500D03*
G54D14*G36*
X407500Y137500D02*Y131500D01*
X413500D01*
Y137500D01*
X407500D01*
G37*
G54D13*X420500Y134500D03*
X430500D03*
X440500D03*
X539500Y111000D03*
X529500D03*
X519500D03*
X509500D03*
X499500D03*
X489500D03*
X479500D03*
X469500D03*
X459500D03*
X500000Y135500D03*
X510000D03*
X520000D03*
X530000D03*
X540000D03*
X550000D03*
X560000D03*
X570000D03*
X580000D03*
X590000D03*
X600000D03*
X610000D03*
X620000D03*
X630000D03*
X519500Y51000D03*
X529500D03*
X539500D03*
X560000Y65500D03*
X550000D03*
X540000D03*
X530000D03*
X520000D03*
X510000D03*
X500000D03*
X630000D03*
X620000D03*
X610000D03*
X600000D03*
X590000D03*
X580000D03*
X570000D03*
X559500Y51000D03*
X569500D03*
X579500D03*
X589500D03*
X599500D03*
X609500D03*
X619500D03*
X629500D03*
X639500D03*
Y111000D03*
X629500D03*
X619500D03*
X609500D03*
X599500D03*
X589500D03*
X579500D03*
X569500D03*
X559500D03*
X119500Y60500D02*X122500D01*
X119500Y50500D02*X122500D01*
X119500Y40500D02*X122500D01*
X105500D02*X108500D01*
X105500Y50500D02*X108500D01*
X119500Y100500D02*X122500D01*
X119500Y90500D02*X122500D01*
X119500Y120500D02*X122500D01*
X119500Y110500D02*X122500D01*
X119500Y80500D02*X122500D01*
X119500Y70500D02*X122500D01*
X105500Y60500D02*X108500D01*
X105500Y70500D02*X108500D01*
X105500Y80500D02*X108500D01*
X105500Y90500D02*X108500D01*
X105500Y100500D02*X108500D01*
X105500Y110500D02*X108500D01*
X105500Y120500D02*X108500D01*
X309500Y52500D02*Y49500D01*
X319500Y52500D02*Y49500D01*
X329500Y52500D02*Y49500D01*
X339500Y52500D02*Y49500D01*
X349500Y52500D02*Y49500D01*
X359500Y52500D02*Y49500D01*
X369500Y52500D02*Y49500D01*
X379500Y52500D02*Y49500D01*
X389500Y52500D02*Y49500D01*
Y112500D02*Y109500D01*
X379500Y112500D02*Y109500D01*
X369500Y112500D02*Y109500D01*
X359500Y112500D02*Y109500D01*
X349500Y112500D02*Y109500D01*
X339500Y112500D02*Y109500D01*
X329500Y112500D02*Y109500D01*
X319500Y112500D02*Y109500D01*
X309500Y112500D02*Y109500D01*
X169500Y40500D02*X172500D01*
X169500Y50500D02*X172500D01*
X169500Y60500D02*X172500D01*
X169500Y90500D02*X172500D01*
X169500Y100500D02*X172500D01*
X169500Y110500D02*X172500D01*
X183500D02*X186500D01*
X169500Y120500D02*X172500D01*
X183500D02*X186500D01*
X183500Y100500D02*X186500D01*
X183500Y90500D02*X186500D01*
X169500Y70500D02*X172500D01*
X169500Y80500D02*X172500D01*
X183500D02*X186500D01*
X183500Y70500D02*X186500D01*
X183500Y60500D02*X186500D01*
X183500Y50500D02*X186500D01*
X183500Y40500D02*X186500D01*
X233500D02*X236500D01*
X233500Y50500D02*X236500D01*
X233500Y60500D02*X236500D01*
X233500Y70500D02*X236500D01*
X233500Y80500D02*X236500D01*
X233500Y90500D02*X236500D01*
X233500Y100500D02*X236500D01*
X233500Y110500D02*X236500D01*
X233500Y120500D02*X236500D01*
X55500D02*X58500D01*
X55500Y110500D02*X58500D01*
X71500Y121000D02*X74500D01*
X71500Y111000D02*X74500D01*
X55500Y80500D02*X58500D01*
X55500Y70500D02*X58500D01*
X55500Y60500D02*X58500D01*
X55500Y50500D02*X58500D01*
X55500Y40500D02*X58500D01*
X41500Y31000D02*X44500D01*
X41500Y41000D02*X44500D01*
X41500Y51000D02*X44500D01*
X41500Y61000D02*X44500D01*
X41500Y71000D02*X44500D01*
X41500Y81000D02*X44500D01*
X41500Y91000D02*X44500D01*
X41500Y101000D02*X44500D01*
X41500Y111000D02*X44500D01*
X41500Y121000D02*X44500D01*
X55500Y100500D02*X58500D01*
X55500Y90500D02*X58500D01*
X71500Y101000D02*X74500D01*
X71500Y91000D02*X74500D01*
X71500Y81000D02*X74500D01*
X71500Y71000D02*X74500D01*
X71500Y61000D02*X74500D01*
X71500Y51000D02*X74500D01*
X71500Y41000D02*X74500D01*
X71500Y31000D02*X74500D01*
X859500Y52500D02*Y49500D01*
X869500Y52500D02*Y49500D01*
X879500Y52500D02*Y49500D01*
X889500Y52500D02*Y49500D01*
X899500Y52500D02*Y49500D01*
X909500Y52500D02*Y49500D01*
X919500Y52500D02*Y49500D01*
X929500Y52500D02*Y49500D01*
X939500Y52500D02*Y49500D01*
Y112500D02*Y109500D01*
X929500Y112500D02*Y109500D01*
X919500Y112500D02*Y109500D01*
X909500Y112500D02*Y109500D01*
X899500Y112500D02*Y109500D01*
X889500Y112500D02*Y109500D01*
X879500Y112500D02*Y109500D01*
X869500Y112500D02*Y109500D01*
X709500Y52500D02*Y49500D01*
X719500Y52500D02*Y49500D01*
X729500Y52500D02*Y49500D01*
X739500Y52500D02*Y49500D01*
X749500Y52500D02*Y49500D01*
X759500Y52500D02*Y49500D01*
X769500Y52500D02*Y49500D01*
X779500Y52500D02*Y49500D01*
X789500Y52500D02*Y49500D01*
X859500Y112500D02*Y109500D01*
X789500Y112500D02*Y109500D01*
X779500Y112500D02*Y109500D01*
X769500Y112500D02*Y109500D01*
X759500Y112500D02*Y109500D01*
X749500Y112500D02*Y109500D01*
X739500Y112500D02*Y109500D01*
X729500Y112500D02*Y109500D01*
X719500Y112500D02*Y109500D01*
X709500Y112500D02*Y109500D01*
X459500Y52500D02*Y49500D01*
X469500Y52500D02*Y49500D01*
X479500Y52500D02*Y49500D01*
X489500Y52500D02*Y49500D01*
X499500Y52500D02*Y49500D01*
X509500Y52500D02*Y49500D01*
X519500Y52500D02*Y49500D01*
X509500Y112500D02*Y109500D01*
X510000Y137000D02*Y134000D01*
X499500Y112500D02*Y109500D01*
X500000Y137000D02*Y134000D01*
X489500Y112500D02*Y109500D01*
X479500Y112500D02*Y109500D01*
X469500Y112500D02*Y109500D01*
X459500Y112500D02*Y109500D01*
X529500Y52500D02*Y49500D01*
X539500Y52500D02*Y49500D01*
X540000Y67000D02*Y64000D01*
X530000Y67000D02*Y64000D01*
X520000Y67000D02*Y64000D01*
X510000Y67000D02*Y64000D01*
X500000Y67000D02*Y64000D01*
X539500Y112500D02*Y109500D01*
X529500Y112500D02*Y109500D01*
X519500Y112500D02*Y109500D01*
X520000Y137000D02*Y134000D01*
X530000Y137000D02*Y134000D01*
X540000Y137000D02*Y134000D01*
X550000Y137000D02*Y134000D01*
X559500Y112500D02*Y109500D01*
X560000Y137000D02*Y134000D01*
X570000Y137000D02*Y134000D01*
X580000Y137000D02*Y134000D01*
X630000Y67000D02*Y64000D01*
X620000Y67000D02*Y64000D01*
X610000Y67000D02*Y64000D01*
X600000Y67000D02*Y64000D01*
X590000Y67000D02*Y64000D01*
X580000Y67000D02*Y64000D01*
X570000Y67000D02*Y64000D01*
X560000Y67000D02*Y64000D01*
X550000Y67000D02*Y64000D01*
X559500Y52500D02*Y49500D01*
X569500Y52500D02*Y49500D01*
X579500Y52500D02*Y49500D01*
X589500Y52500D02*Y49500D01*
X599500Y52500D02*Y49500D01*
X609500Y52500D02*Y49500D01*
X619500Y52500D02*Y49500D01*
X629500Y52500D02*Y49500D01*
X639500Y52500D02*Y49500D01*
X590000Y137000D02*Y134000D01*
X600000Y137000D02*Y134000D01*
X610000Y137000D02*Y134000D01*
X620000Y137000D02*Y134000D01*
X619500Y112500D02*Y109500D01*
X630000Y137000D02*Y134000D01*
X639500Y112500D02*Y109500D01*
X629500Y112500D02*Y109500D01*
X609500Y112500D02*Y109500D01*
X599500Y112500D02*Y109500D01*
X589500Y112500D02*Y109500D01*
X579500Y112500D02*Y109500D01*
X569500Y112500D02*Y109500D01*
G54D16*X213000Y148000D03*
Y137500D03*
X194000Y141000D03*
X86000Y41000D03*
X82500Y70000D03*
X38000Y135500D03*
Y144500D03*
X206000Y137500D03*
X189000D03*
X89500Y66000D03*
X130500Y70500D03*
X168500Y32500D03*
X123000Y34000D03*
X244500Y27000D03*
X349000Y18000D03*
Y37500D03*
X354000Y13500D03*
Y41500D03*
Y80500D03*
X368000Y36500D03*
X357500Y27000D03*
X345500Y30500D03*
X353000Y134000D03*
X199500Y113000D03*
X303500Y104000D03*
X310000Y95000D03*
X313500Y87500D03*
X314000Y9000D03*
X344000Y13500D03*
X333500Y14000D03*
X317500D03*
X340500Y39000D03*
X326500Y34000D03*
X335000Y62500D03*
X250000Y66000D03*
X246500Y60500D03*
X82500Y59000D03*
Y75500D03*
X89500D03*
X375000Y43500D03*
X374000Y91000D03*
X378500Y84500D03*
X381500Y94500D03*
X661500Y56500D03*
X414750Y66500D03*
X575500Y82000D03*
X453500Y75000D03*
X482000Y82000D03*
X556500D03*
X460000Y93750D03*
X567500Y90000D03*
X706000Y39500D03*
X534500Y153500D03*
X539500Y153000D03*
X516500Y126500D03*
X564000Y97250D03*
X618500Y103500D03*
X668500Y119000D03*
X656500Y84000D03*
X663500Y98500D03*
X692500Y106500D03*
X681500Y112000D03*
X687500Y119500D03*
X704000Y98500D03*
X585500Y96000D03*
X606500Y143000D03*
X694500Y128500D03*
X618500Y84000D03*
X595000Y89000D03*
X625500Y77000D03*
X614000Y43000D03*
X605750Y27500D03*
X627500Y31000D03*
X590000Y18500D03*
X613500Y21500D03*
X534500Y100750D03*
X620500Y96000D03*
X649500Y95000D03*
Y112000D03*
X535000Y13500D03*
X489500Y21500D03*
X494000Y39250D03*
X601500Y15000D03*
X585000Y23500D03*
X645500Y39500D03*
X586500Y11000D03*
X484500Y18000D03*
X487500Y41500D03*
X406250Y97000D03*
X416250Y105000D03*
X427000Y97250D03*
X445500Y105000D03*
X448500Y135500D03*
X402500Y102000D03*
X460000Y101500D03*
X452000Y130000D03*
X427000Y105000D03*
X424750Y110000D03*
X414750Y117000D03*
X436000D03*
X416250Y122000D03*
X427000Y120500D03*
X370000Y20500D03*
X453500Y19000D03*
G54D17*G54D18*G54D19*G54D18*G54D19*G54D18*G54D20*G54D18*G54D19*G54D18*G54D19*G54D18*G54D20*G54D18*G54D20*G54D18*G54D20*G54D18*G54D21*G54D18*M02*
