G04 start of page 3 for group 1 idx 1 *
G04 Title: (unknown), solder *
G04 Creator: pcb 20100929 *
G04 CreationDate: Mon 21 Feb 2011 05:52:53 PM GMT UTC *
G04 For: vince *
G04 Format: Gerber/RS-274X *
G04 PCB-Dimensions: 480000 150000 *
G04 PCB-Coordinate-Origin: lower left *
%MOIN*%
%FSLAX25Y25*%
%LNBACK*%
%ADD11C,0.0120*%
%ADD12C,0.0650*%
%ADD13C,0.0200*%
%ADD14C,0.0700*%
%ADD15C,0.0600*%
%ADD16C,0.0400*%
%ADD17C,0.0290*%
%ADD18C,0.0280*%
%ADD19C,0.0350*%
G54D11*X401500Y52500D02*X401501D01*
X401500D02*X400000D01*
X401501D02*X401500D01*
X401501D02*X401500D01*
X406100Y57900D02*Y27900D01*
X393899Y31101D02*X360000D01*
Y26500D02*Y26499D01*
X370000Y23500D02*Y16699D01*
X360000Y26500D02*Y26499D01*
Y25000D01*
X355399Y33900D02*Y18900D01*
X360000Y31101D02*Y26500D01*
X375700Y62500D02*X375701D01*
X375700D02*X372100D01*
X375701D02*X375700D01*
X406100Y57900D02*X357500D01*
X377500Y46101D02*Y38500D01*
X367500Y33900D02*X355399D01*
X367500Y38500D02*Y33900D01*
X357500Y68500D02*Y57900D01*
X406100Y27900D02*X393899D01*
Y31101D02*Y27900D01*
X414000Y22500D02*Y12297D01*
X431500Y42500D02*Y42499D01*
Y42500D02*Y42499D01*
Y42500D02*Y42499D01*
Y42500D02*X430000D01*
X444000Y32500D02*X436399D01*
X441000Y42500D02*X436399D01*
X431500Y32500D02*X430000D01*
X431500D02*Y32499D01*
Y32500D02*Y32499D01*
Y42499D02*Y32500D01*
Y62500D02*Y62499D01*
Y62500D01*
Y62499D01*
Y62500D02*Y62499D01*
X448600Y62500D02*X444000D01*
X431500Y52500D02*Y52499D01*
Y52500D02*Y52499D01*
Y62499D02*Y52500D01*
Y32500D02*Y32499D01*
Y32500D01*
Y22500D02*Y22499D01*
Y32499D02*Y22500D01*
X418600Y13098D02*Y13097D01*
Y42500D02*X414000D01*
X418600Y13098D02*Y13097D01*
Y42500D02*Y13098D01*
X436399Y7899D02*Y7898D01*
X431500Y22500D02*Y22499D01*
Y22500D01*
X436399Y7899D02*Y7898D01*
X431500Y22500D02*X430000D01*
X436399Y32500D02*Y7899D01*
X422500Y34300D02*Y8696D01*
X431500Y52500D02*Y52499D01*
Y52500D01*
X430000D01*
X431500Y42499D02*Y42500D01*
X436399Y57900D02*Y42500D01*
X431500Y52499D02*Y42500D01*
X347500Y68500D02*Y63900D01*
X352100Y61699D02*X317500D01*
X401500Y52500D02*X322899D01*
X377500Y46101D02*X342899D01*
X352100Y78900D02*Y61699D01*
X337500Y72898D02*X335399D01*
X337500Y70000D01*
X335399Y68500D01*
X337500D01*
X347500Y63900D02*X302899D01*
X280000Y83500D02*X277500D01*
X280001D02*X280000D01*
X277500D02*X280000Y85000D01*
X327500Y83500D02*X330000Y85000D01*
X302899Y26500D02*X300000D01*
X302900D02*X302899D01*
X277500Y83500D02*Y68500D01*
Y38500D02*Y31699D01*
X284600Y25299D02*Y16699D01*
Y33900D02*Y25299D01*
X294000Y31099D02*Y25299D01*
X337500Y72899D02*X335399D01*
X337501D02*X337500D01*
X170000Y86500D02*Y86499D01*
Y92949D02*Y86500D01*
Y86499D01*
Y85000D01*
Y92949D02*X145149D01*
X172100Y78900D02*X134600D01*
X133900Y49701D02*Y48302D01*
X182899D02*X133900D01*
X172100Y78900D02*Y63900D01*
X177500Y46101D02*X142899D01*
X177500Y83500D02*Y68500D01*
X180000Y83500D02*X177500D01*
X180001D02*X180000D01*
X177500D02*X180000Y85000D01*
X197500Y76101D02*X188750D01*
X197500D02*Y68500D01*
X192100Y63900D02*X172100D01*
X193750Y101251D02*Y101250D01*
X200000Y86500D02*Y86499D01*
Y91101D02*Y86500D01*
X193750Y124900D02*Y101251D01*
X188750Y87500D02*Y76101D01*
X186988Y101251D02*Y101250D01*
Y101251D02*Y101250D01*
Y101251D02*X187340D01*
Y115978D02*Y101251D01*
Y121539D02*Y115978D01*
Y121539D02*Y115978D01*
X202899Y63900D02*Y26500D01*
X200000Y26499D02*Y25000D01*
Y26499D02*X202899Y26500D01*
X202900D01*
X200000D02*X202899D01*
X200000D01*
X202900D02*X202899D01*
X189899Y31101D02*Y16699D01*
Y31101D02*X182899D01*
X192100Y63900D02*Y18900D01*
X182899Y48302D02*Y31101D01*
X127500Y37102D02*X127501D01*
X133900Y48302D02*Y48301D01*
Y48302D02*Y48301D01*
Y49701D02*Y48302D01*
Y49701D02*Y48302D01*
X177500Y46101D02*Y38500D01*
X167500Y37102D02*X167501D01*
X167500D02*X165399D01*
X167501D02*X167500D01*
X193750Y101251D02*Y101250D01*
X220000Y130000D02*Y129999D01*
Y83500D02*Y76101D01*
X208751D02*X197500D01*
X208751D02*X197500D01*
X220000D02*X208751D01*
X202976Y130000D02*X195952D01*
X210000D02*X202976D01*
Y127101D01*
X220000Y130000D02*Y129999D01*
X270000Y130000D02*Y124900D01*
X193750D01*
X315000Y130000D02*Y103749D01*
X230001Y83500D02*X230000D01*
X235399Y91101D02*X200000D01*
X227500Y83500D02*Y68500D01*
X230000Y83500D02*X227500D01*
X235399Y91101D02*Y72899D01*
X227500Y83500D02*X230000Y85000D01*
X418600Y129300D02*Y62500D01*
X393899Y124300D02*Y92500D01*
X414702Y124300D02*X393899D01*
X414702D02*Y124301D01*
Y124300D02*Y124301D01*
X284850Y123500D02*Y100000D01*
X359850Y114851D02*X354100D01*
Y135101D02*Y114851D01*
X237500Y72898D02*X235399D01*
Y68500D02*X237500D01*
X235399Y72898D02*X237500Y70000D01*
X235399Y68500D01*
X247500Y63900D02*X202899D01*
X237501Y72899D02*X237500D01*
X247500Y68500D02*Y63900D01*
X237500Y72899D02*X235399Y72898D01*
X237500Y72899D02*X235399D01*
X210000Y130000D02*X210001D01*
X220000Y135101D02*Y130000D01*
Y135101D02*X149899D01*
X210001Y130000D02*X210000D01*
X86549Y131499D02*Y112500D01*
X91549Y135101D02*X90698D01*
Y102500D01*
X187340Y127101D02*Y121539D01*
Y127101D02*Y121539D01*
Y127101D02*Y121539D01*
X202976Y127101D02*X187340D01*
X282100Y46101D02*X207500D01*
X277500Y31699D02*X240000D01*
X267500Y33900D02*X230000D01*
X267500Y38500D02*Y33900D01*
X227501Y37102D02*X227500D01*
X214600Y38500D02*X217500Y40000D01*
X315399Y14498D02*X92899D01*
X422500Y8696D02*X58301D01*
X414000Y12297D02*X51500D01*
Y52500D02*Y52499D01*
Y42499D02*Y42500D01*
Y52499D02*Y52500D01*
Y62500D02*Y62499D01*
Y62500D01*
X80001Y22500D02*X80000D01*
X51500Y22499D02*Y22500D01*
Y32499D02*Y32500D01*
X230000Y26499D02*Y25000D01*
X207500Y46101D02*Y38500D01*
X284600Y16699D02*X189899D01*
X214600Y38500D02*Y18900D01*
X217500Y38500D02*X214600D01*
X217501D02*X217500D01*
X214600Y18900D02*X192100D01*
X270000Y23500D02*Y18900D01*
X225399D01*
X240000Y26500D02*Y26499D01*
Y31699D02*Y26500D01*
X230000D02*Y26499D01*
Y33900D02*Y26500D01*
X227500Y37102D02*X225399D01*
Y18900D01*
X330000Y95150D02*X150000D01*
X275100Y100000D02*X252500D01*
X237500Y72899D02*X235399D01*
X237500D02*X237501D01*
X330000Y100000D02*Y99999D01*
X214600Y38500D02*X217500D01*
X217501D01*
X200000Y26500D02*Y26499D01*
X227500Y83500D02*X230000D01*
X230001D01*
X96500Y57101D02*X96501D01*
X227500Y37102D02*X227501D01*
X140000Y26500D02*Y26499D01*
Y25000D01*
X68097Y67101D02*Y62099D01*
X177500Y83500D02*X180000D01*
X180001D01*
X200000Y86500D02*Y86499D01*
Y85000D01*
X240000Y26500D02*Y26499D01*
X230000Y26500D02*Y26499D01*
X240000D02*Y25000D01*
X300000Y86500D02*Y86499D01*
Y85000D01*
X277500Y83500D02*X280000D01*
X280001D01*
X297500Y76101D02*Y68500D01*
Y76101D02*X289299D01*
Y91550D02*Y76101D01*
X284850Y100000D02*X280000D01*
X309850Y137302D02*Y100000D01*
X325000Y126502D02*Y126501D01*
Y130000D02*Y126502D01*
Y126501D01*
Y130000D02*Y126502D01*
X325001D02*X325000D01*
X330000Y100000D02*Y99999D01*
Y104851D02*Y100000D01*
Y99999D01*
X322948Y126502D02*Y104850D01*
X325000Y126502D02*X322948D01*
X321549Y104849D02*X322948Y104850D01*
X322949D01*
X321549D02*X322948D01*
X321549D01*
X322949D02*X322948D01*
X309850Y100000D02*X305000D01*
X337500Y72899D02*X337501D01*
X337500D02*X335399D01*
X315399Y33900D02*Y14498D01*
X317500Y61699D02*Y41500D01*
X322899Y33900D02*X315399D01*
X300000Y26500D02*Y26499D01*
X302899Y63900D02*Y26500D01*
X300000Y26499D02*X302899Y26500D01*
X302900D01*
X300000D02*X302899D01*
X300000Y26499D02*Y25000D01*
X282100Y46101D02*Y33900D01*
X284600D02*X282100D01*
X294000Y25299D02*X284600D01*
X327500Y37102D02*X325399D01*
X327500D02*X327501D01*
X330000Y23500D02*Y18900D01*
X327501Y37102D02*X327500D01*
X322899Y52500D02*Y33900D01*
X325399Y37102D02*Y16699D01*
X340000Y26500D02*Y26499D01*
Y25000D01*
X342899Y46101D02*Y26500D01*
X340000Y26499D02*X342899Y26500D01*
X342900D01*
X340000D02*X342899D01*
X340000D01*
X342900D02*X342899D01*
X355399Y18900D02*X330000D01*
X370000Y16699D02*X325399D01*
X330000Y99999D02*Y95150D01*
X327500Y83500D02*X330000D01*
X327500D02*Y68500D01*
X330000Y83500D02*X327500D01*
X308751Y76101D02*X297500D01*
X308751D02*X297500D01*
X320000D02*X308751D01*
X320000Y83500D02*Y76101D01*
X330001Y83500D02*X330000D01*
X330001D01*
X344600Y95150D02*Y78900D01*
X337500Y72899D02*X335399Y72898D01*
X51500Y32500D02*Y32499D01*
Y32500D02*Y32499D01*
Y32500D02*Y32499D01*
X81500Y22500D02*X80001D01*
X78500D02*X59701D01*
X80000D02*X78500D01*
X80001D02*X80000D01*
X58301Y8696D02*Y8695D01*
X59701Y15897D02*Y15896D01*
X58301Y8696D02*Y8695D01*
X59701Y15897D02*Y15896D01*
Y22500D02*Y15897D01*
X51500Y22500D02*X50000D01*
X51500D02*Y22499D01*
Y22500D02*Y22499D01*
Y12297D01*
Y22500D02*Y22499D01*
Y32499D02*Y22500D01*
X92899Y52500D02*Y14498D01*
X51500Y32500D02*X50000D01*
X51500Y52500D02*X50000D01*
X51500D02*Y52499D01*
Y52500D02*Y52499D01*
Y42499D02*Y32500D01*
Y42500D02*Y42499D01*
Y42500D02*X50000D01*
X51500D02*Y42499D01*
Y42500D02*Y42499D01*
Y52499D02*Y42500D01*
X86100Y82500D02*Y67101D01*
X68097D01*
X86100Y82500D02*X81500D01*
X71698Y57100D02*Y57099D01*
Y57101D02*Y57100D01*
X96500Y57101D02*X71698D01*
X92899Y52500D02*X81500D01*
X78500Y92500D02*X78501D01*
X80000D01*
X78500D02*X73899D01*
X78501D02*X78500D01*
X104850Y76101D02*X97500D01*
X104899Y123497D02*X92899D01*
Y63900D01*
X51500Y72500D02*Y72499D01*
Y72500D01*
Y72499D01*
Y72500D02*Y72499D01*
Y82500D02*Y82499D01*
Y82500D02*Y82499D01*
Y82500D02*X50000D01*
X51500D02*Y82499D01*
Y92499D02*Y92500D01*
X50000D01*
X51500D02*Y92499D01*
Y82500D01*
Y92500D02*Y92499D01*
Y72500D02*X50000D01*
X51500Y72499D02*Y62500D01*
Y82499D02*Y72500D01*
X73900Y143104D02*X73901D01*
X73900D02*X73899D01*
X73901D02*X73900D01*
X73899D02*Y92500D01*
X90698Y102500D02*X81500D01*
X86549Y112500D02*X81500D01*
X51500Y92500D02*Y92499D01*
Y102500D02*X50000D01*
X51500D02*Y102499D01*
Y102500D01*
Y102499D01*
Y102500D02*Y102499D01*
Y112500D02*Y102500D01*
Y102499D02*Y92500D01*
X71698Y57100D02*Y57099D01*
X51500Y62500D02*X50000D01*
X51500D02*Y62499D01*
Y52500D01*
Y62500D02*Y62499D01*
X112899Y83500D02*Y46101D01*
Y83500D02*X110000D01*
X112900D02*X112899D01*
X112426Y91101D02*X110000D01*
X120000Y86500D02*Y86499D01*
Y85000D01*
X127500Y83500D02*X130000D01*
X130001D01*
X110000D02*X112899D01*
X112900D01*
X110000D02*X112899D01*
X137500Y46101D02*Y38500D01*
Y46101D02*X112899D01*
X127500Y37102D02*X125399D01*
X127501D02*X127500D01*
X102100Y63900D02*Y33900D01*
X117500D02*X102100D01*
X117500Y38500D02*Y33900D01*
X97500Y76101D02*Y68500D01*
X102100Y63900D02*X92899D01*
X96501Y57101D02*X96500D01*
X127500Y83500D02*Y68500D01*
X130000Y83500D02*X127500D01*
X130000Y85000D01*
X170000Y16699D02*X125399D01*
X142899Y46101D02*Y26500D01*
X140000D01*
X165399Y37102D02*Y18900D01*
X170000Y23500D02*Y16699D01*
X140000Y26499D02*X142899Y26500D01*
X142900D01*
X140000D02*X142899D01*
X142900D02*X142899D01*
X165399Y18900D02*X130000D01*
Y23500D02*Y18900D01*
X125399Y37102D02*Y16699D01*
X110000Y130000D02*Y91101D01*
X149899Y135101D02*Y124900D01*
X150001Y110000D02*X150000D01*
Y100000D02*Y95150D01*
X120000Y130000D02*Y129999D01*
Y130000D02*Y129999D01*
Y135101D02*Y130000D01*
Y135101D02*X104899D01*
Y123497D01*
X120149Y124900D02*Y105150D01*
X165000Y130000D02*Y105150D01*
X149899Y124900D02*X120149D01*
X150000Y110000D02*X150001D01*
X165000Y105150D02*X145149D01*
Y92949D01*
X134600Y105150D02*Y78900D01*
X130001Y83500D02*X130000D01*
X134600Y105150D02*X120149D01*
X150000Y110000D02*X125000D01*
X104850Y91101D02*Y76101D01*
X112426Y91101D02*X110000D01*
X104850D01*
X112899Y83500D02*X110000Y85000D01*
X120000Y86500D02*Y86499D01*
Y91101D02*Y86500D01*
Y91101D02*X112426D01*
X359850Y104851D02*X330000D01*
X355000Y110000D02*X330000D01*
X335399Y91101D02*Y72899D01*
X448600Y137302D02*X309850D01*
X450801Y139503D02*X275100D01*
X436100Y135101D02*X354100D01*
X321549Y104850D02*Y104849D01*
X275100Y139503D02*Y100000D01*
X325000Y130000D02*Y126502D01*
X325001D01*
X335399Y91101D02*X300000D01*
Y86500D02*Y86499D01*
Y91101D02*Y86500D01*
X380000Y83500D02*X377500D01*
Y68500D01*
X380001Y83500D02*X380000D01*
X377500D02*X380000Y85000D01*
X352100Y78900D02*X344600D01*
X370000Y130000D02*Y86500D01*
X355000Y110000D02*X355001D01*
X355000D01*
X436100Y135101D02*Y72500D01*
X448600Y137302D02*Y62500D01*
X450801Y57900D02*X436399D01*
X431500Y92500D02*Y92499D01*
Y92500D01*
X430000D01*
X431500Y102500D02*Y102499D01*
X422201Y117100D02*Y64700D01*
X418600Y62500D02*X414000D01*
X450801Y139503D02*Y57900D01*
X431500Y82500D02*Y82499D01*
Y82500D01*
X422201Y64700D02*Y64699D01*
X431500Y82500D02*X430000D01*
X431500Y72500D02*X430000D01*
X422201Y64700D02*Y64699D01*
X431500Y62500D02*X430000D01*
X441000Y72500D02*X436100D01*
X431500D02*Y72499D01*
Y72500D01*
X372100Y78900D02*X364600D01*
X370000Y86500D02*Y86499D01*
Y85000D01*
Y86500D02*Y86499D01*
X359850Y114851D02*Y104851D01*
X364600Y123500D02*Y78900D01*
X401500Y92500D02*X401501D01*
X401500D01*
X401501D02*X401500D01*
X406100Y102500D02*X401500D01*
X406100D02*Y67900D01*
X390299Y116250D02*X391698D01*
X391699D01*
X390299D02*X391698D01*
X390299D01*
X391699D02*X391698D01*
Y76101D01*
X375149Y125054D02*X376500D01*
X376501D01*
X375149D02*Y91101D01*
X376500Y125054D02*X375149D01*
X376501D02*X376500D01*
X401500Y92500D02*X393899D01*
X384600Y91101D02*X375149D01*
X384600D02*Y76101D01*
X382899D01*
X398500D02*X395502D01*
X398500Y72500D02*X395501D01*
X398500D02*Y76101D01*
X395502D02*X395501D01*
X377500Y83500D02*X380000D01*
X380001D01*
X382899Y76101D02*Y63900D01*
X372100Y78900D02*Y62500D01*
X393899Y63900D02*X382899D01*
X393899Y67900D02*Y63900D01*
X401500Y72500D02*X401501D01*
X398500D02*X400000D01*
X398500D02*X395501D01*
X401501D02*X398500D01*
X401500Y92500D02*X400000D01*
X398500Y72500D02*Y76101D01*
X395502D01*
X398500Y72500D02*X395501Y72499D01*
X395502Y76101D02*X395501D01*
Y72500D02*Y72499D01*
Y76101D02*Y72500D01*
Y76101D02*X391698D01*
X406100Y67900D02*X393899D01*
X431500Y92500D02*Y92499D01*
Y82500D01*
Y82499D01*
Y72500D01*
Y82500D02*Y82499D01*
Y102500D02*Y102499D01*
Y102500D02*X430000D01*
X431500D02*Y102499D01*
Y112500D02*Y102500D01*
Y72500D02*Y72499D01*
Y62500D01*
Y72500D02*Y72499D01*
Y92500D02*Y92499D01*
Y102499D02*Y92500D01*
G54D12*X150000Y110000D03*
Y100000D03*
X175000Y110000D03*
Y100000D03*
G54D13*G36*
X161500Y133500D02*Y126500D01*
X168500D01*
Y133500D01*
X161500D01*
G37*
G54D14*X155000Y130000D03*
G54D12*X200000Y110000D03*
Y100000D03*
G54D15*X180000Y85000D03*
X200000D03*
X170000D03*
X160000D03*
X150000D03*
X140000D03*
X130000D03*
X120000D03*
G54D14*Y130000D03*
G54D15*X110000Y85000D03*
X100000D03*
G54D13*G36*
X106500Y133500D02*Y126500D01*
X113500D01*
Y133500D01*
X106500D01*
G37*
G54D15*X50000Y112500D03*
Y102500D03*
Y92500D03*
Y82500D03*
Y72500D03*
Y62500D03*
Y52500D03*
Y42500D03*
Y32500D03*
Y22500D03*
X80000Y52500D03*
Y62500D03*
Y72500D03*
Y82500D03*
Y92500D03*
Y22500D03*
Y32500D03*
Y42500D03*
X97500Y70000D03*
X107500D03*
X117500D03*
X127500D03*
X137500D03*
X147500D03*
X157500D03*
X167500D03*
X177500D03*
X187500D03*
G54D12*X100000Y110000D03*
Y100000D03*
X125000Y110000D03*
Y100000D03*
G54D15*X80000Y102500D03*
Y112500D03*
X100000Y25000D03*
X110000D03*
X120000D03*
X130000D03*
X140000D03*
X150000D03*
X160000D03*
X157500Y40000D03*
X147500D03*
X170000Y25000D03*
X167500Y40000D03*
X180000Y25000D03*
X187500Y40000D03*
X177500D03*
X200000Y25000D03*
X137500Y40000D03*
X127500D03*
X117500D03*
X107500D03*
X97500D03*
G54D12*X227500Y110000D03*
X252500D03*
X280000D03*
X227500Y100000D03*
X252500D03*
X280000D03*
X305000D03*
X330000D03*
X355000D03*
G54D13*G36*
X266500Y133500D02*Y126500D01*
X273500D01*
Y133500D01*
X266500D01*
G37*
G54D14*X260000Y130000D03*
G54D13*G36*
X206500Y133500D02*Y126500D01*
X213500D01*
Y133500D01*
X206500D01*
G37*
G54D14*X220000Y130000D03*
G54D15*X267500Y70000D03*
X277500D03*
X287500D03*
X280000Y85000D03*
X270000D03*
X260000D03*
X250000D03*
X240000D03*
X230000D03*
X220000D03*
X210000D03*
X350000D03*
X340000D03*
X330000D03*
X320000D03*
X310000D03*
X300000D03*
X247500Y40000D03*
X237500D03*
X227500D03*
X217500D03*
X207500D03*
X197500D03*
Y70000D03*
X207500D03*
X217500D03*
X210000Y25000D03*
X220000D03*
X230000D03*
X227500Y70000D03*
X237500D03*
X247500D03*
X257500D03*
X240000Y25000D03*
X250000D03*
X260000D03*
X270000D03*
X287500Y40000D03*
X297500D03*
X280000Y25000D03*
X300000D03*
X277500Y40000D03*
X267500D03*
X257500D03*
X430000Y22500D03*
X442500D03*
X412500D03*
X430000Y32500D03*
X442500D03*
X412500D03*
X400000Y72500D03*
Y62500D03*
Y52500D03*
Y42500D03*
Y32500D03*
Y22500D03*
G54D12*X305000Y110000D03*
X330000D03*
X355000D03*
X380000D03*
G54D13*G36*
X311500Y133500D02*Y126500D01*
X318500D01*
Y133500D01*
X311500D01*
G37*
G54D14*X325000Y130000D03*
G54D12*X380000Y100000D03*
G54D15*X400000Y102500D03*
G54D13*G36*
X366500Y133500D02*Y126500D01*
X373500D01*
Y133500D01*
X366500D01*
G37*
G54D14*X360000Y130000D03*
G54D15*X430000Y102500D03*
X412500D03*
X430000Y112500D03*
X400000D03*
X412500D03*
X442500D03*
Y102500D03*
X297500Y70000D03*
X307500D03*
X317500D03*
X327500D03*
X337500D03*
X347500D03*
X357500D03*
X367500D03*
X377500D03*
X387500D03*
X430000Y42500D03*
X442500D03*
X412500D03*
Y52500D03*
Y62500D03*
Y72500D03*
X430000Y52500D03*
Y62500D03*
Y72500D03*
X442500D03*
Y62500D03*
Y52500D03*
X430000Y82500D03*
Y92500D03*
X442500D03*
Y82500D03*
X400000Y92500D03*
Y82500D03*
X412500D03*
Y92500D03*
X380000Y85000D03*
X370000D03*
X360000D03*
X387500Y40000D03*
X377500D03*
X367500D03*
X357500D03*
X347500D03*
X337500D03*
X327500D03*
X317500D03*
X307500D03*
X310000Y25000D03*
X320000D03*
X330000D03*
X340000D03*
X350000D03*
X360000D03*
X370000D03*
X380000D03*
G54D16*X375700Y62500D03*
X390299Y116250D03*
X422500Y34300D03*
X422201Y117100D03*
Y64700D03*
X364600Y123500D03*
X376500Y125054D03*
X418600Y129300D03*
X414702Y124300D03*
X91549Y135101D03*
X73900Y143104D03*
X86549Y131499D03*
X284850Y123500D03*
X418600Y13098D03*
X59701Y15897D03*
X58301Y8696D03*
X436399Y7899D03*
X289299Y91550D03*
X344600Y95150D03*
X321549Y104850D03*
X294000Y31099D03*
X315000Y103749D03*
X193750Y101251D03*
X96500Y57101D03*
X71698Y57100D03*
X133900Y49701D03*
X68097Y62099D03*
X188750Y87500D03*
X186988Y101251D03*
G54D15*X48500Y112500D02*X51500D01*
X48500Y102500D02*X51500D01*
X48500Y92500D02*X51500D01*
X48500Y82500D02*X51500D01*
X48500Y72500D02*X51500D01*
X48500Y62500D02*X51500D01*
X48500Y52500D02*X51500D01*
X48500Y42500D02*X51500D01*
X48500Y32500D02*X51500D01*
X78500Y62500D02*X81500D01*
X78500Y72500D02*X81500D01*
X78500Y82500D02*X81500D01*
X78500Y92500D02*X81500D01*
X78500Y102500D02*X81500D01*
X78500Y112500D02*X81500D01*
X48500Y22500D02*X51500D01*
X78500Y32500D02*X81500D01*
X78500Y42500D02*X81500D01*
X78500Y52500D02*X81500D01*
X237500Y41500D02*Y38500D01*
X227500Y41500D02*Y38500D01*
X217500Y41500D02*Y38500D01*
X207500Y41500D02*Y38500D01*
X187500Y41500D02*Y38500D01*
X197500Y41500D02*Y38500D01*
Y71500D02*Y68500D01*
X207500Y71500D02*Y68500D01*
X217500Y71500D02*Y68500D01*
X227500Y71500D02*Y68500D01*
X237500Y71500D02*Y68500D01*
X247500Y71500D02*Y68500D01*
X187500Y71500D02*Y68500D01*
X257500Y71500D02*Y68500D01*
X260000Y86500D02*Y83500D01*
X250000Y86500D02*Y83500D01*
X240000Y86500D02*Y83500D01*
X230000Y86500D02*Y83500D01*
X220000Y86500D02*Y83500D01*
X210000Y86500D02*Y83500D01*
X200000Y86500D02*Y83500D01*
Y26500D02*Y23500D01*
X210000Y26500D02*Y23500D01*
X220000Y26500D02*Y23500D01*
X230000Y26500D02*Y23500D01*
X398500Y72500D02*X401500D01*
X398500Y62500D02*X401500D01*
X398500Y52500D02*X401500D01*
X398500Y42500D02*X401500D01*
X387500Y41500D02*Y38500D01*
X398500Y32500D02*X401500D01*
X398500Y22500D02*X401500D01*
X377500Y41500D02*Y38500D01*
X367500Y41500D02*Y38500D01*
X357500Y41500D02*Y38500D01*
X317500Y71500D02*Y68500D01*
X327500Y71500D02*Y68500D01*
X337500Y71500D02*Y68500D01*
X347500Y71500D02*Y68500D01*
X357500Y71500D02*Y68500D01*
X367500Y71500D02*Y68500D01*
X377500Y71500D02*Y68500D01*
X347500Y41500D02*Y38500D01*
X337500Y41500D02*Y38500D01*
X327500Y41500D02*Y38500D01*
X317500Y41500D02*Y38500D01*
X320000Y26500D02*Y23500D01*
X330000Y26500D02*Y23500D01*
X340000Y26500D02*Y23500D01*
X350000Y26500D02*Y23500D01*
X360000Y26500D02*Y23500D01*
X370000Y26500D02*Y23500D01*
X380000Y26500D02*Y23500D01*
X387500Y71500D02*Y68500D01*
X380000Y86500D02*Y83500D01*
X370000Y86500D02*Y83500D01*
X360000Y86500D02*Y83500D01*
X350000Y86500D02*Y83500D01*
X340000Y86500D02*Y83500D01*
X330000Y86500D02*Y83500D01*
X320000Y86500D02*Y83500D01*
X78500Y22500D02*X81500D01*
X100000Y26500D02*Y23500D01*
X110000Y26500D02*Y23500D01*
X120000Y26500D02*Y23500D01*
X180000Y86500D02*Y83500D01*
X170000Y86500D02*Y83500D01*
X160000Y86500D02*Y83500D01*
X150000Y86500D02*Y83500D01*
Y26500D02*Y23500D01*
X160000Y26500D02*Y23500D01*
X170000Y26500D02*Y23500D01*
X180000Y26500D02*Y23500D01*
X177500Y41500D02*Y38500D01*
X167500Y41500D02*Y38500D01*
X157500Y41500D02*Y38500D01*
X147500Y41500D02*Y38500D01*
X130000Y26500D02*Y23500D01*
X140000Y26500D02*Y23500D01*
X137500Y41500D02*Y38500D01*
X127500Y41500D02*Y38500D01*
X117500Y41500D02*Y38500D01*
X107500Y41500D02*Y38500D01*
X97500Y41500D02*Y38500D01*
X140000Y86500D02*Y83500D01*
X130000Y86500D02*Y83500D01*
X120000Y86500D02*Y83500D01*
X110000Y86500D02*Y83500D01*
X100000Y86500D02*Y83500D01*
X97500Y71500D02*Y68500D01*
X107500Y71500D02*Y68500D01*
X117500Y71500D02*Y68500D01*
X127500Y71500D02*Y68500D01*
X137500Y71500D02*Y68500D01*
X147500Y71500D02*Y68500D01*
X157500Y71500D02*Y68500D01*
X167500Y71500D02*Y68500D01*
X177500Y71500D02*Y68500D01*
X428500Y22500D02*X431500D01*
X428500Y32500D02*X431500D01*
X411000Y22500D02*X414000D01*
X411000Y32500D02*X414000D01*
X428500Y62500D02*X431500D01*
X428500Y72500D02*X431500D01*
X428500Y82500D02*X431500D01*
X428500Y92500D02*X431500D01*
X428500Y102500D02*X431500D01*
X428500Y112500D02*X431500D01*
X398500D02*X401500D01*
X411000D02*X414000D01*
X398500Y102500D02*X401500D01*
X398500Y92500D02*X401500D01*
X398500Y82500D02*X401500D01*
X411000D02*X414000D01*
X411000Y92500D02*X414000D01*
X411000Y102500D02*X414000D01*
X441000Y112500D02*X444000D01*
X441000Y102500D02*X444000D01*
X441000Y92500D02*X444000D01*
X441000Y82500D02*X444000D01*
X441000Y72500D02*X444000D01*
X441000Y62500D02*X444000D01*
X441000Y52500D02*X444000D01*
X441000Y42500D02*X444000D01*
X441000Y32500D02*X444000D01*
X441000Y22500D02*X444000D01*
X428500Y42500D02*X431500D01*
X428500Y52500D02*X431500D01*
X411000Y42500D02*X414000D01*
X411000Y52500D02*X414000D01*
X411000Y62500D02*X414000D01*
X411000Y72500D02*X414000D01*
X267500Y41500D02*Y38500D01*
X257500Y41500D02*Y38500D01*
X287500Y41500D02*Y38500D01*
X277500Y41500D02*Y38500D01*
X247500Y41500D02*Y38500D01*
X307500Y41500D02*Y38500D01*
X297500Y41500D02*Y38500D01*
X267500Y71500D02*Y68500D01*
X277500Y71500D02*Y68500D01*
X287500Y71500D02*Y68500D01*
X297500Y71500D02*Y68500D01*
X307500Y71500D02*Y68500D01*
X280000Y86500D02*Y83500D01*
X270000Y86500D02*Y83500D01*
X310000Y86500D02*Y83500D01*
X300000Y86500D02*Y83500D01*
X240000Y26500D02*Y23500D01*
X250000Y26500D02*Y23500D01*
X260000Y26500D02*Y23500D01*
X270000Y26500D02*Y23500D01*
X280000Y26500D02*Y23500D01*
X300000Y26500D02*Y23500D01*
X310000Y26500D02*Y23500D01*
G54D17*G54D18*G54D17*G54D19*G54D18*G54D19*G54D18*G54D19*G54D17*G54D19*G54D17*G54D18*G54D19*G54D17*G54D18*G54D17*G54D19*G54D18*G54D19*G54D13*M02*
