G04 start of page 9 for group -4014 idx -4014 *
G04 Title: (unknown), bottompaste *
G04 Creator: pcb 20100929 *
G04 CreationDate: Mon 21 Feb 2011 05:52:53 PM GMT UTC *
G04 For: vince *
G04 Format: Gerber/RS-274X *
G04 PCB-Dimensions: 480000 150000 *
G04 PCB-Coordinate-Origin: lower left *
%MOIN*%
%FSLAX25Y25*%
%LNBACKPASTE*%
%ADD15C,0.0600*%
G54D15*X300000Y26500D02*Y23500D01*
X310000Y26500D02*Y23500D01*
X320000Y26500D02*Y23500D01*
X330000Y26500D02*Y23500D01*
X340000Y26500D02*Y23500D01*
X350000Y26500D02*Y23500D01*
X360000Y26500D02*Y23500D01*
X370000Y26500D02*Y23500D01*
X380000Y26500D02*Y23500D01*
Y86500D02*Y83500D01*
X370000Y86500D02*Y83500D01*
X360000Y86500D02*Y83500D01*
X350000Y86500D02*Y83500D01*
X340000Y86500D02*Y83500D01*
X330000Y86500D02*Y83500D01*
X320000Y86500D02*Y83500D01*
X310000Y86500D02*Y83500D01*
X300000Y86500D02*Y83500D01*
X441000Y112500D02*X444000D01*
X441000Y102500D02*X444000D01*
X441000Y92500D02*X444000D01*
X441000Y82500D02*X444000D01*
X441000Y72500D02*X444000D01*
X441000Y62500D02*X444000D01*
X441000Y52500D02*X444000D01*
X441000Y42500D02*X444000D01*
X441000Y32500D02*X444000D01*
X441000Y22500D02*X444000D01*
X411000D02*X414000D01*
X411000Y32500D02*X414000D01*
X411000Y42500D02*X414000D01*
X411000Y52500D02*X414000D01*
X411000Y62500D02*X414000D01*
X411000Y72500D02*X414000D01*
X411000Y82500D02*X414000D01*
X411000Y92500D02*X414000D01*
X411000Y102500D02*X414000D01*
X411000Y112500D02*X414000D01*
X187500Y41500D02*Y38500D01*
X177500Y41500D02*Y38500D01*
X167500Y41500D02*Y38500D01*
X157500Y41500D02*Y38500D01*
X147500Y41500D02*Y38500D01*
X137500Y41500D02*Y38500D01*
X127500Y41500D02*Y38500D01*
X117500Y41500D02*Y38500D01*
X107500Y41500D02*Y38500D01*
X97500Y41500D02*Y38500D01*
Y71500D02*Y68500D01*
X107500Y71500D02*Y68500D01*
X117500Y71500D02*Y68500D01*
X127500Y71500D02*Y68500D01*
X137500Y71500D02*Y68500D01*
X147500Y71500D02*Y68500D01*
X157500Y71500D02*Y68500D01*
X167500Y71500D02*Y68500D01*
X177500Y71500D02*Y68500D01*
X187500Y71500D02*Y68500D01*
X200000Y26500D02*Y23500D01*
X210000Y26500D02*Y23500D01*
X220000Y26500D02*Y23500D01*
X230000Y26500D02*Y23500D01*
X240000Y26500D02*Y23500D01*
X250000Y26500D02*Y23500D01*
X260000Y26500D02*Y23500D01*
X270000Y26500D02*Y23500D01*
X280000Y26500D02*Y23500D01*
Y86500D02*Y83500D01*
X270000Y86500D02*Y83500D01*
X260000Y86500D02*Y83500D01*
X250000Y86500D02*Y83500D01*
X240000Y86500D02*Y83500D01*
X230000Y86500D02*Y83500D01*
X220000Y86500D02*Y83500D01*
X210000Y86500D02*Y83500D01*
X200000Y86500D02*Y83500D01*
X387500Y41500D02*Y38500D01*
X377500Y41500D02*Y38500D01*
X367500Y41500D02*Y38500D01*
X357500Y41500D02*Y38500D01*
X347500Y41500D02*Y38500D01*
X337500Y41500D02*Y38500D01*
X327500Y41500D02*Y38500D01*
X317500Y41500D02*Y38500D01*
X307500Y41500D02*Y38500D01*
X297500Y41500D02*Y38500D01*
Y71500D02*Y68500D01*
X307500Y71500D02*Y68500D01*
X317500Y71500D02*Y68500D01*
X327500Y71500D02*Y68500D01*
X337500Y71500D02*Y68500D01*
X347500Y71500D02*Y68500D01*
X357500Y71500D02*Y68500D01*
X367500Y71500D02*Y68500D01*
X377500Y71500D02*Y68500D01*
X387500Y71500D02*Y68500D01*
X100000Y26500D02*Y23500D01*
X110000Y26500D02*Y23500D01*
X120000Y26500D02*Y23500D01*
X130000Y26500D02*Y23500D01*
X140000Y26500D02*Y23500D01*
X150000Y26500D02*Y23500D01*
X160000Y26500D02*Y23500D01*
X170000Y26500D02*Y23500D01*
X180000Y26500D02*Y23500D01*
Y86500D02*Y83500D01*
X170000Y86500D02*Y83500D01*
X160000Y86500D02*Y83500D01*
X150000Y86500D02*Y83500D01*
X140000Y86500D02*Y83500D01*
X130000Y86500D02*Y83500D01*
X120000Y86500D02*Y83500D01*
X110000Y86500D02*Y83500D01*
X100000Y86500D02*Y83500D01*
X48500Y112500D02*X51500D01*
X48500Y102500D02*X51500D01*
X48500Y92500D02*X51500D01*
X48500Y82500D02*X51500D01*
X48500Y72500D02*X51500D01*
X48500Y62500D02*X51500D01*
X48500Y52500D02*X51500D01*
X48500Y42500D02*X51500D01*
X48500Y32500D02*X51500D01*
X48500Y22500D02*X51500D01*
X78500D02*X81500D01*
X78500Y32500D02*X81500D01*
X78500Y42500D02*X81500D01*
X78500Y52500D02*X81500D01*
X78500Y62500D02*X81500D01*
X78500Y72500D02*X81500D01*
X78500Y82500D02*X81500D01*
X78500Y92500D02*X81500D01*
X78500Y102500D02*X81500D01*
X78500Y112500D02*X81500D01*
X428500Y22500D02*X431500D01*
X428500Y32500D02*X431500D01*
X428500Y42500D02*X431500D01*
X428500Y52500D02*X431500D01*
X428500Y62500D02*X431500D01*
X428500Y72500D02*X431500D01*
X428500Y82500D02*X431500D01*
X428500Y92500D02*X431500D01*
X428500Y102500D02*X431500D01*
X428500Y112500D02*X431500D01*
X398500D02*X401500D01*
X398500Y102500D02*X401500D01*
X398500Y92500D02*X401500D01*
X398500Y82500D02*X401500D01*
X398500Y72500D02*X401500D01*
X398500Y62500D02*X401500D01*
X398500Y52500D02*X401500D01*
X398500Y42500D02*X401500D01*
X398500Y32500D02*X401500D01*
X398500Y22500D02*X401500D01*
X287500Y41500D02*Y38500D01*
X277500Y41500D02*Y38500D01*
X267500Y41500D02*Y38500D01*
X257500Y41500D02*Y38500D01*
X247500Y41500D02*Y38500D01*
X237500Y41500D02*Y38500D01*
X227500Y41500D02*Y38500D01*
X217500Y41500D02*Y38500D01*
X207500Y41500D02*Y38500D01*
X197500Y41500D02*Y38500D01*
Y71500D02*Y68500D01*
X207500Y71500D02*Y68500D01*
X217500Y71500D02*Y68500D01*
X227500Y71500D02*Y68500D01*
X237500Y71500D02*Y68500D01*
X247500Y71500D02*Y68500D01*
X257500Y71500D02*Y68500D01*
X267500Y71500D02*Y68500D01*
X277500Y71500D02*Y68500D01*
X287500Y71500D02*Y68500D01*
M02*
